<svg width="1440" height="362" viewBox="0 0 1440 362" fill="none" xmlns="http://www.w3.org/2000/svg">
<g clip-path="url(#clip0_431_29892)">
<path d="M795.111 25.7529L771.111 25.7529L0 27.3819V361.83L1440 361.83L1440 26.1602L1390.24 26.1602C1390.24 26.1602 1381.49 28.4106 1379.36 28.4106C1377.24 28.4106 1373.11 33.815 1371.24 35.5025C1369.36 37.19 1355.36 41.94 1355.36 41.94C1355.36 41.94 1350.36 42.44 1347.8 41.3775C1345.24 40.315 1352.4 31.3605 1352.86 28.8775C1353.33 26.3945 1337.55 14.815 1336.05 12.94C1334.55 11.065 1336.8 7.06501 1335.55 5.44001C1334.3 3.81501 1328.13 -0.824652 1326.05 0.127514C1323.96 1.07968 1323.86 4.31501 1323.86 4.31501L1315.92 7.00252C1315.92 7.00252 1312.3 17.69 1311.74 18.69C1311.17 19.69 1303.86 21.2525 1301.11 23.0025C1298.36 24.7525 1294.72 32.0025 1290.49 32.0025C1286.25 32.0025 1266.74 24.6275 1266.74 24.6275L1250.61 13.3775L1238.99 8.37752C1238.99 8.37752 1228.36 6.94002 1225.99 8.94002C1223.61 10.94 1220.61 18.3775 1216.55 19.315C1212.49 20.2525 1200.85 13.6275 1197.11 13.6275C1193.38 13.6275 1190.47 24.69 1186.74 24.69C1183 24.69 1164.49 18.7525 1164.49 19.8777C1164.49 21.0029 1175.86 30.0029 1175.86 31.1279C1175.86 32.2529 1146 55.1657 1142.61 53.7529C1139.22 52.3402 1141.99 31.1279 1141.99 31.1279L1129.49 25.0029L1105.86 25.0029L1093.61 19.8779H1080.61L1067.36 31.0029C1067.36 31.0029 1068.36 39.8779 1067.36 41.5029C1066.36 43.1279 1049.36 37.0029 1049.36 37.0029C1049.36 37.0029 1045.47 42.2529 1042.99 42.2529C1040.5 42.2529 1033.24 32.3823 1033.24 32.3823C1033.24 32.3823 1011.1 42.2529 1007.61 42.2529C1004.12 42.2529 988.236 19.5029 988.236 19.5029L970.236 13.7529C970.236 13.7529 964.611 18.4986 960.486 19.5029C956.361 20.5073 915.611 25.1279 912.236 25.1279C908.861 25.1279 892.361 19.7529 892.361 19.7529L880.236 24.5029C880.236 24.5029 875.111 35.6279 871.986 37.6279C868.861 39.6279 861.611 38.2529 856.486 36.8779C851.361 35.5029 838.875 14.7529 835.861 14.7529L816.611 14.7529C812.125 14.7529 795.111 25.7529 795.111 25.7529Z" fill="url(#paint0_linear_431_29892)"/>
</g>
<defs>
<linearGradient id="paint0_linear_431_29892" x1="-1.45435e-05" y1="361.83" x2="1440" y2="361.83" gradientUnits="userSpaceOnUse">
<stop stop-color="#161616" stop-opacity="0.79"/>
<stop offset="0.774256" stop-color="#161616" stop-opacity="0.72"/>
<stop offset="0.9999" stop-color="#161616" stop-opacity="0.382683"/>
<stop offset="1" stop-color="#F7F7F7" stop-opacity="0.38"/>
</linearGradient>
<clipPath id="clip0_431_29892">
<rect width="1440" height="362" fill="white"/>
</clipPath>
</defs>
</svg>
