<svg width="1441" height="402" viewBox="0 0 1441 402" fill="none" xmlns="http://www.w3.org/2000/svg">
<g clip-path="url(#clip0_431_29517)">
<g filter="url(#filter0_d_431_29517)">
<path d="M795.557 39.8379L771.557 39.8379L0.445312 41.4668V375.915L1440.45 375.915L1440.45 40.2452L1390.68 40.2452C1390.68 40.2452 1381.93 42.4955 1379.81 42.4955C1377.68 42.4955 1373.56 47.9 1371.68 49.5875C1369.81 51.275 1355.81 56.025 1355.81 56.025C1355.81 56.025 1350.81 56.525 1348.24 55.4625C1345.68 54.4 1352.84 45.4455 1353.31 42.9625C1353.77 40.4795 1337.99 28.9 1336.49 27.025C1334.99 25.15 1337.24 21.15 1335.99 19.525C1334.74 17.9 1328.58 13.2603 1326.49 14.2125C1324.41 15.1646 1324.31 18.4 1324.31 18.4L1316.37 21.0875C1316.37 21.0875 1312.74 31.775 1312.18 32.775C1311.62 33.775 1304.31 35.3375 1301.56 37.0875C1298.81 38.8375 1295.17 46.0875 1290.93 46.0875C1286.7 46.0875 1267.18 38.7125 1267.18 38.7125L1251.06 27.4625L1239.43 22.4625C1239.43 22.4625 1228.81 21.025 1226.43 23.025C1224.06 25.025 1221.06 32.4625 1216.99 33.4C1212.93 34.3375 1201.29 27.7125 1197.56 27.7125C1193.82 27.7125 1190.92 38.775 1187.18 38.775C1183.45 38.775 1164.93 32.8374 1164.93 33.9627C1164.93 35.0879 1176.31 44.0879 1176.31 45.2129C1176.31 46.3379 1146.45 69.2506 1143.06 67.8379C1139.67 66.4252 1142.43 45.2129 1142.43 45.2129L1129.93 39.0879H1106.31L1094.06 33.9629H1081.06L1067.81 45.0879C1067.81 45.0879 1068.81 53.9629 1067.81 55.5879C1066.81 57.2129 1049.81 51.0879 1049.81 51.0879C1049.81 51.0879 1045.92 56.3379 1043.43 56.3379C1040.95 56.3379 1033.68 46.4673 1033.68 46.4673C1033.68 46.4673 1011.54 56.3379 1008.06 56.3379C1004.57 56.3379 988.682 33.5879 988.682 33.5879L970.682 27.8379C970.682 27.8379 965.057 32.5835 960.932 33.5879C956.807 34.5923 916.057 39.2129 912.682 39.2129C909.307 39.2129 892.807 33.8379 892.807 33.8379L880.682 38.5879C880.682 38.5879 875.557 49.7129 872.432 51.7129C869.307 53.7129 862.057 52.3379 856.932 50.9629C851.807 49.5879 839.32 28.8379 836.307 28.8379L817.057 28.8379C812.57 28.8379 795.557 39.8379 795.557 39.8379Z" fill="#222222"/>
</g>
</g>
<defs>
<filter id="filter0_d_431_29517" x="-19.5547" y="-2.91504" width="1480" height="401.83" filterUnits="userSpaceOnUse" color-interpolation-filters="sRGB">
<feFlood flood-opacity="0" result="BackgroundImageFix"/>
<feColorMatrix in="SourceAlpha" type="matrix" values="0 0 0 0 0 0 0 0 0 0 0 0 0 0 0 0 0 0 127 0" result="hardAlpha"/>
<feOffset dy="3"/>
<feGaussianBlur stdDeviation="10"/>
<feComposite in2="hardAlpha" operator="out"/>
<feColorMatrix type="matrix" values="0 0 0 0 0.968627 0 0 0 0 0.968627 0 0 0 0 0.968627 0 0 0 1 0"/>
<feBlend mode="normal" in2="BackgroundImageFix" result="effect1_dropShadow_431_29517"/>
<feBlend mode="normal" in="SourceGraphic" in2="effect1_dropShadow_431_29517" result="shape"/>
</filter>
<clipPath id="clip0_431_29517">
<rect width="1440" height="402" fill="white" transform="translate(0.445312)"/>
</clipPath>
</defs>
</svg>
