<?xml version="1.0" encoding="utf-8"?>
<svg width="2000" height="400" viewBox="-560 0 2000 360" fill="none" xmlns="http://www.w3.org/2000/svg">
  <g clip-path="url(#clip0_431_29892)">
    <path d="M 795.111 25.753 L 771.111 25.753 L -560 25.552 L -560 360 L 1440 361.83 L 1440 26.16 L 1390.24 26.16 C 1390.24 26.16 1381.49 28.411 1379.36 28.411 C 1377.24 28.411 1373.11 33.815 1371.24 35.503 C 1369.36 37.19 1355.36 41.94 1355.36 41.94 C 1355.36 41.94 1350.36 42.44 1347.8 41.378 C 1345.24 40.315 1352.4 31.361 1352.86 28.878 C 1353.33 26.395 1337.55 14.815 1336.05 12.94 C 1334.55 11.065 1336.8 7.065 1335.55 5.44 C 1334.3 3.815 1328.13 -0.825 1326.05 0.128 C 1323.96 1.08 1323.86 4.315 1323.86 4.315 L 1315.92 7.003 C 1315.92 7.003 1312.3 17.69 1311.74 18.69 C 1311.17 19.69 1303.86 21.253 1301.11 23.003 C 1298.36 24.753 1294.72 32.002 1290.49 32.002 C 1286.25 32.002 1266.74 24.628 1266.74 24.628 L 1250.61 13.378 L 1238.99 8.378 C 1238.99 8.378 1228.36 6.94 1225.99 8.94 C 1223.61 10.94 1220.61 18.378 1216.55 19.315 C 1212.49 20.253 1200.85 13.628 1197.11 13.628 C 1193.38 13.628 1190.47 24.69 1186.74 24.69 C 1183 24.69 1164.49 18.753 1164.49 19.878 C 1164.49 21.003 1175.86 30.003 1175.86 31.128 C 1175.86 32.253 1146 55.166 1142.61 53.753 C 1139.22 52.34 1141.99 31.128 1141.99 31.128 L 1129.49 25.003 L 1105.86 25.003 L 1093.61 19.878 L 1080.61 19.878 L 1067.36 31.003 C 1067.36 31.003 1068.36 39.878 1067.36 41.503 C 1066.36 43.128 1049.36 37.003 1049.36 37.003 C 1049.36 37.003 1045.47 42.253 1042.99 42.253 C 1040.5 42.253 1033.24 32.382 1033.24 32.382 C 1033.24 32.382 1011.1 42.253 1007.61 42.253 C 1004.12 42.253 988.236 19.503 988.236 19.503 L 970.236 13.753 C 970.236 13.753 964.611 18.499 960.486 19.503 C 956.361 20.507 915.611 25.128 912.236 25.128 C 908.861 25.128 892.361 19.753 892.361 19.753 L 880.236 24.503 C 880.236 24.503 875.111 35.628 871.986 37.628 C 868.861 39.628 861.611 38.253 856.486 36.878 C 851.361 35.503 838.875 14.753 835.861 14.753 L 816.611 14.753 C 812.125 14.753 795.111 25.753 795.111 25.753 Z" fill="url(#paint0_linear_431_29892)"/>
  </g>
  <defs>
    <linearGradient id="paint0_linear_431_29892" y1="361.83" x2="1440" y2="361.83" gradientUnits="userSpaceOnUse" x1="0">
      <stop stop-color="#161616" stop-opacity="0.79"/>
      <stop offset="0.7743" stop-color="#161616" stop-opacity="0.72"/>
      <stop offset="0.9999" stop-color="#161616" stop-opacity="0.382683"/>
      <stop offset="1" stop-color="#F7F7F7" stop-opacity="0.38"/>
    </linearGradient>
    <clipPath id="clip0_431_29892">
      <rect width="2000" height="362" fill="white" transform="translate(-560)"/>
    </clipPath>
  </defs>
</svg>