<?xml version="1.0" encoding="utf-8"?>
<svg width="2000" height="600" viewBox="-560 -6 2000 600" fill="none" xmlns="http://www.w3.org/2000/svg">
    <g clip-path="url(#clip0_431_29517)">
        <g filter="url(#filter0_d_431_29517)">
            <path d="M 795.557 39.838 L 771.557 39.838 L -560 41.467 L -560 575.915 L 1440.45 575.915 L 1440.45 40.245 L 1390.68 40.245 C 1390.68 40.245 1381.93 42.496 1379.81 42.496 C 1377.68 42.496 1373.56 47.9 1371.68 49.588 C 1369.81 51.275 1355.81 56.025 1355.81 56.025 C 1355.81 56.025 1350.81 56.525 1348.24 55.463 C 1345.68 54.4 1352.84 45.446 1353.31 42.963 C 1353.77 40.48 1337.99 28.9 1336.49 27.025 C 1334.99 25.15 1337.24 21.15 1335.99 19.525 C 1334.74 17.9 1328.58 13.26 1326.49 14.213 C 1324.41 15.165 1324.31 18.4 1324.31 18.4 L 1316.37 21.088 C 1316.37 21.088 1312.74 31.775 1312.18 32.775 C 1311.62 33.775 1304.31 35.338 1301.56 37.088 C 1298.81 38.838 1295.17 46.088 1290.93 46.088 C 1286.7 46.088 1267.18 38.713 1267.18 38.713 L 1251.06 27.463 L 1239.43 22.463 C 1239.43 22.463 1228.81 21.025 1226.43 23.025 C 1224.06 25.025 1221.06 32.463 1216.99 33.4 C 1212.93 34.338 1201.29 27.713 1197.56 27.713 C 1193.82 27.713 1190.92 38.775 1187.18 38.775 C 1183.45 38.775 1164.93 32.837 1164.93 33.963 C 1164.93 35.088 1176.31 44.088 1176.31 45.213 C 1176.31 46.338 1146.45 69.251 1143.06 67.838 C 1139.67 66.425 1142.43 45.213 1142.43 45.213 L 1129.93 39.088 L 1106.31 39.088 L 1094.06 33.963 L 1081.06 33.963 L 1067.81 45.088 C 1067.81 45.088 1068.81 53.963 1067.81 55.588 C 1066.81 57.213 1049.81 51.088 1049.81 51.088 C 1049.81 51.088 1045.92 56.338 1043.43 56.338 C 1040.95 56.338 1033.68 46.467 1033.68 46.467 C 1033.68 46.467 1011.54 56.338 1008.06 56.338 C 1004.57 56.338 988.682 33.588 988.682 33.588 L 970.682 27.838 C 970.682 27.838 965.057 32.584 960.932 33.588 C 956.807 34.592 916.057 39.213 912.682 39.213 C 909.307 39.213 892.807 33.838 892.807 33.838 L 880.682 38.588 C 880.682 38.588 875.557 49.713 872.432 51.713 C 869.307 53.713 862.057 52.338 856.932 50.963 C 851.807 49.588 839.32 28.838 836.307 28.838 L 817.057 28.838 C 812.57 28.838 795.557 39.838 795.557 39.838 Z" fill="#222222" />
        </g>
    </g>
    <defs>
        <filter id="filter0_d_431_29517" y="-2.91504" width="2000" height="600" filterUnits="userSpaceOnUse" color-interpolation-filters="sRGB" x="-560">
            <feFlood flood-opacity="0" result="BackgroundImageFix" />
            <feColorMatrix in="SourceAlpha" type="matrix" values="0 0 0 0 0 0 0 0 0 0 0 0 0 0 0 0 0 0 127 0" result="hardAlpha" />
            <feOffset dy="3" />
            <feGaussianBlur stdDeviation="10" />
            <feComposite in2="hardAlpha" operator="out" />
            <feColorMatrix type="matrix" values="0 0 0 0 0.968627 0 0 0 0 0.968627 0 0 0 0 0.968627 0 0 0 1 0" />
            <feBlend mode="normal" in2="BackgroundImageFix" result="effect1_dropShadow_431_29517" />
            <feBlend mode="normal" in="SourceGraphic" in2="effect1_dropShadow_431_29517" result="shape" />
        </filter>
        <clipPath id="clip0_431_29517">
            <rect width="2000" height="600" fill="white" transform="translate(-540)" />
        </clipPath>
    </defs>
</svg>