<svg width="1441" height="189" viewBox="0 0 1441 189" fill="none" xmlns="http://www.w3.org/2000/svg">
<g clip-path="url(#clip0_431_29611)">
<path d="M569.959 140.282C571.945 142.282 578.723 142.032 583.959 140.282C587.126 139.488 603.32 126.183 614.334 118.379C616.347 117.024 623.574 112.646 626.709 106.004C626.974 105.443 627.213 104.907 627.442 104.348C627.64 103.865 627.83 103.365 628.021 102.817C631.505 92.8648 630.081 76.4575 627.686 54.9266C630.225 76.1173 634.268 102.049 634.268 102.049C634.268 102.049 635.084 105.067 636.146 105.629C637.209 106.192 637.678 107.317 637.678 107.317C638.365 108.692 641.034 118.379 641.959 118.379C646.584 118.379 652.959 120.754 656.959 123.282C658.668 124.362 661.108 125.432 663.342 126.303C666.336 127.471 668.959 128.282 668.959 128.282L1440.45 128.282L1440.45 0.00411605L0.445306 0.00411987L0.44531 129.504L50.209 129.504L63.6465 132.192L73.3965 142.379C73.3965 142.379 86.7715 148.004 88.2715 148.317C89.7715 148.629 95.2715 148.317 95.834 146.567C96.3965 144.817 89.3965 136.817 89.7715 135.067C90.1465 133.317 106.521 119.942 107.084 118.504C107.646 117.067 106.021 113.004 107.084 112.004C108.146 111.004 115.084 106.004 117.396 105.629C119.709 105.254 120.959 111.004 120.959 111.004L126.723 111.004C126.723 111.004 130.723 119.754 130.473 122.004C130.223 124.254 139.418 124.754 141.945 127.254C144.473 129.754 148.486 135.754 152.723 135.754C156.959 135.754 174.959 128.282 174.959 128.282L190.959 117.282L202.959 112.282C202.959 112.282 212.973 110.782 215.959 112.282C218.945 113.782 221.973 123.282 225.959 123.282C229.945 123.282 241.223 117.282 244.959 117.282C248.695 117.282 252.223 128.282 255.959 128.282C259.695 128.282 279.945 121.032 279.959 123.282C279.973 125.532 269.084 132.184 267.959 135.282C266.834 138.38 297.459 158.004 298.959 156.762C300.459 155.521 298.959 135.282 298.959 135.282L311.959 128.282L335.959 128.282L347.959 123.282L361.959 123.282L375.959 135.282C375.959 135.282 374.223 143.032 375.959 145.282C377.695 147.532 392.959 140.282 392.959 140.282C392.959 140.282 396.473 145.282 398.959 145.282C401.445 145.282 408.959 135.282 408.959 135.282C408.959 135.282 430.473 145.282 433.959 145.282C437.445 145.282 452.959 123.282 452.959 123.282C452.959 123.282 470.209 117.129 471.959 117.282C471.959 117.282 477.473 121.782 481.959 123.282C486.445 124.782 525.945 128.782 530.959 128.282C535.973 127.782 546.209 123.379 549.959 123.282C553.709 123.184 562.959 128.282 562.959 128.282C562.959 128.282 567.973 138.282 569.959 140.282Z" fill="url(#paint0_linear_431_29611)"/>
</g>
<defs>
<linearGradient id="paint0_linear_431_29611" x1="0.445312" y1="133.719" x2="1440.45" y2="140.219" gradientUnits="userSpaceOnUse">
<stop stop-color="#161616" stop-opacity="0"/>
<stop offset="0.424738" stop-color="#161616" stop-opacity="0.584749"/>
<stop offset="1" stop-color="#161616" stop-opacity="0.84"/>
</linearGradient>
<clipPath id="clip0_431_29611">
<rect width="1440" height="188" fill="white" transform="translate(0.445312 0.0039978)"/>
</clipPath>
</defs>
</svg>
