<svg width="1479" height="198" viewBox="0 0 1479 198" fill="none" xmlns="http://www.w3.org/2000/svg">
<g filter="url(#filter0_d_1080_19999)">
<path d="M890.055 157.752C895.292 159.502 902.069 159.752 904.055 157.752C906.042 155.752 911.055 145.752 911.055 145.752C911.055 145.752 920.305 140.654 924.055 140.752C927.805 140.85 938.042 145.252 943.055 145.752C948.069 146.252 987.569 142.252 992.055 140.752C996.542 139.252 1002.06 134.752 1002.06 134.752C1003.81 134.6 1021.06 140.752 1021.06 140.752C1021.06 140.752 1036.57 162.752 1040.06 162.752C1043.54 162.752 1065.06 152.752 1065.06 152.752C1065.06 152.752 1072.57 162.752 1075.06 162.752C1077.54 162.752 1081.06 157.752 1081.06 157.752C1081.06 157.752 1096.32 165.002 1098.06 162.752C1099.79 160.502 1098.06 152.752 1098.06 152.752L1112.06 140.752L1126.06 140.752L1138.06 145.752L1162.06 145.752L1175.06 152.752C1175.06 152.752 1173.56 172.991 1175.06 174.233C1176.56 175.474 1205.18 159.85 1204.06 156.752C1202.93 153.654 1192.04 147.002 1192.06 144.752C1192.07 142.502 1212.32 149.752 1216.06 149.752C1219.79 149.752 1223.32 138.752 1227.06 138.752C1228.14 138.752 1229.58 145.71 1231.76 147.352C1232.55 147.352 1236.46 147.316 1241.99 147.352C1255.96 147.367 1279.61 147.242 1281.69 147.242C1282.26 147.368 1282.83 147.486 1283.38 147.602L1283.93 147.719C1285.13 147.973 1286.27 148.223 1287.3 148.399L1295.43 150.149L1305.21 160.258C1305.21 160.258 1318.95 166.07 1320.11 166.141C1321.28 166.211 1328.14 165.872 1327.62 163.934C1327.09 161.996 1321.52 154.508 1321.68 153.227C1321.83 151.945 1337.86 137.602 1338.86 136.414C1339.86 135.227 1337.68 131.539 1338.72 130.024C1339.77 128.508 1347.55 123.059 1349.55 123.371C1351.55 123.684 1352.71 128.836 1352.71 128.836L1358.44 128.836C1358.44 128.836 1359.65 131.685 1360.59 134.09C1361.07 135.321 1361.44 136.453 1361.62 136.991L1361.65 137.094C1361.85 137.697 1362.02 138.381 1362.14 139.004C1362.28 139.66 1362.15 139.776 1362.24 140.098C1362.33 140.433 1362.54 140.641 1362.86 140.883C1363.19 141.125 1371.85 143.649 1372.35 144.149C1372.85 144.649 1374.33 146.616 1376.19 148.461C1378.3 150.774 1380.91 152.43 1380.91 152.43L1383.4 153.492L1386.3 153.383L1407.05 146.008L1416.77 139.211L1422.91 135.174L1434.72 130.305C1434.72 130.305 1438.42 129.492 1441.82 129.492C1444.33 129.335 1445.93 129.569 1446.63 129.733L1446.69 129.749C1446.93 129.804 1447.31 129.891 1447.43 129.952C1447.56 130.018 1447.66 130.045 1448.08 130.311C1448.34 130.534 1448.68 130.741 1448.93 131.026C1451.02 133.662 1453.28 137.651 1453.88 138.346C1454.28 138.812 1455.2 140.093 1456.33 140.698C1457.38 141.323 1458.07 141.063 1458.66 141.041C1458.66 94.58 1458.62 17.8371 1458.62 17.8371L20.0554 17.8371L20.0554 146.974L798.819 146.974L804.569 145.752L805.055 145.752C805.055 145.752 807.679 144.941 810.672 143.774C812.906 142.902 815.346 141.832 817.055 140.752C821.055 138.225 827.43 135.85 832.055 135.85C832.981 135.85 835.649 126.162 836.337 124.787C836.337 124.787 836.805 123.662 837.868 123.1C838.93 122.537 839.746 119.519 839.746 119.519C839.746 119.519 843.79 93.5861 846.329 72.3952C843.934 93.9269 842.509 110.335 845.993 120.287C846.185 120.835 846.375 121.335 846.572 121.818C846.801 122.377 847.041 122.913 847.305 123.475C850.44 130.116 857.667 134.494 859.68 135.85C870.694 143.653 886.888 156.958 890.055 157.752Z" fill="#161616"/>
</g>
<defs>
<filter id="filter0_d_1080_19999" x="0.0554199" y="0.837158" width="1478.61" height="196.466" filterUnits="userSpaceOnUse" color-interpolation-filters="sRGB">
<feFlood flood-opacity="0" result="BackgroundImageFix"/>
<feColorMatrix in="SourceAlpha" type="matrix" values="0 0 0 0 0 0 0 0 0 0 0 0 0 0 0 0 0 0 127 0" result="hardAlpha"/>
<feOffset dy="3"/>
<feGaussianBlur stdDeviation="10"/>
<feComposite in2="hardAlpha" operator="out"/>
<feColorMatrix type="matrix" values="0 0 0 0 0.996078 0 0 0 0 0.996078 0 0 0 0 0.996078 0 0 0 0.3 0"/>
<feBlend mode="normal" in2="BackgroundImageFix" result="effect1_dropShadow_1080_19999"/>
<feBlend mode="normal" in="SourceGraphic" in2="effect1_dropShadow_1080_19999" result="shape"/>
</filter>
</defs>
</svg>
