<svg width="1479" height="198" viewBox="0 0 1479 198" fill="none" xmlns="http://www.w3.org/2000/svg">
<g filter="url(#filter0_d_1080_20003)">
<path d="M890.055 157.753C895.291 159.503 902.068 159.754 904.055 157.753C906.041 155.753 911.055 145.753 911.055 145.753C911.055 145.753 920.305 140.656 924.055 140.753C927.805 140.851 938.041 145.253 943.055 145.753C948.068 146.254 987.568 142.254 992.055 140.753C996.541 139.253 1002.05 134.753 1002.05 134.753C1003.8 134.601 1021.05 140.753 1021.05 140.753C1021.05 140.753 1036.57 162.753 1040.05 162.753C1043.54 162.753 1065.05 152.753 1065.05 152.753C1065.05 152.753 1072.57 162.753 1075.05 162.753C1077.54 162.753 1081.05 157.753 1081.05 157.753C1081.05 157.753 1096.32 165.004 1098.05 162.753C1099.79 160.503 1098.05 152.753 1098.05 152.753L1112.05 140.753L1126.05 140.753L1138.05 145.753L1162.05 145.753L1175.05 152.753C1175.05 152.753 1173.55 172.992 1175.05 174.234C1176.55 175.476 1205.18 159.851 1204.05 156.753C1202.93 153.655 1192.04 147.003 1192.05 144.753C1192.07 142.503 1212.32 149.753 1216.05 149.753C1219.79 149.753 1223.32 138.753 1227.05 138.753C1228.14 138.753 1229.58 145.711 1231.75 147.353C1232.55 147.353 1236.45 147.317 1241.99 147.353C1255.96 147.369 1279.6 147.244 1281.69 147.244C1282.26 147.369 1282.83 147.487 1283.38 147.603L1283.93 147.72C1285.13 147.974 1286.27 148.225 1287.3 148.4L1295.43 150.15L1305.21 160.259C1305.21 160.259 1318.95 166.072 1320.11 166.142C1321.28 166.212 1328.14 165.873 1327.62 163.935C1327.09 161.997 1321.52 154.509 1321.68 153.228C1321.83 151.947 1337.86 137.603 1338.86 136.416C1339.86 135.228 1337.68 131.541 1338.72 130.025C1339.77 128.509 1347.55 123.06 1349.55 123.373C1351.55 123.685 1352.71 128.837 1352.71 128.837L1358.44 128.837C1358.44 128.837 1359.65 131.686 1360.59 134.091C1361.07 135.322 1361.44 136.454 1361.62 136.993L1361.65 137.095C1361.85 137.698 1362.02 138.382 1362.14 139.005C1362.27 139.662 1362.15 139.777 1362.24 140.099C1362.33 140.434 1362.54 140.642 1362.86 140.884C1363.19 141.126 1371.85 143.65 1372.35 144.15C1372.85 144.65 1374.33 146.618 1376.19 148.462C1378.3 150.775 1380.91 152.431 1380.91 152.431L1383.4 153.494L1386.3 153.384L1407.05 146.009L1416.77 139.212L1422.91 135.176L1434.72 130.306C1434.72 130.306 1438.42 129.494 1441.82 129.494C1444.33 129.336 1445.93 129.571 1446.62 129.734L1446.69 129.75C1446.93 129.805 1447.31 129.893 1447.43 129.953C1447.56 130.019 1447.66 130.047 1448.08 130.312C1448.34 130.535 1448.68 130.742 1448.93 131.027C1451.02 133.664 1453.28 137.653 1453.88 138.347C1454.28 138.813 1455.2 140.094 1456.33 140.699C1457.38 141.324 1458.07 141.065 1458.66 141.043C1458.66 94.5814 1458.62 17.8384 1458.62 17.8384L20.0547 17.8384L20.0547 146.975L798.818 146.975L804.568 145.754L805.055 145.753C805.055 145.753 807.678 144.943 810.671 143.775C812.905 142.904 815.345 141.833 817.055 140.753C821.055 138.226 827.43 135.851 832.055 135.851C832.98 135.851 835.648 126.163 836.336 124.788C836.336 124.788 836.805 123.663 837.867 123.101C838.93 122.538 839.746 119.521 839.746 119.521C839.746 119.521 843.789 93.5875 846.328 72.3965C843.933 93.9282 842.508 110.336 845.992 120.288C846.184 120.836 846.374 121.336 846.572 121.819C846.8 122.378 847.04 122.915 847.305 123.476C850.439 130.117 857.666 134.495 859.68 135.851C870.693 143.654 886.887 156.96 890.055 157.753Z" fill="url(#paint0_linear_1080_20003)" shape-rendering="crispEdges"/>
</g>
<defs>
<filter id="filter0_d_1080_20003" x="0.0546875" y="0.838379" width="1478.61" height="196.466" filterUnits="userSpaceOnUse" color-interpolation-filters="sRGB">
<feFlood flood-opacity="0" result="BackgroundImageFix"/>
<feColorMatrix in="SourceAlpha" type="matrix" values="0 0 0 0 0 0 0 0 0 0 0 0 0 0 0 0 0 0 127 0" result="hardAlpha"/>
<feOffset dy="3"/>
<feGaussianBlur stdDeviation="10"/>
<feComposite in2="hardAlpha" operator="out"/>
<feColorMatrix type="matrix" values="0 0 0 0 0.996078 0 0 0 0 0.996078 0 0 0 0 0.996078 0 0 0 0.3 0"/>
<feBlend mode="normal" in2="BackgroundImageFix" result="effect1_dropShadow_1080_20003"/>
<feBlend mode="normal" in="SourceGraphic" in2="effect1_dropShadow_1080_20003" result="shape"/>
</filter>
<linearGradient id="paint0_linear_1080_20003" x1="20.0547" y1="174.304" x2="1458.66" y2="174.304" gradientUnits="userSpaceOnUse">
<stop stop-color="#161616" stop-opacity="0.83"/>
<stop offset="0.429342" stop-color="#161616" stop-opacity="0.58"/>
<stop offset="1" stop-color="#161616" stop-opacity="0"/>
</linearGradient>
</defs>
</svg>
