<svg width="633" height="453" viewBox="0 0 633 453" fill="none" xmlns="http://www.w3.org/2000/svg">
<path d="M590.702 15.0752L600.75 0.00390625H1V30.1016V60.1016V109.102V155.102V220.102V372.044V390.927H75.563H98.0855H108.583H134.14H154.469H172.88H188.269H199.182H207.95H218.421C218.421 390.927 274.629 415.462 289.117 413.937C303.606 412.411 324.242 385.388 324.242 385.388L325.66 384.745C327.034 384.138 327.495 383.96 328.872 383.429L329.044 383.363C332.335 382.262 335.856 381.141 339.303 380.265C347.949 378.067 355.522 375.864 355.269 372.044C354.84 365.562 366.755 338.587 366.755 338.587H384.258C384.258 338.587 388.011 323.145 393.539 322.192C399.068 321.239 424.024 339.36 426.598 341.743C429.172 344.126 424.804 357.079 425.948 360.891C427.092 364.704 477.151 407.873 478.85 412.459C480.549 417.045 458.452 442.675 461.216 447.441C463.98 452.207 478.166 453.171 483.79 452.313C489.413 451.455 529.179 434.382 529.179 434.382L558.918 403.594L600.859 394.73L618.752 380.136L605.774 372.182L618.752 362.972L605.774 355.436L595.726 325.712L608.286 318.595V305.617L602.843 295.569L605.774 278.823L625.031 283.847L615.403 265.845H605.774L600.75 252.867L610.379 247.425L595.726 238.633V214.352L586.097 207.653V190.07L595.726 182.534L588.19 165.788L605.774 136.483L588.19 131.041L590.702 113.039L610.379 115.132L600.75 97.9675L632.148 91.2691L608.286 76.1978L605.774 57.3587L595.726 45.2179L590.702 28.8906V15.0752Z" fill="url(#paint0_linear_1125_30914)" fill-opacity="0.6"/>
<defs>
<linearGradient id="paint0_linear_1125_30914" x1="590.02" y1="197.397" x2="-797.663" y2="197.397" gradientUnits="userSpaceOnUse">
<stop stop-color="#78A778" stop-opacity="0.76"/>
<stop offset="0.319965" stop-color="#78A778" stop-opacity="0.19"/>
<stop offset="0.538719" stop-color="#78A778" stop-opacity="0"/>
</linearGradient>
</defs>
</svg>
