<svg width="335" height="159" viewBox="0 0 335 159" fill="none" xmlns="http://www.w3.org/2000/svg">
<path d="M17.3286 1.01504H7.36328V33.1133H11.878V21.0007H15.1814C23.9905 21.0007 28.2299 16.5411 28.2299 10.8152C28.2299 4.04317 23.7703 1.01504 17.3286 1.01504ZM14.9061 17.2568H11.878V4.75891H15.7319C20.7421 4.81397 23.6051 6.79602 23.6051 10.9804C23.6051 16.1557 19.8612 17.0917 14.9061 17.2568Z" fill="#161616"/>
<path d="M67.5811 33.1133L58.9372 19.6793C62.8462 17.9175 64.7732 14.6692 64.7732 10.8152C64.7732 4.04317 60.3136 1.01504 53.8719 1.01504H43.9066V33.1133H48.4213V21.0007H51.7247C52.7708 21.0007 53.7618 20.9457 54.6427 20.8355L62.0204 33.1133H67.5811ZM51.4494 17.2568H48.4213V4.75891H52.2753C57.2855 4.81397 60.1484 6.79602 60.1484 10.9804C60.1484 16.1557 56.4596 17.2568 51.4494 17.2568Z" fill="#161616" fill-opacity="0.6"/>
<path d="M82.6544 1.01504V33.1133H87.1691V1.01504H82.6544Z" fill="#161616" fill-opacity="0.6"/>
<path d="M105.487 1.01504V33.1133H110.002V8.33762H110.057L127.675 33.1133H131.915V1.01504H127.4V25.13H127.345L109.727 1.01504H105.487Z" fill="#161616" fill-opacity="0.6"/>
<path d="M148.385 17.2568C148.385 27.3873 153.836 33.5537 164.351 33.5537C168.701 33.5537 172.28 32.4526 173.766 31.4615V27.4974C171.013 29.1492 168.371 29.7548 164.902 29.7548C157.69 29.7548 153.175 25.3502 153.175 16.431C153.175 8.72302 157.524 4.2634 163.966 4.2634C167.545 4.2634 170.408 4.81397 173.766 6.79602V2.33641C172.059 1.67572 169.802 0.519531 164.241 0.519531C153.781 0.519531 148.385 8.17244 148.385 17.2568Z" fill="#161616" fill-opacity="0.6"/>
<path d="M194.433 29.3694V18.5232H206.711V14.7793H194.433V4.75891H209.244V1.01504H189.919V33.1133H209.629V29.3694H194.433Z" fill="#161616" fill-opacity="0.6"/>
<path d="M250.042 1.01504H222.348V4.75891H233.855V33.1133H238.37V4.75891H250.042V1.01504Z" fill="#161616" fill-opacity="0.6"/>
<path d="M261.456 17.6973C261.456 26.4514 266.686 33.5537 276.211 33.5537C286.507 33.5537 291.682 25.0199 291.682 16.1006C291.682 7.67693 286.782 0.519531 277.092 0.519531C267.237 0.519531 261.456 8.06233 261.456 17.6973ZM286.892 16.8714C286.892 23.3682 283.864 29.7548 276.376 29.7548C269.494 29.7548 266.246 23.6435 266.246 16.8164C266.246 9.54887 269.88 4.31845 276.707 4.31845C283.424 4.31845 286.892 9.82415 286.892 16.8714Z" fill="#161616" fill-opacity="0.6"/>
<path d="M308.151 1.01504V33.1133H312.666V8.33762H312.721L330.339 33.1133H334.579V1.01504H330.064V25.13H330.009L312.391 1.01504H308.151Z" fill="#161616" fill-opacity="0.6"/>
<path d="M23.7462 76.1893V88.2483C22.6716 88.4274 21.5971 88.5468 20.4628 88.5468C13.5378 88.5468 9.77678 84.1889 9.77678 76.6668C9.77678 69.2045 14.7318 65.5629 20.4031 65.5629C24.0447 65.5629 28.5221 66.339 32.0443 68.5479V61.1452C29.7758 60.2498 25.5372 58.9961 20.2837 58.9961C8.46342 58.9961 0.941406 66.3987 0.941406 77.622C0.941406 89.3826 8.34402 95.1137 19.2688 95.1137C23.9253 95.1137 28.1042 93.9197 32.104 91.7706V76.1893H23.7462Z" fill="#161616"/>
<path d="M54.3409 88.0693V79.8309H66.6984V73.7416H54.3409V66.0405H69.4446V59.6528H45.9234V94.457H69.8625V88.0693H54.3409Z" fill="#161616" fill-opacity="0.6"/>
<path d="M82.7556 59.6528V94.457H90.3373V72.7864H90.5164L107.411 94.457H114.575V59.6528H106.993V80.8457H106.814L89.8 59.6528H82.7556Z" fill="#161616" fill-opacity="0.6"/>
<path d="M129.44 59.6528V94.457H137.858V59.6528H129.44Z" fill="#161616" fill-opacity="0.6"/>
<path d="M179.373 59.8319L179.313 59.6528H150.837V66.0405H166.537L149.643 94.2779L149.762 94.457H178.417V88.0693H162.06L179.373 59.8319Z" fill="#161616" fill-opacity="0.6"/>
<path d="M212.163 94.457H221.058L209.357 59.6528H200.82L187.09 94.457H194.97L197.955 86.0992H209.775L212.163 94.457ZM200.223 79.7115L201.298 76.6071L204.402 68.0106H204.701L207.089 76.6071L207.984 79.7115H200.223Z" fill="#161616" fill-opacity="0.6"/>
<path d="M17.7848 122.552H7.86328V154.509H12.3581V142.45H15.647C24.4175 142.45 28.6382 138.01 28.6382 132.309C28.6382 125.567 24.1982 122.552 17.7848 122.552ZM15.373 138.722H12.3581V126.279H16.1952C21.1834 126.334 24.0338 128.308 24.0338 132.473C24.0338 137.626 20.3063 138.558 15.373 138.722Z" fill="#161616"/>
<path d="M67.8167 154.509L59.2107 141.134C63.1026 139.38 65.0211 136.146 65.0211 132.309C65.0211 125.567 60.5811 122.552 54.1677 122.552H44.2462V154.509H48.741V142.45H52.0299C53.0714 142.45 54.0581 142.395 54.9351 142.285L62.2804 154.509H67.8167ZM51.7558 138.722H48.741V126.279H52.5781C57.5662 126.334 60.4166 128.308 60.4166 132.473C60.4166 137.626 56.744 138.722 51.7558 138.722Z" fill="#161616" fill-opacity="0.6"/>
<path d="M80.5318 139.161C80.5318 147.877 85.7393 154.948 95.2223 154.948C105.473 154.948 110.625 146.451 110.625 137.571C110.625 129.185 105.747 122.059 96.0993 122.059C86.2874 122.059 80.5318 129.568 80.5318 139.161ZM105.856 138.339C105.856 144.807 102.842 151.165 95.3867 151.165C88.5348 151.165 85.3007 145.081 85.3007 138.284C85.3007 131.048 88.9185 125.841 95.7156 125.841C102.403 125.841 105.856 131.322 105.856 138.339Z" fill="#161616" fill-opacity="0.6"/>
<path d="M121.559 156.702L125.012 158.949C129.616 154.18 132.302 149.631 132.302 144.697V122.552H127.808V144.917C127.808 149.137 124.683 152.81 121.559 156.702Z" fill="#161616" fill-opacity="0.6"/>
<path d="M154.785 150.782V139.983H167.009V136.256H154.785V126.279H169.53V122.552H150.29V154.509H169.914V150.782H154.785Z" fill="#161616" fill-opacity="0.6"/>
<path d="M183.578 138.722C183.578 148.808 189.005 154.948 199.474 154.948C203.805 154.948 207.368 153.851 208.848 152.865V148.918C206.107 150.562 203.476 151.165 200.023 151.165C192.842 151.165 188.347 146.78 188.347 137.9C188.347 130.226 192.677 125.786 199.091 125.786C202.654 125.786 205.504 126.334 208.848 128.308V123.867C207.148 123.21 204.901 122.059 199.365 122.059C188.95 122.059 183.578 129.678 183.578 138.722Z" fill="#161616" fill-opacity="0.6"/>
<path d="M249.048 122.552H221.476V126.279H232.932V154.509H237.427V126.279H249.048V122.552Z" fill="#161616" fill-opacity="0.6"/>
</svg>
