<svg width="335" height="159" viewBox="0 0 335 159" fill="none" xmlns="http://www.w3.org/2000/svg">
<path d="M17.3286 1.01504H7.36328V33.1133H11.878V21.0007H15.1814C23.9905 21.0007 28.2299 16.5411 28.2299 10.8152C28.2299 4.04317 23.7703 1.01504 17.3286 1.01504ZM14.9061 17.2568H11.878V4.75891H15.7319C20.7421 4.81397 23.6051 6.79602 23.6051 10.9804C23.6051 16.1557 19.8612 17.0917 14.9061 17.2568Z" fill="#161616"/>
<path d="M23.7462 76.1893V88.2483C22.6716 88.4274 21.5971 88.5468 20.4628 88.5468C13.5378 88.5468 9.77678 84.1889 9.77678 76.6668C9.77678 69.2045 14.7318 65.5629 20.4031 65.5629C24.0447 65.5629 28.5221 66.339 32.0443 68.5479V61.1452C29.7758 60.2498 25.5372 58.9961 20.2837 58.9961C8.46342 58.9961 0.941406 66.3987 0.941406 77.622C0.941406 89.3826 8.34402 95.1137 19.2688 95.1137C23.9253 95.1137 28.1042 93.9197 32.104 91.7706V76.1893H23.7462Z" fill="#161616"/>
<path d="M17.7848 122.552H7.86328V154.509H12.3581V142.45H15.647C24.4175 142.45 28.6382 138.01 28.6382 132.309C28.6382 125.567 24.1982 122.552 17.7848 122.552ZM15.373 138.722H12.3581V126.279H16.1952C21.1834 126.334 24.0338 128.308 24.0338 132.473C24.0338 137.626 20.3063 138.558 15.373 138.722Z" fill="#161616"/>
</svg>
