<svg width="1444" height="454" viewBox="0 0 1444 454" fill="none" xmlns="http://www.w3.org/2000/svg">
<path d="M589.817 15.5348L599.864 0.463501H0.114258V30.5612V60.5612V109.561V155.561V220.561V372.503V391.387H74.6772H97.1998H107.697H133.254H153.583H171.995H187.384H198.297H207.064H217.535C217.535 391.387 273.743 415.921 288.231 414.396C302.72 412.871 323.357 385.848 323.357 385.848L324.774 385.205C326.148 384.598 326.609 384.42 327.986 383.889L328.158 383.822C331.449 382.722 334.97 381.601 338.417 380.725C347.063 378.526 354.636 376.324 354.383 372.503C353.954 366.022 365.869 339.046 365.869 339.046H383.372C383.372 339.046 387.125 323.605 392.654 322.651C398.182 321.698 423.139 339.819 425.712 342.202C428.286 344.585 423.918 357.538 425.062 361.351C426.206 365.164 476.266 408.333 477.964 412.919C479.663 417.504 457.566 443.135 460.33 447.901C463.095 452.667 477.28 453.63 482.904 452.773C488.528 451.915 528.293 434.842 528.293 434.842L558.032 404.054L599.973 395.189L617.866 380.596L604.888 372.641L617.866 363.431L604.888 355.895L594.84 326.171L607.4 319.054V306.076L601.957 296.029L604.888 279.283L624.146 284.307L614.517 266.305H604.888L599.864 253.327L609.493 247.884L594.84 239.093V214.811L585.211 208.113V190.53L594.84 182.994L587.305 166.248L604.888 136.943L587.305 131.5L589.817 113.498L609.493 115.592L599.864 98.4271L631.263 91.7287L607.4 76.6574L604.888 57.8182L594.84 45.6775L589.817 29.3502V15.5348Z" fill="url(#paint0_linear_2851_13958)" fill-opacity="0.6"/>
<defs>
<linearGradient id="paint0_linear_2851_13958" x1="589.134" y1="197.856" x2="-798.549" y2="197.856" gradientUnits="userSpaceOnUse">
<stop stop-color="#78A778" stop-opacity="0.76"/>
<stop offset="0.319965" stop-color="#78A778" stop-opacity="0.03"/>
<stop offset="0.538719" stop-color="#78A778" stop-opacity="0"/>
</linearGradient>
</defs>
</svg>
