<?xml version="1.0" encoding="utf-8"?>
<svg width="2000" height="600" viewBox="-560 0 2000 600" fill="none" xmlns="http://www.w3.org/2000/svg">
  <g style="clip-path: url(#clip-1);" transform="matrix(0.999997, 0, 0, 1, 0.000002, 0)">
    <g filter="url(#filter0_d_431_29309)">
      <path d="M 795.557 51.338 L 771.557 51.338 L -560 52.967 L -560 587.415 L 1440.45 587.415 L 1440.45 51.745 L 1390.68 51.745 C 1390.68 51.745 1381.93 53.996 1379.81 53.996 C 1377.68 53.996 1373.56 59.4 1371.68 61.088 C 1369.81 62.775 1355.81 67.525 1355.81 67.525 C 1355.81 67.525 1350.81 68.025 1348.24 66.963 C 1345.68 65.9 1352.84 56.946 1353.31 54.463 C 1353.77 51.98 1337.99 40.4 1336.49 38.525 C 1334.99 36.65 1337.24 32.65 1335.99 31.025 C 1334.74 29.4 1328.58 24.76 1326.49 25.713 C 1324.41 26.665 1324.31 29.9 1324.31 29.9 L 1316.37 32.588 C 1316.37 32.588 1312.74 43.275 1312.18 44.275 C 1311.62 45.275 1304.31 46.838 1301.56 48.588 C 1298.81 50.338 1295.17 57.588 1290.93 57.588 C 1286.7 57.588 1267.18 50.213 1267.18 50.213 L 1251.06 38.963 L 1239.43 33.963 C 1239.43 33.963 1228.81 32.525 1226.43 34.525 C 1224.06 36.525 1221.06 43.963 1216.99 44.9 C 1212.93 45.838 1201.29 39.213 1197.56 39.213 C 1193.82 39.213 1190.92 50.275 1187.18 50.275 C 1183.45 50.275 1164.93 44.337 1164.93 45.463 C 1164.93 46.588 1176.31 55.588 1176.31 56.713 C 1176.31 57.838 1146.45 80.751 1143.06 79.338 C 1139.67 77.925 1142.43 56.713 1142.43 56.713 L 1129.93 50.588 L 1106.31 50.588 L 1094.06 45.463 L 1081.06 45.463 L 1067.81 56.588 C 1067.81 56.588 1068.81 65.463 1067.81 67.088 C 1066.81 68.713 1049.81 62.588 1049.81 62.588 C 1049.81 62.588 1045.92 67.838 1043.43 67.838 C 1040.95 67.838 1033.68 57.967 1033.68 57.967 C 1033.68 57.967 1011.54 67.838 1008.06 67.838 C 1004.57 67.838 988.682 45.088 988.682 45.088 L 970.682 39.338 C 970.682 39.338 965.057 44.084 960.932 45.088 C 956.807 46.092 916.057 50.713 912.682 50.713 C 909.307 50.713 892.807 45.338 892.807 45.338 L 880.682 50.088 C 880.682 50.088 875.557 61.213 872.432 63.213 C 869.307 65.213 862.057 63.838 856.932 62.463 C 851.807 61.088 839.32 40.338 836.307 40.338 L 817.057 40.338 C 812.57 40.338 795.557 51.338 795.557 51.338 Z" fill="#FEFEFE"/>
    </g>
  </g>
  <defs>
    <filter id="filter0_d_431_29309" x="-560" y="8.58496" width="2000" height="600" filterUnits="userSpaceOnUse" color-interpolation-filters="sRGB">
      <feFlood flood-opacity="0" result="BackgroundImageFix"/>
      <feColorMatrix in="SourceAlpha" type="matrix" values="0 0 0 0 0 0 0 0 0 0 0 0 0 0 0 0 0 0 127 0" result="hardAlpha"/>
      <feOffset dy="3" in="hardAlpha" result="offset-0"/>
      <feGaussianBlur stdDeviation="10" in="offset-0" result="gaussian-blur-0"/>
      <feComposite in2="hardAlpha" operator="out" in="gaussian-blur-0" result="composite-0"/>
      <feColorMatrix type="matrix" values="0 0 0 0 0.337255 0 0 0 0 0.470588 0 0 0 0 0.337255 0 0 0 1 0" in="composite-0" result="color-matrix-0"/>
      <feBlend mode="normal" in2="BackgroundImageFix" result="effect1_dropShadow_431_29309" in="color-matrix-0"/>
      <feBlend mode="normal" in="SourceGraphic" in2="effect1_dropShadow_431_29309" result="shape"/>
    </filter>
    <clipPath id="clip-1">
      <rect width="1900" height="600" fill="white" x="-460"/>
    </clipPath>
  </defs>
</svg>