<svg width="1445" height="573" viewBox="0 0 1445 573" fill="none" xmlns="http://www.w3.org/2000/svg">
<path d="M596.702 121.919L606.75 106.848H7V136.945V166.945V215.945V261.945V326.945V478.887V497.771H81.563H104.086H114.583H140.14H160.469H178.88H194.269H205.182H213.95H224.421C224.421 497.771 280.629 522.305 295.117 520.78C309.606 519.255 330.242 492.232 330.242 492.232L331.66 491.589C333.034 490.982 333.495 490.804 334.872 490.273L335.044 490.207C338.335 489.106 341.856 487.985 345.303 487.109C353.949 484.91 361.522 482.708 361.269 478.887C360.84 472.406 372.755 445.43 372.755 445.43H390.258C390.258 445.43 394.011 429.989 399.539 429.036C405.068 428.082 430.024 446.203 432.598 448.586C435.172 450.969 430.804 463.922 431.948 467.735C433.092 471.548 483.151 514.717 484.85 519.303C486.549 523.889 464.452 549.519 467.216 554.285C469.98 559.051 484.166 560.015 489.79 559.157C495.413 558.299 535.179 541.226 535.179 541.226L564.918 510.438L606.859 501.573L624.752 486.98L611.774 479.026L624.752 469.815L611.774 462.28L601.726 432.556L614.286 425.439V412.461L608.843 402.413L611.774 385.667L631.031 390.691L621.403 372.689H611.774L606.75 359.711L616.379 354.269L601.726 345.477V321.195L592.097 314.497V296.914L601.726 289.378L594.19 272.632L611.774 243.327L594.19 237.884L596.702 219.883L616.379 221.976L606.75 204.811L638.148 198.113L614.286 183.042L611.774 164.202L601.726 152.062L596.702 135.734V121.919Z" fill="url(#paint0_linear_1125_30964)" fill-opacity="0.6"/>
<rect x="0.28125" y="0.84375" width="1444.72" height="571.997" fill="url(#paint1_linear_1125_30964)" fill-opacity="0.2"/>
<rect x="0.28125" y="0.945312" width="1440" height="571.997" fill="url(#paint2_linear_1125_30964)"/>
<rect x="0.28125" y="0.84375" width="1444.72" height="571.997" fill="url(#paint3_linear_1125_30964)"/>
<path d="M600.329 217.859H590.363V249.957H594.878V237.844H598.181C606.99 237.844 611.23 233.385 611.23 227.659C611.23 220.887 606.77 217.859 600.329 217.859ZM597.906 234.101H594.878V221.603H598.732C603.742 221.658 606.605 223.64 606.605 227.824C606.605 232.999 602.861 233.935 597.906 234.101Z" fill="#161616"/>
<path d="M650.581 249.957L641.937 236.523C645.846 234.761 647.773 231.513 647.773 227.659C647.773 220.887 643.314 217.859 636.872 217.859H626.907V249.957H631.421V237.844H634.725C635.771 237.844 636.762 237.789 637.643 237.679L645.02 249.957H650.581ZM634.449 234.101H631.421V221.603H635.275C640.285 221.658 643.148 223.64 643.148 227.824C643.148 232.999 639.46 234.101 634.449 234.101Z" fill="#161616" fill-opacity="0.6"/>
<path d="M665.654 217.859V249.957H670.169V217.859H665.654Z" fill="#161616" fill-opacity="0.6"/>
<path d="M688.487 217.859V249.957H693.002V225.181H693.057L710.675 249.957H714.915V217.859H710.4V241.974H710.345L692.727 217.859H688.487Z" fill="#161616" fill-opacity="0.6"/>
<path d="M731.385 234.101C731.385 244.231 736.836 250.397 747.351 250.397C751.701 250.397 755.28 249.296 756.766 248.305V244.341C754.013 245.993 751.371 246.599 747.902 246.599C740.69 246.599 736.175 242.194 736.175 233.275C736.175 225.567 740.524 221.107 746.966 221.107C750.545 221.107 753.408 221.658 756.766 223.64V219.18C755.059 218.519 752.802 217.363 747.241 217.363C736.781 217.363 731.385 225.016 731.385 234.101Z" fill="#161616" fill-opacity="0.6"/>
<path d="M777.433 246.213V235.367H789.711V231.623H777.433V221.603H792.244V217.859H772.919V249.957H792.629V246.213H777.433Z" fill="#161616" fill-opacity="0.6"/>
<path d="M833.042 217.859H805.348V221.603H816.855V249.957H821.37V221.603H833.042V217.859Z" fill="#161616" fill-opacity="0.6"/>
<path d="M844.456 234.541C844.456 243.295 849.686 250.397 859.211 250.397C869.507 250.397 874.682 241.864 874.682 232.944C874.682 224.521 869.782 217.363 860.092 217.363C850.237 217.363 844.456 224.906 844.456 234.541ZM869.892 233.715C869.892 240.212 866.864 246.599 859.376 246.599C852.494 246.599 849.246 240.487 849.246 233.66C849.246 226.393 852.88 221.162 859.707 221.162C866.424 221.162 869.892 226.668 869.892 233.715Z" fill="#161616" fill-opacity="0.6"/>
<path d="M891.151 217.859V249.957H895.666V225.181H895.721L913.339 249.957H917.579V217.859H913.064V241.974H913.009L895.391 217.859H891.151Z" fill="#161616" fill-opacity="0.6"/>
<path d="M606.746 293.033V305.092C605.672 305.271 604.597 305.391 603.463 305.391C596.538 305.391 592.777 301.033 592.777 293.511C592.777 286.048 597.732 282.407 603.403 282.407C607.045 282.407 611.522 283.183 615.044 285.392V277.989C612.776 277.094 608.537 275.84 603.284 275.84C591.463 275.84 583.941 283.242 583.941 294.466C583.941 306.226 591.344 311.957 602.269 311.957C606.925 311.957 611.104 310.763 615.104 308.614V293.033H606.746Z" fill="#161616"/>
<path d="M637.341 304.913V296.675H649.698V290.585H637.341V282.884H652.445V276.497H628.923V311.301H652.862V304.913H637.341Z" fill="#161616" fill-opacity="0.6"/>
<path d="M665.756 276.497V311.301H673.337V289.63H673.516L690.411 311.301H697.575V276.497H689.993V297.689H689.814L672.8 276.497H665.756Z" fill="#161616" fill-opacity="0.6"/>
<path d="M712.44 276.497V311.301H720.858V276.497H712.44Z" fill="#161616" fill-opacity="0.6"/>
<path d="M762.373 276.676L762.313 276.497H733.837V282.884H749.537L732.643 311.122L732.762 311.301H761.417V304.913H745.06L762.373 276.676Z" fill="#161616" fill-opacity="0.6"/>
<path d="M795.163 311.301H804.058L792.357 276.497H783.82L770.09 311.301H777.97L780.955 302.943H792.775L795.163 311.301ZM783.223 296.555L784.298 293.451L787.402 284.854H787.701L790.089 293.451L790.984 296.555H783.223Z" fill="#161616" fill-opacity="0.6"/>
<path d="M600.785 339.396H590.863V371.353H595.358V359.294H598.647C607.417 359.294 611.638 354.854 611.638 349.153C611.638 342.411 607.198 339.396 600.785 339.396ZM598.373 355.566H595.358V343.123H599.195C604.183 343.178 607.034 345.151 607.034 349.317C607.034 354.47 603.306 355.402 598.373 355.566Z" fill="#161616"/>
<path d="M650.817 371.353L642.211 357.978C646.103 356.224 648.021 352.99 648.021 349.153C648.021 342.411 643.581 339.396 637.168 339.396H627.246V371.353H631.741V359.294H635.03C636.071 359.294 637.058 359.239 637.935 359.129L645.28 371.353H650.817ZM634.756 355.566H631.741V343.123H635.578C640.566 343.178 643.417 345.151 643.417 349.317C643.417 354.47 639.744 355.566 634.756 355.566Z" fill="#161616" fill-opacity="0.6"/>
<path d="M663.532 356.005C663.532 364.72 668.739 371.791 678.222 371.791C688.473 371.791 693.625 363.295 693.625 354.415C693.625 346.028 688.747 338.902 679.099 338.902C669.287 338.902 663.532 346.412 663.532 356.005ZM688.856 355.182C688.856 361.651 685.842 368.009 678.387 368.009C671.535 368.009 668.301 361.925 668.301 355.128C668.301 347.892 671.919 342.685 678.716 342.685C685.403 342.685 688.856 348.166 688.856 355.182Z" fill="#161616" fill-opacity="0.6"/>
<path d="M704.559 373.546L708.012 375.793C712.616 371.024 715.302 366.474 715.302 361.541V339.396H710.808V361.76C710.808 365.981 707.683 369.654 704.559 373.546Z" fill="#161616" fill-opacity="0.6"/>
<path d="M737.785 367.626V356.827H750.009V353.099H737.785V343.123H752.53V339.396H733.29V371.353H752.914V367.626H737.785Z" fill="#161616" fill-opacity="0.6"/>
<path d="M766.578 355.566C766.578 365.652 772.005 371.791 782.474 371.791C786.805 371.791 790.368 370.695 791.848 369.708V365.762C789.107 367.406 786.476 368.009 783.023 368.009C775.842 368.009 771.347 363.624 771.347 354.744C771.347 347.07 775.677 342.63 782.091 342.63C785.654 342.63 788.504 343.178 791.848 345.151V340.711C790.148 340.053 787.901 338.902 782.365 338.902C771.95 338.902 766.578 346.522 766.578 355.566Z" fill="#161616" fill-opacity="0.6"/>
<path d="M832.048 339.396H804.476V343.123H815.932V371.353H820.427V343.123H832.048V339.396Z" fill="#161616" fill-opacity="0.6"/>
<defs>
<linearGradient id="paint0_linear_1125_30964" x1="596.02" y1="304.24" x2="-791.663" y2="304.24" gradientUnits="userSpaceOnUse">
<stop stop-color="#78A778" stop-opacity="0.76"/>
<stop offset="0.319965" stop-color="#78A778" stop-opacity="0.19"/>
<stop offset="0.538719" stop-color="#78A778" stop-opacity="0"/>
</linearGradient>
<linearGradient id="paint1_linear_1125_30964" x1="722.641" y1="0.84375" x2="722.641" y2="572.841" gradientUnits="userSpaceOnUse">
<stop stop-color="#567856"/>
<stop offset="0.519043" stop-color="#567856" stop-opacity="0.56"/>
<stop offset="1" stop-color="#567856" stop-opacity="0"/>
</linearGradient>
<linearGradient id="paint2_linear_1125_30964" x1="0.28125" y1="572.943" x2="1440.28" y2="572.943" gradientUnits="userSpaceOnUse">
<stop stop-color="white" stop-opacity="0"/>
<stop offset="0.222625" stop-color="white" stop-opacity="0.1"/>
<stop offset="0.477843" stop-color="white" stop-opacity="0.13"/>
<stop offset="0.733062" stop-color="white" stop-opacity="0.06"/>
<stop offset="1" stop-color="white" stop-opacity="0"/>
</linearGradient>
<linearGradient id="paint3_linear_1125_30964" x1="722.641" y1="572.841" x2="722.641" y2="0.843748" gradientUnits="userSpaceOnUse">
<stop stop-color="white"/>
<stop offset="0.352838" stop-color="white" stop-opacity="0.41"/>
<stop offset="1" stop-color="white" stop-opacity="0"/>
</linearGradient>
</defs>
</svg>
