<svg width="321" height="138" viewBox="0 0 321 138" fill="none" xmlns="http://www.w3.org/2000/svg">
<g clip-path="url(#clip0_431_29621)">
<path d="M22.3874 81.963L0.445284 81.963L0.445292 3.30489e-05L320.57 3.05176e-05L320.571 81.963L284.138 83.1851L270.7 85.8731L260.95 96.0606C260.95 96.0606 247.575 101.686 246.075 101.998C244.575 102.311 239.075 101.998 238.513 100.248C237.95 98.4981 244.95 90.4981 244.575 88.7481C244.2 86.9981 227.825 73.6231 227.263 72.1856C226.7 70.7481 228.325 66.6856 227.263 65.6856C226.2 64.6856 219.263 59.6856 216.95 59.3106C214.638 58.9356 213.388 64.6847 213.388 64.6847L207.624 64.6847C207.624 64.6847 203.624 73.4347 203.874 75.6847C204.124 77.9347 194.929 78.4348 192.401 80.9348C189.874 83.4348 185.86 89.4348 181.624 89.4348C177.388 89.4348 159.388 81.963 159.388 81.963L143.388 70.963L131.388 65.963C131.388 65.963 121.374 64.4627 118.388 65.963C115.401 67.4633 112.374 76.963 108.388 76.963C104.401 76.963 93.1241 70.963 89.3877 70.963C85.6514 70.963 82.1241 81.963 78.3877 81.963C74.6514 81.963 54.4011 74.713 54.3874 76.963C54.3738 79.213 65.2626 85.865 66.3876 88.963C67.5126 92.061 36.8874 111.685 35.3874 110.444C33.8874 109.202 35.3874 88.963 35.3874 88.963L22.3874 81.963Z" fill="url(#paint0_linear_431_29621)"/>
</g>
<defs>
<linearGradient id="paint0_linear_431_29621" x1="0.445086" y1="110.5" x2="329.539" y2="110.5" gradientUnits="userSpaceOnUse">
<stop stop-color="#FEFEFE" stop-opacity="0"/>
<stop offset="0.633628" stop-color="#FEFEFE" stop-opacity="0.58"/>
<stop offset="1" stop-color="#FEFEFE" stop-opacity="0.83"/>
</linearGradient>
<clipPath id="clip0_431_29621">
<rect width="320" height="138" fill="white" transform="translate(0.445312)"/>
</clipPath>
</defs>
</svg>
