<svg width="1441" height="166" viewBox="0 0 1441 166" fill="none" xmlns="http://www.w3.org/2000/svg">
<g clip-path="url(#clip0_431_29539)">
<g filter="url(#filter0_d_431_29539)">
<path d="M569.959 140.278C571.945 142.278 578.723 142.028 583.959 140.278C587.126 139.484 603.32 126.179 614.334 118.375C616.347 117.02 623.574 112.642 626.709 106C626.974 105.439 627.213 104.903 627.442 104.344C627.64 103.861 627.83 103.361 628.021 102.813C631.505 92.8608 630.081 76.4535 627.686 54.9226C630.225 76.1133 634.268 102.045 634.268 102.045C634.268 102.045 635.084 105.063 636.146 105.625C637.209 106.188 637.678 107.313 637.678 107.313C638.365 108.688 641.034 118.375 641.959 118.375C646.584 118.375 652.959 120.75 656.959 123.278C658.668 124.358 661.108 125.428 663.342 126.299C666.336 127.467 668.959 128.278 668.959 128.278L1440.45 128.278L1440.45 0.000102993L0.445306 0.000106812L0.44531 129.5L50.209 129.5L63.6465 132.188L73.3965 142.375C73.3965 142.375 86.7715 148 88.2715 148.313C89.7715 148.625 95.2715 148.313 95.834 146.563C96.3965 144.813 89.3965 136.813 89.7715 135.063C90.1465 133.313 106.521 119.938 107.084 118.5C107.646 117.063 106.021 113 107.084 112C108.146 111 115.084 106 117.396 105.625C119.709 105.25 120.959 111 120.959 111L126.723 111C126.723 111 130.723 119.75 130.473 122C130.223 124.25 139.418 124.75 141.945 127.25C144.473 129.75 148.486 135.75 152.723 135.75C156.959 135.75 174.959 128.278 174.959 128.278L190.959 117.278L202.959 112.278C202.959 112.278 212.973 110.778 215.959 112.278C218.945 113.778 221.973 123.278 225.959 123.278C229.945 123.278 241.223 117.278 244.959 117.278C248.695 117.278 252.223 128.278 255.959 128.278C259.695 128.278 279.945 121.028 279.959 123.278C279.973 125.528 269.084 132.18 267.959 135.278C266.834 138.376 297.459 158 298.959 156.758C300.459 155.517 298.959 135.278 298.959 135.278L311.959 128.278L335.959 128.278L347.959 123.278L361.959 123.278L375.959 135.278C375.959 135.278 374.223 143.028 375.959 145.278C377.695 147.528 392.959 140.278 392.959 140.278C392.959 140.278 396.473 145.278 398.959 145.278C401.445 145.278 408.959 135.278 408.959 135.278C408.959 135.278 430.473 145.278 433.959 145.278C437.445 145.278 452.959 123.278 452.959 123.278C452.959 123.278 470.209 117.125 471.959 117.278C471.959 117.278 477.473 121.778 481.959 123.278C486.445 124.778 525.945 128.778 530.959 128.278C535.973 127.778 546.209 123.375 549.959 123.278C553.709 123.18 562.959 128.278 562.959 128.278C562.959 128.278 567.973 138.278 569.959 140.278Z" fill="#161616"/>
</g>
</g>
<defs>
<filter id="filter0_d_431_29539" x="-19.5547" y="-16.9999" width="1480" height="196.815" filterUnits="userSpaceOnUse" color-interpolation-filters="sRGB">
<feFlood flood-opacity="0" result="BackgroundImageFix"/>
<feColorMatrix in="SourceAlpha" type="matrix" values="0 0 0 0 0 0 0 0 0 0 0 0 0 0 0 0 0 0 127 0" result="hardAlpha"/>
<feOffset dy="3"/>
<feGaussianBlur stdDeviation="10"/>
<feComposite in2="hardAlpha" operator="out"/>
<feColorMatrix type="matrix" values="0 0 0 0 0.968627 0 0 0 0 0.968627 0 0 0 0 0.968627 0 0 0 0.3 0"/>
<feBlend mode="normal" in2="BackgroundImageFix" result="effect1_dropShadow_431_29539"/>
<feBlend mode="normal" in="SourceGraphic" in2="effect1_dropShadow_431_29539" result="shape"/>
</filter>
<clipPath id="clip0_431_29539">
<rect width="1440" height="166" fill="white" transform="translate(0.445312)"/>
</clipPath>
</defs>
</svg>
