<svg width="38" height="20" viewBox="0 0 38 20" fill="none" xmlns="http://www.w3.org/2000/svg">
<g clip-path="url(#clip0_431_29198)">
<rect width="37.52" height="20" fill="white"/>
<path d="M0 10C0 4.66014 4.32881 0.331329 9.66868 0.331329H37.5245V19.6687H9.66868C4.32881 19.6687 0 15.3399 0 10Z" fill="#C4C4C4"/>
<path d="M9.66973 18.5528C14.4397 18.5528 18.3065 14.686 18.3065 9.91604C18.3065 5.14608 14.4397 1.27927 9.66973 1.27927C4.89977 1.27927 1.03296 5.14608 1.03296 9.91604C1.03296 14.686 4.89977 18.5528 9.66973 18.5528Z" fill="white"/>
<path d="M9.56677 0.331329C12.2477 0.331329 14.5303 1.26731 16.4128 3.13837C17.3137 4.03961 17.9987 5.06964 18.4665 6.22756C18.9341 7.38578 19.1686 8.61498 19.1686 9.91577C19.1686 11.2279 18.9371 12.4574 18.4755 13.6037C18.0134 14.7502 17.3314 15.7632 16.4304 16.6416C15.495 17.5656 14.4339 18.2734 13.2469 18.764C12.0605 19.2546 10.8337 19.4999 9.56737 19.4999C8.30102 19.4999 7.08859 19.2579 5.93037 18.7724C4.77245 18.2878 3.73404 17.586 2.81543 16.6677C1.89682 15.7494 1.19805 14.7137 0.718833 13.5612C0.239611 12.4086 0 11.1938 0 9.91577C0 8.64912 0.242307 7.4313 0.727219 6.2617C1.21213 5.0921 1.91689 4.0453 2.84089 3.121C4.66642 1.26162 6.90828 0.331329 9.56677 0.331329ZM9.60151 2.06012C7.41087 2.06012 5.56796 2.82478 4.07309 4.3535C3.31981 5.11816 2.74085 5.97656 2.33591 6.92932C1.93037 7.88207 1.72819 8.87765 1.72819 9.91607C1.72819 10.9431 1.93037 11.933 2.33591 12.8851C2.74115 13.8385 3.31981 14.6885 4.07309 15.4358C4.82606 16.1834 5.67578 16.7534 6.62345 17.1475C7.57021 17.5411 8.5631 17.7379 9.60151 17.7379C10.6282 17.7379 11.6232 17.5387 12.5886 17.1391C13.5527 16.7393 14.4219 16.1636 15.1982 15.4106C16.6928 13.9502 17.4398 12.119 17.4398 9.91637C17.4398 8.85519 17.2457 7.85122 16.8578 6.90416C16.4706 5.9571 15.9054 5.11307 15.1644 4.37087C13.6231 2.83047 11.7694 2.06012 9.60151 2.06012ZM9.48141 8.32445L8.19739 8.99207C8.06021 8.70723 7.89219 8.50716 7.69271 8.39304C7.49293 8.27923 7.30754 8.22202 7.13621 8.22202C6.2808 8.22202 5.8525 8.7866 5.8525 9.91637C5.8525 10.4297 5.96092 10.8401 6.17747 11.1483C6.39432 11.4565 6.7139 11.6107 7.13621 11.6107C7.69541 11.6107 8.08897 11.3367 8.3175 10.7892L9.49818 11.3882C9.24719 11.8563 8.89915 12.2241 8.45407 12.4922C8.0096 12.7606 7.51869 12.8944 6.98226 12.8944C6.12655 12.8944 5.43587 12.6324 4.91113 12.107C4.38638 11.5823 4.124 10.852 4.124 9.91667C4.124 9.00375 4.38937 8.27952 4.91981 7.7431C5.45025 7.20697 6.12056 6.9386 6.93105 6.9386C8.11802 6.938 8.96774 7.40015 9.48141 8.32445ZM15.0095 8.32445L13.7429 8.99207C13.606 8.70723 13.4374 8.50716 13.2379 8.39304C13.0378 8.27923 12.8464 8.22202 12.6646 8.22202C11.8089 8.22202 11.3806 8.7866 11.3806 9.91637C11.3806 10.4297 11.4893 10.8401 11.7059 11.1483C11.9224 11.4565 12.2417 11.6107 12.6646 11.6107C13.2232 11.6107 13.6171 11.3367 13.845 10.7892L15.0431 11.3882C14.781 11.8563 14.427 12.2241 13.9825 12.4922C13.5374 12.7606 13.0525 12.8944 12.5278 12.8944C11.6604 12.8944 10.9676 12.6324 10.4488 12.107C9.92888 11.5823 9.6695 10.852 9.6695 9.91667C9.6695 9.00375 9.93457 8.27952 10.4656 7.7431C10.9957 7.20697 11.6661 6.9386 12.4762 6.9386C13.6629 6.938 14.5078 7.40015 15.0095 8.32445Z" fill="black"/>
<path d="M22.5082 14.8343V6.95432H25.2033C25.6142 6.95432 25.9929 6.98654 26.3394 7.051C26.6939 7.1074 27.0001 7.21215 27.2579 7.36523C27.5238 7.51832 27.7293 7.71975 27.8743 7.96953C28.0274 8.2193 28.1039 8.53353 28.1039 8.91222C28.1039 9.08948 28.0798 9.26674 28.0314 9.444C27.9831 9.62126 27.9146 9.78643 27.826 9.93952C27.7373 10.0926 27.6285 10.2296 27.4996 10.3504C27.3788 10.4713 27.2378 10.5599 27.0766 10.6163V10.6647C27.2781 10.713 27.4634 10.7896 27.6326 10.8943C27.8018 10.991 27.9508 11.1159 28.0798 11.269C28.2087 11.422 28.3094 11.6033 28.3819 11.8128C28.4544 12.0143 28.4907 12.2479 28.4907 12.5138C28.4907 12.9167 28.4101 13.2631 28.249 13.5532C28.0959 13.8432 27.8783 14.085 27.5963 14.2783C27.3224 14.4637 27.0001 14.6047 26.6295 14.7013C26.2588 14.79 25.86 14.8343 25.433 14.8343H22.5082ZM24.2848 10.1087H25.1187C25.5538 10.1087 25.868 10.0241 26.0614 9.85492C26.2628 9.68572 26.3636 9.46011 26.3636 9.17811C26.3636 8.87194 26.2628 8.65439 26.0614 8.52547C25.86 8.39656 25.5498 8.3321 25.1308 8.3321H24.2848V10.1087ZM24.2848 13.4565H25.2879C26.2628 13.4565 26.7503 13.102 26.7503 12.3929C26.7503 12.0465 26.6295 11.8007 26.3877 11.6557C26.146 11.5026 25.7794 11.4261 25.2879 11.4261H24.2848V13.4565Z" fill="black"/>
<path d="M30.9669 14.8343V12.0304L28.586 6.95432H30.4956L31.1966 8.76719C31.3094 9.06531 31.4141 9.35537 31.5108 9.63737C31.6156 9.91132 31.7243 10.2014 31.8371 10.5076H31.8855C31.9983 10.2014 32.107 9.91132 32.2118 9.63737C32.3246 9.35537 32.4374 9.06531 32.5502 8.76719L33.2633 6.95432H35.1245L32.7436 12.0304V14.8343H30.9669Z" fill="black"/>
</g>
<defs>
<clipPath id="clip0_431_29198">
<rect width="37.52" height="20" fill="white"/>
</clipPath>
</defs>
</svg>
