<svg width="171" height="86" viewBox="0 0 171 86" fill="none" xmlns="http://www.w3.org/2000/svg">
<rect width="170" height="85" transform="translate(0.720154 0.872437)" fill="white"/>
<path d="M36.1496 21.8497H34.5206V27.0967H35.2586V25.1167H35.7986C37.2386 25.1167 37.9316 24.3877 37.9316 23.4517C37.9316 22.3447 37.2026 21.8497 36.1496 21.8497ZM35.7536 24.5047H35.2586V22.4617H35.8886C36.7076 22.4707 37.1756 22.7947 37.1756 23.4787C37.1756 24.3247 36.5636 24.4777 35.7536 24.5047Z" fill="#161616"/>
<path d="M42.8643 27.0967L41.4513 24.9007C42.0903 24.6127 42.4053 24.0817 42.4053 23.4517C42.4053 22.3447 41.6763 21.8497 40.6233 21.8497H38.9943V27.0967H39.7323V25.1167H40.2723C40.4433 25.1167 40.6053 25.1077 40.7493 25.0897L41.9553 27.0967H42.8643ZM40.2273 24.5047H39.7323V22.4617H40.3623C41.1813 22.4707 41.6493 22.7947 41.6493 23.4787C41.6493 24.3247 41.0463 24.5047 40.2273 24.5047Z" fill="#161616"/>
<path d="M43.8282 21.8497V27.0967H44.5662V21.8497H43.8282Z" fill="#161616"/>
<path d="M46.0607 21.8497V27.0967H46.7987V23.0467H46.8077L49.6877 27.0967H50.3807V21.8497H49.6427V25.7917H49.6337L46.7537 21.8497H46.0607Z" fill="#161616"/>
<path d="M51.573 24.5047C51.573 26.1607 52.464 27.1687 54.183 27.1687C54.894 27.1687 55.479 26.9887 55.722 26.8267V26.1787C55.272 26.4487 54.84 26.5477 54.273 26.5477C53.094 26.5477 52.356 25.8277 52.356 24.3697C52.356 23.1097 53.067 22.3807 54.12 22.3807C54.705 22.3807 55.173 22.4707 55.722 22.7947V22.0657C55.443 21.9577 55.074 21.7687 54.165 21.7687C52.455 21.7687 51.573 23.0197 51.573 24.5047Z" fill="#161616"/>
<path d="M57.6004 26.4847V24.7117H59.6074V24.0997H57.6004V22.4617H60.0214V21.8497H56.8624V27.0967H60.0844V26.4847H57.6004Z" fill="#161616"/>
<path d="M65.1906 21.8497H60.6636V22.4617H62.5446V27.0967H63.2826V22.4617H65.1906V21.8497Z" fill="#161616"/>
<path d="M65.5564 24.5767C65.5564 26.0077 66.4114 27.1687 67.9684 27.1687C69.6514 27.1687 70.4974 25.7737 70.4974 24.3157C70.4974 22.9387 69.6964 21.7687 68.1124 21.7687C66.5014 21.7687 65.5564 23.0017 65.5564 24.5767ZM69.7144 24.4417C69.7144 25.5037 69.2194 26.5477 67.9954 26.5477C66.8704 26.5477 66.3394 25.5487 66.3394 24.4327C66.3394 23.2447 66.9334 22.3897 68.0494 22.3897C69.1474 22.3897 69.7144 23.2897 69.7144 24.4417Z" fill="#161616"/>
<path d="M71.6896 21.8497V27.0967H72.4276V23.0467H72.4366L75.3166 27.0967H76.0096V21.8497H75.2716V25.7917H75.2626L72.3826 21.8497H71.6896Z" fill="#161616"/>
<path d="M104.623 59.3964H102.994V64.6434H103.732V62.6634H104.272C105.712 62.6634 106.405 61.9344 106.405 60.9984C106.405 59.8914 105.676 59.3964 104.623 59.3964ZM104.227 62.0514H103.732V60.0084H104.362C105.181 60.0174 105.649 60.3414 105.649 61.0254C105.649 61.8714 105.037 62.0244 104.227 62.0514Z" fill="#161616"/>
<path d="M111.338 64.6434L109.925 62.4474C110.564 62.1594 110.879 61.6284 110.879 60.9984C110.879 59.8914 110.15 59.3964 109.097 59.3964H107.468V64.6434H108.206V62.6634H108.746C108.917 62.6634 109.079 62.6544 109.223 62.6364L110.429 64.6434H111.338ZM108.701 62.0514H108.206V60.0084H108.836C109.655 60.0174 110.123 60.3414 110.123 61.0254C110.123 61.8714 109.52 62.0514 108.701 62.0514Z" fill="#161616"/>
<path d="M111.926 62.1234C111.926 63.5544 112.781 64.7154 114.338 64.7154C116.021 64.7154 116.867 63.3204 116.867 61.8624C116.867 60.4854 116.066 59.3154 114.482 59.3154C112.871 59.3154 111.926 60.5484 111.926 62.1234ZM116.084 61.9884C116.084 63.0504 115.589 64.0944 114.365 64.0944C113.24 64.0944 112.709 63.0954 112.709 61.9794C112.709 60.7914 113.303 59.9364 114.419 59.9364C115.517 59.9364 116.084 60.8364 116.084 61.9884Z" fill="#161616"/>
<path d="M117.162 65.0034L117.729 65.3724C118.485 64.5894 118.926 63.8424 118.926 63.0324V59.3964H118.188V63.0684C118.188 63.7614 117.675 64.3644 117.162 65.0034Z" fill="#161616"/>
<path d="M121.117 64.0314V62.2584H123.124V61.6464H121.117V60.0084H123.538V59.3964H120.379V64.6434H123.601V64.0314H121.117Z" fill="#161616"/>
<path d="M124.345 62.0514C124.345 63.7074 125.236 64.7154 126.955 64.7154C127.666 64.7154 128.251 64.5354 128.494 64.3734V63.7254C128.044 63.9954 127.612 64.0944 127.045 64.0944C125.866 64.0944 125.128 63.3744 125.128 61.9164C125.128 60.6564 125.839 59.9274 126.892 59.9274C127.477 59.9274 127.945 60.0174 128.494 60.3414V59.6124C128.215 59.5044 127.846 59.3154 126.937 59.3154C125.227 59.3154 124.345 60.5664 124.345 62.0514Z" fill="#161616"/>
<path d="M133.594 59.3964H129.067V60.0084H130.948V64.6434H131.686V60.0084H133.594V59.3964Z" fill="#161616"/>
<path d="M49.2424 42.094V50.441C48.0554 50.7856 46.7536 51.0153 45.2603 51.0153C40.2445 51.0153 37.1048 47.9522 37.1048 41.7494C37.1048 36.3889 40.5125 33.2875 44.9923 33.2875C47.4811 33.2875 49.9699 33.8619 52.3055 35.2403V32.1389C51.1185 31.6794 49.0509 30.6839 45.1837 30.6839C37.9088 30.6839 33.7736 36.006 33.7736 42.3237C33.7736 49.3689 37.5642 53.6573 44.8774 53.6573C47.9022 53.6573 50.123 52.8915 52.3821 51.6279V42.094H49.2424Z" fill="#161616"/>
<path d="M71.3994 44.0084C71.3994 39.3755 69.1404 35.7763 64.2394 35.7763C59.3384 35.7763 56.4667 39.7967 56.4667 45.0422C56.4667 50.4027 59.2618 53.6573 64.584 53.6573C67.3791 53.6573 69.4467 53.1595 70.9782 52.2406V49.7901C69.3701 50.5941 66.9579 51.0919 65.0052 51.0919C61.674 51.0919 59.7213 49.2923 59.5298 45.3486H71.3994V44.0084ZM64.1245 38.3417C66.843 38.3417 68.03 40.3327 68.1831 43.0512H59.6064C60.0659 39.3755 61.942 38.3417 64.1245 38.3417Z" fill="#161616"/>
<path d="M85.1631 35.7763C82.5594 35.7763 80.1089 37.1547 78.5391 38.2651L78.1179 36.1209H75.208L75.9355 40.2178V53.351H78.8071V40.371C80.4535 39.3755 82.5212 38.3417 84.091 38.3417C86.7329 38.3417 87.3456 39.6052 87.3456 42.2854V53.351H90.2555V41.9791C90.2555 37.5376 88.6091 35.7763 85.1631 35.7763Z" fill="#161616"/>
<path d="M97.9008 27.5442C96.6755 27.5442 95.7566 28.4248 95.7566 29.6118C95.7566 30.7987 96.6755 31.7177 97.9008 31.7177C99.0877 31.7177 100.045 30.7987 100.045 29.6118C100.045 28.4248 99.0877 27.5442 97.9008 27.5442ZM99.2792 36.1209H93.6124V38.6863H96.4075V53.351H99.2792V36.1209Z" fill="#161616"/>
<path d="M107.789 50.7856L116.902 36.1975L116.825 36.1209H103.577V38.6863H112.231L103.195 53.2361L103.233 53.351H117.17V50.7856H107.789Z" fill="#161616"/>
<path d="M133.774 53.351L133.123 49.4838V40.8687C133.123 37.0781 130.481 35.7763 127.341 35.7763C125.235 35.7763 122.325 36.2741 120.947 36.8867V39.4521C122.402 38.916 125.005 38.3417 126.843 38.3417C128.758 38.3417 130.251 38.916 130.251 41.5197V43.6256H127.992C123.014 43.6256 119.99 45.3486 119.99 48.8329C119.99 51.6662 121.598 53.6573 124.891 53.6573C127.303 53.6573 129.294 52.432 130.519 51.4748L130.864 53.351H133.774ZM122.9 48.6031C122.9 46.6504 124.393 45.8846 127.418 45.8846H130.251V49.3306C128.758 50.3644 126.958 51.2068 125.35 51.2068C123.665 51.2068 122.9 50.2495 122.9 48.6031Z" fill="#161616"/>
</svg>
