<?xml version="1.0" standalone="no"?>
<!DOCTYPE svg PUBLIC "-//W3C//DTD SVG 20010904//EN"
 "http://www.w3.org/TR/2001/REC-SVG-20010904/DTD/svg10.dtd">
<svg version="1.0" xmlns="http://www.w3.org/2000/svg"
 width="700.000000pt" height="700.000000pt" viewBox="0 0 700.000000 700.000000"
 preserveAspectRatio="xMidYMid meet">
<metadata>
Created by potrace 1.11, written by Peter Selinger 2001-2013
</metadata>
<g transform="translate(0.000000,700.000000) scale(0.100000,-0.100000)"
fill="#000000" stroke="none">
<path d="M3385 6784 c-104 -25 -210 -100 -270 -190 -59 -89 -78 -154 -79 -271
l0 -101 -36 -6 c-106 -17 -250 -128 -304 -234 -27 -54 -56 -150 -56 -188 0
-20 6 -22 78 -26 125 -7 236 -70 340 -192 41 -49 122 -195 135 -245 5 -21 10
-23 39 -17 60 12 139 57 204 119 l64 60 63 -60 c63 -61 131 -102 199 -121 37
-10 37 -10 49 26 50 158 195 333 324 394 53 24 86 33 147 36 l80 5 -7 51 c-24
176 -154 328 -323 379 l-74 22 6 56 c32 320 -265 579 -579 503z"/>
<path d="M2955 6749 c-368 -64 -738 -194 -1051 -369 -121 -68 -353 -220 -419
-275 l-30 -25 55 0 c123 -1 271 -57 361 -138 l49 -44 56 21 c161 61 358 42
505 -48 34 -22 51 -27 53 -19 2 7 9 36 16 63 32 140 154 289 292 360 75 38 78
41 78 75 1 117 64 271 149 362 53 58 53 58 25 57 -16 0 -78 -9 -139 -20z"/>
<path d="M3926 6724 c88 -105 137 -219 150 -347 l7 -67 45 -20 c70 -31 166
-105 212 -162 62 -78 87 -133 126 -275 2 -9 23 -2 66 22 84 46 135 63 221 73
87 11 182 1 266 -28 l62 -22 43 40 c87 80 208 130 341 141 l79 6 -89 66 c-316
234 -677 411 -1058 519 -138 40 -340 82 -452 96 l-59 7 40 -49z"/>
<path d="M1401 5959 c-78 -15 -169 -65 -230 -127 -189 -188 -186 -472 6 -665
31 -31 60 -57 65 -57 4 0 -5 -24 -21 -52 -48 -86 -64 -158 -59 -262 6 -104 29
-174 84 -249 l35 -49 50 47 c142 133 388 151 623 47 57 -25 59 -25 72 -7 33
45 57 132 62 226 l5 96 96 5 c94 5 181 29 226 62 18 13 18 15 -8 72 -102 229
-81 482 52 627 l41 44 -23 20 c-128 117 -364 137 -528 45 l-47 -26 -59 60
c-124 126 -277 175 -442 143z"/>
<path d="M5392 5955 c-103 -28 -189 -83 -250 -159 l-33 -42 -81 41 -81 40
-121 0 c-115 0 -124 -2 -188 -32 -38 -18 -84 -44 -103 -59 l-35 -27 44 -47
c54 -58 82 -110 101 -192 33 -140 11 -300 -62 -456 -15 -31 -14 -34 3 -47 47
-35 130 -58 229 -62 l100 -5 -4 -56 c-1 -30 2 -82 9 -116 12 -61 55 -166 68
-166 4 0 40 14 80 31 134 56 276 72 403 45 85 -18 139 -46 200 -102 l47 -45
36 46 c100 131 117 328 41 482 l-36 72 63 63 c98 99 148 212 148 338 0 301
-293 531 -578 455z"/>
<path d="M2645 5661 c-79 -20 -121 -58 -160 -144 -116 -252 83 -668 342 -716
81 -16 138 2 198 63 115 114 124 316 24 524 -88 182 -272 307 -404 273z"/>
<path d="M4243 5656 c-200 -49 -377 -330 -360 -571 21 -291 261 -383 474 -182
70 66 118 140 156 240 28 74 31 93 32 197 0 110 -1 118 -33 182 -57 115 -151
162 -269 134z"/>
<path d="M859 5470 c-238 -320 -415 -674 -524 -1054 -44 -155 -88 -361 -101
-473 l-6 -62 43 39 c95 89 223 146 348 157 l67 6 39 76 c54 105 146 195 253
249 45 22 102 44 127 48 25 3 47 9 50 13 2 4 -9 27 -26 52 -87 131 -106 331
-48 499 l21 61 -39 42 c-82 89 -130 207 -142 347 l-6 74 -56 -74z"/>
<path d="M6077 5458 c-9 -128 -42 -212 -126 -321 l-50 -65 20 -52 c59 -157 40
-354 -50 -501 -22 -34 -27 -51 -19 -53 7 -2 36 -9 63 -16 140 -32 289 -154
360 -292 40 -77 40 -78 80 -78 109 -1 250 -57 354 -141 l64 -52 -7 59 c-14
111 -57 313 -96 451 -108 381 -272 717 -507 1041 -41 56 -76 102 -77 102 -2 0
-6 -37 -9 -82z"/>
<path d="M3454 5301 c-49 -37 -132 -79 -185 -94 l-39 -12 -4 -95 c-3 -61 -11
-117 -25 -157 -12 -34 -21 -64 -21 -66 0 -2 33 3 73 11 48 10 130 15 247 15
117 0 199 -5 248 -15 39 -8 72 -12 72 -9 0 3 -10 35 -21 71 -14 44 -22 94 -23
155 l-1 90 -69 23 c-38 12 -100 43 -137 67 -36 25 -69 45 -71 45 -2 0 -22 -13
-44 -29z"/>
<path d="M2426 4858 c-32 -17 -95 -38 -140 -47 l-82 -15 -15 -82 c-9 -45 -31
-110 -48 -145 l-31 -64 65 -68 c38 -40 76 -92 92 -127 16 -33 31 -60 34 -60 3
0 28 33 55 72 63 93 229 259 322 322 39 27 72 52 72 55 0 3 -30 21 -66 40 -36
19 -94 60 -127 93 -34 32 -64 58 -67 57 -3 0 -31 -14 -64 -31z"/>
<path d="M4438 4830 c-31 -32 -86 -72 -122 -91 -36 -19 -66 -37 -66 -40 0 -3
33 -28 72 -55 93 -63 259 -229 322 -322 27 -39 52 -72 55 -72 3 0 19 28 36 62
16 35 56 89 92 127 l63 66 -31 64 c-17 35 -39 100 -48 145 l-15 82 -82 15
c-45 9 -109 31 -143 48 -34 17 -65 30 -69 29 -4 -1 -33 -27 -64 -58z"/>
<path d="M3345 4793 c-22 -2 -44 -8 -48 -12 -12 -12 132 -74 184 -79 51 -5
125 16 191 53 26 15 36 25 28 30 -14 9 -296 15 -355 8z"/>
<path d="M3038 4715 c-74 -29 -145 -61 -156 -70 -2 -2 16 -23 40 -47 56 -55
141 -192 220 -355 35 -71 63 -129 64 -131 2 -6 64 21 64 29 0 5 -18 62 -39
127 -59 176 -94 327 -95 409 -1 40 -3 73 -6 73 -3 -1 -44 -16 -92 -35z"/>
<path d="M3870 4695 c0 -68 -44 -257 -96 -414 -47 -143 -47 -150 2 -165 19 -6
24 1 44 48 50 124 206 381 268 443 19 19 32 37 29 39 -10 11 -191 85 -218 91
-29 5 -29 5 -29 -42z"/>
<path d="M3244 4648 c3 -13 12 -57 21 -98 18 -87 73 -271 84 -283 4 -4 16 11
26 33 10 23 34 54 52 70 66 59 154 28 198 -70 10 -22 22 -37 26 -33 20 21 117
389 105 400 -2 2 -39 -14 -82 -34 -74 -36 -85 -38 -175 -38 -90 0 -99 2 -171
38 -42 20 -79 37 -82 37 -4 0 -4 -10 -2 -22z"/>
<path d="M1547 4539 c-114 -27 -193 -101 -211 -199 -15 -85 54 -225 152 -307
66 -55 124 -87 217 -119 66 -23 97 -27 180 -27 127 0 194 23 254 88 52 56 63
84 63 160 1 84 -30 144 -116 231 -140 141 -366 214 -539 173z"/>
<path d="M2674 4502 c-68 -57 -169 -162 -203 -211 l-24 -33 34 7 c44 9 138 51
163 73 31 28 64 87 81 147 9 31 15 59 12 61 -3 3 -31 -17 -63 -44z"/>
<path d="M4265 4518 c11 -51 53 -140 82 -170 27 -28 116 -72 171 -83 33 -7 33
-6 21 17 -16 30 -227 241 -257 257 -23 12 -24 12 -17 -21z"/>
<path d="M5205 4534 c-109 -27 -203 -81 -286 -163 -115 -115 -146 -198 -115
-305 33 -111 115 -166 273 -181 143 -14 338 55 450 159 190 177 183 390 -16
479 -61 27 -220 33 -306 11z"/>
<path d="M2845 4498 c-2 -7 -9 -31 -16 -53 -35 -116 -95 -192 -190 -239 -39
-19 -86 -38 -105 -42 -19 -3 -36 -10 -39 -14 -10 -16 348 -230 362 -216 2 1
-4 22 -12 46 -28 80 -12 146 45 175 36 19 64 19 125 0 27 -8 50 -13 51 -12 10
10 -196 367 -212 367 -3 0 -6 -6 -9 -12z"/>
<path d="M4086 4424 c-61 -91 -161 -272 -154 -279 2 -2 22 2 43 10 81 29 151
11 180 -45 19 -36 19 -64 0 -125 -8 -27 -13 -50 -12 -51 1 -1 42 18 91 42 106
52 279 165 269 174 -5 4 -28 12 -53 19 -62 18 -133 55 -174 92 -38 33 -101
149 -112 205 -3 19 -10 36 -14 39 -4 2 -33 -34 -64 -81z"/>
<path d="M1123 4345 c-83 -23 -152 -63 -214 -124 -61 -61 -92 -114 -119 -201
l-18 -54 -98 -2 c-155 -2 -280 -60 -367 -168 -93 -118 -127 -265 -92 -401 59
-229 274 -384 501 -361 l61 6 7 -38 c11 -70 72 -176 134 -234 82 -75 196 -127
283 -128 26 0 27 1 31 83 6 105 42 179 134 276 80 85 148 132 253 173 l79 31
-10 36 c-18 66 -57 129 -119 196 l-62 65 55 58 c62 65 104 132 123 196 l13 44
-61 22 c-103 38 -168 80 -253 164 -109 108 -146 180 -152 294 -4 81 -5 82 -31
81 -14 0 -50 -7 -78 -14z"/>
<path d="M5768 4278 c-6 -114 -43 -186 -152 -294 -84 -84 -140 -120 -241 -159
-56 -22 -60 -26 -59 -53 3 -52 49 -136 114 -205 l62 -67 -55 -54 c-56 -56
-127 -179 -127 -221 0 -18 11 -26 58 -43 171 -63 346 -228 388 -367 8 -27 14
-77 14 -112 0 -73 -4 -71 100 -47 158 36 282 151 337 314 l22 65 60 -3 c191
-10 378 96 459 261 160 324 -90 695 -455 675 l-65 -3 -17 55 c-28 87 -59 140
-120 201 -63 63 -131 101 -218 124 -101 26 -100 27 -105 -67z"/>
<path d="M3482 4267 c-6 -7 -20 -37 -31 -68 -27 -72 -75 -127 -142 -164 -47
-26 -64 -30 -134 -30 -64 0 -93 5 -148 28 -37 15 -72 27 -78 27 -12 0 -7 -19
28 -110 64 -164 -11 -336 -175 -401 -32 -12 -65 -29 -75 -37 -16 -14 -16 -16
2 -28 10 -7 43 -22 73 -34 71 -26 126 -74 163 -141 26 -47 30 -64 30 -134 0
-65 -5 -94 -29 -153 -16 -40 -26 -75 -23 -79 4 -3 39 7 79 23 59 24 87 29 153
29 133 0 212 -54 276 -192 21 -44 42 -84 48 -87 8 -6 18 11 67 119 24 52 79
106 140 136 73 36 175 34 272 -5 40 -16 75 -26 79 -23 3 4 -7 40 -23 79 -37
94 -40 198 -7 270 30 67 102 133 171 158 31 12 66 28 76 36 20 14 20 14 0 28
-10 8 -46 25 -78 37 -79 28 -145 95 -176 175 -29 77 -24 162 15 256 16 38 25
71 22 75 -4 3 -39 -7 -79 -23 -59 -24 -88 -29 -153 -29 -70 0 -87 4 -134 30
-66 37 -113 90 -142 163 -32 83 -45 96 -67 69z m-104 -365 c18 -17 36 -49 45
-79 22 -74 42 -201 33 -210 -18 -18 -145 178 -153 235 -6 42 10 82 31 82 8 0
27 -13 44 -28z m316 -3 c15 -43 -2 -94 -63 -187 -87 -132 -102 -135 -82 -16
19 116 39 170 72 204 36 36 60 36 73 -1z m-478 -225 c65 -34 174 -113 174
-125 0 -14 -46 -11 -144 11 -100 22 -140 42 -164 83 -16 27 -16 29 2 43 30 21
77 17 132 -12z m711 12 c13 -13 -13 -61 -45 -82 -51 -35 -272 -80 -272 -56 0
13 105 90 175 127 39 21 60 26 93 22 24 -3 46 -8 49 -11z m-537 -236 c0 -12
-133 -107 -185 -131 -48 -22 -94 -24 -121 -5 -18 14 -18 16 -2 43 23 40 64 61
159 82 95 22 149 26 149 11z m362 -10 c124 -27 178 -61 178 -112 0 -23 -61
-34 -108 -19 -42 12 -203 120 -210 139 -5 17 37 15 140 -8z m-295 -97 c-10
-83 -37 -188 -57 -221 -11 -18 -32 -38 -46 -44 -56 -26 -72 55 -28 138 36 68
113 174 126 174 7 0 9 -16 5 -47z m150 -19 c86 -120 111 -196 79 -240 -14 -18
-16 -18 -43 -2 -41 24 -61 64 -83 164 -35 161 -25 179 47 78z"/>
<path d="M2340 4093 c-27 -58 -70 -166 -78 -196 l-9 -32 71 -1 c80 -1 230 -36
408 -95 65 -21 122 -39 127 -39 5 0 14 15 20 32 9 26 9 34 -1 37 -7 2 -71 34
-143 70 -148 76 -290 167 -339 217 -18 19 -35 34 -38 34 -3 0 -11 -12 -18 -27z"/>
<path d="M4615 4094 c-23 -36 -205 -153 -362 -232 -135 -68 -147 -79 -120
-116 12 -17 19 -16 118 18 173 59 336 97 421 99 43 1 78 3 78 4 0 22 -100 253
-110 253 -4 0 -15 -12 -25 -26z"/>
<path d="M2060 3798 c-37 -14 -89 -22 -157 -26 -77 -3 -103 -8 -103 -18 0 -31
-45 -130 -87 -191 l-44 -65 46 -66 c25 -37 56 -98 69 -136 l24 -69 94 -2 c64
-2 113 -9 157 -24 35 -12 65 -21 66 -19 2 2 -3 32 -11 68 -24 113 -29 301 -10
428 9 62 19 119 22 127 8 19 2 18 -66 -7z"/>
<path d="M4888 3748 c21 -99 21 -396 0 -495 -8 -40 -12 -73 -9 -73 3 0 31 9
61 21 38 15 85 22 155 25 l99 4 26 73 c14 40 45 100 69 134 l43 62 -45 68
c-24 37 -56 99 -69 137 l-25 69 -89 3 c-54 1 -114 11 -154 23 -36 11 -68 21
-71 21 -3 0 1 -33 9 -72z"/>
<path d="M2330 3753 c0 -5 8 -22 18 -38 36 -59 64 -149 65 -210 1 -68 -12
-113 -55 -199 -16 -32 -27 -60 -26 -62 13 -12 378 84 401 105 4 4 -11 16 -33
26 -132 59 -132 191 0 250 22 10 37 22 33 26 -4 4 -51 20 -103 37 -81 26 -127
37 -277 68 -13 2 -23 1 -23 -3z"/>
<path d="M4565 3739 c-99 -21 -285 -76 -298 -88 -4 -4 11 -16 33 -26 132 -59
132 -191 0 -250 -22 -10 -37 -22 -33 -26 22 -21 389 -116 401 -104 2 2 -13 38
-35 81 -36 74 -38 83 -38 174 0 91 2 100 38 172 20 42 37 79 37 82 0 8 1 8
-105 -15z"/>
<path d="M2213 3695 c-12 -30 -10 -382 3 -395 7 -7 20 11 45 61 29 61 34 81
34 143 -1 62 -6 80 -37 141 -31 60 -38 67 -45 50z"/>
<path d="M4738 3638 c-27 -53 -32 -74 -33 -134 0 -62 5 -82 34 -143 19 -39 39
-67 43 -63 23 23 20 402 -3 402 -5 0 -23 -28 -41 -62z"/>
<path d="M2800 3254 c-119 -52 -448 -130 -512 -121 -46 6 -46 12 14 -135 48
-115 59 -128 82 -94 23 36 196 148 348 225 73 38 139 70 147 72 11 4 11 10 -3
37 -19 36 -26 38 -76 16z"/>
<path d="M4132 3258 c-31 -39 -21 -49 118 -119 153 -77 342 -198 366 -234 9
-14 20 -25 24 -25 7 0 90 186 104 235 5 19 1 20 -67 21 -82 1 -233 36 -409 95
-136 45 -123 42 -136 27z"/>
<path d="M230 3097 c0 -45 39 -259 71 -387 104 -419 288 -811 547 -1163 l67
-92 6 81 c10 132 57 242 153 360 l26 30 -22 55 c-26 67 -36 237 -19 320 12 59
71 192 90 203 22 14 10 23 -44 35 -154 34 -317 165 -385 309 l-34 72 -46 0
c-112 0 -257 61 -350 147 -56 51 -60 53 -60 30z"/>
<path d="M1793 3109 c-125 -21 -247 -84 -338 -174 -85 -84 -110 -138 -110
-242 0 -74 3 -85 30 -125 22 -30 50 -53 97 -77 250 -127 660 59 728 331 24 96
-32 208 -130 258 -69 35 -173 46 -277 29z"/>
<path d="M5024 3110 c-140 -28 -226 -120 -226 -242 0 -155 158 -318 382 -394
83 -29 258 -26 324 4 115 52 160 114 159 219 -2 239 -358 468 -639 413z"/>
<path d="M6710 3067 c-87 -79 -252 -146 -366 -147 -29 0 -34 -6 -69 -77 -68
-137 -215 -256 -360 -293 -27 -6 -56 -14 -63 -16 -8 -2 -3 -19 19 -53 90 -147
109 -344 50 -501 l-20 -52 51 -67 c84 -108 128 -227 128 -346 l1 -60 25 30
c62 76 186 262 260 392 186 325 322 706 384 1076 29 174 28 177 -40 114z"/>
<path d="M2812 3049 c-94 -41 -325 -186 -317 -199 3 -4 20 -11 39 -14 56 -11
172 -74 205 -112 37 -41 74 -112 92 -174 7 -25 15 -48 19 -53 9 -10 122 164
175 269 24 49 43 89 42 91 -2 1 -25 -4 -52 -12 -61 -19 -89 -19 -125 0 -57 29
-73 95 -45 175 8 24 14 44 13 45 -2 1 -22 -6 -46 -16z"/>
<path d="M4140 3066 c0 -2 7 -23 15 -46 28 -80 11 -146 -45 -175 -36 -19 -64
-19 -125 0 -27 8 -50 13 -51 12 -1 -1 18 -43 42 -92 52 -104 163 -277 174
-270 4 2 10 22 14 42 9 58 50 137 96 187 46 49 142 103 202 113 21 3 40 9 43
12 6 10 -147 112 -256 170 -90 48 -109 56 -109 47z"/>
<path d="M3151 2775 c-64 -137 -174 -314 -229 -372 -29 -30 -37 -45 -29 -52
13 -9 188 -85 222 -95 19 -5 20 -1 21 67 1 82 36 233 95 409 21 65 39 122 39
127 0 7 -55 33 -64 31 -1 0 -25 -52 -55 -115z"/>
<path d="M3746 2867 c-16 -12 -15 -20 22 -132 60 -179 95 -330 96 -412 1 -40
2 -73 4 -73 16 0 236 93 251 106 2 2 -9 14 -24 26 -41 32 -156 213 -233 366
-67 135 -79 146 -116 119z"/>
<path d="M2261 2684 c-19 -36 -61 -94 -93 -127 l-58 -62 31 -64 c17 -35 39
-100 48 -145 l15 -82 82 -15 c45 -9 110 -31 145 -48 l64 -31 68 64 c37 35 94
77 127 92 33 16 60 32 60 35 0 3 -34 29 -76 58 -99 70 -226 195 -304 301 -34
47 -65 86 -69 87 -3 2 -21 -27 -40 -63z"/>
<path d="M4644 2678 c-63 -94 -218 -249 -316 -318 -43 -29 -78 -56 -78 -59 0
-3 27 -19 60 -35 33 -15 90 -57 127 -92 l68 -64 64 31 c35 17 100 39 145 48
l82 15 15 82 c9 45 31 110 48 145 l31 64 -58 62 c-32 33 -74 91 -93 127 -19
36 -37 66 -40 66 -3 0 -28 -33 -55 -72z"/>
<path d="M2461 2719 c16 -31 228 -243 257 -258 23 -12 24 -12 17 21 -11 55
-55 144 -83 171 -30 29 -119 71 -170 82 -33 7 -33 6 -21 -16z"/>
<path d="M3341 2718 c-36 -94 -107 -376 -96 -386 2 -2 38 13 81 35 74 36 83
38 174 38 91 0 100 -2 174 -38 43 -22 79 -37 81 -35 12 12 -83 379 -104 401
-4 4 -16 -11 -26 -33 -60 -132 -182 -133 -250 -1 l-23 46 -11 -27z"/>
<path d="M4485 2726 c-122 -39 -176 -93 -210 -210 -9 -32 -15 -60 -12 -62 13
-13 249 215 278 269 12 21 1 21 -56 3z"/>
<path d="M1250 2459 c-89 -121 -118 -274 -78 -409 6 -19 23 -61 39 -93 l29
-58 -62 -62 c-155 -153 -190 -354 -97 -552 30 -64 130 -165 197 -199 199 -101
413 -61 572 106 l47 49 72 -35 c169 -81 355 -64 493 45 l39 32 -39 41 c-56 59
-80 103 -102 191 -34 134 -21 284 39 426 17 40 30 74 28 75 -1 1 -21 11 -44
23 -64 32 -149 51 -230 51 l-73 0 6 44 c8 59 -11 168 -43 239 -29 65 -22 64
-121 22 -220 -92 -463 -67 -594 62 l-46 45 -32 -43z"/>
<path d="M5676 2462 c-132 -136 -397 -162 -617 -61 -68 31 -70 32 -84 13 -34
-44 -58 -130 -63 -225 l-5 -96 -91 -6 c-90 -5 -191 -32 -230 -62 -18 -13 -17
-17 13 -90 95 -227 75 -462 -50 -599 l-49 -54 39 -31 c93 -74 234 -111 351
-92 35 6 97 26 138 46 l74 35 63 -64 c187 -191 475 -194 666 -6 185 182 178
488 -14 666 l-62 58 40 80 40 79 0 121 c0 119 -1 122 -37 196 -20 41 -47 88
-60 103 l-23 28 -39 -39z"/>
<path d="M3430 2291 c-43 -14 -130 -61 -130 -70 0 -10 100 -21 200 -21 100 0
200 11 200 21 0 5 -28 23 -62 40 -66 33 -158 47 -208 30z"/>
<path d="M2790 2197 c-192 -72 -354 -348 -336 -572 7 -92 20 -133 59 -191 65
-98 188 -125 305 -68 72 35 177 139 219 219 69 132 95 268 74 390 -19 107 -58
167 -135 207 -50 25 -139 33 -186 15z"/>
<path d="M4059 2194 c-62 -19 -122 -80 -150 -152 -32 -82 -32 -220 -1 -322 69
-223 236 -382 399 -382 109 0 181 58 223 182 19 55 21 80 17 160 -8 153 -63
282 -170 396 -97 104 -218 149 -318 118z"/>
<path d="M3180 2123 c0 -2 10 -32 21 -66 14 -41 23 -94 25 -157 l4 -94 73 -26
c40 -14 100 -45 135 -69 l62 -44 44 31 c53 38 159 90 201 98 l30 5 1 92 c1 65
8 110 23 154 11 34 21 66 21 71 0 5 -30 3 -67 -6 -48 -11 -121 -15 -253 -15
-132 0 -205 4 -252 15 -38 9 -68 14 -68 11z"/>
<path d="M3189 1662 c-25 -79 -95 -198 -154 -261 -106 -113 -218 -171 -340
-174 -64 -1 -65 -5 -40 -100 23 -87 61 -155 124 -218 61 -61 114 -92 201 -120
l55 -17 -3 -60 c-13 -246 157 -463 397 -504 289 -50 555 196 539 499 l-3 65
55 17 c77 24 127 52 181 100 81 71 141 183 155 289 l6 51 -34 -5 c-44 -8 -146
18 -212 53 -82 44 -205 174 -253 268 -22 44 -46 97 -52 117 l-12 37 -56 -20
c-73 -25 -117 -52 -186 -118 l-57 -54 -63 60 c-63 61 -131 102 -199 121 -37
10 -37 10 -49 -26z"/>
<path d="M2480 1131 c-95 -59 -162 -76 -305 -76 -111 0 -139 4 -192 23 l-63
24 -51 -45 c-88 -77 -202 -123 -334 -135 l-80 -7 102 -75 c409 -301 889 -503
1397 -590 171 -29 171 -29 124 22 -87 95 -142 218 -154 346 l-7 70 -73 37
c-84 41 -185 134 -229 210 -34 58 -75 167 -75 200 0 31 -5 31 -60 -4z"/>
<path d="M4460 1105 c-31 -150 -164 -316 -306 -385 l-71 -34 -6 -70 c-10 -127
-69 -253 -162 -350 l-37 -39 58 7 c319 38 731 164 1037 318 128 64 333 190
457 279 l115 84 -80 7 c-127 10 -250 61 -337 137 l-46 41 -79 -26 c-97 -33
-235 -37 -327 -10 -65 19 -171 69 -181 86 -13 22 -24 8 -35 -45z"/>
</g>
</svg>
