<svg width="1441" height="413" viewBox="0 0 1441 413" fill="none" xmlns="http://www.w3.org/2000/svg">
<g clip-path="url(#clip0_431_29309)">
<g filter="url(#filter0_d_431_29309)">
<path d="M795.557 51.3379L771.557 51.3379L0.445312 52.9668V387.415L1440.45 387.415L1440.45 51.7452L1390.68 51.7452C1390.68 51.7452 1381.93 53.9955 1379.81 53.9955C1377.68 53.9955 1373.56 59.4 1371.68 61.0875C1369.81 62.775 1355.81 67.525 1355.81 67.525C1355.81 67.525 1350.81 68.025 1348.24 66.9625C1345.68 65.9 1352.84 56.9455 1353.31 54.4625C1353.77 51.9795 1337.99 40.4 1336.49 38.525C1334.99 36.65 1337.24 32.65 1335.99 31.025C1334.74 29.4 1328.58 24.7603 1326.49 25.7125C1324.41 26.6646 1324.31 29.9 1324.31 29.9L1316.37 32.5875C1316.37 32.5875 1312.74 43.275 1312.18 44.275C1311.62 45.275 1304.31 46.8375 1301.56 48.5875C1298.81 50.3375 1295.17 57.5875 1290.93 57.5875C1286.7 57.5875 1267.18 50.2125 1267.18 50.2125L1251.06 38.9625L1239.43 33.9625C1239.43 33.9625 1228.81 32.525 1226.43 34.525C1224.06 36.525 1221.06 43.9625 1216.99 44.9C1212.93 45.8375 1201.29 39.2125 1197.56 39.2125C1193.82 39.2125 1190.92 50.275 1187.18 50.275C1183.45 50.275 1164.93 44.3374 1164.93 45.4627C1164.93 46.5879 1176.31 55.5879 1176.31 56.7129C1176.31 57.8379 1146.45 80.7506 1143.06 79.3379C1139.67 77.9252 1142.43 56.7129 1142.43 56.7129L1129.93 50.5879H1106.31L1094.06 45.4629H1081.06L1067.81 56.5879C1067.81 56.5879 1068.81 65.4629 1067.81 67.0879C1066.81 68.7129 1049.81 62.5879 1049.81 62.5879C1049.81 62.5879 1045.92 67.8379 1043.43 67.8379C1040.95 67.8379 1033.68 57.9673 1033.68 57.9673C1033.68 57.9673 1011.54 67.8379 1008.06 67.8379C1004.57 67.8379 988.682 45.0879 988.682 45.0879L970.682 39.3379C970.682 39.3379 965.057 44.0835 960.932 45.0879C956.807 46.0923 916.057 50.7129 912.682 50.7129C909.307 50.7129 892.807 45.3379 892.807 45.3379L880.682 50.0879C880.682 50.0879 875.557 61.2129 872.432 63.2129C869.307 65.2129 862.057 63.8379 856.932 62.4629C851.807 61.0879 839.32 40.3379 836.307 40.3379L817.057 40.3379C812.57 40.3379 795.557 51.3379 795.557 51.3379Z" fill="#FEFEFE"/>
</g>
</g>
<defs>
<filter id="filter0_d_431_29309" x="-19.5547" y="8.58496" width="1480" height="401.83" filterUnits="userSpaceOnUse" color-interpolation-filters="sRGB">
<feFlood flood-opacity="0" result="BackgroundImageFix"/>
<feColorMatrix in="SourceAlpha" type="matrix" values="0 0 0 0 0 0 0 0 0 0 0 0 0 0 0 0 0 0 127 0" result="hardAlpha"/>
<feOffset dy="3"/>
<feGaussianBlur stdDeviation="10"/>
<feComposite in2="hardAlpha" operator="out"/>
<feColorMatrix type="matrix" values="0 0 0 0 0.337255 0 0 0 0 0.470588 0 0 0 0 0.337255 0 0 0 1 0"/>
<feBlend mode="normal" in2="BackgroundImageFix" result="effect1_dropShadow_431_29309"/>
<feBlend mode="normal" in="SourceGraphic" in2="effect1_dropShadow_431_29309" result="shape"/>
</filter>
<clipPath id="clip0_431_29309">
<rect width="1440" height="413" fill="white" transform="translate(0.445312)"/>
</clipPath>
</defs>
</svg>
