<svg width="1440" height="600" viewBox="0 -25 1440 600" fill="none" xmlns="http://www.w3.org/2000/svg">
    <g clip-path="url(#clip0_431_29884)">
        <path d="M795.557 26.2113L771.557 26.2113L0.445312 27.8402V562.288L1440.45 562.288L1440.45 26.6186L1390.68 26.6186C1390.68 26.6186 1381.93 28.8689 1379.81 28.8689C1377.68 28.8689 1373.56 34.2734 1371.68 35.9609C1369.81 37.6484 1355.81 42.3984 1355.81 42.3984C1355.81 42.3984 1350.81 42.8984 1348.24 41.8359C1345.68 40.7734 1352.84 31.8189 1353.31 29.3359C1353.77 26.8529 1337.99 15.2734 1336.49 13.3984C1334.99 11.5234 1337.24 7.52339 1335.99 5.89839C1334.74 4.27339 1328.58 -0.366278 1326.49 0.585888C1324.41 1.53805 1324.31 4.77339 1324.31 4.77339L1316.37 7.46089C1316.37 7.46089 1312.74 18.1484 1312.18 19.1484C1311.62 20.1484 1304.31 21.7109 1301.56 23.4609C1298.81 25.2109 1295.17 32.4609 1290.93 32.4609C1286.7 32.4609 1267.18 25.0859 1267.18 25.0859L1251.06 13.8359L1239.43 8.83589C1239.43 8.83589 1228.81 7.39839 1226.43 9.39839C1224.06 11.3984 1221.06 18.8359 1216.99 19.7734C1212.93 20.7109 1201.29 14.0859 1197.56 14.0859C1193.82 14.0859 1190.92 25.1484 1187.18 25.1484C1183.45 25.1484 1164.93 19.2108 1164.93 20.3361C1164.93 21.4613 1176.31 30.4613 1176.31 31.5863C1176.31 32.7113 1146.45 55.624 1143.06 54.2113C1139.67 52.7986 1142.43 31.5863 1142.43 31.5863L1129.93 25.4613L1106.31 25.4613L1094.06 20.3363H1081.06L1067.81 31.4613C1067.81 31.4613 1068.81 40.3363 1067.81 41.9613C1066.81 43.5863 1049.81 37.4613 1049.81 37.4613C1049.81 37.4613 1045.92 42.7113 1043.43 42.7113C1040.95 42.7113 1033.68 32.8407 1033.68 32.8407C1033.68 32.8407 1011.54 42.7113 1008.06 42.7113C1004.57 42.7113 988.682 19.9613 988.682 19.9613L970.682 14.2113C970.682 14.2113 965.057 18.9569 960.932 19.9613C956.807 20.9657 916.057 25.5863 912.682 25.5863C909.307 25.5863 892.807 20.2113 892.807 20.2113L880.682 24.9613C880.682 24.9613 875.557 36.0863 872.432 38.0863C869.307 40.0863 862.057 38.7113 856.932 37.3363C851.807 35.9613 839.32 15.2113 836.307 15.2113L817.057 15.2113C812.57 15.2113 795.557 26.2113 795.557 26.2113Z" fill="url(#paint0_linear_431_29884)" />
    </g>
    <defs>
        <linearGradient id="paint0_linear_431_29884" x1="0.445298" y1="562.288" x2="1440.45" y2="562.288" gradientUnits="userSpaceOnUse">
            <stop stop-color="#FEFEFE" stop-opacity="0.79" />
            <stop offset="0.774256" stop-color="#FEFEFE" stop-opacity="0.72" />
            <stop offset="1" stop-color="#FEFEFE" stop-opacity="0.38" />
        </linearGradient>
        <clipPath id="clip0_431_29884">
            <rect width="1440" height="600" fill="white" transform="translate(0 0.288452)" />
        </clipPath>
    </defs>
</svg>
