<svg width="1441" height="189" viewBox="0 0 1441 189" fill="none" xmlns="http://www.w3.org/2000/svg">
<g clip-path="url(#clip0_431_29605)">
<path d="M569.514 140.282C571.5 142.282 578.277 142.032 583.514 140.282C586.681 139.488 602.875 126.183 613.889 118.379C615.902 117.024 623.129 112.646 626.264 106.004C626.528 105.443 626.768 104.907 626.997 104.348C627.195 103.865 627.384 103.365 627.576 102.817C631.06 92.8648 629.636 76.4575 627.24 54.9266C629.779 76.1173 633.823 102.049 633.823 102.049C633.823 102.049 634.639 105.067 635.701 105.629C636.764 106.192 637.232 107.317 637.232 107.317C637.92 108.692 640.589 118.379 641.514 118.379C646.139 118.379 652.514 120.754 656.514 123.282C658.223 124.362 660.663 125.432 662.897 126.303C665.89 127.471 668.514 128.282 668.514 128.282L1440 128.282L1440 0.00411605L-6.07979e-06 0.00411987L-2.38795e-06 129.504L49.7637 129.504L63.2012 132.192L72.9512 142.379C72.9512 142.379 86.3262 148.004 87.8262 148.317C89.3262 148.629 94.8262 148.317 95.3887 146.567C95.9512 144.817 88.9512 136.817 89.3262 135.067C89.7012 133.317 106.076 119.942 106.639 118.504C107.201 117.067 105.576 113.004 106.639 112.004C107.701 111.004 114.639 106.004 116.951 105.629C119.264 105.254 120.514 111.004 120.514 111.004L126.277 111.004C126.277 111.004 130.277 119.754 130.027 122.004C129.777 124.254 138.973 124.754 141.5 127.254C144.027 129.754 148.041 135.754 152.277 135.754C156.514 135.754 174.514 128.282 174.514 128.282L190.514 117.282L202.514 112.282C202.514 112.282 212.527 110.782 215.514 112.282C218.5 113.782 221.527 123.282 225.514 123.282C229.5 123.282 240.777 117.282 244.514 117.282C248.25 117.282 251.777 128.282 255.514 128.282C259.25 128.282 279.5 121.032 279.514 123.282C279.527 125.532 268.639 132.184 267.514 135.282C266.389 138.38 297.014 158.004 298.514 156.762C300.014 155.521 298.514 135.282 298.514 135.282L311.514 128.282L335.514 128.282L347.514 123.282L361.514 123.282L375.514 135.282C375.514 135.282 373.777 143.032 375.514 145.282C377.25 147.532 392.514 140.282 392.514 140.282C392.514 140.282 396.027 145.282 398.514 145.282C401 145.282 408.514 135.282 408.514 135.282C408.514 135.282 430.027 145.282 433.514 145.282C437 145.282 452.514 123.282 452.514 123.282C452.514 123.282 469.764 117.129 471.514 117.282C471.514 117.282 477.027 121.782 481.514 123.282C486 124.782 525.5 128.782 530.514 128.282C535.527 127.782 545.764 123.379 549.514 123.282C553.264 123.184 562.514 128.282 562.514 128.282C562.514 128.282 567.527 138.282 569.514 140.282Z" fill="url(#paint0_linear_431_29605)"/>
</g>
<defs>
<linearGradient id="paint0_linear_431_29605" x1="-2.78953e-07" y1="133.719" x2="1440" y2="140.219" gradientUnits="userSpaceOnUse">
<stop stop-color="#FEFEFE" stop-opacity="0"/>
<stop offset="0.424738" stop-color="#FEFEFE" stop-opacity="0.584749"/>
<stop offset="1" stop-color="#FEFEFE" stop-opacity="0.84"/>
</linearGradient>
<clipPath id="clip0_431_29605">
<rect width="1440" height="188" fill="white" transform="translate(0.445312 0.0039978)"/>
</clipPath>
</defs>
</svg>
