<svg width="1480" height="198" viewBox="0 0 1480 198" fill="none" xmlns="http://www.w3.org/2000/svg">
<g filter="url(#filter0_d_1080_19935)">
<path d="M890.555 157.753C895.791 159.503 902.568 159.754 904.555 157.753C906.541 155.753 911.555 145.753 911.555 145.753C911.555 145.753 920.805 140.656 924.555 140.753C928.305 140.851 938.541 145.253 943.555 145.753C948.568 146.254 988.068 142.254 992.555 140.753C997.041 139.253 1002.55 134.753 1002.55 134.753C1004.3 134.601 1021.55 140.753 1021.55 140.753C1021.55 140.753 1037.07 162.753 1040.55 162.753C1044.04 162.753 1065.55 152.753 1065.55 152.753C1065.55 152.753 1073.07 162.753 1075.55 162.753C1078.04 162.753 1081.55 157.753 1081.55 157.753C1081.55 157.753 1096.82 165.004 1098.55 162.753C1100.29 160.503 1098.55 152.753 1098.55 152.753L1112.55 140.753L1126.55 140.753L1138.55 145.753L1162.55 145.753L1175.55 152.753C1175.55 152.753 1174.05 172.992 1175.55 174.234C1177.05 175.476 1205.68 159.851 1204.55 156.753C1203.43 153.655 1192.54 147.003 1192.55 144.753C1192.57 142.503 1212.82 149.753 1216.55 149.753C1220.29 149.753 1223.82 138.753 1227.55 138.753C1228.64 138.753 1230.08 145.711 1232.25 147.353C1233.05 147.353 1236.95 147.317 1242.49 147.353C1256.46 147.369 1280.1 147.244 1282.19 147.244C1282.76 147.369 1283.33 147.487 1283.88 147.603L1284.43 147.72C1285.63 147.974 1286.77 148.225 1287.8 148.4L1295.93 150.15L1305.71 160.259C1305.71 160.259 1319.45 166.072 1320.61 166.142C1321.78 166.212 1328.64 165.873 1328.12 163.935C1327.59 161.997 1322.02 154.509 1322.18 153.228C1322.33 151.947 1338.36 137.603 1339.36 136.416C1340.36 135.228 1338.18 131.541 1339.22 130.025C1340.27 128.509 1348.05 123.06 1350.05 123.373C1352.05 123.685 1353.21 128.837 1353.21 128.837L1358.94 128.837C1358.94 128.837 1360.15 131.686 1361.09 134.091C1361.57 135.322 1361.94 136.454 1362.12 136.993L1362.15 137.095C1362.35 137.698 1362.52 138.382 1362.64 139.005C1362.77 139.662 1362.65 139.777 1362.74 140.099C1362.83 140.434 1363.04 140.642 1363.36 140.884C1363.69 141.126 1372.35 143.65 1372.85 144.15C1373.35 144.65 1374.83 146.618 1376.69 148.462C1378.8 150.775 1381.41 152.431 1381.41 152.431L1383.9 153.494L1386.8 153.384L1407.55 146.009L1417.27 139.212L1423.41 135.176L1435.22 130.306C1435.22 130.306 1438.92 129.494 1442.32 129.494C1444.83 129.336 1446.43 129.571 1447.12 129.734L1447.19 129.75C1447.43 129.805 1447.81 129.893 1447.93 129.953C1448.06 130.019 1448.16 130.047 1448.58 130.312C1448.84 130.535 1449.18 130.742 1449.43 131.027C1451.52 133.664 1453.78 137.653 1454.38 138.347C1454.78 138.813 1455.7 140.094 1456.83 140.699C1457.88 141.324 1458.57 141.065 1459.16 141.043C1459.16 94.5814 1459.12 17.8384 1459.12 17.8384L20.5547 17.8384L20.5547 146.975L799.318 146.975L805.068 145.754L805.555 145.753C805.555 145.753 808.178 144.943 811.171 143.775C813.405 142.904 815.845 141.833 817.555 140.753C821.555 138.226 827.93 135.851 832.555 135.851C833.48 135.851 836.148 126.163 836.836 124.788C836.836 124.788 837.305 123.663 838.367 123.101C839.43 122.538 840.246 119.521 840.246 119.521C840.246 119.521 844.289 93.5875 846.828 72.3965C844.433 93.9282 843.008 110.336 846.492 120.288C846.684 120.836 846.874 121.336 847.072 121.819C847.3 122.378 847.54 122.915 847.805 123.476C850.939 130.117 858.166 134.495 860.18 135.851C871.193 143.654 887.387 156.96 890.555 157.753Z" fill="url(#paint0_linear_1080_19935)" shape-rendering="crispEdges"/>
</g>
<defs>
<filter id="filter0_d_1080_19935" x="0.554688" y="0.838379" width="1478.61" height="196.466" filterUnits="userSpaceOnUse" color-interpolation-filters="sRGB">
<feFlood flood-opacity="0" result="BackgroundImageFix"/>
<feColorMatrix in="SourceAlpha" type="matrix" values="0 0 0 0 0 0 0 0 0 0 0 0 0 0 0 0 0 0 127 0" result="hardAlpha"/>
<feOffset dy="3"/>
<feGaussianBlur stdDeviation="10"/>
<feComposite in2="hardAlpha" operator="out"/>
<feColorMatrix type="matrix" values="0 0 0 0 0.996078 0 0 0 0 0.996078 0 0 0 0 0.996078 0 0 0 0.3 0"/>
<feBlend mode="normal" in2="BackgroundImageFix" result="effect1_dropShadow_1080_19935"/>
<feBlend mode="normal" in="SourceGraphic" in2="effect1_dropShadow_1080_19935" result="shape"/>
</filter>
<linearGradient id="paint0_linear_1080_19935" x1="20.5547" y1="174.304" x2="1459.16" y2="174.304" gradientUnits="userSpaceOnUse">
<stop stop-color="#FEFEFE" stop-opacity="0.83"/>
<stop offset="0.429342" stop-color="#FEFEFE" stop-opacity="0.58"/>
<stop offset="1" stop-color="#FEFEFE" stop-opacity="0"/>
</linearGradient>
</defs>
</svg>
