<svg width="1480" height="198" viewBox="0 0 1480 198" fill="none" xmlns="http://www.w3.org/2000/svg">
<g filter="url(#filter0_d_1080_19931)">
<path d="M890.555 157.751C895.791 159.5 902.569 159.751 904.555 157.751C906.541 155.75 911.555 145.751 911.555 145.751C911.555 145.751 920.805 140.653 924.555 140.751C928.305 140.848 938.541 145.25 943.555 145.751C948.569 146.251 988.069 142.251 992.555 140.751C997.041 139.25 1002.55 134.751 1002.55 134.751C1004.3 134.598 1021.55 140.751 1021.55 140.751C1021.55 140.751 1037.07 162.751 1040.55 162.751C1044.04 162.751 1065.55 152.751 1065.55 152.751C1065.55 152.751 1073.07 162.751 1075.55 162.751C1078.04 162.751 1081.55 157.751 1081.55 157.751C1081.55 157.751 1096.82 165.001 1098.55 162.751C1100.29 160.5 1098.55 152.751 1098.55 152.751L1112.55 140.751L1126.55 140.751L1138.55 145.751L1162.55 145.751L1175.55 152.751C1175.55 152.751 1174.05 172.989 1175.55 174.231C1177.05 175.473 1205.68 159.849 1204.55 156.751C1203.43 153.653 1192.54 147.001 1192.55 144.751C1192.57 142.501 1212.82 149.751 1216.55 149.751C1220.29 149.751 1223.82 138.751 1227.55 138.751C1228.64 138.751 1230.08 145.708 1232.26 147.35C1233.05 147.35 1236.95 147.315 1242.49 147.35C1256.46 147.366 1280.11 147.241 1282.19 147.241C1282.76 147.366 1283.33 147.485 1283.88 147.601L1284.43 147.718C1285.63 147.972 1286.77 148.222 1287.8 148.397L1295.93 150.147L1305.71 160.257C1305.71 160.257 1319.45 166.069 1320.61 166.139C1321.78 166.21 1328.64 165.87 1328.12 163.932C1327.59 161.994 1322.02 154.507 1322.18 153.225C1322.33 151.944 1338.36 137.6 1339.36 136.413C1340.36 135.225 1338.18 131.538 1339.22 130.022C1340.27 128.507 1348.05 123.057 1350.05 123.37C1352.05 123.682 1353.21 128.835 1353.21 128.835L1358.94 128.835C1358.94 128.835 1360.15 131.683 1361.09 134.089C1361.57 135.319 1361.94 136.451 1362.12 136.99L1362.15 137.093C1362.35 137.695 1362.52 138.379 1362.64 139.003C1362.77 139.659 1362.65 139.775 1362.74 140.096C1362.83 140.431 1363.04 140.639 1363.36 140.882C1363.69 141.124 1372.35 143.647 1372.85 144.147C1373.35 144.647 1374.83 146.615 1376.69 148.46C1378.8 150.772 1381.41 152.428 1381.41 152.428L1383.9 153.491L1386.8 153.382L1407.55 146.007L1417.27 139.21L1423.41 135.173L1435.22 130.303C1435.22 130.303 1438.92 129.491 1442.32 129.491C1444.83 129.333 1446.43 129.568 1447.13 129.731L1447.19 129.747C1447.43 129.803 1447.81 129.89 1447.93 129.95C1448.06 130.017 1448.16 130.044 1448.58 130.31C1448.84 130.532 1449.18 130.739 1449.43 131.024C1451.52 133.661 1453.78 137.65 1454.38 138.345C1454.78 138.81 1455.7 140.091 1456.83 140.696C1457.88 141.321 1458.57 141.062 1459.16 141.04C1459.16 94.5787 1459.12 17.8357 1459.12 17.8357L20.5549 17.8357L20.5549 146.973L799.319 146.973L805.069 145.751L805.555 145.751C805.555 145.751 808.178 144.94 811.172 143.772C813.406 142.901 815.845 141.831 817.555 140.751C821.555 138.223 827.93 135.848 832.555 135.848C833.48 135.848 836.149 126.161 836.836 124.786C836.836 124.786 837.305 123.661 838.367 123.098C839.43 122.536 840.246 119.518 840.246 119.518C840.246 119.518 844.289 93.5848 846.828 72.3938C844.433 93.9255 843.009 110.333 846.492 120.286C846.684 120.833 846.874 121.333 847.072 121.817C847.301 122.376 847.54 122.912 847.805 123.473C850.94 130.115 858.167 134.492 860.18 135.848C871.193 143.652 887.388 156.957 890.555 157.751Z" fill="#FEFEFE"/>
</g>
<defs>
<filter id="filter0_d_1080_19931" x="0.554932" y="0.835693" width="1478.61" height="196.466" filterUnits="userSpaceOnUse" color-interpolation-filters="sRGB">
<feFlood flood-opacity="0" result="BackgroundImageFix"/>
<feColorMatrix in="SourceAlpha" type="matrix" values="0 0 0 0 0 0 0 0 0 0 0 0 0 0 0 0 0 0 127 0" result="hardAlpha"/>
<feOffset dy="3"/>
<feGaussianBlur stdDeviation="10"/>
<feComposite in2="hardAlpha" operator="out"/>
<feColorMatrix type="matrix" values="0 0 0 0 0.337255 0 0 0 0 0.470588 0 0 0 0 0.337255 0 0 0 1 0"/>
<feBlend mode="normal" in2="BackgroundImageFix" result="effect1_dropShadow_1080_19931"/>
<feBlend mode="normal" in="SourceGraphic" in2="effect1_dropShadow_1080_19931" result="shape"/>
</filter>
</defs>
</svg>
