<svg width="72" height="96" viewBox="0 0 72 96" fill="none" xmlns="http://www.w3.org/2000/svg">
<g clip-path="url(#clip0_431_29156)">
<rect width="71" height="96" transform="translate(0.5)" fill="white"/>
<path d="M16.5 16.5938C16.5 21.3399 20.3476 25.1875 25.0938 25.1875C29.8399 25.1875 33.6875 21.3399 33.6875 16.5938C33.6875 11.8476 29.8399 8 25.0938 8C20.3476 8 16.5 11.8476 16.5 16.5938Z" fill="#567856"/>
<path d="M36.4375 39.6562C20.6375 34.6562 16.5 22.0104 16.5 16.5938C18.6562 20 31 22.75 28.6875 24.4062C26.375 26.0625 25.0938 31.5 36.4375 39.6562Z" fill="#567856"/>
<path d="M36.4375 16.5938C36.4375 21.3399 40.2851 25.1875 45.0312 25.1875C49.7774 25.1875 53.625 21.3399 53.625 16.5938C53.625 11.8476 49.7774 8 45.0312 8C40.2851 8 36.4375 11.8476 36.4375 16.5938Z" fill="#567856"/>
<path d="M56.375 39.6562C40.575 34.6562 36.4375 22.0104 36.4375 16.5938C38.5938 20 50.9375 22.75 48.625 24.4062C46.3125 26.0625 45.0312 31.5 56.375 39.6562Z" fill="#567856"/>
<path d="M36.4375 61.5938C36.4375 66.3399 32.5899 70.1875 27.8438 70.1875C23.0976 70.1875 19.25 66.3399 19.25 61.5938C19.25 56.8476 23.0976 53 27.8438 53C32.5899 53 36.4375 56.8476 36.4375 61.5938Z" fill="#567856"/>
<path d="M16.5 84.6562C32.3 79.6562 36.4375 67.0104 36.4375 61.5938C34.2812 65 21.9375 67.75 24.25 69.4062C26.5625 71.0625 27.8438 76.5 16.5 84.6562Z" fill="#567856"/>
<path d="M56.375 61.5938C56.375 66.3399 52.5274 70.1875 47.7812 70.1875C43.0351 70.1875 39.1875 66.3399 39.1875 61.5938C39.1875 56.8476 43.0351 53 47.7812 53C52.5274 53 56.375 56.8476 56.375 61.5938Z" fill="#567856"/>
<path d="M36.4375 84.6562C52.2375 79.6562 56.375 67.0104 56.375 61.5938C54.2188 65 41.875 67.75 44.1875 69.4062C46.5 71.0625 47.7812 76.5 36.4375 84.6562Z" fill="#567856"/>
</g>
<defs>
<clipPath id="clip0_431_29156">
<rect width="71" height="96" fill="white" transform="translate(0.5)"/>
</clipPath>
</defs>
</svg>
