<?xml version="1.0" encoding="utf-8"?>
<svg width="40" height="32" viewBox="0 0 40 32" fill="inherit" xmlns="http://www.w3.org/2000/svg">
    <g transform="matrix(1, 0, 0, 1, -16.5, -53)">
        <path d="M36.4375 61.5938C36.4375 66.3399 32.5899 70.1875 27.8438 70.1875C23.0976 70.1875 19.25 66.3399 19.25 61.5938C19.25 56.8476 23.0976 53 27.8438 53C32.5899 53 36.4375 56.8476 36.4375 61.5938Z" fill="inherit" />
        <path d="M16.5 84.6562C32.3 79.6562 36.4375 67.0104 36.4375 61.5938C34.2812 65 21.9375 67.75 24.25 69.4062C26.5625 71.0625 27.8438 76.5 16.5 84.6562Z" fill="inherit" />
        <path d="M56.375 61.5938C56.375 66.3399 52.5274 70.1875 47.7812 70.1875C43.0351 70.1875 39.1875 66.3399 39.1875 61.5938C39.1875 56.8476 43.0351 53 47.7812 53C52.5274 53 56.375 56.8476 56.375 61.5938Z" fill="inherit" />
        <path d="M36.4375 84.6562C52.2375 79.6562 56.375 67.0104 56.375 61.5938C54.2188 65 41.875 67.75 44.1875 69.4062C46.5 71.0625 47.7812 76.5 36.4375 84.6562Z" fill="inherit" />
    </g>
</svg>
