<svg width="900" height="130" viewBox="0 0 900 130" fill="none" xmlns="http://www.w3.org/2000/svg">
    <g clip-path="url(#clip0_431_29297)">
        <g filter="url(#filter0_d_431_29297)">
            <path d="M22.3877 82.463L0.445529 82.463L0.445536 0.500003L900.571 0.5L900.571 82.463L284.138 83.6851L270.7 86.373L260.95 96.5605C260.95 96.5605 247.575 102.186 246.075 102.498C244.575 102.811 239.075 102.498 238.513 100.748C237.95 98.998 244.95 90.998 244.575 89.248C244.2 87.498 227.825 74.123 227.263 72.6855C226.7 71.248 228.325 67.1855 227.263 66.1855C226.2 65.1855 219.263 60.1855 216.95 59.8105C214.638 59.4355 213.388 65.1847 213.388 65.1847L207.624 65.1847C207.624 65.1847 203.624 73.9347 203.874 76.1847C204.124 78.4347 194.929 78.9347 192.402 81.4347C189.874 83.9347 185.861 89.9347 181.624 89.9347C177.388 89.9347 159.388 82.463 159.388 82.463L143.388 71.463L131.388 66.463C131.388 66.463 121.374 64.9627 118.388 66.463C115.402 67.9632 112.374 77.463 108.388 77.463C104.402 77.463 93.1243 71.463 89.388 71.463C85.6516 71.463 82.1243 82.463 78.388 82.463C74.6516 82.463 54.4013 75.213 54.3877 77.463C54.374 79.713 65.2628 86.365 66.3878 89.463C67.5128 92.561 36.8877 112.185 35.3877 110.944C33.8877 109.702 35.3877 89.463 35.3877 89.463L22.3877 82.463Z" fill="url(#gradient-mobile-dark)" />
        </g>
    </g>
    <defs>
        <filter id="filter0_d_431_29297" x="-19.5547" y="-16.5" height="150.5" filterUnits="userSpaceOnUse" color-interpolation-filters="sRGB">
            <feFlood flood-opacity="0" result="BackgroundImageFix" />
            <feColorMatrix in="SourceAlpha" type="matrix" values="0 0 0 0 0 0 0 0 0 0 0 0 0 0 0 0 0 0 127 0" result="hardAlpha" />
            <feOffset dy="3" />
            <feGaussianBlur stdDeviation="10" />
            <feComposite in2="hardAlpha" operator="out" />
            <feColorMatrix type="matrix" values="0 0 0 0 0.996078 0 0 0 0 0.996078 0 0 0 0 0.996078 0 0 0 0.5 0" />
            <feBlend mode="normal" in2="BackgroundImageFix" result="effect1_dropShadow_431_29297" />
            <feBlend mode="normal" in="SourceGraphic" in2="effect1_dropShadow_431_29297" result="shape" />
        </filter>
        <linearGradient gradientUnits="userSpaceOnUse" x1="0" y1="110." x2="320" y2="110.5" id="gradient-mobile-dark">
            <stop offset="0" style="stop-color: rgba(22, 22, 22, 0);"></stop>
            <stop offset="0.95" style="stop-color: rgb(22, 22, 22); stop-opacity: 0.95;"></stop>
            <stop offset="1" style="stop-color: rgb(22, 22, 22);"></stop>
          </linearGradient>
    </defs>
</svg>