<svg width="321" height="111" viewBox="0 0 321 111" fill="none" xmlns="http://www.w3.org/2000/svg">
<path d="M204.497 88.7917L192.201 82.2616L187.978 81.8564L170.289 81.8564C170.289 81.8564 168.918 79.55 167.827 80.0176C166.736 80.4851 165.066 81.13 161.749 82.1268C153.844 84.5021 141.8 89.1088 141.8 89.1088C141.8 89.1088 140.367 89.4748 139.369 89.4592C138.372 89.4436 137 89.3189 136.065 88.6488C135.13 87.9786 128.941 80.9259 127.899 80.3266C126.856 79.7272 123.691 78.8304 123.691 78.8304C123.691 78.8304 117.925 77.1161 117.488 76.6798C117.052 76.2434 116.99 73.781 116.802 73.2511C116.615 72.7213 113.623 64.7731 113.623 64.7731L107.701 64.7731C107.701 64.7731 106.704 59.4743 104.646 59.2873C102.589 59.1003 93.6125 65.9575 93.6125 65.9575L93.6125 72.0667C93.6125 72.0667 76.9993 87.5267 76.5941 88.2124C76.1889 88.8981 76.2824 89.5839 76.5941 90.2072C76.9057 90.8306 81.7058 97.4697 82.5162 98.997C83.3266 100.524 81.5811 101.366 80.7084 101.553C79.8357 101.74 74.8486 102.114 74.8486 102.114L60.199 96.2541L50.3495 86.0929L37.1337 83.2876L0.291506 82.1032L0.291514 0.182681L320.253 0.182678L320.292 59.5393L317.011 65.82L315.382 68.9603L313.847 72.1317L312.024 71.0408L300.008 65.9057C300.008 65.9057 295.263 65.368 293.283 65.368C291.304 65.368 288.429 65.7187 288.429 65.7187L287.384 66.2875L285.662 68.2667C285.662 68.2667 284.603 70.059 283.41 71.9915C283.053 72.5163 282.576 73.05 282.187 73.5655C282.187 73.5655 281.19 74.8435 280.706 75.4435C279.616 76.3864 278.766 77.002 277.964 77.0877C277.161 77.1734 275.486 76.7604 273.88 76.3084C269.197 74.5162 262.776 71.9291 259.644 71.0486C259.411 71.0169 258.483 71.0486 258.483 71.0486L257.283 71.6174C257.283 71.6174 256.2 72.8253 255.007 74.2902C254.385 75.2065 253.603 76.0801 252.888 77.0955C252.126 78.1759 251.524 79.3163 250.815 80.2514C249.906 81.316 248.57 81.9267 247.823 81.9267C244.697 81.9267 230.228 77.6098 225.459 76.8773C224.537 76.7356 223.808 76.6655 223.978 76.9647C224.148 77.2639 225.434 78.6837 226.83 79.9163C227.862 80.8277 229.575 82.5423 231.1 83.8996C233.501 86.0355 235.636 87.6541 235.854 88.4956C236.072 89.3372 235.759 90.481 234.981 91.3476C234.054 92.5088 232.478 93.4166 230.617 94.7295C229.597 95.4495 228.487 96.2811 227.313 97.114C223.062 100.226 217.875 103.585 213.552 106.231C211.254 107.539 209.136 108.651 207.614 109.441C206.009 110.174 205.136 110.709 204.716 110.361C203.822 109.621 204.155 103.301 204.248 97.6282C204.414 92.9348 204.497 88.7917 204.497 88.7917Z" fill="url(#paint0_linear_1080_20068)"/>
<defs>
<linearGradient id="paint0_linear_1080_20068" x1="0.291504" y1="42.3959" x2="320.292" y2="42.3959" gradientUnits="userSpaceOnUse">
<stop stop-color="#FEFEFE" stop-opacity="0"/>
<stop offset="0.627262" stop-color="#FEFEFE" stop-opacity="0.58"/>
<stop offset="1" stop-color="#FEFEFE" stop-opacity="0.83"/>
</linearGradient>
</defs>
</svg>
