<svg width="361" height="151" viewBox="0 0 361 151" fill="none" xmlns="http://www.w3.org/2000/svg">
<g filter="url(#filter0_d_1080_20064)">
<path d="M224.889 105.92L212.86 99.3825L208.782 99.0236L190.641 99.0236C190.641 99.0236 189.699 96.5451 188.607 97.0132C187.515 97.4812 185.843 98.1269 182.522 99.1248C174.608 101.503 162.551 106.115 162.551 106.115C162.551 106.115 161.115 106.481 160.117 106.466C159.118 106.45 157.745 106.325 156.809 105.654C155.873 104.983 149.677 97.9226 148.633 97.3225C147.59 96.7224 144.42 95.8246 144.42 95.8246C144.42 95.8246 138.647 94.1084 138.211 93.6715C137.774 93.2346 137.711 90.7694 137.524 90.2389C137.337 89.7084 134.341 81.7511 134.341 81.7511L128.412 81.7511C128.412 81.7511 127.414 76.4462 125.354 76.259C123.295 76.0718 114.307 82.9369 114.307 82.9369L114.307 89.0531C114.307 89.0531 97.6751 104.531 97.2694 105.217C96.8637 105.904 96.9573 106.59 97.2694 107.215C97.5814 107.839 102.387 114.485 103.198 116.014C104.01 117.543 102.262 118.386 101.388 118.573C100.515 118.76 95.5219 119.135 95.5219 119.135L80.8553 113.268L70.9945 103.095L57.7635 100.287L20.8789 99.1012L20.8789 17.0864L340.879 17.0864L340.879 76.6807L337.774 82.6097L336.136 85.855L334.466 89.2876L332.625 88.1642L320.674 82.9842C320.674 82.9842 316.461 82.5473 314.152 82.4693C311.842 82.3913 308.987 82.885 308.987 82.885L307.989 83.3586L306.272 85.387C306.272 85.387 305.18 86.9784 304.275 88.7103C303.917 89.2357 303.369 89.9261 302.98 90.4422C302.98 90.4422 301.826 91.9166 301.342 92.5174C300.25 93.4613 299.674 93.9941 298.871 94.0799C298.067 94.1657 296.318 93.8904 294.711 93.4379C290.022 91.6436 283.352 89.0458 280.216 88.1642C279.983 88.1325 278.999 88.1642 278.999 88.1642L277.813 88.7727C277.813 88.7727 276.947 89.7557 275.754 91.2223C275.13 92.1397 274.348 93.0142 273.632 94.0308C272.869 95.1125 272.196 96.1216 271.588 97.1669C270.678 98.2328 269.443 98.9245 268.695 98.9245C265.565 98.9245 250.992 94.7017 246.218 93.9684C245.295 93.8266 244.332 93.7781 244.502 94.0776C244.672 94.3771 245.959 95.7613 247.357 96.9953C248.39 97.9077 250.136 99.5839 251.663 100.943C254.066 103.081 256.157 104.656 256.375 105.499C256.594 106.341 256.375 106.95 255.923 107.948C255.065 109.212 253.261 110.363 251.398 111.677C250.376 112.398 249.234 113.277 248.059 114.111C243.803 117.227 238.688 120.543 234.36 123.192C232.059 124.501 229.877 125.725 228.353 126.515C226.746 127.249 225.466 127.613 225.045 127.264C224.151 126.524 224.686 120.259 224.78 114.579C224.946 109.881 224.889 105.92 224.889 105.92Z" fill="#FEFEFE"/>
</g>
<defs>
<filter id="filter0_d_1080_20064" x="0.878906" y="0.0863876" width="360" height="150.311" filterUnits="userSpaceOnUse" color-interpolation-filters="sRGB">
<feFlood flood-opacity="0" result="BackgroundImageFix"/>
<feColorMatrix in="SourceAlpha" type="matrix" values="0 0 0 0 0 0 0 0 0 0 0 0 0 0 0 0 0 0 127 0" result="hardAlpha"/>
<feOffset dy="3"/>
<feGaussianBlur stdDeviation="10"/>
<feComposite in2="hardAlpha" operator="out"/>
<feColorMatrix type="matrix" values="0 0 0 0 0.337255 0 0 0 0 0.470588 0 0 0 0 0.337255 0 0 0 1 0"/>
<feBlend mode="normal" in2="BackgroundImageFix" result="effect1_dropShadow_1080_20064"/>
<feBlend mode="normal" in="SourceGraphic" in2="effect1_dropShadow_1080_20064" result="shape"/>
</filter>
</defs>
</svg>
