<svg width="900" height="151" viewBox="0 0 900 151" fill="none" xmlns="http://www.w3.org/2000/svg" xmlns:bx="https://boxy-svg.com">
    <g filter="url(#filter0_d_2504_66194)" transform="matrix(1, 0, 0, 1, 559.146973, -17.3118)">
        <path d="M 333.137 96.336 C 335.24 97.392 337.371 104.082 340.178 104.082 L 340.853 103.952 L 340.853 17.312 L -559.147 17.312 L -559.147 103.846 L 22.225 104.081 C 22.225 104.081 33.149 119.573 35.604 119.573 C 38.059 119.573 53.208 112.531 53.208 112.531 C 53.208 112.531 58.499 119.573 60.25 119.573 C 62.001 119.573 64.475 116.052 64.475 116.052 C 64.475 116.052 75.223 121.157 76.446 119.573 C 77.669 117.988 76.446 112.531 76.446 112.531 L 86.304 104.081 L 96.163 104.081 L 104.613 107.602 L 121.512 107.602 L 130.667 112.531 C 130.667 112.531 129.61 126.782 130.667 127.657 C 131.723 128.531 153.288 114.713 152.496 112.531 C 151.704 110.35 144.036 105.665 144.046 104.081 C 144.055 102.497 158.315 107.602 160.946 107.602 C 163.577 107.602 166.061 99.856 168.692 99.856 L 181.379 108.463 L 216.421 108.463 L 225.884 110.356 L 232.749 117.53 C 232.749 117.53 242.167 121.491 243.224 121.711 C 244.28 121.931 248.153 121.711 248.549 120.478 C 248.945 119.246 244.016 113.613 244.28 112.38 C 244.544 111.148 256.075 101.73 256.471 100.718 C 256.867 99.705 255.723 96.845 256.471 96.141 C 257.219 95.436 262.104 91.916 263.733 91.652 C 265.361 91.388 266.241 95.436 266.241 95.436 L 270.3 95.436 C 270.3 95.436 273.116 101.597 272.94 103.182 C 272.764 104.766 279.239 105.118 281.019 106.879 C 282.799 108.639 285.625 112.864 288.608 112.864 C 291.591 112.864 304.266 107.603 304.266 107.603 L 315.533 99.857 L 323.983 96.336 C 323.983 96.336 331.034 95.28 333.137 96.336 Z" fill="url(#gradient-mobile-light-rtl)"></path>
    </g>
    <defs>
        <filter id="filter0_d_2504_66194" x="-559.146973" y="0.311768" width="900" height="150.311" filterUnits="userSpaceOnUse" color-interpolation-filters="sRGB">
            <feFlood flood-opacity="0" result="BackgroundImageFix"></feFlood>
            <feColorMatrix in="SourceAlpha" type="matrix" values="0 0 0 0 0 0 0 0 0 0 0 0 0 0 0 0 0 0 127 0" result="hardAlpha"></feColorMatrix>
            <feOffset dy="3"></feOffset>
            <feGaussianBlur stdDeviation="10"></feGaussianBlur>
            <feComposite in2="hardAlpha" operator="out"></feComposite>
            <feColorMatrix type="matrix" values="0 0 0 0 0.337255 0 0 0 0 0.470588 0 0 0 0 0.337255 0 0 0 0.6 0"></feColorMatrix>
            <feBlend mode="normal" in2="BackgroundImageFix" result="effect1_dropShadow_2504_66194"></feBlend>
            <feBlend mode="normal" in="SourceGraphic" in2="effect1_dropShadow_2504_66194" result="shape"></feBlend>
        </filter>
        <linearGradient gradientUnits="userSpaceOnUse" x1="-559" y1="110." x2="350" y2="110.5" id="gradient-mobile-light-rtl">
            <stop offset="0.65" style="stop-color: rgb(255, 255, 255); stop-opacity: 1;"></stop>
            <stop offset="0.75" style="stop-color: rgb(255, 255, 255); stop-opacity: 0.35;"></stop>
            <stop offset="0.9" style="stop-color: rgb(255, 255, 255); stop-opacity: 0.25;"></stop>
            <stop offset="1" style="stop-color: rgb(255, 255, 255, 0);"></stop>
        </linearGradient>
    </defs>
</svg>
