<svg width="900" height="151" viewBox="0 0 900 151" fill="none" xmlns="http://www.w3.org/2000/svg" xmlns:bx="https://boxy-svg.com">
    <g filter="url(#filter0_d_1080_20064)" transform="matrix(1, 0, 0, 1, 559.121033, -17.086399)">
        <path d="M 224.889 105.92 L 212.86 99.383 L 208.782 99.024 L 190.641 99.024 C 190.641 99.024 189.699 96.545 188.607 97.013 C 187.515 97.481 185.843 98.127 182.522 99.125 C 174.608 101.503 162.551 106.115 162.551 106.115 C 162.551 106.115 161.115 106.481 160.117 106.466 C 159.118 106.45 157.745 106.325 156.809 105.654 C 155.873 104.983 149.677 97.923 148.633 97.323 C 147.59 96.722 144.42 95.825 144.42 95.825 C 144.42 95.825 138.647 94.108 138.211 93.672 C 137.774 93.235 137.711 90.769 137.524 90.239 C 137.337 89.708 134.341 81.751 134.341 81.751 L 128.412 81.751 C 128.412 81.751 127.414 76.446 125.354 76.259 C 123.295 76.072 114.307 82.937 114.307 82.937 L 114.307 89.053 C 114.307 89.053 97.675 104.531 97.269 105.217 C 96.864 105.904 96.957 106.59 97.269 107.215 C 97.581 107.839 102.387 114.485 103.198 116.014 C 104.01 117.543 102.262 118.386 101.388 118.573 C 100.515 118.76 95.522 119.135 95.522 119.135 L 80.855 113.268 L 70.995 103.095 L 57.764 100.287 L -559.121 101.055 L -559.121 17.086 L 340.879 17.086 L 340.879 76.681 L 337.774 82.61 L 336.136 85.855 L 334.466 89.288 L 332.625 88.164 L 320.674 82.984 C 320.674 82.984 316.461 82.547 314.152 82.469 C 311.842 82.391 308.987 82.885 308.987 82.885 L 307.989 83.359 L 306.272 85.387 C 306.272 85.387 305.18 86.978 304.275 88.71 C 303.917 89.236 303.369 89.926 302.98 90.442 C 302.98 90.442 301.826 91.917 301.342 92.517 C 300.25 93.461 299.674 93.994 298.871 94.08 C 298.067 94.166 296.318 93.89 294.711 93.438 C 290.022 91.644 283.352 89.046 280.216 88.164 C 279.983 88.133 278.999 88.164 278.999 88.164 L 277.813 88.773 C 277.813 88.773 276.947 89.756 275.754 91.222 C 275.13 92.14 274.348 93.014 273.632 94.031 C 272.869 95.113 272.196 96.122 271.588 97.167 C 270.678 98.233 269.443 98.925 268.695 98.925 C 265.565 98.925 250.992 94.702 246.218 93.968 C 245.295 93.827 244.332 93.778 244.502 94.078 C 244.672 94.377 245.959 95.761 247.357 96.995 C 248.39 97.908 250.136 99.584 251.663 100.943 C 254.066 103.081 256.157 104.656 256.375 105.499 C 256.594 106.341 256.375 106.95 255.923 107.948 C 255.065 109.212 253.261 110.363 251.398 111.677 C 250.376 112.398 249.234 113.277 248.059 114.111 C 243.803 117.227 238.688 120.543 234.36 123.192 C 232.059 124.501 229.877 125.725 228.353 126.515 C 226.746 127.249 225.466 127.613 225.045 127.264 C 224.151 126.524 224.686 120.259 224.78 114.579 C 224.946 109.881 224.889 105.92 224.889 105.92 Z" fill="url(#gradient-mobile-light-rtl)"></path>
    </g>
    <defs>
        <filter id="filter0_d_1080_20064" y="0.0863876" width="900" height="150.311" filterUnits="userSpaceOnUse" color-interpolation-filters="sRGB" x="-559.1210">
            <feFlood flood-opacity="0" result="BackgroundImageFix"></feFlood>
            <feColorMatrix in="SourceAlpha" type="matrix" values="0 0 0 0 0 0 0 0 0 0 0 0 0 0 0 0 0 0 127 0" result="hardAlpha"></feColorMatrix>
            <feOffset dy="3"></feOffset>
            <feGaussianBlur stdDeviation="10"></feGaussianBlur>
            <feComposite in2="hardAlpha" operator="out"></feComposite>
            <feColorMatrix type="matrix" values="0 0 0 0 0.337255 0 0 0 0 0.470588 0 0 0 0 0.337255 0 0 0 0.6 0"></feColorMatrix>
            <feBlend mode="normal" in2="BackgroundImageFix" result="effect1_dropShadow_431_29303"></feBlend>
            <feBlend mode="normal" in="SourceGraphic" in2="effect1_dropShadow_431_29303" result="shape"></feBlend>
        </filter>
        <linearGradient gradientUnits="userSpaceOnUse" x1="-559" y1="110." x2="350" y2="110.5" id="gradient-mobile-light-rtl">
            <stop offset="0" style="stop-color: rgba(255, 255, 255); stop-opacity: 1;"></stop>
            <stop offset="0.6" style="stop-color: rgb(255, 255, 255); stop-opacity: 1;"></stop>
            <stop offset="0.66" style="stop-color: rgb(255, 255, 255); stop-opacity: 0.8;"></stop>
            <stop offset="0.75" style="stop-color: rgb(255, 255, 255); stop-opacity: 0.67;"></stop>
            <stop offset="0.9" style="stop-color: rgb(255, 255, 255); stop-opacity: 0.25;"></stop>
            <stop offset="1" style="stop-color: rgb(255, 255, 255, 0);"></stop>
        </linearGradient>
    </defs>
</svg>
