<?xml version="1.0" encoding="UTF-8" standalone="no"?>

<svg version="1.1" x="0px" y="0px" viewBox="0 0 600.09827 299.5" xmlns="http://www.w3.org/2000/svg" xmlns:svg="http://www.w3.org/2000/svg" id="jts-logo">
   <g id="g14">
      <path fill="inherit" id="svg_1" class="st0" d="M 600.098 195.2 C 600.098 178.8 592.698 169.2 568.398 158.4 C 553.098 151.6 546.898 146.5 546.898 138.6 C 546.898 130.7 553.098 123.3 566.198 123.3 C 574.698 123.3 584.298 127.3 591.098 131.8 L 597.898 113.1 C 590.498 108 578.598 104 566.798 104 C 540.798 104 525.998 120.4 525.998 138.5 C 525.998 153.2 533.898 164.5 555.398 173.6 C 575.198 182.1 578.598 187.2 578.598 195.7 C 578.598 204.2 572.898 212.1 559.898 212.1 C 549.098 212.1 537.298 207.6 527.598 200.8 L 520.198 219.5 C 530.998 226.9 545.098 231.4 558.698 231.4 C 584.798 232 600.098 215 600.098 195.2 M 514.598 125.6 L 514.598 106.3 L 414.898 106.3 L 414.898 125.6 L 453.998 125.6 L 453.998 229.8 L 474.898 229.8 L 474.898 125.6 Z M 398.498 106.3 L 377.598 106.3 L 377.598 189 C 377.598 204.9 371.898 212.8 358.898 212.8 C 350.998 212.8 342.998 210 336.798 206 L 328.898 223 C 337.998 228.7 346.998 231.5 358.898 231.5 C 386.598 231.5 398.498 214.5 398.498 189.6 Z M 37.2983 145.9 C 53.1983 156.7 92.7983 147 90.4983 177 C 94.4983 180.4 101.298 181.5 106.398 183.8 C 102.998 167.9 91.0983 152.7 75.7983 144.7 C 70.6983 141.9 63.2983 138.5 58.1983 138.5 C 53.0983 138.5 50.7983 141.3 44.5983 140.8 C 18.5983 138 18.5983 88.7 37.7983 78.5 C 32.0983 107.9 65.4983 106.8 60.3983 134 C 66.0983 136.8 72.8983 138 78.4983 140.8 C 79.5983 130 70.5983 122.1 66.5983 114.2 C 65.4983 111.9 64.8983 108.5 63.1983 106.8 C 60.8983 104.5 56.9983 105.1 55.2983 104 C 50.1983 101.2 46.7983 94.9 45.6983 88.1 C 43.3983 68.3 61.5983 51.9 73.9983 41.7 C 71.6983 49.1 69.4983 53 69.4983 61 C 69.4983 74 84.1983 87.6 74.5983 101.2 C 72.8983 103.5 70.5983 104 67.7983 106.3 C 69.4983 112 72.8983 115.4 76.2983 118.8 C 78.5983 116.5 77.9983 114.3 79.6983 112 C 82.4983 106.9 88.7983 102.9 89.2983 97.8 C 90.3983 91.6 84.7983 85.3 88.1983 78 C 82.4983 73.5 77.9983 69.5 78.5983 58.2 C 80.2983 35 108.598 18.6 125.598 11.2 C 122.798 19.1 117.698 19.1 113.098 28.2 C 106.898 40.1 112.498 58.2 106.298 68.4 C 103.498 73.5 98.3983 75.8 92.0983 77.5 C 90.3983 82.6 91.4983 89.4 93.1983 93.4 C 102.798 83.8 114.698 77 121.498 64.5 C 105.098 37.3 138.498 21.5 144.098 2.84217e-14 C 157.698 19.3 158.798 58.3 136.198 66.2 C 133.398 67.3 129.398 66.2 125.998 67.9 C 123.698 68.5 115.198 79.2 112.998 81.5 C 107.898 86.6 103.898 90.6 99.9983 94.5 C 91.4983 103 79.0983 113.8 79.5983 127.3 C 79.5983 130.1 81.8983 134.1 82.9983 137.5 C 83.5983 140.3 82.9983 142.6 84.0983 144.3 C 85.7983 148.8 91.4983 150.5 94.2983 153.4 C 94.2983 147.7 98.2983 143.2 97.6983 138.1 C 97.0983 133.6 93.1983 131.3 92.5983 127.3 C 89.1983 106.9 111.298 93.9 122.598 86 C 125.998 83.7 128.798 80.9 131.698 78.6 C 132.298 78.6 133.398 76.3 133.998 77.5 C 123.198 97.3 132.898 138.1 102.898 139.2 C 98.3983 148.3 99.4983 163 105.698 169.8 C 111.398 146 128.298 133 139.698 114.9 C 126.098 89.4 153.898 75.8 156.098 53.7 C 166.898 70.7 168.598 113.7 144.198 116.5 C 133.398 135.2 113.098 149.3 110.798 174.3 C 109.698 189 120.398 193 128.398 199.8 C 134.098 204.3 136.898 210 140.898 215.1 C 141.998 207.7 140.898 199.8 138.098 194.7 C 133.598 193.6 129.598 193 126.798 190.7 C 107.498 174.8 131.898 142 142.698 131.2 C 142.698 134 140.998 136.9 140.998 140.3 C 139.898 157.9 162.498 179.9 142.698 192.4 C 144.998 198.6 147.798 204.9 148.398 212.8 C 159.698 205.4 165.398 184.5 162.598 164.7 C 155.198 160.2 150.098 153.4 150.098 143.2 C 150.098 127.9 160.298 115.5 167.698 109.2 C 167.098 128.5 186.998 150 168.298 163.6 C 169.998 174.4 168.898 185.7 167.198 195.3 C 171.698 194.2 176.798 189.6 181.898 187.9 C 184.698 165.8 215.298 161.9 237.998 167.5 C 224.398 173.2 214.198 190.7 199.498 195.8 C 194.398 197.5 186.998 195.8 183.098 192.4 C 167.198 200.3 153.098 210.5 151.998 233.2 C 154.798 233.8 156.498 229.8 158.798 228.1 C 161.098 226.4 164.498 225.8 166.698 224.1 C 166.698 206 184.798 206.5 200.698 202.6 C 209.798 200.3 215.398 196.4 220.498 192.4 C 212.598 206 201.198 232.6 181.998 233.7 C 175.198 234.3 172.898 230.9 167.798 228.6 C 156.998 232 150.798 242.8 152.498 256.9 C 162.698 250.7 176.298 247.3 187.598 241.6 C 194.998 237.6 202.298 233.7 208.498 227.4 C 220.398 216.1 226.598 200.2 239.098 187.2 C 235.698 168.5 251.598 166.3 266.298 162.3 C 276.498 159.5 283.298 154.9 288.398 148.7 C 288.998 173 269.098 198.5 243.698 190 C 233.498 196.2 228.398 208.7 222.198 218.9 C 227.898 218.3 232.998 216.1 238.598 215.5 C 244.298 192.3 282.798 202.5 290.698 181.5 C 290.098 194 285.598 203.6 278.798 212.1 C 273.098 218.9 257.898 233 244.798 226.3 C 242.498 225.2 241.398 221.8 237.998 220.6 C 228.398 218.3 214.198 228.5 209.698 233.1 C 202.298 240.5 194.998 245 185.898 250.1 C 190.398 252.4 195.498 252.9 200.098 255.2 C 204.098 247.3 210.298 238.8 221.598 237.6 C 231.198 236.5 241.998 238.7 252.198 238.2 C 265.198 237.1 271.998 230.8 279.898 226.3 C 271.398 245 253.298 273.3 228.398 275.6 C 218.798 276.7 209.098 273.9 204.098 268.2 C 202.398 265.9 202.398 262.5 200.098 260.3 C 196.098 256.3 185.398 254.1 180.298 254.1 C 167.298 254.1 155.398 265.4 157.098 279.6 C 158.198 288.7 163.898 293.8 171.298 298.9 C 155.998 299.5 137.298 299.5 121.998 299.5 C 142.398 289.3 138.398 255.3 112.398 255.3 C 104.498 255.3 98.1983 258.1 92.5983 261 C 88.5983 270.6 80.0983 277.4 65.9983 276.3 C 37.8983 274.5 21.3983 246.7 12.3983 226.9 C 14.0983 226.9 15.1983 228.6 16.3983 229.2 C 21.4983 233.2 28.2983 237.7 38.9983 238.8 C 48.0983 239.4 56.5983 237.1 64.4983 237.7 C 77.4983 238.8 87.0983 244.5 90.4983 256.4 C 95.5983 254.7 100.698 253.6 104.698 250.7 C 89.9983 245.6 82.0983 231.4 67.2983 225.2 C 62.7983 222.9 55.9983 220.1 50.2983 221.2 C 46.8983 222.3 45.1983 226.3 42.8983 227.4 C 32.6983 232.5 21.3983 225.1 15.6983 219.5 C 6.0983 209.9 -1.9017 191.8 0.3983 169.7 C 3.7983 175.4 5.4983 179.9 9.4983 184.4 C 19.6983 195.2 40.5983 196.3 47.3983 209.9 C 48.4983 212.2 47.9983 215 50.1983 216.7 C 54.6983 217.3 59.2983 217.3 62.6983 218.4 C 61.5983 213.3 57.5983 209.9 54.1983 205.4 C 51.3983 200.9 49.6983 195.2 45.6983 191.2 C 22.4983 196.3 6.5983 173.1 4.8983 152.1 C 3.7983 137.4 9.3983 122.7 15.6983 111.3 C 15.6983 127.7 22.4983 139.6 30.9983 150.4 C 37.1983 157.8 48.5983 167.4 49.6983 178.1 C 50.2983 180.9 48.5983 183.8 48.5983 186.6 C 49.1983 194.5 58.7983 204.7 63.8983 210.9 C 75.7983 226.2 88.7983 238.6 108.098 246 C 117.698 249.4 128.498 251.1 136.398 257.9 C 139.198 250 136.998 242 131.898 235.8 C 129.598 233 125.098 227.9 122.298 227.9 C 118.898 227.9 115.498 231.9 113.198 232.4 C 110.898 233 107.498 232.4 105.798 232.4 C 81.9983 230.1 76.8983 203.5 63.2983 188.8 C 82.5983 199 122.198 192.8 123.298 222.2 C 128.998 225 133.498 229.6 139.198 233 C 138.098 210.9 124.498 200.7 110.298 191.7 C 105.798 188.9 95.5983 180.9 89.8983 181.5 C 86.4983 182.1 83.6983 186 78.5983 186 C 70.6983 186.6 64.3983 181.5 60.4983 176.4 C 52.5983 168.6 47.4983 155 37.2983 145.9 M 195.298 24.8 C 181.098 29.9 203.798 37.3 207.198 41.2 C 217.398 54.2 193.598 58.2 194.198 68.9 C 194.198 73.4 200.398 76.3 203.798 80.8 C 211.698 91.6 215.098 108.5 208.898 126.1 C 223.098 122.7 230.398 105.2 223.598 89.9 C 220.798 83.1 213.998 79.7 213.398 72.3 C 211.698 55.9 236.598 55.9 243.998 66.1 C 228.698 67.2 240.598 78.6 243.998 84.8 C 247.398 91 248.498 101.2 245.098 109.1 C 236.598 127.2 207.698 124.4 201.498 146.5 C 205.498 147.1 208.298 145.4 212.798 145.4 C 223.598 145.4 234.298 149.4 241.098 143.1 C 245.598 139.1 246.198 128.9 247.898 121 C 250.198 108 255.798 95.5 272.198 99.5 C 260.898 104.6 272.198 114.2 274.998 121 C 283.498 140.8 268.198 157.2 248.998 157.2 C 237.698 157.2 226.898 151.5 215.598 152.7 C 201.398 154.4 187.898 164.6 180.498 173.1 C 179.398 174.2 177.698 177.6 177.098 176.5 C 185.598 164.6 193.498 152.7 193.498 137.4 C 193.498 116.5 174.198 106.3 173.698 87.6 C 173.698 85.9 173.698 84.2 174.298 83.1 C 175.998 76.3 183.398 71.8 183.398 66.1 C 183.398 56.5 166.998 51.4 165.798 38.9 C 164.098 26.5 181.698 18 195.298 24.8" />
   </g>
</svg>
