<svg id="pgl-logo" viewBox="0 0 1429 1654" fill="inherit" xmlns="http://www.w3.org/2000/svg">
    <!-- Emblem -->
    <path d="M1396.4 863.22C1396.4 486.231 1089.72 179.483 712.824 179.483C335.925 179.483 29.2523 486.153 29.2523 863.22C29.2523 1240.29 335.925 1546.96 712.824 1546.96C1089.72 1546.96 1396.4 1240.21 1396.4 863.22ZM1227.29 1272.92C1230.17 1240.29 1218.65 1206.65 1193.74 1181.65C1192.8 1180.71 1191.79 1179.7 1190.86 1178.77C1210.09 1139.36 1205.26 1091.31 1178.4 1056.74C1221.61 1050.98 1259.06 1021.23 1273.46 978.942H1277.28C1312.78 978.942 1344.47 962.588 1365.56 937.668C1352.1 1063.51 1302.19 1178.85 1227.37 1273L1227.29 1272.92ZM1371.25 862.675C1370.31 914.539 1329.05 955.891 1278.13 955.891C1275.25 955.891 1271.44 955.891 1266.61 954.956L1256.02 954.022L1253.14 963.6C1242.55 1003.94 1207.05 1032.75 1165.79 1033.77C1168.67 1016.48 1163.84 997.242 1152.32 979.954C1138.85 957.838 1115.88 939.615 1088.01 928.09C1082.25 926.143 1076.49 924.274 1071.66 922.327C1075.47 903.092 1086.06 884.869 1101.4 871.397L1110.98 862.753L1101.4 854.109C1086.06 840.637 1075.47 823.349 1071.66 803.179C1077.42 801.232 1083.18 799.363 1088.01 797.417C1115.88 785.891 1137.92 767.669 1152.32 745.552C1163.84 727.33 1167.66 709.029 1165.79 691.741C1207.05 692.675 1242.55 721.489 1253.14 761.906L1256.02 771.484L1266.61 770.55C1270.43 770.55 1274.32 769.615 1278.13 769.615C1328.97 769.615 1370.31 810.889 1371.25 861.819V862.753V862.675ZM756.968 991.479C758.914 990.545 760.783 988.598 762.729 988.598C764.676 987.664 767.556 986.651 769.425 986.651C787.643 1028.94 816.449 1075.04 826.026 1084.62C827.972 1086.56 830.853 1089.45 834.668 1091.31C818.318 1099.96 801.034 1107.67 783.828 1112.42C785.774 1107.59 785.774 1103.77 785.774 1100.89C786.709 1087.42 775.186 1034.62 756.968 991.402V991.479ZM766.544 1201.9C746.379 1205.71 727.227 1215.37 711.812 1229.78C696.474 1215.37 677.244 1205.79 657.079 1201.9C659.026 1187.49 658.014 1173.08 655.133 1159.61C653.186 1151.9 650.306 1145.2 647.425 1138.51C668.524 1143.33 689.623 1146.22 711.734 1146.22C733.845 1146.22 755.878 1143.33 776.042 1138.51C767.4 1156.73 763.586 1178.85 766.466 1201.9H766.544ZM638.861 1112.5C620.643 1106.73 604.293 1100.04 588.021 1091.39C591.836 1089.45 595.729 1085.63 596.663 1084.7C606.24 1075.12 635.046 1029.95 653.264 986.729C655.211 986.729 658.091 987.664 659.96 988.676C661.906 989.61 663.775 990.623 665.721 991.557C648.437 1033.84 636.915 1086.64 636.915 1101.05C636.915 1103 636.915 1107.75 638.861 1112.57V1112.5ZM665.799 733.949C663.853 734.883 661.984 736.83 660.038 736.83C658.091 737.765 655.211 738.777 653.342 738.777C651.396 733.949 649.527 729.199 646.647 723.436C630.297 688.86 609.198 653.271 596.741 640.811C594.795 638.864 591.914 635.983 588.099 634.114C604.449 625.47 621.655 617.76 638.939 613.01C636.993 617.838 636.993 621.654 636.993 624.535C636.993 638.942 648.515 691.819 665.799 734.027V733.949ZM657.157 524.545C677.322 520.729 696.474 511.072 711.89 496.666C727.227 511.072 746.457 520.651 766.622 524.545C763.741 547.596 767.556 570.646 776.198 587.934C755.099 583.106 734.001 580.225 711.89 580.225C689.779 580.225 667.745 583.106 647.581 587.934C650.462 581.237 653.342 574.462 655.289 566.831C658.169 553.358 659.103 538.951 657.235 524.545H657.157ZM784.762 613.867C802.98 618.695 819.33 626.327 835.602 634.971C831.787 636.917 827.894 640.733 826.96 641.668C817.384 651.246 788.577 696.413 770.359 739.634C768.413 739.634 765.532 738.699 763.663 737.687C761.717 736.752 759.848 735.74 757.902 734.805C775.186 691.585 786.709 639.721 786.709 625.314C786.709 623.367 786.709 618.617 784.762 613.789V613.867ZM987.342 798.351C994.038 801.232 1000.81 804.114 1008.44 806.061C1017.08 808.007 1025.73 808.942 1035.3 808.942C1040.13 808.942 1045.89 808.942 1050.64 808.007C1054.45 828.177 1064.11 847.412 1078.51 862.753C1064.11 878.094 1054.53 897.329 1050.64 917.499C1036.24 915.552 1021.83 916.564 1008.44 919.446C1000.73 921.393 994.038 924.274 987.342 927.155C992.169 906.051 995.05 884.869 995.05 862.753C995.05 840.637 992.169 818.598 987.342 798.351ZM1047.76 784.879C1036.24 786.826 1023.78 785.813 1013.19 782.932C993.96 778.104 979.635 768.525 973.873 754.118C968.112 739.712 970.059 722.423 980.569 706.07C986.33 697.426 994.038 688.782 1002.68 681.072L1003.61 680.138C1009.38 675.309 1017.08 670.559 1023.78 666.665C1026.66 664.719 1029.54 663.784 1033.36 662.85C1048.69 656.152 1065.04 653.271 1079.45 653.271C1087.15 653.271 1093.85 654.206 1100.54 656.152C1114.01 659.034 1124.52 664.796 1131.3 672.506C1135.11 676.322 1137.06 680.216 1139 684.966C1140.95 689.794 1141.89 694.544 1141.89 699.373C1141.89 709.964 1139 721.489 1131.3 733.014C1119.77 751.237 1101.56 766.656 1078.51 775.3C1075.63 776.235 1071.82 778.182 1068.94 779.116C1063.17 781.997 1055.47 783.944 1047.84 784.879H1047.76ZM711.812 1079.87C693.593 1079.87 677.244 1088.51 665.721 1095.21C663.775 1096.14 661.906 1097.15 660.894 1098.09C661.828 1084.62 669.536 1052.92 681.059 1020.29C681.993 1018.35 681.993 1016.48 683.005 1014.53C691.647 1039.53 703.17 1044.28 712.746 1044.28C721.388 1044.28 733.845 1039.45 742.487 1014.53C743.421 1016.48 743.421 1018.35 744.433 1020.29C755.956 1053.93 763.663 1084.7 764.598 1098.09C762.651 1097.15 760.783 1096.14 759.771 1095.21C746.302 1088.51 730.03 1079.87 711.812 1079.87ZM753.075 1119.27C739.606 1121.22 726.215 1122.15 711.812 1122.15C697.408 1122.15 683.939 1121.22 670.548 1119.27C672.495 1118.34 674.363 1117.32 677.244 1115.46C686.82 1109.69 699.355 1103 711.812 1103C724.269 1103 736.803 1109.69 746.38 1115.46C748.326 1117.4 751.207 1118.34 753.075 1119.27ZM719.519 1005.89C716.639 1015.46 713.758 1019.36 711.812 1020.29C710.877 1019.36 706.985 1015.46 704.104 1005.89C698.343 987.664 685.886 974.191 668.602 967.494C660.894 964.613 653.264 962.666 645.557 962.666C635.98 962.666 625.392 965.547 615.816 970.375C607.174 974.191 602.347 974.191 600.478 974.191C600.478 972.244 600.478 967.494 605.305 957.838C613.947 940.55 614.882 922.327 608.186 905.973C601.49 889.62 588.021 877.16 568.869 870.463C559.293 867.581 555.4 864.7 554.466 862.753C555.4 861.819 559.293 857.925 568.869 855.044C587.087 849.281 600.556 836.821 607.252 819.533C613.947 803.179 613.013 784.022 604.371 766.656C599.544 758.012 599.544 753.184 599.544 751.315C601.49 751.315 606.24 751.315 615.894 756.143C633.178 764.787 651.396 765.722 667.745 759.024C684.095 752.327 696.552 738.855 703.248 720.632C706.128 711.054 709.009 707.16 710.955 706.226C711.889 707.16 715.782 711.054 718.663 720.632C724.424 738.855 736.881 752.327 754.165 759.024C770.515 765.722 789.667 764.787 806.951 756.143C815.593 751.315 820.42 751.315 822.289 751.315C822.289 753.262 822.289 758.012 817.462 767.668C808.82 784.957 807.885 803.179 814.581 819.533C821.277 835.886 834.746 848.346 853.898 855.044C863.474 857.925 867.367 860.806 868.301 862.753C867.367 863.688 863.474 867.581 853.898 870.463C835.68 876.225 822.211 888.685 815.515 905.973C808.82 922.327 809.754 941.484 818.396 958.85C823.223 967.494 823.223 972.322 823.223 974.191C821.277 974.191 816.527 974.191 806.873 969.363C789.589 960.719 771.371 959.785 755.022 967.416C737.738 973.179 725.281 987.586 719.519 1005.81V1005.89ZM584.206 777.169C582.26 776.235 580.392 775.222 578.445 774.288C546.758 758.947 519.898 741.658 509.309 733.014C511.256 732.08 513.124 732.08 515.071 731.068C527.528 727.252 545.824 722.424 558.281 708.951C571.75 695.479 576.499 678.191 580.392 665.731C581.326 663.784 581.326 661.915 582.338 659.968C590.98 670.559 608.264 697.426 623.601 729.121C624.536 731.068 625.548 732.937 626.482 734.883C603.437 723.358 590.98 728.186 584.284 734.883C577.589 740.646 572.762 753.106 584.284 777.169H584.206ZM558.281 659.968C555.4 670.559 551.585 684.966 542.943 693.61C534.301 702.254 520.832 706.07 509.387 708.951C506.507 709.886 504.56 709.886 502.692 710.898C519.041 688.782 538.194 668.612 561.239 652.259C559.293 655.14 558.358 657.087 558.358 659.968H558.281ZM588.956 804.114C588.956 806.061 588.021 808.942 587.009 810.811C586.075 812.758 585.063 814.627 584.129 816.574C540.919 799.285 489.067 787.76 474.742 787.76C472.795 787.76 468.046 787.76 463.219 789.707C468.046 771.484 475.676 755.131 484.318 738.777C486.264 742.593 490.079 746.487 491.013 747.421C500.59 757 545.746 786.826 588.956 804.114ZM560.149 892.501C558.203 893.436 556.334 893.436 554.388 894.448C520.832 905.973 490.079 913.683 476.61 914.617C477.544 912.67 478.557 910.802 479.491 909.789C486.186 898.264 494.828 881.91 494.828 863.688C494.828 845.465 486.186 829.111 479.491 817.586C478.557 815.639 477.544 814.705 476.61 812.758C490.079 813.692 521.688 821.402 554.388 832.927C556.334 833.862 558.203 833.862 560.149 834.874C536.17 843.518 530.408 855.978 530.408 864.622C530.408 871.319 536.17 883.857 560.149 892.501ZM471.861 862.675C471.861 875.135 465.165 887.673 459.404 897.251C458.47 899.198 456.523 902.08 455.589 903.949C453.643 890.476 452.709 877.082 452.709 862.675C452.709 848.268 453.643 834.796 455.589 821.402C456.523 823.349 457.536 826.23 459.404 828.099C465.165 838.69 471.861 850.215 471.861 862.675ZM473.807 937.668C487.276 937.668 540.062 926.143 583.194 908.855C584.129 910.802 586.075 912.67 586.075 914.617C587.009 916.564 588.021 919.446 588.021 921.315C545.824 939.537 499.733 968.429 490.079 978.007C488.133 979.954 485.252 982.835 483.384 986.651C474.742 970.298 467.034 953.009 462.285 935.721C467.112 937.668 471.861 937.668 473.807 937.668ZM508.375 1017.41C518.964 1020.29 533.367 1024.11 542.009 1032.75C550.651 1041.4 554.466 1054.87 557.346 1066.39C558.281 1069.28 558.281 1071.22 559.293 1073.09C537.182 1056.74 517.095 1037.58 500.745 1014.45C503.626 1015.39 506.507 1016.4 508.453 1017.33L508.375 1017.41ZM558.281 1016.4C544.812 1002.93 527.528 998.177 515.071 994.283C513.124 994.283 511.256 993.348 509.309 992.336C519.898 983.692 546.758 966.404 578.445 951.063C580.392 950.128 582.26 949.116 584.206 948.181C572.684 971.232 577.511 983.692 584.206 990.467C589.968 996.23 602.425 1001.06 626.404 990.467C625.47 992.414 624.458 994.283 623.524 996.23C608.186 1027.92 590.902 1054.87 582.26 1065.38C582.26 1063.44 581.326 1061.57 580.314 1059.62C576.499 1047.16 571.672 1028.86 558.203 1016.4H558.281ZM711.812 646.574C730.03 646.574 746.379 637.93 757.902 631.233C759.848 630.298 760.783 629.286 762.729 628.351C761.795 641.824 754.087 673.518 742.565 706.148C741.63 708.095 741.63 709.964 740.618 711.91C731.976 686.913 719.519 682.162 710.877 682.162C702.235 682.162 689.779 687.925 681.137 711.91C680.202 709.964 680.202 708.095 679.19 706.148C667.668 672.506 659.96 641.746 659.026 628.351C660.972 629.286 662.84 630.298 663.853 631.233C677.322 637.93 693.593 646.574 711.812 646.574ZM670.548 607.169C684.017 605.223 697.408 604.288 711.812 604.288C726.215 604.288 739.684 605.223 753.075 607.169C751.129 608.104 748.248 609.116 746.38 610.985C736.803 616.748 724.269 623.445 711.812 623.445C699.355 623.445 686.82 616.748 677.244 610.985C674.363 609.038 672.417 608.104 670.548 607.169ZM944.133 908.855C945.067 910.802 946.079 912.671 947.013 913.683C933.544 912.748 901.935 905.039 869.236 893.513C867.289 892.579 865.421 892.579 863.474 891.567C888.466 882.923 893.215 870.463 893.215 861.819C893.215 853.174 888.388 841.649 863.474 832.071C865.421 831.136 867.289 831.136 869.236 830.124C902.791 818.598 933.544 810.889 947.013 809.954C946.079 811.901 945.067 813.77 944.133 814.782C937.437 826.308 928.795 842.661 928.795 860.884C927.861 881.988 937.437 897.407 944.133 908.933V908.855ZM840.429 817.586C839.495 815.639 837.548 813.77 837.548 811.823C836.614 809.876 835.602 806.995 835.602 805.126C877.8 786.903 923.89 758.012 933.544 748.433C935.491 746.487 938.371 743.605 940.24 739.789C948.882 756.143 956.589 773.431 961.339 790.719C956.512 788.772 952.697 788.772 949.816 788.772C935.413 788.772 882.627 800.298 840.429 817.586ZM914.392 709.029C903.803 706.148 889.4 702.332 880.758 693.688C872.116 685.044 868.301 671.572 865.421 660.046C864.486 657.165 864.486 655.218 863.474 653.349C885.585 669.703 905.672 688.86 922.022 711.988C919.141 710.042 917.195 710.041 914.314 709.107L914.392 709.029ZM864.486 709.964C877.955 723.436 895.239 728.186 907.696 732.08C909.643 732.08 911.511 733.014 913.458 734.027C902.869 742.671 876.009 759.959 844.322 775.3C842.375 776.235 840.507 777.247 838.56 778.182C850.083 755.131 845.256 742.671 838.56 735.896C832.799 730.133 820.342 725.305 796.363 735.896C797.297 733.949 798.309 732.08 799.243 730.133C814.581 698.438 830.931 671.494 840.507 660.981C841.441 662.927 841.441 664.796 842.453 666.743C847.28 679.203 852.029 696.491 864.564 709.964H864.486ZM839.495 991.479C845.256 985.717 850.083 973.257 839.495 949.194C841.441 950.128 843.31 951.141 845.256 952.075C876.943 967.416 903.803 983.77 914.392 993.348C912.445 993.348 910.577 994.283 908.63 995.295C896.174 999.111 877.877 1003.94 865.421 1017.41C851.952 1030.88 847.202 1048.17 843.31 1060.63C843.31 1062.58 842.375 1064.45 841.363 1066.39C832.721 1055.8 815.437 1028.94 800.1 997.242C799.166 995.295 798.153 993.426 797.219 991.479C821.199 1002.07 833.656 997.242 839.417 991.479H839.495ZM865.421 1066.39C868.301 1055.8 872.116 1041.4 880.758 1032.75C889.4 1024.11 902.869 1020.29 914.392 1017.41C917.272 1016.48 919.219 1016.48 921.087 1015.46C904.738 1037.58 885.585 1057.75 862.54 1074.1C864.486 1071.22 865.421 1068.34 865.421 1066.39ZM834.668 921.315C834.668 919.368 835.602 916.486 836.614 914.617C837.548 912.67 838.561 910.802 839.495 908.855C881.692 926.143 934.556 937.668 948.882 937.668C950.828 937.668 955.577 937.668 960.404 935.721C954.643 953.944 947.947 970.298 939.306 986.651C937.359 982.835 933.544 978.942 932.61 978.007C923.034 968.429 876.943 939.615 834.668 921.315ZM951.84 862.675C951.84 850.215 958.536 837.677 964.297 828.099C965.231 826.152 967.178 823.271 968.112 821.402C970.059 834.874 970.993 848.268 970.993 862.675C970.993 877.082 970.059 890.554 968.112 903.949C967.178 902.002 966.166 899.12 964.297 897.251C958.536 887.673 951.84 875.135 951.84 862.675ZM961.417 693.61C957.602 700.307 953.709 707.082 951.84 713.779C928.795 677.256 897.108 645.561 860.671 622.511C879.902 616.748 898.12 603.276 912.523 584.119C929.807 595.644 949.972 602.341 971.071 603.354C972.005 624.457 978.778 644.627 990.301 661.993C978.778 671.572 969.202 682.162 961.494 693.688L961.417 693.61ZM911.511 539.886C910.577 542.767 908.63 546.583 907.696 549.464C903.881 557.174 899.054 563.871 895.239 569.634C874.14 596.501 845.334 609.973 821.354 599.382C797.375 589.803 786.786 559.978 790.601 526.336C791.536 518.626 793.482 510.995 796.363 502.351C797.297 499.469 798.309 495.653 800.178 492.772C816.527 453.368 848.137 428.37 876.943 429.382C881.77 429.382 886.519 430.317 891.346 432.264C896.174 434.21 899.988 437.092 903.803 439.973C923.034 460.143 927.783 501.494 911.511 539.886ZM632.165 561.068C627.338 580.303 617.762 594.71 603.359 600.472C580.314 610.051 550.573 597.591 529.474 570.724C524.647 564.962 519.898 557.252 516.005 550.555C514.059 547.673 513.124 544.792 511.178 540.976C494.828 501.572 499.655 461.233 520.754 441.998C524.569 438.182 528.462 436.235 533.211 434.288C538.038 432.341 542.787 431.407 547.614 431.407H549.561C577.433 431.407 608.108 456.405 624.458 494.797C625.392 497.678 627.338 501.494 628.273 504.375C631.153 512.085 633.1 519.716 634.034 528.361C634.968 538.951 634.968 550.477 632.088 560.99L632.165 561.068ZM511.256 585.053C525.659 603.276 543.877 616.748 563.108 623.445C525.659 646.496 494.984 678.191 471.939 714.714C469.992 708.017 466.177 701.242 462.363 694.544C454.655 683.019 445.079 672.428 433.556 663.784C445.079 646.496 451.774 626.327 452.786 605.145C473.885 602.263 494.05 596.501 511.334 584.975L511.256 585.053ZM442.12 706.148C452.708 722.501 455.589 739.789 448.816 754.196C443.054 768.603 428.651 779.194 409.499 783.01C398.91 785.891 387.388 785.891 374.931 784.957C367.223 784.022 359.593 782.075 350.951 779.194C348.071 778.259 344.256 777.247 341.375 775.378C318.33 765.799 300.112 750.38 288.589 733.092C281.893 721.567 278.001 710.042 278.001 699.451C278.001 694.622 278.935 689.872 280.881 685.044C282.828 680.216 285.708 676.4 288.589 672.584C296.297 664.874 306.807 659.112 319.342 656.23C326.038 654.283 332.811 653.349 340.441 653.349C355.778 653.349 371.194 656.23 386.531 662.927C389.412 663.862 393.227 665.809 396.108 667.756C403.815 671.572 410.511 675.465 416.272 680.216C428.729 687.925 436.437 696.569 442.198 706.148H442.12ZM388.4 808.942C397.976 808.942 406.618 808.007 415.26 806.061C422.968 804.114 429.663 801.232 436.359 798.351C431.532 819.455 428.651 840.637 428.651 862.753C428.651 884.869 431.532 906.986 436.359 927.155C429.663 924.274 422.89 921.393 415.26 919.446C406.618 917.499 397.976 916.564 388.4 916.564C383.573 916.564 377.811 916.564 373.062 917.499C369.247 897.329 359.593 878.094 345.19 862.753C359.593 847.412 369.169 829.111 373.062 808.007C377.889 808.942 383.651 808.942 388.4 808.942ZM375.865 941.484C380.692 940.55 384.507 940.55 389.334 940.55C397.042 940.55 403.737 941.484 410.433 942.496C429.663 947.325 443.989 956.903 449.75 971.31C459.326 995.295 446.869 1024.19 420.009 1045.29C414.248 1050.12 406.54 1054.87 399.845 1058.76C396.964 1060.71 394.083 1061.64 390.268 1063.59C367.223 1073.17 343.244 1076.05 323.079 1071.3C309.61 1068.42 299.1 1062.66 292.326 1054.01C288.511 1050.2 286.565 1046.3 284.618 1041.55C282.672 1036.72 281.738 1031.97 281.738 1027.15C281.738 1016.55 284.618 1005.03 292.326 993.504C298.087 984.86 305.795 976.216 314.437 968.507C323.079 960.797 333.667 955.034 345.19 950.284C348.071 949.349 351.886 947.403 354.766 946.468C359.593 944.521 368.235 942.652 375.865 941.64V941.484ZM471.861 1011.65C494.906 1049.11 526.593 1079.87 563.03 1102.92C556.334 1104.86 549.561 1108.68 542.865 1112.5C531.343 1119.19 521.766 1128.85 513.124 1139.36C513.124 1140.3 512.19 1140.3 512.19 1141.31C494.906 1129.78 474.742 1123.09 453.643 1122.07C452.708 1100.97 445.935 1080.72 434.412 1063.44C451.696 1049.03 465.165 1030.81 471.861 1011.57V1011.65ZM512.19 1185.54C513.124 1182.66 515.071 1178.85 517.017 1175.96C520.832 1168.25 524.725 1161.56 529.474 1155.79C537.182 1146.22 545.824 1138.51 554.466 1132.74C571.75 1122.15 588.099 1119.27 602.425 1126.05C616.828 1131.81 627.416 1146.22 631.231 1165.45C634.112 1176.04 634.112 1187.57 633.178 1200.03C632.243 1207.74 630.297 1215.37 627.416 1224.01C626.482 1226.89 625.47 1230.71 623.601 1233.59C607.252 1273 575.642 1297.99 546.836 1296.98C542.009 1296.98 537.26 1296.05 532.433 1294.1C527.606 1292.15 523.791 1289.27 519.976 1286.39C500.745 1265.29 495.996 1224.87 512.268 1185.54H512.19ZM820.264 1125.97C825.092 1124.02 830.853 1123.09 836.614 1123.09C847.202 1123.09 857.713 1126.9 868.301 1133.68C877.878 1139.44 886.519 1147.15 893.293 1156.73C898.12 1162.49 902.869 1170.2 905.75 1176.9C907.696 1179.78 908.631 1182.66 909.565 1186.48C925.914 1225.88 921.087 1266.22 899.989 1285.46C896.174 1288.34 892.281 1291.22 887.532 1293.16C882.705 1295.11 877.955 1296.05 873.128 1296.05C844.322 1296.98 812.635 1272.06 796.363 1232.66C795.428 1229.78 793.482 1225.96 792.548 1223.08C789.667 1215.37 787.721 1206.72 786.787 1199.09C785.852 1165.45 797.375 1135.7 820.342 1126.05L820.264 1125.97ZM912.445 1141.31C903.803 1129.78 893.215 1120.21 881.692 1112.5C874.997 1108.68 868.223 1104.79 861.528 1102.92C897.964 1079.87 929.651 1048.17 952.697 1011.65C958.458 1030.88 971.927 1049.11 990.145 1063.51C978.623 1080.8 971.927 1100.97 970.915 1122.15C949.816 1123.09 929.652 1129.86 912.368 1141.39L912.445 1141.31ZM974.808 972.244C980.569 957.838 994.972 947.247 1014.12 943.431C1020.82 941.484 1027.59 941.484 1035.22 941.484C1039.04 941.484 1043.87 941.484 1048.69 942.419C1056.4 943.353 1064.03 945.3 1072.67 948.181C1075.55 949.116 1079.37 950.128 1082.25 951.997C1105.29 961.576 1123.51 976.995 1135.03 994.283C1141.73 1005.81 1145.62 1017.33 1145.62 1027.92C1145.62 1032.75 1144.69 1037.5 1142.74 1042.33C1140.8 1047.16 1137.92 1050.98 1135.03 1054.79C1127.33 1062.5 1116.82 1068.26 1104.28 1072.08C1083.18 1076.91 1059.2 1074.03 1037.09 1064.37C1034.21 1063.44 1030.4 1061.49 1027.52 1059.54C1019.81 1055.73 1013.11 1051.83 1007.35 1047.08C977.611 1024.97 964.141 995.217 974.73 972.167L974.808 972.244ZM1365.49 787.76C1344.39 762.762 1312.7 746.487 1277.2 746.487H1273.38C1258.98 704.201 1222.54 674.453 1178.32 668.69C1205.18 634.114 1210.01 587 1190.78 546.661C1191.71 545.727 1192.73 544.714 1193.66 543.78C1218.65 519.794 1230.1 486.153 1227.22 453.445C1302.11 547.595 1352.02 662.927 1365.41 787.76H1365.49ZM1183.15 402.516C1213.9 439.039 1211.96 493.784 1178.32 528.361C1176.38 531.242 1173.49 533.189 1169.68 536.07L1161.04 541.833L1166.8 550.477C1187.9 585.988 1183.15 631.155 1155.28 661.915C1144.69 647.508 1128.42 637.93 1108.25 633.102C1099.61 631.155 1090.97 630.22 1081.39 630.22C1063.17 630.22 1043.94 634.036 1025.73 641.746C1019.96 643.692 1015.14 646.574 1009.38 649.455C998.787 633.102 993.026 612.932 994.972 592.763L995.907 579.29L982.438 580.225C962.273 581.159 942.108 576.409 925.837 565.818C928.717 560.99 931.598 555.227 933.544 549.464C954.643 498.535 945.067 444.723 913.38 419.726C944.133 390.912 989.211 386.084 1024.71 408.2L1033.36 413.963L1040.05 405.319C1042.93 402.438 1044.88 399.556 1047.76 396.675C1082.33 362.099 1137.06 360.152 1173.49 390.912C1175.44 394.728 1179.26 398.622 1183.07 402.438L1183.15 402.516ZM1120.71 346.758C1088.09 343.876 1054.45 355.402 1029.54 380.399C1028.61 381.334 1027.59 382.346 1026.66 383.281C987.342 364.046 939.306 368.874 904.738 395.741C898.976 352.52 869.236 315.063 826.96 300.656V296.84C826.96 261.329 810.61 229.557 785.697 208.453C912.368 221.925 1026.66 271.842 1120.71 346.835V346.758ZM711.812 203.624C763.663 203.624 804.927 244.898 804.927 296.84C804.927 299.721 804.927 303.537 803.993 307.431L803.058 318.022L812.635 320.903C852.964 331.494 881.77 367.005 882.704 408.356C879.824 408.356 876.943 407.422 873.128 407.422C835.68 407.422 796.363 438.182 776.198 485.218C774.252 490.981 772.383 496.744 770.437 502.506C751.207 498.69 732.988 488.1 719.597 472.758L710.955 463.18L702.313 472.758C688.844 488.1 671.56 497.756 651.474 502.506C649.527 496.744 647.659 490.981 645.712 485.218C624.614 434.288 579.457 402.593 540.14 408.356C541.074 367.005 569.881 331.494 610.21 320.903L619.786 318.022L618.852 307.431C618.852 303.615 617.918 299.721 617.918 295.906C618.852 244.976 660.116 203.702 711.967 203.702L711.812 203.624ZM636.993 207.44C612.001 228.544 595.729 260.317 595.729 295.828V299.644C553.531 314.05 523.713 350.573 517.951 394.728C483.384 367.861 436.359 363.033 396.03 382.268C395.095 381.334 394.083 380.321 393.149 379.387C368.157 354.389 334.602 342.864 301.98 345.745C396.03 271.765 511.256 221.769 636.993 207.362V207.44ZM239.618 403.45C243.433 399.634 247.326 395.741 251.141 390.99C268.424 376.583 289.523 368.874 310.622 368.874C334.602 368.874 358.581 377.518 375.865 395.741C378.746 398.622 380.692 400.569 383.573 404.385L390.268 413.029L398.91 407.266C434.412 386.162 479.569 390.912 510.244 418.791C478.557 442.777 468.98 496.588 490.079 548.53C492.026 554.293 494.906 559.121 497.787 564.884C481.437 575.475 461.35 581.237 441.186 579.29L427.717 578.356L428.651 591.828C429.585 611.998 424.836 632.167 413.314 648.521C408.487 645.639 402.725 642.758 396.964 640.811C369.092 629.286 340.363 626.404 315.371 632.167C295.207 636.995 278.935 646.574 268.347 660.981C239.54 631.233 234.791 585.053 256.824 549.542L262.585 540.898L254.878 534.201C251.997 531.32 249.116 529.373 246.236 526.492C228.952 509.203 219.376 485.14 219.376 461.155C218.441 440.986 226.071 419.804 239.54 403.528L239.618 403.45ZM195.396 453.445V462.089C195.396 492.85 207.853 522.598 229.03 544.714C229.964 545.649 230.976 546.661 231.91 547.596C212.68 587 217.507 635.048 244.367 669.625C201.157 675.387 163.709 705.135 149.306 747.421H145.491C109.988 747.421 78.3013 763.775 57.2024 788.695C71.6057 662.85 120.577 547.518 195.396 453.368V453.445ZM145.491 769.537C148.371 769.537 152.186 769.537 157.013 770.472L167.602 771.406L170.482 761.828C181.071 721.489 216.573 692.675 257.836 691.663C254.955 708.951 259.783 728.186 271.305 745.474C284.774 767.591 307.742 785.813 335.614 797.339C341.375 799.285 347.136 801.154 352.898 803.101C349.083 822.336 338.494 840.559 323.157 854.031L313.581 862.675L323.157 871.319C338.494 884.792 349.083 903.014 352.898 922.249C347.136 924.196 341.375 926.065 335.614 928.012C307.742 939.537 285.708 957.76 271.305 979.876C259.783 998.099 255.968 1016.4 257.836 1033.69C216.573 1032.75 181.071 1003.94 170.482 963.523L167.602 953.944L157.013 954.878C153.198 954.878 149.306 955.813 145.491 955.813C94.6509 955.813 52.3754 914.54 52.3754 862.597C52.3754 810.655 93.6388 769.382 145.491 769.382V769.537ZM195.396 1272.92C120.499 1178.77 71.6057 1063.44 57.2024 938.603C78.3013 963.6 109.988 979.876 145.491 979.876H149.306C163.709 1022.16 200.145 1051.91 244.367 1057.67C217.507 1092.25 212.68 1139.36 231.91 1179.7C230.976 1180.64 229.964 1181.65 229.03 1182.58C206.919 1204.7 195.396 1233.51 195.396 1265.21V1272.92ZM239.618 1322.91C226.149 1306.56 218.519 1285.46 218.519 1264.27C218.519 1239.28 228.095 1216.22 245.379 1198.94C247.326 1196.06 250.206 1194.11 254.021 1191.23L261.729 1184.53L255.968 1175.89C234.869 1140.38 239.618 1094.2 267.49 1064.45C278.079 1078.85 294.35 1088.43 314.515 1093.26C323.157 1095.21 331.799 1096.14 341.375 1096.14C359.593 1096.14 378.824 1092.33 397.042 1084.62C402.803 1082.67 407.63 1079.79 413.391 1076.91C423.98 1093.26 429.741 1113.43 428.729 1133.6L427.795 1147.07L441.264 1146.14C461.428 1145.2 481.593 1149.95 497.865 1161.48C494.984 1166.31 492.103 1172.07 490.157 1177.83C469.058 1228.76 478.634 1282.57 510.322 1307.57C480.581 1336.39 434.49 1341.21 398.988 1319.1L390.346 1313.33L383.651 1321.98C380.77 1324.86 378.824 1327.74 375.943 1330.62C341.375 1365.2 287.655 1367.15 251.141 1336.38C248.26 1331.56 243.433 1326.81 239.618 1322.91ZM302.914 1379.61H311.556C341.297 1379.61 371.038 1368.08 394.083 1345.96C395.018 1345.03 396.03 1344.02 396.964 1343.08C436.281 1362.32 484.318 1357.49 518.886 1330.62C524.647 1373.84 554.388 1411.3 596.663 1425.71V1429.52C596.663 1465.03 613.013 1496.81 637.927 1517.91C511.256 1504.44 396.03 1454.52 302.914 1379.53V1379.61ZM711.812 1522.74C659.96 1522.74 618.697 1480.45 618.697 1429.52C618.697 1426.64 618.697 1422.83 619.631 1418L620.565 1407.41L610.989 1404.53C570.66 1393.93 541.853 1358.42 540.919 1317.07C543.799 1317.07 546.68 1318.01 550.495 1318.01C587.944 1318.01 627.261 1287.25 647.425 1240.21C649.371 1234.45 651.24 1228.68 653.186 1222.92C672.417 1226.74 690.635 1237.33 704.026 1252.67L712.668 1262.25L721.31 1252.67C734.779 1237.33 752.997 1226.74 772.15 1222.92C774.096 1228.68 775.965 1234.45 777.911 1240.21C797.141 1287.32 837.393 1318.01 874.841 1318.01C877.722 1318.01 880.602 1318.01 884.417 1317.07C883.483 1358.35 854.677 1393.93 814.347 1404.53L804.771 1407.41L805.705 1418C805.705 1421.81 806.64 1425.71 806.64 1428.59C804.693 1480.45 762.496 1522.74 711.578 1522.74H711.812ZM786.709 1517.91C811.7 1496.81 827.972 1465.03 827.972 1429.52V1425.71C870.17 1411.3 899.988 1374.78 905.75 1330.62C940.318 1357.49 987.342 1362.32 1027.67 1343.08C1028.61 1344.02 1029.62 1345.03 1030.55 1345.96C1053.6 1369.01 1083.34 1379.61 1113.08 1379.61H1121.72C1026.66 1454.52 912.445 1504.52 786.709 1517.99V1517.91ZM1171.63 1335.37C1135.19 1366.13 1080.46 1364.19 1045.89 1329.61C1043.94 1327.66 1041.06 1324.78 1038.18 1320.97L1031.49 1312.32L1022.84 1318.08C987.342 1339.19 942.186 1334.44 911.511 1306.56C943.198 1282.57 952.775 1228.76 931.676 1176.82C929.729 1171.06 926.849 1166.23 923.968 1160.47C940.318 1149.88 960.404 1144.11 980.569 1145.13L994.038 1146.06L993.104 1132.59C992.169 1112.42 996.919 1092.25 1007.51 1075.9C1012.33 1078.78 1018.1 1081.66 1023.86 1083.6C1042.07 1091.31 1061.31 1095.13 1079.52 1095.13C1088.17 1095.13 1097.74 1094.2 1106.38 1092.25C1126.55 1087.42 1142.82 1077.84 1153.41 1063.44C1182.21 1093.18 1187.04 1139.36 1164.93 1174.87L1159.17 1183.52L1166.88 1190.21C1169.76 1193.1 1172.64 1195.04 1175.52 1197.92C1211.96 1232.5 1213.9 1287.25 1183.23 1323.77C1179.41 1327.59 1175.52 1331.48 1171.7 1335.29L1171.63 1335.37Z" fill="white"/>
    <path d="M1227.29 1273.07C1230.17 1240.44 1218.65 1206.8 1193.74 1181.8C1192.8 1180.87 1191.79 1179.86 1190.86 1178.92C1210.09 1139.52 1205.26 1091.47 1178.4 1056.89C1221.61 1051.13 1259.06 1021.38 1273.46 979.097H1277.28C1312.78 979.097 1344.47 962.744 1365.56 937.824C1352.1 1063.67 1302.19 1179 1227.37 1273.15L1227.29 1273.07Z" fill="#87E1D1"/>
    <path d="M595.729 296.762V300.578C553.531 314.985 523.713 351.508 517.951 395.663C483.384 368.796 436.359 363.968 396.03 383.203C395.095 382.268 394.083 381.256 393.149 380.321C368.157 355.324 334.602 343.798 301.98 346.68C396.03 271.764 510.244 222.704 635.98 208.297C610.989 229.401 595.651 261.174 595.651 296.684L595.729 296.762Z" fill="#87E1D1"/>
    <path d="M1120.71 346.757C1088.09 343.876 1054.45 355.402 1029.54 380.399C1028.61 381.334 1027.59 382.346 1026.66 383.281C987.342 364.046 939.305 368.874 904.738 395.74C898.976 352.52 869.236 315.063 826.96 300.656V296.84C826.96 261.329 810.61 229.557 785.697 208.453C912.367 221.925 1026.66 271.842 1120.71 346.835V346.757Z" fill="#87E1D1"/>
    <path d="M244.367 669.469C201.157 675.232 163.709 704.98 149.306 747.265H145.491C109.988 747.265 78.3013 763.619 57.2024 788.539C71.6057 662.694 121.511 548.374 195.396 454.224V462.868C195.396 493.629 207.853 523.377 229.03 545.493C229.964 546.427 230.976 547.44 231.91 548.374C212.68 586.766 217.507 633.88 244.367 669.391V669.469Z" fill="#87E1D1"/>
    <path d="M231.91 1178.69C230.976 1179.62 229.964 1180.64 229.03 1181.57C206.919 1203.69 195.396 1232.5 195.396 1264.2V1272.84C120.499 1178.69 71.6057 1063.36 57.2024 938.525C78.3013 963.523 109.988 979.876 145.491 979.876H149.306C163.709 1022.16 200.145 1051.91 244.367 1057.67C217.507 1091.31 212.68 1138.35 231.91 1178.77V1178.69Z" fill="#87E1D1"/>
    <path d="M636.992 1517.83C511.256 1503.43 397.042 1453.43 302.992 1379.45H311.634C341.375 1379.45 371.116 1367.92 394.161 1345.81C395.095 1344.87 396.108 1343.86 397.042 1342.93C436.437 1362.16 484.396 1357.33 518.964 1330.47C524.725 1373.69 554.466 1411.14 596.741 1425.55V1429.37C595.807 1464.88 611.145 1496.65 637.07 1517.75L636.992 1517.83Z" fill="#87E1D1"/>
    <path d="M1120.71 1379.45C1026.66 1454.36 912.445 1504.36 786.709 1517.83C811.7 1496.73 827.972 1464.96 827.972 1429.44V1425.63C870.17 1411.22 899.988 1374.7 905.75 1330.54C940.318 1357.41 987.342 1362.24 1027.67 1343C1028.61 1343.94 1029.62 1344.95 1030.55 1345.89C1053.6 1368.94 1083.34 1379.53 1113.08 1379.53H1120.79L1120.71 1379.45Z" fill="#87E1D1"/>
    <path d="M1366.5 787.76C1345.4 762.762 1313.71 746.409 1278.21 746.409H1274.4C1259.99 704.123 1223.56 674.375 1179.33 668.612C1206.19 634.036 1211.02 586.922 1191.79 546.583C1192.73 545.649 1193.74 544.636 1194.67 543.702C1219.66 518.704 1231.11 485.062 1228.23 452.433C1302.11 547.518 1352.02 661.915 1366.42 787.76H1366.5Z" fill="#87E1D1"/>
    <path d="M853.898 854.888C835.68 849.125 822.211 835.653 814.503 819.377C807.808 803.023 808.742 783.866 817.384 767.513C822.211 757.934 822.211 753.106 822.211 751.159C820.264 751.159 815.515 751.159 806.873 755.987C789.589 764.631 771.371 765.566 754.087 758.869C737.738 752.171 725.281 738.699 718.585 720.477C715.704 710.898 711.89 707.004 710.877 706.07C709.943 707.004 706.05 710.898 703.17 720.477C697.408 738.699 684.952 752.171 667.668 758.869C651.318 765.566 632.165 764.631 615.816 755.987C606.24 751.159 601.413 751.159 599.466 751.159C599.466 753.106 599.466 757.856 604.293 766.5C612.935 783.788 613.869 802.011 607.174 819.377C600.478 835.731 587.009 848.191 568.791 854.888C559.215 857.769 555.322 861.585 554.388 862.597C555.322 863.532 559.215 867.426 568.791 870.307C587.009 876.07 600.478 888.529 608.108 905.818C614.804 922.171 613.869 941.328 605.227 957.682C600.4 967.26 600.4 972.089 600.4 974.035C602.347 974.035 607.096 974.036 615.738 969.207C625.314 964.379 634.968 961.498 645.479 961.498C653.186 961.498 660.816 963.445 668.524 966.326C684.874 973.023 697.331 986.495 704.026 1004.72C706.907 1014.3 710.722 1018.19 711.734 1019.12C712.668 1018.19 716.561 1014.3 719.442 1004.72C725.203 986.495 737.66 973.023 754.944 965.314C771.293 958.616 790.446 959.551 806.795 967.26C816.372 972.089 821.199 972.089 823.145 972.089C823.145 970.142 823.145 965.391 818.318 956.747C809.676 939.459 808.742 921.237 815.437 903.871C822.133 887.517 835.602 875.057 853.82 868.36C863.396 865.479 867.289 861.663 868.223 860.65C867.289 861.585 863.396 858.704 853.82 854.888H853.898ZM625.47 827.009C627.416 823.193 640.807 821.246 649.449 824.127C658.091 827.943 692.659 850.06 690.713 853.875C688.766 857.691 649.449 849.047 640.807 845.231C631.231 842.35 623.523 830.825 625.47 827.009ZM649.449 900.989C640.807 904.805 627.338 902.936 625.47 898.108C623.523 894.292 631.231 882.767 640.807 878.873C649.449 875.057 689.779 866.413 690.713 870.229C692.659 875.992 658.091 897.096 649.449 900.989ZM694.528 934.631C690.713 943.275 680.124 951.919 675.297 949.972C671.483 948.025 669.536 934.631 672.417 925.987C676.232 917.343 698.343 882.767 702.158 884.714C706.985 885.648 698.343 925.053 694.45 934.709L694.528 934.631ZM703.17 842.428C699.355 844.375 677.244 809.798 673.429 801.154C669.614 792.51 671.482 779.038 676.31 777.169C680.124 775.222 691.647 782.932 695.54 792.51C698.421 800.22 707.063 840.559 703.248 842.506L703.17 842.428ZM729.096 791.498C732.911 782.854 743.499 774.21 748.326 776.157C752.141 778.104 755.021 791.498 751.207 800.142C747.392 808.786 725.281 843.362 721.466 841.415C716.639 840.481 725.281 800.142 729.173 791.42L729.096 791.498ZM747.314 949.038C743.499 950.985 731.976 943.275 728.083 933.697C724.269 925.053 715.627 884.714 719.442 883.701C723.256 881.754 745.367 916.331 749.182 924.975C754.009 934.553 751.129 948.025 747.236 948.96L747.314 949.038ZM798.231 899.12C796.285 902.936 782.894 905.818 774.252 902.002C765.61 898.186 731.042 876.07 732.988 872.254C734.935 868.438 774.252 877.082 782.894 880.898C791.536 883.779 800.178 894.37 798.231 899.12ZM782.894 846.244C774.252 850.06 733.923 858.704 732.988 854.888C731.042 851.072 765.61 828.956 774.252 825.14C782.894 821.324 796.363 823.193 798.231 828.021C800.178 830.902 791.536 842.428 782.894 846.244Z" fill="#4D3048"/>
    <path d="M625.47 990.467C624.536 992.414 623.524 994.283 622.589 996.23C607.252 1027.92 589.968 1054.87 581.326 1065.38C581.326 1063.44 580.392 1061.57 579.379 1059.62C575.565 1047.16 570.737 1028.86 557.268 1016.4C543.799 1002.93 526.516 998.176 514.059 994.283C512.112 994.283 510.244 993.348 508.297 992.336C518.886 983.692 545.746 966.404 577.433 951.062C579.379 950.128 581.248 949.116 583.194 948.181C571.672 971.232 576.499 983.692 583.194 990.467C589.89 997.164 602.425 1001.99 625.392 990.467H625.47Z" fill="#CDA787"/>
    <path d="M560.149 892.345C558.203 893.28 556.334 893.28 554.388 894.292C520.754 905.818 490.079 913.527 476.61 914.462C477.544 912.515 478.557 910.646 479.491 909.633C486.186 898.108 494.828 881.754 494.828 863.532C494.828 845.309 486.186 828.956 479.491 817.43C478.557 815.483 477.544 814.549 476.61 812.602C490.079 813.537 521.688 821.246 554.388 832.772C556.334 833.706 558.203 833.706 560.149 834.718C536.17 843.362 530.408 855.822 530.408 864.466C530.408 871.164 536.17 883.701 560.149 892.345Z" fill="#CDA787"/>
    <path d="M584.206 734.883C578.445 740.646 573.618 753.106 584.206 777.169C582.26 776.235 580.392 775.222 578.445 774.288C546.758 758.947 519.898 741.658 509.309 733.014C511.256 732.08 513.124 732.08 515.071 731.068C527.528 727.252 545.824 722.424 558.281 708.951C571.75 695.479 576.499 678.191 580.392 665.731C581.326 663.784 581.326 661.915 582.338 659.968C590.98 670.559 608.264 697.426 623.601 729.121C624.536 731.068 625.548 732.937 626.482 734.883C602.503 724.293 590.046 729.121 584.284 734.883H584.206Z" fill="#CDA787"/>
    <path d="M762.729 628.351C761.795 641.824 754.087 673.518 742.565 706.148C741.63 708.095 741.63 709.964 740.618 711.91C731.976 686.913 719.519 682.162 710.877 682.162C702.235 682.162 689.779 686.991 681.137 711.91C680.202 709.964 680.202 708.095 679.19 706.148C667.668 672.506 659.96 641.746 659.026 628.351C660.972 629.286 662.841 630.298 663.853 631.233C675.375 637.93 691.725 646.574 709.943 646.574C728.161 646.574 744.511 637.93 756.034 631.233C759.849 630.298 760.861 629.286 762.729 628.351Z" fill="#CDA787"/>
    <path d="M914.392 732.937C903.803 741.581 876.943 758.869 845.256 774.21C843.31 775.144 841.441 776.157 839.495 777.091C851.017 754.041 846.19 741.581 839.495 734.806C833.733 729.043 821.276 724.215 797.297 734.806C798.231 732.859 799.243 730.99 800.178 729.043C815.515 697.348 831.865 670.403 841.441 659.89C842.375 661.837 842.375 663.706 843.388 665.653C847.202 678.113 852.029 696.413 865.498 708.873C878.967 722.346 896.251 727.096 908.708 730.99C910.655 731.924 912.523 732.937 914.47 732.937H914.392Z" fill="#CDA787"/>
    <path d="M944.133 908.777C945.067 910.724 946.079 912.593 947.013 913.605C933.544 912.671 901.935 904.961 869.236 893.436C867.289 892.501 865.421 892.501 863.474 891.489C888.466 882.845 893.215 870.385 893.215 861.741C893.215 853.097 888.388 841.571 863.474 831.993C865.421 831.058 867.289 831.058 869.236 830.046C902.791 818.52 933.544 810.811 947.013 809.876C946.079 811.823 945.067 813.692 944.133 814.705C937.437 826.23 928.795 842.584 928.795 860.806C927.861 881.91 937.437 897.329 944.133 908.855V908.777Z" fill="#CDA787"/>
    <path d="M914.392 993.504C912.445 993.504 910.577 994.439 908.63 995.451C896.173 999.267 877.877 1004.1 865.421 1017.57C851.952 1031.04 847.202 1048.33 843.31 1060.79C843.31 1062.73 842.375 1064.6 841.363 1066.55C832.721 1055.96 815.437 1029.09 800.1 997.398C799.166 995.451 798.153 993.582 797.219 991.635C820.264 1003.16 832.721 998.332 839.417 991.635C845.178 985.873 850.005 973.413 839.417 949.349C841.363 950.284 843.232 951.296 845.178 952.231C875.931 967.572 903.726 983.926 914.314 993.504H914.392Z" fill="#CDA787"/>
    <path d="M762.729 1098.25C760.783 1097.31 758.914 1096.3 757.902 1095.36C746.38 1088.67 730.03 1080.02 711.812 1080.02C693.593 1080.02 677.244 1088.67 665.721 1095.36C663.775 1096.3 661.906 1097.31 660.894 1098.25C661.828 1084.77 669.536 1053.08 681.059 1020.45C681.993 1018.5 681.993 1016.63 683.005 1014.69C691.647 1039.68 703.17 1044.43 712.746 1044.43C722.322 1044.43 733.845 1039.61 742.487 1014.69C743.421 1016.63 743.421 1018.5 744.433 1020.45C755.021 1053.08 761.717 1084.85 762.651 1098.25H762.729Z" fill="#CDA787"/>
    <path d="M588.956 803.958C588.956 805.905 588.021 808.786 587.009 810.655C586.075 812.602 585.063 814.471 584.129 816.418C540.919 799.13 489.067 787.604 474.742 787.604C472.795 787.604 468.046 787.604 463.219 789.551C468.046 771.329 475.676 754.975 484.318 738.621C486.264 742.437 490.079 746.331 491.013 747.265C500.59 756.844 545.746 786.67 588.956 803.958Z" fill="#4D3048"/>
    <path d="M636.993 1100.97C636.993 1102.92 636.993 1107.67 638.939 1112.5C620.721 1106.73 604.371 1100.04 588.099 1091.39C591.914 1089.45 595.807 1085.63 596.741 1084.69C606.317 1075.12 635.124 1029.95 653.342 986.729C655.289 986.729 658.169 987.663 660.038 988.676C661.984 989.61 663.853 990.623 665.799 991.557C648.515 1034.78 636.993 1087.65 636.993 1101.05V1100.97Z" fill="#4D3048"/>
    <path d="M588.956 921.237C546.758 939.459 500.667 968.351 491.013 977.929C489.067 979.876 486.186 982.757 484.318 986.573C475.676 970.22 467.968 952.932 463.219 935.644C468.046 937.59 471.861 937.59 474.742 937.59C488.211 937.59 540.997 926.065 584.129 908.777C585.063 910.724 587.009 912.593 587.009 914.54C587.009 917.421 587.944 919.368 588.956 921.237Z" fill="#4D3048"/>
    <path d="M665.799 733.793C663.853 734.728 661.984 736.674 660.038 736.674C658.091 737.609 655.211 738.621 653.342 738.621C651.396 733.793 649.527 729.043 646.647 723.28C630.297 688.704 609.198 653.115 596.741 640.655C594.795 638.709 591.914 635.827 588.099 633.958C604.449 625.314 621.655 617.605 638.939 612.854C636.993 617.682 636.993 621.498 636.993 624.38C636.993 638.786 648.515 691.663 665.799 733.871V733.793Z" fill="#4D3048"/>
    <path d="M835.68 635.048C831.865 636.995 827.972 640.811 827.038 641.746C817.462 651.324 788.655 696.491 770.437 739.712C768.49 739.712 765.61 738.777 763.741 737.765L757.98 734.883C775.264 691.663 786.786 639.799 786.786 625.392C786.786 623.445 786.786 618.695 784.84 613.867C803.058 619.629 819.408 626.327 835.68 634.971V635.048Z" fill="#4D3048"/>
    <path d="M960.482 789.551C955.655 787.604 951.84 787.604 948.96 787.604C935.491 787.604 882.705 799.13 839.573 816.418C838.638 814.471 836.692 812.602 836.692 810.655C835.758 808.708 834.746 805.827 834.746 803.958C876.943 785.735 923.034 756.844 932.688 747.265C934.634 745.319 937.515 742.437 939.383 738.621C948.025 754.975 955.733 772.263 960.482 789.551Z" fill="#4D3048"/>
    <path d="M960.482 936.734C954.721 954.956 948.025 971.31 939.383 987.663C937.437 983.848 933.622 979.954 932.688 979.019C923.112 969.441 877.955 940.627 834.746 922.327C834.746 920.38 835.68 917.499 836.692 915.63C837.626 913.683 838.638 911.814 839.573 909.867C881.77 927.155 934.634 938.68 948.96 938.68C951.84 937.746 955.655 937.746 960.482 936.734Z" fill="#4D3048"/>
    <path d="M784.762 1112.5C786.709 1107.67 786.709 1103.85 786.709 1100.97C786.709 1087.5 775.186 1034.7 757.902 991.48C759.848 990.545 761.717 988.598 763.663 988.598C765.61 987.664 768.49 986.651 770.359 986.651C788.577 1028.94 817.384 1075.04 826.96 1084.62C828.906 1086.56 831.787 1089.45 835.602 1091.31C819.252 1099.96 802.98 1106.66 784.762 1112.42V1112.5Z" fill="#4D3048"/>
    <path d="M560.149 1073.25C538.038 1056.89 517.951 1037.74 501.602 1014.61C503.548 1015.54 506.429 1015.54 508.297 1016.55C518.886 1019.44 533.289 1023.25 541.853 1031.9C550.417 1040.54 554.31 1054.01 557.191 1065.54C558.125 1068.42 559.137 1071.3 560.071 1073.25H560.149Z" fill="#4D3048"/>
    <path d="M471.861 862.675C471.861 875.135 465.165 887.673 459.404 897.252C458.47 899.198 456.523 902.08 455.589 903.949C453.643 890.476 452.708 877.082 452.708 862.675C452.708 848.269 453.643 834.796 455.589 821.402C456.523 823.349 457.536 826.23 459.404 828.099C465.165 838.69 471.861 850.215 471.861 862.675Z" fill="#4D3048"/>
    <path d="M560.149 653.427C559.215 655.374 559.215 658.255 558.203 660.124C555.322 670.715 551.507 685.122 542.865 693.766C534.223 702.41 520.754 706.226 509.309 709.107C506.429 710.041 504.482 710.041 502.614 711.054C517.951 688.937 537.182 668.768 560.227 653.427H560.149Z" fill="#4D3048"/>
    <path d="M753.153 607.247C751.207 608.182 748.326 609.194 746.457 611.063C736.881 616.826 724.346 623.523 711.89 623.523C699.433 623.523 686.898 616.826 677.322 611.063C675.375 610.129 672.495 608.182 670.626 607.247C684.095 605.3 697.486 604.366 711.89 604.366C726.293 603.431 739.762 604.366 753.153 607.247Z" fill="#4D3048"/>
    <path d="M922.021 711.054C920.075 710.119 917.194 710.119 915.326 709.107C904.738 706.226 890.334 702.41 881.77 693.766C873.128 685.122 869.313 671.649 866.433 660.124C865.498 657.243 865.498 655.296 864.486 653.427C885.585 668.768 905.75 688.937 922.099 711.054H922.021Z" fill="#4D3048"/>
    <path d="M970.993 862.675C970.993 877.082 970.058 890.554 968.112 903.949C967.178 902.002 966.166 899.121 964.297 897.252C958.536 887.673 951.84 875.135 951.84 862.675C951.84 850.215 958.536 837.678 964.297 828.099C965.231 826.152 967.178 823.271 968.112 821.402C970.058 834.874 970.993 849.281 970.993 862.675Z" fill="#4D3048"/>
    <path d="M922.022 1015.31C905.672 1037.43 886.519 1057.59 863.474 1073.95C864.408 1072 864.408 1069.12 865.421 1067.25C868.301 1056.66 872.116 1042.25 880.758 1033.61C889.4 1024.97 902.869 1021.15 914.392 1018.27C917.272 1016.32 919.219 1015.39 922.099 1015.39L922.022 1015.31Z" fill="#4D3048"/>
    <path d="M753.153 1119.12C739.684 1121.06 726.293 1122 711.89 1122C697.486 1122 684.017 1121.06 670.626 1119.12C672.572 1118.18 674.441 1117.17 677.322 1115.3C686.898 1109.54 699.433 1102.84 711.89 1102.84C724.346 1102.84 736.881 1109.54 746.457 1115.3C748.404 1117.25 751.284 1118.18 753.153 1119.12Z" fill="#4D3048"/>
    <path d="M766.544 1201.74C746.38 1205.56 727.227 1215.21 711.812 1229.62C696.474 1215.21 677.244 1205.63 657.079 1201.74C659.026 1187.33 658.014 1172.93 655.133 1159.45C653.186 1151.74 650.306 1145.05 647.425 1138.35C668.524 1143.18 689.623 1146.06 711.734 1146.06C733.845 1146.06 755.878 1143.18 776.042 1138.35C767.4 1156.57 763.586 1178.69 766.466 1201.74H766.544Z" fill="#00A19B"/>
    <path d="M563.03 1103.77C556.334 1105.72 549.561 1109.54 542.865 1113.35C531.343 1120.05 521.766 1129.71 513.124 1140.22C513.124 1141.15 512.19 1141.15 512.19 1142.17C494.906 1130.64 474.742 1123.94 453.643 1122.93C452.708 1101.83 445.935 1081.66 434.412 1064.29C452.631 1049.89 466.1 1031.66 472.795 1012.43C494.906 1048.95 525.581 1080.65 563.03 1103.7V1103.77Z" fill="#00A19B"/>
    <path d="M428.651 862.753C428.651 884.87 431.532 906.986 436.359 927.155C429.663 924.274 422.89 921.393 415.26 919.446C406.618 917.499 397.976 916.564 388.4 916.564C383.573 916.564 377.811 916.564 373.062 917.499C369.247 897.329 359.593 878.094 345.19 862.753C359.593 847.412 369.169 828.177 373.062 808.008C377.889 808.942 383.651 808.942 388.4 808.942C397.976 808.942 406.618 808.008 415.26 806.061C422.968 804.114 429.663 801.232 436.359 798.351C431.532 819.455 428.651 840.637 428.651 862.753Z" fill="#00A19B"/>
    <path d="M563.03 622.666C525.581 645.717 494.906 677.412 471.861 713.935C469.915 707.238 466.1 700.463 462.285 693.766C454.577 682.24 445.001 671.649 433.478 663.005C445.001 645.717 451.696 625.548 452.708 604.366C473.807 603.431 493.972 596.656 511.256 585.131C525.659 603.353 543.877 616.826 563.108 622.588L563.03 622.666Z" fill="#00A19B"/>
    <path d="M776.12 588.012C755.022 583.184 733.923 580.303 711.812 580.303C689.701 580.303 667.668 583.184 647.503 588.012C650.384 581.315 653.264 574.54 655.211 566.908C658.091 553.436 659.026 539.029 657.157 524.623C677.322 520.807 696.474 511.15 711.89 496.744C727.227 511.15 746.457 520.729 766.622 524.623C763.741 547.674 767.556 569.79 776.198 588.012H776.12Z" fill="#00A19B"/>
    <path d="M990.223 661.759C978.7 670.403 969.124 680.994 961.417 692.52C957.602 699.217 953.709 705.992 951.84 712.689C928.795 676.166 897.108 644.471 860.671 621.42C879.902 615.658 898.12 602.185 912.523 583.028C929.807 594.554 949.972 601.251 971.071 602.263C972.005 624.38 978.778 644.549 990.301 661.837L990.223 661.759Z" fill="#00A19B"/>
    <path d="M1078.51 862.753C1064.11 878.094 1054.53 897.329 1050.64 917.499C1036.24 915.552 1021.83 916.564 1008.44 919.446C1000.73 921.393 994.038 924.274 987.342 927.155C992.169 906.051 995.05 884.87 995.05 862.753C995.05 840.637 992.169 818.521 987.342 798.351C994.038 801.232 1000.81 804.114 1008.44 806.061C1017.08 808.008 1025.73 808.942 1035.3 808.942C1040.13 808.942 1045.89 808.942 1050.64 808.008C1054.45 829.111 1064.11 847.412 1078.51 862.753Z" fill="#00A19B"/>
    <path d="M990.223 1063.59C978.7 1080.88 972.005 1101.05 970.993 1122.23C949.894 1123.16 929.729 1129.94 912.445 1141.47C903.803 1129.94 893.215 1120.36 881.692 1112.65C874.997 1108.84 868.223 1104.94 861.528 1103.07C897.964 1080.02 929.651 1048.33 952.697 1011.8C958.458 1031.04 970.915 1049.26 990.145 1063.67L990.223 1063.59Z" fill="#00A19B"/>
    <path d="M632.165 561.068C627.338 580.303 617.762 594.71 603.359 600.472C580.314 610.051 550.573 597.591 529.474 570.724C524.647 564.962 519.898 557.252 516.005 550.555C514.059 547.673 513.124 544.792 511.178 540.976C494.828 501.572 499.655 461.233 520.754 441.998C524.569 438.182 528.462 436.235 533.211 434.288C538.038 432.341 542.787 431.407 547.614 431.407H549.561C577.433 431.407 608.108 456.405 624.458 494.797C625.392 497.678 627.338 501.494 628.273 504.375C631.153 512.085 633.1 519.717 634.034 528.361C634.968 538.951 634.968 550.477 632.088 560.99L632.165 561.068Z" fill="#9E1F63"/>
    <path d="M1143.75 699.528C1143.75 710.119 1140.87 721.645 1133.17 733.17C1121.64 751.393 1103.43 766.812 1080.38 775.456C1077.5 776.39 1073.68 778.337 1070.8 779.272C1063.1 782.153 1055.47 784.1 1046.82 785.034C1035.3 786.981 1022.84 785.969 1012.26 783.088C993.026 778.259 978.623 768.681 972.939 754.274C967.178 739.867 969.124 722.579 979.635 706.226C985.396 697.582 993.104 688.937 1001.75 681.228L1002.68 680.293C1008.44 675.465 1016.15 670.715 1022.84 666.821C1025.73 664.874 1028.61 663.94 1032.42 663.005C1047.76 656.308 1064.11 653.427 1078.51 653.427C1086.22 653.427 1092.91 654.361 1099.61 656.308C1113.08 659.189 1123.59 664.952 1130.36 672.662C1134.18 676.478 1136.12 680.371 1138.07 685.122C1142.9 689.95 1143.83 694.7 1143.83 699.528H1143.75Z" fill="#9E1F63"/>
    <path d="M901.857 1284.36C898.042 1287.25 894.149 1290.13 889.4 1292.07C884.573 1294.02 879.824 1294.96 874.997 1294.96C846.19 1295.89 814.503 1270.97 798.231 1231.57C797.297 1228.68 795.351 1224.87 794.416 1221.99C791.536 1214.28 789.589 1205.63 788.655 1198C784.84 1164.36 795.351 1134.61 819.408 1124.96C824.235 1123.01 829.996 1122.07 835.758 1122.07C846.346 1122.07 856.856 1125.89 867.445 1132.67C877.021 1138.43 885.663 1146.14 892.436 1155.72C897.263 1161.48 902.013 1169.19 904.893 1175.89C906.84 1178.77 907.774 1181.65 908.708 1185.46C927.939 1224.87 923.112 1265.21 902.013 1284.44L901.857 1284.36Z" fill="#9E1F63"/>
    <path d="M634.112 1198.94C633.178 1206.65 631.231 1214.28 628.351 1222.92C627.416 1225.8 626.404 1229.62 624.536 1232.5C608.186 1271.9 576.577 1296.9 547.77 1295.89C542.943 1295.89 538.194 1294.96 533.367 1293.01C528.54 1291.06 524.725 1288.18 520.91 1285.3C499.811 1266.06 494.984 1225.73 511.334 1186.32C512.268 1183.44 514.214 1179.62 516.161 1176.74C519.976 1169.03 523.868 1162.34 528.618 1156.57C536.325 1146.99 544.967 1139.29 553.609 1133.52C569.959 1122.93 587.243 1120.05 601.568 1126.83C615.971 1132.59 626.56 1146.99 630.375 1166.23C635.202 1175.81 635.202 1187.33 634.19 1198.86L634.112 1198.94Z" fill="#9E1F63"/>
    <path d="M419.075 1045.29C413.314 1050.12 405.606 1054.87 398.91 1058.76C396.03 1060.71 393.149 1061.64 389.334 1063.59C366.289 1073.17 342.309 1076.05 322.145 1071.3C308.676 1068.42 298.165 1062.66 291.392 1054.01C287.577 1050.2 285.631 1046.3 283.684 1041.55C281.738 1036.72 280.803 1031.97 280.803 1027.15C280.803 1016.55 283.684 1005.03 291.392 993.504C297.153 984.86 304.861 976.216 313.503 968.506C322.145 960.797 332.733 955.034 344.256 950.284C347.136 949.349 350.951 947.402 353.832 946.468C361.54 943.587 369.17 941.64 377.811 940.705C382.639 939.771 386.453 939.771 391.28 939.771C398.988 939.771 405.684 940.705 412.379 941.718C431.61 946.546 445.935 956.124 451.696 970.531C458.392 995.529 445.935 1025.28 419.075 1045.45V1045.29Z" fill="#9E1F63"/>
    <path d="M448.816 754.274C443.054 768.681 428.651 779.272 409.499 783.088C398.91 785.969 387.388 785.969 374.931 785.034C367.223 784.1 359.593 782.153 350.951 779.272C348.071 778.337 344.256 777.325 341.375 775.456C318.33 765.877 300.112 750.458 288.589 733.17C281.893 721.645 278.001 710.119 278.001 699.528C278.001 694.7 278.935 689.95 280.881 685.122C282.828 680.293 285.708 676.478 288.589 672.662C296.297 664.952 306.807 659.189 319.342 656.308C326.038 654.361 333.745 653.427 340.441 653.427C355.778 653.427 371.194 656.308 386.531 663.005C389.412 663.94 393.227 665.887 396.108 667.834C403.815 671.649 410.511 675.543 416.272 680.293C425.848 688.003 433.556 696.647 439.317 705.291C452.786 722.579 454.655 739.867 448.894 754.274H448.816Z" fill="#9E1F63"/>
    <path d="M911.511 539.808C910.577 542.689 908.63 546.505 907.696 549.387C903.881 557.096 899.988 563.793 895.239 569.556C874.14 596.423 845.334 609.895 821.354 599.304C797.375 589.725 786.787 559.9 790.601 526.258C791.536 518.548 793.482 510.917 796.363 502.273C797.297 499.391 798.309 495.575 800.178 492.694C816.527 453.29 848.137 428.292 876.943 429.304C881.77 429.304 886.519 430.239 891.347 432.186C896.174 434.133 899.988 437.014 903.803 439.895C923.034 460.065 927.783 501.416 911.511 539.808Z" fill="#9E1F63"/>
    <path d="M1143.75 1026.83C1143.75 1031.66 1142.82 1036.41 1140.87 1041.24C1138.93 1046.07 1136.05 1049.89 1133.17 1053.7C1125.46 1061.41 1114.95 1067.17 1102.41 1070.99C1081.31 1075.82 1057.33 1072.94 1035.22 1063.28C1032.34 1062.35 1028.53 1060.4 1025.65 1058.45C1017.94 1054.64 1011.24 1050.74 1005.48 1045.99C978.622 1024.89 965.154 995.996 975.742 972.011C981.503 957.604 995.906 947.013 1015.06 943.197C1021.75 941.25 1028.53 941.25 1036.16 941.25C1039.97 941.25 1044.8 941.25 1049.63 942.185C1057.33 943.119 1064.96 945.066 1073.61 947.948C1076.49 948.882 1080.3 949.894 1083.18 951.763C1106.23 961.342 1125.38 976.761 1135.97 994.049C1140.8 1003.63 1144.61 1015.15 1143.68 1026.68L1143.75 1026.83Z" fill="#9E1F63"/>
    <path d="M1183.15 1323.93C1179.33 1327.74 1175.44 1331.63 1171.63 1335.45C1135.19 1366.21 1080.46 1364.26 1045.89 1329.69C1043.94 1327.74 1041.06 1324.86 1038.18 1321.04L1031.49 1312.4L1022.84 1318.16C987.342 1339.27 942.186 1334.52 911.511 1306.64C943.198 1282.65 952.775 1228.84 931.676 1176.9C929.729 1171.14 926.849 1166.31 923.968 1160.54C940.318 1149.95 960.404 1144.19 980.569 1145.2L994.038 1146.14L993.104 1132.67C992.169 1112.5 996.919 1092.33 1007.51 1075.97C1012.33 1078.85 1018.1 1081.74 1023.86 1083.68C1042.07 1091.39 1061.31 1095.21 1079.52 1095.21C1088.17 1095.21 1097.74 1094.27 1106.38 1092.33C1126.55 1087.5 1142.82 1077.92 1153.41 1063.51C1182.21 1093.26 1186.96 1139.44 1164.93 1174.95L1159.17 1183.6L1166.88 1190.29C1169.76 1193.17 1172.64 1195.12 1175.52 1198C1211.96 1232.58 1213.9 1287.32 1183.23 1323.85L1183.15 1323.93Z" fill="#004987"/>
    <path d="M882.704 1319.02C881.77 1360.29 852.964 1395.88 812.635 1406.47L803.058 1409.35L803.993 1419.94C803.993 1423.76 804.927 1427.65 804.927 1430.54C804.927 1481.47 763.663 1522.74 712.746 1523.75H711.812C660.972 1523.75 619.631 1481.47 619.631 1430.54C619.631 1427.65 619.631 1423.84 620.565 1419.01L621.499 1408.42L611.923 1405.54C571.594 1394.95 542.787 1359.44 541.853 1318.08C544.734 1318.08 547.614 1319.02 551.429 1319.02C588.878 1319.02 628.195 1288.26 648.359 1241.22C650.306 1235.46 652.174 1229.7 654.121 1223.93C673.351 1227.75 691.569 1238.34 704.96 1253.68L713.602 1263.26L722.244 1253.68C735.713 1238.34 753.931 1227.75 773.084 1223.93C775.03 1229.7 776.899 1235.46 778.845 1241.22C798.076 1288.34 838.327 1319.02 875.775 1319.02H882.471H882.704Z" fill="#004987"/>
    <path d="M511.256 1306.64C481.515 1335.45 435.425 1340.28 399.922 1318.16L391.28 1312.4L384.585 1320.11C381.704 1322.99 379.758 1325.87 376.877 1328.75C342.309 1363.33 288.589 1365.28 252.075 1334.52C248.26 1330.7 243.433 1325.87 239.618 1322.06C226.149 1305.7 218.519 1284.6 218.519 1263.42C218.519 1238.42 228.095 1215.37 245.379 1198.08C247.326 1195.2 250.206 1193.25 254.021 1190.37L262.663 1183.67L256.902 1175.03C235.803 1139.52 240.552 1093.34 268.424 1063.59C279.013 1078 295.285 1087.58 315.449 1092.4C324.091 1094.35 332.733 1095.29 342.309 1095.29C360.528 1095.29 379.758 1091.47 397.976 1083.76C403.737 1081.81 408.564 1078.93 414.326 1076.05C424.914 1092.4 430.675 1112.57 429.663 1132.74L428.729 1146.22L442.198 1145.28C462.363 1144.35 482.527 1149.1 498.799 1160.62C495.918 1165.45 493.038 1171.21 491.091 1176.98C468.98 1227.91 478.634 1281.72 511.256 1306.71V1306.64Z" fill="#004987"/>
    <path d="M349.939 922.327C344.178 924.274 338.417 926.143 332.655 928.09C304.783 939.615 282.75 957.838 268.347 979.954C256.824 998.177 253.009 1016.48 254.878 1033.77C213.614 1032.83 178.112 1004.02 167.524 963.6L164.643 954.022L156.935 954.956C153.12 954.956 149.228 955.891 145.413 955.891C94.5731 955.891 52.2975 914.617 52.2975 862.675C52.2975 810.733 93.561 769.46 145.413 769.46C148.293 769.46 152.108 769.46 156.935 770.394L167.524 771.329L170.404 761.75C180.993 721.411 216.495 692.598 257.758 691.585C254.878 708.873 259.705 728.108 271.227 745.396C284.696 767.513 307.664 785.735 335.536 797.261C341.297 799.208 347.059 801.077 352.82 803.023C349.005 822.258 338.417 840.481 323.079 853.953L313.503 862.597L323.079 871.241C335.536 884.714 346.124 902.936 349.939 922.171V922.327Z" fill="#004987"/>
    <path d="M490.079 549.542C492.025 555.305 494.906 560.133 497.787 565.896C481.437 576.487 461.35 582.249 441.186 580.303L427.717 579.368L428.651 592.84C429.585 613.01 424.836 633.179 413.314 649.533C408.487 646.652 402.725 643.77 396.964 641.823C369.092 630.298 340.363 627.417 315.371 633.179C295.207 638.008 278.935 647.586 268.347 661.993C239.54 632.245 234.713 586.065 256.824 550.555L262.585 541.911L253.943 535.213C251.063 532.332 248.182 530.385 245.301 527.504C228.017 510.216 218.441 486.23 218.441 462.167C218.441 440.051 226.149 419.881 239.54 402.593C243.355 398.777 247.248 394.884 251.063 390.133C268.347 375.727 289.445 368.017 310.544 368.017C334.524 368.017 358.503 376.661 375.787 394.884C378.668 397.765 380.614 399.712 383.495 403.528L390.19 412.172L398.832 406.409C434.335 385.305 480.425 390.056 510.166 417.935C478.479 443.867 468.902 497.678 490.001 549.542H490.079Z" fill="#004987"/>
    <path d="M882.704 407.499C879.824 407.499 876.943 406.565 873.128 406.565C835.68 406.565 796.363 437.325 776.198 484.361C774.252 490.124 772.383 495.887 770.437 501.65C751.207 497.834 732.988 487.243 719.597 471.902L710.955 462.323L702.313 471.902C688.844 487.243 671.56 496.899 651.474 501.65C649.527 495.887 647.659 490.124 645.712 484.361C624.613 433.432 579.457 401.737 540.14 407.499C541.074 366.148 569.881 330.637 610.21 320.047L619.786 317.165L618.852 306.574C618.852 302.758 617.918 298.865 617.918 295.049C617.918 244.119 659.181 201.833 710.099 201.833H711.033C761.873 201.833 803.214 243.107 803.214 295.049C803.214 297.93 803.214 301.746 802.28 305.64L801.345 316.231L810.922 319.112C853.119 330.637 881.926 366.226 882.938 407.499H882.704Z" fill="#004987"/>
    <path d="M1166.8 550.321C1187.9 585.832 1183.15 630.999 1155.28 661.759C1144.69 647.352 1128.42 637.774 1108.25 632.946C1099.61 630.999 1090.97 630.064 1081.39 630.064C1063.17 630.064 1043.94 633.88 1025.73 641.59C1019.96 643.537 1015.14 646.418 1009.38 649.299C998.787 632.946 993.026 612.776 994.972 592.607L995.906 579.135L982.438 580.069C962.273 581.003 942.108 576.253 925.837 565.662C928.717 560.834 931.598 555.071 933.544 549.309C954.643 498.379 945.067 444.568 913.38 419.57C944.133 390.756 989.211 385.928 1024.71 408.045L1033.35 413.807L1040.05 405.163C1042.93 402.282 1044.88 399.4 1047.76 396.519C1082.33 361.943 1137.06 359.996 1173.49 390.756C1177.31 394.572 1181.2 398.466 1185.02 402.282C1215.77 438.805 1213.82 493.551 1180.19 528.127C1178.24 530.074 1175.36 532.955 1171.55 535.836L1160.96 541.599L1166.72 550.243L1166.8 550.321Z" fill="#004987"/>
    <path d="M1370.31 862.753V863.688C1370.31 914.617 1328.12 955.891 1277.2 955.891C1274.32 955.891 1270.5 955.891 1265.68 954.956L1255.09 954.022L1252.21 963.6C1241.62 1003.94 1206.12 1032.75 1164.85 1033.77C1167.73 1016.48 1162.91 997.242 1151.38 979.954C1137.91 957.838 1114.95 939.615 1087.08 928.09C1081.31 926.143 1075.55 924.274 1070.73 922.327C1074.54 903.092 1085.13 884.869 1100.47 871.397L1110.04 862.753L1100.47 854.109C1085.13 840.637 1074.54 823.349 1070.73 803.179C1076.49 801.232 1082.25 799.363 1087.08 797.416C1114.95 785.891 1136.98 767.668 1151.38 745.552C1162.91 727.33 1166.72 709.029 1164.85 691.741C1206.12 692.675 1241.62 721.489 1252.21 761.906L1255.09 771.484L1265.68 770.55C1269.49 770.55 1273.38 769.615 1277.2 769.615C1329.05 770.55 1370.31 811.901 1370.31 862.831V862.753Z" fill="#004987"/>
    <path d="M750.272 800.376C746.457 809.02 724.346 843.596 720.531 841.649C716.717 839.702 725.358 800.376 729.173 791.654C732.988 783.01 743.577 775.3 748.404 776.313C751.284 778.259 754.165 791.654 750.35 800.298L750.272 800.376Z" fill="white"/>
    <path d="M694.528 934.709C690.713 943.353 680.124 951.997 675.297 950.05C671.483 948.103 669.536 934.709 672.417 926.065C676.232 917.421 698.343 882.845 702.158 884.791C706.985 885.726 698.343 925.13 694.45 934.787L694.528 934.709Z" fill="white"/>
    <path d="M703.17 842.584C699.355 844.53 677.244 809.954 673.429 801.31C669.614 792.666 671.482 779.194 676.31 777.325C680.124 775.378 691.647 783.088 695.54 792.666C698.42 800.376 707.062 840.715 703.248 842.661L703.17 842.584Z" fill="white"/>
    <path d="M747.314 949.116C743.499 951.063 731.976 943.353 728.083 933.775C724.269 925.131 715.627 884.792 719.441 883.779C723.256 881.832 745.367 916.409 749.182 925.053C754.009 934.631 751.129 948.104 747.236 949.038L747.314 949.116Z" fill="white"/>
    <path d="M690.713 854.031C688.766 857.847 649.449 849.203 640.807 845.387C632.165 841.571 623.523 830.98 625.47 826.152C627.416 822.336 640.807 820.389 649.449 823.271C658.091 828.099 692.659 850.137 690.713 854.031Z" fill="white"/>
    <path d="M798.231 899.276C796.285 903.092 782.894 905.973 774.252 902.157C765.61 898.342 731.042 876.225 732.988 872.409C734.935 868.594 774.252 877.238 782.894 881.054C791.536 883.935 800.178 894.526 798.231 899.276Z" fill="white"/>
    <path d="M690.713 871.241C692.659 875.057 658.091 897.174 649.449 900.989C640.807 904.805 627.338 902.936 625.47 898.108C623.523 894.292 631.231 882.767 640.807 878.873C649.449 875.992 688.766 867.348 690.713 871.164V871.241Z" fill="white"/>
    <path d="M782.894 846.555C774.252 850.371 733.923 859.015 732.988 855.199C731.042 851.383 765.61 829.267 774.252 825.451C782.894 821.635 796.363 823.504 798.231 828.333C800.178 831.214 791.536 842.739 782.894 846.555Z" fill="white"/>

    <!-- GENIZA -->
    <path d="M138.328 439.35C124.547 458.507 108.665 470.033 90.6024 473.926C72.54 477.82 53.8546 472.758 34.3908 458.819C15.394 445.113 4.41638 428.214 1.38001 408.045C-1.5785 387.875 4.0271 367.861 18.2747 348.081C28.5516 333.83 40.5413 322.227 54.2439 313.505L79.3134 331.572C64.988 337.257 52.1418 347.926 40.8528 363.734C33.5343 373.858 30.7316 384.76 32.2108 396.363C33.7679 408.045 40.5413 418.168 52.5311 426.812C65.2994 436.002 77.5227 440.051 89.0453 438.805C100.568 437.559 110.533 431.095 119.02 419.414C121.433 416.066 123.769 412.094 126.027 407.577L85.1526 378.141L105.551 349.795L158.337 387.797C155.768 407.266 149.15 424.476 138.328 439.428V439.35Z" fill="inherit"/>
    <path d="M208.398 352.442L113.258 242.639L187.455 178.315L204.894 198.485L157.247 239.758L178.268 264.055L217.273 230.257L233.934 249.492L195.007 283.29L217.507 309.3L266.478 266.858L283.918 287.028L208.398 352.52V352.442Z" fill="inherit"/>
    <path d="M328.217 255.255L262.274 125.828L288.433 112.511L391.825 159.08L392.526 158.769L352.353 79.96L380.536 65.6311L446.48 195.058L419.853 208.608L315.994 160.015L315.293 160.326L356.323 240.926L328.14 255.255H328.217Z" fill="inherit"/>
    <path d="M507.986 176.758L470.148 36.5061L504.093 27.3169L541.931 167.569L507.986 176.758Z" fill="inherit"/>
    <path d="M711.812 145.219L592.615 154.719L592.07 154.018L653.031 30.899L587.71 36.1166L585.608 9.56147L704.104 0.138672L704.415 0.839542L641.742 124.115L709.787 118.663L711.89 145.219H711.812Z" fill="inherit"/>
    <path d="M749.494 144.751L828.206 9.87305L863.396 15.2464L889.634 166.245L852.964 160.638L848.448 124.66L799.477 117.106L782.115 149.735L749.649 144.751H749.494ZM819.408 80.1157L812.79 92.1862L845.022 97.1702L843.31 83.7758L838.872 46.7855L837.626 46.6297L819.408 80.1157Z" fill="inherit"/>

    <!-- LAB -->
    <path d="M1010.78 211.334L1078.82 82.9971L1109.89 99.4286L1054.38 204.247L1107.4 232.36L1094.94 255.956L1010.85 211.334H1010.78Z" fill="inherit"/>
    <path d="M1123.12 272.699L1261.24 199.886L1288.25 223.093L1230.64 365.136L1202.46 340.917L1217.64 307.976L1180.03 275.658L1148.04 294.192L1123.12 272.777V272.699ZM1216.63 254.866L1204.64 261.641L1229.4 282.901L1235 270.596L1250.81 236.877L1249.87 236.098L1216.63 254.866Z" fill="inherit"/>
    <path d="M1262.87 402.983L1380.82 318.178L1412.98 362.878C1422.71 376.35 1427.69 388.576 1428 399.634C1428.32 410.615 1423.8 419.57 1414.38 426.345C1407.92 431.018 1401.14 433.12 1394.14 432.731C1387.13 432.342 1380.43 429.772 1374.05 424.866L1373.66 425.177C1377.87 432.965 1379.66 441.141 1379.11 449.63C1378.57 458.118 1373.51 465.827 1363.93 472.68C1353.65 480.079 1342.75 482.103 1331.15 478.755C1319.55 475.406 1308.34 466.217 1297.44 451.109L1262.8 402.983H1262.87ZM1338.7 402.126L1333.8 395.273L1304.29 416.533L1313.01 428.681C1324.53 444.724 1335.51 449.007 1345.87 441.531C1351.24 437.637 1353.26 432.653 1351.78 426.501C1350.3 420.349 1346.02 412.25 1338.7 402.126ZM1386.2 369.185L1380.67 361.476L1352.8 381.567L1357.47 388.031C1368.45 403.294 1378.33 407.655 1387.29 401.27C1397.02 394.261 1396.63 383.592 1386.27 369.185H1386.2Z" fill="inherit"/>

    <!-- PRINCETON -->
    <path d="M47.2369 1294.88L108.665 1251.58L125.793 1275.95C130.62 1282.81 132.644 1289.5 132.022 1296.12C131.399 1302.74 127.74 1308.35 121.2 1312.94C115.205 1317.15 108.587 1318.4 101.191 1316.6C93.7945 1314.81 87.1768 1309.67 81.1819 1301.19L77.367 1295.81L57.5138 1309.75L47.0812 1294.88H47.2369ZM110.378 1276.89L108.353 1274.01L88.3446 1288.1L89.9017 1290.28C93.4052 1295.19 96.753 1298.3 99.7894 1299.63C102.826 1301.03 106.329 1300.33 110.144 1297.6C116.606 1293.09 116.684 1286.16 110.3 1276.81L110.378 1276.89Z" fill="inherit"/>
    <path d="M96.9866 1362.78L153.432 1313.18L173.051 1335.53C178.579 1341.76 181.304 1348.22 181.382 1354.92C181.382 1361.54 178.501 1367.53 172.429 1372.83C169.081 1375.79 165.266 1377.66 160.984 1378.51C156.702 1379.37 152.264 1378.9 147.671 1377.27L138.25 1409.9L124.781 1394.63L134.435 1368.7C133.734 1368.08 132.722 1366.99 131.477 1365.51L127.117 1360.6L108.898 1376.57L96.9087 1362.94L96.9866 1362.78ZM157.87 1338.1L155.612 1335.45L137.238 1351.65L139.029 1353.67C142.999 1358.19 146.581 1360.92 149.85 1361.93C153.043 1362.94 156.468 1361.93 160.05 1358.73C165.967 1353.52 165.266 1346.59 158.025 1338.02L157.87 1338.1Z" fill="inherit"/>
    <path d="M155.378 1426.1L207.464 1371.9L220.543 1384.51L168.458 1438.71L155.378 1426.1Z" fill="inherit"/>
    <path d="M191.347 1460.21L238.139 1401.33L250.051 1410.83L250.362 1469.55L250.673 1469.78L279.169 1433.96L292.015 1444.16L245.224 1503.04L233.078 1493.38L233.623 1434.04L233.312 1433.81L204.194 1470.48L191.347 1460.28V1460.21Z" fill="inherit"/>
    <path d="M302.058 1541.58C291.703 1535.2 285.163 1527.41 282.438 1518.22C279.791 1509.03 281.66 1499.22 288.2 1488.63C294.662 1478.19 302.837 1471.73 312.724 1469.32C322.612 1466.9 332.967 1469 343.633 1475.55C350.406 1479.75 356.168 1484.97 360.839 1491.12L352.431 1504.75C349.161 1497.97 343.789 1492.29 336.392 1487.77C330.942 1484.42 325.493 1483.49 319.887 1484.81C314.281 1486.14 309.454 1490.19 305.406 1496.81C300.968 1504.05 299.333 1510.59 300.579 1516.35C301.824 1522.12 305.406 1526.94 311.556 1530.68C318.018 1534.65 325.025 1536.76 332.733 1536.91L324.948 1549.53C322.3 1549.53 318.875 1548.83 314.593 1547.42C310.311 1546.02 306.184 1544.08 302.136 1541.58H302.058Z" fill="inherit"/>
    <path d="M347.837 1565.96L380.303 1498.13L426.082 1520.09L420.087 1532.55L390.658 1518.46L383.495 1533.48L407.552 1545.01L401.869 1556.85L377.811 1545.32L370.104 1561.36L400.312 1575.85L394.317 1588.31L347.681 1565.96H347.837Z" fill="inherit"/>
    <path d="M434.257 1538.86L438.85 1525.85L503.237 1548.75L498.643 1561.75L474.819 1553.27L454.266 1611.05L437.137 1604.97L457.691 1547.19L434.257 1538.86Z" fill="inherit"/>
    <path d="M532.355 1634.96C521.143 1632.39 513.202 1627.01 508.453 1618.91C503.782 1610.81 502.614 1601.39 505.105 1590.57C507.83 1578.73 513.436 1569.93 521.922 1564.17C530.408 1558.33 540.452 1556.77 552.13 1559.49C563.419 1562.06 571.438 1567.36 576.109 1575.38C580.781 1583.32 581.949 1592.59 579.535 1603.18C576.888 1614.55 571.36 1623.43 562.874 1629.74C554.388 1636.05 544.189 1637.84 532.433 1635.11L532.355 1634.96ZM536.403 1621.87C542.554 1623.27 547.537 1622.11 551.585 1618.37C555.556 1614.63 558.436 1608.95 560.149 1601.39C561.94 1593.53 561.862 1587.06 559.838 1582C557.813 1576.94 553.921 1573.75 548.004 1572.42C542.087 1571.02 537.026 1572.11 532.978 1575.69C528.929 1579.28 525.971 1584.8 524.258 1592.36C522.467 1600.07 522.545 1606.53 524.569 1611.83C526.516 1617.12 530.486 1620.47 536.403 1621.87Z" fill="inherit"/>
    <path d="M600.089 1646.87L607.407 1572.03L622.511 1573.51L654.588 1622.65H654.977L659.415 1577.09L675.687 1578.73L668.368 1653.57L652.953 1652.09L621.188 1601.94H620.799L616.205 1648.51L599.933 1646.87H600.089Z" fill="inherit"/>

    <!-- UNIVERSITY -->
    <path d="M772.617 1653.18C762.418 1653.96 754.009 1652.17 747.314 1647.8C740.696 1643.44 736.959 1636.43 736.258 1626.78L732.755 1579.35L750.895 1578.03L754.243 1622.65C755.099 1634.57 761.25 1640.09 772.539 1639.24C782.582 1638.46 787.098 1631.84 786.164 1619.22L782.894 1575.61L801.034 1574.29L804.304 1618.68C805.083 1629.19 802.435 1637.45 796.285 1643.37C790.134 1649.28 782.271 1652.55 772.617 1653.26V1653.18Z" fill="inherit"/>
    <path d="M839.339 1644.69L824.235 1571.02L839.105 1567.98L884.262 1605.44H884.651L875.464 1560.51L891.502 1557.24L906.606 1630.91L891.424 1634.02L846.268 1595.47H845.879L855.299 1641.42L839.261 1644.69H839.339Z" fill="inherit"/>
    <path d="M936.736 1622.03L914.781 1550.15L932.143 1544.85L954.098 1616.73L936.736 1622.03Z" fill="inherit"/>
    <path d="M1019.57 1511.45L1019.42 1592.67L1001.51 1599.91L948.726 1540.18L967.489 1532.55L993.259 1564.25L1004.78 1578.65L1005.4 1578.42L1004.31 1560.35L1001.98 1518.61L1019.57 1511.45Z" fill="inherit"/>
    <path d="M1068.62 1570.4L1032.97 1504.2L1077.65 1480.06L1084.19 1492.21L1055.47 1507.71L1063.33 1522.35L1086.84 1509.66L1093.07 1521.26L1069.56 1533.95L1077.97 1549.6L1107.47 1533.72L1114.01 1545.87L1068.55 1570.4H1068.62Z" fill="inherit"/>
    <path d="M1137.91 1531.3L1095.48 1469.24L1120.09 1452.42C1126.94 1447.75 1133.71 1445.72 1140.33 1446.5C1146.95 1447.28 1152.47 1450.94 1156.99 1457.48C1159.48 1461.14 1160.96 1465.19 1161.27 1469.55C1161.58 1473.91 1160.65 1478.27 1158.39 1482.63L1189.69 1495.95L1172.87 1507.47L1148.27 1494.78C1147.57 1495.4 1146.32 1496.26 1144.69 1497.35L1139.24 1501.09L1152.94 1521.1L1137.91 1531.38V1531.3ZM1120.79 1467.91L1117.91 1469.86L1131.76 1490.11L1134.02 1488.55C1139 1485.12 1142.2 1481.93 1143.52 1478.82C1144.92 1475.7 1144.3 1472.28 1141.57 1468.3C1137.14 1461.76 1130.21 1461.61 1120.79 1467.84V1467.91Z" fill="inherit"/>
    <path d="M1204.95 1479.6L1195.37 1468.3C1198.64 1467.53 1202.54 1466.05 1206.82 1463.79C1211.18 1461.53 1214.91 1459.11 1217.95 1456.54C1220.6 1454.29 1222.39 1451.87 1223.09 1449.38C1223.79 1446.89 1223.4 1444.71 1221.84 1442.92C1221.22 1442.22 1220.44 1441.67 1219.51 1441.36C1218.57 1441.05 1217.64 1440.89 1216.7 1440.97C1215.77 1441.05 1214.6 1441.28 1213.12 1441.75C1211.64 1442.22 1210.4 1442.68 1209.39 1443.07C1208.37 1443.46 1206.9 1444.09 1204.95 1444.94C1203 1445.72 1201.45 1446.34 1200.28 1446.81C1194.44 1449.15 1189.3 1450.08 1184.78 1449.77C1180.27 1449.38 1175.99 1446.89 1172.02 1442.22C1167.42 1436.76 1165.79 1430.69 1167.11 1423.99C1168.43 1417.3 1172.09 1411.38 1177.93 1406.39C1185.17 1400.24 1192.26 1396.35 1199.03 1394.79L1208.76 1406.32C1205.88 1406.78 1202.54 1407.87 1198.72 1409.74C1194.91 1411.53 1191.48 1413.71 1188.52 1416.28C1185.87 1418.54 1184.08 1420.88 1182.99 1423.45C1181.9 1426.02 1182.14 1428.12 1183.54 1429.83C1185.02 1431.63 1186.96 1432.33 1189.38 1432.09C1191.71 1431.86 1195.29 1430.69 1200.04 1428.74C1203.47 1427.34 1206.27 1426.25 1208.61 1425.55C1210.94 1424.85 1213.67 1424.3 1216.86 1423.92C1220.05 1423.53 1223.01 1423.92 1225.81 1425.08C1228.62 1426.33 1231.11 1428.28 1233.44 1431C1238.43 1436.92 1240.06 1443.23 1238.27 1449.85C1236.48 1456.54 1232.28 1462.7 1225.58 1468.38C1219.74 1473.37 1212.89 1477.18 1204.87 1479.83L1204.95 1479.6Z" fill="inherit"/>
    <path d="M1266.38 1429.44L1213.43 1376.1L1226.36 1363.25L1279.3 1416.6L1266.38 1429.44Z" fill="inherit"/>
    <path d="M1249.4 1360.06L1238.89 1351.1L1283.19 1299.08L1293.7 1308.04L1277.35 1327.27L1324.07 1367.07L1312.31 1380.93L1265.6 1341.14L1249.48 1360.06H1249.4Z" fill="inherit"/>
    <path d="M1330.76 1229.85L1354.9 1281.17L1376.78 1295.97L1366.58 1311L1344.23 1295.89L1288.8 1291.92L1300.4 1274.71L1322.51 1277.36L1338.16 1279.54L1338.47 1279.15L1330.76 1265.21L1320.1 1245.58L1330.69 1229.85H1330.76Z" fill="inherit"/>
</svg>
