<svg id="princeton-logo" viewBox="0 0 137 39" fill="inherit" xmlns="http://www.w3.org/2000/svg">
    <g>
        <path
            d="M 136.78 7.0338 C 136.782 6.9661 136.768 6.8988 136.739 6.8377 L 136.422 6.8377 C 135.734 6.8377 135.292 6.8676 134.052 6.8676 C 133.628 6.8676 132.992 6.8377 132.839 6.8377 L 132.48 6.8377 C 132.439 6.8676 132.424 7.0189 132.424 7.0736 C 132.42 7.1581 132.445 7.2414 132.495 7.3095 C 132.983 7.3833 133.459 7.5184 133.914 7.7116 C 134.175 8.1375 134.313 8.6276 134.314 9.1276 C 134.326 9.3337 134.34 9.5425 134.34 10.1116 L 134.34 13.0083 C 134.342 13.2073 134.333 13.4063 134.314 13.6044 C 134.079 13.3408 133.749 12.8442 133.198 12.2182 L 128.593 7.0885 C 128.534 7.0186 128.465 6.9576 128.388 6.9074 C 128.277 6.9074 128.084 6.8946 127.976 6.8946 C 127.091 6.8946 125.494 6.8526 125.26 6.8526 C 125.228 6.913 125.209 6.9789 125.203 7.0466 C 125.212 7.1352 125.226 7.2232 125.245 7.3102 C 125.636 7.3734 125.997 7.5574 126.279 7.8367 C 126.556 8.0976 126.801 8.3913 127.007 8.7113 C 127.054 8.8546 127.073 9.0055 127.065 9.156 C 127.065 9.8765 127.023 10.8875 127.023 11.8559 L 127.023 14.6708 C 127.026 15.0235 126.999 15.3758 126.942 15.7238 C 126.536 16.0938 126.034 16.3402 125.495 16.4343 C 125.463 16.5135 125.444 16.5975 125.44 16.6829 C 125.44 16.7248 125.453 16.8641 125.48 16.879 L 125.742 16.879 C 126.019 16.879 126.653 16.8371 127.065 16.8371 C 127.673 16.8371 128.085 16.879 128.651 16.879 L 129.478 16.879 C 129.532 16.8641 129.548 16.6978 129.548 16.6431 C 129.548 16.5667 129.534 16.4909 129.507 16.4193 C 128.87 16.3445 128.281 16.0389 127.852 15.5597 C 127.73 14.9951 127.67 14.4187 127.674 13.841 C 127.674 13.3991 127.659 12.7873 127.659 11.9703 C 127.659 10.8726 127.674 9.9155 127.686 9.4317 C 127.77 9.5283 127.866 9.6527 127.935 9.7372 L 134.303 16.9337 C 134.369 17.0048 134.619 17.0154 134.688 17.0154 C 134.744 17.0207 134.801 17.0114 134.853 16.9884 C 134.936 16.7911 134.978 16.5789 134.977 16.3646 C 134.977 15.9646 134.962 15.5476 134.962 15.3387 L 134.962 9.5553 C 134.962 7.821 135.777 7.3344 136.727 7.2946 C 136.765 7.212 136.784 7.1219 136.782 7.031 Z M 120.987 11.436 C 120.987 13.5326 120.409 15.3763 119.624 16.0272 C 119.21 16.3623 118.692 16.5386 118.162 16.5245 C 117.802 16.544 117.444 16.4685 117.123 16.3055 C 116.801 16.1424 116.528 15.8975 116.33 15.5952 C 115.758 14.4829 115.478 13.2424 115.515 11.9909 C 115.515 10.0633 116.009 8.5528 116.893 7.8175 C 117.291 7.4699 117.8 7.2777 118.328 7.2761 C 118.693 7.2738 119.054 7.3593 119.38 7.5257 C 119.706 7.692 119.988 7.9343 120.202 8.2324 C 120.793 9.1898 121.068 10.3106 120.987 11.4346 Z M 123.481 11.7003 C 123.52 10.8217 123.31 9.95 122.876 9.1865 C 122.442 8.4231 121.801 7.7993 121.029 7.3876 C 120.231 6.9274 119.329 6.6826 118.409 6.6772 C 117.483 6.688 116.575 6.9292 115.765 7.379 C 114.954 7.8289 114.267 8.4736 113.764 9.2555 C 113.244 10.0963 112.967 11.067 112.967 12.0577 C 112.967 12.8408 113.145 13.6135 113.486 14.3173 C 113.828 15.021 114.324 15.6374 114.937 16.1195 C 115.849 16.7882 116.953 17.1387 118.081 17.1177 C 118.797 17.1172 119.508 16.9808 120.174 16.7156 C 120.908 16.4357 121.564 15.9845 122.09 15.3991 C 123.006 14.389 123.504 13.0647 123.481 11.6974 Z M 111.365 9.9553 L 111.365 7.1283 C 111.365 6.9194 111.284 6.8647 111.077 6.8647 C 110.662 6.8647 108.486 6.9194 106.282 6.9194 C 104.571 6.9194 103.151 6.8924 102.381 6.8924 L 101.358 6.8924 C 101.18 6.8924 101.126 6.9322 101.126 7.1283 L 101.126 9.7763 C 101.192 9.8157 101.268 9.8348 101.345 9.831 C 101.447 9.8356 101.549 9.8265 101.649 9.804 C 102.019 8.8381 102.699 8.0235 103.58 7.4885 C 103.992 7.4466 104.804 7.4338 105.024 7.4338 C 105.039 7.5852 105.054 8.0733 105.066 8.6537 C 105.08 9.6484 105.08 10.0818 105.08 12.4371 C 105.08 14.4769 105.066 15.3934 105.039 15.6144 C 104.984 16.0016 105.054 16.2929 103.399 16.3618 C 103.364 16.4639 103.35 16.5722 103.357 16.6801 C 103.355 16.755 103.36 16.83 103.372 16.9039 L 103.908 16.9039 C 104.419 16.9039 105.616 16.8471 106.116 16.8471 C 106.513 16.8471 107.797 16.889 108.637 16.889 L 109.022 16.889 C 109.056 16.7962 109.07 16.6971 109.063 16.5984 C 109.066 16.5122 109.047 16.4268 109.009 16.3497 C 108.521 16.3856 108.032 16.2948 107.589 16.0861 C 107.505 15.7457 107.463 15.3961 107.464 15.0453 C 107.451 13.5468 107.437 12.9785 107.437 11.9795 C 107.437 10.69 107.452 9.8182 107.452 7.4182 C 107.645 7.4182 108.087 7.4033 108.498 7.4182 C 109.157 7.5505 109.742 7.9262 110.138 8.4711 C 110.443 8.9436 110.689 9.4521 110.871 9.9852 C 110.948 10.0055 111.027 10.0139 111.106 10.01 C 111.196 10.0091 111.285 9.9905 111.368 9.9553 Z M 99.488 14.4619 C 99.492 14.3284 99.487 14.1948 99.473 14.0619 C 99.411 14.0237 99.338 14.0088 99.266 14.02 C 99.164 14.0155 99.062 14.0246 98.962 14.047 C 98.641 14.8708 98.12 15.6002 97.446 16.1685 C 97.119 16.3046 96.763 16.3566 96.411 16.3199 L 95.281 16.3199 C 94.977 16.3251 94.673 16.3013 94.372 16.2488 C 94.165 16.209 93.949 15.8765 93.849 15.6556 C 93.709 15.3872 93.655 15.0814 93.696 14.781 L 93.696 11.7443 L 94.207 11.7443 C 94.497 11.7531 94.783 11.8197 95.047 11.9404 C 95.315 12.0557 95.534 12.2612 95.667 12.5216 C 95.792 12.8938 95.871 13.2802 95.901 13.6719 C 96.017 13.7138 96.139 13.7324 96.262 13.7266 C 96.358 13.7319 96.453 13.7084 96.536 13.6591 C 96.536 13.284 96.452 12.2729 96.452 11.7166 C 96.452 11.0239 96.548 10.0669 96.593 9.5674 C 96.507 9.5277 96.413 9.5089 96.319 9.5127 C 96.198 9.5049 96.077 9.5191 95.961 9.5546 C 95.919 9.7457 95.766 10.3298 95.738 10.3717 C 95.525 10.7191 95.192 10.9754 94.803 11.0921 C 94.541 11.1595 94.272 11.1969 94.002 11.2037 L 93.711 11.2037 L 93.711 9.9134 C 93.711 8.5841 93.738 8.1543 93.75 7.9035 C 93.765 7.7372 93.792 7.5582 93.807 7.4338 C 94.081 7.4028 94.358 7.3928 94.634 7.404 C 95.431 7.404 95.804 7.4189 95.928 7.4189 C 96.244 7.4182 96.552 7.5154 96.812 7.6974 C 97.355 8.1821 97.804 8.7654 98.133 9.4168 C 98.229 9.4387 98.327 9.4477 98.425 9.4438 C 98.506 9.4438 98.521 9.4168 98.632 9.3592 C 98.632 8.5145 98.576 7.4189 98.548 7.0715 C 98.533 6.9294 98.507 6.8924 98.232 6.8924 C 98.121 6.8924 97.596 6.8654 97.047 6.8654 C 96.262 6.8654 95.943 6.8782 94.743 6.8782 C 94.096 6.8782 92.758 6.8931 92.193 6.8931 C 91.368 6.8931 90.664 6.8661 90.306 6.8661 L 89.837 6.8661 C 89.795 6.9324 89.771 7.0085 89.767 7.0871 C 89.768 7.1833 89.793 7.2777 89.837 7.3628 C 90.177 7.3895 90.513 7.4411 90.845 7.5169 C 90.992 7.6175 91.114 7.7515 91.2 7.9082 C 91.285 8.0649 91.333 8.2397 91.339 8.4186 C 91.369 8.7091 91.381 9.5141 91.381 10.1529 L 91.381 13.0076 C 91.381 13.5916 91.368 14.4357 91.354 14.7838 C 91.329 15.2367 91.227 15.6819 91.053 16.1003 C 90.654 16.2423 90.234 16.313 89.811 16.3092 C 89.767 16.4054 89.743 16.5092 89.74 16.6147 C 89.742 16.7023 89.766 16.7879 89.811 16.8634 L 90.265 16.8634 C 90.707 16.8634 92.332 16.8215 92.704 16.8215 C 93.05 16.8215 93.712 16.8485 94.509 16.8485 C 94.952 16.8485 96.248 16.933 99.029 16.933 C 99.154 16.9442 99.28 16.9351 99.402 16.906 C 99.441 16.8381 99.46 16.7605 99.456 16.6822 C 99.486 16.4065 99.486 15.5866 99.486 14.4641 Z M 87.827 14.9508 C 87.798 14.8501 87.735 14.7623 87.65 14.7019 C 87.565 14.6415 87.462 14.612 87.358 14.6183 C 87.328 14.6183 87.287 14.631 87.262 14.631 C 86.978 15.1193 86.574 15.5254 86.088 15.8097 C 85.602 16.0939 85.051 16.2467 84.489 16.2531 C 83.898 16.2561 83.319 16.0842 82.824 15.7588 C 82.329 15.4334 81.94 14.9688 81.706 14.4229 C 81.423 13.6126 81.28 12.76 81.282 11.9014 C 81.254 11.0726 81.395 10.2468 81.694 9.4743 C 82.302 7.8672 83.184 7.3649 84.26 7.3649 C 84.699 7.3861 85.127 7.5101 85.509 7.7271 C 85.892 7.944 86.219 8.248 86.465 8.6147 C 86.779 9.1367 87.016 9.7027 87.166 10.2942 C 87.265 10.3182 87.367 10.3315 87.47 10.334 C 87.588 10.3217 87.702 10.2789 87.8 10.2097 C 87.788 10.0555 87.65 8.9898 87.65 8.6573 C 87.65 8.2402 87.758 7.5617 87.758 7.2981 C 87.595 7.2022 87.411 7.1491 87.222 7.1439 C 87.042 7.3122 86.885 7.5032 86.753 7.7123 C 85.887 7.0207 84.799 6.6708 83.694 6.7283 C 83.055 6.7089 82.419 6.8204 81.824 7.0561 C 81.229 7.2919 80.688 7.6469 80.234 8.0995 C 79.737 8.6155 79.349 9.2282 79.096 9.9002 C 78.842 10.5722 78.728 11.2892 78.76 12.0072 C 78.738 12.8033 78.902 13.5936 79.24 14.314 C 79.577 15.0343 80.079 15.6646 80.704 16.1536 C 81.652 16.7931 82.775 17.1187 83.916 17.0851 C 84.579 17.1308 85.243 17.0203 85.856 16.7624 C 86.469 16.5045 87.014 16.1063 87.447 15.5994 C 87.604 15.4006 87.734 15.1818 87.835 14.9486 Z M 77.103 7.0338 C 77.104 6.9661 77.089 6.8992 77.061 6.8377 L 76.743 6.8377 C 76.054 6.8377 75.6127 6.8676 74.3719 6.8676 C 73.9482 6.8676 73.3126 6.8377 73.1594 6.8377 L 72.8014 6.8377 C 72.7597 6.8676 72.7449 7.0189 72.7449 7.0736 C 72.7397 7.1582 72.7647 7.2419 72.8155 7.3095 C 73.3036 7.3839 73.7806 7.519 74.2356 7.7116 C 74.4943 8.1382 74.6318 8.6279 74.6332 9.1276 C 74.648 9.3337 74.6629 9.5425 74.6629 10.1116 L 74.6629 13.0083 C 74.6655 13.2074 74.6556 13.4065 74.6332 13.6044 C 74.4009 13.3408 74.0683 12.8442 73.5174 12.2182 L 68.9173 7.0885 C 68.8571 7.0184 68.7872 6.9574 68.7097 6.9074 C 68.5988 6.9074 68.4061 6.8946 68.2973 6.8946 C 67.4132 6.8946 65.8158 6.8526 65.5813 6.8526 C 65.5508 6.9131 65.5323 6.979 65.5269 7.0466 C 65.5352 7.1351 65.5484 7.2232 65.5665 7.3102 C 65.9573 7.3734 66.3189 7.5574 66.601 7.8367 C 66.8795 8.0969 67.125 8.3906 67.3319 8.7113 C 67.3773 8.8549 67.3957 9.0057 67.3863 9.156 C 67.3863 9.8765 67.3468 10.8875 67.3468 11.8559 L 67.3468 14.6708 C 67.3492 15.0236 67.3211 15.3759 67.2627 15.7238 C 66.8571 16.0938 66.3553 16.3402 65.8158 16.4343 C 65.785 16.5138 65.7667 16.5977 65.7614 16.6829 C 65.7614 16.7248 65.7741 16.8641 65.8009 16.879 L 66.0629 16.879 C 66.3398 16.879 66.9739 16.8371 67.3863 16.8371 C 67.9936 16.8371 68.4061 16.879 68.9717 16.879 L 69.7965 16.879 C 69.8509 16.8641 69.8672 16.6978 69.8672 16.6431 C 69.8665 16.5666 69.8524 16.4909 69.8255 16.4193 C 69.1893 16.3443 68.6021 16.0387 68.1737 15.5597 C 68.053 14.9949 67.9933 14.4187 67.9958 13.841 C 67.9958 13.3991 67.9809 12.7873 67.9809 11.9703 C 67.9809 10.8726 67.9958 9.9155 68.0078 9.4317 C 68.0918 9.5283 68.1878 9.6527 68.257 9.7372 L 74.6226 16.9337 C 74.7418 16.9937 74.8743 17.0219 75.0075 17.0154 C 75.064 17.0211 75.1209 17.0118 75.1727 16.9884 C 75.2557 16.7911 75.2977 16.5789 75.2963 16.3646 C 75.2963 15.9646 75.2815 15.5476 75.2815 15.3387 L 75.2815 9.5553 C 75.2815 7.821 76.096 7.3344 77.047 7.2946 C 77.085 7.2121 77.105 7.122 77.103 7.031 Z M 63.4741 16.6396 C 63.4747 16.5451 63.4606 16.4512 63.4324 16.3611 C 63.0905 16.338 62.7501 16.2965 62.4127 16.2367 C 62.1636 15.9306 62.0016 15.5623 61.9438 15.171 C 61.9317 14.5053 61.9169 13.1312 61.9169 11.8445 L 61.9169 8.4342 C 61.9039 8.1624 61.9929 7.8956 62.1662 7.6868 C 62.5343 7.4548 62.9592 7.3301 63.3935 7.3265 C 63.4198 7.2412 63.4331 7.1523 63.4331 7.0629 C 63.4317 6.983 63.4072 6.9052 63.3625 6.8391 L 62.9628 6.8391 C 62.3851 6.8391 61.0342 6.9102 60.5617 6.9102 C 60.2729 6.9102 58.922 6.8704 58.3147 6.8555 L 58.0131 6.8555 C 57.9609 6.9224 57.9357 7.0066 57.9425 7.0914 C 57.9449 7.1798 57.9538 7.2679 57.9693 7.355 C 58.3363 7.3509 58.7008 7.4167 59.0434 7.5489 C 59.1988 7.7015 59.32 7.8857 59.3988 8.0892 C 59.4776 8.2928 59.5122 8.5109 59.5003 8.729 C 59.5131 8.9926 59.5251 9.561 59.5399 10.8356 C 59.5547 11.5291 59.5667 12.5003 59.5667 13.3024 C 59.5667 13.7046 59.5399 14.6069 59.5251 15.0936 C 59.5119 15.3801 59.4475 15.6619 59.3351 15.9256 C 59.1699 16.062 59.0018 16.3128 57.9933 16.3824 C 57.9662 16.4769 57.9522 16.5746 57.9517 16.673 C 57.9517 16.7845 57.9785 16.8392 57.9785 16.9089 L 58.213 16.9089 C 58.7659 16.9089 60.1437 16.8378 60.8598 16.8378 C 61.0674 16.8378 62.4995 16.8797 62.9536 16.8797 L 63.4154 16.8797 C 63.4506 16.8061 63.4691 16.7255 63.4698 16.6439 Z M 52.418 9.4019 C 52.4273 9.8236 52.3137 10.2389 52.0913 10.5964 C 51.8688 10.954 51.5471 11.2382 51.1659 11.414 C 50.795 11.4956 50.4157 11.5323 50.036 11.5234 C 49.8652 11.5273 49.6943 11.5183 49.5248 11.4964 L 49.5099 10.3163 L 49.5099 7.7642 C 49.4997 7.6554 49.5296 7.5467 49.594 7.4587 C 49.7797 7.3909 49.9774 7.3631 50.1745 7.377 C 51.2486 7.377 51.7175 7.4736 52.1031 8.1273 C 52.3217 8.5153 52.4311 8.956 52.4194 9.4019 Z M 56.4171 16.6559 C 56.4158 16.554 56.3916 16.4538 56.3465 16.3625 C 56.0342 16.3704 55.724 16.3093 55.4377 16.1835 C 55.3517 16.0732 55.2733 15.9571 55.2032 15.836 C 55.0361 15.2934 54.8383 14.7609 54.6107 14.241 C 54.3759 13.632 54.0301 13.0725 53.591 12.5912 C 53.268 12.3932 52.92 12.2395 52.5564 12.1344 C 52.3368 12.0499 52.1567 11.9802 51.9915 11.9106 C 52.178 11.8722 52.3667 11.8449 52.5564 11.8289 C 53.1048 11.8332 53.6388 11.6521 54.0726 11.3145 C 54.3471 11.1042 54.5678 10.8312 54.7164 10.5179 C 54.865 10.2047 54.9372 9.8603 54.9271 9.5134 C 54.9329 8.9654 54.7704 8.429 54.4619 7.9773 C 54.1534 7.5256 53.7139 7.1808 53.2033 6.9898 C 52.6611 6.8699 52.1063 6.8181 51.5515 6.8356 C 50.517 6.8356 49.07 6.9322 48.3815 6.9322 C 48.1738 6.9322 46.974 6.9052 46.4924 6.9052 C 46.2848 6.9052 45.7615 6.8782 45.6803 6.8782 C 45.6422 6.9615 45.6183 7.0506 45.6097 7.1418 C 45.6114 7.226 45.6204 7.31 45.6365 7.3926 C 45.871 7.4196 46.2982 7.4743 46.5178 7.5169 C 46.7802 7.7025 46.9814 7.9628 47.0955 8.2644 C 47.1833 9.4413 47.2113 10.622 47.1795 11.8019 C 47.1795 13.215 47.1944 14.8527 47.1252 15.3792 C 47.1228 15.5709 47.069 15.7584 46.9696 15.922 C 46.8702 16.0855 46.7287 16.219 46.5602 16.3085 C 46.3002 16.354 46.0381 16.3863 45.7749 16.4051 C 45.7322 16.4909 45.7081 16.5849 45.7043 16.6808 C 45.7125 16.7575 45.7308 16.8327 45.7587 16.9046 C 45.9536 16.9046 48.0623 16.8627 48.5022 16.8627 C 49.3835 16.8627 50.1264 16.9046 50.9145 16.9046 C 50.945 16.8388 50.9634 16.7681 50.9689 16.6957 C 50.968 16.5964 50.9496 16.498 50.9145 16.4051 C 50.6377 16.3781 50.2945 16.2936 50.142 16.263 C 49.9581 16.1756 49.8039 16.0357 49.6986 15.8607 C 49.5932 15.6857 49.5414 15.4834 49.5495 15.279 L 49.5396 12.0783 C 49.6586 12.0677 49.7782 12.0635 49.8976 12.0655 C 50.1564 12.0688 50.4089 12.1454 50.6264 12.2864 C 51.0787 12.5115 51.4574 12.8624 51.7175 13.2975 C 52.1872 14.2297 52.4809 15.2415 52.584 16.2815 C 52.6256 16.5721 52.7344 16.8208 52.9985 16.8499 C 53.1073 16.8648 53.8382 16.8918 54.3614 16.8918 L 56.3345 16.8918 C 56.387 16.8253 56.4156 16.743 56.4157 16.6581 Z M 41.4474 9.4708 C 41.4593 9.7933 41.4029 10.1147 41.282 10.4137 C 41.1611 10.7127 40.9785 10.9824 40.7462 11.2051 C 40.3232 11.4878 39.818 11.6189 39.3119 11.5774 C 39.114 11.5815 38.9161 11.5725 38.7194 11.5504 C 38.6086 11.5383 38.5393 11.5234 38.5393 11.4538 L 38.5542 7.3919 C 38.819 7.3499 39.0863 7.3261 39.3543 7.3209 C 40.29 7.3209 40.8705 7.5567 41.1445 8.1379 C 41.3477 8.5518 41.4517 9.0078 41.4481 9.4694 Z M 43.9148 9.5241 C 43.9201 9.0234 43.7846 8.5314 43.524 8.1049 C 43.2633 7.6784 42.8882 7.3346 42.4417 7.1134 C 41.6455 6.8576 40.8096 6.7497 39.975 6.7951 C 38.9157 6.7951 37.259 6.8768 36.5302 6.8768 C 36.0154 6.8775 35.245 6.8207 34.8149 6.8207 C 34.7746 6.8878 34.7504 6.9635 34.7443 7.0416 C 34.7385 7.1364 34.7527 7.2313 34.786 7.3201 C 35.048 7.4019 35.4745 7.4715 35.7513 7.5411 C 35.9699 7.7477 36.1021 8.0301 36.1214 8.3312 C 36.163 8.8178 36.192 9.4267 36.192 10.4804 C 36.192 13.4069 36.1793 14.9472 36.1376 15.2797 C 36.1125 15.5016 36.0255 15.7119 35.8865 15.886 C 35.7475 16.0602 35.5623 16.1912 35.3523 16.2637 C 35.0883 16.3253 34.8212 16.3728 34.5522 16.4058 C 34.5345 16.5017 34.5256 16.5989 34.5254 16.6964 C 34.5221 16.7634 34.5357 16.8301 34.5649 16.8904 C 35.007 16.8904 36.3036 16.8357 36.7993 16.8357 C 38.0267 16.8357 39.2808 16.8904 39.7893 16.8904 L 40.1353 16.8904 C 40.1705 16.8225 40.185 16.7456 40.177 16.6694 C 40.1835 16.5847 40.1734 16.4995 40.1473 16.4186 C 39.6808 16.4106 39.2285 16.2561 38.8536 15.9767 C 38.6619 15.7483 38.563 15.4554 38.5768 15.1568 L 38.5351 12.1088 C 39.3621 12.1635 40.2441 12.1905 40.7243 12.1905 C 41.2663 12.191 41.8051 12.1071 42.3217 11.9419 C 42.7985 11.7488 43.2055 11.4142 43.4887 10.9827 C 43.7719 10.5512 43.9178 10.0432 43.9071 9.5262"
            fill="inherit"
        />
        <path
            d="M 137 22.4975 C 137 22.4158 136.946 22.3881 136.919 22.3313 C 136.354 22.3313 135.61 22.3732 135.319 22.3732 C 134.617 22.3732 133.765 22.3163 133.39 22.3163 C 133.348 22.4009 133.334 22.4158 133.334 22.4854 C 133.334 22.5422 133.344 22.5984 133.363 22.6517 C 133.763 22.7334 134.341 22.8307 134.452 23.024 C 134.543 23.1894 134.585 23.3769 134.576 23.5654 C 134.582 23.7407 134.553 23.9156 134.492 24.0798 C 134.368 24.4251 134.107 24.9665 133.736 25.7295 C 133.1 27.0191 132.701 27.8212 132.479 28.1452 C 132.121 27.5342 131.324 25.927 131.131 25.5121 L 130.358 23.8204 C 130.321 23.6988 130.303 23.5724 130.303 23.4453 C 130.297 23.3228 130.316 23.2003 130.358 23.0851 C 130.481 22.8343 130.908 22.8066 131.488 22.737 C 131.512 22.6701 131.526 22.5995 131.527 22.5281 C 131.527 22.4314 131.488 22.457 131.446 22.3917 L 131.199 22.3917 C 130.273 22.3917 130.549 22.4314 128.964 22.4314 C 128.29 22.4314 127.475 22.3917 127.367 22.3917 C 127.31 22.4883 127.283 22.5011 127.283 22.5977 C 127.284 22.6577 127.304 22.7159 127.339 22.764 C 128.257 22.9878 128.54 23.1512 128.633 23.3323 L 131.045 28.0926 C 131.228 28.4224 131.377 28.7705 131.488 29.1313 C 131.584 29.6806 131.621 30.2387 131.598 30.796 C 131.622 30.9969 131.594 31.2005 131.516 31.3871 C 131.439 31.5738 131.315 31.7373 131.156 31.8617 C 130.794 31.9536 130.425 32.0142 130.053 32.0429 C 130.009 32.0984 129.985 32.1663 129.982 32.2369 C 129.987 32.2941 130.001 32.3503 130.024 32.4031 C 130.73 32.4031 131.459 32.3882 131.87 32.3882 C 132.159 32.3882 132.601 32.4031 133.413 32.4152 C 133.882 32.4301 134.24 32.445 134.487 32.445 C 134.525 32.3914 134.55 32.3292 134.558 32.2639 C 134.559 32.199 134.539 32.1355 134.502 32.0827 C 134.088 32.0668 133.68 31.9723 133.301 31.8042 C 133.177 31.6951 133.079 31.5584 133.017 31.4048 C 132.954 31.2512 132.928 31.0851 132.941 30.9196 L 132.832 28.8379 C 132.827 28.7245 132.846 28.6112 132.887 28.5054 C 132.924 28.3719 132.975 28.2422 133.037 28.1182 L 135.16 23.8872 C 135.381 23.5165 135.683 23.2007 136.042 22.9636 C 136.328 22.8338 136.629 22.7402 136.938 22.6851 C 136.968 22.6289 136.986 22.5673 136.992 22.5039 Z M 125.859 25.3608 L 125.859 22.6645 C 125.859 22.4556 125.775 22.4009 125.567 22.4009 C 125.154 22.4009 123.251 22.4556 121.047 22.4556 C 119.338 22.4556 118.195 22.4286 117.422 22.4286 L 116.403 22.4286 C 116.225 22.4286 116.168 22.4705 116.168 22.6645 L 116.168 25.1739 C 116.215 25.2126 116.273 25.2328 116.334 25.2308 C 116.39 25.2352 116.447 25.226 116.499 25.2038 C 117.037 23.9959 117.311 23.3565 118.237 22.8862 C 118.65 22.8464 120.097 22.8314 120.316 22.8314 C 120.331 22.9856 120.346 23.4709 120.358 24.0514 C 120.373 25.0496 120.373 25.5917 120.373 27.9491 C 120.373 29.986 120.358 31.0418 120.331 31.2628 C 120.277 31.65 120.346 31.9413 118.691 32.0102 C 118.656 32.0836 118.642 32.1651 118.65 32.2461 C 118.647 32.3019 118.652 32.3579 118.665 32.4123 L 119.201 32.4123 C 119.712 32.4123 120.386 32.3576 120.882 32.3576 C 121.282 32.3576 122.04 32.3996 122.882 32.3996 L 123.267 32.3996 C 123.301 32.3355 123.315 32.2629 123.309 32.1907 C 123.312 32.1215 123.292 32.0531 123.252 31.9967 C 122.764 32.0322 122.276 31.9414 121.833 31.7331 C 121.749 31.3926 121.708 31.043 121.709 30.6923 C 121.696 29.1946 121.682 28.4898 121.682 27.4901 C 121.682 26.2006 121.697 25.2165 121.697 22.8172 C 121.89 22.8172 122.91 22.8023 123.321 22.8172 C 123.956 22.9501 124.514 23.3281 124.875 23.8702 C 125.173 24.3304 125.383 24.8427 125.495 25.3807 C 125.562 25.403 125.632 25.4122 125.702 25.4077 C 125.758 25.406 125.812 25.3869 125.856 25.353 Z M 114.401 32.202 C 114.402 32.1351 114.388 32.0688 114.36 32.0081 C 114.018 31.9848 113.677 31.9433 113.34 31.8837 C 113.091 31.5776 112.929 31.2093 112.871 30.818 C 112.859 30.1523 112.844 28.6418 112.844 27.3523 L 112.844 23.829 C 112.833 23.5578 112.921 23.292 113.091 23.0815 C 113.459 22.8489 113.884 22.7232 114.319 22.7185 C 114.346 22.6626 114.36 22.6015 114.361 22.5394 C 114.361 22.5084 114.355 22.4777 114.343 22.4491 C 114.33 22.4206 114.313 22.3947 114.291 22.3732 L 113.893 22.3732 C 113.312 22.3732 112.486 22.4442 112.017 22.4442 C 111.728 22.4442 110.901 22.4023 110.294 22.3895 L 109.99 22.3895 C 109.965 22.4116 109.946 22.4394 109.934 22.4707 C 109.923 22.5019 109.919 22.5355 109.923 22.5686 C 109.926 22.6297 109.935 22.6904 109.95 22.7497 C 110.317 22.7455 110.682 22.8114 111.024 22.9437 C 111.18 23.0962 111.301 23.2805 111.38 23.484 C 111.459 23.6876 111.493 23.9057 111.481 24.1238 C 111.494 24.3846 111.506 25.0929 111.521 26.3697 C 111.536 27.0631 111.548 28.0038 111.548 28.8095 C 111.548 29.2116 111.521 30.2503 111.506 30.737 C 111.493 31.0236 111.429 31.3055 111.316 31.569 C 111.148 31.7111 110.983 31.9562 109.978 32.0258 C 109.951 32.0922 109.937 32.1631 109.936 32.2347 C 109.936 32.3463 109.963 32.3463 109.963 32.4138 L 110.197 32.4138 C 110.75 32.4138 111.605 32.347 112.321 32.347 C 112.529 32.347 113.437 32.3868 113.894 32.3868 L 114.346 32.3868 C 114.382 32.3332 114.402 32.2703 114.403 32.2056 Z M 107.593 29.6542 C 107.607 29.1371 107.466 28.6277 107.188 28.1925 C 106.91 27.7572 106.509 27.4164 106.035 27.2144 C 105.547 26.9747 105.035 26.7889 104.507 26.6603 C 103.816 26.4774 103.145 26.2216 102.507 25.8972 C 102.248 25.743 102.036 25.5207 101.892 25.2542 C 101.749 24.9878 101.681 24.6871 101.695 24.3846 C 101.749 23.9143 101.981 23.483 102.343 23.1807 C 102.705 22.8785 103.169 22.7287 103.638 22.7625 C 104.007 22.7612 104.371 22.8487 104.7 23.0176 C 105.029 23.1866 105.312 23.4321 105.527 23.7338 C 105.878 24.2216 106.165 24.7526 106.382 25.3139 C 106.458 25.3458 106.541 25.3524 106.621 25.3327 C 106.701 25.313 106.772 25.268 106.824 25.2045 C 106.763 24.7904 106.726 24.3731 106.713 23.9547 C 106.728 23.5918 106.77 23.2306 106.839 22.8741 C 106.795 22.8053 106.733 22.7504 106.66 22.716 C 106.586 22.6816 106.505 22.6692 106.424 22.6801 C 106.225 22.823 106.045 22.9901 105.886 23.1775 C 105.239 22.6063 104.404 22.2989 103.543 22.3156 C 103.177 22.2868 102.809 22.3336 102.461 22.453 C 102.113 22.5725 101.794 22.7622 101.522 23.0104 C 101.249 23.2586 101.03 23.5601 100.878 23.8965 C 100.726 24.2329 100.644 24.597 100.636 24.9665 C 100.654 25.5141 100.83 26.0446 101.145 26.4919 C 101.487 26.9507 101.953 27.3015 102.487 27.5029 C 102.884 27.6691 104.676 28.2134 104.924 28.3079 C 106.027 28.7342 106.442 29.1129 106.442 30.0969 C 106.415 30.6226 106.199 31.1206 105.835 31.498 C 105.644 31.7145 105.407 31.8853 105.142 31.9979 C 104.878 32.1106 104.591 32.1621 104.304 32.1488 C 103.867 32.1521 103.435 32.0624 103.036 31.8855 C 102.637 31.7087 102.28 31.4488 101.987 31.1228 C 101.578 30.5529 101.262 29.9206 101.052 29.25 C 100.99 29.2295 100.924 29.221 100.859 29.2251 C 100.765 29.2253 100.674 29.2538 100.597 29.3068 C 100.597 29.488 100.651 30.4024 100.651 30.6781 C 100.645 31.0946 100.595 31.5093 100.501 31.915 C 100.544 31.9956 100.608 32.0634 100.686 32.1117 C 100.763 32.1601 100.852 32.1873 100.943 32.1907 C 101.138 31.9947 101.373 31.843 101.631 31.7459 C 101.75 31.7569 101.864 31.8007 101.96 31.8724 C 102.639 32.3356 103.443 32.5775 104.263 32.5651 C 106.207 32.5651 107.597 31.579 107.597 29.6521 Z M 95.406 24.867 C 95.394 25.326 95.243 25.7703 94.972 26.1399 C 94.702 26.5096 94.325 26.7867 93.892 26.9338 C 93.419 27.0153 92.939 27.0519 92.458 27.0432 C 92.293 27.0432 91.823 27.0432 91.616 27.0162 L 91.604 25.7963 L 91.604 23.1782 C 91.604 22.997 91.645 22.8997 91.7 22.8577 C 92.017 22.7969 92.34 22.7695 92.663 22.776 C 93.959 22.776 94.552 22.9004 95.021 23.5782 C 95.281 23.9564 95.415 24.4073 95.406 24.867 Z M 98.301 32.2155 C 98.3 32.1407 98.277 32.0678 98.234 32.0067 C 97.921 32.0145 97.61 31.9534 97.323 31.8276 C 97.238 31.7165 97.16 31.6003 97.089 31.4795 C 96.926 30.8925 96.733 30.3146 96.511 29.748 C 96.277 29.138 95.931 28.5776 95.491 28.0961 C 95.183 27.8974 94.849 27.7436 94.498 27.6393 C 94.279 27.5548 94.099 27.488 93.933 27.4183 C 94.12 27.3801 94.309 27.3519 94.498 27.3338 C 95.027 27.3211 95.538 27.1422 95.96 26.8222 C 96.241 26.6176 96.47 26.3488 96.628 26.038 C 96.786 25.7272 96.869 25.3831 96.869 25.034 C 96.874 24.4876 96.712 23.953 96.403 23.5033 C 96.095 23.0537 95.656 22.711 95.146 22.5224 C 94.603 22.4038 94.047 22.3529 93.491 22.3711 C 92.459 22.3711 91.686 22.4677 90.997 22.4677 C 90.792 22.4677 90.116 22.4407 89.634 22.4407 C 89.426 22.4407 88.903 22.4137 88.819 22.4137 C 88.78 22.5103 88.749 22.538 88.749 22.5927 C 88.751 22.6583 88.761 22.7234 88.778 22.7867 C 89.01 22.8165 89.438 22.8712 89.659 22.9132 C 89.922 23.0982 90.124 23.3586 90.237 23.6606 C 90.308 24.1053 90.321 25.3523 90.321 27.3075 C 90.321 28.7207 90.334 30.4969 90.265 31.0241 C 90.264 31.2161 90.211 31.4042 90.111 31.568 C 90.011 31.7318 89.869 31.8651 89.7 31.9534 C 89.44 31.999 89.178 32.0313 88.914 32.05 C 88.873 32.1066 88.849 32.1739 88.844 32.244 C 88.853 32.3023 88.872 32.3586 88.901 32.4102 C 89.094 32.4102 90.679 32.3683 91.118 32.3683 C 92.003 32.3683 92.222 32.4102 93.008 32.4102 C 93.038 32.365 93.057 32.3131 93.064 32.2589 C 93.064 32.1855 93.044 32.1134 93.008 32.05 C 92.734 32.023 92.387 31.9385 92.235 31.9136 C 92.051 31.8253 91.898 31.6848 91.793 31.5095 C 91.688 31.3342 91.636 31.1319 91.645 30.9274 L 91.63 27.4617 C 91.741 27.4468 92.138 27.4468 92.25 27.4468 C 92.627 27.4285 93.003 27.4947 93.351 27.6407 C 93.9 27.8762 94.369 28.2659 94.704 28.7633 C 95.173 29.7098 95.467 30.7341 95.573 31.7864 C 95.613 32.077 95.724 32.3278 95.986 32.3548 C 96.251 32.3889 96.518 32.4029 96.786 32.3967 L 98.218 32.3967 C 98.244 32.3742 98.264 32.3464 98.278 32.3151 C 98.292 32.2838 98.299 32.2499 98.299 32.2155 Z M 86.736 30.109 C 86.739 29.9748 86.735 29.8405 86.723 29.7068 C 86.661 29.6685 86.588 29.6537 86.516 29.6649 C 86.454 29.6607 86.393 29.6699 86.335 29.6919 C 86.131 30.5479 85.627 31.3012 84.915 31.8134 C 84.542 31.9552 84.142 32.008 83.745 31.9676 L 82.2 31.9676 C 81.895 31.9654 81.591 31.9417 81.289 31.8965 C 81.084 31.8546 80.865 31.5214 80.768 31.3004 C 80.631 31.0017 80.578 30.671 80.615 30.3441 L 80.615 27.1853 L 81.057 27.1853 C 81.456 27.1627 81.856 27.229 82.227 27.3793 C 82.527 27.5003 82.786 27.7076 82.97 27.9754 C 83.082 28.349 83.148 28.7355 83.165 29.1256 C 83.229 29.1695 83.307 29.1896 83.384 29.1825 C 83.464 29.1862 83.542 29.161 83.604 29.1114 C 83.604 28.7363 83.523 27.7253 83.523 27.169 C 83.523 26.4762 83.619 25.6315 83.658 25.132 C 83.593 25.09 83.516 25.0708 83.439 25.0773 C 83.363 25.07 83.287 25.0838 83.219 25.1171 C 83.177 25.311 83.066 25.8944 83.041 25.937 C 82.778 26.2925 82.406 26.5509 81.982 26.6723 C 81.611 26.7564 81.232 26.7931 80.852 26.7817 L 80.632 26.7817 L 80.632 25.424 C 80.632 24.0926 80.659 23.5533 80.672 23.3025 C 80.687 23.1362 80.714 22.9572 80.728 22.8307 C 80.852 22.8179 81.252 22.8037 81.887 22.8037 C 82.684 22.8037 83.277 22.8187 83.403 22.8187 C 83.717 22.8186 84.025 22.9147 84.284 23.0943 C 84.859 23.5283 85.287 24.1292 85.511 24.8158 C 85.564 24.8355 85.62 24.844 85.677 24.8407 C 85.758 24.8407 85.773 24.8158 85.881 24.759 C 85.881 23.9142 85.827 22.9579 85.8 22.6105 C 85.785 22.4684 85.759 22.4293 85.482 22.4293 C 85.373 22.4293 84.846 22.4023 84.299 22.4023 C 83.511 22.4023 83.195 22.4172 81.995 22.4172 C 81.348 22.4172 80.205 22.43 79.639 22.43 C 78.812 22.43 78.632 22.403 78.274 22.403 L 77.805 22.403 C 77.764 22.4492 77.739 22.5076 77.734 22.5693 C 77.736 22.64 77.761 22.7081 77.805 22.7632 C 78.144 22.7898 78.481 22.8414 78.812 22.9174 C 79.005 23.0837 79.183 23.1263 79.307 23.7892 C 79.334 24.0826 79.348 25.024 79.348 25.662 L 79.348 28.5189 C 79.348 29.1001 79.334 30.0592 79.319 30.4045 C 79.293 30.8666 79.191 31.321 79.015 31.7488 C 78.617 31.8909 78.198 31.9616 77.776 31.9576 C 77.733 32.0248 77.709 32.1019 77.705 32.1814 C 77.707 32.2512 77.732 32.3185 77.776 32.3726 L 78.23 32.3726 C 78.672 32.3726 79.776 32.3328 80.146 32.3328 C 80.492 32.3328 80.958 32.3598 81.758 32.3598 C 82.2 32.3598 83.494 32.4443 86.278 32.4443 C 86.403 32.4544 86.529 32.4443 86.65 32.4145 C 86.689 32.3476 86.708 32.2709 86.705 32.1935 C 86.732 31.9179 86.732 31.2372 86.732 30.1139 Z M 76.537 22.5401 C 76.537 22.4854 76.522 22.398 76.467 22.3888 L 75.9976 22.3888 C 75.6671 22.3888 75.1431 22.4158 74.9087 22.4158 C 73.7922 22.4158 73.3925 22.3448 73.2273 22.3448 L 72.9801 22.3448 C 72.9504 22.4158 72.9095 22.4542 72.9095 22.5238 C 72.9095 22.5785 72.9391 22.6204 72.9391 22.678 C 73.2619 22.7151 73.5803 22.7841 73.8897 22.884 C 74.1088 23.1223 74.2322 23.434 74.2357 23.7586 C 74.1774 24.1916 74.0654 24.6155 73.9024 25.0205 L 71.6849 30.5104 L 68.9591 23.5647 C 68.9717 23.4093 69.0189 23.2588 69.0971 23.1243 C 69.1753 22.9897 69.2826 22.8746 69.411 22.7874 C 69.7067 22.7289 70.0062 22.6923 70.3072 22.678 C 70.3374 22.6174 70.3559 22.5516 70.3616 22.484 C 70.3616 22.4272 70.3488 22.3419 70.2909 22.3298 L 69.9456 22.3298 C 69.5219 22.3298 68.8743 22.3867 68.1434 22.3867 C 67.8271 22.3867 67.2077 22.3568 66.6004 22.3568 L 66.0623 22.3568 C 66.0289 22.4058 66.0101 22.4633 66.0078 22.5227 C 66.0056 22.582 66.02 22.6408 66.0496 22.6922 C 66.4547 22.796 66.8442 22.954 67.2077 23.1618 C 67.6313 23.981 68.0085 24.8235 68.3376 25.6855 L 69.4781 28.4564 C 70.4286 30.759 70.9943 32.2994 71.0635 32.563 C 71.1341 32.6049 71.0635 32.6447 71.1871 32.6447 C 71.3107 32.6447 71.298 32.6177 71.3283 32.5481 L 74.884 23.9512 C 75.0026 23.6613 75.1698 23.3941 75.3783 23.1611 C 75.6981 22.9147 76.079 22.7609 76.479 22.7163 C 76.507 22.6599 76.526 22.5995 76.536 22.5373 Z M 64.4642 32.1999 C 64.466 32.1328 64.4517 32.0663 64.4225 32.006 C 64.0807 31.9828 63.7403 31.9413 63.4028 31.8816 C 63.1547 31.5749 62.9927 31.2069 62.9339 30.8159 C 62.9212 30.1502 62.9071 28.6397 62.9071 27.3501 L 62.9071 23.829 C 62.894 23.5572 62.983 23.2904 63.1563 23.0815 C 63.5233 22.8489 63.9472 22.7233 64.3809 22.7185 C 64.4087 22.663 64.4229 22.6016 64.4225 22.5394 C 64.4224 22.5084 64.4161 22.4777 64.404 22.4491 C 64.3918 22.4206 64.3741 22.3947 64.3519 22.3732 L 63.9515 22.3732 C 63.3738 22.3732 62.5469 22.4442 62.0773 22.4442 C 61.7885 22.4442 60.9615 22.4023 60.3563 22.3895 L 60.0527 22.3895 C 60.0266 22.4107 60.0064 22.4384 59.994 22.4697 C 59.9816 22.5011 59.9775 22.5351 59.982 22.5686 C 59.9847 22.6297 59.9937 22.6904 60.0089 22.7497 C 60.3758 22.7459 60.7402 22.8117 61.083 22.9437 C 61.2384 23.0962 61.3596 23.2805 61.4384 23.484 C 61.5172 23.6876 61.5518 23.9057 61.5399 24.1238 C 61.5526 24.3846 61.5667 25.0929 61.5794 26.3697 C 61.5943 27.0631 61.6091 28.0038 61.6091 28.8095 C 61.6091 29.2116 61.5794 30.2503 61.5674 30.737 C 61.5544 31.0241 61.4883 31.3063 61.3725 31.569 C 61.2094 31.7111 61.0441 31.9562 60.0364 32.0258 C 60.0096 32.0922 59.9954 32.1631 59.9948 32.2347 C 59.9948 32.3463 60.0244 32.3463 60.0244 32.4138 L 60.2567 32.4138 C 60.8097 32.4138 61.6642 32.347 62.3802 32.347 C 62.5879 32.347 63.496 32.3868 63.9508 32.3868 L 64.4077 32.3868 C 64.4431 32.3331 64.462 32.2701 64.4621 32.2056 Z M 58.2321 22.5146 C 58.2337 22.4639 58.2191 22.4141 58.1904 22.3725 L 57.8741 22.3725 C 57.1855 22.3725 56.8812 22.3995 55.6418 22.3995 C 55.2125 22.3995 54.5825 22.3725 54.4293 22.3725 L 54.0727 22.3725 C 54.0331 22.3995 54.0183 22.4968 54.0183 22.5536 C 54.0169 22.5828 54.0226 22.6118 54.0349 22.6382 C 54.0472 22.6645 54.0658 22.6875 54.0889 22.705 C 54.5768 22.7791 55.0537 22.9142 55.5084 23.1071 C 55.7678 23.5326 55.9061 24.0217 55.9081 24.521 C 55.9208 24.7299 55.9349 24.938 55.9349 25.5071 L 55.9349 29.6272 C 55.9368 29.8263 55.9279 30.0253 55.9081 30.2233 C 55.6736 29.9598 55.2725 29.4482 54.7351 28.8102 L 49.4705 22.6219 C 49.4106 22.552 49.3406 22.4916 49.2628 22.4428 C 49.152 22.4428 49.0157 22.4279 48.9048 22.4279 C 48.0235 22.4279 47.2509 22.3881 47.0158 22.3881 C 46.9903 22.429 46.9766 22.4762 46.9762 22.5245 C 46.9792 22.5855 46.9875 22.6461 47.0009 22.7057 C 47.3814 22.747 47.7464 22.8798 48.0652 23.0929 C 48.3243 23.3357 48.551 23.6113 48.7396 23.9128 C 48.7858 24.0552 48.8049 24.2052 48.7961 24.3547 C 48.7961 25.078 48.7544 26.3917 48.7544 27.3658 L 48.7544 30.3171 C 48.757 30.6699 48.7289 31.0222 48.6704 31.3701 C 48.2654 31.7411 47.7633 31.9876 47.2234 32.0806 C 47.1936 32.1314 47.175 32.1881 47.169 32.2468 C 47.169 32.2887 47.1817 32.3711 47.2086 32.3889 L 47.4705 32.3889 C 47.7474 32.3889 48.3815 32.3491 48.7968 32.3491 C 49.402 32.3491 49.676 32.3889 50.2409 32.3889 L 51.0707 32.3889 C 51.1251 32.374 51.1378 32.2646 51.1378 32.2077 C 51.138 32.1573 51.1235 32.1079 51.0961 32.0656 C 50.4606 31.9906 49.8736 31.6862 49.4443 31.2088 C 49.322 30.6339 49.2616 30.0475 49.2643 29.4596 C 49.2643 29.0176 49.2494 28.2944 49.2494 27.4773 C 49.2494 26.3817 49.2643 24.8713 49.2791 24.3846 C 49.3603 24.4812 49.4867 24.6354 49.5806 24.7448 L 56.1143 32.4436 C 56.1849 32.5111 56.2103 32.5253 56.2823 32.5253 C 56.3544 32.5253 56.3071 32.5253 56.3635 32.4983 C 56.4176 32.295 56.4414 32.0848 56.4342 31.8745 C 56.4342 31.4724 56.4193 31.0546 56.4193 30.8457 L 56.4193 24.9522 C 56.4193 23.2208 57.2343 22.7341 58.1848 22.6943 C 58.22 22.6405 58.2389 22.5776 58.2392 22.5131 Z M 45.4763 22.5799 C 45.4738 22.5139 45.4489 22.4507 45.4057 22.4009 L 45.0081 22.4009 C 44.5787 22.4009 44.0004 22.4279 43.5046 22.4279 C 42.9538 22.4279 42.3345 22.4009 41.9319 22.4009 L 41.4376 22.4009 C 41.4023 22.454 41.3828 22.5161 41.3811 22.5799 C 41.383 22.6425 41.3972 22.7041 41.4228 22.7611 C 41.4793 22.7611 42.4821 22.776 42.6621 23.0247 C 42.8987 23.3331 43.0807 23.6801 43.2002 24.0506 C 43.2795 24.5556 43.3161 25.0663 43.3097 25.5775 C 43.3097 26.7576 43.3097 27.5477 43.2949 27.9626 C 43.2892 28.5864 43.2055 29.2071 43.0456 29.8098 C 42.8788 30.382 42.5166 30.8766 42.0228 31.2065 C 41.5291 31.5364 40.9355 31.6803 40.3465 31.6131 C 39.7891 31.6159 39.2379 31.4958 38.7315 31.2614 C 38.383 31.1029 38.0787 30.8603 37.8456 30.5552 C 37.6125 30.2501 37.4579 29.8918 37.3954 29.5121 L 37.3248 25.3537 L 37.3128 23.662 C 37.3128 23.3437 37.7104 23.051 37.8488 22.8847 C 38.1976 22.8104 38.5519 22.7648 38.9081 22.7483 C 38.9474 22.6906 38.9716 22.6239 38.9787 22.5544 C 38.9768 22.5189 38.9673 22.4843 38.9507 22.453 C 38.9341 22.4217 38.9108 22.3945 38.8826 22.3732 L 38.3593 22.3881 C 37.8481 22.4009 37.1744 22.4151 36.7471 22.4151 C 36.0854 22.4151 35.5741 22.4002 35.1617 22.4002 L 34.5841 22.4002 C 34.5586 22.4251 34.539 22.4555 34.5268 22.4891 C 34.5145 22.5226 34.51 22.5586 34.5135 22.5941 C 34.5111 22.6243 34.515 22.6547 34.5248 22.6833 C 34.5347 22.7119 34.5503 22.7381 34.5707 22.7604 C 35.0099 22.8172 35.2987 22.857 35.4943 22.9025 C 35.7198 23.0446 35.8898 23.2603 35.976 23.5135 C 35.9908 23.6926 36.0176 24.1373 36.0176 25.0055 L 36.0176 28.3342 C 35.9969 28.9568 36.0442 29.5799 36.1589 30.1921 C 36.3195 30.8977 36.7511 31.5107 37.3594 31.8972 C 38.117 32.3641 38.9947 32.5956 39.8826 32.563 C 40.7084 32.5833 41.5253 32.3875 42.2533 31.9946 C 42.5959 31.7993 42.8941 31.534 43.1288 31.2159 C 43.3635 30.8978 43.5295 30.5338 43.6162 30.1473 C 43.7626 29.6097 43.8374 29.055 43.8386 28.4976 L 43.8386 25.8389 C 43.8386 25.3416 43.8655 24.7164 43.8655 24.4677 C 43.8544 23.9296 43.9984 23.3998 44.28 22.9423 C 44.6533 22.8374 45.0365 22.7724 45.4233 22.7483 C 45.456 22.6978 45.4748 22.6394 45.4777 22.5792"
            fill="inherit"
        />
        <path
            d="M 11.7579 8.609 C 11.7172 8.6097 11.6776 8.622 11.6435 8.6444 C 11.6094 8.6667 11.5822 8.6983 11.5652 8.7355 L 11.1577 9.6435 C 11.1482 9.6502 11.1373 9.6549 11.1259 9.657 C 11.1132 9.657 11.0991 9.6435 11.0892 9.6151 C 11.0793 9.5866 11.0299 9.4559 10.9239 9.2087 L 10.7933 8.9117 C 10.7467 8.8023 10.7093 8.7305 10.6972 8.7078 C 10.68 8.6777 10.6552 8.6527 10.6253 8.6352 C 10.5955 8.6178 10.5616 8.6085 10.5271 8.6083 C 10.5213 8.6005 10.5185 8.5909 10.5193 8.5813 C 10.5187 8.5723 10.5204 8.5632 10.5242 8.555 L 10.5927 8.555 C 10.669 8.555 10.734 8.5586 10.7905 8.5586 C 10.847 8.5586 10.9684 8.5522 11.0426 8.5522 L 11.0871 8.5522 C 11.0941 8.5522 11.0969 8.5699 11.0969 8.5756 C 11.0974 8.5858 11.0958 8.596 11.092 8.6054 C 11.0426 8.6104 10.9317 8.6054 10.9317 8.6765 C 10.9316 8.6973 10.935 8.7179 10.9416 8.7376 L 11.2085 9.377 L 11.431 8.8491 C 11.4513 8.8046 11.4614 8.756 11.4606 8.707 C 11.4606 8.6474 11.419 8.6211 11.3074 8.6076 C 11.3039 8.5997 11.3016 8.5913 11.3003 8.5827 C 11.3011 8.572 11.3035 8.5615 11.3074 8.5515 L 11.3392 8.5515 C 11.3886 8.5515 11.438 8.5578 11.551 8.5578 C 11.5708 8.5578 11.6471 8.5543 11.6845 8.5543 L 11.7608 8.5543 C 11.7661 8.5611 11.7695 8.5692 11.7706 8.5777 C 11.7692 8.5891 11.7649 8.5999 11.7579 8.609 Z"
            fill="inherit"
        />
        <path
            d="M 12.8864 9.6263 C 12.563 9.6263 12.3879 9.6178 12.3434 9.6178 L 12.1901 9.6178 C 12.1457 9.6178 12.0418 9.6249 11.9282 9.6249 L 11.8639 9.6249 C 11.86 9.6178 11.8582 9.6096 11.8589 9.6015 C 11.8577 9.5911 11.8577 9.5806 11.8589 9.5702 C 11.9152 9.5708 11.9709 9.5589 12.0221 9.5354 C 12.0484 9.485 12.0604 9.4282 12.0567 9.3713 C 12.0567 9.3215 12.0567 9.2668 12.0567 9.2114 C 12.0567 9.1297 12.0567 9.0303 12.0567 8.9095 L 12.0567 8.739 C 12.0567 8.621 11.9974 8.621 11.8766 8.6075 C 11.8741 8.5982 11.8724 8.5887 11.8717 8.5791 C 11.8717 8.5727 11.8717 8.5556 11.8815 8.5521 L 11.9409 8.5521 C 11.9804 8.5521 12.0863 8.5521 12.289 8.5521 C 12.474 8.5521 12.6548 8.5556 12.6937 8.5556 L 12.8045 8.5556 C 12.8292 8.5556 12.8391 8.5556 12.8391 8.5805 L 12.854 8.8242 C 12.8391 8.8313 12.8363 8.8342 12.8243 8.8342 C 12.8161 8.8355 12.8078 8.8355 12.7996 8.8342 C 12.7625 8.7596 12.7074 8.6956 12.6393 8.648 C 12.611 8.6306 12.5785 8.6212 12.5454 8.621 C 12.5305 8.621 12.4938 8.621 12.4041 8.621 C 12.3335 8.621 12.2932 8.621 12.2834 8.6246 C 12.2735 8.6281 12.2735 8.6246 12.2685 8.6658 C 12.2685 8.6921 12.2636 8.7368 12.2636 8.8789 L 12.2636 9.021 L 12.3003 9.021 C 12.3409 9.0217 12.3814 9.0176 12.4211 9.0089 C 12.465 8.9967 12.5034 8.9696 12.5298 8.9322 C 12.5412 8.9033 12.5494 8.8733 12.5545 8.8427 C 12.5652 8.8372 12.5772 8.8347 12.5891 8.8356 C 12.5988 8.8352 12.6083 8.8382 12.616 8.8441 C 12.616 8.8874 12.6061 8.9699 12.6061 9.0736 C 12.6061 9.1255 12.611 9.2398 12.611 9.2867 C 12.6069 9.2901 12.6022 9.2926 12.5971 9.2941 C 12.592 9.2956 12.5866 9.296 12.5814 9.2953 C 12.5714 9.2953 12.5614 9.2941 12.5517 9.2917 C 12.5418 9.2001 12.527 9.1375 12.4507 9.1056 C 12.4132 9.0896 12.3728 9.0819 12.3321 9.0828 C 12.3085 9.0833 12.2849 9.0849 12.2615 9.0878 L 12.2615 9.372 C 12.2587 9.4147 12.2637 9.4576 12.2763 9.4985 C 12.2841 9.5169 12.3081 9.5546 12.3406 9.5581 C 12.3732 9.5636 12.4063 9.566 12.4394 9.5652 L 12.5927 9.5652 C 12.6335 9.565 12.6738 9.5566 12.7113 9.5404 C 12.7858 9.479 12.8442 9.4002 12.8815 9.3109 C 12.8915 9.3063 12.9023 9.3041 12.9133 9.3045 C 12.9243 9.305 12.9351 9.3077 12.9451 9.3123 L 12.9451 9.5965 C 12.9436 9.6228 12.9232 9.6263 12.8864 9.6263 Z"
            fill="inherit"
        />
        <path
            d="M 14.1711 8.891 C 14.164 8.891 14.1541 8.891 14.1414 8.8875 C 14.1219 8.8312 14.0954 8.7777 14.0623 8.7283 C 14.0394 8.697 14.0096 8.6713 13.9754 8.6532 C 13.9411 8.6351 13.9032 8.6251 13.8646 8.6239 C 13.8399 8.6239 13.7805 8.6239 13.7608 8.6239 L 13.7608 9.0971 C 13.7608 9.1681 13.7608 9.2598 13.7608 9.4225 C 13.7608 9.5482 13.8173 9.5482 13.9458 9.5646 C 13.9518 9.5739 13.9552 9.5847 13.9557 9.5958 C 13.9557 9.6051 13.9532 9.6141 13.9486 9.6221 L 13.9013 9.6221 C 13.8307 9.6221 13.6788 9.6171 13.6322 9.6171 C 13.6005 9.6171 13.4373 9.6243 13.3604 9.6243 C 13.3567 9.6205 13.354 9.6161 13.3523 9.6111 C 13.3506 9.6062 13.35 9.601 13.3505 9.5958 C 13.3511 9.5859 13.3537 9.5762 13.3582 9.5674 C 13.5284 9.5546 13.5461 9.5227 13.551 9.4679 C 13.556 9.4331 13.556 9.2917 13.556 9.1475 L 13.556 8.7532 C 13.557 8.7096 13.5537 8.6661 13.5461 8.6232 C 13.4908 8.6213 13.4354 8.6251 13.3808 8.6345 C 13.2829 8.683 13.207 8.7674 13.169 8.8704 C 13.1603 8.8733 13.1512 8.8745 13.1421 8.874 C 13.1374 8.8742 13.1327 8.8733 13.1284 8.8713 C 13.1241 8.8693 13.1204 8.8663 13.1174 8.8626 L 13.1174 8.5869 C 13.1174 8.5621 13.1174 8.5557 13.1492 8.5557 L 13.265 8.5557 C 13.3017 8.5557 13.4578 8.5557 13.6527 8.5557 C 13.9098 8.5557 14.0997 8.5493 14.147 8.5493 C 14.1718 8.5493 14.1887 8.5493 14.1986 8.5578 C 14.1999 8.571 14.1999 8.5844 14.1986 8.5976 L 14.1986 8.8733 C 14.1962 8.8786 14.1924 8.8832 14.1875 8.8863 C 14.1826 8.8895 14.1769 8.8911 14.1711 8.891 Z"
            fill="inherit"
        />
        <path
            d="M 11.7064 10.5727 C 11.6965 10.5727 11.6888 10.5727 11.6746 10.5692 C 11.6573 10.512 11.6306 10.4582 11.5956 10.41 C 11.5728 10.3784 11.5431 10.3526 11.5088 10.3345 C 11.4745 10.3164 11.4365 10.3065 11.3978 10.3056 C 11.3731 10.3056 11.3138 10.3056 11.294 10.3056 L 11.294 10.7787 C 11.294 10.8498 11.294 10.9414 11.294 11.1041 C 11.294 11.2299 11.3533 11.2299 11.4819 11.2462 C 11.4872 11.2558 11.4896 11.2666 11.4889 11.2775 C 11.4897 11.2866 11.488 11.2957 11.484 11.3038 L 11.4402 11.3038 C 11.3639 11.3038 11.2156 11.2988 11.1711 11.2988 C 11.1394 11.2988 10.9762 11.3066 10.8971 11.3066 C 10.8918 11.2982 10.8893 11.2882 10.8901 11.2782 C 10.8907 11.2686 10.8923 11.2591 10.895 11.2498 C 11.0652 11.237 11.0829 11.205 11.0899 11.1503 C 11.0899 11.1155 11.0899 10.9741 11.0899 10.8299 L 11.0899 10.4377 C 11.0917 10.394 11.0894 10.3502 11.0829 10.307 C 11.0266 10.3051 10.9703 10.3089 10.9148 10.3184 C 10.8166 10.3666 10.7407 10.4511 10.7029 10.5542 C 10.6933 10.5571 10.6833 10.5583 10.6733 10.5578 C 10.6686 10.5578 10.6639 10.5568 10.6597 10.5548 C 10.6554 10.5529 10.6516 10.55 10.6486 10.5464 L 10.6486 10.2707 C 10.6486 10.2459 10.6535 10.2395 10.6803 10.2395 L 10.7962 10.2395 C 10.8357 10.2395 10.9911 10.2395 11.186 10.2395 C 11.4402 10.2395 11.633 10.2331 11.6803 10.2331 C 11.7071 10.2331 11.7248 10.2331 11.7326 10.2416 C 11.7403 10.2501 11.7326 10.2665 11.7326 10.2814 L 11.7326 10.5571 C 11.7298 10.5616 11.726 10.5654 11.7214 10.5682 C 11.7169 10.5709 11.7117 10.5724 11.7064 10.5727 Z"
            fill="inherit"
        />
        <path
            d="M 12.9232 11.3081 C 12.6019 11.3081 12.4246 11.2996 12.3823 11.2996 L 12.2269 11.2996 C 12.1852 11.2996 12.0786 11.3074 11.9677 11.3074 L 11.9035 11.3074 C 11.8989 11.3004 11.8965 11.2923 11.8964 11.284 C 11.8957 11.2733 11.8974 11.2626 11.9013 11.2527 C 11.9568 11.2539 12.0117 11.242 12.0616 11.2179 C 12.0814 11.1966 12.0913 11.1511 12.0962 11.0538 C 12.0962 11.004 12.1012 10.9493 12.1012 10.8932 C 12.1012 10.8115 12.1012 10.712 12.1012 10.5912 C 12.1012 10.5081 12.1012 10.4584 12.1012 10.4236 C 12.1012 10.3056 12.044 10.3056 11.9232 10.2921 C 11.919 10.2832 11.9166 10.2735 11.9162 10.2637 C 11.9162 10.2573 11.9211 10.2402 11.9282 10.2367 L 11.9854 10.2367 C 12.027 10.2367 12.1309 10.2367 12.3335 10.2367 C 12.5214 10.2367 12.6986 10.2402 12.741 10.2402 L 12.8497 10.2402 C 12.8766 10.2402 12.8865 10.2402 12.8865 10.2651 L 12.8985 10.5088 C 12.89 10.5155 12.8795 10.519 12.8688 10.5188 C 12.8606 10.5198 12.8523 10.5198 12.8441 10.5188 C 12.8087 10.4431 12.7532 10.3786 12.6838 10.3326 C 12.6566 10.3151 12.625 10.3057 12.5927 10.3056 C 12.5779 10.3056 12.5411 10.3056 12.4472 10.3056 C 12.3766 10.3056 12.3364 10.3056 12.3286 10.3092 C 12.3208 10.3127 12.3159 10.3092 12.3109 10.3504 C 12.3109 10.3767 12.3109 10.4214 12.3109 10.5635 L 12.3109 10.7056 L 12.3455 10.7056 C 12.3862 10.7064 12.4267 10.7021 12.4663 10.6928 C 12.5108 10.6805 12.5498 10.6535 12.5772 10.6161 C 12.5875 10.5871 12.5948 10.5571 12.5991 10.5266 C 12.6099 10.5214 12.6217 10.5187 12.6337 10.5188 C 12.6442 10.518 12.6548 10.521 12.6633 10.5273 C 12.6633 10.5706 12.6513 10.653 12.6513 10.7568 C 12.6513 10.8086 12.6584 10.923 12.6584 10.9699 C 12.6499 10.9765 12.6393 10.9795 12.6287 10.9784 C 12.618 10.9785 12.6074 10.9773 12.5969 10.9749 C 12.587 10.8832 12.5743 10.8207 12.4959 10.7887 C 12.4594 10.773 12.4199 10.7653 12.3801 10.766 C 12.3565 10.7665 12.333 10.7682 12.3095 10.771 L 12.3095 11.0552 C 12.3075 11.0977 12.3116 11.1403 12.3215 11.1816 C 12.3314 11.2001 12.3561 11.2378 12.3858 11.2413 C 12.4184 11.247 12.4515 11.2496 12.4847 11.2491 L 12.64 11.2491 C 12.6787 11.251 12.7174 11.2449 12.7537 11.2314 C 12.83 11.1711 12.8896 11.0921 12.9267 11.0019 C 12.9366 10.997 12.9475 10.9948 12.9585 10.9955 C 12.9688 10.9958 12.9789 10.9982 12.9882 11.0026 L 12.9882 11.2868 C 12.9832 11.3046 12.9656 11.3081 12.9232 11.3081 Z"
            fill="inherit"
        />
        <path
            d="M 13.6767 11.3315 C 13.5907 11.3279 13.5065 11.3058 13.4296 11.2669 C 13.417 11.2617 13.4036 11.2588 13.39 11.2583 C 13.361 11.2663 13.3341 11.2803 13.3109 11.2996 C 13.2987 11.3001 13.2865 11.2974 13.2757 11.2918 C 13.2648 11.2862 13.2555 11.2779 13.2488 11.2676 C 13.2488 11.2448 13.2686 11.1781 13.2686 11.1361 C 13.2686 11.1113 13.2615 10.994 13.2587 10.9621 C 13.2642 10.955 13.2713 10.9493 13.2794 10.9455 C 13.2875 10.9417 13.2963 10.9398 13.3053 10.9401 C 13.3111 10.9394 13.3171 10.9394 13.3229 10.9401 C 13.3455 10.9834 13.39 11.1006 13.4218 11.1475 C 13.4515 11.1817 13.4879 11.2095 13.5287 11.2289 C 13.5696 11.2483 13.6139 11.2591 13.6591 11.2605 C 13.6899 11.2637 13.721 11.2608 13.7507 11.2519 C 13.7804 11.243 13.808 11.2283 13.8321 11.2086 C 13.8518 11.1934 13.8676 11.1735 13.8779 11.1507 C 13.8882 11.1279 13.8929 11.1029 13.8914 11.0779 C 13.8936 11.0431 13.8831 11.0087 13.8617 10.9813 C 13.8326 10.9452 13.7943 10.9177 13.7509 10.9017 C 13.7043 10.8789 13.539 10.8385 13.479 10.8058 C 13.4224 10.7819 13.3718 10.7457 13.3307 10.6999 C 13.2897 10.6432 13.2679 10.5747 13.2686 10.5045 C 13.2691 10.4626 13.2782 10.4213 13.2953 10.3831 C 13.3123 10.3449 13.3371 10.3107 13.3679 10.2825 C 13.3986 10.2543 13.4349 10.2328 13.4743 10.2193 C 13.5137 10.2058 13.5554 10.2006 13.5969 10.204 C 13.6873 10.1975 13.7771 10.2226 13.8512 10.275 C 13.8704 10.2535 13.8909 10.233 13.9126 10.2139 C 13.9237 10.2128 13.9349 10.2149 13.9449 10.22 C 13.9549 10.225 13.9633 10.2327 13.9691 10.2424 C 13.9606 10.2908 13.955 10.3396 13.9521 10.3887 C 13.9521 10.4171 13.9691 10.5308 13.9691 10.5479 C 13.9564 10.5557 13.9422 10.5608 13.9274 10.5628 C 13.9206 10.562 13.914 10.5603 13.9077 10.5578 C 13.878 10.5059 13.8512 10.4157 13.8187 10.3717 C 13.7938 10.3398 13.7614 10.3147 13.7244 10.2987 C 13.6873 10.2827 13.6469 10.2762 13.6068 10.28 C 13.5836 10.2781 13.5603 10.2808 13.5382 10.288 C 13.5161 10.2953 13.4956 10.3069 13.478 10.3221 C 13.4604 10.3374 13.4459 10.3561 13.4356 10.377 C 13.4252 10.398 13.4191 10.4208 13.4176 10.4441 C 13.4207 10.4809 13.4349 10.5157 13.4583 10.5442 C 13.4816 10.5726 13.513 10.5932 13.5482 10.6033 C 13.5927 10.621 13.6471 10.6416 13.7085 10.6608 C 13.7666 10.6791 13.8234 10.7012 13.8787 10.7269 C 13.9333 10.7505 13.9794 10.7905 14.0107 10.8413 C 14.042 10.8921 14.0571 10.9514 14.0538 11.0111 C 14.0505 11.0572 14.038 11.1022 14.0171 11.1434 C 13.9962 11.1846 13.9674 11.2212 13.9322 11.2511 C 13.8971 11.2809 13.8564 11.3034 13.8126 11.3172 C 13.7687 11.3311 13.7225 11.3359 13.6767 11.3315 Z"
            fill="inherit"
        />
        <path
            d="M 12.1365 12.9926 C 11.8131 12.9926 11.6379 12.9841 11.5935 12.9841 L 11.4402 12.9841 C 11.3957 12.9841 11.2919 12.9919 11.1782 12.9919 L 11.114 12.9919 C 11.11 12.9848 11.1083 12.9766 11.109 12.9685 C 11.1079 12.9581 11.1079 12.9476 11.109 12.9372 C 11.1653 12.9379 11.221 12.926 11.2721 12.9024 C 11.2986 12.852 11.3106 12.7952 11.3067 12.7383 C 11.3067 12.6886 11.3067 12.6339 11.3067 12.5777 C 11.3067 12.496 11.3067 12.3965 11.3067 12.2758 L 11.3067 12.1081 C 11.3067 11.9902 11.2474 11.9902 11.1267 11.9767 C 11.1241 11.9674 11.1224 11.9578 11.1217 11.9482 C 11.1217 11.9418 11.1217 11.9248 11.1316 11.9212 L 11.1909 11.9212 C 11.2305 11.9212 11.3364 11.9212 11.5391 11.9212 C 11.7241 11.9212 11.9042 11.9248 11.9437 11.9248 L 12.0546 11.9248 C 12.0793 11.9248 12.0892 11.9248 12.0892 11.9497 L 12.104 12.1934 C 12.0892 12.2012 12.0871 12.2033 12.0744 12.2033 C 12.0662 12.2048 12.0578 12.2048 12.0497 12.2033 C 12.0126 12.1287 11.9574 12.0647 11.8893 12.0171 C 11.8611 11.9997 11.8286 11.9903 11.7954 11.9902 C 11.7806 11.9902 11.7439 11.9902 11.6542 11.9902 C 11.5836 11.9902 11.5433 11.9902 11.5334 11.9937 C 11.5235 11.9973 11.5235 11.9937 11.5186 12.0349 C 11.5186 12.0612 11.5137 12.106 11.5137 12.2481 L 11.5137 12.3902 L 11.5504 12.3902 C 11.591 12.3908 11.6315 12.3868 11.6711 12.3781 C 11.7151 12.3658 11.7535 12.3387 11.7799 12.3013 C 11.7912 12.2725 11.7995 12.2425 11.8046 12.2118 C 11.8152 12.2061 11.8272 12.2034 11.8392 12.204 C 11.8489 12.2037 11.8583 12.2067 11.866 12.2125 C 11.866 12.2559 11.8562 12.3383 11.8562 12.442 C 11.8562 12.4946 11.8611 12.6083 11.8611 12.6552 C 11.857 12.6586 11.8522 12.6611 11.8471 12.6625 C 11.842 12.664 11.8367 12.6644 11.8314 12.6637 C 11.8214 12.6638 11.8115 12.6626 11.8018 12.6601 C 11.7919 12.5685 11.7771 12.506 11.7008 12.474 C 11.6632 12.4584 11.6228 12.4508 11.5822 12.452 C 11.5585 12.4524 11.535 12.4541 11.5115 12.4569 L 11.5115 12.7411 C 11.5087 12.7838 11.5138 12.8267 11.5264 12.8676 C 11.5341 12.8861 11.5581 12.9237 11.5906 12.9273 C 11.6233 12.9327 11.6564 12.9351 11.6895 12.9344 L 11.8427 12.9344 C 11.8821 12.9361 11.9215 12.9301 11.9586 12.9166 C 12.0331 12.8553 12.0915 12.7765 12.1287 12.6871 C 12.1387 12.6826 12.1496 12.6804 12.1605 12.6807 C 12.1715 12.6812 12.1823 12.6839 12.1923 12.6886 L 12.1923 12.9728 C 12.193 12.9884 12.1754 12.9926 12.1365 12.9926 Z"
            fill="inherit"
        />
        <path
            d="M 13.6915 11.9717 C 13.5827 11.9752 13.4888 12.0349 13.4888 12.209 L 13.4888 12.7617 C 13.4888 12.7831 13.4987 12.9394 13.4987 12.999 C 13.4856 13.0086 13.4703 13.0147 13.4542 13.0168 C 13.4438 13.0135 13.4346 13.0073 13.4274 12.999 L 12.6746 12.1841 L 12.6824 12.3504 L 12.6824 12.6509 C 12.6824 12.6744 12.6873 12.7305 12.6922 12.7724 C 12.6914 12.7945 12.6959 12.8164 12.7053 12.8364 C 12.7148 12.8563 12.729 12.8736 12.7466 12.8868 C 12.7885 12.9152 12.8374 12.9315 12.8879 12.9337 C 12.8923 12.9412 12.8947 12.9498 12.8949 12.9586 C 12.894 12.9683 12.8906 12.9776 12.885 12.9855 L 12.8038 12.9855 C 12.7332 12.9855 12.6802 12.9855 12.6089 12.9855 C 12.5623 12.9855 12.4952 12.9905 12.4486 12.9905 L 12.414 12.9905 C 12.4129 12.9823 12.4129 12.9739 12.414 12.9657 C 12.4139 12.9564 12.4156 12.9472 12.419 12.9387 C 12.4823 12.9363 12.5427 12.9111 12.5891 12.8676 C 12.6029 12.826 12.6089 12.7821 12.6068 12.7383 L 12.6068 12.3532 C 12.6068 12.2914 12.6068 12.2601 12.6019 12.199 C 12.6033 12.1555 12.5895 12.1128 12.563 12.0783 C 12.5474 12.0579 12.5299 12.0391 12.5108 12.0221 C 12.4728 11.9995 12.4322 11.9816 12.39 11.9688 C 12.3863 11.961 12.3839 11.9526 12.3829 11.944 C 12.3832 11.9345 12.3856 11.9253 12.39 11.917 L 12.4168 11.917 C 12.4394 11.917 12.5581 11.9234 12.6442 11.9234 L 12.6958 11.9234 C 12.7076 11.9285 12.7184 11.9357 12.7276 11.9447 L 13.2854 12.5585 C 13.3271 12.6054 13.3815 12.668 13.4111 12.7077 L 13.4111 12.263 C 13.4116 12.222 13.41 12.1809 13.4062 12.1401 C 13.4034 12.0997 13.3926 12.0603 13.3744 12.0243 C 13.3575 11.9973 13.2537 11.9823 13.1993 11.971 C 13.1955 11.9608 13.1938 11.9499 13.1943 11.939 C 13.1934 11.9312 13.1934 11.9233 13.1943 11.9156 L 13.2261 11.9156 C 13.2777 11.9156 13.3617 11.9234 13.414 11.9234 C 13.5425 11.9234 13.582 11.9198 13.6463 11.9198 L 13.688 11.9198 C 13.6918 11.928 13.6935 11.9371 13.6929 11.9461 C 13.6944 11.9546 13.6939 11.9634 13.6915 11.9717 Z"
            fill="inherit"
        />
        <path
            d="M 17.2105 8.6054 C 17.1045 8.609 17.0078 8.6686 17.0078 8.8427 L 17.0078 9.3955 C 17.0078 9.4168 17.0149 9.5731 17.0149 9.6328 C 17.0027 9.6421 16.9884 9.6483 16.9732 9.6505 C 16.9661 9.6505 16.9584 9.6441 16.9435 9.6328 L 16.1907 8.8178 L 16.2006 8.9841 L 16.2006 9.2846 C 16.2006 9.3081 16.2056 9.3642 16.2077 9.4061 C 16.2079 9.428 16.2129 9.4496 16.2223 9.4694 C 16.2317 9.4891 16.2453 9.5066 16.2621 9.5205 C 16.3043 9.5482 16.353 9.5644 16.4033 9.5674 C 16.4077 9.575 16.4101 9.5835 16.4104 9.5923 C 16.4096 9.6016 16.4072 9.6107 16.4033 9.6193 L 16.3193 9.6193 C 16.2522 9.6193 16.1985 9.6193 16.1244 9.6193 C 16.0777 9.6193 16.0135 9.6242 15.9662 9.6242 L 15.9316 9.6242 C 15.929 9.6162 15.9273 9.6078 15.9266 9.5994 C 15.9265 9.5898 15.9292 9.5804 15.9344 9.5724 C 15.997 9.5696 16.0567 9.5444 16.1025 9.5013 C 16.1173 9.46 16.1234 9.4159 16.1201 9.372 L 16.1201 8.9869 C 16.1201 8.9251 16.1201 8.8939 16.1201 8.8328 C 16.1201 8.7911 16.1072 8.7504 16.0834 8.7162 C 16.0668 8.6961 16.0486 8.6773 16.029 8.6601 C 15.9913 8.6371 15.9507 8.6191 15.9083 8.6068 C 15.9061 8.5986 15.9045 8.5903 15.9033 8.582 C 15.9039 8.5728 15.9056 8.5637 15.9083 8.555 L 15.9379 8.555 C 15.9577 8.555 16.0735 8.5614 16.1625 8.5614 L 16.214 8.5614 C 16.2264 8.5671 16.238 8.5742 16.2486 8.5827 L 16.8065 9.1965 C 16.8482 9.2434 16.9026 9.3059 16.9322 9.3457 L 16.9322 8.9038 C 16.9322 8.8627 16.9296 8.8217 16.9245 8.7809 C 16.9229 8.7403 16.912 8.7007 16.8927 8.6651 C 16.8757 8.6381 16.7719 8.6232 16.7197 8.6118 C 16.7153 8.6017 16.7129 8.5908 16.7126 8.5798 C 16.7122 8.5717 16.7139 8.5636 16.7176 8.5564 L 16.7493 8.5564 C 16.8009 8.5564 16.8849 8.5635 16.9372 8.5635 C 17.0629 8.5635 17.1052 8.5599 17.1695 8.5599 L 17.2091 8.5599 C 17.2136 8.568 17.2163 8.577 17.2168 8.5862 C 17.2157 8.5929 17.2136 8.5994 17.2105 8.6054 Z"
            fill="inherit"
        />
        <path
            d="M 18.3192 9.4907 C 18.2704 9.5411 18.2121 9.5812 18.1478 9.6089 C 18.0835 9.6366 18.0144 9.6512 17.9444 9.652 C 17.8745 9.6527 17.8051 9.6395 17.7402 9.6132 C 17.6753 9.5868 17.6163 9.5478 17.5664 9.4985 C 17.5131 9.4452 17.4714 9.3814 17.4438 9.3111 C 17.4162 9.2408 17.4034 9.1655 17.4061 9.0899 C 17.404 9.0148 17.4171 8.94 17.4447 8.8701 C 17.4723 8.8003 17.5137 8.7368 17.5664 8.6835 C 17.6659 8.5834 17.8007 8.5267 17.9414 8.5258 C 18.0409 8.5267 18.1384 8.5541 18.2239 8.6054 C 18.3043 8.6557 18.3706 8.7258 18.4164 8.8091 C 18.4623 8.8924 18.4862 8.9862 18.4859 9.0814 C 18.4846 9.2343 18.4249 9.3808 18.3192 9.4907 Z M 18.1462 8.7091 C 18.1233 8.6738 18.0919 8.6448 18.0548 8.6251 C 18.0177 8.6053 17.9763 8.5954 17.9344 8.5962 C 17.8944 8.5957 17.8551 8.606 17.8203 8.6258 C 17.7856 8.6456 17.7567 8.6744 17.7366 8.7091 C 17.6636 8.8212 17.6289 8.9541 17.6378 9.0878 C 17.6304 9.22 17.6632 9.3513 17.7317 9.4644 C 17.7532 9.5014 17.7842 9.5318 17.8215 9.5526 C 17.8588 9.5733 17.9009 9.5836 17.9435 9.5823 C 17.9923 9.5839 18.0405 9.5708 18.0819 9.5447 C 18.1232 9.5187 18.156 9.4808 18.1759 9.436 C 18.2283 9.3293 18.2526 9.2109 18.2465 9.0921 C 18.2568 8.9564 18.2226 8.8211 18.149 8.707 Z"
            fill="inherit"
        />
        <path
            d="M 19.8354 8.609 C 19.7952 8.6103 19.7561 8.6228 19.7225 8.6451 C 19.689 8.6674 19.6623 8.6987 19.6454 8.7355 L 19.2408 9.6435 C 19.2313 9.6502 19.2204 9.6549 19.209 9.657 C 19.1963 9.657 19.1793 9.6435 19.1723 9.6151 C 19.1652 9.5866 19.1129 9.4559 19.0042 9.2087 L 18.8757 8.9117 C 18.829 8.8023 18.7916 8.7305 18.7796 8.7078 C 18.7621 8.6779 18.7372 8.6531 18.7074 8.6357 C 18.6776 8.6183 18.6439 8.6088 18.6094 8.6083 C 18.6058 8.6048 18.6031 8.6006 18.6014 8.5959 C 18.5997 8.5913 18.599 8.5863 18.5995 8.5813 C 18.5988 8.5719 18.6016 8.5625 18.6073 8.555 L 18.6737 8.555 C 18.7443 8.555 18.8149 8.5586 18.8686 8.5586 C 18.9223 8.5586 19.0466 8.5522 19.1228 8.5522 L 19.1645 8.5522 C 19.1744 8.5522 19.1765 8.5699 19.1765 8.5756 C 19.177 8.5858 19.1753 8.596 19.1715 8.6054 C 19.12 8.6104 19.0112 8.6054 19.0112 8.6765 C 19.01 8.6973 19.0134 8.7182 19.0211 8.7376 L 19.2852 9.377 L 19.5098 8.8491 C 19.5282 8.8041 19.5374 8.7558 19.5366 8.707 C 19.5366 8.6474 19.495 8.6211 19.3834 8.6076 C 19.3805 8.5996 19.3789 8.5912 19.3785 8.5827 C 19.3786 8.5721 19.3802 8.5616 19.3834 8.5515 L 19.4152 8.5515 C 19.4646 8.5515 19.514 8.5578 19.627 8.5578 C 19.6447 8.5578 19.7231 8.5543 19.7605 8.5543 L 19.8368 8.5543 C 19.8423 8.562 19.8453 8.5714 19.8453 8.5809 C 19.8453 8.5905 19.8423 8.5998 19.8368 8.6076 Z"
            fill="inherit"
        />
        <path
            d="M 16.8624 10.5727 C 16.8525 10.5727 16.8454 10.5727 16.8306 10.5692 C 16.8132 10.5121 16.7864 10.4583 16.7515 10.41 C 16.7287 10.3785 16.699 10.3527 16.6647 10.3346 C 16.6304 10.3164 16.5925 10.3065 16.5537 10.3056 C 16.529 10.3056 16.4697 10.3056 16.4499 10.3056 L 16.4499 10.7787 C 16.4499 10.8498 16.4499 10.9414 16.4499 11.1041 C 16.4499 11.2299 16.5093 11.2299 16.6378 11.2462 C 16.6434 11.2557 16.6461 11.2665 16.6456 11.2775 C 16.6464 11.2866 16.6446 11.2957 16.6406 11.3038 L 16.5954 11.3038 C 16.5191 11.3038 16.3708 11.2988 16.3264 11.2988 C 16.2946 11.2988 16.1315 11.3066 16.0524 11.3066 C 16.0468 11.2983 16.044 11.2883 16.0446 11.2782 C 16.0453 11.2686 16.0469 11.2591 16.0495 11.2498 C 16.2197 11.237 16.2374 11.205 16.2444 11.1503 C 16.2444 11.1155 16.2444 10.9741 16.2444 10.8299 L 16.2444 10.4377 C 16.2461 10.394 16.2435 10.3502 16.2367 10.307 C 16.1804 10.3051 16.1241 10.3089 16.0686 10.3184 C 15.9704 10.3666 15.8945 10.4511 15.8567 10.5542 C 15.8471 10.5571 15.8371 10.5583 15.8271 10.5578 C 15.8224 10.5578 15.8178 10.5568 15.8135 10.5548 C 15.8092 10.5529 15.8054 10.55 15.8024 10.5464 L 15.8024 10.2707 C 15.8024 10.2459 15.8073 10.2395 15.8341 10.2395 L 15.95 10.2395 C 15.9895 10.2395 16.1449 10.2395 16.3398 10.2395 C 16.594 10.2395 16.7868 10.2331 16.8341 10.2331 C 16.8609 10.2331 16.8786 10.2331 16.8857 10.2416 C 16.8927 10.2501 16.8857 10.2665 16.8857 10.2814 L 16.8857 10.5571 C 16.8832 10.5613 16.8798 10.5648 16.8758 10.5675 C 16.8717 10.5703 16.8671 10.572 16.8624 10.5727 Z"
            fill="inherit"
        />
        <path
            d="M 18.1412 11.3067 L 18.0572 11.3067 C 18.0028 11.3067 17.9414 11.2996 17.8771 11.2996 C 17.7761 11.2996 17.6476 11.3067 17.5946 11.3067 C 17.5889 11.2989 17.5861 11.2893 17.5869 11.2797 C 17.5874 11.2712 17.589 11.2628 17.5918 11.2548 C 17.6956 11.2498 17.7373 11.2321 17.7373 11.1901 C 17.7362 11.1411 17.7254 11.0928 17.7055 11.048 C 17.6737 10.9699 17.6561 10.9337 17.6483 10.9138 C 17.6434 10.9059 17.6413 10.9024 17.6187 10.9024 L 17.2832 10.9024 C 17.2467 10.9662 17.22 11.0352 17.2041 11.107 C 17.1987 11.1274 17.1961 11.1484 17.1964 11.1695 C 17.1964 11.2044 17.2281 11.2406 17.3468 11.2463 C 17.352 11.2553 17.3545 11.2657 17.3538 11.2761 C 17.355 11.2844 17.355 11.2927 17.3538 11.301 L 17.3242 11.301 C 17.2451 11.301 17.2232 11.296 17.1392 11.296 C 17.0848 11.296 16.9541 11.301 16.9096 11.301 C 16.9068 11.2937 16.9051 11.286 16.9047 11.2782 C 16.9044 11.269 16.9061 11.2598 16.9096 11.2512 C 16.9689 11.2462 17.0238 11.2182 17.0629 11.1731 C 17.116 11.0841 17.1614 10.9907 17.1985 10.8939 C 17.2578 10.7518 17.3291 10.5699 17.3616 10.4939 C 17.4061 10.4008 17.4209 10.3695 17.4322 10.3376 C 17.4548 10.2907 17.4788 10.2431 17.4887 10.226 C 17.4941 10.2195 17.501 10.2142 17.5086 10.2105 C 17.5163 10.2069 17.5247 10.205 17.5332 10.205 C 17.5417 10.205 17.5501 10.2069 17.5578 10.2105 C 17.5655 10.2142 17.5723 10.2195 17.5777 10.226 C 17.5875 10.243 17.5958 10.2608 17.6024 10.2793 C 17.6639 10.4271 17.7133 10.5585 17.7903 10.7425 C 17.8298 10.8356 17.8496 10.8939 17.8912 10.9912 C 17.9209 11.0523 17.9379 11.0978 17.9675 11.1539 C 18.0071 11.2349 18.0713 11.2356 18.1356 11.252 C 18.1356 11.2591 18.1455 11.2669 18.1455 11.2768 C 18.1455 11.2868 18.149 11.2967 18.1412 11.3067 Z M 17.4668 10.4541 C 17.4442 10.4953 17.4054 10.5884 17.3906 10.6267 C 17.3334 10.7688 17.3143 10.8129 17.3044 10.8328 L 17.6229 10.8328 C 17.5953 10.7717 17.5134 10.5742 17.4675 10.4562 Z"
            fill="inherit"
        />
        <path
            d="M 19.7908 11.3067 L 19.3586 11.3017 L 19.24 11.3017 C 19.2356 11.2933 19.233 11.2841 19.2322 11.2747 C 19.232 11.2698 19.2327 11.2648 19.2344 11.2602 C 19.2361 11.2556 19.2387 11.2513 19.2421 11.2477 C 19.2777 11.2479 19.3131 11.2446 19.348 11.2378 C 19.3925 11.2179 19.4102 11.1745 19.4102 11.1099 L 19.4102 10.3369 L 19.1828 10.8342 C 19.1581 10.8889 19.1284 10.9486 19.1037 11.0083 C 19.0679 11.0877 19.0366 11.1691 19.0098 11.252 C 19.0071 11.2588 19.0022 11.2644 18.996 11.2681 C 18.9897 11.2717 18.9823 11.273 18.9752 11.2719 C 18.9603 11.2719 18.9504 11.2669 18.9434 11.242 C 18.9137 11.1774 18.894 11.1355 18.8841 11.1078 L 18.531 10.3205 L 18.5232 10.3205 L 18.5232 10.5216 L 18.531 11.0246 C 18.531 11.1774 18.6101 11.2498 18.7308 11.2498 C 18.7355 11.258 18.7389 11.2669 18.7407 11.2761 C 18.7402 11.2854 18.7375 11.2944 18.7329 11.3024 C 18.7252 11.3024 18.7012 11.3024 18.6786 11.3024 C 18.656 11.3024 18.5846 11.2953 18.4709 11.2953 C 18.4392 11.2953 18.3721 11.2953 18.3205 11.2953 L 18.2499 11.2953 C 18.247 11.2868 18.2454 11.278 18.245 11.269 C 18.2459 11.2611 18.2475 11.2532 18.2499 11.2456 C 18.3041 11.2352 18.3565 11.2168 18.4053 11.1909 C 18.4279 11.1696 18.4469 11.1241 18.4469 11.0182 L 18.4469 10.4669 C 18.4469 10.3788 18.4349 10.3454 18.3926 10.3156 C 18.3472 10.299 18.2996 10.2894 18.2513 10.2871 C 18.2468 10.2778 18.2444 10.2676 18.2443 10.2573 C 18.2446 10.2474 18.247 10.2378 18.2513 10.2289 C 18.2937 10.2289 18.3671 10.2324 18.4413 10.2324 L 18.7005 10.2324 C 18.7104 10.2391 18.7182 10.2485 18.7231 10.2594 L 19.0415 10.9863 L 19.0987 10.8442 C 19.1482 10.7276 19.2195 10.5522 19.3212 10.3625 L 19.3855 10.2381 L 19.7901 10.2317 C 19.7958 10.2394 19.7992 10.2485 19.8 10.258 C 19.7999 10.2676 19.7972 10.2769 19.7922 10.285 C 19.7477 10.2928 19.6715 10.2928 19.634 10.3561 C 19.6213 10.376 19.6143 10.3958 19.6143 10.4839 L 19.6143 11.0019 C 19.6143 11.2008 19.6637 11.2207 19.6849 11.2356 C 19.7202 11.2459 19.7569 11.2509 19.7936 11.2506 C 19.7982 11.2588 19.8006 11.2681 19.8007 11.2776 C 19.7979 11.2967 19.7929 11.2967 19.7908 11.3067 Z"
            fill="inherit"
        />
        <path
            d="M 16.8375 12.2573 C 16.8277 12.2573 16.8199 12.2573 16.8058 12.2538 C 16.7884 12.1967 16.7616 12.1429 16.7267 12.0946 C 16.7039 12.0631 16.6743 12.0372 16.64 12.0191 C 16.6057 12.001 16.5677 11.9911 16.5289 11.9902 C 16.5042 11.9902 16.4449 11.9902 16.4251 11.9902 L 16.4251 12.4634 C 16.4251 12.5344 16.4251 12.6261 16.4251 12.7888 C 16.4251 12.9145 16.4845 12.9145 16.613 12.9309 C 16.6183 12.9404 16.6208 12.9512 16.62 12.9621 C 16.6208 12.9712 16.6191 12.9803 16.6151 12.9884 L 16.5685 12.9884 C 16.4922 12.9884 16.3439 12.9834 16.2994 12.9834 C 16.2677 12.9834 16.1045 12.9913 16.0254 12.9913 C 16.0201 12.9828 16.0176 12.9728 16.0184 12.9628 C 16.019 12.9532 16.0207 12.9437 16.0233 12.9344 C 16.1935 12.9216 16.2112 12.8897 16.2182 12.835 C 16.2182 12.8001 16.2182 12.6588 16.2182 12.5145 L 16.2182 12.1223 C 16.22 12.0789 16.2176 12.0353 16.2112 11.9923 C 16.1549 11.9904 16.0986 11.9942 16.0431 12.0037 C 15.9449 12.0519 15.869 12.1364 15.8312 12.2396 C 15.8216 12.2424 15.8116 12.2436 15.8016 12.2431 C 15.7969 12.2431 15.7922 12.2421 15.788 12.2402 C 15.7837 12.2382 15.7799 12.2353 15.7769 12.2318 L 15.7769 11.9561 C 15.7769 11.9312 15.7818 11.9248 15.8086 11.9248 L 15.9244 11.9248 C 15.964 11.9248 16.1194 11.9248 16.3143 11.9248 C 16.5685 11.9248 16.7613 11.9184 16.8086 11.9184 C 16.8354 11.9184 16.8531 11.9184 16.8601 11.927 C 16.8672 11.9355 16.8601 11.9518 16.8601 11.9667 L 16.8601 12.2424 C 16.8577 12.2464 16.8544 12.2498 16.8505 12.2523 C 16.8466 12.2549 16.8422 12.2566 16.8375 12.2573 Z"
            fill="inherit"
        />
        <path
            d="M 18.1631 11.9753 C 18.1229 11.9765 18.0838 11.9889 18.0502 12.0113 C 18.0166 12.0336 17.9899 12.065 17.9731 12.1017 L 17.5678 13.0097 C 17.5583 13.0165 17.5474 13.0211 17.536 13.0232 C 17.524 13.0232 17.5063 13.0097 17.4993 12.9813 C 17.4922 12.9529 17.44 12.8222 17.3312 12.5749 L 17.2027 12.2779 C 17.1561 12.1685 17.1186 12.0968 17.1066 12.074 C 17.0891 12.0442 17.0643 12.0194 17.0345 12.0019 C 17.0047 11.9845 16.9709 11.9751 16.9364 11.9746 C 16.9329 11.9711 16.9301 11.9669 16.9284 11.9622 C 16.9267 11.9575 16.9261 11.9525 16.9266 11.9476 C 16.9258 11.9381 16.9286 11.9288 16.9343 11.9213 L 17.0007 11.9213 C 17.0713 11.9213 17.142 11.9248 17.1956 11.9248 C 17.2493 11.9248 17.3736 11.9184 17.4498 11.9184 L 17.4915 11.9184 C 17.5014 11.9184 17.5042 11.9355 17.5042 11.9419 C 17.5047 11.9521 17.503 11.9622 17.4993 11.9717 C 17.447 11.9767 17.339 11.9717 17.339 12.0428 C 17.3378 12.0636 17.3411 12.0845 17.3489 12.1039 L 17.613 12.7433 L 17.8375 12.2154 C 17.8561 12.1704 17.8652 12.122 17.8644 12.0733 C 17.8644 12.0136 17.8227 11.9881 17.7111 11.9739 C 17.7083 11.9658 17.7067 11.9575 17.7062 11.949 C 17.7063 11.9384 17.708 11.9279 17.7111 11.9177 L 17.7429 11.9177 C 17.7923 11.9177 17.8418 11.9241 17.9548 11.9241 C 17.9724 11.9241 18.0508 11.9206 18.0882 11.9206 L 18.1645 11.9206 C 18.1693 11.9275 18.172 11.9356 18.1723 11.944 C 18.1732 11.9552 18.1699 11.9664 18.1631 11.9753 Z"
            fill="inherit"
        />
        <path
            d="M 19.8127 12.9912 L 19.3833 12.9863 L 19.2626 12.9863 C 19.2589 12.9778 19.2572 12.9685 19.2576 12.9593 C 19.2569 12.9545 19.2572 12.9497 19.2584 12.945 C 19.2596 12.9404 19.2618 12.9361 19.2647 12.9323 C 19.3012 12.9324 19.3376 12.9291 19.3734 12.9223 C 19.4151 12.9024 19.4328 12.8591 19.4328 12.7944 L 19.4328 12.1671 C 19.4328 12.1671 19.4328 12.0541 19.4328 12.025 L 19.4278 12.025 L 19.2033 12.5223 C 19.1764 12.577 19.1489 12.6367 19.122 12.6964 C 19.0726 12.8129 19.043 12.8939 19.0281 12.9401 C 19.0232 12.96 19.0055 12.96 18.9935 12.96 C 18.9815 12.96 18.9716 12.955 18.9617 12.9301 C 18.9349 12.8655 18.9144 12.8236 18.9045 12.7959 L 18.5486 12.0072 L 18.5416 12.0072 L 18.5416 12.2083 L 18.5486 12.7113 C 18.5486 12.8641 18.6277 12.9365 18.7513 12.9365 C 18.7553 12.9448 18.7577 12.9537 18.7584 12.9628 C 18.759 12.9719 18.7573 12.9809 18.7534 12.9891 C 18.7435 12.9891 18.7216 12.9891 18.6969 12.9891 C 18.6722 12.9891 18.6058 12.982 18.4921 12.982 C 18.4575 12.982 18.3911 12.982 18.3417 12.982 L 18.2711 12.982 C 18.2665 12.974 18.264 12.965 18.264 12.9557 C 18.2648 12.9475 18.2672 12.9395 18.2711 12.9323 C 18.3252 12.9215 18.3775 12.9031 18.4265 12.8776 C 18.46 12.8267 18.474 12.7654 18.466 12.7049 L 18.466 12.4513 L 18.466 12.1529 C 18.466 12.0648 18.4561 12.0314 18.4116 12.0015 C 18.3662 11.985 18.3186 11.9754 18.2704 11.9731 C 18.264 11.9645 18.2605 11.954 18.2605 11.9433 C 18.2609 11.933 18.2644 11.9231 18.2704 11.9149 C 18.3099 11.9149 18.3862 11.9184 18.4582 11.9184 L 18.7202 11.9184 C 18.7292 11.9253 18.7361 11.9347 18.74 11.9454 L 19.0585 12.6722 L 19.1178 12.5301 C 19.1833 12.3657 19.2576 12.2049 19.3403 12.0484 C 19.36 12.0065 19.3897 11.9525 19.4045 11.9241 L 19.807 11.9177 C 19.812 11.9262 19.8198 11.934 19.8198 11.944 C 19.8188 11.9537 19.8154 11.963 19.8099 11.971 C 19.7682 11.9781 19.6912 11.9781 19.6545 12.042 C 19.6425 12.0619 19.6326 12.0818 19.6326 12.1699 L 19.6326 12.6879 C 19.6326 12.8868 19.682 12.9067 19.7032 12.9216 C 19.7376 12.932 19.7733 12.937 19.8092 12.9365 C 19.8156 12.944 19.8191 12.9536 19.8191 12.9635 C 19.8226 12.9799 19.8176 12.9813 19.8127 12.9912 Z"
            fill="inherit"
        />
        <path
            d="M 30.0403 6.2651 L 29.9958 5.7549 L 29.5121 5.9027 C 28.3364 6.2626 27.1141 6.445 25.8851 6.4441 C 23.7908 6.45 21.7302 5.9145 19.9007 4.889 C 18.0712 3.8635 16.5342 2.3824 15.4371 0.5876 L 15.0868 0 L 14.7337 0.5876 C 13.6371 2.3828 12.1003 3.8643 10.2709 4.8902 C 8.4415 5.9161 6.3808 6.4519 4.2864 6.4462 C 3.06 6.4478 1.8401 6.2663 0.6665 5.9077 L 0.1814 5.7599 L 0.1369 6.2679 C -0.1703 9.7816 0.0393 13.3217 0.759 16.7739 C 1.5193 20.4123 2.8292 23.912 4.6431 27.1512 C 5.5953 28.8576 6.6801 30.4857 7.8873 32.0202 C 9.8995 34.5783 12.2331 36.8629 14.8298 38.8167 L 15.0755 39.0007 L 15.3213 38.8167 C 17.9229 36.8715 20.2623 34.5945 22.2808 32.0429 C 23.4886 30.5116 24.5732 28.8858 25.5243 27.1811 C 27.2558 24.0832 28.527 20.7469 29.2974 17.2783 L 29.3984 16.7767 C 30.1221 13.3233 30.3383 9.7817 30.0403 6.2651 Z M 21.3655 9.0324 L 21.9707 9.0324 L 21.9707 10.2225 L 21.3655 10.2225 Z M 21.3655 12.1479 L 21.9707 12.1479 L 21.9707 13.3394 L 21.3655 13.3394 Z M 15.2422 7.772 C 15.3607 7.6162 15.5176 7.4943 15.6973 7.4183 C 15.877 7.3423 16.0734 7.3148 16.2669 7.3386 L 17.4349 7.5049 L 18.973 7.7088 C 19.4291 7.7371 19.8857 7.6621 20.3091 7.4892 L 20.3091 13.9547 C 19.8797 14.1035 19.4268 14.1712 18.973 14.1543 L 17.49 13.9554 L 16.2669 13.7834 C 15.8974 13.7636 15.5334 13.8792 15.2422 14.1088 Z M 9.9776 7.5013 C 10.383 7.6699 10.8215 7.7428 11.2593 7.7145 L 12.8002 7.5091 L 13.9654 7.3415 C 14.1589 7.3178 14.3552 7.3453 14.5349 7.4213 C 14.7146 7.4973 14.8715 7.6192 14.9901 7.7748 L 14.9901 14.1159 C 14.6964 13.8836 14.3286 13.7669 13.9555 13.7877 L 12.7331 13.9603 L 11.2593 14.1579 C 10.1803 14.1579 9.9557 13.8957 9.9529 13.8936 C 9.95 13.8914 9.9755 7.9347 9.9783 7.5013 Z M 9.0984 8.2878 C 9.2142 8.2644 9.5574 8.1912 9.7255 8.155 L 9.7255 13.9667 C 9.7869 14.0996 10.0517 14.4087 11.2586 14.4087 L 12.7868 14.2062 L 13.9548 14.0385 C 14.1503 14.015 14.3485 14.0426 14.5303 14.1188 C 14.712 14.195 14.8711 14.3171 14.9922 14.4733 L 15.0268 14.4534 L 15.2069 14.4534 L 15.2415 14.4719 C 15.3599 14.3161 15.5168 14.1941 15.6965 14.1181 C 15.8763 14.0421 16.0726 14.0146 16.2662 14.0385 L 17.4342 14.2047 L 18.9723 14.4087 C 20.1968 14.4087 20.5005 14.0847 20.5329 14.0484 L 20.5555 8.1251 L 21.1134 8.2814 L 21.1134 14.7021 C 20.3804 14.8078 19.6414 14.866 18.9009 14.8762 C 17.9136 14.8585 16.9278 14.7887 15.9477 14.6673 L 15.8064 14.6474 L 15.8064 15.0822 C 15.5769 15.1664 15.3347 15.2109 15.0904 15.2136 C 14.8556 15.2123 14.6231 15.1683 14.404 15.0836 L 14.404 14.6474 L 14.2627 14.6673 C 13.2852 14.7885 12.302 14.8583 11.3172 14.8762 C 10.5751 14.8663 9.8344 14.8081 9.0998 14.7021 Z M 8.251 9.0331 L 8.8435 9.0331 L 8.8435 10.2232 L 8.251 10.2232 Z M 8.251 12.1486 L 8.8435 12.1486 L 8.8435 13.3401 L 8.251 13.3401 Z M 15.0755 37.9392 C 12.6356 36.0774 10.4367 33.9159 8.5299 31.5051 C 8.5221 31.4951 8.5151 31.4823 8.5073 31.4731 L 15.0748 25.0439 L 21.6579 31.4852 C 21.648 31.4951 21.6402 31.5101 21.6311 31.5221 C 19.7214 33.9277 17.5203 36.0837 15.0791 37.94 Z M 28.4931 17.0936 C 27.7466 20.4466 26.5221 23.6734 24.8576 26.6738 L 15.0819 17.2108 L 5.3139 26.6539 C 3.5822 23.5388 2.3248 20.1799 1.5839 16.6893 L 28.5757 16.6893 Z"
            fill="inherit"
        />
    </g>
</svg>