<svg id="princeton-logo" viewBox="0 0 185 63" fill="inherit" xmlns="http://www.w3.org/2000/svg">
    <g clip-path="url(#clip0_431_29022)">
        <path d="M160.78 19.0338C160.782 18.9661 160.768 18.8988 160.739 18.8377H160.422C159.734 18.8377 159.292 18.8676 158.052 18.8676C157.628 18.8676 156.992 18.8377 156.839 18.8377H156.48C156.439 18.8676 156.424 19.0189 156.424 19.0736C156.42 19.1581 156.445 19.2414 156.495 19.3095C156.983 19.3833 157.459 19.5184 157.914 19.7116C158.175 20.1375 158.313 20.6276 158.314 21.1276C158.326 21.3337 158.34 21.5425 158.34 22.1116V25.0083C158.342 25.2073 158.333 25.4063 158.314 25.6044C158.079 25.3408 157.749 24.8442 157.198 24.2182L152.593 19.0885C152.534 19.0186 152.465 18.9576 152.388 18.9074C152.277 18.9074 152.084 18.8946 151.976 18.8946C151.091 18.8946 149.494 18.8526 149.26 18.8526C149.228 18.913 149.209 18.9789 149.203 19.0466C149.212 19.1352 149.226 19.2232 149.245 19.3102C149.636 19.3734 149.997 19.5574 150.279 19.8367C150.556 20.0976 150.801 20.3913 151.007 20.7113C151.054 20.8546 151.073 21.0055 151.065 21.156C151.065 21.8765 151.023 22.8875 151.023 23.8559V26.6708C151.026 27.0235 150.999 27.3758 150.942 27.7238C150.536 28.0938 150.034 28.3402 149.495 28.4343C149.463 28.5135 149.444 28.5975 149.44 28.6829C149.44 28.7248 149.453 28.8641 149.48 28.879H149.742C150.019 28.879 150.653 28.8371 151.065 28.8371C151.673 28.8371 152.085 28.879 152.651 28.879H153.478C153.532 28.8641 153.548 28.6978 153.548 28.6431C153.548 28.5667 153.534 28.4909 153.507 28.4193C152.87 28.3445 152.281 28.0389 151.852 27.5597C151.73 26.9951 151.67 26.4187 151.674 25.841C151.674 25.3991 151.659 24.7873 151.659 23.9703C151.659 22.8726 151.674 21.9155 151.686 21.4317C151.77 21.5283 151.866 21.6527 151.935 21.7372L158.303 28.9337C158.369 29.0048 158.619 29.0154 158.688 29.0154C158.744 29.0207 158.801 29.0114 158.853 28.9884C158.936 28.7911 158.978 28.5789 158.977 28.3646C158.977 27.9646 158.962 27.5476 158.962 27.3387V21.5553C158.962 19.821 159.777 19.3344 160.727 19.2946C160.765 19.212 160.784 19.1219 160.782 19.031L160.78 19.0338ZM144.987 23.436C144.987 25.5326 144.409 27.3763 143.624 28.0272C143.21 28.3623 142.692 28.5386 142.162 28.5245C141.802 28.544 141.444 28.4685 141.123 28.3055C140.801 28.1424 140.528 27.8975 140.33 27.5952C139.758 26.4829 139.478 25.2424 139.515 23.9909C139.515 22.0633 140.009 20.5528 140.893 19.8175C141.291 19.4699 141.8 19.2777 142.328 19.2761C142.693 19.2738 143.054 19.3593 143.38 19.5257C143.706 19.692 143.988 19.9343 144.202 20.2324C144.793 21.1898 145.068 22.3106 144.987 23.4346L144.987 23.436ZM147.481 23.7003C147.52 22.8217 147.31 21.95 146.876 21.1865C146.442 20.4231 145.801 19.7993 145.029 19.3876C144.231 18.9274 143.329 18.6826 142.409 18.6772C141.483 18.688 140.575 18.9292 139.765 19.379C138.954 19.8289 138.267 20.4736 137.764 21.2555C137.244 22.0963 136.967 23.067 136.967 24.0577C136.967 24.8408 137.145 25.6135 137.486 26.3173C137.828 27.021 138.324 27.6374 138.937 28.1195C139.849 28.7882 140.953 29.1387 142.081 29.1177C142.797 29.1172 143.508 28.9808 144.174 28.7156C144.908 28.4357 145.564 27.9845 146.09 27.3991C147.006 26.389 147.504 25.0647 147.481 23.6974V23.7003ZM135.365 21.9553V19.1283C135.365 18.9194 135.284 18.8647 135.077 18.8647C134.662 18.8647 132.486 18.9194 130.282 18.9194C128.571 18.9194 127.151 18.8924 126.381 18.8924H125.358C125.18 18.8924 125.126 18.9322 125.126 19.1283V21.7763C125.192 21.8157 125.268 21.8348 125.345 21.831C125.447 21.8356 125.549 21.8265 125.649 21.804C126.019 20.8381 126.699 20.0235 127.58 19.4885C127.992 19.4466 128.804 19.4338 129.024 19.4338C129.039 19.5852 129.054 20.0733 129.066 20.6537C129.08 21.6484 129.08 22.0818 129.08 24.4371C129.08 26.4769 129.066 27.3934 129.039 27.6144C128.984 28.0016 129.054 28.2929 127.399 28.3618C127.364 28.4639 127.35 28.5722 127.357 28.6801C127.355 28.755 127.36 28.83 127.372 28.9039H127.908C128.419 28.9039 129.616 28.8471 130.116 28.8471C130.513 28.8471 131.797 28.889 132.637 28.889H133.022C133.056 28.7962 133.07 28.6971 133.063 28.5984C133.066 28.5122 133.047 28.4268 133.009 28.3497C132.521 28.3856 132.032 28.2948 131.589 28.0861C131.505 27.7457 131.463 27.3961 131.464 27.0453C131.451 25.5468 131.437 24.9785 131.437 23.9795C131.437 22.69 131.452 21.8182 131.452 19.4182C131.645 19.4182 132.087 19.4033 132.498 19.4182C133.157 19.5505 133.742 19.9262 134.138 20.4711C134.443 20.9436 134.689 21.4521 134.871 21.9852C134.948 22.0055 135.027 22.0139 135.106 22.01C135.196 22.0091 135.285 21.9905 135.368 21.9553H135.365ZM123.488 26.4619C123.492 26.3284 123.487 26.1948 123.473 26.0619C123.411 26.0237 123.338 26.0088 123.266 26.02C123.164 26.0155 123.062 26.0246 122.962 26.047C122.641 26.8708 122.12 27.6002 121.446 28.1685C121.119 28.3046 120.763 28.3566 120.411 28.3199H119.281C118.977 28.3251 118.673 28.3013 118.372 28.2488C118.165 28.209 117.949 27.8765 117.849 27.6556C117.709 27.3872 117.655 27.0814 117.696 26.781V23.7443H118.207C118.497 23.7531 118.783 23.8197 119.047 23.9404C119.315 24.0557 119.534 24.2612 119.667 24.5216C119.792 24.8938 119.871 25.2802 119.901 25.6719C120.017 25.7138 120.139 25.7324 120.262 25.7266C120.358 25.7319 120.453 25.7084 120.536 25.6591C120.536 25.284 120.452 24.2729 120.452 23.7166C120.452 23.0239 120.548 22.0669 120.593 21.5674C120.507 21.5277 120.413 21.5089 120.319 21.5127C120.198 21.5049 120.077 21.5191 119.961 21.5546C119.919 21.7457 119.766 22.3298 119.738 22.3717C119.525 22.7191 119.192 22.9754 118.803 23.0921C118.541 23.1595 118.272 23.1969 118.002 23.2037H117.711V21.9134C117.711 20.5841 117.738 20.1543 117.75 19.9035C117.765 19.7372 117.792 19.5582 117.807 19.4338C118.081 19.4028 118.358 19.3928 118.634 19.404C119.431 19.404 119.804 19.4189 119.928 19.4189C120.244 19.4182 120.552 19.5154 120.812 19.6974C121.355 20.1821 121.804 20.7654 122.133 21.4168C122.229 21.4387 122.327 21.4477 122.425 21.4438C122.506 21.4438 122.521 21.4168 122.632 21.3592C122.632 20.5145 122.576 19.4189 122.548 19.0715C122.533 18.9294 122.507 18.8924 122.232 18.8924C122.121 18.8924 121.596 18.8654 121.047 18.8654C120.262 18.8654 119.943 18.8782 118.743 18.8782C118.096 18.8782 116.758 18.8931 116.193 18.8931C115.368 18.8931 114.664 18.8661 114.306 18.8661H113.837C113.795 18.9324 113.771 19.0085 113.767 19.0871C113.768 19.1833 113.793 19.2777 113.837 19.3628C114.177 19.3895 114.513 19.4411 114.845 19.5169C114.992 19.6175 115.114 19.7515 115.2 19.9082C115.285 20.0649 115.333 20.2397 115.339 20.4186C115.369 20.7091 115.381 21.5141 115.381 22.1529V25.0076C115.381 25.5916 115.368 26.4357 115.354 26.7838C115.329 27.2367 115.227 27.6819 115.053 28.1003C114.654 28.2423 114.234 28.313 113.811 28.3092C113.767 28.4054 113.743 28.5092 113.74 28.6147C113.742 28.7023 113.766 28.7879 113.811 28.8634H114.265C114.707 28.8634 116.332 28.8215 116.704 28.8215C117.05 28.8215 117.712 28.8485 118.509 28.8485C118.952 28.8485 120.248 28.933 123.029 28.933C123.154 28.9442 123.28 28.9351 123.402 28.906C123.441 28.8381 123.46 28.7605 123.456 28.6822C123.486 28.4065 123.486 27.5866 123.486 26.4641L123.488 26.4619ZM111.827 26.9508C111.798 26.8501 111.735 26.7623 111.65 26.7019C111.565 26.6415 111.462 26.612 111.358 26.6183C111.328 26.6183 111.287 26.631 111.262 26.631C110.978 27.1193 110.574 27.5254 110.088 27.8097C109.602 28.0939 109.051 28.2467 108.489 28.2531C107.898 28.2561 107.319 28.0842 106.824 27.7588C106.329 27.4334 105.94 26.9688 105.706 26.4229C105.423 25.6126 105.28 24.76 105.282 23.9014C105.254 23.0726 105.395 22.2468 105.694 21.4743C106.302 19.8672 107.184 19.3649 108.26 19.3649C108.699 19.3861 109.127 19.5101 109.509 19.7271C109.892 19.944 110.219 20.248 110.465 20.6147C110.779 21.1367 111.016 21.7027 111.166 22.2942C111.265 22.3182 111.367 22.3315 111.47 22.334C111.588 22.3217 111.702 22.2789 111.8 22.2097C111.788 22.0555 111.65 20.9898 111.65 20.6573C111.65 20.2402 111.758 19.5617 111.758 19.2981C111.595 19.2022 111.411 19.1491 111.222 19.1439C111.042 19.3122 110.885 19.5032 110.753 19.7123C109.887 19.0207 108.799 18.6708 107.694 18.7283C107.055 18.7089 106.419 18.8204 105.824 19.0561C105.229 19.2919 104.688 19.6469 104.234 20.0995C103.737 20.6155 103.349 21.2282 103.096 21.9002C102.842 22.5722 102.728 23.2892 102.76 24.0072C102.738 24.8033 102.902 25.5936 103.24 26.314C103.577 27.0343 104.079 27.6646 104.704 28.1536C105.652 28.7931 106.775 29.1187 107.916 29.0851C108.579 29.1308 109.243 29.0203 109.856 28.7624C110.469 28.5045 111.014 28.1063 111.447 27.5994C111.604 27.4006 111.734 27.1818 111.835 26.9486L111.827 26.9508ZM101.103 19.0338C101.104 18.9661 101.089 18.8992 101.061 18.8377H100.743C100.054 18.8377 99.6127 18.8676 98.3719 18.8676C97.9482 18.8676 97.3126 18.8377 97.1594 18.8377H96.8014C96.7597 18.8676 96.7449 19.0189 96.7449 19.0736C96.7397 19.1582 96.7647 19.2419 96.8155 19.3095C97.3036 19.3839 97.7806 19.519 98.2356 19.7116C98.4943 20.1382 98.6318 20.6279 98.6332 21.1276C98.648 21.3337 98.6629 21.5425 98.6629 22.1116V25.0083C98.6655 25.2074 98.6556 25.4065 98.6332 25.6044C98.4009 25.3408 98.0683 24.8442 97.5174 24.2182L92.9173 19.0885C92.8571 19.0184 92.7872 18.9574 92.7097 18.9074C92.5988 18.9074 92.4061 18.8946 92.2973 18.8946C91.4132 18.8946 89.8158 18.8526 89.5813 18.8526C89.5508 18.9131 89.5323 18.979 89.5269 19.0466C89.5352 19.1351 89.5484 19.2232 89.5665 19.3102C89.9573 19.3734 90.3189 19.5574 90.601 19.8367C90.8795 20.0969 91.125 20.3906 91.3319 20.7113C91.3773 20.8549 91.3957 21.0057 91.3863 21.156C91.3863 21.8765 91.3468 22.8875 91.3468 23.8559V26.6708C91.3492 27.0236 91.3211 27.3759 91.2627 27.7238C90.8571 28.0938 90.3553 28.3402 89.8158 28.4343C89.785 28.5138 89.7667 28.5977 89.7614 28.6829C89.7614 28.7248 89.7741 28.8641 89.8009 28.879H90.0629C90.3398 28.879 90.9739 28.8371 91.3863 28.8371C91.9936 28.8371 92.4061 28.879 92.9717 28.879H93.7965C93.8509 28.8641 93.8672 28.6978 93.8672 28.6431C93.8665 28.5666 93.8524 28.4909 93.8255 28.4193C93.1893 28.3443 92.6021 28.0387 92.1737 27.5597C92.053 26.9949 91.9933 26.4187 91.9958 25.841C91.9958 25.3991 91.9809 24.7873 91.9809 23.9703C91.9809 22.8726 91.9958 21.9155 92.0078 21.4317C92.0918 21.5283 92.1878 21.6527 92.257 21.7372L98.6226 28.9337C98.7418 28.9937 98.8743 29.0219 99.0075 29.0154C99.064 29.0211 99.1209 29.0118 99.1727 28.9884C99.2557 28.7911 99.2977 28.5789 99.2963 28.3646C99.2963 27.9646 99.2815 27.5476 99.2815 27.3387V21.5553C99.2815 19.821 100.096 19.3344 101.047 19.2946C101.085 19.2121 101.105 19.122 101.103 19.031L101.103 19.0338ZM87.4741 28.6396C87.4747 28.5451 87.4606 28.4512 87.4324 28.3611C87.0905 28.338 86.7501 28.2965 86.4127 28.2367C86.1636 27.9306 86.0016 27.5623 85.9438 27.171C85.9317 26.5053 85.9169 25.1312 85.9169 23.8445V20.4342C85.9039 20.1624 85.9929 19.8956 86.1662 19.6868C86.5343 19.4548 86.9592 19.3301 87.3935 19.3265C87.4198 19.2412 87.4331 19.1523 87.4331 19.0629C87.4317 18.983 87.4072 18.9052 87.3625 18.8391H86.9628C86.3851 18.8391 85.0342 18.9102 84.5617 18.9102C84.2729 18.9102 82.922 18.8704 82.3147 18.8555H82.0131C81.9609 18.9224 81.9357 19.0066 81.9425 19.0914C81.9449 19.1798 81.9538 19.2679 81.9693 19.355C82.3363 19.3509 82.7008 19.4167 83.0434 19.5489C83.1988 19.7015 83.32 19.8857 83.3988 20.0892C83.4776 20.2928 83.5122 20.5109 83.5003 20.729C83.5131 20.9926 83.5251 21.561 83.5399 22.8356C83.5547 23.5291 83.5667 24.5003 83.5667 25.3024C83.5667 25.7046 83.5399 26.6069 83.5251 27.0936C83.5119 27.3801 83.4475 27.6619 83.3351 27.9256C83.1699 28.062 83.0018 28.3128 81.9933 28.3824C81.9662 28.4769 81.9522 28.5746 81.9517 28.673C81.9517 28.7845 81.9785 28.8392 81.9785 28.9089H82.213C82.7659 28.9089 84.1437 28.8378 84.8598 28.8378C85.0674 28.8378 86.4995 28.8797 86.9536 28.8797H87.4154C87.4506 28.8061 87.4691 28.7255 87.4698 28.6439L87.4741 28.6396ZM76.418 21.4019C76.4273 21.8236 76.3137 22.2389 76.0913 22.5964C75.8688 22.954 75.5471 23.2382 75.1659 23.414C74.795 23.4956 74.4157 23.5323 74.036 23.5234C73.8652 23.5273 73.6943 23.5183 73.5248 23.4964L73.5099 22.3163V19.7642C73.4997 19.6554 73.5296 19.5467 73.594 19.4587C73.7797 19.3909 73.9774 19.3631 74.1745 19.377C75.2486 19.377 75.7175 19.4736 76.1031 20.1273C76.3217 20.5153 76.4311 20.956 76.4194 21.4019H76.418ZM80.4171 28.6559C80.4158 28.554 80.3916 28.4538 80.3465 28.3625C80.0342 28.3704 79.724 28.3093 79.4377 28.1835C79.3517 28.0732 79.2733 27.9571 79.2032 27.836C79.0361 27.2934 78.8383 26.7609 78.6107 26.241C78.3759 25.632 78.0301 25.0725 77.591 24.5912C77.268 24.3932 76.92 24.2395 76.5564 24.1344C76.3368 24.0499 76.1567 23.9802 75.9915 23.9106C76.178 23.8722 76.3667 23.8449 76.5564 23.8289C77.1048 23.8332 77.6388 23.6521 78.0726 23.3145C78.3471 23.1042 78.5678 22.8312 78.7164 22.5179C78.865 22.2047 78.9372 21.8603 78.9271 21.5134C78.9329 20.9654 78.7704 20.429 78.4619 19.9773C78.1534 19.5256 77.7139 19.1808 77.2033 18.9898C76.6611 18.8699 76.1063 18.8181 75.5515 18.8356C74.517 18.8356 73.07 18.9322 72.3815 18.9322C72.1738 18.9322 70.974 18.9052 70.4924 18.9052C70.2848 18.9052 69.7615 18.8782 69.6803 18.8782C69.6422 18.9615 69.6183 19.0506 69.6097 19.1418C69.6114 19.226 69.6204 19.31 69.6365 19.3926C69.871 19.4196 70.2982 19.4743 70.5178 19.5169C70.7802 19.7025 70.9814 19.9628 71.0955 20.2644C71.1833 21.4413 71.2113 22.622 71.1795 23.8019C71.1795 25.215 71.1944 26.8527 71.1252 27.3792C71.1228 27.5709 71.069 27.7584 70.9696 27.922C70.8702 28.0855 70.7287 28.219 70.5602 28.3085C70.3002 28.354 70.0381 28.3863 69.7749 28.4051C69.7322 28.4909 69.7081 28.5849 69.7043 28.6808C69.7125 28.7575 69.7308 28.8327 69.7587 28.9046C69.9536 28.9046 72.0623 28.8627 72.5022 28.8627C73.3835 28.8627 74.1264 28.9046 74.9145 28.9046C74.945 28.8388 74.9634 28.7681 74.9689 28.6957C74.968 28.5964 74.9496 28.498 74.9145 28.4051C74.6377 28.3781 74.2945 28.2936 74.142 28.263C73.9581 28.1756 73.8039 28.0357 73.6986 27.8607C73.5932 27.6857 73.5414 27.4834 73.5495 27.279L73.5396 24.0783C73.6586 24.0677 73.7782 24.0635 73.8976 24.0655C74.1564 24.0688 74.4089 24.1454 74.6264 24.2864C75.0787 24.5115 75.4574 24.8624 75.7175 25.2975C76.1872 26.2297 76.4809 27.2415 76.584 28.2815C76.6256 28.5721 76.7344 28.8208 76.9985 28.8499C77.1073 28.8648 77.8382 28.8918 78.3614 28.8918H80.3345C80.387 28.8253 80.4156 28.743 80.4157 28.6581L80.4171 28.6559ZM65.4474 21.4708C65.4593 21.7933 65.4029 22.1147 65.282 22.4137C65.1611 22.7127 64.9785 22.9824 64.7462 23.2051C64.3232 23.4878 63.818 23.6189 63.3119 23.5774C63.114 23.5815 62.9161 23.5725 62.7194 23.5504C62.6086 23.5383 62.5393 23.5234 62.5393 23.4538L62.5542 19.3919C62.819 19.3499 63.0863 19.3261 63.3543 19.3209C64.29 19.3209 64.8705 19.5567 65.1445 20.1379C65.3477 20.5518 65.4517 21.0078 65.4481 21.4694L65.4474 21.4708ZM67.9148 21.5241C67.9201 21.0234 67.7846 20.5314 67.524 20.1049C67.2633 19.6784 66.8882 19.3346 66.4417 19.1134C65.6455 18.8576 64.8096 18.7497 63.975 18.7951C62.9157 18.7951 61.259 18.8768 60.5302 18.8768C60.0154 18.8775 59.245 18.8207 58.8149 18.8207C58.7746 18.8878 58.7504 18.9635 58.7443 19.0416C58.7385 19.1364 58.7527 19.2313 58.786 19.3201C59.048 19.4019 59.4745 19.4715 59.7513 19.5411C59.9699 19.7477 60.1021 20.0301 60.1214 20.3312C60.163 20.8178 60.192 21.4267 60.192 22.4804C60.192 25.4069 60.1793 26.9472 60.1376 27.2797C60.1125 27.5016 60.0255 27.7119 59.8865 27.886C59.7475 28.0602 59.5623 28.1912 59.3523 28.2637C59.0883 28.3253 58.8212 28.3728 58.5522 28.4058C58.5345 28.5017 58.5256 28.5989 58.5254 28.6964C58.5221 28.7634 58.5357 28.8301 58.5649 28.8904C59.007 28.8904 60.3036 28.8357 60.7993 28.8357C62.0267 28.8357 63.2808 28.8904 63.7893 28.8904H64.1353C64.1705 28.8225 64.185 28.7456 64.177 28.6694C64.1835 28.5847 64.1734 28.4995 64.1473 28.4186C63.6808 28.4106 63.2285 28.2561 62.8536 27.9767C62.6619 27.7483 62.563 27.4554 62.5768 27.1568L62.5351 24.1088C63.3621 24.1635 64.2441 24.1905 64.7243 24.1905C65.2663 24.191 65.8051 24.1071 66.3217 23.9419C66.7985 23.7488 67.2055 23.4142 67.4887 22.9827C67.7719 22.5512 67.9178 22.0432 67.9071 21.5262" fill="inherit" />
        <path d="M161 34.4975C161 34.4158 160.946 34.3881 160.919 34.3313C160.354 34.3313 159.61 34.3732 159.319 34.3732C158.617 34.3732 157.765 34.3163 157.39 34.3163C157.348 34.4009 157.334 34.4158 157.334 34.4854C157.334 34.5422 157.344 34.5984 157.363 34.6517C157.763 34.7334 158.341 34.8307 158.452 35.024C158.543 35.1894 158.585 35.3769 158.576 35.5654C158.582 35.7407 158.553 35.9156 158.492 36.0798C158.368 36.4251 158.107 36.9665 157.736 37.7295C157.1 39.0191 156.701 39.8212 156.479 40.1452C156.121 39.5342 155.324 37.927 155.131 37.5121L154.358 35.8204C154.321 35.6988 154.303 35.5724 154.303 35.4453C154.297 35.3228 154.316 35.2003 154.358 35.0851C154.481 34.8343 154.908 34.8066 155.488 34.737C155.512 34.6701 155.526 34.5995 155.527 34.5281C155.527 34.4314 155.488 34.457 155.446 34.3917H155.199C154.273 34.3917 154.549 34.4314 152.964 34.4314C152.29 34.4314 151.475 34.3917 151.367 34.3917C151.31 34.4883 151.283 34.5011 151.283 34.5977C151.284 34.6577 151.304 34.7159 151.339 34.764C152.257 34.9878 152.54 35.1512 152.633 35.3323L155.045 40.0926C155.228 40.4224 155.377 40.7705 155.488 41.1313C155.584 41.6806 155.621 42.2387 155.598 42.796C155.622 42.9969 155.594 43.2005 155.516 43.3871C155.439 43.5738 155.315 43.7373 155.156 43.8617C154.794 43.9536 154.425 44.0142 154.053 44.0429C154.009 44.0984 153.985 44.1663 153.982 44.2369C153.987 44.2941 154.001 44.3503 154.024 44.4031C154.73 44.4031 155.459 44.3882 155.87 44.3882C156.159 44.3882 156.601 44.4031 157.413 44.4152C157.882 44.4301 158.24 44.445 158.487 44.445C158.525 44.3914 158.55 44.3292 158.558 44.2639C158.559 44.199 158.539 44.1355 158.502 44.0827C158.088 44.0668 157.68 43.9723 157.301 43.8042C157.177 43.6951 157.079 43.5584 157.017 43.4048C156.954 43.2512 156.928 43.0851 156.941 42.9196L156.832 40.8379C156.827 40.7245 156.846 40.6112 156.887 40.5054C156.924 40.3719 156.975 40.2422 157.037 40.1182L159.16 35.8872C159.381 35.5165 159.683 35.2007 160.042 34.9636C160.328 34.8338 160.629 34.7402 160.938 34.6851C160.968 34.6289 160.986 34.5673 160.992 34.5039L161 34.4975ZM149.859 37.3608V34.6645C149.859 34.4556 149.775 34.4009 149.567 34.4009C149.154 34.4009 147.251 34.4556 145.047 34.4556C143.338 34.4556 142.195 34.4286 141.422 34.4286H140.403C140.225 34.4286 140.168 34.4705 140.168 34.6645V37.1739C140.215 37.2126 140.273 37.2328 140.334 37.2308C140.39 37.2352 140.447 37.226 140.499 37.2038C141.037 35.9959 141.311 35.3565 142.237 34.8862C142.65 34.8464 144.097 34.8314 144.316 34.8314C144.331 34.9856 144.346 35.4709 144.358 36.0514C144.373 37.0496 144.373 37.5917 144.373 39.9491C144.373 41.986 144.358 43.0418 144.331 43.2628C144.277 43.65 144.346 43.9413 142.691 44.0102C142.656 44.0836 142.642 44.1651 142.65 44.2461C142.647 44.3019 142.652 44.3579 142.665 44.4123H143.201C143.712 44.4123 144.386 44.3576 144.882 44.3576C145.282 44.3576 146.04 44.3996 146.882 44.3996H147.267C147.301 44.3355 147.315 44.2629 147.309 44.1907C147.312 44.1215 147.292 44.0531 147.252 43.9967C146.764 44.0322 146.276 43.9414 145.833 43.7331C145.749 43.3926 145.708 43.043 145.709 42.6923C145.696 41.1946 145.682 40.4898 145.682 39.4901C145.682 38.2006 145.697 37.2165 145.697 34.8172C145.89 34.8172 146.91 34.8023 147.321 34.8172C147.956 34.9501 148.514 35.3281 148.875 35.8702C149.173 36.3304 149.383 36.8427 149.495 37.3807C149.562 37.403 149.632 37.4122 149.702 37.4077C149.758 37.406 149.812 37.3869 149.856 37.353L149.859 37.3608ZM138.401 44.202C138.402 44.1351 138.388 44.0688 138.36 44.0081C138.018 43.9848 137.677 43.9433 137.34 43.8837C137.091 43.5776 136.929 43.2093 136.871 42.818C136.859 42.1523 136.844 40.6418 136.844 39.3523V35.829C136.833 35.5578 136.921 35.292 137.091 35.0815C137.459 34.8489 137.884 34.7232 138.319 34.7185C138.346 34.6626 138.36 34.6015 138.361 34.5394C138.361 34.5084 138.355 34.4777 138.343 34.4491C138.33 34.4206 138.313 34.3947 138.291 34.3732H137.893C137.312 34.3732 136.486 34.4442 136.017 34.4442C135.728 34.4442 134.901 34.4023 134.294 34.3895H133.99C133.965 34.4116 133.946 34.4394 133.934 34.4707C133.923 34.5019 133.919 34.5355 133.923 34.5686C133.926 34.6297 133.935 34.6904 133.95 34.7497C134.317 34.7455 134.682 34.8114 135.024 34.9437C135.18 35.0962 135.301 35.2805 135.38 35.484C135.459 35.6876 135.493 35.9057 135.481 36.1238C135.494 36.3846 135.506 37.0929 135.521 38.3697C135.536 39.0631 135.548 40.0038 135.548 40.8095C135.548 41.2116 135.521 42.2503 135.506 42.737C135.493 43.0236 135.429 43.3055 135.316 43.569C135.148 43.7111 134.983 43.9562 133.978 44.0258C133.951 44.0922 133.937 44.1631 133.936 44.2347C133.936 44.3463 133.963 44.3463 133.963 44.4138H134.197C134.75 44.4138 135.605 44.347 136.321 44.347C136.529 44.347 137.437 44.3868 137.894 44.3868H138.346C138.382 44.3332 138.402 44.2703 138.403 44.2056L138.401 44.202ZM131.593 41.6542C131.607 41.1371 131.466 40.6277 131.188 40.1925C130.91 39.7572 130.509 39.4164 130.035 39.2144C129.547 38.9747 129.035 38.7889 128.507 38.6603C127.816 38.4774 127.145 38.2216 126.507 37.8972C126.248 37.743 126.036 37.5207 125.892 37.2542C125.749 36.9878 125.681 36.6871 125.695 36.3846C125.749 35.9143 125.981 35.483 126.343 35.1807C126.705 34.8785 127.169 34.7287 127.638 34.7625C128.007 34.7612 128.371 34.8487 128.7 35.0176C129.029 35.1866 129.312 35.4321 129.527 35.7338C129.878 36.2216 130.165 36.7526 130.382 37.3139C130.458 37.3458 130.541 37.3524 130.621 37.3327C130.701 37.313 130.772 37.268 130.824 37.2045C130.763 36.7904 130.726 36.3731 130.713 35.9547C130.728 35.5918 130.77 35.2306 130.839 34.8741C130.795 34.8053 130.733 34.7504 130.66 34.716C130.586 34.6816 130.505 34.6692 130.424 34.6801C130.225 34.823 130.045 34.9901 129.886 35.1775C129.239 34.6063 128.404 34.2989 127.543 34.3156C127.177 34.2868 126.809 34.3336 126.461 34.453C126.113 34.5725 125.794 34.7622 125.522 35.0104C125.249 35.2586 125.03 35.5601 124.878 35.8965C124.726 36.2329 124.644 36.597 124.636 36.9665C124.654 37.5141 124.83 38.0446 125.145 38.4919C125.487 38.9507 125.953 39.3015 126.487 39.5029C126.884 39.6691 128.676 40.2134 128.924 40.3079C130.027 40.7342 130.442 41.1129 130.442 42.0969C130.415 42.6226 130.199 43.1206 129.835 43.498C129.644 43.7145 129.407 43.8853 129.142 43.9979C128.878 44.1106 128.591 44.1621 128.304 44.1488C127.867 44.1521 127.435 44.0624 127.036 43.8855C126.637 43.7087 126.28 43.4488 125.987 43.1228C125.578 42.5529 125.262 41.9206 125.052 41.25C124.99 41.2295 124.924 41.221 124.859 41.2251C124.765 41.2253 124.674 41.2538 124.597 41.3068C124.597 41.488 124.651 42.4024 124.651 42.6781C124.645 43.0946 124.595 43.5093 124.501 43.915C124.544 43.9956 124.608 44.0634 124.686 44.1117C124.763 44.1601 124.852 44.1873 124.943 44.1907C125.138 43.9947 125.373 43.843 125.631 43.7459C125.75 43.7569 125.864 43.8007 125.96 43.8724C126.639 44.3356 127.443 44.5775 128.263 44.5651C130.207 44.5651 131.597 43.579 131.597 41.6521L131.593 41.6542ZM119.406 36.867C119.394 37.326 119.243 37.7703 118.972 38.1399C118.702 38.5096 118.325 38.7867 117.892 38.9338C117.419 39.0153 116.939 39.0519 116.458 39.0432C116.293 39.0432 115.823 39.0432 115.616 39.0162L115.604 37.7963V35.1782C115.604 34.997 115.645 34.8997 115.7 34.8577C116.017 34.7969 116.34 34.7695 116.663 34.776C117.959 34.776 118.552 34.9004 119.021 35.5782C119.281 35.9564 119.415 36.4073 119.406 36.867ZM122.301 44.2155C122.3 44.1407 122.277 44.0678 122.234 44.0067C121.921 44.0145 121.61 43.9534 121.323 43.8276C121.238 43.7165 121.16 43.6003 121.089 43.4795C120.926 42.8925 120.733 42.3146 120.511 41.748C120.277 41.138 119.931 40.5776 119.491 40.0961C119.183 39.8974 118.849 39.7436 118.498 39.6393C118.279 39.5548 118.099 39.488 117.933 39.4183C118.12 39.3801 118.309 39.3519 118.498 39.3338C119.027 39.3211 119.538 39.1422 119.96 38.8222C120.241 38.6176 120.47 38.3488 120.628 38.038C120.786 37.7272 120.869 37.3831 120.869 37.034C120.874 36.4876 120.712 35.953 120.403 35.5033C120.095 35.0537 119.656 34.711 119.146 34.5224C118.603 34.4038 118.047 34.3529 117.491 34.3711C116.459 34.3711 115.686 34.4677 114.997 34.4677C114.792 34.4677 114.116 34.4407 113.634 34.4407C113.426 34.4407 112.903 34.4137 112.819 34.4137C112.78 34.5103 112.749 34.538 112.749 34.5927C112.751 34.6583 112.761 34.7234 112.778 34.7867C113.01 34.8165 113.438 34.8712 113.659 34.9132C113.922 35.0982 114.124 35.3586 114.237 35.6606C114.308 36.1053 114.321 37.3523 114.321 39.3075C114.321 40.7207 114.334 42.4969 114.265 43.0241C114.264 43.2161 114.211 43.4042 114.111 43.568C114.011 43.7318 113.869 43.8651 113.7 43.9534C113.44 43.999 113.178 44.0313 112.914 44.05C112.873 44.1066 112.849 44.1739 112.844 44.244C112.853 44.3023 112.872 44.3586 112.901 44.4102C113.094 44.4102 114.679 44.3683 115.118 44.3683C116.003 44.3683 116.222 44.4102 117.008 44.4102C117.038 44.365 117.057 44.3131 117.064 44.2589C117.064 44.1855 117.044 44.1134 117.008 44.05C116.734 44.023 116.387 43.9385 116.235 43.9136C116.051 43.8253 115.898 43.6848 115.793 43.5095C115.688 43.3342 115.636 43.1319 115.645 42.9274L115.63 39.4617C115.741 39.4468 116.138 39.4468 116.25 39.4468C116.627 39.4285 117.003 39.4947 117.351 39.6407C117.9 39.8762 118.369 40.2659 118.704 40.7633C119.173 41.7098 119.467 42.7341 119.573 43.7864C119.613 44.077 119.724 44.3278 119.986 44.3548C120.251 44.3889 120.518 44.4029 120.786 44.3967H122.218C122.244 44.3742 122.264 44.3464 122.278 44.3151C122.292 44.2838 122.299 44.2499 122.299 44.2155H122.301ZM110.736 42.109C110.739 41.9748 110.735 41.8405 110.723 41.7068C110.661 41.6685 110.588 41.6537 110.516 41.6649C110.454 41.6607 110.393 41.6699 110.335 41.6919C110.131 42.5479 109.627 43.3012 108.915 43.8134C108.542 43.9552 108.142 44.008 107.745 43.9676H106.2C105.895 43.9654 105.591 43.9417 105.289 43.8965C105.084 43.8546 104.865 43.5214 104.768 43.3004C104.631 43.0017 104.578 42.671 104.615 42.3441V39.1853H105.057C105.456 39.1627 105.856 39.229 106.227 39.3793C106.527 39.5003 106.786 39.7076 106.97 39.9754C107.082 40.349 107.148 40.7355 107.165 41.1256C107.229 41.1695 107.307 41.1896 107.384 41.1825C107.464 41.1862 107.542 41.161 107.604 41.1114C107.604 40.7363 107.523 39.7253 107.523 39.169C107.523 38.4762 107.619 37.6315 107.658 37.132C107.593 37.09 107.516 37.0708 107.439 37.0773C107.363 37.07 107.287 37.0838 107.219 37.1171C107.177 37.311 107.066 37.8944 107.041 37.937C106.778 38.2925 106.406 38.5509 105.982 38.6723C105.611 38.7564 105.232 38.7931 104.852 38.7817H104.632V37.424C104.632 36.0926 104.659 35.5533 104.672 35.3025C104.687 35.1362 104.714 34.9572 104.728 34.8307C104.852 34.8179 105.252 34.8037 105.887 34.8037C106.684 34.8037 107.277 34.8187 107.403 34.8187C107.717 34.8186 108.025 34.9147 108.284 35.0943C108.859 35.5283 109.287 36.1292 109.511 36.8158C109.564 36.8355 109.62 36.844 109.677 36.8407C109.758 36.8407 109.773 36.8158 109.881 36.759C109.881 35.9142 109.827 34.9579 109.8 34.6105C109.785 34.4684 109.759 34.4293 109.482 34.4293C109.373 34.4293 108.846 34.4023 108.299 34.4023C107.511 34.4023 107.195 34.4172 105.995 34.4172C105.348 34.4172 104.205 34.43 103.639 34.43C102.812 34.43 102.632 34.403 102.274 34.403H101.805C101.764 34.4492 101.739 34.5076 101.734 34.5693C101.736 34.64 101.761 34.7081 101.805 34.7632C102.144 34.7898 102.481 34.8414 102.812 34.9174C103.005 35.0837 103.183 35.1263 103.307 35.7892C103.334 36.0826 103.348 37.024 103.348 37.662V40.5189C103.348 41.1001 103.334 42.0592 103.319 42.4045C103.293 42.8666 103.191 43.321 103.015 43.7488C102.617 43.8909 102.198 43.9616 101.776 43.9576C101.733 44.0248 101.709 44.1019 101.705 44.1814C101.707 44.2512 101.732 44.3185 101.776 44.3726H102.23C102.672 44.3726 103.776 44.3328 104.146 44.3328C104.492 44.3328 104.958 44.3598 105.758 44.3598C106.2 44.3598 107.494 44.4443 110.278 44.4443C110.403 44.4544 110.529 44.4443 110.65 44.4145C110.689 44.3476 110.708 44.2709 110.705 44.1935C110.732 43.9179 110.732 43.2372 110.732 42.1139L110.736 42.109ZM100.537 34.5401C100.537 34.4854 100.522 34.398 100.467 34.3888H99.9976C99.6671 34.3888 99.1431 34.4158 98.9087 34.4158C97.7922 34.4158 97.3925 34.3448 97.2273 34.3448H96.9801C96.9504 34.4158 96.9095 34.4542 96.9095 34.5238C96.9095 34.5785 96.9391 34.6204 96.9391 34.678C97.2619 34.7151 97.5803 34.7841 97.8897 34.884C98.1088 35.1223 98.2322 35.434 98.2357 35.7586C98.1774 36.1916 98.0654 36.6155 97.9024 37.0205L95.6849 42.5104L92.9591 35.5647C92.9717 35.4093 93.0189 35.2588 93.0971 35.1243C93.1753 34.9897 93.2826 34.8746 93.411 34.7874C93.7067 34.7289 94.0062 34.6923 94.3072 34.678C94.3374 34.6174 94.3559 34.5516 94.3616 34.484C94.3616 34.4272 94.3488 34.3419 94.2909 34.3298H93.9456C93.5219 34.3298 92.8743 34.3867 92.1434 34.3867C91.8271 34.3867 91.2077 34.3568 90.6004 34.3568H90.0623C90.0289 34.4058 90.0101 34.4633 90.0078 34.5227C90.0056 34.582 90.02 34.6408 90.0496 34.6922C90.4547 34.796 90.8442 34.954 91.2077 35.1618C91.6313 35.981 92.0085 36.8235 92.3376 37.6855L93.4781 40.4564C94.4286 42.759 94.9943 44.2994 95.0635 44.563C95.1341 44.6049 95.0635 44.6447 95.1871 44.6447C95.3107 44.6447 95.298 44.6177 95.3283 44.5481L98.884 35.9512C99.0026 35.6613 99.1698 35.3941 99.3783 35.1611C99.6981 34.9147 100.079 34.7609 100.479 34.7163C100.507 34.6599 100.526 34.5995 100.536 34.5373L100.537 34.5401ZM88.4642 44.1999C88.466 44.1328 88.4517 44.0663 88.4225 44.006C88.0807 43.9828 87.7403 43.9413 87.4028 43.8816C87.1547 43.5749 86.9927 43.2069 86.9339 42.8159C86.9212 42.1502 86.9071 40.6397 86.9071 39.3501V35.829C86.894 35.5572 86.983 35.2904 87.1563 35.0815C87.5233 34.8489 87.9472 34.7233 88.3809 34.7185C88.4087 34.663 88.4229 34.6016 88.4225 34.5394C88.4224 34.5084 88.4161 34.4777 88.404 34.4491C88.3918 34.4206 88.3741 34.3947 88.3519 34.3732H87.9515C87.3738 34.3732 86.5469 34.4442 86.0773 34.4442C85.7885 34.4442 84.9615 34.4023 84.3563 34.3895H84.0527C84.0266 34.4107 84.0064 34.4384 83.994 34.4697C83.9816 34.5011 83.9775 34.5351 83.982 34.5686C83.9847 34.6297 83.9937 34.6904 84.0089 34.7497C84.3758 34.7459 84.7402 34.8117 85.083 34.9437C85.2384 35.0962 85.3596 35.2805 85.4384 35.484C85.5172 35.6876 85.5518 35.9057 85.5399 36.1238C85.5526 36.3846 85.5667 37.0929 85.5794 38.3697C85.5943 39.0631 85.6091 40.0038 85.6091 40.8095C85.6091 41.2116 85.5794 42.2503 85.5674 42.737C85.5544 43.0241 85.4883 43.3063 85.3725 43.569C85.2094 43.7111 85.0441 43.9562 84.0364 44.0258C84.0096 44.0922 83.9954 44.1631 83.9948 44.2347C83.9948 44.3463 84.0244 44.3463 84.0244 44.4138H84.2567C84.8097 44.4138 85.6642 44.347 86.3802 44.347C86.5879 44.347 87.496 44.3868 87.9508 44.3868H88.4077C88.4431 44.3331 88.462 44.2701 88.4621 44.2056L88.4642 44.1999ZM82.2321 34.5146C82.2337 34.4639 82.2191 34.4141 82.1904 34.3725H81.8741C81.1855 34.3725 80.8812 34.3995 79.6418 34.3995C79.2125 34.3995 78.5825 34.3725 78.4293 34.3725H78.0727C78.0331 34.3995 78.0183 34.4968 78.0183 34.5536C78.0169 34.5828 78.0226 34.6118 78.0349 34.6382C78.0472 34.6645 78.0658 34.6875 78.0889 34.705C78.5768 34.7791 79.0537 34.9142 79.5084 35.1071C79.7678 35.5326 79.9061 36.0217 79.9081 36.521C79.9208 36.7299 79.9349 36.938 79.9349 37.5071V41.6272C79.9368 41.8263 79.9279 42.0253 79.9081 42.2233C79.6736 41.9598 79.2725 41.4482 78.7351 40.8102L73.4705 34.6219C73.4106 34.552 73.3406 34.4916 73.2628 34.4428C73.152 34.4428 73.0157 34.4279 72.9048 34.4279C72.0235 34.4279 71.2509 34.3881 71.0158 34.3881C70.9903 34.429 70.9766 34.4762 70.9762 34.5245C70.9792 34.5855 70.9875 34.6461 71.0009 34.7057C71.3814 34.747 71.7464 34.8798 72.0652 35.0929C72.3243 35.3357 72.551 35.6113 72.7396 35.9128C72.7858 36.0552 72.8049 36.2052 72.7961 36.3547C72.7961 37.078 72.7544 38.3917 72.7544 39.3658V42.3171C72.757 42.6699 72.7289 43.0222 72.6704 43.3701C72.2654 43.7411 71.7633 43.9876 71.2234 44.0806C71.1936 44.1314 71.175 44.1881 71.169 44.2468C71.169 44.2887 71.1817 44.3711 71.2086 44.3889H71.4705C71.7474 44.3889 72.3815 44.3491 72.7968 44.3491C73.402 44.3491 73.676 44.3889 74.2409 44.3889H75.0707C75.1251 44.374 75.1378 44.2646 75.1378 44.2077C75.138 44.1573 75.1235 44.1079 75.0961 44.0656C74.4606 43.9906 73.8736 43.6862 73.4443 43.2088C73.322 42.6339 73.2616 42.0475 73.2643 41.4596C73.2643 41.0176 73.2494 40.2944 73.2494 39.4773C73.2494 38.3817 73.2643 36.8713 73.2791 36.3846C73.3603 36.4812 73.4867 36.6354 73.5806 36.7448L80.1143 44.4436C80.1849 44.5111 80.2103 44.5253 80.2823 44.5253C80.3544 44.5253 80.3071 44.5253 80.3635 44.4983C80.4176 44.295 80.4414 44.0848 80.4342 43.8745C80.4342 43.4724 80.4193 43.0546 80.4193 42.8457V36.9522C80.4193 35.2208 81.2343 34.7341 82.1848 34.6943C82.22 34.6405 82.2389 34.5776 82.2392 34.5131L82.2321 34.5146ZM69.4763 34.5799C69.4738 34.5139 69.4489 34.4507 69.4057 34.4009H69.0081C68.5787 34.4009 68.0004 34.4279 67.5046 34.4279C66.9538 34.4279 66.3345 34.4009 65.9319 34.4009H65.4376C65.4023 34.454 65.3828 34.5161 65.3811 34.5799C65.383 34.6425 65.3972 34.7041 65.4228 34.7611C65.4793 34.7611 66.4821 34.776 66.6621 35.0247C66.8987 35.3331 67.0807 35.6801 67.2002 36.0506C67.2795 36.5556 67.3161 37.0663 67.3097 37.5775C67.3097 38.7576 67.3097 39.5477 67.2949 39.9626C67.2892 40.5864 67.2055 41.2071 67.0456 41.8098C66.8788 42.382 66.5166 42.8766 66.0228 43.2065C65.5291 43.5364 64.9355 43.6803 64.3465 43.6131C63.7891 43.6159 63.2379 43.4958 62.7315 43.2614C62.383 43.1029 62.0787 42.8603 61.8456 42.5552C61.6125 42.2501 61.4579 41.8918 61.3954 41.5121L61.3248 37.3537L61.3128 35.662C61.3128 35.3437 61.7104 35.051 61.8488 34.8847C62.1976 34.8104 62.5519 34.7648 62.9081 34.7483C62.9474 34.6906 62.9716 34.6239 62.9787 34.5544C62.9768 34.5189 62.9673 34.4843 62.9507 34.453C62.9341 34.4217 62.9108 34.3945 62.8826 34.3732L62.3593 34.3881C61.8481 34.4009 61.1744 34.4151 60.7471 34.4151C60.0854 34.4151 59.5741 34.4002 59.1617 34.4002H58.5841C58.5586 34.4251 58.539 34.4555 58.5268 34.4891C58.5145 34.5226 58.51 34.5586 58.5135 34.5941C58.5111 34.6243 58.515 34.6547 58.5248 34.6833C58.5347 34.7119 58.5503 34.7381 58.5707 34.7604C59.0099 34.8172 59.2987 34.857 59.4943 34.9025C59.7198 35.0446 59.8898 35.2603 59.976 35.5135C59.9908 35.6926 60.0176 36.1373 60.0176 37.0055V40.3342C59.9969 40.9568 60.0442 41.5799 60.1589 42.1921C60.3195 42.8977 60.7511 43.5107 61.3594 43.8972C62.117 44.3641 62.9947 44.5956 63.8826 44.563C64.7084 44.5833 65.5253 44.3875 66.2533 43.9946C66.5959 43.7993 66.8941 43.534 67.1288 43.2159C67.3635 42.8978 67.5295 42.5338 67.6162 42.1473C67.7626 41.6097 67.8374 41.055 67.8386 40.4976V37.8389C67.8386 37.3416 67.8655 36.7164 67.8655 36.4677C67.8544 35.9296 67.9984 35.3998 68.28 34.9423C68.6533 34.8374 69.0365 34.7724 69.4233 34.7483C69.456 34.6978 69.4748 34.6394 69.4777 34.5792" fill="inherit" />
        <path d="M35.7579 20.609C35.7172 20.6097 35.6776 20.622 35.6435 20.6444C35.6094 20.6667 35.5822 20.6983 35.5652 20.7355L35.1577 21.6435C35.1482 21.6502 35.1373 21.6549 35.1259 21.657C35.1132 21.657 35.0991 21.6435 35.0892 21.6151C35.0793 21.5866 35.0299 21.4559 34.9239 21.2087L34.7933 20.9117C34.7467 20.8023 34.7093 20.7305 34.6972 20.7078C34.68 20.6777 34.6552 20.6527 34.6253 20.6352C34.5955 20.6178 34.5616 20.6085 34.5271 20.6083C34.5213 20.6005 34.5185 20.5909 34.5193 20.5813C34.5187 20.5723 34.5204 20.5632 34.5242 20.555H34.5927C34.669 20.555 34.734 20.5586 34.7905 20.5586C34.847 20.5586 34.9684 20.5522 35.0426 20.5522H35.0871C35.0941 20.5522 35.0969 20.5699 35.0969 20.5756C35.0974 20.5858 35.0958 20.596 35.092 20.6054C35.0426 20.6104 34.9317 20.6054 34.9317 20.6765C34.9316 20.6973 34.935 20.7179 34.9416 20.7376L35.2085 21.377L35.431 20.8491C35.4513 20.8046 35.4614 20.756 35.4606 20.707C35.4606 20.6474 35.419 20.6211 35.3074 20.6076C35.3039 20.5997 35.3016 20.5913 35.3003 20.5827C35.3011 20.572 35.3035 20.5615 35.3074 20.5515H35.3392C35.3886 20.5515 35.438 20.5578 35.551 20.5578C35.5708 20.5578 35.6471 20.5543 35.6845 20.5543H35.7608C35.7661 20.5611 35.7695 20.5692 35.7706 20.5777C35.7692 20.5891 35.7649 20.5999 35.7579 20.609V20.609Z" fill="inherit" />
        <path d="M36.8864 21.6263C36.563 21.6263 36.3879 21.6178 36.3434 21.6178H36.1901C36.1457 21.6178 36.0418 21.6249 35.9282 21.6249H35.8639C35.86 21.6178 35.8582 21.6096 35.8589 21.6015C35.8577 21.5911 35.8577 21.5806 35.8589 21.5702C35.9152 21.5708 35.9709 21.5589 36.0221 21.5354C36.0484 21.485 36.0604 21.4282 36.0567 21.3713C36.0567 21.3215 36.0567 21.2668 36.0567 21.2114C36.0567 21.1297 36.0567 21.0303 36.0567 20.9095V20.739C36.0567 20.621 35.9974 20.621 35.8766 20.6075C35.8741 20.5982 35.8724 20.5887 35.8717 20.5791C35.8717 20.5727 35.8717 20.5556 35.8815 20.5521H35.9409C35.9804 20.5521 36.0863 20.5521 36.289 20.5521C36.474 20.5521 36.6548 20.5556 36.6937 20.5556H36.8045C36.8292 20.5556 36.8391 20.5556 36.8391 20.5805L36.854 20.8242C36.8391 20.8313 36.8363 20.8342 36.8243 20.8342C36.8161 20.8355 36.8078 20.8355 36.7996 20.8342C36.7625 20.7596 36.7074 20.6956 36.6393 20.648C36.611 20.6306 36.5785 20.6212 36.5454 20.621C36.5305 20.621 36.4938 20.621 36.4041 20.621C36.3335 20.621 36.2932 20.621 36.2834 20.6246C36.2735 20.6281 36.2735 20.6246 36.2685 20.6658C36.2685 20.6921 36.2636 20.7368 36.2636 20.8789V21.021H36.3003C36.3409 21.0217 36.3814 21.0176 36.4211 21.0089C36.465 20.9967 36.5034 20.9696 36.5298 20.9322C36.5412 20.9033 36.5494 20.8733 36.5545 20.8427C36.5652 20.8372 36.5772 20.8347 36.5891 20.8356C36.5988 20.8352 36.6083 20.8382 36.616 20.8441C36.616 20.8874 36.6061 20.9699 36.6061 21.0736C36.6061 21.1255 36.611 21.2398 36.611 21.2867C36.6069 21.2901 36.6022 21.2926 36.5971 21.2941C36.592 21.2956 36.5866 21.296 36.5814 21.2953C36.5714 21.2953 36.5614 21.2941 36.5517 21.2917C36.5418 21.2001 36.527 21.1375 36.4507 21.1056C36.4132 21.0896 36.3728 21.0819 36.3321 21.0828C36.3085 21.0833 36.2849 21.0849 36.2615 21.0878V21.372C36.2587 21.4147 36.2637 21.4576 36.2763 21.4985C36.2841 21.5169 36.3081 21.5546 36.3406 21.5581C36.3732 21.5636 36.4063 21.566 36.4394 21.5652H36.5927C36.6335 21.565 36.6738 21.5566 36.7113 21.5404C36.7858 21.479 36.8442 21.4002 36.8815 21.3109C36.8915 21.3063 36.9023 21.3041 36.9133 21.3045C36.9243 21.305 36.9351 21.3077 36.9451 21.3123V21.5965C36.9436 21.6228 36.9232 21.6263 36.8864 21.6263Z" fill="inherit" />
        <path d="M38.1711 20.891C38.164 20.891 38.1541 20.891 38.1414 20.8875C38.1219 20.8312 38.0954 20.7777 38.0623 20.7283C38.0394 20.697 38.0096 20.6713 37.9754 20.6532C37.9411 20.6351 37.9032 20.6251 37.8646 20.6239C37.8399 20.6239 37.7805 20.6239 37.7608 20.6239V21.0971C37.7608 21.1681 37.7608 21.2598 37.7608 21.4225C37.7608 21.5482 37.8173 21.5482 37.9458 21.5646C37.9518 21.5739 37.9552 21.5847 37.9557 21.5958C37.9557 21.6051 37.9532 21.6141 37.9486 21.6221H37.9013C37.8307 21.6221 37.6788 21.6171 37.6322 21.6171C37.6005 21.6171 37.4373 21.6243 37.3604 21.6243C37.3567 21.6205 37.354 21.6161 37.3523 21.6111C37.3506 21.6062 37.35 21.601 37.3505 21.5958C37.3511 21.5859 37.3537 21.5762 37.3582 21.5674C37.5284 21.5546 37.5461 21.5227 37.551 21.4679C37.556 21.4331 37.556 21.2917 37.556 21.1475V20.7532C37.557 20.7096 37.5537 20.6661 37.5461 20.6232C37.4908 20.6213 37.4354 20.6251 37.3808 20.6345C37.2829 20.683 37.207 20.7674 37.169 20.8704C37.1603 20.8733 37.1512 20.8745 37.1421 20.874C37.1374 20.8742 37.1327 20.8733 37.1284 20.8713C37.1241 20.8693 37.1204 20.8663 37.1174 20.8626V20.5869C37.1174 20.5621 37.1174 20.5557 37.1492 20.5557H37.265C37.3017 20.5557 37.4578 20.5557 37.6527 20.5557C37.9098 20.5557 38.0997 20.5493 38.147 20.5493C38.1718 20.5493 38.1887 20.5493 38.1986 20.5578C38.1999 20.571 38.1999 20.5844 38.1986 20.5976V20.8733C38.1962 20.8786 38.1924 20.8832 38.1875 20.8863C38.1826 20.8895 38.1769 20.8911 38.1711 20.891Z" fill="inherit" />
        <path d="M35.7064 22.5727C35.6965 22.5727 35.6888 22.5727 35.6746 22.5692C35.6573 22.512 35.6306 22.4582 35.5956 22.41C35.5728 22.3784 35.5431 22.3526 35.5088 22.3345C35.4745 22.3164 35.4365 22.3065 35.3978 22.3056C35.3731 22.3056 35.3138 22.3056 35.294 22.3056V22.7787C35.294 22.8498 35.294 22.9414 35.294 23.1041C35.294 23.2299 35.3533 23.2299 35.4819 23.2462C35.4872 23.2558 35.4896 23.2666 35.4889 23.2775C35.4897 23.2866 35.488 23.2957 35.484 23.3038H35.4402C35.3639 23.3038 35.2156 23.2988 35.1711 23.2988C35.1394 23.2988 34.9762 23.3066 34.8971 23.3066C34.8918 23.2982 34.8893 23.2882 34.8901 23.2782C34.8907 23.2686 34.8923 23.2591 34.895 23.2498C35.0652 23.237 35.0829 23.205 35.0899 23.1503C35.0899 23.1155 35.0899 22.9741 35.0899 22.8299V22.4377C35.0917 22.394 35.0894 22.3502 35.0829 22.307C35.0266 22.3051 34.9703 22.3089 34.9148 22.3184C34.8166 22.3666 34.7407 22.4511 34.7029 22.5542C34.6933 22.5571 34.6833 22.5583 34.6733 22.5578C34.6686 22.5578 34.6639 22.5568 34.6597 22.5548C34.6554 22.5529 34.6516 22.55 34.6486 22.5464V22.2707C34.6486 22.2459 34.6535 22.2395 34.6803 22.2395H34.7962C34.8357 22.2395 34.9911 22.2395 35.186 22.2395C35.4402 22.2395 35.633 22.2331 35.6803 22.2331C35.7071 22.2331 35.7248 22.2331 35.7326 22.2416C35.7403 22.2501 35.7326 22.2665 35.7326 22.2814V22.5571C35.7298 22.5616 35.726 22.5654 35.7214 22.5682C35.7169 22.5709 35.7117 22.5724 35.7064 22.5727Z" fill="inherit" />
        <path d="M36.9232 23.3081C36.6019 23.3081 36.4246 23.2996 36.3823 23.2996H36.2269C36.1852 23.2996 36.0786 23.3074 35.9677 23.3074H35.9035C35.8989 23.3004 35.8965 23.2923 35.8964 23.284C35.8957 23.2733 35.8974 23.2626 35.9013 23.2527C35.9568 23.2539 36.0117 23.242 36.0616 23.2179C36.0814 23.1966 36.0913 23.1511 36.0962 23.0538C36.0962 23.004 36.1012 22.9493 36.1012 22.8932C36.1012 22.8115 36.1012 22.712 36.1012 22.5912C36.1012 22.5081 36.1012 22.4584 36.1012 22.4236C36.1012 22.3056 36.044 22.3056 35.9232 22.2921C35.919 22.2832 35.9166 22.2735 35.9162 22.2637C35.9162 22.2573 35.9211 22.2402 35.9282 22.2367H35.9854C36.027 22.2367 36.1309 22.2367 36.3335 22.2367C36.5214 22.2367 36.6986 22.2402 36.741 22.2402H36.8497C36.8766 22.2402 36.8865 22.2402 36.8865 22.2651L36.8985 22.5088C36.89 22.5155 36.8795 22.519 36.8688 22.5188C36.8606 22.5198 36.8523 22.5198 36.8441 22.5188C36.8087 22.4431 36.7532 22.3786 36.6838 22.3326C36.6566 22.3151 36.625 22.3057 36.5927 22.3056C36.5779 22.3056 36.5411 22.3056 36.4472 22.3056C36.3766 22.3056 36.3364 22.3056 36.3286 22.3092C36.3208 22.3127 36.3159 22.3092 36.3109 22.3504C36.3109 22.3767 36.3109 22.4214 36.3109 22.5635V22.7056H36.3455C36.3862 22.7064 36.4267 22.7021 36.4663 22.6928C36.5108 22.6805 36.5498 22.6535 36.5772 22.6161C36.5875 22.5871 36.5948 22.5571 36.5991 22.5266C36.6099 22.5214 36.6217 22.5187 36.6337 22.5188C36.6442 22.518 36.6548 22.521 36.6633 22.5273C36.6633 22.5706 36.6513 22.653 36.6513 22.7568C36.6513 22.8086 36.6584 22.923 36.6584 22.9699C36.6499 22.9765 36.6393 22.9795 36.6287 22.9784C36.618 22.9785 36.6074 22.9773 36.5969 22.9749C36.587 22.8832 36.5743 22.8207 36.4959 22.7887C36.4594 22.773 36.4199 22.7653 36.3801 22.766C36.3565 22.7665 36.333 22.7682 36.3095 22.771V23.0552C36.3075 23.0977 36.3116 23.1403 36.3215 23.1816C36.3314 23.2001 36.3561 23.2378 36.3858 23.2413C36.4184 23.247 36.4515 23.2496 36.4847 23.2491H36.64C36.6787 23.251 36.7174 23.2449 36.7537 23.2314C36.83 23.1711 36.8896 23.0921 36.9267 23.0019C36.9366 22.997 36.9475 22.9948 36.9585 22.9955C36.9688 22.9958 36.9789 22.9982 36.9882 23.0026V23.2868C36.9832 23.3046 36.9656 23.3081 36.9232 23.3081Z" fill="inherit" />
        <path d="M37.6767 23.3315C37.5907 23.3279 37.5065 23.3058 37.4296 23.2669C37.417 23.2617 37.4036 23.2588 37.39 23.2583C37.361 23.2663 37.3341 23.2803 37.3109 23.2996C37.2987 23.3001 37.2865 23.2974 37.2757 23.2918C37.2648 23.2862 37.2555 23.2779 37.2488 23.2676C37.2488 23.2448 37.2686 23.1781 37.2686 23.1361C37.2686 23.1113 37.2615 22.994 37.2587 22.9621C37.2642 22.955 37.2713 22.9493 37.2794 22.9455C37.2875 22.9417 37.2963 22.9398 37.3053 22.9401C37.3111 22.9394 37.3171 22.9394 37.3229 22.9401C37.3455 22.9834 37.39 23.1006 37.4218 23.1475C37.4515 23.1817 37.4879 23.2095 37.5287 23.2289C37.5696 23.2483 37.6139 23.2591 37.6591 23.2605C37.6899 23.2637 37.721 23.2608 37.7507 23.2519C37.7804 23.243 37.808 23.2283 37.8321 23.2086C37.8518 23.1934 37.8676 23.1735 37.8779 23.1507C37.8882 23.1279 37.8929 23.1029 37.8914 23.0779C37.8936 23.0431 37.8831 23.0087 37.8617 22.9813C37.8326 22.9452 37.7943 22.9177 37.7509 22.9017C37.7043 22.8789 37.539 22.8385 37.479 22.8058C37.4224 22.7819 37.3718 22.7457 37.3307 22.6999C37.2897 22.6432 37.2679 22.5747 37.2686 22.5045C37.2691 22.4626 37.2782 22.4213 37.2953 22.3831C37.3123 22.3449 37.3371 22.3107 37.3679 22.2825C37.3986 22.2543 37.4349 22.2328 37.4743 22.2193C37.5137 22.2058 37.5554 22.2006 37.5969 22.204C37.6873 22.1975 37.7771 22.2226 37.8512 22.275C37.8704 22.2535 37.8909 22.233 37.9126 22.2139C37.9237 22.2128 37.9349 22.2149 37.9449 22.22C37.9549 22.225 37.9633 22.2327 37.9691 22.2424C37.9606 22.2908 37.955 22.3396 37.9521 22.3887C37.9521 22.4171 37.9691 22.5308 37.9691 22.5479C37.9564 22.5557 37.9422 22.5608 37.9274 22.5628C37.9206 22.562 37.914 22.5603 37.9077 22.5578C37.878 22.5059 37.8512 22.4157 37.8187 22.3717C37.7938 22.3398 37.7614 22.3147 37.7244 22.2987C37.6873 22.2827 37.6469 22.2762 37.6068 22.28C37.5836 22.2781 37.5603 22.2808 37.5382 22.288C37.5161 22.2953 37.4956 22.3069 37.478 22.3221C37.4604 22.3374 37.4459 22.3561 37.4356 22.377C37.4252 22.398 37.4191 22.4208 37.4176 22.4441C37.4207 22.4809 37.4349 22.5157 37.4583 22.5442C37.4816 22.5726 37.513 22.5932 37.5482 22.6033C37.5927 22.621 37.6471 22.6416 37.7085 22.6608C37.7666 22.6791 37.8234 22.7012 37.8787 22.7269C37.9333 22.7505 37.9794 22.7905 38.0107 22.8413C38.042 22.8921 38.0571 22.9514 38.0538 23.0111C38.0505 23.0572 38.038 23.1022 38.0171 23.1434C37.9962 23.1846 37.9674 23.2212 37.9322 23.2511C37.8971 23.2809 37.8564 23.3034 37.8126 23.3172C37.7687 23.3311 37.7225 23.3359 37.6767 23.3315V23.3315Z" fill="inherit" />
        <path d="M36.1365 24.9926C35.8131 24.9926 35.6379 24.9841 35.5935 24.9841H35.4402C35.3957 24.9841 35.2919 24.9919 35.1782 24.9919H35.114C35.11 24.9848 35.1083 24.9766 35.109 24.9685C35.1079 24.9581 35.1079 24.9476 35.109 24.9372C35.1653 24.9379 35.221 24.926 35.2721 24.9024C35.2986 24.852 35.3106 24.7952 35.3067 24.7383C35.3067 24.6886 35.3067 24.6339 35.3067 24.5777C35.3067 24.496 35.3067 24.3965 35.3067 24.2758V24.1081C35.3067 23.9902 35.2474 23.9902 35.1267 23.9767C35.1241 23.9674 35.1224 23.9578 35.1217 23.9482C35.1217 23.9418 35.1217 23.9248 35.1316 23.9212H35.1909C35.2305 23.9212 35.3364 23.9212 35.5391 23.9212C35.7241 23.9212 35.9042 23.9248 35.9437 23.9248H36.0546C36.0793 23.9248 36.0892 23.9248 36.0892 23.9497L36.104 24.1934C36.0892 24.2012 36.0871 24.2033 36.0744 24.2033C36.0662 24.2048 36.0578 24.2048 36.0497 24.2033C36.0126 24.1287 35.9574 24.0647 35.8893 24.0171C35.8611 23.9997 35.8286 23.9903 35.7954 23.9902C35.7806 23.9902 35.7439 23.9902 35.6542 23.9902C35.5836 23.9902 35.5433 23.9902 35.5334 23.9937C35.5235 23.9973 35.5235 23.9937 35.5186 24.0349C35.5186 24.0612 35.5137 24.106 35.5137 24.2481V24.3902H35.5504C35.591 24.3908 35.6315 24.3868 35.6711 24.3781C35.7151 24.3658 35.7535 24.3387 35.7799 24.3013C35.7912 24.2725 35.7995 24.2425 35.8046 24.2118C35.8152 24.2061 35.8272 24.2034 35.8392 24.204C35.8489 24.2037 35.8583 24.2067 35.866 24.2125C35.866 24.2559 35.8562 24.3383 35.8562 24.442C35.8562 24.4946 35.8611 24.6083 35.8611 24.6552C35.857 24.6586 35.8522 24.6611 35.8471 24.6625C35.842 24.664 35.8367 24.6644 35.8314 24.6637C35.8214 24.6638 35.8115 24.6626 35.8018 24.6601C35.7919 24.5685 35.7771 24.506 35.7008 24.474C35.6632 24.4584 35.6228 24.4508 35.5822 24.452C35.5585 24.4524 35.535 24.4541 35.5115 24.4569V24.7411C35.5087 24.7838 35.5138 24.8267 35.5264 24.8676C35.5341 24.8861 35.5581 24.9237 35.5906 24.9273C35.6233 24.9327 35.6564 24.9351 35.6895 24.9344H35.8427C35.8821 24.9361 35.9215 24.9301 35.9586 24.9166C36.0331 24.8553 36.0915 24.7765 36.1287 24.6871C36.1387 24.6826 36.1496 24.6804 36.1605 24.6807C36.1715 24.6812 36.1823 24.6839 36.1923 24.6886V24.9728C36.193 24.9884 36.1754 24.9926 36.1365 24.9926Z" fill="inherit" />
        <path d="M37.6915 23.9717C37.5827 23.9752 37.4888 24.0349 37.4888 24.209V24.7617C37.4888 24.7831 37.4987 24.9394 37.4987 24.999C37.4856 25.0086 37.4703 25.0147 37.4542 25.0168C37.4438 25.0135 37.4346 25.0073 37.4274 24.999L36.6746 24.1841L36.6824 24.3504V24.6509C36.6824 24.6744 36.6873 24.7305 36.6922 24.7724C36.6914 24.7945 36.6959 24.8164 36.7053 24.8364C36.7148 24.8563 36.729 24.8736 36.7466 24.8868C36.7885 24.9152 36.8374 24.9315 36.8879 24.9337C36.8923 24.9412 36.8947 24.9498 36.8949 24.9586C36.894 24.9683 36.8906 24.9776 36.885 24.9855H36.8038C36.7332 24.9855 36.6802 24.9855 36.6089 24.9855C36.5623 24.9855 36.4952 24.9905 36.4486 24.9905H36.414C36.4129 24.9823 36.4129 24.9739 36.414 24.9657C36.4139 24.9564 36.4156 24.9472 36.419 24.9387C36.4823 24.9363 36.5427 24.9111 36.5891 24.8676C36.6029 24.826 36.6089 24.7821 36.6068 24.7383V24.3532C36.6068 24.2914 36.6068 24.2601 36.6019 24.199C36.6033 24.1555 36.5895 24.1128 36.563 24.0783C36.5474 24.0579 36.5299 24.0391 36.5108 24.0221C36.4728 23.9995 36.4322 23.9816 36.39 23.9688C36.3863 23.961 36.3839 23.9526 36.3829 23.944C36.3832 23.9345 36.3856 23.9253 36.39 23.917H36.4168C36.4394 23.917 36.5581 23.9234 36.6442 23.9234H36.6958C36.7076 23.9285 36.7184 23.9357 36.7276 23.9447L37.2854 24.5585C37.3271 24.6054 37.3815 24.668 37.4111 24.7077V24.263C37.4116 24.222 37.41 24.1809 37.4062 24.1401C37.4034 24.0997 37.3926 24.0603 37.3744 24.0243C37.3575 23.9973 37.2537 23.9823 37.1993 23.971C37.1955 23.9608 37.1938 23.9499 37.1943 23.939C37.1934 23.9312 37.1934 23.9233 37.1943 23.9156H37.2261C37.2777 23.9156 37.3617 23.9234 37.414 23.9234C37.5425 23.9234 37.582 23.9198 37.6463 23.9198H37.688C37.6918 23.928 37.6935 23.9371 37.6929 23.9461C37.6944 23.9546 37.6939 23.9634 37.6915 23.9717Z" fill="inherit" />
        <path d="M41.2105 20.6054C41.1045 20.609 41.0078 20.6686 41.0078 20.8427V21.3955C41.0078 21.4168 41.0149 21.5731 41.0149 21.6328C41.0027 21.6421 40.9884 21.6483 40.9732 21.6505C40.9661 21.6505 40.9584 21.6441 40.9435 21.6328L40.1907 20.8178L40.2006 20.9841V21.2846C40.2006 21.3081 40.2056 21.3642 40.2077 21.4061C40.2079 21.428 40.2129 21.4496 40.2223 21.4694C40.2317 21.4891 40.2453 21.5066 40.2621 21.5205C40.3043 21.5482 40.353 21.5644 40.4033 21.5674C40.4077 21.575 40.4101 21.5835 40.4104 21.5923C40.4096 21.6016 40.4072 21.6107 40.4033 21.6193H40.3193C40.2522 21.6193 40.1985 21.6193 40.1244 21.6193C40.0777 21.6193 40.0135 21.6242 39.9662 21.6242H39.9316C39.929 21.6162 39.9273 21.6078 39.9266 21.5994C39.9265 21.5898 39.9292 21.5804 39.9344 21.5724C39.997 21.5696 40.0567 21.5444 40.1025 21.5013C40.1173 21.46 40.1234 21.4159 40.1201 21.372V20.9869C40.1201 20.9251 40.1201 20.8939 40.1201 20.8328C40.1201 20.7911 40.1072 20.7504 40.0834 20.7162C40.0668 20.6961 40.0486 20.6773 40.029 20.6601C39.9913 20.6371 39.9507 20.6191 39.9083 20.6068C39.9061 20.5986 39.9045 20.5903 39.9033 20.582C39.9039 20.5728 39.9056 20.5637 39.9083 20.555H39.9379C39.9577 20.555 40.0735 20.5614 40.1625 20.5614H40.214C40.2264 20.5671 40.238 20.5742 40.2486 20.5827L40.8065 21.1965C40.8482 21.2434 40.9026 21.3059 40.9322 21.3457V20.9038C40.9322 20.8627 40.9296 20.8217 40.9245 20.7809C40.9229 20.7403 40.912 20.7007 40.8927 20.6651C40.8757 20.6381 40.7719 20.6232 40.7197 20.6118C40.7153 20.6017 40.7129 20.5908 40.7126 20.5798C40.7122 20.5717 40.7139 20.5636 40.7176 20.5564H40.7493C40.8009 20.5564 40.8849 20.5635 40.9372 20.5635C41.0629 20.5635 41.1052 20.5599 41.1695 20.5599H41.2091C41.2136 20.568 41.2163 20.577 41.2168 20.5862C41.2157 20.5929 41.2136 20.5994 41.2105 20.6054V20.6054Z" fill="inherit" />
        <path d="M42.3192 21.4907C42.2704 21.5411 42.2121 21.5812 42.1478 21.6089C42.0835 21.6366 42.0144 21.6512 41.9444 21.652C41.8745 21.6527 41.8051 21.6395 41.7402 21.6132C41.6753 21.5868 41.6163 21.5478 41.5664 21.4985C41.5131 21.4452 41.4714 21.3814 41.4438 21.3111C41.4162 21.2408 41.4034 21.1655 41.4061 21.0899C41.404 21.0148 41.4171 20.94 41.4447 20.8701C41.4723 20.8003 41.5137 20.7368 41.5664 20.6835C41.6659 20.5834 41.8007 20.5267 41.9414 20.5258C42.0409 20.5267 42.1384 20.5541 42.2239 20.6054C42.3043 20.6557 42.3706 20.7258 42.4164 20.8091C42.4623 20.8924 42.4862 20.9862 42.4859 21.0814C42.4846 21.2343 42.4249 21.3808 42.3192 21.4907V21.4907ZM42.1462 20.7091C42.1233 20.6738 42.0919 20.6448 42.0548 20.6251C42.0177 20.6053 41.9763 20.5954 41.9344 20.5962C41.8944 20.5957 41.8551 20.606 41.8203 20.6258C41.7856 20.6456 41.7567 20.6744 41.7366 20.7091C41.6636 20.8212 41.6289 20.9541 41.6378 21.0878C41.6304 21.22 41.6632 21.3513 41.7317 21.4644C41.7532 21.5014 41.7842 21.5318 41.8215 21.5526C41.8588 21.5733 41.9009 21.5836 41.9435 21.5823C41.9923 21.5839 42.0405 21.5708 42.0819 21.5447C42.1232 21.5187 42.156 21.4808 42.1759 21.436C42.2283 21.3293 42.2526 21.2109 42.2465 21.0921C42.2568 20.9564 42.2226 20.8211 42.149 20.707L42.1462 20.7091Z" fill="inherit" />
        <path d="M43.8354 20.609C43.7952 20.6103 43.7561 20.6228 43.7225 20.6451C43.689 20.6674 43.6623 20.6987 43.6454 20.7355L43.2408 21.6435C43.2313 21.6502 43.2204 21.6549 43.209 21.657C43.1963 21.657 43.1793 21.6435 43.1723 21.6151C43.1652 21.5866 43.1129 21.4559 43.0042 21.2087L42.8757 20.9117C42.829 20.8023 42.7916 20.7305 42.7796 20.7078C42.7621 20.6779 42.7372 20.6531 42.7074 20.6357C42.6776 20.6183 42.6439 20.6088 42.6094 20.6083C42.6058 20.6048 42.6031 20.6006 42.6014 20.5959C42.5997 20.5913 42.599 20.5863 42.5995 20.5813C42.5988 20.5719 42.6016 20.5625 42.6073 20.555H42.6737C42.7443 20.555 42.8149 20.5586 42.8686 20.5586C42.9223 20.5586 43.0466 20.5522 43.1228 20.5522H43.1645C43.1744 20.5522 43.1765 20.5699 43.1765 20.5756C43.177 20.5858 43.1753 20.596 43.1715 20.6054C43.12 20.6104 43.0112 20.6054 43.0112 20.6765C43.01 20.6973 43.0134 20.7182 43.0211 20.7376L43.2852 21.377L43.5098 20.8491C43.5282 20.8041 43.5374 20.7558 43.5366 20.707C43.5366 20.6474 43.495 20.6211 43.3834 20.6076C43.3805 20.5996 43.3789 20.5912 43.3785 20.5827C43.3786 20.5721 43.3802 20.5616 43.3834 20.5515H43.4152C43.4646 20.5515 43.514 20.5578 43.627 20.5578C43.6447 20.5578 43.7231 20.5543 43.7605 20.5543H43.8368C43.8423 20.562 43.8453 20.5714 43.8453 20.5809C43.8453 20.5905 43.8423 20.5998 43.8368 20.6076L43.8354 20.609Z" fill="inherit" />
        <path d="M40.8624 22.5727C40.8525 22.5727 40.8454 22.5727 40.8306 22.5692C40.8132 22.5121 40.7864 22.4583 40.7515 22.41C40.7287 22.3785 40.699 22.3527 40.6647 22.3346C40.6304 22.3164 40.5925 22.3065 40.5537 22.3056C40.529 22.3056 40.4697 22.3056 40.4499 22.3056V22.7787C40.4499 22.8498 40.4499 22.9414 40.4499 23.1041C40.4499 23.2299 40.5093 23.2299 40.6378 23.2462C40.6434 23.2557 40.6461 23.2665 40.6456 23.2775C40.6464 23.2866 40.6446 23.2957 40.6406 23.3038H40.5954C40.5191 23.3038 40.3708 23.2988 40.3264 23.2988C40.2946 23.2988 40.1315 23.3066 40.0524 23.3066C40.0468 23.2983 40.044 23.2883 40.0446 23.2782C40.0453 23.2686 40.0469 23.2591 40.0495 23.2498C40.2197 23.237 40.2374 23.205 40.2444 23.1503C40.2444 23.1155 40.2444 22.9741 40.2444 22.8299V22.4377C40.2461 22.394 40.2435 22.3502 40.2367 22.307C40.1804 22.3051 40.1241 22.3089 40.0686 22.3184C39.9704 22.3666 39.8945 22.4511 39.8567 22.5542C39.8471 22.5571 39.8371 22.5583 39.8271 22.5578C39.8224 22.5578 39.8178 22.5568 39.8135 22.5548C39.8092 22.5529 39.8054 22.55 39.8024 22.5464V22.2707C39.8024 22.2459 39.8073 22.2395 39.8341 22.2395H39.95C39.9895 22.2395 40.1449 22.2395 40.3398 22.2395C40.594 22.2395 40.7868 22.2331 40.8341 22.2331C40.8609 22.2331 40.8786 22.2331 40.8857 22.2416C40.8927 22.2501 40.8857 22.2665 40.8857 22.2814V22.5571C40.8832 22.5613 40.8798 22.5648 40.8758 22.5675C40.8717 22.5703 40.8671 22.572 40.8624 22.5727V22.5727Z" fill="inherit" />
        <path d="M42.1412 23.3067H42.0572C42.0028 23.3067 41.9414 23.2996 41.8771 23.2996C41.7761 23.2996 41.6476 23.3067 41.5946 23.3067C41.5889 23.2989 41.5861 23.2893 41.5869 23.2797C41.5874 23.2712 41.589 23.2628 41.5918 23.2548C41.6956 23.2498 41.7373 23.2321 41.7373 23.1901C41.7362 23.1411 41.7254 23.0928 41.7055 23.048C41.6737 22.9699 41.6561 22.9337 41.6483 22.9138C41.6434 22.9059 41.6413 22.9024 41.6187 22.9024H41.2832C41.2467 22.9662 41.22 23.0352 41.2041 23.107C41.1987 23.1274 41.1961 23.1484 41.1964 23.1695C41.1964 23.2044 41.2281 23.2406 41.3468 23.2463C41.352 23.2553 41.3545 23.2657 41.3538 23.2761C41.355 23.2844 41.355 23.2927 41.3538 23.301H41.3242C41.2451 23.301 41.2232 23.296 41.1392 23.296C41.0848 23.296 40.9541 23.301 40.9096 23.301C40.9068 23.2937 40.9051 23.286 40.9047 23.2782C40.9044 23.269 40.9061 23.2598 40.9096 23.2512C40.9689 23.2462 41.0238 23.2182 41.0629 23.1731C41.116 23.0841 41.1614 22.9907 41.1985 22.8939C41.2578 22.7518 41.3291 22.5699 41.3616 22.4939C41.4061 22.4008 41.4209 22.3695 41.4322 22.3376C41.4548 22.2907 41.4788 22.2431 41.4887 22.226C41.4941 22.2195 41.501 22.2142 41.5086 22.2105C41.5163 22.2069 41.5247 22.205 41.5332 22.205C41.5417 22.205 41.5501 22.2069 41.5578 22.2105C41.5655 22.2142 41.5723 22.2195 41.5777 22.226C41.5875 22.243 41.5958 22.2608 41.6024 22.2793C41.6639 22.4271 41.7133 22.5585 41.7903 22.7425C41.8298 22.8356 41.8496 22.8939 41.8912 22.9912C41.9209 23.0523 41.9379 23.0978 41.9675 23.1539C42.0071 23.2349 42.0713 23.2356 42.1356 23.252C42.1356 23.2591 42.1455 23.2669 42.1455 23.2768C42.1455 23.2868 42.149 23.2967 42.1412 23.3067ZM41.4668 22.4541C41.4442 22.4953 41.4054 22.5884 41.3906 22.6267C41.3334 22.7688 41.3143 22.8129 41.3044 22.8328H41.6229C41.5953 22.7717 41.5134 22.5742 41.4675 22.4562L41.4668 22.4541Z" fill="inherit" />
        <path d="M43.7908 23.3067L43.3586 23.3017H43.24C43.2356 23.2933 43.233 23.2841 43.2322 23.2747C43.232 23.2698 43.2327 23.2648 43.2344 23.2602C43.2361 23.2556 43.2387 23.2513 43.2421 23.2477C43.2777 23.2479 43.3131 23.2446 43.348 23.2378C43.3925 23.2179 43.4102 23.1745 43.4102 23.1099V22.3369L43.1828 22.8342C43.1581 22.8889 43.1284 22.9486 43.1037 23.0083C43.0679 23.0877 43.0366 23.1691 43.0098 23.252C43.0071 23.2588 43.0022 23.2644 42.996 23.2681C42.9897 23.2717 42.9823 23.273 42.9752 23.2719C42.9603 23.2719 42.9504 23.2669 42.9434 23.242C42.9137 23.1774 42.894 23.1355 42.8841 23.1078L42.531 22.3205H42.5232V22.5216L42.531 23.0246C42.531 23.1774 42.6101 23.2498 42.7308 23.2498C42.7355 23.258 42.7389 23.2669 42.7407 23.2761C42.7402 23.2854 42.7375 23.2944 42.7329 23.3024C42.7252 23.3024 42.7012 23.3024 42.6786 23.3024C42.656 23.3024 42.5846 23.2953 42.4709 23.2953C42.4392 23.2953 42.3721 23.2953 42.3205 23.2953H42.2499C42.247 23.2868 42.2454 23.278 42.245 23.269C42.2459 23.2611 42.2475 23.2532 42.2499 23.2456C42.3041 23.2352 42.3565 23.2168 42.4053 23.1909C42.4279 23.1696 42.4469 23.1241 42.4469 23.0182V22.4669C42.4469 22.3788 42.4349 22.3454 42.3926 22.3156C42.3472 22.299 42.2996 22.2894 42.2513 22.2871C42.2468 22.2778 42.2444 22.2676 42.2443 22.2573C42.2446 22.2474 42.247 22.2378 42.2513 22.2289C42.2937 22.2289 42.3671 22.2324 42.4413 22.2324H42.7005C42.7104 22.2391 42.7182 22.2485 42.7231 22.2594L43.0415 22.9863L43.0987 22.8442C43.1482 22.7276 43.2195 22.5522 43.3212 22.3625L43.3855 22.2381L43.7901 22.2317C43.7958 22.2394 43.7992 22.2485 43.8 22.258C43.7999 22.2676 43.7972 22.2769 43.7922 22.285C43.7477 22.2928 43.6715 22.2928 43.634 22.3561C43.6213 22.376 43.6143 22.3958 43.6143 22.4839V23.0019C43.6143 23.2008 43.6637 23.2207 43.6849 23.2356C43.7202 23.2459 43.7569 23.2509 43.7936 23.2506C43.7982 23.2588 43.8006 23.2681 43.8007 23.2776C43.7979 23.2967 43.7929 23.2967 43.7908 23.3067Z" fill="inherit" />
        <path d="M40.8375 24.2573C40.8277 24.2573 40.8199 24.2573 40.8058 24.2538C40.7884 24.1967 40.7616 24.1429 40.7267 24.0946C40.7039 24.0631 40.6743 24.0372 40.64 24.0191C40.6057 24.001 40.5677 23.9911 40.5289 23.9902C40.5042 23.9902 40.4449 23.9902 40.4251 23.9902V24.4634C40.4251 24.5344 40.4251 24.6261 40.4251 24.7888C40.4251 24.9145 40.4845 24.9145 40.613 24.9309C40.6183 24.9404 40.6208 24.9512 40.62 24.9621C40.6208 24.9712 40.6191 24.9803 40.6151 24.9884H40.5685C40.4922 24.9884 40.3439 24.9834 40.2994 24.9834C40.2677 24.9834 40.1045 24.9913 40.0254 24.9913C40.0201 24.9828 40.0176 24.9728 40.0184 24.9628C40.019 24.9532 40.0207 24.9437 40.0233 24.9344C40.1935 24.9216 40.2112 24.8897 40.2182 24.835C40.2182 24.8001 40.2182 24.6588 40.2182 24.5145V24.1223C40.22 24.0789 40.2176 24.0353 40.2112 23.9923C40.1549 23.9904 40.0986 23.9942 40.0431 24.0037C39.9449 24.0519 39.869 24.1364 39.8312 24.2396C39.8216 24.2424 39.8116 24.2436 39.8016 24.2431C39.7969 24.2431 39.7922 24.2421 39.788 24.2402C39.7837 24.2382 39.7799 24.2353 39.7769 24.2318V23.9561C39.7769 23.9312 39.7818 23.9248 39.8086 23.9248H39.9244C39.964 23.9248 40.1194 23.9248 40.3143 23.9248C40.5685 23.9248 40.7613 23.9184 40.8086 23.9184C40.8354 23.9184 40.8531 23.9184 40.8601 23.927C40.8672 23.9355 40.8601 23.9518 40.8601 23.9667V24.2424C40.8577 24.2464 40.8544 24.2498 40.8505 24.2523C40.8466 24.2549 40.8422 24.2566 40.8375 24.2573V24.2573Z" fill="inherit" />
        <path d="M42.1631 23.9753C42.1229 23.9765 42.0838 23.9889 42.0502 24.0113C42.0166 24.0336 41.9899 24.065 41.9731 24.1017L41.5678 25.0097C41.5583 25.0165 41.5474 25.0211 41.536 25.0232C41.524 25.0232 41.5063 25.0097 41.4993 24.9813C41.4922 24.9529 41.44 24.8222 41.3312 24.5749L41.2027 24.2779C41.1561 24.1685 41.1186 24.0968 41.1066 24.074C41.0891 24.0442 41.0643 24.0194 41.0345 24.0019C41.0047 23.9845 40.9709 23.9751 40.9364 23.9746C40.9329 23.9711 40.9301 23.9669 40.9284 23.9622C40.9267 23.9575 40.9261 23.9525 40.9266 23.9476C40.9258 23.9381 40.9286 23.9288 40.9343 23.9213H41.0007C41.0713 23.9213 41.142 23.9248 41.1956 23.9248C41.2493 23.9248 41.3736 23.9184 41.4498 23.9184H41.4915C41.5014 23.9184 41.5042 23.9355 41.5042 23.9419C41.5047 23.9521 41.503 23.9622 41.4993 23.9717C41.447 23.9767 41.339 23.9717 41.339 24.0428C41.3378 24.0636 41.3411 24.0845 41.3489 24.1039L41.613 24.7433L41.8375 24.2154C41.8561 24.1704 41.8652 24.122 41.8644 24.0733C41.8644 24.0136 41.8227 23.9881 41.7111 23.9739C41.7083 23.9658 41.7067 23.9575 41.7062 23.949C41.7063 23.9384 41.708 23.9279 41.7111 23.9177H41.7429C41.7923 23.9177 41.8418 23.9241 41.9548 23.9241C41.9724 23.9241 42.0508 23.9206 42.0882 23.9206H42.1645C42.1693 23.9275 42.172 23.9356 42.1723 23.944C42.1732 23.9552 42.1699 23.9664 42.1631 23.9753V23.9753Z" fill="inherit" />
        <path d="M43.8127 24.9912L43.3833 24.9863H43.2626C43.2589 24.9778 43.2572 24.9685 43.2576 24.9593C43.2569 24.9545 43.2572 24.9497 43.2584 24.945C43.2596 24.9404 43.2618 24.9361 43.2647 24.9323C43.3012 24.9324 43.3376 24.9291 43.3734 24.9223C43.4151 24.9024 43.4328 24.8591 43.4328 24.7944V24.1671C43.4328 24.1671 43.4328 24.0541 43.4328 24.025H43.4278L43.2033 24.5223C43.1764 24.577 43.1489 24.6367 43.122 24.6964C43.0726 24.8129 43.043 24.8939 43.0281 24.9401C43.0232 24.96 43.0055 24.96 42.9935 24.96C42.9815 24.96 42.9716 24.955 42.9617 24.9301C42.9349 24.8655 42.9144 24.8236 42.9045 24.7959L42.5486 24.0072H42.5416V24.2083L42.5486 24.7113C42.5486 24.8641 42.6277 24.9365 42.7513 24.9365C42.7553 24.9448 42.7577 24.9537 42.7584 24.9628C42.759 24.9719 42.7573 24.9809 42.7534 24.9891C42.7435 24.9891 42.7216 24.9891 42.6969 24.9891C42.6722 24.9891 42.6058 24.982 42.4921 24.982C42.4575 24.982 42.3911 24.982 42.3417 24.982H42.2711C42.2665 24.974 42.264 24.965 42.264 24.9557C42.2648 24.9475 42.2672 24.9395 42.2711 24.9323C42.3252 24.9215 42.3775 24.9031 42.4265 24.8776C42.46 24.8267 42.474 24.7654 42.466 24.7049V24.4513V24.1529C42.466 24.0648 42.4561 24.0314 42.4116 24.0015C42.3662 23.985 42.3186 23.9754 42.2704 23.9731C42.264 23.9645 42.2605 23.954 42.2605 23.9433C42.2609 23.933 42.2644 23.9231 42.2704 23.9149C42.3099 23.9149 42.3862 23.9184 42.4582 23.9184H42.7202C42.7292 23.9253 42.7361 23.9347 42.74 23.9454L43.0585 24.6722L43.1178 24.5301C43.1833 24.3657 43.2576 24.2049 43.3403 24.0484C43.36 24.0065 43.3897 23.9525 43.4045 23.9241L43.807 23.9177C43.812 23.9262 43.8198 23.934 43.8198 23.944C43.8188 23.9537 43.8154 23.963 43.8099 23.971C43.7682 23.9781 43.6912 23.9781 43.6545 24.042C43.6425 24.0619 43.6326 24.0818 43.6326 24.1699V24.6879C43.6326 24.8868 43.682 24.9067 43.7032 24.9216C43.7376 24.932 43.7733 24.937 43.8092 24.9365C43.8156 24.944 43.8191 24.9536 43.8191 24.9635C43.8226 24.9799 43.8176 24.9813 43.8127 24.9912Z" fill="inherit" />
        <path d="M54.0403 18.2651L53.9958 17.7549L53.5121 17.9027C52.3364 18.2626 51.1141 18.445 49.8851 18.4441C47.7908 18.45 45.7302 17.9145 43.9007 16.889C42.0712 15.8635 40.5342 14.3824 39.4371 12.5876L39.0868 12L38.7337 12.5876C37.6371 14.3828 36.1003 15.8643 34.2709 16.8902C32.4415 17.9161 30.3808 18.4519 28.2864 18.4462C27.06 18.4478 25.8401 18.2663 24.6665 17.9077L24.1814 17.7599L24.1369 18.2679C23.8297 21.7816 24.0393 25.3217 24.759 28.7739C25.5193 32.4123 26.8292 35.912 28.6431 39.1512C29.5953 40.8576 30.6801 42.4857 31.8873 44.0202C33.8995 46.5783 36.2331 48.8629 38.8298 50.8167L39.0755 51.0007L39.3213 50.8167C41.9229 48.8715 44.2623 46.5945 46.2808 44.0429C47.4886 42.5116 48.5732 40.8858 49.5243 39.1811C51.2558 36.0832 52.527 32.7469 53.2974 29.2783L53.3984 28.7767C54.1221 25.3233 54.3383 21.7817 54.0403 18.2651V18.2651ZM45.3655 21.0324H45.9707V22.2225H45.3655V21.0324ZM45.3655 24.1479H45.9707V25.3394H45.3655V24.1479ZM39.2422 19.772C39.3607 19.6162 39.5176 19.4943 39.6973 19.4183C39.877 19.3423 40.0734 19.3148 40.2669 19.3386L41.4349 19.5049L42.973 19.7088C43.4291 19.7371 43.8857 19.6621 44.3091 19.4892V25.9547C43.8797 26.1035 43.4268 26.1712 42.973 26.1543L41.49 25.9554L40.2669 25.7834C39.8974 25.7636 39.5334 25.8792 39.2422 26.1088V19.772ZM33.9776 19.5013C34.383 19.6699 34.8215 19.7428 35.2593 19.7145L36.8002 19.5091L37.9654 19.3415C38.1589 19.3178 38.3552 19.3453 38.5349 19.4213C38.7146 19.4973 38.8715 19.6192 38.9901 19.7748V26.1159C38.6964 25.8836 38.3286 25.7669 37.9555 25.7877L36.7331 25.9603L35.2593 26.1579C34.1803 26.1579 33.9557 25.8957 33.9529 25.8936C33.95 25.8914 33.9755 19.9347 33.9783 19.5013H33.9776ZM33.0984 20.2878C33.2142 20.2644 33.5574 20.1912 33.7255 20.155V25.9667C33.7869 26.0996 34.0517 26.4087 35.2586 26.4087L36.7868 26.2062L37.9548 26.0385C38.1503 26.015 38.3485 26.0426 38.5303 26.1188C38.712 26.195 38.8711 26.3171 38.9922 26.4733L39.0268 26.4534H39.2069L39.2415 26.4719C39.3599 26.3161 39.5168 26.1941 39.6965 26.1181C39.8763 26.0421 40.0726 26.0146 40.2662 26.0385L41.4342 26.2047L42.9723 26.4087C44.1968 26.4087 44.5005 26.0847 44.5329 26.0484L44.5555 20.1251L45.1134 20.2814V26.7021C44.3804 26.8078 43.6414 26.866 42.9009 26.8762C41.9136 26.8585 40.9278 26.7887 39.9477 26.6673L39.8064 26.6474V27.0822C39.5769 27.1664 39.3347 27.2109 39.0904 27.2136C38.8556 27.2123 38.6231 27.1683 38.404 27.0836V26.6474L38.2627 26.6673C37.2852 26.7885 36.302 26.8583 35.3172 26.8762C34.5751 26.8663 33.8344 26.8081 33.0998 26.7021L33.0984 20.2878ZM32.251 21.0331H32.8435V22.2232H32.251V21.0331ZM32.251 24.1486H32.8435V25.3401H32.251V24.1486ZM39.0755 49.9392C36.6356 48.0774 34.4367 45.9159 32.5299 43.5051C32.5221 43.4951 32.5151 43.4823 32.5073 43.4731L39.0748 37.0439L45.6579 43.4852C45.648 43.4951 45.6402 43.5101 45.6311 43.5221C43.7214 45.9277 41.5203 48.0837 39.0791 49.94L39.0755 49.9392ZM52.4931 29.0936C51.7466 32.4466 50.5221 35.6734 48.8576 38.6738L39.0819 29.2108L29.3139 38.6539C27.5822 35.5388 26.3248 32.1799 25.5839 28.6893H52.5757L52.4931 29.0936Z" fill="inherit" />
    </g>
    <defs>
        <clipPath id="clip0_431_29022">
            <rect width="137" height="39" fill="white" transform="translate(24 12)" />
        </clipPath>
    </defs>
</svg>