<?xml version="1.0" standalone="no"?>
<!DOCTYPE svg PUBLIC "-//W3C//DTD SVG 20010904//EN"
 "http://www.w3.org/TR/2001/REC-SVG-20010904/DTD/svg10.dtd">
<svg version="1.0" xmlns="http://www.w3.org/2000/svg"
 width="700.000000pt" height="700.000000pt" viewBox="0 0 700.000000 700.000000"
 preserveAspectRatio="xMidYMid meet">
<metadata>
Created by potrace 1.14, written by Peter Selinger 2001-2017
</metadata>
<g transform="translate(0.000000,700.000000) scale(0.100000,-0.100000)"
fill="#000000" stroke="none">
<path d="M0 3500 l0 -3500 1075 0 1074 0 6 33 c16 83 -67 170 -273 287 l-92
52 0 154 0 154 60 134 60 134 0 174 c0 95 -4 178 -8 184 -15 24 -54 34 -124
34 -70 0 -211 -26 -272 -49 -16 -7 -30 -10 -32 -9 -1 2 20 41 48 87 28 46 65
118 82 160 28 69 35 78 77 99 25 12 73 27 106 33 l62 11 64 146 65 147 -64 66
-65 65 103 61 c57 33 126 81 153 106 49 43 50 46 57 118 4 41 11 182 14 314
l7 240 60 64 c33 36 77 92 98 124 48 74 51 123 13 229 -49 134 -98 219 -162
273 -78 67 -105 102 -105 134 0 14 25 80 55 147 31 66 64 146 74 177 26 84 13
116 -93 227 l-85 90 -48 148 c-57 176 -84 293 -76 327 4 15 24 34 50 50 40 23
181 64 280 80 l39 6 -7 67 c-3 37 -9 130 -12 207 -3 77 -10 152 -16 167 -19
51 -65 63 -241 63 -86 0 -157 0 -157 0 0 0 27 64 59 143 38 92 55 145 48 147
-7 2 -79 18 -162 35 -167 35 -209 52 -373 146 l-112 66 112 87 c148 115 288
239 314 278 24 37 31 88 40 318 l6 160 56 52 57 53 -947 0 -948 0 0 -3500z"/>
<path d="M3731 6905 c-43 -53 -81 -108 -84 -123 -3 -15 -17 -121 -33 -237
l-27 -210 -294 -185 c-161 -101 -293 -187 -293 -190 0 -3 171 -43 381 -87 210
-45 383 -84 385 -86 3 -2 -48 -97 -112 -211 -64 -114 -114 -209 -111 -212 2
-2 111 7 242 21 131 14 239 24 240 23 3 -3 55 -385 58 -423 2 -17 -26 -28
-213 -86 -118 -37 -214 -72 -213 -77 1 -4 98 -169 216 -366 213 -355 215 -358
202 -389 -7 -18 -50 -112 -94 -211 l-81 -178 27 -22 c15 -11 68 -53 118 -92
l90 -70 3 -221 2 -222 -119 -83 -120 -83 -1 -305 -1 -305 -175 -104 c-96 -57
-177 -107 -179 -112 -3 -4 47 -36 110 -71 63 -35 115 -67 115 -73 -1 -5 -27
-77 -59 -160 l-58 -150 -122 -5 -122 -5 -119 -220 c-66 -123 -113 -221 -107
-223 7 -1 114 24 239 57 223 58 226 59 231 37 3 -11 20 -105 38 -207 l32 -187
-67 -120 -66 -121 0 -168 0 -168 138 -77 c187 -105 176 -95 157 -140 -8 -21
-15 -42 -15 -48 0 -7 496 -10 1565 -10 l1565 0 0 3500 0 3500 -1595 0 -1595 0
-79 -95z"/>
</g>
</svg>
