<svg id="cdh-logo" viewBox="0 0 108 80" fill="inherit" xmlns="http://www.w3.org/2000/svg">
    <g clip-path="url(#clip0_431_29205)">
        <path d="M89.1584 -0.375V61.5333H0.333374L19.175 80.375H108V18.4667L89.1584 -0.375Z" fill="inherit" />
        <path d="M8.61047 8.30792H14.5052V9.4788H12.1635V16.9078H10.9388V9.4788H8.61047V8.30792Z" fill="inherit" />
        <path d="M21.8672 12.8568H17.076V16.9078H15.8513V8.30792H17.076V11.686H21.8672V8.30792H23.0919V16.9078H21.8672V12.8568Z" fill="inherit" />
        <path d="M29.4306 11.686V12.8568H26.6044V15.7369H30.4131V16.9078H25.3662V8.30792H30.2785V9.4788H26.5909V11.686H29.4306Z" fill="inherit" />
        <path d="M39.7661 8.18643C40.9908 8.18643 42.1617 8.68439 42.9154 9.51881L42.0944 10.3263C41.5965 9.77451 40.6948 9.35731 39.7796 9.35731C38.0166 9.35731 36.6573 10.757 36.6573 12.6142C36.6573 14.5522 38.0569 15.8711 39.8873 15.8711C40.3622 15.8659 40.8299 15.7544 41.256 15.5448C41.6822 15.3352 42.0561 15.0328 42.3501 14.6599L43.2249 15.4405C42.8203 15.936 42.3114 16.3364 41.7346 16.6132C41.1578 16.89 40.527 17.0364 39.8873 17.042C37.3167 17.042 35.4326 15.1578 35.4326 12.6142C35.4191 10.1244 37.2898 8.18643 39.7661 8.18643Z" fill="inherit" />
        <path d="M48.676 11.686V12.8568H45.8497V15.7369H49.6584V16.9078H44.625V8.30792H49.5373V9.4788H45.8497V11.686H48.676Z" fill="inherit" />
        <path d="M52.552 10.5958V16.9078H51.3273V8.30792H52.1886L57.3431 14.6199V8.30792H58.5678V16.9078H57.7065L52.552 10.5958Z" fill="inherit" />
        <path d="M59.9133 8.30792H65.8081V9.4788H63.4798V16.9078H62.2551V9.4788H59.9268V8.30792H59.9133Z" fill="inherit" />
        <path d="M71.2186 11.686V12.8568H68.3923V15.7369H72.2011V16.9078H67.1676V8.30792H72.0799V9.4788H68.3923V11.686H71.2186Z" fill="inherit" />
        <path d="M75.0813 12.8568V16.9078H73.8566V8.30792H76.8712C77.6518 8.30792 78.1498 8.49634 78.5401 8.80588C78.8046 9.01731 79.0182 9.28556 79.165 9.59076C79.3117 9.89596 79.3879 10.2303 79.3879 10.5689C79.3879 10.9076 79.3117 11.2419 79.165 11.5471C79.0182 11.8523 78.8046 12.1205 78.5401 12.332C78.2484 12.5685 77.9008 12.7261 77.5307 12.7895L80.6126 16.8943H79.1322L76.0772 12.8434H75.0813V12.8568V12.8568ZM76.8039 11.686C77.3557 11.686 77.6384 11.5648 77.8402 11.363C78.0465 11.1555 78.1626 10.875 78.1632 10.5824C78.1642 10.4373 78.1361 10.2935 78.0807 10.1594C78.0252 10.0254 77.9434 9.90377 77.8402 9.8018C77.6384 9.59992 77.3557 9.4788 76.8039 9.4788H75.0813V11.686H76.8039Z" fill="inherit" />
        <path d="M13.5762 23.2611V24.4319H10.75V28.4829H9.52527V19.883H14.4376V21.0539H10.75V23.2611H13.5762Z" fill="inherit" />
        <path d="M19.3501 19.7615C21.786 19.7615 23.6433 21.6726 23.6433 24.1893C23.6433 26.6926 21.7726 28.6171 19.3501 28.6171C16.9141 28.6171 15.0569 26.706 15.0569 24.1893C15.0569 21.6726 16.9276 19.7615 19.3501 19.7615ZM19.3501 27.4328C21.1131 27.4328 22.4186 26.0466 22.4186 24.1759C22.4186 22.3186 21.0997 20.919 19.3501 20.919C17.587 20.919 16.2816 22.3186 16.2816 24.1759C16.2816 26.0466 17.6005 27.4328 19.3501 27.4328Z" fill="inherit" />
        <path d="M26.4835 24.4319V28.4829H25.2588V19.883H28.2735C29.0541 19.883 29.552 20.0714 29.9423 20.381C30.2068 20.5924 30.4204 20.8607 30.5672 21.1659C30.714 21.4711 30.7902 21.8054 30.7902 22.144C30.7902 22.4827 30.714 22.817 30.5672 23.1222C30.4204 23.4274 30.2068 23.6956 29.9423 23.9071C29.6506 24.1436 29.303 24.3012 28.9329 24.3647L32.0149 28.4694H30.5345L27.4794 24.4185H26.4835V24.4319V24.4319ZM28.1927 23.2611C28.7445 23.2611 29.0271 23.1399 29.229 22.9381C29.4353 22.7306 29.5514 22.4501 29.552 22.1575C29.5543 22.0122 29.5268 21.868 29.4713 21.7338C29.4157 21.5995 29.3333 21.4781 29.229 21.3769C29.0271 21.175 28.7445 21.0539 28.1927 21.0539H26.47V23.2611H28.1927V23.2611Z" fill="inherit" />
        <path d="M37.0885 28.4829V19.883H39.6725C41.0318 19.883 41.92 20.1791 42.6199 20.6905C43.1586 21.0973 43.5949 21.6242 43.894 22.2294C44.1931 22.8345 44.3466 23.5012 44.3425 24.1762C44.3521 24.8508 44.2023 25.518 43.9053 26.1237C43.6083 26.7295 43.1725 27.2565 42.6333 27.6619C41.9335 28.1734 41.0318 28.4694 39.6725 28.4694H37.0885V28.4829ZM42.0546 21.7807C41.5163 21.3096 40.803 21.0539 39.5917 21.0539H38.2997V27.312H39.5917C40.7895 27.312 41.5028 27.0563 42.0546 26.5853C42.3883 26.2795 42.6542 25.907 42.835 25.4921C43.0158 25.0771 43.1076 24.6289 43.1043 24.1762C43.1106 23.7251 43.0201 23.2779 42.839 22.8647C42.6579 22.4515 42.3905 22.0819 42.0546 21.7807V21.7807Z" fill="inherit" />
        <path d="M45.9304 19.883H47.1551V28.4829H45.9304V19.883Z" fill="inherit" />
        <path d="M56.5489 27.0016C56.1422 27.4949 55.633 27.8937 55.0566 28.1703C54.4802 28.4468 53.8504 28.5945 53.2112 28.6031C50.6406 28.6031 48.7565 26.7189 48.7565 24.1753C48.7565 21.699 50.6272 19.7475 53.1035 19.7475C54.3282 19.7475 55.4991 20.2455 56.2528 21.0799L55.4318 21.8874C54.9339 21.3356 54.0321 20.9184 53.117 20.9184C51.3539 20.9184 49.9946 22.3181 49.9946 24.1753C49.9946 26.1133 51.3943 27.4322 53.2246 27.4322C54.0049 27.4495 54.7618 27.1651 55.3376 26.6382V24.431H52.8747V23.2602H56.5623L56.5489 27.0016V27.0016Z" fill="inherit" />
        <path d="M58.5138 19.883H59.7385V28.4829H58.5138V19.883Z" fill="inherit" />
        <path d="M61.098 19.883H66.9927V21.0539H64.6645V28.4829H63.4398V21.0539H61.1115V19.883H61.098Z" fill="inherit" />
        <path d="M72.3624 26.2757H68.7421L67.8404 28.4829H66.5619L70.1283 19.883H70.9896L74.5561 28.4829H73.2775L72.3624 26.2757ZM69.2266 25.1049H71.8779L70.5455 21.9152L69.2266 25.1049Z" fill="inherit" />
        <path d="M77.006 27.312H80.8147V28.4829H75.7812V19.883H77.006V27.312Z" fill="inherit" />
        <path d="M15.5411 35.993H10.75V40.044H9.52527V31.4441H10.75V34.8222H15.5411V31.4441H16.7659V40.044H15.5411V35.993Z" fill="inherit" />
        <path d="M19.4312 39.0486C18.8795 38.443 18.5295 37.649 18.5295 36.4915V31.4581H19.7543V36.5588C19.7543 37.3663 19.9561 37.8778 20.2926 38.2546C20.5234 38.497 20.8011 38.69 21.1088 38.8218C21.4165 38.9537 21.7478 39.0217 22.0825 39.0217C22.4173 39.0217 22.7486 38.9537 23.0563 38.8218C23.3639 38.69 23.6416 38.497 23.8725 38.2546C24.2224 37.8778 24.4108 37.3663 24.4108 36.5588V31.4581H25.6355V36.4915C25.6355 37.649 25.2856 38.443 24.7338 39.0486C24.3909 39.4097 23.9774 39.6964 23.519 39.8909C23.0606 40.0854 22.567 40.1835 22.0691 40.1791C21.5751 40.1834 21.0856 40.0852 20.6316 39.8906C20.1775 39.696 19.7688 39.4093 19.4312 39.0486V39.0486Z" fill="inherit" />
        <path d="M31.7453 38.2142H30.884L28.3673 34.2709V40.058H27.1426V31.4581H28.0039L31.3147 36.7069L34.6254 31.4581H35.4867V40.058H34.262V34.2709L31.7453 38.2142Z" fill="inherit" />
        <path d="M42.3908 37.8368H38.7705L37.8688 40.044H36.5902L40.1567 31.4441H41.018L44.5845 40.044H43.3059L42.3908 37.8368ZM39.2684 36.6794H41.9197L40.5873 33.4898L39.2684 36.6794Z" fill="inherit" />
        <path d="M46.9128 33.746V40.058H45.6881V31.4581H46.5494L51.704 37.7701V31.4581H52.9287V40.058H52.0674L46.9128 33.746Z" fill="inherit" />
        <path d="M55.082 31.4581H56.3067V40.058H55.082V31.4581Z" fill="inherit" />
        <path d="M58.137 31.4581H64.0317V32.629H61.7034V40.058H60.4787V32.629H58.1504V31.4581H58.137Z" fill="inherit" />
        <path d="M65.5929 31.4581H66.8176V40.058H65.5929V31.4581Z" fill="inherit" />
        <path d="M73.0895 34.8362V36.007H70.2633V38.8871H74.072V40.058H69.0386V31.4581H73.9509V32.629H70.2633V34.8362H73.0895V34.8362Z" fill="inherit" />
        <path d="M75.781 37.9037C76.279 38.5228 76.9923 39.0073 77.8805 39.0073C78.6746 39.0073 79.3744 38.4959 79.3744 37.7153C79.3744 36.3964 77.5575 36.2484 76.4136 35.5082C75.7945 35.1044 75.3234 34.5122 75.3234 33.6105C75.3234 32.3589 76.427 31.3226 77.9209 31.3226C78.7701 31.3266 79.5904 31.6318 80.2357 32.1839L79.509 33.0856C79.0836 32.7131 78.5401 32.5033 77.9747 32.4935C77.2614 32.4935 76.5481 32.8972 76.5481 33.6509C76.5481 34.741 78.3785 34.9833 79.4821 35.71C80.0608 36.0869 80.5991 36.6925 80.5991 37.675C80.5991 39.1823 79.4282 40.1648 77.9343 40.1648C77.3559 40.1668 76.7844 40.0385 76.2625 39.7891C75.7405 39.5398 75.2816 39.176 74.9197 38.7247L75.781 37.9037Z" fill="inherit" />
        <path d="M18.0042 47.8057V51.6144H16.7795V43.0145H20.0365C20.8709 43.0145 21.4092 43.2299 21.8264 43.5798C22.0921 43.805 22.3056 44.0854 22.452 44.4015C22.5984 44.7176 22.6743 45.0618 22.6743 45.4101C22.6743 45.7585 22.5984 46.1026 22.452 46.4187C22.3056 46.7348 22.0921 47.0152 21.8264 47.2404C21.4092 47.5904 20.8709 47.8057 20.0365 47.8057H18.0042V47.8057ZM19.9692 46.6483C20.5613 46.6483 20.8843 46.5002 21.0997 46.2714C21.3238 46.0462 21.4496 45.7413 21.4496 45.4236C21.4496 45.1058 21.3238 44.801 21.0997 44.5757C20.8843 44.3469 20.5613 44.1989 19.9692 44.1989H18.0042V46.6617H19.9692V46.6483Z" fill="inherit" />
        <path d="M25.0698 47.5634V51.6144H23.8451V43.0145H26.8463C27.6269 43.0145 28.1248 43.2029 28.5151 43.5125C28.7797 43.7239 28.9932 43.9922 29.14 44.2974C29.2868 44.6026 29.363 44.9369 29.363 45.2755C29.363 45.6142 29.2868 45.9485 29.14 46.2537C28.9932 46.5589 28.7797 46.8271 28.5151 47.0386C28.2234 47.2751 27.8759 47.4327 27.5057 47.4962L30.5877 51.6009H29.1073L26.0523 47.55L25.0698 47.5634V47.5634ZM26.779 46.3926C27.3308 46.3926 27.6134 46.2714 27.8153 46.0696C28.0216 45.8621 28.1377 45.5816 28.1383 45.289C28.1406 45.1437 28.1131 44.9995 28.0575 44.8653C28.002 44.731 27.9196 44.6096 27.8153 44.5084C27.6134 44.3065 27.3308 44.1854 26.779 44.1854H25.0563V46.3926H26.779Z" fill="inherit" />
        <path d="M31.5702 43.0145H32.7949V51.6144H31.5702V43.0145Z" fill="inherit" />
        <path d="M35.5813 45.3024V51.6144H34.3566V43.0145H35.2179L40.3725 49.3265V43.0145H41.5972V51.6144H40.7359L35.5813 45.3024Z" fill="inherit" />
        <path d="M47.0338 42.8977C48.2585 42.8977 49.4294 43.3957 50.1831 44.2301L49.3621 45.0376C48.8642 44.4858 47.9625 44.0686 47.0473 44.0686C45.2843 44.0686 43.925 45.4682 43.925 47.3255C43.925 49.2635 45.3246 50.5824 47.155 50.5824C47.6299 50.5772 48.0976 50.4656 48.5237 50.2561C48.9499 50.0465 49.3238 49.7441 49.6178 49.3712L50.4926 50.1517C50.088 50.6473 49.5791 51.0477 49.0023 51.3245C48.4255 51.6013 47.7947 51.7477 47.155 51.7533C44.5844 51.7533 42.7003 49.8691 42.7003 47.3255C42.6868 44.8492 44.5575 42.8977 47.0338 42.8977Z" fill="inherit" />
        <path d="M55.5938 46.3926V47.5634H52.7676V50.4435H56.5763V51.6144H51.5428V43.0145H56.4551V44.1854H52.7676V46.3926H55.5938V46.3926Z" fill="inherit" />
        <path d="M57.4507 43.0145H63.3454V44.1854H61.0171V51.6144H59.7924V44.1854H57.4641L57.4507 43.0145V43.0145Z" fill="inherit" />
        <path d="M67.827 42.8977C70.2629 42.8977 72.1202 44.8088 72.1202 47.3255C72.1202 49.8287 70.2495 51.7533 67.827 51.7533C65.3911 51.7533 63.5338 49.8422 63.5338 47.3255C63.5338 44.8222 65.4045 42.8977 67.827 42.8977ZM67.827 50.5824C69.59 50.5824 70.8955 49.1962 70.8955 47.3255C70.8955 45.4682 69.5766 44.0686 67.827 44.0686C66.0774 44.0686 64.7585 45.4682 64.7585 47.3255C64.7585 49.1962 66.0774 50.5824 67.827 50.5824Z" fill="inherit" />
        <path d="M74.4083 45.3024V51.6144H73.1836V43.0145H74.0449L79.1995 49.3265V43.0145H80.4242V51.6144H79.5629L74.4083 45.3024Z" fill="inherit" />
        <path d="M13.2538 48.2799C12.9846 48.5336 12.6278 48.6734 12.2579 48.6702C11.585 48.6702 10.6698 48.1454 10.6698 47.1091C10.6692 46.7018 10.8279 46.3104 11.1122 46.0186C11.3964 45.7269 11.7834 45.5579 12.1906 45.5479C12.4724 45.5415 12.7495 45.6213 12.9847 45.7767V45.6286H13.7518V47.3782C13.74 47.5163 13.7632 47.6552 13.8191 47.782C13.8501 47.8354 13.8957 47.879 13.9504 47.9076C14.0052 47.9362 14.067 47.9486 14.1286 47.9435C14.5593 47.9435 14.6535 47.3379 14.6535 46.9206C14.6535 45.6152 13.5634 44.7 12.3521 44.7C11.7261 44.7107 11.1291 44.966 10.689 45.4113C10.2488 45.8565 10.0004 46.4564 9.99686 47.0824C9.99334 47.7085 10.235 48.3111 10.6702 48.7613C11.1053 49.2115 11.6994 49.4735 12.3252 49.4912C12.8445 49.5004 13.3518 49.3345 13.7652 49.0201L14.2094 49.6796C13.6778 50.0782 13.03 50.291 12.3656 50.2852C11.523 50.2781 10.7173 49.9393 10.1228 49.3423C9.52824 48.7452 9.1929 47.938 9.18936 47.0954C9.18582 46.2529 9.51437 45.4429 10.1038 44.8408C10.6933 44.2388 11.4962 43.8933 12.3387 43.8791C13.9806 43.8791 15.4475 45.1576 15.4475 46.8937C15.4475 47.8358 15.0303 48.6433 14.1017 48.6433C13.9425 48.6478 13.7842 48.6176 13.6378 48.5548C13.4914 48.4921 13.3604 48.3983 13.2538 48.2799V48.2799ZM12.2983 47.93C12.4222 47.9343 12.5456 47.9112 12.6596 47.8624C12.7736 47.8135 12.8754 47.7401 12.9577 47.6474C12.946 47.5402 12.9415 47.4322 12.9443 47.3244V46.5169C12.8593 46.4331 12.7582 46.3673 12.6473 46.3234C12.5363 46.2795 12.4176 46.2583 12.2983 46.2612C12.077 46.2612 11.8647 46.3491 11.7083 46.5056C11.5518 46.6621 11.4639 46.8743 11.4639 47.0956C11.4639 47.3169 11.5518 47.5291 11.7083 47.6856C11.8647 47.8421 12.077 47.93 12.2983 47.93V47.93Z" fill="inherit" />
    </g>
    <defs>
        <clipPath id="clip0_431_29205">
            <rect width="108" height="80" fill="white" />
        </clipPath>
    </defs>
</svg>