<svg id="pgl-logo" viewBox="0 0 177 85" fill="inherit" xmlns="http://www.w3.org/2000/svg">
    <!-- Emblem -->
    <path d="M72.3283 12.4245C64.3743 4.41245 53.7496 0 42.4282 0C31.1068 0 20.4821 4.41245 12.47 12.4245C4.51596 20.3785 0.103516 31.0613 0.103516 42.3247C0.103516 53.6461 4.51596 64.2708 12.528 72.2828C20.5401 80.2949 31.1648 84.7074 42.4862 84.7074C53.8076 84.7074 64.4323 80.2949 72.4444 72.2828C80.4565 64.2708 84.8689 53.6461 84.8689 42.3247C84.7528 31.0613 80.3404 20.3785 72.3283 12.4245ZM73.6056 17.5917C78.1341 23.2815 81.1532 30.2485 81.966 37.7961C80.6887 36.2866 78.7728 35.2996 76.6246 35.2996H76.3924C75.5215 32.745 73.3153 30.9452 70.6446 30.5968C72.2702 28.5067 72.5605 25.6619 71.3994 23.2234C71.4574 23.1653 71.5155 23.1073 71.5735 23.0492C73.0831 21.5978 73.7798 19.5657 73.6056 17.5917ZM70.9349 14.5146C72.7928 16.7209 72.6766 20.0302 70.6446 22.1203C70.5285 22.2945 70.3543 22.4106 70.1221 22.5848L69.5995 22.9331L69.9479 23.4556C71.2252 25.6038 70.9349 28.3326 69.2512 30.1904C68.6126 29.3195 67.6256 28.739 66.4063 28.4487C65.8838 28.3326 65.3613 28.2745 64.7807 28.2745C63.6776 28.2745 62.5164 28.5067 61.4133 28.9712C61.0649 29.0873 60.7747 29.2615 60.4263 29.4357C59.7877 28.4487 59.4393 27.2294 59.5554 26.0102L59.6135 25.1974L58.8007 25.2555C57.5814 25.3135 56.3622 25.0232 55.3752 24.3846C55.5494 24.0943 55.7236 23.7459 55.8397 23.3976C57.117 20.3205 56.5364 17.0692 54.6204 15.5597C56.4783 13.8179 59.2071 13.5276 61.3552 14.863L61.8778 15.2113L62.2842 14.6888C62.4584 14.5146 62.5745 14.3405 62.7486 14.1663C64.8387 12.0762 68.1481 11.9601 70.3543 13.8179C70.4704 14.0502 70.7027 14.2824 70.9349 14.5146ZM45.1569 50.1045C45.273 50.0464 45.3891 49.9303 45.5053 49.9303C45.6214 49.8723 45.7956 49.8142 45.9117 49.8142C47.0148 52.3688 48.7565 55.1556 49.3371 55.7362C49.4532 55.8523 49.6274 56.0265 49.8597 56.1426C48.8727 56.6651 47.8276 57.1296 46.7826 57.4199C46.8987 57.1296 46.8987 56.8973 46.8987 56.7232C46.9567 55.9103 46.26 52.7171 45.1569 50.1045ZM45.7375 62.8193C44.5183 63.0515 43.3571 63.6321 42.4282 64.503C41.4992 63.6321 40.3381 63.0515 39.1188 62.8193C39.2349 61.9484 39.1769 61.0776 39.0027 60.2647C38.8866 59.8003 38.7124 59.3939 38.5382 58.9874C39.8155 59.2777 41.0928 59.4519 42.4282 59.4519C43.7635 59.4519 45.0989 59.2777 46.3181 58.9874C45.7956 60.0906 45.5633 61.4259 45.7375 62.8193ZM38.0157 57.4199C36.9126 57.0715 35.9256 56.6651 34.9386 56.1426C35.1709 56.0265 35.4031 55.7942 35.4611 55.7362C36.0417 55.1556 37.7835 52.4268 38.8866 49.8142C39.0027 49.8142 39.1769 49.8723 39.293 49.9303C39.4091 49.9884 39.5252 50.0464 39.6414 50.1045C38.5963 52.6591 37.8996 55.8523 37.8996 56.7232C37.8996 56.8393 37.8996 57.1296 38.0157 57.4199ZM39.6414 34.5448C39.5252 34.6029 39.4091 34.719 39.293 34.719C39.1769 34.777 39.0027 34.8351 38.8866 34.8351C38.7705 34.5448 38.6544 34.2545 38.4802 33.9062C37.4932 31.8161 36.2159 29.6679 35.4611 28.9131C35.345 28.797 35.1709 28.6228 34.9386 28.5067C35.9256 27.9842 36.9707 27.5197 38.0157 27.2294C37.8996 27.5197 37.8996 27.752 37.8996 27.9261C37.8996 28.797 38.5963 31.9902 39.6414 34.5448ZM39.1188 21.8881C40.3381 21.6558 41.4992 21.0752 42.4282 20.2044C43.3571 21.0752 44.5183 21.6558 45.7375 21.8881C45.5633 23.2815 45.7956 24.6749 46.3181 25.7199C45.0408 25.4296 43.7635 25.2555 42.4282 25.2555C41.0928 25.2555 39.7575 25.4296 38.5382 25.7199C38.7124 25.3135 38.8866 24.9071 39.0027 24.4426C39.1769 23.6298 39.2349 22.7589 39.1188 21.8881ZM46.8406 27.2875C47.9437 27.5778 48.9307 28.0423 49.9177 28.5648C49.6855 28.6809 49.4532 28.9131 49.3952 28.9712C48.8146 29.5518 47.0728 32.2805 45.9697 34.8932C45.8536 34.8932 45.6794 34.8351 45.5633 34.777C45.4472 34.719 45.3311 34.6609 45.215 34.6029C46.26 31.9902 46.9567 28.8551 46.9567 27.9842C46.9567 27.8681 46.9567 27.5778 46.8406 27.2875ZM42.4282 55.4459C41.3251 55.4459 40.3381 55.9684 39.6414 56.3748C39.5252 56.4329 39.4091 56.4909 39.3511 56.549C39.4091 55.7362 39.8736 53.8202 40.5703 51.8463C40.6284 51.7301 40.6283 51.614 40.6864 51.4979C41.2089 53.0074 41.9056 53.2977 42.4862 53.2977C43.0088 53.2977 43.7635 53.0074 44.286 51.4979C44.3441 51.614 44.3441 51.7301 44.4022 51.8463C45.0989 53.8783 45.5633 55.7362 45.6214 56.549C45.5053 56.4909 45.3891 56.4329 45.3311 56.3748C44.5183 55.9684 43.5313 55.4459 42.4282 55.4459ZM44.9247 57.8263C44.1119 57.9424 43.299 58.0005 42.4282 58.0005C41.5573 58.0005 40.7445 57.9424 39.9317 57.8263C40.0478 57.7682 40.1639 57.7102 40.3381 57.594C40.9186 57.2457 41.6734 56.8393 42.4282 56.8393C43.1829 56.8393 43.9377 57.2457 44.5183 57.594C44.6344 57.7102 44.8086 57.7682 44.9247 57.8263ZM42.8926 50.9754C42.7185 51.556 42.5443 51.7882 42.4282 51.8463C42.3701 51.7882 42.1379 51.556 41.9637 50.9754C41.6153 49.8723 40.8606 49.0594 39.8155 48.653C39.3511 48.4789 38.8866 48.3627 38.4221 48.3627C37.8415 48.3627 37.2029 48.5369 36.6223 48.8272C36.0998 49.0594 35.8095 49.0594 35.6934 49.0594C35.6934 48.9433 35.6934 48.653 35.9837 48.0724C36.5062 47.0274 36.5643 45.9243 36.1578 44.9373C35.7514 43.9503 34.9386 43.1955 33.7774 42.7891C33.1969 42.6149 32.9646 42.4408 32.9066 42.3247C32.9646 42.2666 33.1969 42.0344 33.7774 41.8602C34.8806 41.5118 35.6934 40.7571 36.0998 39.712C36.5062 38.725 36.4481 37.5639 35.9256 36.5188C35.6353 35.9963 35.6353 35.706 35.6353 35.5899C35.7514 35.5899 36.0417 35.5899 36.6223 35.8802C37.6674 36.4027 38.7705 36.4607 39.7575 36.0543C40.7445 35.6479 41.4992 34.8351 41.9056 33.732C42.0798 33.1514 42.254 32.9192 42.3701 32.8611C42.4282 32.9192 42.6604 33.1514 42.8346 33.732C43.1829 34.8351 43.9377 35.6479 44.9827 36.0543C45.9697 36.4607 47.1309 36.4027 48.176 35.8802C48.6985 35.5899 48.9888 35.5899 49.1049 35.5899C49.1049 35.706 49.1049 35.9963 48.8146 36.5769C48.2921 37.6219 48.234 38.725 48.6404 39.712C49.0468 40.699 49.8597 41.4538 51.0208 41.8602C51.6014 42.0344 51.8336 42.2085 51.8917 42.3247C51.8336 42.3827 51.6014 42.6149 51.0208 42.7891C49.9177 43.1375 49.1049 43.8922 48.6985 44.9373C48.2921 45.9243 48.3501 47.0855 48.8727 48.1305C49.163 48.653 49.163 48.9433 49.163 49.0594C49.0468 49.0594 48.7565 49.0594 48.176 48.7692C47.1309 48.2466 46.0278 48.1886 45.0408 48.653C43.9957 49.0014 43.241 49.8723 42.8926 50.9754ZM34.7064 37.1574C34.5903 37.0994 34.4742 37.0413 34.358 36.9833C32.4421 36.0543 30.8165 35.0093 30.1778 34.4868C30.2939 34.4287 30.4101 34.4287 30.5262 34.3706C31.2809 34.1384 32.384 33.8481 33.1388 33.0353C33.9516 32.2225 34.2419 31.1774 34.4742 30.4227C34.5322 30.3065 34.5322 30.1904 34.5903 30.0743C35.1128 30.713 36.1578 32.3386 37.0868 34.2545C37.1448 34.3706 37.2029 34.4868 37.261 34.6029C35.8676 33.9062 35.1128 34.1965 34.7064 34.6029C34.3 34.9512 34.0097 35.706 34.7064 37.1574ZM33.1388 30.0743C32.9646 30.713 32.7324 31.5838 32.2099 32.1064C31.6873 32.6289 30.8745 32.8611 30.1778 33.0353C30.0036 33.0934 29.8875 33.0934 29.7714 33.1514C30.7584 31.8161 31.9196 30.5968 33.313 29.6098C33.1969 29.784 33.1388 29.9001 33.1388 30.0743ZM34.9967 38.7831C34.9967 38.8992 34.9386 39.0734 34.8806 39.1895C34.8225 39.3056 34.7644 39.4217 34.7064 39.5378C32.0938 38.4928 28.9586 37.7961 28.0877 37.7961C27.9716 37.7961 27.6813 37.7961 27.391 37.9122C27.6813 36.8091 28.1458 35.8221 28.6683 34.8351C28.7844 35.0673 29.0167 35.2996 29.0747 35.3576C29.6553 35.9382 32.384 37.738 34.9967 38.7831ZM33.2549 44.1245C33.1388 44.1825 33.0227 44.1825 32.9066 44.2406C30.8745 44.9373 29.0167 45.4018 28.2038 45.4598C28.2619 45.3437 28.32 45.2276 28.378 45.1695C28.7844 44.4728 29.3069 43.4858 29.3069 42.3827C29.3069 41.2796 28.7844 40.2926 28.378 39.5959C28.32 39.4798 28.2619 39.4217 28.2038 39.3056C29.0167 39.3637 30.9326 39.8281 32.9066 40.5248C33.0227 40.5829 33.1388 40.5829 33.2549 40.641C31.8035 41.1635 31.4551 41.9182 31.4551 42.4408C31.4551 42.8472 31.8035 43.6019 33.2549 44.1245ZM27.9135 42.3247C27.9135 43.0794 27.5071 43.8342 27.1588 44.4148C27.1007 44.5309 26.9846 44.7051 26.9265 44.8212C26.8104 44.0084 26.7524 43.1955 26.7524 42.3247C26.7524 41.4538 26.8104 40.641 26.9265 39.8281C26.9846 39.9443 27.0427 40.1184 27.1588 40.2346C27.5071 40.8732 27.9135 41.5699 27.9135 42.3247ZM28.0297 46.8532C28.8425 46.8532 32.0357 46.1565 34.6483 45.1115C34.7064 45.2276 34.8225 45.3437 34.8225 45.4598C34.8806 45.5759 34.9386 45.7501 34.9386 45.8662C32.384 46.9693 29.5972 48.7111 29.0167 49.2917C28.9005 49.4078 28.7264 49.582 28.6102 49.8142C28.0877 48.8272 27.6232 47.7822 27.333 46.7371C27.6232 46.8532 27.9135 46.8532 28.0297 46.8532ZM30.1198 51.6721C30.7584 51.8463 31.6293 52.0785 32.1518 52.601C32.6743 53.1235 32.9066 53.9364 33.0807 54.6331C33.1388 54.8072 33.1388 54.9234 33.1969 55.0395C31.8615 54.0525 30.6423 52.8913 29.6553 51.4979C29.8295 51.556 30.0036 51.614 30.1198 51.6721ZM33.1388 51.614C32.326 50.8012 31.2809 50.5109 30.5262 50.2787C30.4101 50.2787 30.2939 50.2206 30.1778 50.1626C30.8165 49.64 32.4421 48.595 34.358 47.666C34.4742 47.608 34.5903 47.5499 34.7064 47.4919C34.0097 48.8853 34.3 49.64 34.7064 50.0464C35.0547 50.3948 35.8095 50.6851 37.261 50.0464C37.2029 50.1626 37.1448 50.2787 37.0868 50.3948C36.1578 52.3107 35.1128 53.9364 34.5903 54.575C34.5903 54.4589 34.5322 54.3428 34.4742 54.2267C34.2419 53.4719 33.9516 52.3688 33.1388 51.614ZM42.4282 29.2615C43.5313 29.2615 44.5183 28.739 45.215 28.3326C45.3311 28.2745 45.3891 28.2164 45.5053 28.1584C45.4472 28.9712 44.9827 30.8871 44.286 32.8611C44.228 32.9772 44.228 33.0934 44.1699 33.2095C43.6474 31.6999 42.8926 31.4097 42.3701 31.4097C41.8476 31.4097 41.0928 31.758 40.5703 33.2095C40.5122 33.0934 40.5122 32.9772 40.4542 32.8611C39.7575 30.8291 39.293 28.9712 39.2349 28.1584C39.3511 28.2164 39.4672 28.2745 39.5252 28.3326C40.3381 28.739 41.3251 29.2615 42.4282 29.2615ZM39.9317 26.8811C40.7445 26.765 41.5573 26.7069 42.4282 26.7069C43.299 26.7069 44.1119 26.765 44.9247 26.8811C44.8086 26.9391 44.6344 26.9972 44.5183 27.1133C43.9377 27.4617 43.1829 27.8681 42.4282 27.8681C41.6734 27.8681 40.9186 27.4617 40.3381 27.1133C40.1639 26.9972 40.0478 26.9391 39.9317 26.8811ZM56.4783 45.1115C56.5364 45.2276 56.5944 45.3437 56.6525 45.4018C55.8397 45.3437 53.9237 44.8792 51.9498 44.1825C51.8336 44.1245 51.7175 44.1245 51.6014 44.0664C53.1109 43.5439 53.4012 42.7891 53.4012 42.2666C53.4012 41.7441 53.1109 41.0474 51.6014 40.4668C51.7175 40.4087 51.8336 40.4087 51.9498 40.3507C53.9818 39.654 55.8397 39.1895 56.6525 39.1314C56.5944 39.2476 56.5364 39.3637 56.4783 39.4217C56.0719 40.1184 55.5494 41.1054 55.5494 42.2085C55.4913 43.4858 56.0719 44.4148 56.4783 45.1115ZM50.208 39.5959C50.1499 39.4798 50.0338 39.3637 50.0338 39.2476C49.9758 39.1314 49.9177 38.9573 49.9177 38.8411C52.4723 37.738 55.2591 35.9963 55.8397 35.4157C55.9558 35.2996 56.13 35.1254 56.2461 34.8932C56.7686 35.8802 57.2331 36.9252 57.5234 37.9703C57.2331 37.8542 57.0008 37.8541 56.8267 37.8541C55.9558 37.8541 52.7626 38.5509 50.208 39.5959ZM54.6785 33.0353C54.0399 32.8611 53.169 32.6289 52.6465 32.1064C52.1239 31.5838 51.8917 30.771 51.7175 30.0743C51.6595 29.9001 51.6595 29.784 51.6014 29.6679C52.9368 30.6549 54.156 31.8161 55.143 33.2095C54.9688 33.0934 54.8527 33.0934 54.6785 33.0353ZM51.6595 33.0934C52.4723 33.9062 53.5173 34.1965 54.2721 34.4287C54.3882 34.4287 54.5043 34.4868 54.6204 34.5448C53.9818 35.0673 52.3562 36.1124 50.4402 37.0413C50.3241 37.0994 50.208 37.1574 50.0919 37.2155C50.7886 35.8221 50.4983 35.0673 50.0919 34.6609C49.7435 34.3126 48.9888 34.0223 47.5373 34.6609C47.5954 34.5448 47.6534 34.4287 47.7115 34.3126C48.6404 32.3966 49.6274 30.771 50.208 30.1324C50.2661 30.2485 50.2661 30.3646 50.3241 30.4807C50.6144 31.2355 50.9047 32.2805 51.6595 33.0934ZM50.1499 50.1045C50.4983 49.7561 50.7886 49.0014 50.1499 47.5499C50.2661 47.608 50.3822 47.666 50.4983 47.7241C52.4142 48.653 54.0399 49.64 54.6785 50.2206C54.5624 50.2206 54.4463 50.2787 54.3302 50.3367C53.5754 50.569 52.4723 50.8593 51.7175 51.6721C50.9047 52.4849 50.6144 53.5299 50.3822 54.2847C50.3822 54.4008 50.3241 54.5169 50.2661 54.6331C49.7435 53.9944 48.6985 52.3688 47.7695 50.4528C47.7115 50.3367 47.6534 50.2206 47.5954 50.1045C49.0468 50.7431 49.8016 50.4528 50.1499 50.1045ZM51.7175 54.6331C51.8917 53.9944 52.1239 53.1235 52.6465 52.601C53.169 52.0785 53.9818 51.8463 54.6785 51.6721C54.8527 51.614 54.9688 51.614 55.0849 51.556C54.0979 52.8913 52.9368 54.1105 51.5434 55.0975C51.6595 54.9234 51.7175 54.7492 51.7175 54.6331ZM49.8597 45.8662C49.8597 45.7501 49.9177 45.5759 49.9758 45.4598C50.0338 45.3437 50.0919 45.2276 50.1499 45.1115C52.7045 46.1565 55.8977 46.8532 56.7686 46.8532C56.8847 46.8532 57.175 46.8532 57.4653 46.7371C57.117 47.8402 56.7106 48.8272 56.188 49.8142C56.0719 49.582 55.8397 49.3497 55.7816 49.2917C55.201 48.7111 52.4142 46.9693 49.8597 45.8662ZM56.9428 42.3247C56.9428 41.5699 57.3492 40.8151 57.6976 40.2346C57.7556 40.1184 57.8717 39.9443 57.9298 39.8281C58.0459 40.641 58.104 41.4538 58.104 42.3247C58.104 43.1955 58.0459 44.0084 57.9298 44.8212C57.8717 44.7051 57.8137 44.5309 57.6976 44.4148C57.3492 43.8342 56.9428 43.0794 56.9428 42.3247ZM57.5234 32.1064C57.2911 32.5128 57.0589 32.9192 56.9428 33.3256C55.5494 31.1194 53.6335 29.2034 51.4272 27.81C52.5884 27.4617 53.6915 26.6489 54.5624 25.4877C55.6074 26.1844 56.8267 26.5908 58.104 26.6489C58.162 27.9261 58.5684 29.1454 59.2651 30.1904C58.5684 30.771 57.9878 31.4097 57.5234 32.1064ZM54.5043 22.817C54.4463 22.9912 54.3302 23.2234 54.2721 23.3976C54.0399 23.862 53.7496 24.2685 53.5173 24.6168C52.2401 26.2424 50.4983 27.0553 49.0468 26.4166C47.5954 25.836 46.9567 24.0362 47.189 22.0042C47.247 21.5397 47.3631 21.0752 47.5373 20.5527C47.5954 20.3785 47.6534 20.1463 47.7695 19.9721C48.7565 17.5917 50.6725 16.0822 52.4142 16.1403C52.7045 16.1403 52.9948 16.1983 53.2851 16.3144C53.5754 16.4306 53.8076 16.6047 54.0399 16.7789C55.201 17.9981 55.4913 20.4947 54.5043 22.817ZM37.6093 24.0943C37.319 25.2555 36.7384 26.1263 35.8676 26.4747C34.4742 27.0553 32.6743 26.3005 31.3971 24.6749C31.1068 24.3265 30.8165 23.862 30.5842 23.4556C30.4681 23.2815 30.4101 23.1073 30.2939 22.8751C29.3069 20.4947 29.5972 18.0562 30.8745 16.895C31.1068 16.6628 31.339 16.5467 31.6293 16.4306C31.9196 16.3144 32.2099 16.2564 32.5002 16.2564C32.5582 16.2564 32.5582 16.2564 32.6163 16.2564C34.3 16.2564 36.1578 17.7659 37.1448 20.0882C37.2029 20.2624 37.319 20.4947 37.3771 20.6688C37.5513 21.1333 37.6674 21.5978 37.7254 22.1203C37.7835 22.7589 37.7835 23.4556 37.6093 24.0943ZM30.2939 25.5457C31.1648 26.6489 32.2679 27.4617 33.4291 27.8681C31.1648 29.2615 29.3069 31.1774 27.9135 33.3836C27.7974 32.9772 27.5652 32.5708 27.333 32.1644C26.8685 31.4677 26.2879 30.8291 25.5912 30.3065C26.2879 29.2615 26.6943 28.0423 26.7524 26.765C28.0297 26.5908 29.2489 26.2424 30.2939 25.5457ZM26.1137 32.8611C26.7524 33.8481 26.9265 34.8932 26.5201 35.764C26.1718 36.6349 25.3009 37.2736 24.1397 37.5058C23.5011 37.68 22.8044 37.68 22.0496 37.6219C21.5852 37.5639 21.1207 37.4477 20.5982 37.2736C20.424 37.2155 20.1918 37.1574 20.0176 37.0413C18.6242 36.4607 17.5211 35.5318 16.8244 34.4868C16.418 33.7901 16.1857 33.0934 16.1857 32.4547C16.1857 32.1644 16.2438 31.8741 16.3599 31.5838C16.476 31.2935 16.6502 31.0613 16.8244 30.8291C17.2888 30.3646 17.9275 30.0163 18.6822 29.8421C19.0886 29.726 19.4951 29.6679 19.9595 29.6679C20.8885 29.6679 21.8174 29.8421 22.7463 30.2485C22.9205 30.3065 23.1527 30.4227 23.3269 30.5388C23.7914 30.771 24.1978 31.0032 24.5461 31.2935C25.3009 31.758 25.7654 32.2805 26.1137 32.8611ZM21.9335 39.0153C22.2238 39.0734 22.5722 39.0734 22.8625 39.0734C23.443 39.0734 23.9656 39.0153 24.4881 38.8992C24.9526 38.7831 25.359 38.6089 25.7654 38.4347C25.4751 39.712 25.3009 40.9893 25.3009 42.3247C25.3009 43.66 25.4751 44.9953 25.7654 46.2146C25.359 46.0404 24.9526 45.8662 24.4881 45.7501C23.9656 45.634 23.443 45.5759 22.8625 45.5759C22.5722 45.5759 22.2238 45.5759 21.9335 45.634C21.7013 44.4148 21.1207 43.2536 20.2498 42.3247C21.1207 41.3957 21.7013 40.2926 21.9335 39.0153ZM22.1077 47.0855C22.398 47.0274 22.6302 47.0274 22.9205 47.0274C23.385 47.0274 23.7914 47.0855 24.1978 47.1435C25.359 47.4338 26.2298 48.0144 26.5782 48.8853C27.1588 50.3367 26.404 52.0785 24.7784 53.3558C24.43 53.6461 23.9656 53.9364 23.5592 54.1686C23.385 54.2847 23.2108 54.3428 22.9786 54.4589C21.5852 55.0395 20.1337 55.2136 18.9145 54.9234C18.1017 54.7492 17.463 54.4008 17.0566 53.8783C16.8244 53.6461 16.7082 53.4138 16.5921 53.1235C16.476 52.8332 16.418 52.543 16.418 52.2527C16.418 51.614 16.5921 50.9173 17.0566 50.2206C17.405 49.6981 17.8694 49.1756 18.3919 48.7111C18.9145 48.2466 19.5531 47.8983 20.2498 47.608C20.424 47.5499 20.6562 47.4338 20.8304 47.3757C21.1207 47.2596 21.6432 47.1435 22.1077 47.0855ZM27.9135 51.3237C29.3069 53.588 31.2229 55.4459 33.4291 56.8393C33.0227 56.9554 32.6163 57.1876 32.2099 57.4199C31.5132 57.8263 30.9326 58.4069 30.4101 59.0455C30.4101 59.1036 30.352 59.1036 30.352 59.1616C29.3069 58.4649 28.0877 58.0585 26.8104 58.0005C26.7524 56.7232 26.346 55.5039 25.6493 54.4589C26.6943 53.588 27.5071 52.4849 27.9135 51.3237ZM30.352 61.8323C30.4101 61.6581 30.5262 61.4259 30.6423 61.2517C30.8745 60.7873 31.1068 60.3809 31.3971 60.0325C31.8615 59.4519 32.384 58.9874 32.9066 58.6391C33.9516 58.0005 34.9386 57.8263 35.8095 58.2327C36.6804 58.581 37.319 59.4519 37.5513 60.6131C37.7254 61.2517 37.7254 61.9484 37.6674 62.7032C37.6093 63.1677 37.4932 63.6321 37.319 64.1547C37.261 64.3288 37.2029 64.5611 37.0868 64.7352C36.0998 67.1156 34.1839 68.6252 32.4421 68.5671C32.1518 68.5671 31.8615 68.509 31.5712 68.3929C31.2809 68.2768 31.0487 68.1026 30.8165 67.9285C29.6553 66.6512 29.365 64.2127 30.352 61.8323ZM48.9888 58.2327C49.2791 58.1166 49.6274 58.0585 49.9758 58.0585C50.6144 58.0585 51.2531 58.2907 51.8917 58.6972C52.4723 59.0455 52.9948 59.51 53.4012 60.0906C53.6915 60.4389 53.9818 60.9034 54.156 61.3098C54.2721 61.484 54.3302 61.6581 54.3882 61.8904C55.3752 64.2708 55.0849 66.7092 53.8076 67.8704C53.5754 68.0446 53.3432 68.2188 53.0529 68.3349C52.7626 68.451 52.4723 68.509 52.182 68.509C50.4402 68.5671 48.5243 67.0576 47.5373 64.6772C47.4793 64.503 47.3631 64.2708 47.3051 64.0966C47.1309 63.6321 47.0148 63.1096 46.9567 62.6451C46.8987 60.6131 47.5954 58.8133 48.9888 58.2327ZM54.5624 59.1616C54.0399 58.4649 53.4012 57.8843 52.7045 57.4199C52.2981 57.1876 51.8917 56.9554 51.4853 56.8393C53.6915 55.4459 55.6074 53.5299 57.0009 51.3237C57.3492 52.4849 58.162 53.588 59.2651 54.4589C58.5684 55.5039 58.162 56.7232 58.104 58.0005C56.8267 58.0585 55.6074 58.4649 54.5624 59.1616ZM58.3362 48.9433C58.6845 48.0724 59.5554 47.4338 60.7166 47.2016C61.123 47.0855 61.5294 47.0855 61.9939 47.0855C62.2261 47.0855 62.5164 47.0855 62.8067 47.1435C63.2712 47.2016 63.7356 47.3177 64.2582 47.4919C64.4323 47.5499 64.6646 47.608 64.8388 47.7241C66.2322 48.3047 67.3353 49.2336 68.032 50.2787C68.4384 50.9754 68.6706 51.6721 68.6706 52.3107C68.6706 52.601 68.6126 52.8913 68.4964 53.1816C68.3803 53.4719 68.2061 53.7041 68.032 53.9364C67.5675 54.4008 66.9289 54.7492 66.1741 54.9814C64.8968 55.2717 63.4453 55.0975 62.11 54.5169C61.9358 54.4589 61.7036 54.3428 61.5294 54.2267C61.0649 53.9944 60.6585 53.7622 60.3102 53.4719C58.5104 52.1365 57.6976 50.3367 58.3362 48.9433ZM62.9228 45.634C62.0519 45.5179 61.1811 45.5759 60.3682 45.7501C59.9038 45.8662 59.4974 46.0404 59.091 46.2146C59.3812 44.9373 59.5554 43.66 59.5554 42.3247C59.5554 40.9893 59.3812 39.654 59.091 38.4347C59.4974 38.6089 59.9038 38.7831 60.3682 38.8992C60.8908 39.0153 61.4133 39.0734 61.9939 39.0734C62.2842 39.0734 62.6325 39.0734 62.9228 39.0153C63.1551 40.2345 63.7356 41.3957 64.6065 42.3247C63.7356 43.2536 63.1551 44.4148 62.9228 45.634ZM62.7486 37.6219C62.0519 37.738 61.2972 37.68 60.6585 37.5058C59.4974 37.2155 58.6265 36.6349 58.2781 35.764C57.9298 34.8932 58.0459 33.8481 58.6845 32.8611C59.0329 32.3386 59.4974 31.8161 60.0199 31.3516L60.0779 31.2935C60.4263 31.0032 60.8908 30.713 61.2972 30.4807C61.4714 30.3646 61.6455 30.3065 61.8778 30.2485C62.8067 29.8421 63.7937 29.6679 64.6646 29.6679C65.129 29.6679 65.5354 29.726 65.9419 29.8421C66.7547 30.0163 67.3933 30.3646 67.7997 30.8291C68.032 31.0613 68.1481 31.2935 68.2642 31.5838C68.3803 31.8741 68.4384 32.1644 68.4384 32.4547C68.4384 33.0934 68.2642 33.7901 67.7997 34.4868C67.103 35.5899 65.9999 36.5188 64.6065 37.0413C64.4323 37.0994 64.2001 37.2155 64.0259 37.2736C63.6776 37.4477 63.2131 37.5639 62.7486 37.6219ZM67.1611 11.1472C65.1871 10.9731 63.1551 11.6698 61.6455 13.1793C61.5875 13.2373 61.5294 13.2954 61.4714 13.3535C59.091 12.1923 56.188 12.4826 54.0979 14.1082C53.7496 11.4956 51.9498 9.2313 49.3952 8.36043C49.3952 8.30237 49.3952 8.18625 49.3952 8.12819C49.3952 5.98003 48.4082 4.0641 46.8987 2.78681C54.5624 3.59963 61.4714 6.61867 67.1611 11.1472ZM42.4282 2.49652C45.5633 2.49652 48.0598 4.99303 48.0598 8.12819C48.0598 8.30237 48.0598 8.5346 48.0018 8.76684L47.9437 9.40548L48.5243 9.57965C50.9628 10.2183 52.7045 12.3665 52.7626 14.863C52.5884 14.863 52.4142 14.8049 52.182 14.8049C49.9177 14.8049 47.5373 16.6628 46.3181 19.5077C46.202 19.856 46.0859 20.2044 45.9697 20.5527C44.8086 20.3205 43.7055 19.6818 42.8926 18.7529L42.3701 18.1723L41.8476 18.7529C41.0348 19.6818 39.9897 20.2624 38.7705 20.5527C38.6544 20.2044 38.5382 19.856 38.4221 19.5077C37.1448 16.4306 34.4161 14.5146 32.0357 14.863C32.0938 12.3665 33.8355 10.2183 36.274 9.57965L36.8545 9.40548L36.7965 8.76684C36.7965 8.5346 36.7384 8.30237 36.7384 8.07013C36.7965 4.99303 39.293 2.49652 42.4282 2.49652ZM37.8996 2.72875C36.3901 4.00604 35.4031 5.92197 35.4031 8.07013C35.4031 8.12819 35.4031 8.24431 35.4031 8.30237C32.8485 9.17325 31.0487 11.3795 30.7003 14.0502C28.6102 12.4245 25.7654 12.1342 23.3269 13.2954C23.2689 13.2373 23.2108 13.1793 23.1527 13.1212C21.6432 11.6117 19.6112 10.915 17.6372 11.0892C23.3269 6.61867 30.2939 3.59963 37.8996 2.72875ZM13.8634 14.5727C14.0956 14.3405 14.3279 14.1082 14.5601 13.8179C15.6051 12.947 16.8824 12.4826 18.1597 12.4826C19.6112 12.4826 21.0626 13.0051 22.1077 14.1082C22.2819 14.2824 22.398 14.3985 22.5722 14.6307L22.9786 15.1533L23.5011 14.8049C25.6493 13.5276 28.378 13.8179 30.2359 15.5016C28.32 16.9531 27.7394 20.2044 29.0167 23.3395C29.1328 23.6879 29.3069 23.9782 29.4811 24.3265C28.4941 24.9652 27.2749 25.3135 26.0557 25.1974L25.2428 25.1393L25.3009 25.9522C25.359 27.1714 25.0687 28.3906 24.372 29.3776C24.0817 29.2034 23.7333 29.0293 23.385 28.9131C21.7013 28.2164 19.9595 28.0423 18.45 28.3906C17.2308 28.6809 16.2438 29.2615 15.6051 30.1324C13.8634 28.3326 13.5731 25.5457 14.9084 23.3976L15.2568 22.8751L14.7923 22.4686C14.6181 22.2945 14.444 22.1784 14.2698 22.0042C13.2247 20.9591 12.6442 19.5077 12.6442 18.0562C12.5861 16.837 13.0506 15.5597 13.8634 14.5727ZM11.1927 17.5917C11.1927 17.7659 11.1927 17.9401 11.1927 18.1143C11.1927 19.9721 11.9475 21.7719 13.2247 23.1073C13.2828 23.1653 13.3409 23.2234 13.3989 23.2815C12.2377 25.6619 12.528 28.5648 14.1537 30.6549C11.541 31.0032 9.27676 32.8031 8.40588 35.3576H8.17365C6.02548 35.3576 4.10955 36.3446 2.83227 37.8541C3.70314 30.2485 6.66413 23.2815 11.1927 17.5917ZM2.54197 42.3247C2.54197 39.2476 5.03849 36.693 8.17365 36.693C8.34782 36.693 8.58006 36.693 8.87035 36.751L9.50899 36.8091L9.68317 36.2285C10.3218 33.7901 12.47 32.0483 14.9665 31.9902C14.7923 33.0353 15.0826 34.1965 15.7793 35.2415C16.5921 36.5769 17.9855 37.68 19.6692 38.3767C20.0176 38.4928 20.3659 38.6089 20.7143 38.725C20.4821 39.8862 19.8434 40.9893 18.9145 41.8021L18.3339 42.3247L18.9145 42.8472C19.8434 43.66 20.4821 44.7631 20.7143 45.9243C20.3659 46.0404 20.0176 46.1565 19.6692 46.2726C17.9855 46.9693 16.6502 48.0724 15.7793 49.4078C15.0826 50.5109 14.8504 51.614 14.9665 52.6591C12.47 52.601 10.3218 50.8593 9.68317 48.4208L9.50899 47.8402L8.87035 47.8983C8.63812 47.8983 8.40588 47.9563 8.17365 47.9563C5.09655 47.9563 2.54197 45.4598 2.54197 42.3247ZM11.1927 67.1156C6.66413 61.4259 3.70314 54.4589 2.83227 46.9113C4.10955 48.4208 6.02548 49.4078 8.17365 49.4078C8.23171 49.4078 8.34782 49.4078 8.40588 49.4078C9.27676 51.9624 11.483 53.7622 14.1537 54.1105C12.528 56.2006 12.2377 59.0455 13.3989 61.484C13.3409 61.542 13.2828 61.6001 13.2247 61.6581C11.8894 62.9935 11.1927 64.7352 11.1927 66.6512C11.1927 66.7092 11.1927 66.9415 11.1927 67.1156ZM13.8634 70.1347C13.0506 69.1477 12.5861 67.8704 12.5861 66.5931C12.5861 65.0836 13.1667 63.6902 14.2117 62.6451C14.3279 62.471 14.502 62.3548 14.7343 62.1807L15.1987 61.7743L14.8504 61.2517C13.5731 59.1036 13.8634 56.3168 15.5471 54.5169C16.1857 55.3878 17.1727 55.9684 18.3919 56.2587C18.9145 56.3748 19.437 56.4329 20.0176 56.4329C21.1207 56.4329 22.2819 56.2006 23.385 55.7362C23.7333 55.6201 24.0236 55.4459 24.372 55.2717C25.0106 56.2587 25.359 57.4779 25.3009 58.6972L25.2428 59.51L26.0557 59.4519C27.2749 59.3939 28.4941 59.6842 29.4811 60.3809C29.3069 60.6711 29.1328 61.0195 29.0167 61.3678C27.7394 64.4449 28.32 67.6962 30.2359 69.2057C28.4361 70.9475 25.6493 71.2378 23.5011 69.9024L22.9786 69.5541L22.5722 70.0766C22.398 70.2508 22.2819 70.425 22.1077 70.5991C20.0176 72.6893 16.7663 72.8054 14.5601 70.9475C14.3859 70.6572 14.0956 70.3669 13.8634 70.1347ZM17.6952 73.5601C17.8694 73.5601 18.0436 73.5601 18.2178 73.5601C20.0176 73.5601 21.8174 72.8634 23.2108 71.5281C23.2689 71.47 23.3269 71.412 23.385 71.3539C25.7654 72.5151 28.6683 72.2248 30.7584 70.5991C31.1068 73.2118 32.9066 75.4761 35.4611 76.3469C35.4611 76.405 35.4611 76.5211 35.4611 76.5792C35.4611 78.7273 36.4481 80.6433 37.9577 81.9206C30.2939 81.1077 23.3269 78.0887 17.6952 73.5601ZM42.4282 82.2109C39.293 82.2109 36.7965 79.6563 36.7965 76.5792C36.7965 76.405 36.7965 76.1728 36.8545 75.8825L36.9126 75.2438L36.332 75.0697C33.8936 74.431 32.1518 72.2828 32.0938 69.7863C32.2679 69.7863 32.4421 69.8444 32.6743 69.8444C34.9386 69.8444 37.319 67.9865 38.5382 65.1416C38.6544 64.7933 38.7705 64.4449 38.8866 64.0966C40.0478 64.3288 41.1509 64.9675 41.9637 65.8964L42.4862 66.477L43.0087 65.8964C43.8216 64.9675 44.9247 64.3288 46.0859 64.0966C46.202 64.4449 46.3181 64.7933 46.4342 65.1416C47.5954 67.9865 50.0338 69.8444 52.2981 69.8444C52.4723 69.8444 52.6465 69.8444 52.8787 69.7863C52.8206 72.2828 51.0789 74.431 48.6404 75.0697L48.0598 75.2438L48.1179 75.8825C48.1179 76.1147 48.176 76.3469 48.176 76.5211C48.0598 79.6563 45.5053 82.2109 42.4282 82.2109ZM46.9567 81.9206C48.4662 80.6433 49.4532 78.7273 49.4532 76.5792C49.4532 76.5211 49.4532 76.405 49.4532 76.3469C52.0078 75.4761 53.8076 73.2698 54.156 70.5991C56.2461 72.2248 59.091 72.5151 61.5294 71.3539C61.5875 71.412 61.6455 71.47 61.7036 71.5281C63.097 72.9215 64.8968 73.5601 66.6966 73.5601C66.8708 73.5601 67.045 73.5601 67.2191 73.5601C61.4714 78.0887 54.5624 81.1077 46.9567 81.9206ZM70.9349 70.1927C70.7027 70.425 70.4704 70.6572 70.2382 70.8894C68.032 72.7473 64.7226 72.6312 62.6325 70.5411C62.5164 70.425 62.3422 70.2508 62.1681 70.0186L61.7616 69.496L61.2391 69.8444C59.091 71.1217 56.3622 70.8314 54.5043 69.1477C56.4203 67.6962 57.0008 64.4449 55.7236 61.3098C55.6074 60.9614 55.4333 60.6711 55.2591 60.3228C56.2461 59.6842 57.4653 59.3358 58.6845 59.3939L59.4974 59.4519L59.4393 58.6391C59.3812 57.4199 59.6715 56.2006 60.3102 55.2136C60.6005 55.3878 60.9488 55.562 61.2972 55.6781C62.4003 56.1426 63.5615 56.3748 64.6646 56.3748C65.1871 56.3748 65.7677 56.3168 66.2902 56.2006C67.5094 55.9103 68.4964 55.3298 69.1351 54.4589C70.8768 56.2587 71.1671 59.0455 69.8318 61.1937L69.4834 61.7162L69.9479 62.1226C70.1221 62.2968 70.2962 62.4129 70.4704 62.5871C72.6766 64.6772 72.7928 67.9865 70.9349 70.1927ZM73.6056 67.1156C73.7798 65.1416 73.0831 63.1096 71.5735 61.6001C71.5155 61.542 71.4574 61.484 71.3994 61.4259C72.5605 59.0455 72.2702 56.1426 70.6446 54.0525C73.2572 53.7041 75.5215 51.9043 76.3924 49.3497C76.4504 49.3497 76.5666 49.3497 76.6246 49.3497C78.7728 49.3497 80.6887 48.3627 81.966 46.8532C81.1532 54.4589 78.1341 61.4259 73.6056 67.1156ZM76.6827 47.9563C76.5085 47.9563 76.2763 47.9563 75.986 47.8983L75.3473 47.8402L75.1732 48.4208C74.5345 50.8593 72.3864 52.601 69.8898 52.6591C70.064 51.614 69.7737 50.4528 69.077 49.4078C68.2642 48.0724 66.8708 46.9693 65.1871 46.2726C64.8387 46.1565 64.4904 46.0404 64.2001 45.9243C64.4323 44.7631 65.071 43.66 65.9999 42.8472L66.5805 42.3247L65.9999 41.8021C65.071 40.9893 64.4323 39.9443 64.2001 38.725C64.5485 38.6089 64.8968 38.4928 65.1871 38.3767C66.8708 37.68 68.2061 36.5769 69.077 35.2415C69.7737 34.1384 70.006 33.0353 69.8898 31.9902C72.3864 32.0483 74.5345 33.7901 75.1732 36.2285L75.3473 36.8091L75.986 36.751C76.2182 36.751 76.4504 36.693 76.6827 36.693C79.7598 36.693 82.2563 39.1895 82.3144 42.2666V42.3247C82.2563 45.4598 79.7598 47.9563 76.6827 47.9563Z" fill="white" />
    <path d="M73.6055 67.1158C73.7797 65.1418 73.083 63.1098 71.5735 61.6003C71.5154 61.5422 71.4573 61.4841 71.3993 61.4261C72.5605 59.0457 72.2702 56.1428 70.6445 54.0526C73.2572 53.7043 75.5214 51.9045 76.3923 49.3499C76.4504 49.3499 76.5665 49.3499 76.6246 49.3499C78.7727 49.3499 80.6887 48.3629 81.9659 46.8534C81.1531 54.4591 78.1341 61.4261 73.6055 67.1158Z" fill="#87E1D1" />
    <path d="M35.4031 8.12825C35.4031 8.18631 35.4031 8.30242 35.4031 8.36048C32.8485 9.23136 31.0487 11.4376 30.7004 14.1083C28.6103 12.4826 25.7654 12.1923 23.3269 13.3535C23.2689 13.2955 23.2108 13.2374 23.1528 13.1793C21.6432 11.6698 19.6112 10.9731 17.6372 11.1473C23.3269 6.61873 30.2359 3.65774 37.8416 2.78687C36.332 4.06415 35.4031 5.98008 35.4031 8.12825Z" fill="#87E1D1" />
    <path d="M67.1611 11.1473C65.1871 10.9731 63.1551 11.6698 61.6455 13.1793C61.5875 13.2374 61.5294 13.2955 61.4714 13.3535C59.091 12.1923 56.188 12.4826 54.0979 14.1083C53.7496 11.4956 51.9498 9.23136 49.3952 8.36048C49.3952 8.30242 49.3952 8.18631 49.3952 8.12825C49.3952 5.98008 48.4082 4.06415 46.8987 2.78687C54.5624 3.59968 61.4714 6.61873 67.1611 11.1473Z" fill="#87E1D1" />
    <path d="M14.1537 30.655C11.5411 31.0034 9.27677 32.8032 8.40589 35.3577H8.17366C6.02549 35.3577 4.10956 36.3447 2.83228 37.8543C3.70315 30.2486 6.7222 23.3396 11.1927 17.6499C11.1927 17.8241 11.1927 17.9983 11.1927 18.1724C11.1927 20.0303 11.9475 21.8301 13.2247 23.1655C13.2828 23.2235 13.3409 23.2816 13.3989 23.3396C12.2378 25.662 12.528 28.5068 14.1537 30.655Z" fill="#87E1D1" />
    <path d="M13.3989 61.4259C13.3409 61.4839 13.2828 61.542 13.2247 61.6001C11.8894 62.9354 11.1927 64.6772 11.1927 66.5931C11.1927 66.7673 11.1927 66.9414 11.1927 67.1156C6.66414 61.4259 3.70315 54.4589 2.83228 46.9113C4.10956 48.4208 6.02549 49.4078 8.17366 49.4078C8.23172 49.4078 8.34783 49.4078 8.40589 49.4078C9.27677 51.9623 11.483 53.7622 14.1537 54.1105C12.528 56.1426 12.2378 58.9874 13.3989 61.4259Z" fill="#87E1D1" />
    <path d="M37.8997 81.9207C30.294 81.0498 23.385 78.0307 17.6953 73.5602C17.8695 73.5602 18.0437 73.5602 18.2178 73.5602C20.0177 73.5602 21.8175 72.8635 23.2109 71.5282C23.2689 71.4701 23.327 71.4121 23.385 71.354C25.7654 72.5152 28.6684 72.2249 30.7585 70.5992C31.1068 73.2119 32.9066 75.4762 35.4612 76.347C35.4612 76.4051 35.4612 76.5212 35.4612 76.5793C35.4032 78.7274 36.3321 80.6434 37.8997 81.9207Z" fill="#87E1D1" />
    <path d="M67.1612 73.5602C61.4714 78.0888 54.5625 81.1078 46.9568 81.9207C48.4663 80.6434 49.4533 78.7274 49.4533 76.5793C49.4533 76.5212 49.4533 76.4051 49.4533 76.347C52.0079 75.4762 53.8077 73.2699 54.156 70.5992C56.2461 72.2249 59.091 72.5152 61.5295 71.354C61.5875 71.4121 61.6456 71.4701 61.7037 71.5282C63.0971 72.9216 64.8969 73.5602 66.6967 73.5602C66.8128 73.5602 66.987 73.5602 67.1612 73.5602Z" fill="#87E1D1" />
    <path d="M82.024 37.7962C80.7468 36.2867 78.8308 35.2997 76.6827 35.2997H76.4504C75.5796 32.7451 73.3733 30.9453 70.7026 30.597C72.3283 28.5069 72.6186 25.662 71.4574 23.2235C71.5155 23.1655 71.5735 23.1074 71.6316 23.0494C73.1411 21.5399 73.8378 19.5078 73.6636 17.5338C78.1341 23.2816 81.1532 30.1906 82.024 37.7962Z" fill="#87E1D1" />
    <path d="M51.0207 41.8603C49.9176 41.5119 49.1048 40.6991 48.6404 39.7121C48.2339 38.7251 48.292 37.5639 48.8145 36.577C49.1048 35.9964 49.1048 35.7061 49.1048 35.59C48.9887 35.59 48.6984 35.59 48.1759 35.8802C47.1308 36.4028 46.0277 36.4608 44.9827 36.0544C43.9957 35.648 43.2409 34.8352 42.8345 33.7321C42.6603 33.1515 42.4281 32.9193 42.37 32.8612C42.312 32.9193 42.0797 33.1515 41.9056 33.7321C41.5572 34.8352 40.8025 35.648 39.7574 36.0544C38.7704 36.4608 37.6092 36.4028 36.6222 35.8802C36.0417 35.59 35.7514 35.59 35.6352 35.59C35.6352 35.7061 35.6352 35.9964 35.9255 36.5189C36.4481 37.5639 36.5061 38.6671 36.0997 39.7121C35.6933 40.6991 34.8805 41.4539 33.7774 41.8603C33.1968 42.0345 32.9646 42.2667 32.9065 42.3247C32.9646 42.3828 33.1968 42.615 33.7774 42.7892C34.8805 43.1376 35.6933 43.8923 36.1578 44.9374C36.5642 45.9244 36.5061 47.0855 35.9836 48.0725C35.6933 48.6531 35.6933 48.9434 35.6933 49.0595C35.8094 49.0595 36.0997 49.0595 36.6222 48.7692C37.2028 48.4789 37.7834 48.3048 38.4221 48.3048C38.8865 48.3048 39.351 48.4209 39.8155 48.5951C40.8024 49.0015 41.5572 49.8143 41.9636 50.9174C42.1378 51.498 42.37 51.7302 42.4281 51.7883C42.4861 51.7302 42.7184 51.498 42.8926 50.9174C43.2409 49.8143 43.9957 49.0015 45.0407 48.537C46.0277 48.1306 47.1889 48.1887 48.1759 48.6531C48.7565 48.9434 49.0468 48.9434 49.1629 48.9434C49.1629 48.8273 49.1629 48.537 48.8726 48.0145C48.3501 46.9694 48.292 45.8663 48.6984 44.8213C49.1048 43.8343 49.9176 43.0795 51.0207 42.6731C51.6013 42.4989 51.8336 42.2667 51.8916 42.2086C51.8336 42.2667 51.6013 42.0925 51.0207 41.8603ZM37.2028 40.1766C37.3189 39.9443 38.1318 39.8282 38.6543 40.0024C39.1768 40.2346 41.2669 41.57 41.1508 41.8022C41.0347 42.0345 38.6543 41.5119 38.1318 41.2797C37.5512 41.1055 37.0867 40.4088 37.2028 40.1766ZM38.6543 44.6471C38.1318 44.8793 37.3189 44.7632 37.2028 44.4729C37.0867 44.2407 37.5512 43.544 38.1318 43.3117C38.6543 43.0795 41.0927 42.557 41.1508 42.7892C41.2669 43.1376 39.1768 44.4149 38.6543 44.6471ZM41.383 46.6791C41.1508 47.2017 40.5122 47.7242 40.2219 47.6081C39.9896 47.492 39.8735 46.6791 40.0477 46.1566C40.2799 45.6341 41.6153 43.544 41.8475 43.6601C42.1378 43.7181 41.6153 46.0985 41.383 46.6791ZM41.9056 41.1055C41.6733 41.2216 40.338 39.1315 40.1057 38.609C39.8735 38.0865 39.9896 37.2737 40.2799 37.1575C40.5122 37.0414 41.2089 37.5059 41.4411 38.0865C41.6153 38.5509 42.1378 40.9894 41.9056 41.1055ZM43.4731 38.0284C43.7054 37.5059 44.344 36.9834 44.6343 37.0995C44.8665 37.2156 45.0407 38.0284 44.8085 38.5509C44.5763 39.0735 43.2409 41.1636 43.0087 41.0475C42.7184 40.9894 43.2409 38.5509 43.4731 38.0284ZM44.5763 47.55C44.344 47.6661 43.6473 47.2017 43.4151 46.6211C43.1829 46.0985 42.6603 43.6601 42.8926 43.602C43.1248 43.4859 44.4601 45.576 44.6924 46.0985C44.9827 46.6791 44.8085 47.492 44.5763 47.55ZM47.6534 44.531C47.5372 44.7632 46.7244 44.9374 46.2019 44.7051C45.6794 44.4729 43.5893 43.1376 43.7054 42.9053C43.8215 42.6731 46.2019 43.1956 46.7244 43.4279C47.2469 43.602 47.7695 44.2407 47.6534 44.531ZM46.7244 41.3377C46.2019 41.57 43.7634 42.0925 43.7054 41.8603C43.5893 41.628 45.6794 40.2927 46.2019 40.0605C46.7244 39.8282 47.5372 39.9443 47.6534 40.2346C47.7695 40.4088 47.2469 41.1055 46.7244 41.3377Z" fill="#4C2F48" />
    <path d="M37.2029 50.0465C37.1448 50.1626 37.0868 50.2788 37.0287 50.3949C36.0998 52.3108 35.0547 53.9364 34.5322 54.5751C34.5322 54.459 34.4741 54.3428 34.4161 54.2267C34.1838 53.472 33.8936 52.3689 33.0807 51.6141C32.2679 50.8013 31.2229 50.511 30.4681 50.2787C30.352 50.2787 30.2359 50.2207 30.1198 50.1626C30.7584 49.6401 32.384 48.5951 34.3 47.6661C34.4161 47.6081 34.5322 47.55 34.6483 47.4919C33.9516 48.8853 34.2419 49.6401 34.6483 50.0465C35.0547 50.4529 35.8095 50.7432 37.2029 50.0465Z" fill="#CDA787" />
    <path d="M33.2549 44.1245C33.1388 44.1826 33.0227 44.1826 32.9066 44.2406C30.8745 44.9373 29.0167 45.4018 28.2039 45.4599C28.2619 45.3438 28.32 45.2276 28.378 45.1696C28.7844 44.4729 29.307 43.4859 29.307 42.3828C29.307 41.2797 28.7844 40.2927 28.378 39.596C28.32 39.4798 28.2619 39.4218 28.2039 39.3057C29.0167 39.3637 30.9326 39.8282 32.9066 40.5249C33.0227 40.583 33.1388 40.583 33.2549 40.641C31.8035 41.1635 31.4551 41.9183 31.4551 42.4408C31.4551 42.8472 31.8035 43.602 33.2549 44.1245Z" fill="#CDA787" />
    <path d="M34.7064 34.6029C34.3581 34.9513 34.0678 35.706 34.7064 37.1575C34.5903 37.0994 34.4742 37.0414 34.3581 36.9833C32.4421 36.0544 30.8165 35.0093 30.1779 34.4868C30.294 34.4287 30.4101 34.4287 30.5262 34.3707C31.281 34.1384 32.3841 33.8481 33.1388 33.0353C33.9517 32.2225 34.242 31.1775 34.4742 30.4227C34.5322 30.3066 34.5322 30.1905 34.5903 30.0743C35.1128 30.713 36.1579 32.3386 37.0868 34.2546C37.1449 34.3707 37.2029 34.4868 37.261 34.6029C35.8095 33.9643 35.0548 34.2546 34.7064 34.6029Z" fill="#CDA787" />
    <path d="M45.5053 28.1584C45.4472 28.9713 44.9828 30.8872 44.2861 32.8612C44.228 32.9773 44.228 33.0934 44.17 33.2095C43.6474 31.7 42.8927 31.4097 42.3701 31.4097C41.8476 31.4097 41.0929 31.7 40.5703 33.2095C40.5123 33.0934 40.5123 32.9773 40.4542 32.8612C39.7575 30.8291 39.293 28.9713 39.235 28.1584C39.3511 28.2165 39.4672 28.2746 39.5253 28.3326C40.222 28.739 41.209 29.2616 42.3121 29.2616C43.4152 29.2616 44.4022 28.739 45.0989 28.3326C45.3311 28.2746 45.3892 28.2165 45.5053 28.1584Z" fill="#CDA787" />
    <path d="M54.6785 34.4868C54.0398 35.0093 52.4142 36.0544 50.4983 36.9833C50.3821 37.0414 50.266 37.0994 50.1499 37.1575C50.8466 35.7641 50.5563 35.0093 50.1499 34.6029C49.8016 34.2546 49.0468 33.9643 47.5953 34.6029C47.6534 34.4868 47.7115 34.3707 47.7695 34.2546C48.6985 32.3386 49.6854 30.713 50.266 30.0743C50.3241 30.1905 50.3241 30.3066 50.3821 30.4227C50.6144 31.1775 50.9047 32.2806 51.7175 33.0353C52.5303 33.8481 53.5754 34.1384 54.3301 34.3707C54.4462 34.4287 54.5624 34.4868 54.6785 34.4868Z" fill="#CDA787" />
    <path d="M56.4784 45.1116C56.5364 45.2277 56.5945 45.3438 56.6525 45.4019C55.8397 45.3438 53.9238 44.8794 51.9498 44.1827C51.8337 44.1246 51.7176 44.1246 51.6014 44.0666C53.111 43.544 53.4013 42.7893 53.4013 42.2668C53.4013 41.7442 53.111 41.0475 51.6014 40.4669C51.7176 40.4089 51.8337 40.4089 51.9498 40.3508C53.9818 39.6541 55.8397 39.1897 56.6525 39.1316C56.5945 39.2477 56.5364 39.3638 56.4784 39.4219C56.0719 40.1186 55.5494 41.1056 55.5494 42.2087C55.4914 43.486 56.0719 44.4149 56.4784 45.1116Z" fill="#CDA787" />
    <path d="M54.6785 50.2206C54.5624 50.2206 54.4462 50.2787 54.3301 50.3367C53.5754 50.569 52.4723 50.8593 51.7175 51.6721C50.9047 52.4849 50.6144 53.53 50.3821 54.2847C50.3821 54.4008 50.3241 54.5169 50.266 54.6331C49.7435 53.9944 48.6985 52.3688 47.7695 50.4529C47.7115 50.3367 47.6534 50.2206 47.5953 50.1045C48.9887 50.8012 49.7435 50.5109 50.1499 50.1045C50.4983 49.7562 50.7886 49.0014 50.1499 47.5499C50.266 47.608 50.3821 47.666 50.4983 47.7241C52.3561 48.653 54.0398 49.64 54.6785 50.2206Z" fill="#CDA787" />
    <path d="M45.5053 56.549C45.3892 56.491 45.273 56.4329 45.215 56.3748C44.5183 55.9684 43.5313 55.4459 42.4282 55.4459C41.3251 55.4459 40.3381 55.9684 39.6414 56.3748C39.5252 56.4329 39.4091 56.491 39.3511 56.549C39.4091 55.7362 39.8736 53.8203 40.5703 51.8463C40.6284 51.7302 40.6284 51.614 40.6864 51.4979C41.2089 53.0074 41.9056 53.2977 42.4862 53.2977C43.0668 53.2977 43.7635 53.0074 44.286 51.4979C44.3441 51.614 44.3441 51.7302 44.4022 51.8463C45.0408 53.8203 45.4472 55.7362 45.5053 56.549Z" fill="#CDA787" />
    <path d="M34.9968 38.7832C34.9968 38.8993 34.9387 39.0735 34.8807 39.1896C34.8226 39.3057 34.7645 39.4218 34.7065 39.5379C32.0939 38.4929 28.9587 37.7962 28.0878 37.7962C27.9717 37.7962 27.6814 37.7962 27.3911 37.9123C27.6814 36.8092 28.1459 35.8222 28.6684 34.8352C28.7845 35.0674 29.0168 35.2997 29.0748 35.3577C29.6554 35.9383 32.3841 37.7381 34.9968 38.7832Z" fill="#4C2F48" />
    <path d="M37.8996 56.7232C37.8996 56.8393 37.8996 57.1296 38.0157 57.4199C36.9126 57.0715 35.9256 56.6651 34.9386 56.1426C35.1708 56.0265 35.4031 55.7942 35.4611 55.7362C36.0417 55.1556 37.7835 52.4268 38.8866 49.8142C39.0027 49.8142 39.1769 49.8723 39.293 49.9303C39.4091 49.9884 39.5252 50.0464 39.6413 50.1045C38.5963 52.7171 37.8996 55.9103 37.8996 56.7232Z" fill="#4C2F48" />
    <path d="M34.9968 45.8663C32.4422 46.9694 29.6554 48.7112 29.0748 49.2918C28.9587 49.4079 28.7845 49.5821 28.6684 49.8143C28.1459 48.8273 27.6814 47.7823 27.3911 46.7372C27.6814 46.8533 27.9136 46.8533 28.0878 46.8533C28.9006 46.8533 32.0939 46.1566 34.7065 45.1116C34.7645 45.2277 34.8807 45.3438 34.8807 45.4599C34.8807 45.6341 34.9387 45.7502 34.9968 45.8663Z" fill="#4C2F48" />
    <path d="M39.6413 34.5449C39.5252 34.6029 39.4091 34.719 39.293 34.719C39.1769 34.7771 39.0027 34.8352 38.8866 34.8352C38.7705 34.5449 38.6543 34.2546 38.4802 33.9062C37.4932 31.8161 36.2159 29.6679 35.4611 28.9132C35.345 28.7971 35.1708 28.6229 34.9386 28.5068C35.9256 27.9843 36.9706 27.5198 38.0157 27.2295C37.8996 27.5198 37.8996 27.752 37.8996 27.9262C37.8996 28.7971 38.5963 31.9903 39.6413 34.5449Z" fill="#4C2F48" />
    <path d="M49.9178 28.5648C49.6856 28.6809 49.4534 28.9131 49.3953 28.9712C48.8147 29.5518 47.073 32.2805 45.9699 34.8931C45.8537 34.8931 45.6796 34.8351 45.5634 34.777C45.4473 34.719 45.3312 34.6609 45.2151 34.6028C46.2601 31.9902 46.9568 28.8551 46.9568 27.9842C46.9568 27.8681 46.9568 27.5778 46.8407 27.2875C47.9438 27.6358 48.9308 28.0422 49.9178 28.5648Z" fill="#4C2F48" />
    <path d="M57.4653 37.9123C57.175 37.7962 56.9428 37.7962 56.7686 37.7962C55.9558 37.7962 52.7625 38.4929 50.1499 39.5379C50.0919 39.4218 49.9757 39.3057 49.9757 39.1896C49.9177 39.0735 49.8596 38.8993 49.8596 38.7832C52.4142 37.6801 55.201 35.9383 55.7816 35.3577C55.8977 35.2416 56.0719 35.0674 56.188 34.8352C56.7105 35.8222 57.175 36.8673 57.4653 37.9123Z" fill="#4C2F48" />
    <path d="M57.4653 46.7952C57.1169 47.8983 56.7105 48.8853 56.188 49.8723C56.0719 49.6401 55.8396 49.4078 55.7816 49.3498C55.201 48.7692 52.4723 47.0274 49.8596 45.9243C49.8596 45.8082 49.9177 45.634 49.9757 45.5179C50.0338 45.4018 50.0919 45.2857 50.1499 45.1696C52.7045 46.2146 55.8977 46.9113 56.7686 46.9113C56.9428 46.8533 57.175 46.8532 57.4653 46.7952Z" fill="#4C2F48" />
    <path d="M46.8407 57.4199C46.9568 57.1296 46.9568 56.8973 46.9568 56.7232C46.9568 55.9103 46.2601 52.7171 45.2151 50.1045C45.3312 50.0464 45.4473 49.9303 45.5634 49.9303C45.6796 49.8723 45.8537 49.8142 45.9699 49.8142C47.073 52.3688 48.8147 55.1556 49.3953 55.7362C49.5114 55.8523 49.6856 56.0265 49.9178 56.1426C48.9308 56.6651 47.9438 57.0715 46.8407 57.4199Z" fill="#4C2F48" />
    <path d="M33.2549 55.0395C31.9196 54.0525 30.7004 52.8913 29.7134 51.4979C29.8295 51.556 30.0037 51.556 30.1198 51.614C30.7584 51.7882 31.6293 52.0205 32.1518 52.543C32.6744 53.0655 32.9066 53.8783 33.0808 54.575C33.1388 54.7492 33.1969 54.9234 33.2549 55.0395Z" fill="#4C2F48" />
    <path d="M27.9136 42.3246C27.9136 43.0794 27.5072 43.8342 27.1589 44.4147C27.1008 44.5309 26.9847 44.705 26.9266 44.8212C26.8105 44.0083 26.7524 43.1955 26.7524 42.3246C26.7524 41.4538 26.8105 40.6409 26.9266 39.8281C26.9847 39.9442 27.0427 40.1184 27.1589 40.2345C27.5072 40.8732 27.9136 41.5699 27.9136 42.3246Z" fill="#4C2F48" />
    <path d="M33.255 29.668C33.1969 29.7841 33.1969 29.9583 33.1389 30.0744C32.9647 30.713 32.7325 31.5839 32.2099 32.1064C31.6874 32.629 30.8746 32.8612 30.1779 33.0354C30.0037 33.0934 29.8876 33.0934 29.7715 33.1515C30.7004 31.8161 31.8616 30.5969 33.255 29.668Z" fill="#4C2F48" />
    <path d="M44.9247 26.8812C44.8086 26.9393 44.6344 26.9974 44.5183 27.1135C43.9377 27.4618 43.1829 27.8682 42.4282 27.8682C41.6734 27.8682 40.9186 27.4618 40.338 27.1135C40.2219 27.0554 40.0478 26.9393 39.9316 26.8812C40.7445 26.7651 41.5573 26.7071 42.4282 26.7071C43.299 26.649 44.1119 26.7071 44.9247 26.8812Z" fill="#4C2F48" />
    <path d="M55.1429 33.1515C55.0268 33.0934 54.8526 33.0934 54.7365 33.0354C54.0979 32.8612 53.227 32.629 52.7045 32.1064C52.182 31.5839 51.9497 30.7711 51.7755 30.0744C51.7175 29.9002 51.7175 29.7841 51.6594 29.668C52.9367 30.5969 54.1559 31.8161 55.1429 33.1515Z" fill="#4C2F48" />
    <path d="M58.104 42.3246C58.104 43.1955 58.046 44.0083 57.9299 44.8212C57.8718 44.705 57.8138 44.5309 57.6976 44.4147C57.3493 43.8342 56.9429 43.0794 56.9429 42.3246C56.9429 41.5699 57.3493 40.8151 57.6976 40.2345C57.7557 40.1184 57.8718 39.9442 57.9299 39.8281C58.046 40.6409 58.104 41.5118 58.104 42.3246Z" fill="#4C2F48" />
    <path d="M55.143 51.556C54.156 52.8914 52.9948 54.1106 51.6014 55.0976C51.6595 54.9815 51.6595 54.8073 51.7176 54.6912C51.8917 54.0525 52.124 53.1817 52.6465 52.6591C53.169 52.1366 53.9818 51.9044 54.6785 51.7302C54.8527 51.6141 54.9688 51.556 55.143 51.556Z" fill="#4C2F48" />
    <path d="M44.9247 57.8263C44.1119 57.9425 43.299 58.0005 42.4282 58.0005C41.5573 58.0005 40.7445 57.9425 39.9316 57.8263C40.0478 57.7683 40.1639 57.7102 40.338 57.5941C40.9186 57.2458 41.6734 56.8394 42.4282 56.8394C43.1829 56.8394 43.9377 57.2458 44.5183 57.5941C44.6344 57.7102 44.8086 57.7683 44.9247 57.8263Z" fill="#4C2F48" />
    <path d="M45.7376 62.8194C44.5184 63.0516 43.3572 63.6322 42.4282 64.5031C41.4993 63.6322 40.3381 63.0516 39.1189 62.8194C39.235 61.9485 39.177 61.0777 39.0028 60.2648C38.8867 59.8004 38.7125 59.394 38.5383 58.9875C39.8156 59.2778 41.0929 59.452 42.4282 59.452C43.7636 59.452 45.0989 59.2778 46.3182 58.9875C45.7956 60.0907 45.5634 61.426 45.7376 62.8194Z" fill="#00A19B" />
    <path d="M33.429 56.8973C33.0226 57.0134 32.6162 57.2456 32.2098 57.4779C31.5131 57.8843 30.9325 58.4649 30.41 59.1035C30.41 59.1616 30.3519 59.1616 30.3519 59.2196C29.3069 58.5229 28.0876 58.1165 26.8103 58.0584C26.7523 56.7812 26.3459 55.5619 25.6492 54.5169C26.7523 53.646 27.5651 52.5429 27.9715 51.3817C29.3069 53.5879 31.1647 55.5039 33.429 56.8973Z" fill="#00A19B" />
    <path d="M25.3008 42.3247C25.3008 43.6601 25.475 44.9954 25.7653 46.2147C25.3589 46.0405 24.9525 45.8663 24.488 45.7502C23.9655 45.6341 23.443 45.576 22.8624 45.576C22.5721 45.576 22.2237 45.576 21.9335 45.6341C21.7012 44.4148 21.1206 43.2537 20.2498 42.3247C21.1206 41.3958 21.7012 40.2346 21.9335 39.0154C22.2237 39.0735 22.5721 39.0735 22.8624 39.0735C23.443 39.0735 23.9655 39.0154 24.488 38.8993C24.9525 38.7832 25.3589 38.609 25.7653 38.4348C25.475 39.7121 25.3008 40.9894 25.3008 42.3247Z" fill="#00A19B" />
    <path d="M33.4291 27.8101C31.1648 29.2035 29.3069 31.1194 27.9135 33.3256C27.7974 32.9192 27.5652 32.5128 27.3329 32.1064C26.8685 31.4097 26.2879 30.771 25.5912 30.2485C26.2879 29.2035 26.6943 27.9842 26.7524 26.7069C28.0296 26.6489 29.2489 26.2425 30.2939 25.5458C31.1648 26.6489 32.2679 27.4617 33.4291 27.8101Z" fill="#00A19B" />
    <path d="M46.3182 25.7199C45.0409 25.4296 43.7636 25.2554 42.4282 25.2554C41.0929 25.2554 39.7576 25.4296 38.5383 25.7199C38.7125 25.3135 38.8867 24.9071 39.0028 24.4426C39.177 23.6298 39.235 22.7589 39.1189 21.888C40.3381 21.6558 41.4993 21.0752 42.4282 20.2043C43.3572 21.0752 44.5184 21.6558 45.7376 21.888C45.5634 23.2814 45.7956 24.6168 46.3182 25.7199Z" fill="#00A19B" />
    <path d="M59.2651 30.1905C58.5684 30.713 57.9879 31.3517 57.5234 32.0484C57.2912 32.4548 57.0589 32.8612 56.9428 33.2676C55.5494 31.0614 53.6335 29.1454 51.4272 27.752C52.5884 27.4037 53.6915 26.5909 54.5624 25.4297C55.6075 26.1264 56.8267 26.5328 58.104 26.5909C58.162 27.9262 58.5684 29.1454 59.2651 30.1905Z" fill="#00A19B" />
    <path d="M64.6065 42.3247C63.7356 43.2537 63.155 44.4148 62.9228 45.6341C62.0519 45.518 61.181 45.576 60.3682 45.7502C59.9038 45.8663 59.4974 46.0405 59.0909 46.2147C59.3812 44.9374 59.5554 43.6601 59.5554 42.3247C59.5554 40.9894 59.3812 39.654 59.0909 38.4348C59.4974 38.609 59.9038 38.7832 60.3682 38.8993C60.8908 39.0154 61.4133 39.0735 61.9939 39.0735C62.2842 39.0735 62.6325 39.0735 62.9228 39.0154C63.155 40.2927 63.7356 41.3958 64.6065 42.3247Z" fill="#00A19B" />
    <path d="M59.2652 54.459C58.5685 55.5041 58.1621 56.7233 58.104 58.0006C56.8267 58.0586 55.6075 58.465 54.5625 59.1618C54.0399 58.465 53.4013 57.8845 52.7046 57.42C52.2982 57.1878 51.8918 56.9555 51.4854 56.8394C53.6916 55.446 55.6075 53.5301 57.0009 51.3239C57.3493 52.485 58.104 53.5881 59.2652 54.459Z" fill="#00A19B" />
    <path d="M37.6094 24.0944C37.3191 25.2555 36.7386 26.1264 35.8677 26.4748C34.4743 27.0554 32.6745 26.3006 31.3972 24.675C31.1069 24.3266 30.8166 23.8621 30.5844 23.4557C30.4682 23.2815 30.4102 23.1074 30.2941 22.8751C29.3071 20.4947 29.5974 18.0563 30.8746 16.8951C31.1069 16.6629 31.3391 16.5468 31.6294 16.4306C31.9197 16.3145 32.21 16.2565 32.5003 16.2565C32.5583 16.2565 32.5583 16.2565 32.6164 16.2565C34.3001 16.2565 36.158 17.766 37.145 20.0883C37.203 20.2625 37.3191 20.4947 37.3772 20.6689C37.5514 21.1334 37.6675 21.5979 37.7256 22.1204C37.7836 22.759 37.7836 23.4557 37.6094 24.0944Z" fill="#9E1F63" />
    <path d="M68.5545 32.4548C68.5545 33.0934 68.3803 33.7901 67.9159 34.4868C67.2192 35.5899 66.116 36.5189 64.7226 37.0414C64.5485 37.0995 64.3162 37.2156 64.1421 37.2736C63.6776 37.4478 63.2131 37.5639 62.6906 37.622C61.9939 37.7381 61.2391 37.68 60.6005 37.5059C59.4393 37.2156 58.5684 36.635 58.2201 35.7641C57.8717 34.8932 57.9879 33.8482 58.6265 32.8612C58.9748 32.3387 59.4393 31.8161 59.9618 31.3517L60.0199 31.2936C60.3683 31.0033 60.8327 30.713 61.2391 30.4808C61.4133 30.3647 61.5875 30.3066 61.8197 30.2486C62.7487 29.8421 63.7356 29.668 64.6065 29.668C65.071 29.668 65.4774 29.726 65.8838 29.8421C66.6966 30.0163 67.3353 30.3647 67.7417 30.8291C67.9739 31.0614 68.09 31.2936 68.2062 31.5839C68.4964 31.8742 68.5545 32.1645 68.5545 32.4548Z" fill="#9E1F63" />
    <path d="M53.9239 67.8125C53.6916 67.9867 53.4594 68.1608 53.1691 68.277C52.8788 68.3931 52.5885 68.4511 52.2982 68.4511C50.5565 68.5092 48.6405 66.9997 47.6535 64.6193C47.5955 64.4451 47.4794 64.2129 47.4213 64.0387C47.2471 63.5742 47.131 63.0517 47.073 62.5872C46.8407 60.5552 47.4794 58.7554 48.9308 58.1748C49.2211 58.0587 49.5695 58.0006 49.9178 58.0006C50.5565 58.0006 51.1951 58.2328 51.8338 58.6393C52.4143 58.9876 52.9369 59.4521 53.3433 60.0327C53.6336 60.381 53.9239 60.8455 54.098 61.2519C54.2142 61.4261 54.2722 61.6002 54.3303 61.8325C55.4914 64.2129 55.2011 66.6513 53.9239 67.8125Z" fill="#9E1F63" />
    <path d="M37.7256 62.6452C37.6675 63.1096 37.5514 63.5741 37.3772 64.0966C37.3191 64.2708 37.2611 64.503 37.145 64.6772C36.158 67.0576 34.242 68.5671 32.5003 68.5091C32.21 68.5091 31.9197 68.451 31.6294 68.3349C31.3391 68.2188 31.1069 68.0446 30.8746 67.8704C29.5974 66.7093 29.3071 64.2708 30.2941 61.8904C30.3521 61.7162 30.4682 61.484 30.5844 61.3098C30.8166 60.8453 31.0488 60.4389 31.3391 60.0906C31.8036 59.51 32.3261 59.0455 32.8486 58.6972C33.8356 58.0585 34.8807 57.8844 35.7516 58.2908C36.6224 58.6391 37.2611 59.51 37.4933 60.6712C37.7836 61.2518 37.7836 61.9485 37.7256 62.6452Z" fill="#9E1F63" />
    <path d="M24.7203 53.3559C24.3719 53.6462 23.9075 53.9365 23.5011 54.1687C23.3269 54.2849 23.1527 54.3429 22.9205 54.459C21.5271 55.0396 20.0756 55.2138 18.8564 54.9235C18.0436 54.7493 17.4049 54.401 16.9985 53.8784C16.7663 53.6462 16.6502 53.414 16.534 53.1237C16.4179 52.8334 16.3599 52.5431 16.3599 52.2528C16.3599 51.6142 16.534 50.9175 16.9985 50.2208C17.3469 49.6982 17.8113 49.1757 18.3339 48.7112C18.8564 48.2468 19.495 47.8984 20.1917 47.6081C20.3659 47.5501 20.5981 47.4339 20.7723 47.3759C21.2368 47.2017 21.7012 47.0856 22.2238 47.0275C22.5141 46.9695 22.7463 46.9695 23.0366 46.9695C23.5011 46.9695 23.9075 47.0275 24.3139 47.0856C25.4751 47.3759 26.3459 47.9565 26.6943 48.8274C27.1007 50.3369 26.3459 52.1367 24.7203 53.3559Z" fill="#9E1F63" />
    <path d="M26.5202 35.7641C26.1719 36.635 25.301 37.2736 24.1398 37.5059C23.5012 37.68 22.8045 37.68 22.0497 37.622C21.5852 37.5639 21.1208 37.4478 20.5982 37.2736C20.4241 37.2156 20.1918 37.1575 20.0177 37.0414C18.6242 36.4608 17.5211 35.5319 16.8244 34.4868C16.418 33.7901 16.1858 33.0934 16.1858 32.4548C16.1858 32.1645 16.2438 31.8742 16.36 31.5839C16.4761 31.2936 16.6503 31.0614 16.8244 30.8291C17.2889 30.3647 17.9275 30.0163 18.6823 29.8421C19.0887 29.726 19.5532 29.668 19.9596 29.668C20.8885 29.668 21.8175 29.8421 22.7464 30.2486C22.9206 30.3066 23.1528 30.4227 23.327 30.5388C23.7915 30.7711 24.1979 31.0033 24.5462 31.2936C25.1268 31.7581 25.5913 32.2806 25.9396 32.8031C26.7524 33.8482 26.8686 34.8932 26.5202 35.7641Z" fill="#9E1F63" />
    <path d="M54.5043 22.8171C54.4462 22.9913 54.3301 23.2235 54.2721 23.3977C54.0398 23.8622 53.8076 24.2686 53.5173 24.617C52.24 26.2426 50.4983 27.0554 49.0468 26.4168C47.5953 25.8362 46.9567 24.0364 47.1889 22.0043C47.247 21.5399 47.3631 21.0754 47.5373 20.5529C47.5953 20.3787 47.6534 20.1464 47.7695 19.9723C48.7565 17.5919 50.6724 16.0824 52.4142 16.1404C52.7045 16.1404 52.9948 16.1985 53.2851 16.3146C53.5754 16.4307 53.8076 16.6049 54.0398 16.7791C55.201 17.9983 55.4913 20.4948 54.5043 22.8171Z" fill="#9E1F63" />
    <path d="M68.5545 52.2528C68.5545 52.5431 68.4964 52.8334 68.3803 53.1237C68.2642 53.414 68.09 53.6462 67.9158 53.8784C67.4514 54.3429 66.8127 54.6912 66.058 54.9235C64.7807 55.2138 63.3292 55.0396 61.9939 54.459C61.8197 54.4009 61.5875 54.2848 61.4133 54.1687C60.9488 53.9365 60.5424 53.7042 60.1941 53.414C58.5684 52.1367 57.7556 50.3949 58.3942 48.9434C58.7426 48.0726 59.6135 47.4339 60.7746 47.2017C61.1811 47.0856 61.5875 47.0856 62.0519 47.0856C62.2842 47.0856 62.5745 47.0856 62.8648 47.1436C63.3292 47.2017 63.7937 47.3178 64.3162 47.492C64.4904 47.55 64.7226 47.6081 64.8968 47.7242C66.2902 48.3048 67.4514 49.2337 68.09 50.2788C68.3803 50.8594 68.6125 51.5561 68.5545 52.2528Z" fill="#9E1F63" />
    <path d="M70.935 70.1928C70.7027 70.4251 70.4705 70.6573 70.2383 70.8895C68.032 72.7474 64.7227 72.6313 62.6326 70.5412C62.5165 70.4251 62.3423 70.2509 62.1681 70.0187L61.7617 69.4961L61.2392 69.8445C59.091 71.1218 56.3623 70.8315 54.5044 69.1478C56.4203 67.6963 57.0009 64.445 55.7236 61.3099C55.6075 60.9615 55.4333 60.6712 55.2592 60.3229C56.2462 59.6842 57.4654 59.3359 58.6846 59.394L59.4974 59.452L59.4394 58.6392C59.3813 57.42 59.6716 56.2007 60.3102 55.2137C60.6005 55.3879 60.9489 55.5621 61.2972 55.6782C62.4004 56.1427 63.5615 56.3749 64.6646 56.3749C65.1872 56.3749 65.7677 56.3169 66.2903 56.2007C67.5095 55.9104 68.4965 55.3299 69.1351 54.459C70.8769 56.2588 71.1672 59.0456 69.8318 61.1938L69.4835 61.7163L69.948 62.1227C70.1221 62.2969 70.2963 62.413 70.4705 62.5872C72.6767 64.6773 72.7928 67.9866 70.935 70.1928Z" fill="#004987" />
    <path d="M52.7626 69.9025C52.7046 72.399 50.9628 74.5471 48.5244 75.1858L47.9438 75.36L48.0018 75.9986C48.0018 76.2308 48.0599 76.4631 48.0599 76.6372C48.0599 79.7143 45.5634 82.2109 42.4863 82.2689H42.4282C39.3511 82.2689 36.8546 79.7143 36.8546 76.6372C36.8546 76.4631 36.8546 76.2308 36.9127 75.9405L36.9707 75.3019L36.3901 75.1277C33.9517 74.4891 32.2099 72.3409 32.1519 69.8444C32.326 69.8444 32.5002 69.9025 32.7324 69.9025C34.9967 69.9025 37.3771 68.0446 38.5964 65.1997C38.7125 64.8514 38.8286 64.503 38.9447 64.1547C40.1059 64.3869 41.209 65.0255 42.0218 65.9545L42.5443 66.5351L43.0669 65.9545C43.8797 65.0255 44.9828 64.3869 46.144 64.1547C46.2601 64.503 46.3762 64.8514 46.4923 65.1997C47.6535 68.0446 50.0919 69.9025 52.3562 69.9025C52.4143 69.9025 52.5885 69.9025 52.7626 69.9025Z" fill="#004987" />
    <path d="M30.2939 69.1478C28.4941 70.8895 25.7073 71.1798 23.5591 69.8445L23.0366 69.4961L22.6302 69.9606C22.456 70.1348 22.3399 70.309 22.1657 70.4831C20.0756 72.5732 16.8243 72.6894 14.6181 70.8315C14.3859 70.5992 14.0956 70.309 13.8633 70.0767C13.0505 69.0897 12.5861 67.8124 12.5861 66.5352C12.5861 65.0256 13.1666 63.6322 14.2117 62.5872C14.3278 62.413 14.502 62.2969 14.7342 62.1227L15.2568 61.7163L14.9084 61.1938C13.6311 59.0456 13.9214 56.2588 15.6051 54.459C16.2437 55.3299 17.2307 55.9104 18.45 56.2007C18.9725 56.3169 19.495 56.3749 20.0756 56.3749C21.1787 56.3749 22.3399 56.1427 23.443 55.6782C23.7914 55.5621 24.0816 55.3879 24.43 55.2137C25.0686 56.2007 25.417 57.42 25.3589 58.6392L25.3009 59.452L26.1137 59.394C27.3329 59.3359 28.5522 59.6262 29.5391 60.3229C29.365 60.6132 29.1908 60.9615 29.0747 61.3099C27.7393 64.387 28.3199 67.6383 30.2939 69.1478Z" fill="#004987" />
    <path d="M20.5401 45.9243C20.1918 46.0404 19.8434 46.1565 19.4951 46.2726C17.8114 46.9693 16.476 48.0724 15.6052 49.4078C14.9085 50.5109 14.6762 51.614 14.7923 52.6591C12.2958 52.601 10.1477 50.8593 9.50901 48.4208L9.33484 47.8402L8.87037 47.8983C8.63814 47.8983 8.4059 47.9563 8.17367 47.9563C5.09657 47.9563 2.54199 45.4598 2.54199 42.3247C2.54199 39.2476 5.03851 36.693 8.17367 36.693C8.34784 36.693 8.58008 36.693 8.87037 36.751L9.50901 36.8091L9.68319 36.2285C10.3218 33.7901 12.47 32.0483 14.9665 31.9902C14.7923 33.0353 15.0826 34.1965 15.7793 35.2415C16.5922 36.5769 17.9856 37.68 19.6693 38.3767C20.0176 38.4928 20.366 38.6089 20.7143 38.725C20.4821 39.8862 19.8434 40.9893 18.9145 41.8021L18.3339 42.3247L18.9145 42.8472C19.6693 43.66 20.3079 44.7631 20.5401 45.9243Z" fill="#004987" />
    <path d="M29.0166 23.3976C29.1327 23.746 29.3069 24.0363 29.4811 24.3846C28.4941 25.0233 27.2749 25.3716 26.0556 25.2555L25.2428 25.1974L25.3009 26.0103C25.3589 27.2295 25.0686 28.4487 24.3719 29.4357C24.0816 29.2615 23.7333 29.0874 23.3849 28.9712C21.7012 28.2745 19.9595 28.1004 18.45 28.4487C17.2307 28.739 16.2437 29.3196 15.6051 30.1905C13.8633 28.3907 13.5731 25.6038 14.9084 23.4557L15.2568 22.9332L14.7342 22.5267C14.56 22.3526 14.3859 22.2364 14.2117 22.0623C13.1666 21.0172 12.5861 19.5658 12.5861 18.1143C12.5861 16.7789 13.0505 15.5597 13.8633 14.5147C14.0956 14.2824 14.3278 14.0502 14.56 13.7599C15.6051 12.889 16.8824 12.4246 18.1597 12.4246C19.6111 12.4246 21.0626 12.9471 22.1077 14.0502C22.2818 14.2244 22.3979 14.3405 22.5721 14.5727L22.9785 15.0953L23.5011 14.7469C25.6492 13.4696 28.436 13.7599 30.2358 15.4436C28.3199 17.0112 27.7393 20.2625 29.0166 23.3976Z" fill="#004987" />
    <path d="M52.7625 14.805C52.5884 14.805 52.4142 14.747 52.1819 14.747C49.9177 14.747 47.5373 16.6048 46.318 19.4497C46.2019 19.798 46.0858 20.1464 45.9697 20.4947C44.8085 20.2625 43.7054 19.6239 42.8926 18.6949L42.3701 18.1144L41.8475 18.6949C41.0347 19.6239 39.9897 20.2045 38.7704 20.4947C38.6543 20.1464 38.5382 19.798 38.4221 19.4497C37.1448 16.3726 34.416 14.4567 32.0356 14.805C32.0937 12.3085 33.8355 10.1603 36.2739 9.52169L36.8545 9.34751L36.7964 8.70887C36.7964 8.47664 36.7384 8.2444 36.7384 8.01217C36.7384 4.93507 39.2349 2.38049 42.312 2.38049H42.3701C45.4472 2.38049 47.9437 4.87701 47.9437 8.01217C47.9437 8.18634 47.9437 8.41858 47.8856 8.65081L47.8276 9.28946L48.4081 9.46363C50.9627 10.1603 52.7045 12.3085 52.7625 14.805Z" fill="#004987" />
    <path d="M69.9479 23.4557C71.2252 25.6039 70.9349 28.3327 69.2512 30.1905C68.6126 29.3197 67.6256 28.7391 66.4064 28.4488C65.8838 28.3327 65.3613 28.2746 64.7807 28.2746C63.6776 28.2746 62.5164 28.5068 61.4133 28.9713C61.065 29.0874 60.7747 29.2616 60.4263 29.4358C59.7877 28.4488 59.4393 27.2295 59.5555 26.0103L59.6135 25.1975L58.8007 25.2556C57.5815 25.3136 56.3622 25.0233 55.3752 24.3847C55.5494 24.0944 55.7236 23.746 55.8397 23.3977C57.117 20.3206 56.5364 17.0693 54.6205 15.5598C56.4784 13.818 59.2071 13.5277 61.3553 14.8631L61.8778 15.2114L62.2842 14.6889C62.4584 14.5147 62.5745 14.3406 62.7487 14.1664C64.8388 12.0763 68.1481 11.9602 70.3543 13.818C70.5866 14.0503 70.8188 14.2825 71.051 14.5147C72.9089 16.721 72.7928 20.0303 70.7608 22.1204C70.6446 22.2365 70.4705 22.4107 70.2382 22.5849L69.5996 22.9332L69.9479 23.4557Z" fill="#004987" />
    <path d="M82.2563 42.3247V42.3827C82.2563 45.4598 79.7018 47.9563 76.6247 47.9563C76.4505 47.9563 76.2183 47.9563 75.928 47.8983L75.2893 47.8402L75.1152 48.4208C74.4765 50.8593 72.3283 52.601 69.8318 52.6591C70.006 51.614 69.7157 50.4528 69.019 49.4078C68.2062 48.0724 66.8128 46.9693 65.1291 46.2726C64.7807 46.1565 64.4324 46.0404 64.1421 45.9243C64.3743 44.7631 65.013 43.66 65.9419 42.8472L66.5225 42.3247L65.9419 41.8021C65.013 40.9893 64.3743 39.9442 64.1421 38.725C64.4904 38.6089 64.8388 38.4928 65.1291 38.3767C66.8128 37.68 68.1481 36.5769 69.019 35.2415C69.7157 34.1384 69.9479 33.0353 69.8318 31.9902C72.3283 32.0483 74.4765 33.7901 75.1152 36.2285L75.2893 36.8091L75.928 36.751C76.1602 36.751 76.3924 36.693 76.6247 36.693C79.7598 36.751 82.2563 39.2476 82.2563 42.3247Z" fill="#004987" />
    <path d="M44.7506 38.5509C44.5183 39.0734 43.183 41.1635 42.9508 41.0474C42.7185 40.9313 43.2411 38.5509 43.4733 38.0283C43.7055 37.5058 44.3442 37.0413 44.6345 37.0994C44.8086 37.2155 44.9828 38.0283 44.7506 38.5509Z" fill="white" />
    <path d="M41.3831 46.6792C41.1508 47.2017 40.5122 47.7243 40.2219 47.6082C39.9897 47.492 39.8736 46.6792 40.0477 46.1567C40.28 45.6342 41.6153 43.5441 41.8475 43.6602C42.1378 43.7182 41.6153 46.0986 41.3831 46.6792Z" fill="white" />
    <path d="M41.9057 41.1055C41.6734 41.2217 40.3381 39.1316 40.1058 38.609C39.8736 38.0865 39.9897 37.2737 40.28 37.1576C40.5123 37.0414 41.209 37.5059 41.4412 38.0865C41.6154 38.551 42.1379 40.9894 41.9057 41.1055Z" fill="white" />
    <path d="M44.5764 47.5499C44.3441 47.666 43.6474 47.2016 43.4152 46.621C43.1829 46.0985 42.6604 43.66 42.8927 43.6019C43.1249 43.4858 44.4602 45.5759 44.6925 46.0985C44.9828 46.679 44.8086 47.4919 44.5764 47.5499Z" fill="white" />
    <path d="M41.1509 41.8022C41.0347 42.0344 38.6543 41.5119 38.1318 41.2797C37.6093 41.0474 37.0868 40.4088 37.2029 40.1185C37.319 39.8863 38.1318 39.7702 38.6543 39.9443C39.1769 40.2346 41.267 41.57 41.1509 41.8022Z" fill="white" />
    <path d="M47.6534 44.5309C47.5373 44.7631 46.7245 44.9373 46.202 44.705C45.6794 44.4728 43.5893 43.1375 43.7055 42.9052C43.8216 42.673 46.202 43.1955 46.7245 43.4278C47.247 43.6019 47.7696 44.2406 47.6534 44.5309Z" fill="white" />
    <path d="M41.1508 42.8473C41.2669 43.0795 39.1768 44.4149 38.6543 44.6471C38.1318 44.8794 37.319 44.7632 37.2028 44.4729C37.0867 44.2407 37.5512 43.544 38.1318 43.3118C38.6543 43.1376 41.0347 42.6151 41.1508 42.8473Z" fill="white" />
    <path d="M46.7245 41.3377C46.202 41.57 43.7635 42.0925 43.7055 41.8602C43.5893 41.628 45.6794 40.2927 46.202 40.0604C46.7245 39.8282 47.5373 39.9443 47.6534 40.2346C47.7696 40.4088 47.247 41.1055 46.7245 41.3377Z" fill="white" />
    
    <!-- "GENIZA LAB" -->
    <path d="M99.3256 43.7763C99.1514 43.7763 98.9772 43.8343 98.8611 43.8343C98.745 43.8343 98.5708 43.8924 98.3386 43.9504C98.1063 44.0085 97.9902 44.1246 97.8741 44.2988C97.816 44.473 97.758 44.6471 97.758 44.8213V46.1567C97.758 46.447 97.758 46.6792 97.758 46.7953C97.758 46.9695 97.758 47.1437 97.758 47.4339C97.2355 47.7823 96.3646 48.0726 95.3195 48.3629C94.2164 48.6532 93.2294 48.8274 92.3585 48.8274C91.4877 48.8274 90.7329 48.7112 89.9781 48.4209C89.2234 48.1887 88.5847 47.7823 88.0042 47.2598C87.4236 46.7372 87.0172 46.0986 86.6688 45.3438C86.3205 44.5891 86.2043 43.7182 86.2043 42.7312C86.2043 41.8023 86.3785 40.9895 86.6688 40.1766C86.9591 39.4219 87.4236 38.7252 88.0042 38.1446C88.5847 37.564 89.2234 37.1576 90.0362 36.8673C90.849 36.577 91.7199 36.4028 92.7069 36.4028C93.3455 36.4028 93.9842 36.4609 94.5648 36.6351C95.1454 36.8092 95.6098 36.9834 95.9582 37.1576L96.4807 36.6931H97.1774L97.2355 40.9895H96.4807C96.0743 39.7122 95.5518 38.7252 94.9712 38.1446C94.3906 37.5059 93.6358 37.2156 92.765 37.2156C91.7199 37.2156 90.9071 37.6801 90.3265 38.6091C89.7459 39.538 89.4556 40.8153 89.4556 42.4409C89.4556 44.1827 89.7459 45.518 90.3265 46.505C90.9071 47.492 91.7199 47.9565 92.7069 47.9565C93.1714 47.9565 93.6358 47.8984 93.9842 47.7242C94.3906 47.5501 94.6809 47.4339 94.8551 47.2017V44.8213C94.8551 44.6471 94.797 44.473 94.7389 44.2988C94.6809 44.1246 94.5067 44.0666 94.3325 43.9504C94.1584 43.8924 93.9842 43.8343 93.6939 43.7763C93.4617 43.7182 93.2294 43.7182 93.0552 43.6601V43.0215H99.1514V43.7763H99.3256Z" fill="inherit" />
    <path d="M106.583 42.3828H106.118C106.002 42.0925 105.828 41.7442 105.538 41.4539C105.247 41.1636 105.015 40.9314 104.725 40.8733C104.609 40.8733 104.435 40.8153 104.26 40.8153C104.028 40.8153 103.912 40.8153 103.738 40.8153H102.519V44.0085H103.39C103.622 44.0085 103.796 44.0085 103.97 43.9504C104.144 43.8923 104.319 43.7762 104.435 43.6601C104.551 43.544 104.609 43.4279 104.725 43.1957C104.841 42.9634 104.899 42.7892 104.899 42.6151H105.364V46.0405H104.899C104.899 45.8663 104.841 45.6922 104.725 45.4019C104.609 45.1116 104.551 44.9955 104.435 44.8793C104.319 44.7632 104.144 44.6471 103.97 44.5891C103.796 44.531 103.622 44.531 103.39 44.531H102.519V46.9114C102.519 47.1436 102.519 47.3759 102.577 47.492C102.635 47.6081 102.693 47.7242 102.809 47.8403C102.925 47.8984 103.041 47.9564 103.215 47.9564C103.39 47.9564 103.622 48.0145 103.912 48.0145C104.028 48.0145 104.202 48.0145 104.377 48.0145C104.551 48.0145 104.725 48.0145 104.899 47.9564C105.073 47.9564 105.189 47.8984 105.364 47.8403C105.48 47.7823 105.596 47.7242 105.654 47.6662C105.828 47.492 106.06 47.2017 106.293 46.7953C106.525 46.3889 106.699 46.0986 106.757 45.9244H107.163L106.989 48.479H99.2675V48.0145C99.3836 48.0145 99.4997 48.0145 99.7319 47.9564C99.9061 47.9564 100.022 47.8984 100.138 47.8984C100.313 47.8403 100.371 47.7823 100.429 47.6662C100.487 47.55 100.487 47.4339 100.487 47.3178V41.512C100.487 41.3958 100.487 41.2797 100.429 41.1636C100.371 41.0475 100.313 40.9894 100.138 40.9314C100.022 40.8733 99.9061 40.8153 99.7319 40.8153C99.5577 40.7572 99.4416 40.7572 99.3255 40.7572V40.2927H106.583V42.3828V42.3828Z" fill="inherit" />
    <path d="M117.498 40.757C117.382 40.757 117.208 40.8151 117.033 40.8151C116.859 40.8731 116.627 40.9312 116.511 41.0473C116.395 41.1634 116.279 41.3376 116.221 41.5698C116.163 41.8021 116.104 42.2085 116.104 42.673V48.5369H115.059L109.95 42.2085V46.0403C109.95 46.5048 110.008 46.9112 110.066 47.1435C110.124 47.3757 110.241 47.5499 110.357 47.666C110.473 47.724 110.647 47.8402 110.879 47.8982C111.111 47.9563 111.286 48.0143 111.402 48.0143V48.4788H107.86V48.0143C108.034 48.0143 108.208 47.9563 108.383 47.9563C108.557 47.8982 108.731 47.8402 108.847 47.724C109.021 47.6079 109.079 47.4338 109.137 47.2015C109.195 46.9693 109.195 46.6209 109.195 46.0403V42.1504C109.195 41.9762 109.137 41.8021 109.079 41.6279C109.021 41.4537 108.905 41.2795 108.789 41.1634C108.673 41.0473 108.499 40.9312 108.325 40.8731C108.15 40.8151 107.976 40.757 107.744 40.699V40.2345H110.821L115.292 45.8081V42.673C115.292 42.1504 115.234 41.8021 115.176 41.5698C115.117 41.3376 115.001 41.1634 114.885 41.0473C114.769 40.9312 114.595 40.8731 114.363 40.8151C114.13 40.757 113.956 40.699 113.84 40.699V40.2345H117.382V40.757H117.498Z" fill="inherit" />
    <path d="M122.839 48.5368H118.311V48.0724C118.427 48.0724 118.543 48.0724 118.775 48.0143C118.949 48.0143 119.123 47.9563 119.182 47.9563C119.298 47.8982 119.414 47.8401 119.472 47.724C119.53 47.6079 119.53 47.4918 119.53 47.3757V41.5698C119.53 41.4537 119.53 41.3376 119.472 41.2215C119.414 41.1053 119.298 41.0473 119.182 40.9892C119.065 40.9312 118.949 40.9312 118.775 40.8731C118.601 40.8151 118.427 40.8151 118.311 40.8151V40.3506H122.839V40.8151C122.723 40.8151 122.607 40.8151 122.433 40.8731C122.259 40.8731 122.084 40.9312 121.968 40.9892C121.794 41.0473 121.736 41.1053 121.678 41.2215C121.62 41.3376 121.62 41.4537 121.62 41.5698V47.3757C121.62 47.4918 121.62 47.6079 121.678 47.724C121.736 47.8401 121.852 47.8982 121.968 47.9563C122.026 48.0143 122.201 48.0143 122.375 48.0724C122.549 48.1304 122.723 48.1304 122.839 48.1304V48.5368Z" fill="inherit" />
    <path d="M131.606 45.75L131.316 48.5368H123.594V48.1885L128.877 40.8731H127.078C126.729 40.8731 126.439 40.8731 126.265 40.9312C126.091 40.9312 125.974 40.9892 125.8 41.0473C125.626 41.1053 125.452 41.2795 125.278 41.5118C125.104 41.802 124.813 42.2085 124.465 42.8471H124L124.233 40.3506H131.374V40.6989L126.091 48.0143H128.181C128.819 48.0143 129.284 48.0143 129.516 47.9563C129.748 47.8982 129.922 47.7821 130.038 47.666C130.271 47.3757 130.445 47.0854 130.677 46.7951C130.851 46.5048 131.025 46.1564 131.2 45.8081H131.606V45.75Z" fill="inherit" />
    <path d="M141.534 48.5371H137.063V48.0726C137.296 48.0726 137.528 48.0145 137.818 47.9565C138.108 47.8984 138.225 47.8404 138.225 47.7242C138.225 47.6662 138.225 47.6662 138.225 47.6081C138.225 47.5501 138.225 47.492 138.167 47.4339L137.47 45.7503H134.625C134.567 45.9244 134.509 46.0986 134.393 46.3308C134.335 46.5631 134.219 46.7373 134.161 46.9114C134.102 47.1437 134.044 47.2598 134.044 47.3759C134.044 47.492 134.044 47.5501 134.044 47.5501C134.044 47.6662 134.161 47.7823 134.335 47.8404C134.509 47.8984 134.857 48.0145 135.264 48.0145V48.479H131.896V48.0145C132.012 48.0145 132.187 48.0145 132.303 47.9565C132.477 47.8984 132.593 47.8984 132.709 47.8404C132.883 47.7242 132.999 47.6081 133.115 47.492C133.232 47.3759 133.29 47.2017 133.406 47.0275C133.87 45.9244 134.277 44.8794 134.741 43.7763C135.206 42.6732 135.67 41.512 136.251 40.1766H137.412C138.167 42.0345 138.747 43.486 139.212 44.5891C139.618 45.6922 140.024 46.5631 140.315 47.2598C140.373 47.3759 140.431 47.492 140.489 47.5501C140.547 47.6662 140.663 47.7242 140.837 47.8404C140.953 47.8984 141.069 47.9565 141.186 47.9565C141.302 48.0145 141.476 48.0145 141.592 48.0145V48.5371H141.534ZM137.238 45.2277L136.076 42.2667L134.915 45.2277H137.238Z" fill="inherit" />
    <path d="M157.5 44.7632L157.268 48.537H146.469V47.8984C146.643 47.8984 146.875 47.8403 147.166 47.8403C147.398 47.7823 147.572 47.7823 147.688 47.7242C147.862 47.6661 148.037 47.55 148.095 47.3759C148.153 47.2597 148.211 47.0856 148.211 46.8533V38.551C148.211 38.3768 148.153 38.2026 148.095 38.0865C148.037 37.9704 147.862 37.8543 147.63 37.7381C147.456 37.6801 147.282 37.622 146.991 37.564C146.759 37.5059 146.585 37.5059 146.411 37.4478V36.8092H152.855V37.4478C152.681 37.4478 152.449 37.5059 152.217 37.5059C151.984 37.564 151.752 37.564 151.578 37.622C151.346 37.6801 151.23 37.7962 151.172 37.9704C151.114 38.1445 151.056 38.3187 151.056 38.4929V46.2147C151.056 46.563 151.056 46.8533 151.114 47.0856C151.172 47.3178 151.288 47.4339 151.404 47.55C151.52 47.6661 151.752 47.7242 151.985 47.7823C152.217 47.8403 152.623 47.8403 153.03 47.8403C153.494 47.8403 153.9 47.8403 154.307 47.7823C154.713 47.7242 155.004 47.6081 155.178 47.4339C155.468 47.1436 155.758 46.7372 156.049 46.2727C156.339 45.7502 156.571 45.2857 156.745 44.8793H157.5V44.7632Z" fill="inherit" />
    <path d="M167.718 48.5371H163.248V48.0726C163.48 48.0726 163.712 48.0145 164.003 47.9565C164.293 47.8984 164.409 47.8404 164.409 47.7242C164.409 47.6662 164.409 47.6662 164.409 47.6081C164.409 47.5501 164.409 47.492 164.351 47.4339L163.654 45.7503H160.751C160.693 45.9244 160.635 46.0986 160.519 46.3308C160.461 46.5631 160.345 46.7373 160.287 46.9114C160.229 47.1437 160.171 47.2598 160.171 47.3759C160.171 47.492 160.171 47.5501 160.171 47.5501C160.171 47.6662 160.287 47.7823 160.461 47.8404C160.635 47.8984 160.984 48.0145 161.39 48.0145V48.479H158.023V48.0145C158.139 48.0145 158.313 48.0145 158.429 47.9565C158.603 47.8984 158.719 47.8984 158.836 47.8404C159.01 47.7242 159.126 47.6081 159.242 47.492C159.358 47.3759 159.416 47.2017 159.532 47.0275C159.997 45.9244 160.403 44.8794 160.868 43.7763C161.332 42.6732 161.797 41.512 162.377 40.1766H163.538C164.293 42.0345 164.874 43.486 165.338 44.5891C165.744 45.6922 166.151 46.5631 166.441 47.2598C166.499 47.3759 166.557 47.492 166.615 47.5501C166.673 47.6662 166.79 47.7242 166.964 47.8404C167.08 47.8984 167.196 47.9565 167.312 47.9565C167.428 48.0145 167.602 48.0145 167.718 48.0145V48.5371V48.5371ZM163.364 45.2277L162.203 42.2667L161.042 45.2277H163.364Z" fill="inherit" />
    <path d="M175.498 44.763C175.73 44.9372 175.963 45.1694 176.079 45.4017C176.253 45.6339 176.311 45.9823 176.311 46.3306C176.311 46.737 176.195 47.0854 176.021 47.3757C175.847 47.666 175.614 47.8982 175.266 48.0724C174.918 48.2465 174.511 48.3627 174.047 48.4207C173.582 48.4788 173.06 48.5368 172.421 48.5368H168.183V48.0724C168.299 48.0724 168.473 48.0724 168.647 48.0143C168.822 48.0143 168.938 47.9563 169.054 47.9563C169.17 47.8982 169.286 47.8401 169.344 47.724C169.402 47.6079 169.402 47.4918 169.402 47.3757V41.5698C169.402 41.4537 169.402 41.3376 169.344 41.2215C169.286 41.1053 169.228 41.0473 169.054 40.9892C168.938 40.9312 168.822 40.8731 168.647 40.8731C168.473 40.8151 168.357 40.8151 168.241 40.8151V40.3506H172.711C173.815 40.3506 174.627 40.5248 175.15 40.8151C175.672 41.1053 175.905 41.5698 175.905 42.2085C175.905 42.4987 175.847 42.731 175.73 42.9632C175.614 43.1955 175.44 43.3696 175.266 43.4857C175.092 43.6019 174.86 43.776 174.569 43.8341C174.279 43.9502 174.047 44.0083 173.698 44.0663V44.1824C173.989 44.2405 174.337 44.2986 174.627 44.3566C174.976 44.4727 175.266 44.5889 175.498 44.763ZM173.64 42.2665C173.64 41.8021 173.524 41.4537 173.234 41.2215C173.002 40.9892 172.595 40.8151 172.073 40.8151C172.015 40.8151 171.899 40.8151 171.782 40.8151C171.666 40.8151 171.55 40.8151 171.492 40.8151V43.8341H171.782C172.421 43.8341 172.886 43.718 173.176 43.3696C173.524 43.1955 173.64 42.789 173.64 42.2665ZM174.047 46.2145C174.047 45.6339 173.873 45.2275 173.524 44.8792C173.176 44.5889 172.711 44.4147 172.073 44.4147C172.015 44.4147 171.899 44.4147 171.782 44.4147C171.666 44.4147 171.55 44.4147 171.492 44.4147V47.4337C171.55 47.5498 171.608 47.724 171.841 47.7821C172.015 47.8982 172.247 47.9563 172.479 47.9563C172.944 47.9563 173.292 47.7821 173.582 47.4918C173.931 47.2015 174.047 46.7951 174.047 46.2145Z" fill="inherit" />
    
    <!-- "PRINCETON" -->
    <path d="M93.0553 55.6201C93.0553 55.8524 92.9972 56.0265 92.9392 56.2007C92.8231 56.3749 92.7069 56.491 92.5328 56.6071C92.3586 56.7232 92.1844 56.7813 91.9522 56.8394C91.72 56.8974 91.4877 56.8974 91.1974 56.8974H90.8491V58.0586C90.8491 58.1166 90.8491 58.1747 90.9071 58.2328C90.9652 58.2908 90.9652 58.3489 91.0813 58.3489C91.1394 58.3489 91.1974 58.4069 91.2555 58.4069C91.3135 58.4069 91.4297 58.4069 91.4877 58.465V58.6972H89.2815V58.465C89.3396 58.465 89.3976 58.465 89.5137 58.465C89.6299 58.465 89.6879 58.465 89.6879 58.4069C89.746 58.3489 89.804 58.3489 89.8621 58.2908C89.8621 58.2328 89.9201 58.1747 89.9201 58.1166V55.2137C89.9201 55.1557 89.9201 55.0976 89.8621 55.0395C89.8621 54.9815 89.804 54.9234 89.6879 54.9234C89.6299 54.9234 89.5718 54.8654 89.4557 54.8654C89.3396 54.8654 89.2815 54.8073 89.2815 54.8073V54.5751H91.5458C92.0683 54.5751 92.4747 54.6331 92.707 54.8073C92.9392 54.9815 93.0553 55.2718 93.0553 55.6201ZM91.9522 55.7362C91.9522 55.446 91.8941 55.2137 91.778 55.0395C91.6619 54.8654 91.4297 54.8073 91.1394 54.8073H90.9071V56.6071H91.0232C91.3135 56.6071 91.6038 56.5491 91.72 56.3749C91.8941 56.2588 91.9522 56.0846 91.9522 55.7362Z" fill="inherit" />
    <path d="M98.1063 58.6972H96.5387C96.2484 58.2908 96.0162 57.9425 95.842 57.7102C95.6678 57.478 95.4356 57.1877 95.1453 56.8394H94.9711V58.0586C94.9711 58.1166 94.9711 58.1747 95.0292 58.2328C95.0292 58.2908 95.0872 58.3489 95.2033 58.3489C95.2614 58.3489 95.3194 58.4069 95.3775 58.4069C95.4356 58.4069 95.5517 58.4069 95.5517 58.465V58.6972H93.3455V58.465C93.4035 58.465 93.4616 58.465 93.5777 58.465C93.6938 58.465 93.7519 58.465 93.7519 58.4069C93.8099 58.3489 93.868 58.3489 93.926 58.2908C93.926 58.2328 93.9841 58.1747 93.9841 58.1166V55.2137C93.9841 55.1557 93.9841 55.0976 93.926 55.0395C93.926 54.9815 93.868 54.9815 93.7519 54.9234C93.6938 54.9234 93.6358 54.8654 93.5196 54.8654C93.4616 54.8654 93.3455 54.8073 93.3455 54.8073V54.5751H95.6678C96.1903 54.5751 96.5967 54.6331 96.829 54.8073C97.1193 54.9815 97.2354 55.2137 97.2354 55.5621C97.2354 55.8524 97.1773 56.0846 97.0031 56.2588C96.829 56.4329 96.5967 56.5491 96.2484 56.6652C96.3645 56.8394 96.5387 57.0135 96.7129 57.2458C96.887 57.478 97.0612 57.7102 97.2354 57.9425C97.2934 58.0005 97.3515 58.1166 97.4676 58.2328C97.5837 58.3489 97.6418 58.4069 97.7579 58.4069C97.816 58.4069 97.874 58.4069 97.9321 58.465C97.9901 58.465 98.0482 58.465 98.1063 58.465V58.6972V58.6972ZM96.1323 55.6201C96.1323 55.3298 96.0742 55.1557 95.9 55.0395C95.7259 54.9234 95.5517 54.8654 95.2614 54.8654H95.0292V56.6071H95.2614C95.5517 56.6071 95.7839 56.5491 95.9 56.3749C96.0162 56.2007 96.1323 55.9685 96.1323 55.6201Z" fill="inherit" />
    <path d="M100.661 58.6972H98.3965V58.465C98.4545 58.465 98.5126 58.465 98.6287 58.465C98.7448 58.465 98.8029 58.465 98.8609 58.4069C98.919 58.3489 98.9771 58.3489 99.0351 58.2908C99.0351 58.2328 99.0932 58.1747 99.0932 58.1166V55.2137C99.0932 55.1557 99.0932 55.0976 99.0351 55.0395C99.0351 54.9815 98.9771 54.9234 98.8609 54.9234C98.8029 54.9234 98.7448 54.8654 98.6287 54.8654C98.5126 54.8654 98.4545 54.8073 98.3965 54.8073V54.5751H100.661V54.8073C100.603 54.8073 100.545 54.8073 100.429 54.8073C100.37 54.8073 100.254 54.8073 100.196 54.8654C100.138 54.8654 100.08 54.9234 100.022 54.9815C100.022 55.0395 99.9641 55.0976 99.9641 55.1557V58.0586C99.9641 58.1166 99.9641 58.1747 100.022 58.2328C100.022 58.2908 100.08 58.3489 100.196 58.3489C100.254 58.3489 100.312 58.4069 100.37 58.4069C100.487 58.4069 100.545 58.4069 100.603 58.465V58.6972H100.661Z" fill="inherit" />
    <path d="M105.886 54.8073C105.828 54.8073 105.77 54.8073 105.654 54.8654C105.538 54.8654 105.48 54.9234 105.364 54.9815C105.306 55.0395 105.247 55.0976 105.189 55.2718C105.131 55.3879 105.131 55.5621 105.131 55.8524V58.8133H104.609L102.054 55.6201V57.5361C102.054 57.7683 102.054 57.9425 102.112 58.0586C102.17 58.1747 102.17 58.2908 102.286 58.3489C102.345 58.4069 102.403 58.4069 102.519 58.465C102.635 58.5231 102.751 58.5231 102.809 58.5231V58.7553H101.067V58.5231C101.125 58.5231 101.241 58.5231 101.3 58.465C101.358 58.4069 101.474 58.4069 101.532 58.3489C101.59 58.2908 101.648 58.2328 101.706 58.1166C101.706 58.0005 101.764 57.8263 101.764 57.5361V55.6201C101.764 55.504 101.764 55.446 101.706 55.3298C101.648 55.2718 101.648 55.1557 101.59 55.0976C101.532 55.0395 101.474 54.9815 101.358 54.9234C101.241 54.8654 101.183 54.8654 101.067 54.8073V54.5751H102.635L104.899 57.3619V55.7943C104.899 55.5621 104.899 55.3879 104.841 55.2718C104.783 55.1557 104.783 55.0395 104.667 54.9815C104.609 54.9234 104.551 54.9234 104.435 54.8654C104.319 54.8073 104.26 54.8073 104.144 54.8073V54.5751H105.886V54.8073Z" fill="inherit" />
    <path d="M108.267 58.8134C107.976 58.8134 107.686 58.7553 107.396 58.6392C107.105 58.5231 106.931 58.407 106.699 58.2328C106.525 58.0586 106.351 57.8264 106.234 57.5361C106.118 57.2458 106.06 56.9555 106.06 56.6652C106.06 56.3749 106.118 56.0266 106.234 55.7943C106.351 55.504 106.525 55.2718 106.699 55.0976C106.873 54.9235 107.105 54.7493 107.396 54.6332C107.686 54.517 107.976 54.459 108.267 54.459C108.499 54.459 108.731 54.459 108.905 54.517C109.079 54.5751 109.254 54.6332 109.37 54.6912L109.544 54.517H109.776V56.0266H109.544C109.428 55.5621 109.254 55.2137 109.021 55.0396C108.847 54.8073 108.557 54.6912 108.267 54.6912C107.918 54.6912 107.628 54.8654 107.454 55.1557C107.28 55.504 107.163 55.9104 107.163 56.491C107.163 56.8394 107.221 57.0716 107.28 57.3038C107.338 57.5361 107.454 57.7103 107.512 57.8844C107.628 58.0586 107.744 58.1167 107.918 58.2328C108.092 58.2908 108.267 58.3489 108.441 58.3489C108.731 58.3489 108.963 58.2908 109.137 58.1167C109.37 57.9425 109.544 57.7683 109.718 57.478L109.95 57.6522C109.892 57.8264 109.776 58.0006 109.66 58.1167C109.544 58.2328 109.428 58.3489 109.312 58.465C109.137 58.5811 108.963 58.6392 108.789 58.6973C108.731 58.7553 108.499 58.8134 108.267 58.8134Z" fill="inherit" />
    <path d="M114.014 55.6201H113.782C113.724 55.4459 113.608 55.3298 113.492 55.1556C113.376 54.9814 113.202 54.9234 113.085 54.8653C113.027 54.8653 112.969 54.8653 112.853 54.8653C112.737 54.8653 112.679 54.8653 112.621 54.8653H112.04V56.4329H112.447C112.563 56.4329 112.621 56.4329 112.737 56.3748C112.795 56.3748 112.911 56.3168 112.969 56.2587C113.027 56.2006 113.085 56.1426 113.085 56.0265C113.143 55.9103 113.143 55.7942 113.202 55.7362H113.434V57.4779H113.202C113.202 57.4199 113.143 57.3037 113.085 57.1876C113.027 57.0715 112.969 56.9554 112.969 56.9554C112.911 56.8973 112.853 56.8393 112.737 56.8393C112.679 56.8393 112.563 56.7812 112.447 56.7812H111.982V57.9424C111.982 58.0585 111.982 58.1746 111.982 58.2327C111.982 58.2907 112.04 58.3488 112.098 58.4069C112.156 58.4649 112.215 58.4649 112.273 58.4649C112.331 58.4649 112.447 58.4649 112.621 58.4649C112.679 58.4649 112.795 58.4649 112.853 58.4649C112.969 58.4649 113.027 58.4649 113.085 58.4649C113.143 58.4649 113.26 58.4649 113.318 58.4069C113.376 58.4069 113.434 58.3488 113.492 58.3488C113.608 58.2327 113.666 58.1166 113.782 57.9424C113.898 57.7682 113.956 57.594 114.014 57.4779H114.247L114.189 58.7552H110.357V58.523C110.415 58.523 110.473 58.523 110.589 58.523C110.705 58.523 110.763 58.523 110.763 58.4649C110.821 58.4069 110.879 58.4069 110.937 58.3488C110.937 58.2907 110.995 58.2327 110.995 58.1746V55.2717C110.995 55.2136 110.995 55.1556 110.937 55.0975C110.937 55.0395 110.879 55.0395 110.763 54.9814C110.705 54.9814 110.647 54.9233 110.531 54.9233C110.415 54.9233 110.357 54.8653 110.299 54.8653V54.6331H113.956V55.6201H114.014Z" fill="inherit" />
    <path d="M118.543 55.7362H118.311C118.253 55.5621 118.136 55.3879 118.02 55.1557C117.904 54.9815 117.788 54.8654 117.672 54.8073C117.614 54.8073 117.556 54.8073 117.44 54.8073C117.324 54.8073 117.266 54.8073 117.207 54.8073H117.091V58.0005C117.091 58.0586 117.091 58.1166 117.149 58.1747C117.149 58.2328 117.207 58.2908 117.324 58.2908C117.382 58.2908 117.44 58.3489 117.556 58.3489C117.672 58.3489 117.73 58.4069 117.788 58.4069V58.6392H115.524V58.4069C115.582 58.4069 115.64 58.4069 115.756 58.4069C115.872 58.4069 115.93 58.4069 115.988 58.3489C116.046 58.2908 116.104 58.2908 116.162 58.2328C116.162 58.1747 116.221 58.1166 116.221 58.0586V54.8073H116.104C116.046 54.8073 115.988 54.8073 115.872 54.8073C115.756 54.8073 115.698 54.8073 115.64 54.8073C115.524 54.8073 115.408 54.9234 115.292 55.1557C115.175 55.3298 115.059 55.5621 115.001 55.7362H114.769V54.5751H118.775V55.7362H118.543Z" fill="inherit" />
    <path d="M122.665 55.0395C122.839 55.2137 123.013 55.4459 123.13 55.7362C123.246 56.0265 123.304 56.3168 123.304 56.6071C123.304 56.8974 123.246 57.1877 123.13 57.478C123.013 57.7683 122.897 58.0005 122.723 58.1747C122.549 58.3489 122.317 58.523 122.026 58.6392C121.736 58.7553 121.446 58.8133 121.097 58.8133C120.807 58.8133 120.517 58.7553 120.227 58.6392C119.936 58.523 119.704 58.4069 119.53 58.2327C119.356 58.0586 119.182 57.8263 119.065 57.536C118.949 57.2457 118.891 56.9555 118.891 56.6652C118.891 56.3168 118.949 56.0265 119.065 55.7362C119.182 55.4459 119.356 55.2137 119.53 55.0395C119.704 54.8654 119.936 54.6912 120.227 54.5751C120.517 54.4589 120.807 54.4009 121.097 54.4009C121.388 54.4009 121.678 54.4589 121.968 54.5751C122.201 54.6912 122.433 54.8654 122.665 55.0395ZM121.91 58.0005C121.968 57.8263 122.084 57.6522 122.084 57.4199C122.143 57.1877 122.143 56.9555 122.143 56.6652C122.143 56.4329 122.143 56.2007 122.084 55.9685C122.026 55.7362 121.968 55.5621 121.91 55.3879C121.852 55.2137 121.736 55.0976 121.562 54.9815C121.446 54.8653 121.272 54.8073 121.039 54.8073C120.691 54.8073 120.401 54.9815 120.227 55.3298C120.052 55.6782 119.936 56.1426 119.936 56.7232C119.936 56.9555 119.936 57.2457 119.994 57.478C120.052 57.7102 120.11 57.8844 120.169 58.0586C120.285 58.2327 120.343 58.3489 120.517 58.465C120.633 58.5811 120.807 58.5811 120.981 58.5811C121.156 58.5811 121.33 58.523 121.446 58.465C121.678 58.2908 121.794 58.1166 121.91 58.0005Z" fill="inherit" />
    <path d="M128.355 54.8073C128.297 54.8073 128.239 54.8073 128.123 54.8654C128.006 54.8654 127.948 54.9234 127.832 54.9815C127.774 55.0395 127.716 55.0976 127.658 55.2718C127.6 55.3879 127.6 55.5621 127.6 55.8524V58.8133H127.077L124.523 55.6201V57.5361C124.523 57.7683 124.523 57.9425 124.581 58.0586C124.639 58.1747 124.639 58.2908 124.755 58.3489C124.813 58.4069 124.871 58.4069 124.987 58.465C125.103 58.5231 125.22 58.5231 125.278 58.5231V58.7553H123.536V58.5231C123.594 58.5231 123.71 58.5231 123.768 58.465C123.826 58.4069 123.942 58.4069 124 58.3489C124.058 58.2908 124.116 58.2328 124.175 58.1166C124.175 58.0005 124.233 57.8263 124.233 57.5361V55.6201C124.233 55.504 124.233 55.446 124.175 55.3298C124.116 55.2718 124.116 55.1557 124.058 55.0976C124 55.0395 123.942 54.9815 123.826 54.9234C123.71 54.8654 123.652 54.8654 123.536 54.8073V54.5751H125.103L127.368 57.3619V55.7943C127.368 55.5621 127.368 55.3879 127.31 55.2718C127.252 55.1557 127.252 55.0395 127.136 54.9815C127.077 54.9234 127.019 54.9234 126.903 54.8654C126.787 54.8073 126.729 54.8073 126.613 54.8073V54.5751H128.355V54.8073Z" fill="inherit" />
    
    <!-- "UNIVERSITY" -->
    <path d="M135.67 54.8073C135.612 54.8073 135.554 54.8073 135.438 54.8653C135.322 54.8653 135.264 54.9234 135.148 54.9814C135.09 55.0395 135.032 55.0976 134.973 55.2137C134.915 55.3298 134.915 55.504 134.915 55.7943V57.3038C134.915 57.7682 134.741 58.1166 134.451 58.4069C134.161 58.6972 133.754 58.8133 133.232 58.8133C132.651 58.8133 132.187 58.6972 131.896 58.4069C131.548 58.1166 131.432 57.7682 131.432 57.3038V55.2137C131.432 55.1556 131.432 55.0976 131.374 55.0395C131.374 54.9814 131.316 54.9234 131.2 54.9234C131.142 54.9234 131.084 54.8653 131.025 54.8653C130.967 54.8653 130.909 54.8653 130.851 54.8073V54.575H132.999V54.8073C132.941 54.8073 132.883 54.8073 132.825 54.8073C132.767 54.8073 132.709 54.8073 132.651 54.8653C132.593 54.8653 132.535 54.9234 132.477 54.9814C132.477 55.0395 132.419 55.0976 132.419 55.1556V57.2457C132.419 57.6521 132.535 57.9424 132.709 58.1166C132.883 58.2908 133.174 58.4069 133.464 58.4069C133.812 58.4069 134.045 58.2908 134.277 58.1166C134.451 57.8844 134.567 57.5941 134.567 57.1877V55.7943C134.567 55.562 134.567 55.3878 134.509 55.2137C134.451 55.0976 134.451 54.9814 134.335 54.9234C134.277 54.8653 134.219 54.8653 134.045 54.8073C133.928 54.7492 133.812 54.7492 133.754 54.7492V54.517H135.554V54.8073H135.67Z" fill="inherit" />
    <path d="M140.837 54.8073C140.779 54.8073 140.721 54.8073 140.605 54.8654C140.489 54.8654 140.431 54.9234 140.315 54.9815C140.257 55.0395 140.199 55.0976 140.141 55.2718C140.083 55.3879 140.083 55.5621 140.083 55.8524V58.8133H139.56L137.006 55.6201V57.5361C137.006 57.7683 137.006 57.9425 137.064 58.0586C137.122 58.1747 137.122 58.2908 137.238 58.3489C137.296 58.4069 137.354 58.4069 137.47 58.465C137.586 58.5231 137.702 58.5231 137.76 58.5231V58.7553H136.019V58.5231C136.077 58.5231 136.193 58.5231 136.251 58.465C136.309 58.4069 136.425 58.4069 136.483 58.3489C136.541 58.2908 136.599 58.2328 136.657 58.1166C136.657 58.0005 136.715 57.8263 136.715 57.5361V55.6201C136.715 55.504 136.715 55.446 136.657 55.3298C136.599 55.2718 136.599 55.1557 136.541 55.0976C136.483 55.0395 136.425 54.9815 136.309 54.9234C136.193 54.8654 136.135 54.8654 136.019 54.8073V54.5751H137.586L139.85 57.3619V55.7943C139.85 55.5621 139.85 55.3879 139.792 55.2718C139.734 55.1557 139.734 55.0395 139.618 54.9815C139.56 54.9234 139.502 54.9234 139.386 54.8654C139.27 54.8073 139.212 54.8073 139.096 54.8073V54.5751H140.837V54.8073Z" fill="inherit" />
    <path d="M143.566 58.6972H141.302V58.465C141.36 58.465 141.418 58.465 141.534 58.465C141.65 58.465 141.708 58.465 141.766 58.4069C141.824 58.3489 141.882 58.3489 141.94 58.2908C141.94 58.2328 141.998 58.1747 141.998 58.1166V55.2137C141.998 55.1557 141.998 55.0976 141.94 55.0395C141.94 54.9815 141.882 54.9234 141.766 54.9234C141.708 54.9234 141.65 54.8654 141.534 54.8654C141.418 54.8654 141.36 54.8073 141.302 54.8073V54.5751H143.566V54.8073C143.508 54.8073 143.45 54.8073 143.334 54.8073C143.276 54.8073 143.16 54.8073 143.102 54.8654C143.044 54.8654 142.985 54.9234 142.927 54.9815C142.927 55.0395 142.869 55.0976 142.869 55.1557V58.0586C142.869 58.1166 142.869 58.1747 142.927 58.2328C142.927 58.2908 142.985 58.3489 143.102 58.3489C143.16 58.3489 143.218 58.4069 143.276 58.4069C143.392 58.4069 143.45 58.4069 143.508 58.465V58.6972H143.566Z" fill="inherit" />
    <path d="M148.675 54.8073C148.617 54.8073 148.559 54.8073 148.501 54.8654C148.443 54.8654 148.385 54.9234 148.327 54.9234C148.269 54.9815 148.153 55.0396 148.153 55.0976C148.095 55.1557 148.037 55.2137 148.037 55.3299C147.979 55.446 147.92 55.6782 147.804 55.9104C147.688 56.1427 147.572 56.433 147.456 56.7813C147.34 57.0716 147.224 57.42 147.05 57.7683C146.933 58.1167 146.759 58.465 146.643 58.7553H146.063C145.772 58.1167 145.54 57.42 145.25 56.7233C144.959 56.0266 144.785 55.5621 144.669 55.2718C144.611 55.1557 144.553 55.0976 144.553 55.0396C144.495 54.9815 144.437 54.9235 144.379 54.8654C144.321 54.8073 144.263 54.8073 144.205 54.8073C144.147 54.8073 144.089 54.8073 144.031 54.7493V54.517H146.237V54.7493C146.005 54.7493 145.888 54.8073 145.83 54.8073C145.772 54.8073 145.714 54.8654 145.714 54.9234V54.9815C145.714 54.9815 145.714 55.0396 145.772 55.0976C145.83 55.2718 145.946 55.5621 146.121 55.9104C146.295 56.3169 146.527 56.8974 146.817 57.6522C146.992 57.1877 147.166 56.7813 147.282 56.433C147.398 56.0846 147.514 55.7943 147.63 55.5621C147.688 55.446 147.746 55.3299 147.746 55.2137C147.804 55.0976 147.804 55.0396 147.804 54.9815C147.804 54.9234 147.746 54.8654 147.688 54.8073C147.572 54.7493 147.456 54.7493 147.224 54.6912V54.459H148.907V54.8073H148.675Z" fill="inherit" />
    <path d="M152.623 55.6201H152.391C152.333 55.4459 152.217 55.3298 152.101 55.1556C151.985 54.9814 151.81 54.9234 151.694 54.8653C151.636 54.8653 151.578 54.8653 151.462 54.8653C151.346 54.8653 151.288 54.8653 151.23 54.8653H150.649V56.4329H151.056C151.172 56.4329 151.23 56.4329 151.346 56.3748C151.404 56.3748 151.52 56.3168 151.578 56.2587C151.636 56.2006 151.694 56.1426 151.694 56.0265C151.752 55.9103 151.752 55.7942 151.81 55.7362H152.043V57.4779H151.81C151.81 57.4199 151.752 57.3037 151.694 57.1876C151.636 57.0715 151.578 56.9554 151.578 56.9554C151.52 56.8973 151.462 56.8393 151.346 56.8393C151.288 56.8393 151.172 56.7812 151.056 56.7812H150.649V57.9424C150.649 58.0585 150.649 58.1746 150.649 58.2327C150.649 58.2907 150.707 58.3488 150.765 58.4069C150.823 58.4649 150.882 58.4649 150.94 58.4649C150.998 58.4649 151.114 58.4649 151.288 58.4649C151.346 58.4649 151.462 58.4649 151.52 58.4649C151.636 58.4649 151.694 58.4649 151.752 58.4649C151.81 58.4649 151.927 58.4649 151.985 58.4069C152.043 58.4069 152.101 58.3488 152.159 58.3488C152.275 58.2327 152.333 58.1166 152.449 57.9424C152.565 57.7682 152.623 57.594 152.681 57.4779H152.914L152.855 58.7552H149.024V58.523C149.082 58.523 149.14 58.523 149.256 58.523C149.372 58.523 149.43 58.523 149.43 58.4649C149.488 58.4069 149.546 58.4069 149.604 58.3488C149.604 58.2907 149.662 58.2327 149.662 58.1746V55.2717C149.662 55.2136 149.662 55.1556 149.604 55.0975C149.604 55.0395 149.546 55.0395 149.43 54.9814C149.372 54.9814 149.314 54.9233 149.198 54.9233C149.082 54.9233 149.024 54.8653 148.966 54.8653V54.6331H152.623V55.6201Z" fill="inherit" />
    <path d="M158.081 58.6972H156.513C156.223 58.2908 155.991 57.9425 155.816 57.7102C155.642 57.478 155.41 57.1877 155.12 56.8394H154.946V58.0586C154.946 58.1166 154.946 58.1747 155.004 58.2328C155.004 58.2908 155.062 58.3489 155.178 58.3489C155.236 58.3489 155.294 58.4069 155.352 58.4069C155.41 58.4069 155.468 58.4069 155.526 58.465V58.6972H153.32V58.465C153.378 58.465 153.436 58.465 153.552 58.465C153.668 58.465 153.726 58.465 153.726 58.4069C153.784 58.3489 153.842 58.3489 153.901 58.2908C153.901 58.2328 153.959 58.1747 153.959 58.1166V55.2137C153.959 55.1557 153.959 55.0976 153.901 55.0395C153.842 54.9815 153.842 54.9815 153.726 54.9234C153.668 54.9234 153.61 54.8654 153.494 54.8654C153.436 54.8654 153.32 54.8073 153.32 54.8073V54.5751H155.642C156.165 54.5751 156.571 54.6331 156.803 54.8073C157.094 54.9815 157.21 55.2137 157.21 55.5621C157.21 55.8524 157.152 56.0846 156.978 56.2588C156.803 56.4329 156.571 56.5491 156.223 56.6652C156.339 56.8394 156.513 57.0135 156.687 57.2458C156.862 57.478 157.036 57.7102 157.21 57.9425C157.268 58.0005 157.326 58.1166 157.442 58.2328C157.558 58.3489 157.616 58.4069 157.732 58.4069C157.79 58.4069 157.849 58.4069 157.907 58.465C157.965 58.465 158.023 58.465 158.081 58.465V58.6972V58.6972ZM156.107 55.6201C156.107 55.3298 156.049 55.1557 155.875 55.0395C155.7 54.9234 155.526 54.8654 155.236 54.8654H154.946V56.6071H155.178C155.468 56.6071 155.7 56.5491 155.816 56.3749C155.991 56.2007 156.107 55.9685 156.107 55.6201Z" fill="inherit" />
    <path d="M160.055 58.8133C159.823 58.8133 159.59 58.7553 159.358 58.6972C159.126 58.6392 158.952 58.5811 158.836 58.465L158.661 58.6392H158.429L158.371 57.1296H158.603C158.661 57.2457 158.719 57.4199 158.836 57.5941C158.894 57.7683 159.01 57.8844 159.126 58.0005C159.242 58.1166 159.358 58.2327 159.532 58.2908C159.648 58.3489 159.823 58.4069 160.055 58.4069C160.345 58.4069 160.519 58.3489 160.635 58.2327C160.751 58.1166 160.868 57.9424 160.868 57.7683C160.868 57.5941 160.81 57.478 160.693 57.3619C160.577 57.2457 160.403 57.1296 160.171 57.0716C159.997 57.0135 159.881 56.9555 159.706 56.9555C159.59 56.8974 159.416 56.8393 159.3 56.8393C159.01 56.7232 158.836 56.549 158.661 56.3749C158.545 56.1426 158.487 55.9685 158.487 55.6782C158.487 55.504 158.545 55.3879 158.603 55.2137C158.661 55.0395 158.777 54.9234 158.894 54.8073C159.01 54.6912 159.184 54.6331 159.358 54.517C159.532 54.4589 159.765 54.4009 159.997 54.4009C160.229 54.4009 160.461 54.4589 160.635 54.517C160.81 54.5751 160.984 54.6331 161.1 54.6912L161.274 54.517H161.506V55.9104H161.274C161.216 55.7362 161.158 55.6201 161.042 55.4459C160.984 55.2718 160.868 55.1556 160.81 55.0395C160.693 54.9234 160.577 54.8654 160.461 54.7492C160.345 54.6912 160.171 54.6331 160.055 54.6331C159.823 54.6331 159.648 54.6912 159.532 54.8073C159.416 54.9234 159.358 55.0976 159.358 55.2718C159.358 55.4459 159.416 55.5621 159.532 55.6782C159.648 55.7943 159.823 55.8523 160.055 55.9685C160.171 56.0265 160.345 56.0846 160.519 56.0846C160.693 56.1426 160.81 56.2007 160.926 56.2007C161.216 56.3168 161.39 56.4329 161.564 56.6652C161.738 56.8393 161.797 57.0716 161.797 57.3619C161.797 57.536 161.738 57.7102 161.68 57.8844C161.622 58.0586 161.506 58.1747 161.332 58.2908C161.158 58.4069 160.984 58.523 160.81 58.5811C160.577 58.7553 160.345 58.8133 160.055 58.8133Z" fill="inherit" />
    <path d="M164.409 58.6972H162.145V58.465C162.203 58.465 162.261 58.465 162.377 58.465C162.493 58.465 162.551 58.465 162.609 58.4069C162.667 58.3489 162.725 58.3489 162.783 58.2908C162.783 58.2328 162.841 58.1747 162.841 58.1166V55.2137C162.841 55.1557 162.841 55.0976 162.783 55.0395C162.783 54.9815 162.725 54.9234 162.609 54.9234C162.551 54.9234 162.493 54.8654 162.377 54.8654C162.261 54.8654 162.203 54.8073 162.145 54.8073V54.5751H164.409V54.8073C164.351 54.8073 164.293 54.8073 164.177 54.8073C164.119 54.8073 164.003 54.8073 163.945 54.8654C163.887 54.8654 163.828 54.9234 163.77 54.9815C163.77 55.0395 163.712 55.0976 163.712 55.1557V58.0586C163.712 58.1166 163.712 58.1747 163.77 58.2328C163.77 58.2908 163.828 58.3489 163.945 58.3489C164.003 58.3489 164.061 58.4069 164.119 58.4069C164.235 58.4069 164.293 58.4069 164.351 58.465V58.6972H164.409Z" fill="inherit" />
    <path d="M168.763 55.7362H168.531C168.473 55.5621 168.357 55.3879 168.241 55.1557C168.125 54.9815 168.009 54.8654 167.893 54.8073C167.834 54.8073 167.776 54.8073 167.66 54.8073C167.544 54.8073 167.486 54.8073 167.428 54.8073H167.312V58.0005C167.312 58.0586 167.312 58.1166 167.37 58.1747C167.37 58.2328 167.428 58.2908 167.544 58.2908C167.602 58.2908 167.66 58.3489 167.776 58.3489C167.893 58.3489 167.951 58.4069 168.009 58.4069V58.6392H165.744V58.4069C165.802 58.4069 165.86 58.4069 165.977 58.4069C166.093 58.4069 166.151 58.4069 166.209 58.3489C166.267 58.2908 166.325 58.2908 166.383 58.2328C166.383 58.1747 166.441 58.1166 166.441 58.0586V54.8073H166.325C166.267 54.8073 166.209 54.8073 166.093 54.8073C165.977 54.8073 165.919 54.8073 165.86 54.8073C165.744 54.8073 165.628 54.9234 165.512 55.1557C165.396 55.3298 165.28 55.5621 165.222 55.7362H164.815V54.5751H168.821V55.7362H168.763Z" fill="inherit" />
    <path d="M173.699 54.8074C173.64 54.8074 173.582 54.8074 173.524 54.8655C173.466 54.8655 173.408 54.9235 173.35 54.9235C173.292 54.9816 173.176 55.0396 173.118 55.0977C173.06 55.1558 173.002 55.2719 172.944 55.3299C172.828 55.5041 172.712 55.7363 172.537 55.9105C172.421 56.1428 172.247 56.375 172.073 56.6072C171.957 56.7814 171.899 56.8975 171.899 57.0136C171.899 57.1297 171.841 57.2459 171.841 57.4781V58.0587C171.841 58.1167 171.841 58.1748 171.899 58.2329C171.899 58.2909 171.957 58.349 172.073 58.349C172.131 58.349 172.189 58.407 172.305 58.407C172.421 58.407 172.479 58.4651 172.537 58.4651V58.6973H170.273V58.4651C170.331 58.4651 170.389 58.4651 170.505 58.4651C170.621 58.4651 170.679 58.4651 170.738 58.407C170.796 58.349 170.854 58.349 170.912 58.2909C170.912 58.2329 170.97 58.1748 170.97 58.1167V57.42C170.97 57.362 170.97 57.3039 170.97 57.2459C170.97 57.1878 170.97 57.1297 170.97 57.1297C170.97 57.0717 170.912 57.0717 170.912 57.0136C170.854 56.9556 170.854 56.8975 170.796 56.7814C170.621 56.5492 170.505 56.2589 170.389 56.0266C170.273 55.7944 170.099 55.5622 169.983 55.388C169.925 55.2719 169.867 55.2138 169.809 55.1558C169.751 55.0977 169.692 55.0396 169.576 54.9816C169.518 54.9816 169.46 54.9235 169.402 54.9235C169.344 54.9235 169.286 54.9235 169.228 54.9235V54.6913H171.608V54.9235C171.376 54.9235 171.26 54.9235 171.144 54.9816C171.086 54.9816 171.028 55.0396 171.028 55.0977C171.028 55.0977 171.028 55.1558 171.086 55.2138C171.086 55.2719 171.144 55.388 171.26 55.5041C171.318 55.6202 171.434 55.7944 171.55 56.0266C171.666 56.2589 171.841 56.4911 172.015 56.7814C172.363 56.2008 172.653 55.7944 172.77 55.5622C172.886 55.3299 173.002 55.2138 173.002 55.1558C173.002 55.0977 172.944 55.0396 172.886 54.9816C172.828 54.9235 172.653 54.9235 172.479 54.9235V54.6913H173.989V54.8074H173.699Z" fill="inherit" />
</svg>
