<svg id="logo" viewBox="30 25 205 90" style="fill:inherit;" xmlns="http://www.w3.org/2000/svg">
    <path d="M36.6724 26.9047H33.4144V37.3987H34.8904V33.4387H35.9704C38.8504 33.4387 40.2364 31.9807 40.2364 30.1087C40.2364 27.8947 38.7784 26.9047 36.6724 26.9047ZM35.8804 32.2147H34.8904V28.1287H36.1504C37.7884 28.1467 38.7244 28.7947 38.7244 30.1627C38.7244 31.8547 37.5004 32.1607 35.8804 32.2147Z" style="fill:inherit;" />
    <path d="M50.1016 37.3987L47.2756 33.0067C48.5536 32.4307 49.1836 31.3687 49.1836 30.1087C49.1836 27.8947 47.7256 26.9047 45.6196 26.9047H42.3616V37.3987H43.8376V33.4387H44.9176C45.2596 33.4387 45.5836 33.4207 45.8716 33.3847L48.2836 37.3987H50.1016ZM44.8276 32.2147H43.8376V28.1287H45.0976C46.7356 28.1467 47.6716 28.7947 47.6716 30.1627C47.6716 31.8547 46.4656 32.2147 44.8276 32.2147Z" style="fill:inherit;" />
    <path d="M52.0296 26.9047V37.3987H53.5056V26.9047H52.0296Z" style="fill:inherit;" />
    <path d="M56.4944 26.9047V37.3987H57.9704V29.2987H57.9884L63.7484 37.3987H65.1344V26.9047H63.6584V34.7887H63.6404L57.8804 26.9047H56.4944Z" style="fill:inherit;" />
    <path d="M67.5192 32.2147C67.5192 35.5267 69.3012 37.5427 72.7392 37.5427C74.1612 37.5427 75.3312 37.1827 75.8172 36.8587V35.5627C74.9172 36.1027 74.0532 36.3007 72.9192 36.3007C70.5612 36.3007 69.0852 34.8607 69.0852 31.9447C69.0852 29.4247 70.5072 27.9667 72.6132 27.9667C73.7832 27.9667 74.7192 28.1467 75.8172 28.7947V27.3367C75.2592 27.1207 74.5212 26.7427 72.7032 26.7427C69.2832 26.7427 67.5192 29.2447 67.5192 32.2147Z" style="fill:inherit;" />
    <path d="M79.574 36.1747V32.6287H83.588V31.4047H79.574V28.1287H84.416V26.9047H78.098V37.3987H84.542V36.1747H79.574Z" style="fill:inherit;" />
    <path d="M94.7543 26.9047H85.7003V28.1287H89.4623V37.3987H90.9383V28.1287H94.7543V26.9047Z" style="fill:inherit;" />
    <path d="M95.486 32.3587C95.486 35.2207 97.196 37.5427 100.31 37.5427C103.676 37.5427 105.368 34.7527 105.368 31.8367C105.368 29.0827 103.766 26.7427 100.598 26.7427C97.376 26.7427 95.486 29.2087 95.486 32.3587ZM103.802 32.0887C103.802 34.2127 102.812 36.3007 100.364 36.3007C98.114 36.3007 97.052 34.3027 97.052 32.0707C97.052 29.6947 98.24 27.9847 100.472 27.9847C102.668 27.9847 103.802 29.7847 103.802 32.0887Z" style="fill:inherit;" />
    <path d="M107.752 26.9047V37.3987H109.228V29.2987H109.246L115.006 37.3987H116.392V26.9047H114.916V34.7887H114.898L109.138 26.9047H107.752Z" style="fill:inherit;" />
    <path d="M173.62 101.998H170.362V112.492H171.838V108.532H172.918C175.798 108.532 177.184 107.074 177.184 105.202C177.184 102.988 175.726 101.998 173.62 101.998ZM172.828 107.308H171.838V103.222H173.098C174.736 103.24 175.672 103.888 175.672 105.256C175.672 106.948 174.448 107.254 172.828 107.308Z" style="fill:inherit;" />
    <path d="M187.049 112.492L184.223 108.1C185.501 107.524 186.131 106.462 186.131 105.202C186.131 102.988 184.673 101.998 182.567 101.998H179.309V112.492H180.785V108.532H181.865C182.207 108.532 182.531 108.514 182.819 108.478L185.231 112.492H187.049ZM181.775 107.308H180.785V103.222H182.045C183.683 103.24 184.619 103.888 184.619 105.256C184.619 106.948 183.413 107.308 181.775 107.308Z" style="fill:inherit;" />
    <path d="M188.224 107.452C188.224 110.314 189.934 112.636 193.048 112.636C196.414 112.636 198.106 109.846 198.106 106.93C198.106 104.176 196.504 101.836 193.336 101.836C190.114 101.836 188.224 104.302 188.224 107.452ZM196.54 107.182C196.54 109.306 195.55 111.394 193.102 111.394C190.852 111.394 189.79 109.396 189.79 107.164C189.79 104.788 190.978 103.078 193.21 103.078C195.406 103.078 196.54 104.878 196.54 107.182Z" style="fill:inherit;" />
    <path d="M198.697 113.212L199.831 113.95C201.343 112.384 202.225 110.89 202.225 109.27V101.998H200.749V109.342C200.749 110.728 199.723 111.934 198.697 113.212Z" style="fill:inherit;" />
    <path d="M206.607 111.268V107.722H210.621V106.498H206.607V103.222H211.449V101.998H205.131V112.492H211.575V111.268H206.607Z" style="fill:inherit;" />
    <path d="M213.062 107.308C213.062 110.62 214.844 112.636 218.282 112.636C219.704 112.636 220.874 112.276 221.36 111.952V110.656C220.46 111.196 219.596 111.394 218.462 111.394C216.104 111.394 214.628 109.954 214.628 107.038C214.628 104.518 216.05 103.06 218.156 103.06C219.326 103.06 220.262 103.24 221.36 103.888V102.43C220.802 102.214 220.064 101.836 218.246 101.836C214.826 101.836 213.062 104.338 213.062 107.308Z" style="fill:inherit;" />
    <path d="M231.561 101.998H222.507V103.222H226.269V112.492H227.745V103.222H231.561V101.998Z" style="fill:inherit;" />
    <path d="M62.8578 67.3934V84.0874C60.4839 84.7766 57.8803 85.2361 54.8937 85.2361C44.862 85.2361 38.5826 79.1099 38.5826 66.7042C38.5826 55.9833 45.3981 49.7805 54.3577 49.7805C59.3352 49.7805 64.3128 50.9292 68.9841 53.686V47.4832C66.6102 46.5642 62.4749 44.5732 54.7406 44.5732C40.1908 44.5732 31.9203 55.2175 31.9203 67.8529C31.9203 81.9432 39.5016 90.52 54.1279 90.52C60.1776 90.52 64.6191 88.9884 69.1372 86.4613V67.3934H62.8578Z" style="fill:inherit;" />
    <path d="M107.172 71.2223C107.172 61.9564 102.654 54.7581 92.8518 54.7581C83.0499 54.7581 77.3065 62.7988 77.3065 73.2899C77.3065 84.0109 82.8967 90.52 93.5411 90.52C99.1312 90.52 103.266 89.5245 106.33 87.6866V82.7856C103.113 84.3937 98.2889 85.3892 94.3834 85.3892C87.7211 85.3892 83.8157 81.7901 83.4328 73.9026H107.172V71.2223ZM92.6221 59.8888C98.0591 59.8888 100.433 63.8709 100.739 69.3079H83.5859C84.5049 61.9564 88.2572 59.8888 92.6221 59.8888Z" style="fill:inherit;" />
    <path d="M134.699 54.7581C129.492 54.7581 124.591 57.5149 121.451 59.7356L120.609 55.4473H114.789L116.244 63.6411V89.9073H121.987V63.9474C125.28 61.9564 129.415 59.8888 132.555 59.8888C137.839 59.8888 139.064 62.4159 139.064 67.7763V89.9073H144.884V67.1637C144.884 58.2807 141.591 54.7581 134.699 54.7581Z" style="fill:inherit;" />
    <path d="M160.175 38.2938C157.724 38.2938 155.886 40.0551 155.886 42.429C155.886 44.8029 157.724 46.6408 160.175 46.6408C162.549 46.6408 164.463 44.8029 164.463 42.429C164.463 40.0551 162.549 38.2938 160.175 38.2938ZM162.931 55.4473H151.598V60.578H157.188V89.9073H162.931V55.4473Z" style="fill:inherit;" />
    <path d="M179.951 84.7766L198.177 55.6004L198.024 55.4473H171.528V60.578H188.835L170.762 89.6776L170.839 89.9073H198.713V84.7766H179.951Z" style="fill:inherit;" />
    <path d="M231.92 89.9073L230.619 82.173V64.9429C230.619 57.3617 225.335 54.7581 219.055 54.7581C214.843 54.7581 209.024 55.7536 206.267 56.9788V62.1096C209.177 61.0375 214.384 59.8888 218.06 59.8888C221.889 59.8888 224.875 61.0375 224.875 66.2448V70.4566H220.357C210.402 70.4566 204.352 73.9026 204.352 80.8711C204.352 86.5379 207.569 90.52 214.154 90.52C218.979 90.52 222.961 88.0695 225.411 86.155L226.1 89.9073H231.92ZM210.172 80.4117C210.172 76.5062 213.159 74.9747 219.208 74.9747H224.875V81.8667C221.889 83.9343 218.289 85.619 215.073 85.619C211.704 85.619 210.172 83.7045 210.172 80.4117Z" style="fill:inherit;" />
</svg>