<svg width="2000" height="188" viewBox="0 0 2000 188" fill="none" xmlns="http://www.w3.org/2000/svg">
    <g clip-path="url(#clip0_431_29530)">
        <g filter="url(#filter0_d_431_29530)">
            <path d="M569.514 140.278C571.5 142.278 578.277 142.028 583.514 140.278C586.681 139.484 602.875 126.179 613.889 118.375C615.902 117.02 623.129 112.642 626.264 106C626.528 105.439 626.768 104.903 626.997 104.344C627.195 103.861 627.384 103.361 627.576 102.813C631.06 92.8608 629.636 76.4535 627.24 54.9226C629.779 76.1133 633.823 102.045 633.823 102.045C633.823 102.045 634.639 105.063 635.701 105.625C636.764 106.188 637.232 107.313 637.232 107.313C637.92 108.688 640.589 118.375 641.514 118.375C646.139 118.375 652.514 120.75 656.514 123.278C658.223 124.358 660.663 125.428 662.897 126.299C665.89 127.467 668.514 128.278 668.514 128.278L2000 128.278L2000 0.000102993L-6.07979e-06 0.000106812L-2.38795e-06 129.5L49.7637 129.5L63.2012 132.188L72.9512 142.375C72.9512 142.375 86.3262 148 87.8262 148.313C89.3262 148.625 94.8262 148.313 95.3887 146.563C95.9512 144.813 88.9512 136.813 89.3262 135.063C89.7012 133.313 106.076 119.938 106.639 118.5C107.201 117.063 105.576 113 106.639 112C107.701 111 114.639 106 116.951 105.625C119.264 105.25 120.514 111 120.514 111L126.277 111C126.277 111 130.277 119.75 130.027 122C129.777 124.25 138.973 124.75 141.5 127.25C144.027 129.75 148.041 135.75 152.277 135.75C156.514 135.75 174.514 128.278 174.514 128.278L190.514 117.278L202.514 112.278C202.514 112.278 212.527 110.778 215.514 112.278C218.5 113.778 221.527 123.278 225.514 123.278C229.5 123.278 240.777 117.278 244.514 117.278C248.25 117.278 251.777 128.278 255.514 128.278C259.25 128.278 279.5 121.028 279.514 123.278C279.527 125.528 268.639 132.18 267.514 135.278C266.389 138.376 297.014 158 298.514 156.758C300.014 155.517 298.514 135.278 298.514 135.278L311.514 128.278L335.514 128.278L347.514 123.278L361.514 123.278L375.514 135.278C375.514 135.278 373.777 143.028 375.514 145.278C377.25 147.528 392.514 140.278 392.514 140.278C392.514 140.278 396.027 145.278 398.514 145.278C401 145.278 408.514 135.278 408.514 135.278C408.514 135.278 430.027 145.278 433.514 145.278C437 145.278 452.514 123.278 452.514 123.278C452.514 123.278 469.764 117.125 471.514 117.278C471.514 117.278 477.027 121.778 481.514 123.278C486 124.778 525.5 128.778 530.514 128.278C535.527 127.778 545.764 123.375 549.514 123.278C553.264 123.18 562.514 128.278 562.514 128.278C562.514 128.278 567.527 138.278 569.514 140.278Z" fill="rgba(255,255,255,0.01)" />
        </g>
    </g>
    <defs>
        <filter id="filter0_d_431_29530" x="-20" y="-16.9999" width="2000" height="196.815" filterUnits="userSpaceOnUse" color-interpolation-filters="sRGB">
            <feFlood flood-opacity="0" result="BackgroundImageFix" />
            <feColorMatrix in="SourceAlpha" type="matrix" values="0 0 0 0 0 0 0 0 0 0 0 0 0 0 0 0 0 0 127 0" result="hardAlpha" />
            <feOffset dy="3" />
            <feGaussianBlur stdDeviation="10" />
            <feComposite in2="hardAlpha" operator="out" />
            <feColorMatrix type="matrix" values="0 0 0 0 0.337255 0 0 0 0 0.470588 0 0 0 0 0.337255 0 0 0 1 0" />
            <feBlend mode="normal" in2="BackgroundImageFix" result="effect1_dropShadow_431_29530" />
            <feBlend mode="normal" in="SourceGraphic" in2="effect1_dropShadow_431_29530" result="shape" />
        </filter>
    </defs>
</svg>
