<svg width="321" height="127" viewBox="0 0 321 127" fill="none" xmlns="http://www.w3.org/2000/svg">
<g clip-path="url(#clip0_431_29627)">
<path d="M22.372 81.963L0.429904 81.963L0.429911 2.53134e-06L320.555 0L320.555 81.963L284.122 83.1851L270.685 85.873L260.935 96.0605C260.935 96.0605 247.56 101.686 246.06 101.998C244.56 102.311 239.06 101.998 238.497 100.248C237.935 98.498 244.935 90.498 244.56 88.748C244.185 86.998 227.81 73.623 227.247 72.1855C226.685 70.748 228.31 66.6855 227.247 65.6855C226.185 64.6855 219.247 59.6855 216.935 59.3105C214.622 58.9355 213.372 64.6847 213.372 64.6847L207.609 64.6847C207.609 64.6847 203.609 73.4347 203.859 75.6847C204.109 77.9347 194.913 78.4347 192.386 80.9347C189.859 83.4347 185.845 89.4347 181.609 89.4347C177.372 89.4347 159.372 81.963 159.372 81.963L143.372 70.963L131.372 65.963C131.372 65.963 121.359 64.4627 118.372 65.963C115.386 67.4632 112.359 76.963 108.372 76.963C104.386 76.963 93.1087 70.963 89.3723 70.963C85.636 70.963 82.1087 81.963 78.3723 81.963C74.636 81.963 54.3857 74.713 54.372 76.963C54.3584 79.213 65.2472 85.865 66.3722 88.963C67.4972 92.061 36.872 111.685 35.372 110.444C33.872 109.202 35.372 88.963 35.372 88.963L22.372 81.963Z" fill="url(#paint0_linear_431_29627)"/>
</g>
<defs>
<linearGradient id="paint0_linear_431_29627" x1="0.429705" y1="110.5" x2="329.523" y2="110.5" gradientUnits="userSpaceOnUse">
<stop stop-color="#161616" stop-opacity="0"/>
<stop offset="0.633628" stop-color="#161616" stop-opacity="0.58"/>
<stop offset="1" stop-color="#161616" stop-opacity="0.83"/>
</linearGradient>
<clipPath id="clip0_431_29627">
<rect width="320" height="127" fill="white" transform="translate(0.555176)"/>
</clipPath>
</defs>
</svg>
