<svg id="caret-up-down" width="16" height="16" viewBox="0 0 16 16"
    xmlns="http://www.w3.org/2000/svg">
    <path
        d="M11.354 9.64664C11.4005 9.69308 11.4374 9.74822 11.4626 9.80892C11.4877 9.86962 11.5007 9.93469 11.5007 10.0004C11.5007 10.0661 11.4877 10.1312 11.4626 10.1919C11.4374 10.2526 11.4005 10.3077 11.354 10.3541L8.35403 13.3541C8.30759 13.4006 8.25245 13.4375 8.19175 13.4627C8.13105 13.4878 8.06599 13.5008 8.00028 13.5008C7.93457 13.5008 7.86951 13.4878 7.80881 13.4627C7.74811 13.4375 7.69296 13.4006 7.64653 13.3541L4.64653 10.3541C4.55271 10.2603 4.5 10.1331 4.5 10.0004C4.5 9.86771 4.55271 9.74046 4.64653 9.64664C4.74035 9.55282 4.8676 9.50011 5.00028 9.50011C5.13296 9.50011 5.26021 9.55282 5.35403 9.64664L8.00028 12.2935L10.6465 9.64664C10.693 9.60015 10.7481 9.56328 10.8088 9.53811C10.8695 9.51295 10.9346 9.5 11.0003 9.5C11.066 9.5 11.131 9.51295 11.1917 9.53811C11.2524 9.56328 11.3076 9.60015 11.354 9.64664Z"
        fill="inherit" />
    <path
        d="M8.00028 2.70727L5.35403 5.35414C5.26021 5.44796 5.13296 5.50067 5.00028 5.50067C4.8676 5.50067 4.74035 5.44796 4.64653 5.35414C4.55271 5.26032 4.5 5.13308 4.5 5.00039C4.5 4.86771 4.55271 4.74046 4.64653 4.64664L7.64653 1.64664C7.69296 1.60016 7.74811 1.56328 7.80881 1.53811C7.86951 1.51295 7.93457 1.5 8.00028 1.5C8.06599 1.5 8.13105 1.51295 8.19175 1.53811C8.25245 1.56328 8.30759 1.60016 8.35403 1.64664L11.354 4.64664C11.4478 4.74046 11.5006 4.86771 11.5006 5.00039C11.5006 5.13308 11.4478 5.26032 11.354 5.35414C11.2602 5.44796 11.133 5.50067 11.0003 5.50067C10.8676 5.50067 10.7403 5.44796 10.6465 5.35414L8.00028 2.70727Z"
        fill="currentColor" />
</svg>