<?xml version="1.0" encoding="utf-8"?>
<svg width="40" height="32" viewBox="0 0 40 32" fill="inherit" xmlns="http://www.w3.org/2000/svg">
    <g transform="matrix(1, 0, 0, 1, -16.5, -8)">
        <path d="M16.5 16.5938C16.5 21.3399 20.3476 25.1875 25.0938 25.1875C29.8399 25.1875 33.6875 21.3399 33.6875 16.5938C33.6875 11.8476 29.8399 8 25.0938 8C20.3476 8 16.5 11.8476 16.5 16.5938Z" fill="inherit" />
        <path d="M36.4375 39.6562C20.6375 34.6562 16.5 22.0104 16.5 16.5938C18.6562 20 31 22.75 28.6875 24.4062C26.375 26.0625 25.0938 31.5 36.4375 39.6562Z" fill="inherit" />
        <path d="M36.4375 16.5938C36.4375 21.3399 40.2851 25.1875 45.0312 25.1875C49.7774 25.1875 53.625 21.3399 53.625 16.5938C53.625 11.8476 49.7774 8 45.0312 8C40.2851 8 36.4375 11.8476 36.4375 16.5938Z" fill="inherit" />
        <path d="M56.375 39.6562C40.575 34.6562 36.4375 22.0104 36.4375 16.5938C38.5938 20 50.9375 22.75 48.625 24.4062C46.3125 26.0625 45.0312 31.5 56.375 39.6562Z" fill="inherit" />
    </g>
</svg>
