<svg
    id="pop-out-icon"
    width="34"
    height="34"
    viewBox="0 0 34 34"
    fill="inherit"
    xmlns="http://www.w3.org/2000/svg"
>
    <path
        d="M32.7104 14.3027L24.3557 22.6856C25.0682 24.6652 25.3636 27.9809 22.2948 32.0606C22.0802 32.3474 21.8062 32.5846 21.4915 32.7558C21.1768 32.9271 20.8288 33.0283 20.4714 33.0527C20.412 33.0527 20.3542 33.0527 20.2948 33.0527C19.9663 33.0528 19.641 32.9881 19.3375 32.8624C19.034 32.7366 18.7583 32.5523 18.5261 32.3199L10.9854 24.7715L4.32449 31.4371C4.08994 31.6717 3.77182 31.8034 3.44012 31.8034C3.10841 31.8034 2.79029 31.6717 2.55574 31.4371C2.32119 31.2026 2.18942 30.8845 2.18942 30.5527C2.18942 30.221 2.32119 29.9029 2.55574 29.6684L9.22137 23.0074L1.67449 15.4606C1.42643 15.2122 1.23345 14.9144 1.10812 14.5865C0.982795 14.2586 0.927925 13.9079 0.947087 13.5574C0.966249 13.2069 1.05901 12.8644 1.21934 12.5521C1.37966 12.2398 1.60396 11.9648 1.87762 11.7449C5.84949 8.54025 9.65105 9.16993 11.3151 9.69181L19.6901 1.28712C19.9223 1.05492 20.1979 0.870716 20.5012 0.745043C20.8046 0.619371 21.1297 0.554688 21.4581 0.554688C21.7864 0.554688 22.1116 0.619371 22.4149 0.745043C22.7183 0.870716 22.9939 1.05492 23.2261 1.28712L32.7089 10.7684C33.1776 11.237 33.441 11.8725 33.4413 12.5352C33.4416 13.198 33.1787 13.8337 32.7104 14.3027Z"
        fill="inherit"
    />
</svg>
