<svg
    id="pop-out-icon"
    width="20"
    height="20"
    viewBox="0 0 20 20"
    fill="inherit"
    xmlns="http://www.w3.org/2000/svg"
>
    <path
        d="M19.0611 6.62846L13.3714 0.939705C13.2321 0.800381 13.0668 0.689861 12.8847 0.614458C12.7027 0.539054 12.5077 0.500244 12.3106 0.500244C12.1136 0.500244 11.9185 0.539054 11.7365 0.614458C11.5545 0.689861 11.3892 0.800381 11.2499 0.939705L6.22205 5.98346C5.22267 5.67033 2.9408 5.29252 0.559546 7.21533C0.395413 7.34731 0.260914 7.51238 0.164802 7.69978C0.0686911 7.88719 0.0131225 8.09273 0.00171405 8.30304C-0.00969442 8.51334 0.0233128 8.72369 0.0985872 8.9204C0.173862 9.1171 0.289716 9.29574 0.438608 9.44471L4.96861 13.9728L0.969233 17.9694C0.828503 18.1101 0.749441 18.301 0.749441 18.5C0.749441 18.699 0.828503 18.8899 0.969233 19.0306C1.10996 19.1714 1.30084 19.2504 1.49986 19.2504C1.69888 19.2504 1.88975 19.1714 2.03048 19.0306L6.02705 15.0313L10.5542 19.5585C10.6934 19.6982 10.8588 19.8092 11.0409 19.8849C11.223 19.9607 11.4182 19.9998 11.6155 20H11.7214C11.9352 19.9852 12.1434 19.9245 12.3317 19.8221C12.52 19.7197 12.684 19.578 12.8127 19.4066C14.6539 16.9597 14.4767 14.9703 14.0492 13.7816L19.062 8.75002C19.2013 8.61066 19.3118 8.44524 19.3871 8.2632C19.4624 8.08115 19.5011 7.88605 19.501 7.68904C19.501 7.49203 19.4621 7.29697 19.3866 7.11499C19.3111 6.93301 19.2005 6.76769 19.0611 6.62846ZM17.9999 7.68971L12.6308 13.0766C12.5199 13.1879 12.4468 13.3312 12.4217 13.4863C12.3967 13.6414 12.4209 13.8004 12.4911 13.941C13.378 15.7156 12.3224 17.5588 11.6155 18.4991L1.49986 8.38252C2.63236 7.46939 3.71611 7.22846 4.54486 7.22846C5.07073 7.22128 5.59226 7.32443 6.0758 7.53127C6.21686 7.60187 6.3766 7.62619 6.53229 7.60078C6.68798 7.57536 6.83169 7.5015 6.94298 7.38971L12.3111 2.00002L17.9999 7.68877V7.68971Z"
        fill="inherit"
    />
</svg>
