<svg width="321" height="932" viewBox="0 0 321 932" fill="none" xmlns="http://www.w3.org/2000/svg">
<g clip-path="url(#clip0_431_29906)">
<path d="M22.4316 54.8698L8.94531 50.0422H0.382812L-0.554688 910H320.445L320.445 49.7612L270.682 49.7612C270.682 49.7612 261.932 52.0754 259.807 52.0754C257.682 52.0754 253.557 57.633 251.682 59.3684C249.807 61.1037 235.807 65.9884 235.807 65.9884C235.807 65.9884 230.807 66.5026 228.244 65.4099C225.682 64.3173 232.841 55.109 233.307 52.5556C233.772 50.0022 217.994 38.0944 216.494 36.1662C214.994 34.2381 217.244 30.1247 215.994 28.4536C214.744 26.7825 208.578 22.0113 206.494 22.9905C204.41 23.9697 204.307 27.2967 204.307 27.2967L196.369 30.0604C196.369 30.0604 192.744 41.0509 192.182 42.0793C191.619 43.1076 184.307 44.7144 181.557 46.514C178.807 48.3136 175.168 55.7692 170.932 55.7692C166.695 55.7692 147.182 48.1851 147.182 48.1851L131.057 36.6161L119.432 31.4744C119.432 31.4744 108.807 29.9961 106.432 32.0528C104.057 34.1095 101.057 41.7579 96.9941 42.722C92.9316 43.6861 81.293 36.8732 77.5566 36.8732C73.8203 36.8732 70.918 48.2494 67.1816 48.2494C63.4453 48.2494 44.9316 42.1435 44.9316 43.3006C44.9316 44.4577 56.3066 53.7129 56.3066 54.8698C56.3066 56.0267 26.4472 79.589 23.0566 78.1362C19.6661 76.6834 22.4316 54.8698 22.4316 54.8698Z" fill="url(#paint0_linear_431_29906)"/>
</g>
<defs>
<linearGradient id="paint0_linear_431_29906" x1="-0.554688" y1="910" x2="320.445" y2="910" gradientUnits="userSpaceOnUse">
<stop stop-color="#FEFEFE" stop-opacity="0.79"/>
<stop offset="0.664879" stop-color="#FEFEFE" stop-opacity="0.72"/>
<stop offset="1" stop-color="#FEFEFE" stop-opacity="0.38"/>
</linearGradient>
<clipPath id="clip0_431_29906">
<rect width="320" height="931" fill="white" transform="translate(0.445312 0.929688)"/>
</clipPath>
</defs>
</svg>
