<svg width="321" height="900" viewBox="0 -10 321 900" fill="none" xmlns="http://www.w3.org/2000/svg">
    <g clip-path="url(#clip0_431_29523)">
        <g filter="url(#filter0_d_431_29523)">
            <path d="M23.4316 44.8698L9.94531 40.0422H1.38281L0.445312 900H321.445L321.445 39.7612L271.682 39.7612C271.682 39.7612 262.932 42.0754 260.807 42.0754C258.682 42.0754 254.557 47.633 252.682 49.3684C250.807 51.1037 236.807 55.9884 236.807 55.9884C236.807 55.9884 231.807 56.5026 229.244 55.4099C226.682 54.3173 233.841 45.109 234.307 42.5556C234.772 40.0022 218.994 28.0944 217.494 26.1662C215.994 24.2381 218.244 20.1247 216.994 18.4536C215.744 16.7825 209.578 12.0113 207.494 12.9905C205.41 13.9697 205.307 17.2967 205.307 17.2967L197.369 20.0604C197.369 20.0604 193.744 31.0509 193.182 32.0793C192.619 33.1076 185.307 34.7144 182.557 36.514C179.807 38.3136 176.168 45.7692 171.932 45.7692C167.695 45.7692 148.182 38.1851 148.182 38.1851L132.057 26.6161L120.432 21.4744C120.432 21.4744 109.807 19.9961 107.432 22.0528C105.057 24.1095 102.057 31.7579 97.9941 32.722C93.9316 33.6861 82.293 26.8732 78.5566 26.8732C74.8203 26.8732 71.918 38.2494 68.1816 38.2494C64.4453 38.2494 45.9316 32.1435 45.9316 33.3006C45.9316 34.4577 57.3066 43.7129 57.3066 44.8698C57.3066 46.0267 27.4472 69.589 24.0566 68.1362C20.6661 66.6834 23.4316 44.8698 23.4316 44.8698Z" fill="#FEFEFE" />
        </g>
    </g>
    <defs>
        <filter id="filter0_d_431_29523" x="-19.5547" y="-4.14062" width="361" height="927.141" filterUnits="userSpaceOnUse" color-interpolation-filters="sRGB">
            <feFlood flood-opacity="0" result="BackgroundImageFix" />
            <feColorMatrix in="SourceAlpha" type="matrix" values="0 0 0 0 0 0 0 0 0 0 0 0 0 0 0 0 0 0 127 0" result="hardAlpha" />
            <feOffset dy="3" />
            <feGaussianBlur stdDeviation="10" />
            <feComposite in2="hardAlpha" operator="out" />
            <feColorMatrix type="matrix" values="0 0 0 0 0.337255 0 0 0 0 0.470588 0 0 0 0 0.337255 0 0 0 1 0" />
            <feBlend mode="normal" in2="BackgroundImageFix" result="effect1_dropShadow_431_29523" />
            <feBlend mode="normal" in="SourceGraphic" in2="effect1_dropShadow_431_29523" result="shape" />
        </filter>
        <clipPath id="clip0_431_29523">
            <rect width="320" height="900" fill="white" transform="translate(0.445312)" />
        </clipPath>
    </defs>
</svg>
