<?xml version="1.0" encoding="utf-8"?>
<svg width="30" height="24" viewBox="0 0 30 24" fill="inherit" xmlns="http://www.w3.org/2000/svg">
  <g>
    <path d="M 0 6.515 C 0 10.114 2.917 13.031 6.515 13.031 C 10.114 13.031 13.031 10.114 13.031 6.515 C 13.031 2.917 10.114 0 6.515 0 C 2.917 0 0 2.917 0 6.515 Z" fill="inherit" />
    <path d="M 15.116 24 C 3.137 20.209 0 10.622 0 6.515 C 1.635 9.098 10.993 11.183 9.24 12.438 C 7.487 13.694 6.515 17.816 15.116 24 Z" fill="inherit" />
    <path d="M 15.116 6.515 C 15.116 10.114 18.033 13.031 21.631 13.031 C 25.229 13.031 28.146 10.114 28.146 6.515 C 28.146 2.917 25.229 0 21.631 0 C 18.033 0 15.116 2.917 15.116 6.515 Z" fill="inherit" />
    <path d="M 30.231 24 C 18.252 20.209 15.116 10.622 15.116 6.515 C 16.75 9.098 26.109 11.183 24.355 12.438 C 22.602 13.694 21.631 17.816 30.231 24 Z" fill="inherit" />
  </g>
</svg>