<svg width="64" height="80" viewBox="0 0 64 80" fill="none" xmlns="http://www.w3.org/2000/svg">
<g clip-path="url(#clip0_431_29163)">
<rect width="63" height="80" transform="translate(0.5)" fill="white"/>
<path d="M31.6155 16.5153C31.6155 20.1136 28.6985 23.0306 25.1002 23.0306C21.5019 23.0306 18.5849 20.1136 18.5849 16.5153C18.5849 12.917 21.5019 10 25.1002 10C28.6985 10 31.6155 12.917 31.6155 16.5153Z" fill="#567856"/>
<path d="M16.5 34C28.4787 30.2093 31.6155 20.6219 31.6155 16.5153C29.9808 19.0977 20.6224 21.1826 22.3756 22.4383C24.1288 23.694 25.1002 27.8164 16.5 34Z" fill="#567856"/>
<path d="M46.731 16.5153C46.731 20.1136 43.814 23.0306 40.2157 23.0306C36.6174 23.0306 33.7004 20.1136 33.7004 16.5153C33.7004 12.917 36.6174 10 40.2157 10C43.814 10 46.731 12.917 46.731 16.5153Z" fill="#567856"/>
<path d="M31.6155 34C43.5942 30.2093 46.731 20.6219 46.731 16.5153C45.0962 19.0977 35.7379 21.1826 37.4911 22.4383C39.2443 23.694 40.2157 27.8164 31.6155 34Z" fill="#567856"/>
<path d="M16.5 51.5153C16.5 55.1136 19.417 58.0306 23.0153 58.0306C26.6136 58.0306 29.5306 55.1136 29.5306 51.5153C29.5306 47.917 26.6136 45 23.0153 45C19.417 45 16.5 47.917 16.5 51.5153Z" fill="#567856"/>
<path d="M31.6155 69C19.6368 65.2093 16.5 55.6219 16.5 51.5153C18.1347 54.0977 27.4931 56.1826 25.7399 57.4383C23.9867 58.694 23.0153 62.8164 31.6155 69Z" fill="#567856"/>
<path d="M31.6155 51.5153C31.6155 55.1136 34.5325 58.0306 38.1308 58.0306C41.7291 58.0306 44.6461 55.1136 44.6461 51.5153C44.6461 47.917 41.7291 45 38.1308 45C34.5325 45 31.6155 47.917 31.6155 51.5153Z" fill="#567856"/>
<path d="M46.731 69C34.7523 65.2093 31.6155 55.6219 31.6155 51.5153C33.2502 54.0977 42.6086 56.1826 40.8554 57.4383C39.1022 58.694 38.1308 62.8164 46.731 69Z" fill="#567856"/>
</g>
<defs>
<clipPath id="clip0_431_29163">
<rect width="63" height="80" fill="white" transform="translate(0.5)"/>
</clipPath>
</defs>
</svg>
