<?xml version="1.0" encoding="utf-8"?>
<svg width="30" height="24" viewBox="0 0 30 24" fill="inherit" xmlns="http://www.w3.org/2000/svg">
  <g transform="matrix(1, 0, 0, 1, -0.5, 0)">
    <path d="M 15.116 6.515 C 15.116 10.114 12.199 13.031 8.6 13.031 C 5.002 13.031 2.085 10.114 2.085 6.515 C 2.085 2.917 5.002 0 8.6 0 C 12.199 0 15.116 2.917 15.116 6.515 Z" fill="inherit" />
    <path d="M 0 24 C 11.979 20.209 15.116 10.622 15.116 6.515 C 13.481 9.098 4.122 11.183 5.876 12.438 C 7.629 13.694 8.6 17.816 0 24 Z" fill="inherit" />
    <path d="M 30.231 6.515 C 30.231 10.114 27.314 13.031 23.716 13.031 C 20.117 13.031 17.2 10.114 17.2 6.515 C 17.2 2.917 20.117 0 23.716 0 C 27.314 0 30.231 2.917 30.231 6.515 Z" fill="inherit" />
    <path d="M 15.116 24 C 27.094 20.209 30.231 10.622 30.231 6.515 C 28.596 9.098 19.238 11.183 20.991 12.438 C 22.744 13.694 23.716 17.816 15.116 24 Z" fill="inherit" />
  </g>
</svg>
