<svg viewBox="0 0 71 71" fill="none" xmlns="http://www.w3.org/2000/svg">
    <path d="M35 0.359385C15.67 0.359379 1.38099e-05 16.0294 8.82783e-06 35.3594C3.84577e-06 54.6893 15.67 70.3594 34.9999 70.3594L35 0.359385Z" fill="#161616" />
    <path fill-rule="evenodd" clip-rule="evenodd" d="M30.1758 41.8991L32.1907 40.9053L29.7921 37.9339L28.4442 39.4699L26.9083 41.2024L24.5604 43.6096L22.2612 45.9046C22.2612 45.9046 20.4333 47.4872 20.6815 47.8097C20.9297 48.1323 22.3866 46.9935 22.3866 46.9935L25.6374 44.8221L28.2153 43.0546L30.1758 41.8991ZM25.529 44.6605L28.116 42.8868L30.083 41.728L31.8865 40.8384L29.7858 38.2362L28.5907 39.598L27.0481 41.3382L24.6982 43.7471L22.3941 46.0469L22.3889 46.0515L22.3877 46.0524L22.384 46.0557L22.3692 46.0686L22.3126 46.1186C22.2637 46.1619 22.1941 46.2243 22.1112 46.3002C21.9452 46.4522 21.7273 46.6575 21.5178 46.872C21.3067 47.088 21.1103 47.3071 20.983 47.4878C20.9316 47.5607 20.8963 47.6208 20.8752 47.6672C20.9045 47.6616 20.9416 47.6515 20.9869 47.6353C21.1386 47.5809 21.33 47.4775 21.5245 47.3573C21.7167 47.2385 21.9024 47.1092 22.0407 47.009C22.1096 46.9591 22.1664 46.9167 22.2058 46.8869L22.2512 46.8523L22.2628 46.8433L22.2657 46.8411L22.2665 46.8404L22.2722 46.836L25.529 44.6605Z" fill="#ebebeb" />
    <path fill-rule="evenodd" clip-rule="evenodd" d="M29.7402 31.9551C29.7402 31.9551 29.6701 31.7509 29.5477 31.4445C29.34 30.9242 28.9819 30.1093 28.5613 29.4986C27.8929 28.5282 26.465 27.0422 26.465 27.0422L26.8165 26.7058L26.8211 26.7105L26.8337 26.7237L26.8813 26.7737C26.9224 26.817 26.9816 26.8798 27.0547 26.958C27.2008 27.1144 27.4027 27.3332 27.6259 27.5828C28.0676 28.0769 28.6096 28.7106 28.9627 29.2232C29.3242 29.7481 29.6339 30.3971 29.8492 30.8996C29.8708 30.9499 29.8915 30.9991 29.9114 31.0467L31.5832 29.2179L29.8097 27.9819L27.2849 26.2082L23.7023 23.4937L20.7994 21.2479L23.9076 24.0454L26.8055 26.6943L26.8165 26.7058L26.465 27.0422L23.5787 24.4039L19.3693 20.6154C19.3693 20.6154 18.4369 19.7483 18.0157 19.151C18.0023 19.1319 17.9893 19.1131 17.977 19.0946C17.8372 18.8856 17.7702 18.7165 17.8438 18.6408C17.9066 18.5763 18.0751 18.6292 18.2995 18.7507C18.3172 18.7603 18.3352 18.7703 18.3535 18.7807C19.1557 19.2354 20.5743 20.4588 20.5743 20.4588L24.0007 23.1095L27.5724 25.8157L30.09 27.5843L32.317 29.1364L29.7402 31.9551Z" fill="#ebebeb" />
    <path fill-rule="evenodd" clip-rule="evenodd" d="M31.5332 27.817L31.587 29.7472L35.2576 28.6808L34.4386 27.1314L33.5213 25.3711L32.3359 22.7516L31.2311 20.2049C31.2311 20.2049 30.5703 18.252 30.1769 18.3579C29.7834 18.4637 30.2 19.9839 30.2 19.9839L30.7971 23.2664L31.3116 25.883L31.5332 27.817ZM31.2757 23.1762L31.7933 25.8084L32.0195 27.7825L32.0563 29.1045L34.5482 28.3806L34.0065 27.3557L33.0829 25.5835L31.8889 22.9448L30.7761 20.3796L30.7697 20.3606L30.7682 20.3563L30.7632 20.3416L30.7567 20.3233L31.2757 23.1762Z" fill="#ebebeb" />
    <path fill-rule="evenodd" clip-rule="evenodd" d="M27.5684 34.4796L29.6863 35.1385L29.9917 31.3348L27.9822 31.5271L25.7045 31.7334L22.3867 31.8733L19.1801 31.965C19.1801 31.965 16.7954 31.8621 16.7536 32.2667C16.7413 32.3852 16.8885 32.4837 17.1028 32.5637C17.1034 32.5639 17.1041 32.5641 17.1047 32.5644C17.6225 32.757 18.5289 32.8424 18.5289 32.8424L22.3323 33.4928L25.3794 33.9754L27.5684 34.4796ZM22.4116 33.0131L25.4725 33.4979L27.6958 34.0101L29.2494 34.4934L29.4597 31.8741L28.0263 32.0112L25.7368 32.2186L22.4007 32.3592L19.1766 32.4515M19.1591 32.4507L19.158 32.4507L19.1536 32.4505L19.1351 32.4498L19.1126 32.449L22.4116 33.0131" fill="#ebebeb" />
    <path fill-rule="evenodd" clip-rule="evenodd" d="M27.2312 37.9764L30.4826 38.2174L30.1909 34.4126L27.2654 34.989L23.9471 35.6309L19.0824 36.4076L14.3721 37.1155C14.3721 37.1155 12.3122 37.324 11.3444 37.6035C11.3132 37.6125 11.2831 37.6216 11.2543 37.6307C11.0057 37.7097 10.8494 37.7937 10.853 37.88C10.8573 37.981 11.0281 38.0457 11.2824 38.0859C11.3147 38.091 11.3483 38.0957 11.3831 38.1001C12.1771 38.199 13.5831 38.105 13.5831 38.105L19.3181 38.013L23.9052 37.9014L27.2312 37.9764ZM19.3082 37.5269L23.9048 37.4152L27.2548 37.4907L29.9537 37.6907L29.7471 34.9956L27.3581 35.4662L24.032 36.1096L19.1549 36.8883L14.433 37.598L14.4213 37.5992M19.3082 37.5269L14.3521 37.6065L14.3834 37.6031L14.412 37.6001L14.4213 37.5992" fill="#ebebeb" />
    <path fill-rule="evenodd" clip-rule="evenodd" d="M34.142 43.6086L35.3669 40.5928L31.6488 39.7055C31.6488 39.7055 31.6637 39.9019 31.6823 40.2133C31.7135 40.7332 31.755 41.5736 31.755 42.3566C31.755 43.6086 31.3031 46.1169 31.3031 46.1169L30.3235 51.1393L29.3854 55.5645C29.3854 55.5645 28.9538 57.5856 28.9241 58.5908C28.9232 58.6233 28.9226 58.6547 28.9225 58.6849C28.9217 58.9453 28.9541 59.1195 29.0374 59.1425C29.1351 59.1693 29.2491 59.0268 29.3653 58.7975C29.38 58.7684 29.3948 58.7378 29.4096 58.7061C29.747 57.9818 30.0876 56.6171 30.0876 56.6171L31.755 51.1393L33.0525 46.7462L34.142 43.6086ZM31.2884 50.9998L32.5886 46.5977L33.6859 43.4376L34.7027 40.9341L32.1771 40.3314C32.1808 40.3962 32.1845 40.4646 32.1883 40.5361C32.2151 41.0463 32.2421 41.7185 32.2421 42.3566C32.2421 43.0216 32.124 43.9933 32.0112 44.7755C31.9541 45.1716 31.897 45.5279 31.8542 45.7851C31.8328 45.9137 31.815 46.0178 31.8024 46.0899L31.7878 46.1731L31.7839 46.1951L31.7826 46.2024C31.7826 46.2024 31.7825 46.203 31.3031 46.1169L31.7826 46.2024L31.7813 46.2098L30.8001 51.2399L29.8619 55.6651M31.2884 50.9998L29.8478 55.7326L29.8539 55.703L29.8598 55.6749L29.8619 55.6651" fill="#ebebeb" />
    <path d="M35 70.3594C54.3299 70.3594 69.9999 54.6893 69.9999 35.3594C69.9999 16.0294 54.3299 0.359378 35 0.359375L35 70.3594Z" fill="#ebebeb" />
    <path d="M39.8953 9.91098C40.2434 9.98494 39.7159 13.4932 39.7159 13.4932L39.209 18.2177L38.724 23.1073L38.4881 26.4676L38.2889 29.4323L35.0001 28.8671C35.0001 28.8671 35.6926 27.7412 36.1787 26.4676C36.6648 25.1939 36.9687 23.6765 37.2117 22.5848C37.4548 21.493 37.7949 18.998 37.9409 18.2177C38.0869 17.4374 39.0638 12.5077 39.0638 12.5077C39.0638 12.5077 39.5472 9.83703 39.8953 9.91098Z" fill="#ebebeb" />
    <path fill-rule="evenodd" clip-rule="evenodd" d="M35.0001 28.8671C35.0001 28.8671 35.1037 28.6986 35.2589 28.4183C35.505 27.9739 35.8807 27.2486 36.1787 26.4676C36.606 25.3481 36.8924 24.0404 37.1205 22.999C37.152 22.8554 37.1823 22.717 37.2117 22.5848C37.3648 21.897 37.5565 20.6522 37.7139 19.6301C37.8063 19.0299 37.8869 18.5064 37.9409 18.2177C38.0869 17.4374 39.0638 12.5077 39.0638 12.5077C39.1899 12.5326 39.2827 12.5509 39.351 12.5644C39.351 12.5644 39.351 12.5644 39.351 12.5644L39.0638 12.5077C39.0638 12.5077 39.2797 11.315 39.5268 10.5458C39.5551 10.4576 39.5839 10.375 39.6127 10.3004C39.7089 10.0519 39.8065 9.89212 39.8953 9.91098C39.9709 9.92705 40.0052 10.1051 40.0126 10.374C40.0147 10.4515 40.0146 10.5364 40.0126 10.6272C39.9896 11.6731 39.7159 13.4932 39.7159 13.4932L39.209 18.2177L38.724 23.1073L38.4881 26.4676L38.2889 29.4323L35.0001 28.8671ZM35.7662 28.5055L37.8391 28.8617L38.0022 26.4336L38.2387 23.0664L38.7247 18.1659L39.0609 15.0326C39.0523 15.0763 39.0436 15.1201 39.035 15.1641C38.7722 16.4957 38.4921 17.9199 38.4197 18.307C38.3672 18.5874 38.2886 19.0978 38.1968 19.6942C38.164 19.9071 38.1296 20.1309 38.094 20.3592C37.9609 21.2131 37.8128 22.1261 37.6872 22.6902C37.6583 22.8201 37.6283 22.9571 37.597 23.1C37.3699 24.1377 37.0752 25.4844 36.6339 26.6406C36.3813 27.3025 36.0769 27.9215 35.8375 28.3725C35.8131 28.4186 35.7893 28.4629 35.7662 28.5055Z" fill="black" />
    <path d="M58.9959 31.6713C59.0131 32.0778 55.4768 32.4357 55.4768 32.4357L50.7666 33.1437L45.9018 33.9204L42.5835 34.5623L39.6581 35.1386L39.3664 31.3339L42.6178 31.5749L45.9437 31.6499L50.5309 31.5383L56.2659 31.4463C56.2659 31.4463 58.9788 31.2648 58.9959 31.6713Z" fill="#ebebeb" />
    <path fill-rule="evenodd" clip-rule="evenodd" d="M42.6178 31.5749L39.3664 31.3339L39.6581 35.1386L42.5835 34.5623L45.9018 33.9204L50.7666 33.1437L55.4768 32.4357C55.4768 32.4357 57.5367 32.2272 58.5046 31.9478C58.5358 31.9388 58.5658 31.9297 58.5946 31.9205C58.8432 31.8416 58.9996 31.7576 58.9959 31.6713C58.9917 31.5703 58.8209 31.5056 58.5666 31.4653C58.5343 31.4602 58.5007 31.4555 58.4659 31.4512C57.6719 31.3522 56.2659 31.4463 56.2659 31.4463L50.5309 31.5383L45.9437 31.6499L42.6178 31.5749ZM50.5407 32.0243L45.9442 32.1361L42.5942 32.0606L39.8953 31.8605L40.1019 34.5557L42.4909 34.0851L45.817 33.4417L50.694 32.663L55.416 31.9533L55.4277 31.9521M50.5407 32.0243L55.4969 31.9448L55.4656 31.9482L55.4369 31.9512L55.4277 31.9521" fill="black" />
    <path d="M53.5204 40.09C53.3946 40.4768 50.8992 39.8278 50.8992 39.8278L47.4972 39.1805L43.9682 38.5549L41.5232 38.2335L39.3642 37.96L40.4535 34.3023L42.5553 35.4349L44.7633 36.4323L47.8812 37.6059L51.7632 39.1176C51.7632 39.1176 53.6462 39.7031 53.5204 40.09Z" fill="#ebebeb" />
    <path fill-rule="evenodd" clip-rule="evenodd" d="M42.5553 35.4349L40.4535 34.3023L39.3642 37.96L41.5232 38.2335L43.9682 38.5549L47.4972 39.1805L50.8992 39.8278C50.8992 39.8278 53.3946 40.4768 53.5204 40.09C53.6462 39.7031 51.7632 39.1176 51.7632 39.1176L47.8812 37.6059L44.7633 36.4323L42.5553 35.4349ZM47.8104 37.787L44.6828 36.6098L42.4625 35.6065L40.5719 34.5871L39.6163 37.7959L41.5477 38.0406L44.0023 38.3633L47.5336 38.9895L50.9484 39.6392L50.9499 39.64L50.955 39.6413L50.9754 39.6466L51.0536 39.6662C51.1213 39.683 51.2183 39.7066 51.3352 39.7338C51.5693 39.7881 51.8816 39.8564 52.1968 39.9125C52.5141 39.969 52.8262 40.0118 53.0628 40.0178C53.1554 40.0202 53.2289 40.0167 53.2832 40.0088C53.2598 39.9874 53.2286 39.9626 53.1883 39.9349C53.0458 39.8368 52.8366 39.7335 52.6122 39.6374C52.3903 39.5424 52.1634 39.4588 51.9912 39.3987C51.9053 39.3687 51.8334 39.3447 51.7832 39.3283L51.7251 39.3095L51.7101 39.3048L51.7063 39.3036L51.7053 39.3033L51.6922 39.2992L47.8104 37.787ZM53.334 40.0678C53.3342 40.0684 53.334 40.0678 53.334 40.0678Z" fill="black" />
    <path d="M39.3972 52.9283C39.0997 52.9922 38.4988 50.8254 38.4988 50.8254L37.5282 47.9694L36.4923 45.0257L35.7033 43.0324L35 41.2765L37.7715 40.5967L37.9046 42.6634L38.1669 44.7552L38.6869 47.612L39.3021 51.19C39.3021 51.19 39.6946 52.8644 39.3972 52.9283Z" fill="#ebebeb" />
    <path fill-rule="evenodd" clip-rule="evenodd" d="M37.9046 42.6634L37.7715 40.5967L35 41.2765L35.7033 43.0324L36.4923 45.0257L37.5282 47.9694L38.4988 50.8254C38.4988 50.8254 38.751 51.7348 39.0095 52.358C39.0389 52.4288 39.0684 52.496 39.0976 52.5576C39.208 52.7909 39.3144 52.9461 39.3972 52.9283C39.4947 52.9074 39.5181 52.7132 39.5054 52.4617C39.5018 52.3903 39.4953 52.3143 39.4868 52.2363C39.4337 51.7513 39.3021 51.19 39.3021 51.19L38.6869 47.612L38.1669 44.7552L37.9046 42.6634ZM38.4709 49.2297L38.2073 47.6966L37.6853 44.8289L37.4194 42.7093L37.3227 41.2073L35.6602 41.6152L36.1563 42.8538L36.9488 44.8558L37.9895 47.8132L38.4709 49.2297Z" fill="black" />
    <path d="M51.5102 52.7345C51.2015 53.0001 48.799 50.528 48.799 50.528L45.636 47.2696L42.4155 44.0551C42.4155 44.0551 40.6885 42.3909 39.9978 41.8717C39.3071 41.3524 37.187 40.1539 37.187 40.1539L39.9978 37.5675L41.7594 40.1948L43.6961 42.7757L46.5358 46.2017L50.0489 50.5144C50.0489 50.5144 51.8189 52.4688 51.5102 52.7345Z" fill="#ebebeb" />
    <path fill-rule="evenodd" clip-rule="evenodd" d="M41.7594 40.1948L39.9978 37.5675L37.187 40.1539C37.187 40.1539 37.363 40.2534 37.63 40.4075C38.29 40.7881 39.5061 41.502 39.9978 41.8717C40.6885 42.3909 42.4155 44.0551 42.4155 44.0551L45.636 47.2696L48.799 50.528C48.799 50.528 50.1966 51.9661 50.9969 52.5307C51.0203 52.5472 51.0432 52.563 51.0655 52.578C51.2808 52.7222 51.4439 52.7916 51.5102 52.7345C51.588 52.6676 51.5339 52.4935 51.4094 52.2706C51.3951 52.245 51.3799 52.2189 51.3639 52.1921C50.9647 51.5256 50.0489 50.5144 50.0489 50.5144L46.5358 46.2017L43.6961 42.7757L41.7594 40.1948ZM46.1592 46.5099L43.3133 43.0765L41.3618 40.4759L39.9095 38.31L38.005 40.0624C38.1763 40.1617 38.3741 40.2771 38.5817 40.3998C39.1924 40.761 39.9198 41.2044 40.2908 41.4833C40.6601 41.761 41.2836 42.3251 41.7974 42.8021C42.0582 43.0442 42.2971 43.2699 42.4707 43.4349C42.5576 43.5174 42.6282 43.5849 42.6772 43.6318L42.7337 43.686L42.7534 43.705L42.76 43.7113L45.9859 46.9313L49.1485 50.1895L49.1548 50.1959L49.1743 50.2158L49.1953 50.2372L46.1592 46.5099Z" fill="black" />
    <path d="M49.3527 22.361C49.6061 22.6796 47.8039 24.2913 47.8039 24.2913L45.5421 26.623L43.2334 29.0676L41.7257 30.8247L40.4028 32.3821L37.9565 29.4498L39.9551 28.4236L41.8967 27.2367L44.4457 25.428L47.661 23.2045C47.661 23.2045 49.0993 22.0425 49.3527 22.361Z" fill="#ebebeb" />
    <path fill-rule="evenodd" clip-rule="evenodd" d="M39.9551 28.4236L37.9565 29.4498L40.4028 32.3821L41.7257 30.8247L43.2334 29.0676L45.5421 26.623L47.8039 24.2913C47.8039 24.2913 48.8232 23.3798 49.2208 22.7922C49.221 22.7921 49.2207 22.7924 49.2208 22.7922C49.3517 22.5987 49.4155 22.4399 49.3527 22.361C49.2788 22.2682 49.1043 22.3011 48.8941 22.3944C48.893 22.3949 48.892 22.3953 48.8909 22.3958C48.3801 22.6236 47.661 23.2045 47.661 23.2045L44.4457 25.428L41.8967 27.2367L39.9551 28.4236ZM44.7255 25.8259L42.1652 27.6426L40.194 28.8476L38.7195 29.6047L40.4062 31.6264L41.3558 30.5085L42.871 28.7426L45.1922 26.2848L47.4661 23.9408L47.4797 23.9286L47.4831 23.9255L47.4971 23.9129L47.5136 23.8979L44.7255 25.8259Z" fill="black" />
    <mask id="mask0_2117_49271" style="mask-type:alpha" maskUnits="userSpaceOnUse" x="35" y="0" width="35" height="71">
        <path d="M35.0001 70.3296C54.33 70.3296 70 54.6887 70 35.3946C70 16.1004 54.33 0.459476 35.0001 0.459473L35.0001 70.3296Z" fill="#ebebeb" />
    </mask>
    <g mask="url(#mask0_2117_49271)">
        <path d="M41.6099 34.1806C42.0522 37.8054 39.4667 41.1018 35.8352 41.5432C32.2036 41.9847 28.9011 39.404 28.4589 35.7792C28.0166 32.1543 30.6021 28.858 34.2336 28.4165C37.8652 27.9751 41.1677 30.5558 41.6099 34.1806Z" fill="#ebebeb" />
        <path fill-rule="evenodd" clip-rule="evenodd" d="M35.7826 41.1126C39.1759 40.7001 41.5917 37.62 41.1785 34.233C40.7652 30.846 37.6795 28.4347 34.2862 28.8472C30.8929 29.2597 28.4771 32.3397 28.8903 35.7267C29.3036 39.1137 32.3894 41.525 35.7826 41.1126ZM35.8352 41.5432C39.4667 41.1018 42.0522 37.8054 41.6099 34.1806C41.1677 30.5558 37.8652 27.9751 34.2336 28.4165C30.6021 28.858 28.0166 32.1543 28.4589 35.7792C28.9011 39.404 32.2036 41.9847 35.8352 41.5432Z" fill="black" />
    </g>
    <mask id="mask1_2117_49271" style="mask-type:alpha" maskUnits="userSpaceOnUse" x="0" y="0" width="35" height="71">
        <path d="M35 70.3296C15.6701 70.3296 5.1351e-05 54.6887 5.47279e-05 35.3945C5.81047e-05 16.1004 15.6701 0.459469 35 0.459473L35 70.3296Z" fill="#ebebeb" />
    </mask>
    <g mask="url(#mask1_2117_49271)">
        <path d="M41.3896 34.184C41.8318 37.8088 39.2464 41.1052 35.6148 41.5466C31.9833 41.9881 28.6808 39.4074 28.2385 35.7826C27.7963 32.1577 30.3817 28.8614 34.0133 28.42C37.6448 27.9785 40.9473 30.5592 41.3896 34.184Z" fill="#161616" />
        <path fill-rule="evenodd" clip-rule="evenodd" d="M35.5623 41.116C38.9555 40.7035 41.3713 37.6234 40.9581 34.2365C40.5449 30.8495 37.4591 28.4381 34.0658 28.8506C30.6725 29.2631 28.2567 32.3431 28.67 35.7301C29.0832 39.1171 32.169 41.5284 35.5623 41.116ZM35.6148 41.5466C39.2464 41.1052 41.8318 37.8088 41.3896 34.184C40.9473 30.5592 37.6448 27.9785 34.0133 28.42C30.3817 28.8614 27.7963 32.1577 28.2385 35.7826C28.6808 39.4074 31.9833 41.9881 35.6148 41.5466Z" fill="#ebebeb" />
    </g>
</svg>