<svg id="pin" viewBox="0 0 22 28" fill="inherit" xmlns="http://www.w3.org/2000/svg">
    <path
        d="M10.7131 27.4092L10.7124 27.4087C10.5171 27.2724 7.94838 25.4487 5.43356 22.5029C2.91177 19.5488 0.500099 15.532 0.5 11.0003C0.503234 8.21643 1.61055 5.54752 3.57903 3.57903C5.54745 1.61061 8.21625 0.503308 11 0.5C13.7837 0.503308 16.4525 1.61061 18.421 3.57903C20.3895 5.54759 21.4968 8.21661 21.5 11.0006C21.4998 15.5322 19.0882 19.5489 16.5664 22.5029C14.0516 25.4487 11.4829 27.2724 11.2876 27.4087L11.2869 27.4092C11.2028 27.4681 11.1026 27.4997 11 27.4997C10.8974 27.4997 10.7972 27.4681 10.7131 27.4092Z"
        fill="inherit" stroke="currentColor" />
</svg>
