<svg id="pin" width="37" height="37" viewBox="0 0 37 37" fill="inherit"
    xmlns="http://www.w3.org/2000/svg">
    <path
        d="M 30.498 23.675 C 30.635 23.608 30.792 23.597 30.937 23.642 C 34.944 25.138 36.75 27.174 36.75 29.164 C 36.75 30.246 36.261 31.243 35.307 32.161 C 34.342 33.089 32.93 33.905 31.184 34.578 C 27.694 35.924 23.041 36.636 18.5 36.636 C 13.959 36.636 9.306 35.924 5.816 34.578 C 4.07 33.905 2.658 33.089 1.694 32.161 C 0.739 31.243 0.25 30.246 0.25 29.164 C 0.25 27.174 2.056 25.138 6.063 23.644 C 6.208 23.598 6.365 23.61 6.502 23.677 C 6.643 23.745 6.755 23.868 6.81 24.02 C 6.866 24.172 6.861 24.341 6.796 24.489 C 6.733 24.634 6.619 24.747 6.479 24.808 C 5.038 25.347 3.829 25.991 2.964 26.687 C 2.13 27.36 1.464 28.206 1.464 29.164 C 1.464 30.071 2.061 30.89 2.857 31.56 C 3.679 32.252 4.85 32.902 6.303 33.463 C 9.216 34.586 13.382 35.395 18.5 35.395 C 23.618 35.395 27.784 34.586 30.697 33.463 C 32.15 32.902 33.321 32.252 34.143 31.56 C 34.939 30.89 35.536 30.071 35.536 29.164 C 35.536 28.206 34.87 27.36 34.036 26.687 C 33.171 25.991 31.963 25.346 30.522 24.806 C 30.381 24.746 30.267 24.632 30.204 24.487 C 30.139 24.339 30.134 24.17 30.19 24.018 C 30.245 23.866 30.357 23.744 30.498 23.675 Z"
        fill="currentColor" />
    <path d="M 18.25 3.516 L 29.25 14.626 L 7.25 14.626 L 18.25 3.516 Z"
        transform="matrix(1, 0, -0.005132240243, 1, 0.300546318293, -3.151646852493)" fill="white" />
    <path
        d="M 7.5 11.365 C 7.5 20.777 17.5 27.886 17.926 28.184 C 18.094 28.301 18.295 28.364 18.5 28.364 C 18.705 28.364 18.906 28.301 19.074 28.184 C 19.5 27.886 29.5 20.777 29.5 11.365 M 7.5 11.365 L 8.125 11.365 C 8.125 11.365 8.125 11.365 8.125 11.365 M 7.5 11.365 C 7.503 8.448 8.663 5.652 10.726 3.59 C 12.788 1.528 15.584 0.368 18.5 0.365 M 7.5 11.365 L 8.125 11.365 C 8.125 11.365 8.125 11.365 8.125 11.365 M 8.125 11.365 C 8.125 15.853 10.515 19.842 13.029 22.786 C 15.534 25.721 18.093 27.538 18.284 27.671 L 18.285 27.672 C 18.348 27.716 18.423 27.739 18.5 27.739 C 18.577 27.739 18.652 27.716 18.715 27.672 L 18.716 27.671 C 18.907 27.538 21.466 25.721 23.971 22.786 C 26.485 19.842 28.875 15.853 28.875 11.365 M 8.125 11.365 C 8.128 8.614 9.222 5.977 11.167 4.032 C 13.112 2.087 15.749 0.993 18.5 0.99 M 28.875 11.365 L 29.5 11.365 M 28.875 11.365 C 28.875 11.365 28.875 11.365 28.875 11.365 L 29.5 11.365 M 28.875 11.365 C 28.872 8.615 27.778 5.977 25.833 4.032 C 23.888 2.087 21.251 0.993 18.5 0.99 M 29.5 11.365 C 29.497 8.448 28.337 5.652 26.275 3.59 C 24.212 1.528 21.416 0.368 18.5 0.365 M 18.5 0.365 L 18.501 0.99 C 18.501 0.99 18.5 0.99 18.5 0.99 M 18.5 0.365 L 18.499 0.99 C 18.5 0.99 18.5 0.99 18.5 0.99"
        fill="white" stroke="currentColor" stroke-width="0.66" />
</svg>