<svg id="pin" viewBox="0 0 18 22" fill="inherit" xmlns="http://www.w3.org/2000/svg">
    <path
        d="M9 1.125C10.8952 1.12733 12.7171 1.83431 14.1152 3.10059L14.3887 3.36133C15.729 4.70166 16.5198 6.48886 16.6152 8.37305L16.625 8.75098C16.6247 12.0622 14.8598 15.0179 12.9844 17.2148C11.5842 18.855 10.1615 20.0271 9.47949 20.5508L9.07227 20.8516L9.07129 20.8525C9.05036 20.8671 9.02547 20.875 9 20.875C8.98703 20.875 8.97413 20.873 8.96191 20.8691L8.92871 20.8525L8.92773 20.8516L8.52051 20.5508C7.83852 20.0271 6.41584 18.855 5.01562 17.2148C3.14015 15.0179 1.37535 12.0622 1.375 8.75098C1.37715 6.85548 2.08415 5.0331 3.35059 3.63477L3.61133 3.36133C5.04076 1.93189 6.9785 1.12748 9 1.125Z"
        fill="inherit" stroke="currentColor" stroke-width="1.25" />
</svg>
