<svg viewBox="0 0 42 48" id="pin" fill="inherit"
    xmlns="http://www.w3.org/2000/svg">
    <circle cx="21" cy="19" r="7" fill="currentColor" />
    <path
        d="M 20.426 44.319 L 20.426 44.318 C 20.124 44.107 16.252 41.358 12.46 36.917 C 8.662 32.467 5 26.385 5 19.5 C 5.005 15.258 6.692 11.191 9.692 8.192 C 12.691 5.192 16.758 3.505 21 3.5 C 25.242 3.505 29.309 5.192 32.308 8.192 C 35.308 11.191 36.995 15.258 37 19.501 C 37 26.385 33.338 32.467 29.54 36.917 C 25.748 41.358 21.876 44.107 21.575 44.318 L 21.574 44.319 C 21.406 44.436 21.205 44.5 21 44.5 C 20.795 44.5 20.594 44.436 20.426 44.319 Z M 24.611 14.095 C 23.542 13.381 22.286 13 21 13 C 19.276 13 17.623 13.685 16.404 14.904 C 15.185 16.123 14.5 17.776 14.5 19.5 C 14.5 20.786 14.881 22.042 15.595 23.111 C 16.31 24.18 17.325 25.013 18.513 25.505 C 19.7 25.997 21.007 26.126 22.268 25.875 C 23.529 25.624 24.687 25.005 25.596 24.096 C 26.505 23.187 27.124 22.029 27.375 20.768 C 27.626 19.507 27.497 18.2 27.005 17.013 C 26.513 15.825 25.68 14.81 24.611 14.095 Z"
        fill="inherit" stroke="currentColor" />
</svg>
