<svg id="pin" viewBox="0 0 64 64" fill="inherit" xmlns="http://www.w3.org/2000/svg">
    <path
        d="M50.1668 39.576C50.3394 39.492 50.5357 39.4773 50.7175 39.5335C56.6319 41.7429 59.2279 44.7229 59.2279 47.5778C59.2279 49.1337 58.5264 50.577 57.1327 51.9175C55.7233 53.2731 53.6519 54.4721 51.0782 55.4647C45.9348 57.4483 39.0688 58.5 32.3639 58.5C25.6591 58.5 18.7931 57.4483 13.6497 55.4647C11.076 54.4721 9.00458 53.2731 7.59521 51.9175C6.20151 50.577 5.5 49.1337 5.5 47.5778C5.5 44.723 8.09594 41.7429 14.0102 39.5361C14.1921 39.4798 14.3885 39.4945 14.5611 39.5785C14.739 39.6651 14.8802 39.8199 14.951 40.0135C15.0219 40.2074 15.0154 40.422 14.9332 40.6109C14.8533 40.7942 14.7095 40.9369 14.5339 41.0139C12.3957 41.8138 10.5953 42.7722 9.30272 43.8134C8.06013 44.8143 7.03566 46.0999 7.03566 47.5778C7.03566 48.9768 7.95447 50.2222 9.14235 51.2213C10.3732 52.2566 12.1189 53.2251 14.2765 54.0576C18.6024 55.7268 24.7808 56.9252 32.3639 56.9252C39.9471 56.9252 46.1255 55.7268 50.4514 54.0576C52.609 53.2251 54.3547 52.2566 55.5855 51.2213C56.7734 50.2221 57.6922 48.9768 57.6922 47.5778C57.6922 46.1 56.6678 44.8143 55.4253 43.8132C54.1328 42.7717 52.3324 41.8127 50.1942 41.0115C50.0185 40.9345 49.8746 40.7918 49.7947 40.6084C49.7125 40.4195 49.706 40.2049 49.7769 40.0109C49.8477 39.8173 49.9889 39.6625 50.1668 39.576Z"
        fill="currentColor" />
    <path
        d="M32.5 4.5C28.1255 4.50496 23.9315 6.24494 20.8382 9.33822C17.7449 12.4315 16.005 16.6255 16 21C16 35.1187 31 45.7819 31.6394 46.2281C31.8916 46.4048 32.1921 46.4996 32.5 46.4996C32.8079 46.4996 33.1084 46.4048 33.3606 46.2281C34 45.7819 49 35.1187 49 21C48.995 16.6255 47.2551 12.4315 44.1618 9.33822C41.0685 6.24494 36.8745 4.50496 32.5 4.5Z"
        fill="inherit" />
    <path
        d="M16 21C16 35.1187 31 45.7819 31.6394 46.2281C31.8916 46.4048 32.1921 46.4996 32.5 46.4996C32.8079 46.4996 33.1084 46.4048 33.3606 46.2281C34 45.7819 49 35.1187 49 21M16 21L16.625 21.0007C16.625 21.0006 16.625 21.0005 16.625 21.0003M16 21C16.005 16.6255 17.7449 12.4315 20.8382 9.33822C23.9315 6.24494 28.1255 4.50496 32.5 4.5M16 21H16.625C16.625 21.0001 16.625 21.0002 16.625 21.0003M16.625 21.0003C16.6251 27.8416 20.2647 33.8952 24.0553 38.3355C27.8371 42.7655 31.6997 45.508 31.9971 45.7156L31.998 45.7162C32.1451 45.8193 32.3204 45.8746 32.5 45.8746C32.6796 45.8746 32.8549 45.8193 33.002 45.7162L33.0029 45.7156C33.3003 45.508 37.1629 42.7655 40.9447 38.3355C44.7352 33.8952 48.3748 27.8418 48.375 21.0007M16.625 21.0003C16.6299 16.7914 18.304 12.7563 21.2802 9.78016C24.2562 6.80409 28.2912 5.12996 32.5 5.125M48.375 21.0007L49 21M48.375 21.0007C48.375 21.0005 48.375 21.0002 48.375 21H49M48.375 21.0007C48.3702 16.7917 46.6961 12.7564 43.7198 9.78016C40.7438 6.80409 36.7088 5.12996 32.5 5.125M49 21C48.995 16.6255 47.2551 12.4315 44.1618 9.33822C41.0685 6.24494 36.8745 4.50496 32.5 4.5M32.5 4.5L32.5007 5.125C32.5005 5.125 32.5002 5.125 32.5 5.125M32.5 4.5L32.4993 5.125C32.4995 5.125 32.4998 5.125 32.5 5.125"
        fill="inherit"
        stroke="currentColor"
        stroke-width="0.66" />
    <circle cx="32.5" cy="21" r="7" fill="currentColor" />
</svg>