<svg id="pin" viewBox="0 0 32 32" fill="inherit" xmlns="http://www.w3.org/2000/svg">
    <path
        d="M25.1409 20.0459C25.2457 19.9949 25.3652 19.9862 25.4757 20.0209C28.5286 21.1609 29.9047 22.7119 29.9047 24.228C29.9047 25.0521 29.5324 25.812 28.8049 26.5117C28.0702 27.2184 26.9944 27.84 25.6639 28.3531C23.0048 29.3786 19.4594 29.9211 16 29.9211C12.5405 29.9211 8.99517 29.3786 6.3361 28.3531C5.0056 27.84 3.92972 27.2184 3.19504 26.5117C2.46756 25.812 2.09521 25.0521 2.09521 24.228C2.09521 22.712 3.47134 21.1609 6.52419 20.0222C6.63469 19.9875 6.75418 19.9962 6.85901 20.0472C6.96641 20.0994 7.0511 20.1926 7.0935 20.3085C7.13596 20.4246 7.13208 20.553 7.08283 20.6661C7.03474 20.7765 6.94767 20.8628 6.84087 20.9091C5.74295 21.3197 4.82198 21.8105 4.16316 22.3411C3.52745 22.8532 3.02039 23.4982 3.02039 24.228C3.02039 24.9187 3.4749 25.5431 4.08165 26.0534C4.70815 26.5804 5.60014 27.076 6.70723 27.5031C8.92636 28.3594 12.1004 28.9758 16 28.9758C19.8996 28.9758 23.0736 28.3594 25.2927 27.5031C26.3998 27.076 27.2918 26.5804 27.9183 26.0534C28.525 25.5431 28.9796 24.9187 28.9796 24.228C28.9796 23.4982 28.4725 22.8532 27.8369 22.341C27.1781 21.8102 26.2571 21.3191 25.1592 20.9078C25.0523 20.8615 24.9652 20.7753 24.9171 20.6648C24.8679 20.5517 24.864 20.4233 24.9065 20.3072C24.9489 20.1913 25.0335 20.0981 25.1409 20.0459Z"
        fill="currentColor" stroke-width="0.25" />
    <path
        d="M16 2.91113C17.9279 2.91347 19.7809 3.6328 21.2031 4.9209L21.4814 5.18555C22.8447 6.54879 23.649 8.36682 23.7461 10.2832L23.7559 10.668C23.7555 14.0352 21.9615 17.0399 20.0557 19.2725C18.6326 20.9395 17.1864 22.1308 16.4932 22.6631L16.0791 22.9688V22.9697C16.0561 22.9859 16.0281 22.9941 16 22.9941C15.986 22.9941 15.9721 22.9924 15.959 22.9883L15.9219 22.9697L15.9209 22.9688L15.5068 22.6631C14.8136 22.1307 13.3673 20.9394 11.9443 19.2725C10.0385 17.0399 8.24445 14.0352 8.24414 10.668C8.24633 8.73983 8.96561 6.88624 10.2539 5.46387L10.5186 5.18555C11.9725 3.73159 13.9438 2.91368 16 2.91113Z"
        fill="white" stroke="currentColor" stroke-width="1.25" />
</svg>
