<svg id="permalink-icon" xmlns="http://www.w3.org/2000/svg" viewBox="0 0 256 256">
    <circle cx="128" cy="128" r="128" fill="inherit"/>
    <path fill="currentColor" d="M 128.515 171.925 L 111.233 189.21 C 93.764 205.944 64.73 197.495 58.97 173.999 C 56.411 163.561 59.365 152.538 66.8 144.779 L 91.504 120.074 C 103.795 107.857 123.645 107.857 135.936 120.074 C 139.92 123.684 146.316 121.628 147.451 116.373 C 147.926 114.173 147.312 111.878 145.799 110.21 C 128.078 92.506 99.363 92.506 81.64 110.21 L 56.936 134.914 C 31.435 158.804 41.358 201.34 74.797 211.48 C 91.334 216.494 109.282 211.684 121.095 199.073 L 138.379 181.79 C 141.989 177.807 139.933 171.409 134.677 170.274 C 132.477 169.8 130.184 170.416 128.515 171.925 Z" style=""></path>
    <path fill="currentColor" d="M 200.095 55.915 C 182.413 38.115 153.618 38.115 135.936 55.915 L 118.651 73.199 C 115.042 77.182 117.099 83.579 122.354 84.714 C 124.553 85.188 126.848 84.573 128.515 83.063 L 145.799 65.779 C 158.09 53.562 177.94 53.562 190.232 65.779 C 202.545 78.03 202.545 97.96 190.232 110.21 L 165.527 134.914 C 153.236 147.132 133.387 147.132 121.095 134.914 C 117.485 130.93 110.918 132.348 109.272 137.465 C 108.433 140.076 109.2 142.937 111.233 144.779 C 128.954 162.482 157.669 162.482 175.392 144.779 L 200.095 120.074 C 217.896 102.391 217.896 73.598 200.095 55.915 Z" style=""></path>
</svg>
