<svg id="related-people" width="16" height="15" viewBox="0 0 16 15" fill="none" xmlns="http://www.w3.org/2000/svg">
    <path
        d="M15.2365 13.9062C14.1657 12.0549 12.5154 10.7274 10.5896 10.0981C11.5422 9.53099 12.2823 8.66686 12.6963 7.63841C13.1103 6.60996 13.1752 5.47405 12.8811 4.40513C12.587 3.33621 11.9502 2.39338 11.0684 1.72142C10.1866 1.04947 9.10862 0.685547 7.99998 0.685547C6.89134 0.685547 5.81335 1.04947 4.93156 1.72142C4.04976 2.39338 3.41293 3.33621 3.11884 4.40513C2.82476 5.47405 2.88968 6.60996 3.30366 7.63841C3.71763 8.66686 4.45775 9.53099 5.41037 10.0981C3.48451 10.7267 1.83427 12.0542 0.763414 13.9062C0.724144 13.9702 0.698096 14.0415 0.686808 14.1158C0.67552 14.19 0.679219 14.2658 0.697689 14.3386C0.716159 14.4114 0.749024 14.4798 0.794346 14.5397C0.839668 14.5996 0.896528 14.6498 0.961572 14.6874C1.02662 14.7249 1.09853 14.7491 1.17306 14.7584C1.24759 14.7678 1.32324 14.7621 1.39554 14.7417C1.46784 14.7213 1.53532 14.6867 1.59401 14.6398C1.65269 14.5929 1.7014 14.5347 1.73724 14.4687C3.06193 12.1793 5.40334 10.8125 7.99998 10.8125C10.5966 10.8125 12.938 12.1793 14.2627 14.4687C14.2986 14.5347 14.3473 14.5929 14.4059 14.6398C14.4646 14.6867 14.5321 14.7213 14.6044 14.7417C14.6767 14.7621 14.7524 14.7678 14.8269 14.7584C14.9014 14.7491 14.9733 14.7249 15.0384 14.6874C15.1034 14.6498 15.1603 14.5996 15.2056 14.5397C15.2509 14.4798 15.2838 14.4114 15.3023 14.3386C15.3207 14.2658 15.3244 14.19 15.3131 14.1158C15.3019 14.0415 15.2758 13.9702 15.2365 13.9062ZM4.06248 5.74996C4.06248 4.9712 4.29341 4.20992 4.72607 3.5624C5.15872 2.91488 5.77368 2.4102 6.49316 2.11218C7.21264 1.81416 8.00435 1.73619 8.76815 1.88812C9.53195 2.04005 10.2335 2.41506 10.7842 2.96573C11.3349 3.5164 11.7099 4.21799 11.8618 4.98179C12.0137 5.74559 11.9358 6.53729 11.6378 7.25678C11.3397 7.97626 10.8351 8.59121 10.1875 9.02387C9.54002 9.45653 8.77874 9.68746 7.99998 9.68746C6.95603 9.68634 5.95516 9.27114 5.21698 8.53296C4.47879 7.79478 4.06359 6.79391 4.06248 5.74996Z"
        fill="currentColor"
    />
</svg>
