<svg id="related-documents" width="14" height="16" viewBox="0 0 14 16" fill="none" xmlns="http://www.w3.org/2000/svg">
    <path
        d="M13.023 4.78953L9.08547 0.852031C9.03319 0.799812 8.97114 0.758404 8.90285 0.730173C8.83457 0.701943 8.76139 0.687442 8.6875 0.6875H1.9375C1.63913 0.6875 1.35298 0.806027 1.142 1.017C0.931026 1.22798 0.8125 1.51413 0.8125 1.8125V14.1875C0.8125 14.4859 0.931026 14.772 1.142 14.983C1.35298 15.194 1.63913 15.3125 1.9375 15.3125H12.0625C12.3609 15.3125 12.647 15.194 12.858 14.983C13.069 14.772 13.1875 14.4859 13.1875 14.1875V5.1875C13.1876 5.11361 13.1731 5.04043 13.1448 4.97215C13.1166 4.90386 13.0752 4.84181 13.023 4.78953ZM9.25 2.60773L11.2673 4.625H9.25V2.60773ZM12.0625 14.1875H1.9375V1.8125H8.125V5.1875C8.125 5.33668 8.18426 5.47976 8.28975 5.58525C8.39524 5.69074 8.53832 5.75 8.6875 5.75H12.0625V14.1875ZM9.8125 8.5625C9.8125 8.71168 9.75324 8.85476 9.64775 8.96025C9.54226 9.06574 9.39918 9.125 9.25 9.125H4.75C4.60082 9.125 4.45774 9.06574 4.35225 8.96025C4.24676 8.85476 4.1875 8.71168 4.1875 8.5625C4.1875 8.41332 4.24676 8.27024 4.35225 8.16475C4.45774 8.05926 4.60082 8 4.75 8H9.25C9.39918 8 9.54226 8.05926 9.64775 8.16475C9.75324 8.27024 9.8125 8.41332 9.8125 8.5625ZM9.8125 10.8125C9.8125 10.9617 9.75324 11.1048 9.64775 11.2102C9.54226 11.3157 9.39918 11.375 9.25 11.375H4.75C4.60082 11.375 4.45774 11.3157 4.35225 11.2102C4.24676 11.1048 4.1875 10.9617 4.1875 10.8125C4.1875 10.6633 4.24676 10.5202 4.35225 10.4148C4.45774 10.3093 4.60082 10.25 4.75 10.25H9.25C9.39918 10.25 9.54226 10.3093 9.64775 10.4148C9.75324 10.5202 9.8125 10.6633 9.8125 10.8125Z"
        fill="currentColor"
    />
</svg>
