<svg id="related-places" width="14" height="16" viewBox="0 0 14 16" fill="none" xmlns="http://www.w3.org/2000/svg">
    <path
        d="M7 3.5C6.44374 3.5 5.89997 3.66495 5.43746 3.97399C4.97495 4.28303 4.61446 4.72229 4.40159 5.2362C4.18872 5.75012 4.13302 6.31562 4.24154 6.86119C4.35006 7.40676 4.61793 7.9079 5.01126 8.30124C5.4046 8.69457 5.90574 8.96244 6.45131 9.07096C6.99688 9.17948 7.56238 9.12378 8.0763 8.91091C8.59021 8.69804 9.02947 8.33755 9.33851 7.87504C9.64755 7.41253 9.8125 6.86876 9.8125 6.3125C9.8125 5.56658 9.51618 4.85121 8.98874 4.32376C8.46129 3.79632 7.74592 3.5 7 3.5ZM7 8C6.66624 8 6.33998 7.90103 6.06248 7.7156C5.78497 7.53018 5.56868 7.26663 5.44095 6.95828C5.31323 6.64993 5.27981 6.31063 5.34492 5.98328C5.41004 5.65594 5.57076 5.35526 5.80676 5.11926C6.04276 4.88326 6.34344 4.72254 6.67078 4.65742C6.99813 4.59231 7.33743 4.62573 7.64578 4.75345C7.95413 4.88118 8.21768 5.09747 8.40311 5.37498C8.58853 5.65248 8.6875 5.97874 8.6875 6.3125C8.6875 6.76005 8.50971 7.18928 8.19324 7.50574C7.87678 7.82221 7.44755 8 7 8ZM7 0.125C5.35954 0.126861 3.78681 0.779354 2.62683 1.93933C1.46685 3.09931 0.814361 4.67204 0.8125 6.3125C0.8125 8.52031 1.83273 10.8603 3.76562 13.0801C4.63414 14.0831 5.61165 14.9864 6.68008 15.773C6.77466 15.8393 6.88734 15.8748 7.00281 15.8748C7.11829 15.8748 7.23097 15.8393 7.32555 15.773C8.39201 14.986 9.36762 14.0828 10.2344 13.0801C12.1645 10.8603 13.1875 8.52031 13.1875 6.3125C13.1856 4.67204 12.5331 3.09931 11.3732 1.93933C10.2132 0.779354 8.64046 0.126861 7 0.125ZM7 14.6094C5.83773 13.6953 1.9375 10.3379 1.9375 6.3125C1.9375 4.96984 2.47087 3.68217 3.42027 2.73277C4.36967 1.78337 5.65734 1.25 7 1.25C8.34266 1.25 9.63032 1.78337 10.5797 2.73277C11.5291 3.68217 12.0625 4.96984 12.0625 6.3125C12.0625 10.3365 8.16227 13.6953 7 14.6094Z"
        fill="currentColor"
    />
</svg>
