<svg width="26" height="26"  xmlns="http://www.w3.org/2000/svg">
    <symbol viewBox="0 0 26 26" id="filter-icon">
        <path d="M13 3.25C13.4487 3.25 13.8125 3.61377 13.8125 4.0625V6.90625C13.8125 7.35498 13.4487 7.71875 13 7.71875C12.5513 7.71875 12.1875 7.35498 12.1875 6.90625V4.0625C12.1875 3.61377 12.5513 3.25 13 3.25Z" />
        <path d="M20.3125 18.2812C20.7612 18.2812 21.125 18.645 21.125 19.0938V21.9375C21.125 22.3862 20.7612 22.75 20.3125 22.75C19.8638 22.75 19.5 22.3862 19.5 21.9375V19.0938C19.5 18.645 19.8638 18.2812 20.3125 18.2812Z" />
        <path d="M5.6875 15.0312C6.13623 15.0312 6.5 15.395 6.5 15.8438V21.9375C6.5 22.3862 6.13623 22.75 5.6875 22.75C5.23877 22.75 4.875 22.3862 4.875 21.9375V15.8438C4.875 15.395 5.23877 15.0312 5.6875 15.0312Z" />
        <path fill="currentColor" d="M13 10.1562C13.4487 10.1562 13.8125 10.52 13.8125 10.9688V21.9375C13.8125 22.3862 13.4487 22.75 13 22.75C12.5513 22.75 12.1875 22.3862 12.1875 21.9375V10.9688C12.1875 10.52 12.5513 10.1562 13 10.1562Z" />
        <path fill="currentColor" d="M13 7.71875C12.3269 7.71875 11.7813 8.2644 11.7813 8.9375C11.7813 9.6106 12.3269 10.1563 13 10.1563C13.6731 10.1563 14.2188 9.6106 14.2188 8.9375C14.2188 8.2644 13.6731 7.71875 13 7.71875ZM10.1562 8.9375C10.1562 7.36694 11.4294 6.09375 13 6.09375C14.5706 6.09375 15.8438 7.36694 15.8438 8.9375C15.8438 10.5081 14.5706 11.7813 13 11.7813C11.4294 11.7813 10.1562 10.5081 10.1562 8.9375Z" />
        <path fill="currentColor" d="M20.3125 3.25C20.7612 3.25 21.125 3.61377 21.125 4.0625V15.0313C21.125 15.48 20.7612 15.8438 20.3125 15.8438C19.8638 15.8438 19.5 15.48 19.5 15.0313V4.0625C19.5 3.61377 19.8638 3.25 20.3125 3.25Z" />
        <path fill="currentColor" d="M20.3125 15.8438C19.6394 15.8438 19.0938 16.3894 19.0938 17.0625C19.0938 17.7356 19.6394 18.2813 20.3125 18.2813C20.9856 18.2813 21.5313 17.7356 21.5313 17.0625C21.5313 16.3894 20.9856 15.8438 20.3125 15.8438ZM17.4688 17.0625C17.4688 15.4919 18.7419 14.2188 20.3125 14.2188C21.8831 14.2188 23.1563 15.4919 23.1563 17.0625C23.1563 18.6331 21.8831 19.9063 20.3125 19.9063C18.7419 19.9063 17.4688 18.6331 17.4688 17.0625Z" />
        <path fill="currentColor" d="M5.6875 3.25C6.13623 3.25 6.5 3.61377 6.5 4.0625V11.7813C6.5 12.23 6.13623 12.5938 5.6875 12.5938C5.23877 12.5938 4.875 12.23 4.875 11.7813V4.0625C4.875 3.61377 5.23877 3.25 5.6875 3.25Z" />
        <path fill="currentColor" d="M5.6875 12.5938C5.0144 12.5938 4.46875 13.1394 4.46875 13.8125C4.46875 14.4856 5.0144 15.0313 5.6875 15.0313C6.3606 15.0313 6.90625 14.4856 6.90625 13.8125C6.90625 13.1394 6.3606 12.5938 5.6875 12.5938ZM2.84375 13.8125C2.84375 12.2419 4.11694 10.9688 5.6875 10.9688C7.25806 10.9688 8.53125 12.2419 8.53125 13.8125C8.53125 15.3831 7.25806 16.6563 5.6875 16.6563C4.11694 16.6563 2.84375 15.3831 2.84375 13.8125Z" />
    </symbol>
</svg>
