<svg id="translation-toggle" width="65" height="65" viewBox="1 1 65 65" fill="inherit" xmlns="http://www.w3.org/2000/svg">
    <rect x="0.601" y="1.123" width="65.399" height="64.877" fill="inherit" stroke="none"></rect>
    <path d="M 42.9 45.493 L 41.994 40.149 L 41.994 28.244 C 41.994 23.006 38.313 21.207 33.94 21.207 C 31.006 21.207 26.953 21.895 25.033 22.742 L 25.033 26.287 C 27.06 25.546 30.686 24.752 33.247 24.752 C 35.913 24.752 37.993 25.546 37.993 29.144 L 37.993 32.054 L 34.847 32.054 C 27.913 32.054 23.699 34.435 23.699 39.249 C 23.699 43.165 25.94 45.916 30.526 45.916 C 33.887 45.916 36.66 44.223 38.367 42.9 L 38.847 45.493 L 42.9 45.493 Z M 27.753 38.932 C 27.753 36.234 29.833 35.175 34.047 35.175 L 37.993 35.175 L 37.993 39.937 C 35.913 41.366 33.406 42.53 31.166 42.53 C 28.82 42.53 27.753 41.207 27.753 38.932 Z" fill="currentColor"></path>
</svg>
