<svg id="translation-toggle" width="65" height="65" viewBox="1 1 65 65" fill="inherit" xmlns="http://www.w3.org/2000/svg">
<rect x="0.600586" y="1.12329" width="64" height="64" fill="white" stroke="none"/>
<path d="M41.9952 44.8932L41.1079 39.6215V27.8777C41.1079 22.7104 37.5065 20.9358 33.2265 20.9358C30.3558 20.9358 26.389 21.6143 24.5099 22.4494V25.9465C26.4934 25.2158 30.0426 24.4328 32.548 24.4328C35.1577 24.4328 37.1933 25.2158 37.1933 28.765V31.6357H34.1138C27.3285 31.6357 23.2051 33.9845 23.2051 38.7342C23.2051 42.5967 25.3973 45.3108 29.886 45.3108C33.1743 45.3108 35.8884 43.6406 37.5587 42.3357L38.0284 44.8932H41.9952ZM27.1719 38.4211C27.1719 35.7591 29.2075 34.7152 33.3309 34.7152H37.1933V39.4128C35.1577 40.822 32.7045 41.9703 30.5124 41.9703C28.2158 41.9703 27.1719 40.6654 27.1719 38.4211Z" fill="inherit"/>
</svg>
