<svg width="13" height="16" viewBox="0 0 13 16" id="translation-toggle" fill="none" xmlns="http://www.w3.org/2000/svg">
    <path
        d="M12.334 15.7259L11.7516 12.2655V4.55674C11.7516 1.16488 9.38758 0 6.57816 0C4.69379 0 2.08994 0.445396 0.856531 0.993576V3.28908C2.15846 2.80942 4.48822 2.2955 6.13276 2.2955C7.84582 2.2955 9.18201 2.80942 9.18201 5.13919V7.02356H7.1606C2.70664 7.02356 0 8.56531 0 11.6831C0 14.2184 1.43897 16 4.38544 16C6.5439 16 8.32548 14.9036 9.42184 14.0471L9.73019 15.7259H12.334ZM2.60385 11.4775C2.60385 9.73019 3.94004 9.04497 6.64668 9.04497H9.18201V12.1285C7.84582 13.0535 6.23555 13.8073 4.79657 13.8073C3.28908 13.8073 2.60385 12.9508 2.60385 11.4775Z"
        fill="currentColor" />
</svg>
    