<svg width="151" height="72" viewBox="0 0 151 72" fill="none" xmlns="http://www.w3.org/2000/svg">
<path d="M8.30703 0.679203H3.83887V15.0711H5.86312V9.64021H7.34428C11.294 9.64021 13.1949 7.64065 13.1949 5.0733C13.1949 2.03693 11.1953 0.679203 8.30703 0.679203ZM7.22085 7.96156H5.86312V2.35785H7.59114C9.83756 2.38254 11.1212 3.27123 11.1212 5.14736C11.1212 7.46784 9.44258 7.8875 7.22085 7.96156Z" fill="#C37F97"/>
<path d="M30.8388 15.0711L26.9631 9.04775C28.7158 8.25779 29.5798 6.80132 29.5798 5.0733C29.5798 2.03693 27.5803 0.679203 24.692 0.679203H20.2239V15.0711H22.2481V9.64021H23.7293C24.1983 9.64021 24.6426 9.61552 25.0376 9.56615L28.3455 15.0711H30.8388ZM23.6058 7.96156H22.2481V2.35785H23.9761C26.2225 2.38254 27.5062 3.27123 27.5062 5.14736C27.5062 7.46784 25.8523 7.96156 23.6058 7.96156Z" fill="#C37F97" fill-opacity="0.6"/>
<path d="M37.5973 0.679203V15.0711H39.6215V0.679203H37.5973Z" fill="#C37F97" fill-opacity="0.6"/>
<path d="M47.8349 0.679203V15.0711H49.8591V3.96244H49.8838L57.7833 15.0711H59.6841V0.679203H57.6599V11.4917H57.6352L49.7357 0.679203H47.8349Z" fill="#C37F97" fill-opacity="0.6"/>
<path d="M67.069 7.96156C67.069 12.5038 69.5129 15.2686 74.2279 15.2686C76.1781 15.2686 77.7827 14.7749 78.4492 14.3305V12.5532C77.2149 13.2937 76.03 13.5653 74.4748 13.5653C71.2409 13.5653 69.2166 11.5904 69.2166 7.59128C69.2166 4.13524 71.1668 2.13568 74.0551 2.13568C75.6597 2.13568 76.9433 2.38253 78.4492 3.27123V1.27167C77.6839 0.975433 76.6718 0.457031 74.1785 0.457031C69.4882 0.457031 67.069 3.88838 67.069 7.96156Z" fill="#C37F97" fill-opacity="0.6"/>
<path d="M87.7158 13.3925V8.52934H93.2207V6.8507H87.7158V2.35785H94.3563V0.679203H85.6915V15.0711H94.5291V13.3925H87.7158Z" fill="#C37F97" fill-opacity="0.6"/>
<path d="M112.649 0.679203H100.232V2.35785H105.391V15.0711H107.416V2.35785H112.649V0.679203Z" fill="#C37F97" fill-opacity="0.6"/>
<path d="M117.767 8.15905C117.767 12.0841 120.112 15.2686 124.383 15.2686C128.999 15.2686 131.319 11.4423 131.319 7.44316C131.319 3.66621 129.122 0.457031 124.778 0.457031C120.359 0.457031 117.767 3.83901 117.767 8.15905ZM129.172 7.78876C129.172 10.7017 127.814 13.5653 124.457 13.5653C121.371 13.5653 119.914 10.8251 119.914 7.76408C119.914 4.50553 121.544 2.16036 124.605 2.16036C127.617 2.16036 129.172 4.62896 129.172 7.78876Z" fill="#C37F97" fill-opacity="0.6"/>
<path d="M138.704 0.679203V15.0711H140.728V3.96244H140.753L148.652 15.0711H150.553V0.679203H148.529V11.4917H148.504L140.604 0.679203H138.704Z" fill="#C37F97" fill-opacity="0.6"/>
<path d="M11.184 34.3847V39.7917C10.7022 39.872 10.2204 39.9255 9.71182 39.9255C6.60684 39.9255 4.92051 37.9715 4.92051 34.5988C4.92051 31.253 7.14218 29.6202 9.68505 29.6202C11.3178 29.6202 13.3254 29.9681 14.9046 30.9585V27.6394C13.8875 27.2379 11.987 26.6758 9.63152 26.6758C4.33164 26.6758 0.958984 29.9949 0.958984 35.0271C0.958984 40.3002 4.2781 42.8699 9.17648 42.8699C11.2643 42.8699 13.138 42.3345 14.9314 41.3709V34.3847H11.184Z" fill="#C37F97"/>
<path d="M24.9018 39.7114V36.0175H30.4426V33.2873H24.9018V29.8343H31.6738V26.9702H21.1276V42.5754H31.8612V39.7114H24.9018Z" fill="#C37F97" fill-opacity="0.6"/>
<path d="M37.6421 26.9702V42.5754H41.0415V32.859H41.1218L48.6969 42.5754H51.909V26.9702H48.5095V36.4725H48.4293L40.8006 26.9702H37.6421Z" fill="#C37F97" fill-opacity="0.6"/>
<path d="M58.5742 26.9702V42.5754H62.3484V26.9702H58.5742Z" fill="#C37F97" fill-opacity="0.6"/>
<path d="M80.9624 27.0505L80.9357 26.9702H68.1678V29.8343H75.2075L67.6324 42.4951L67.686 42.5754H80.5342V39.7114H73.2L80.9624 27.0505Z" fill="#C37F97" fill-opacity="0.6"/>
<path d="M95.6647 42.5754H99.653L94.4067 26.9702H90.579L84.4225 42.5754H87.9558L89.2942 38.828H94.594L95.6647 42.5754ZM90.3113 35.964L90.7931 34.5721L92.185 30.7176H92.3188L93.3895 34.5721L93.791 35.964H90.3113Z" fill="#C37F97" fill-opacity="0.6"/>
<path d="M8.51104 55.1743H4.0625V69.503H6.07786V64.096H7.55252C11.4849 64.096 13.3774 62.1052 13.3774 59.5491C13.3774 56.5261 11.3866 55.1743 8.51104 55.1743ZM7.42963 62.4247H6.07786V56.8456H7.79829C10.0348 56.8702 11.3129 57.755 11.3129 59.6229C11.3129 61.9332 9.64161 62.351 7.42963 62.4247Z" fill="#C37F97"/>
<path d="M30.9439 69.503L27.0852 63.5061C28.8302 62.7196 29.6904 61.2696 29.6904 59.5491C29.6904 56.5261 27.6997 55.1743 24.8241 55.1743H20.3755V69.503H22.3909V64.096H23.8656C24.3325 64.096 24.7749 64.0714 25.1682 64.0222L28.4616 69.503H30.9439ZM23.7427 62.4247H22.3909V56.8456H24.1113C26.3479 56.8702 27.6259 57.755 27.6259 59.6229C27.6259 61.9332 25.9792 62.4247 23.7427 62.4247Z" fill="#C37F97" fill-opacity="0.6"/>
<path d="M36.645 62.6213C36.645 66.5292 38.9799 69.6997 43.2318 69.6997C47.8278 69.6997 50.1381 65.8901 50.1381 61.9086C50.1381 58.1482 47.9507 54.9531 43.625 54.9531C39.2256 54.9531 36.645 58.3202 36.645 62.6213ZM47.9998 62.2527C47.9998 65.1528 46.6481 68.0038 43.3055 68.0038C40.2333 68.0038 38.7832 65.2757 38.7832 62.2281C38.7832 58.9838 40.4054 56.649 43.453 56.649C46.4514 56.649 47.9998 59.1067 47.9998 62.2527Z" fill="#C37F97" fill-opacity="0.6"/>
<path d="M55.0402 70.4861L56.5886 71.4938C58.6531 69.3556 59.8574 67.3156 59.8574 65.1037V55.1743H57.8421V65.202C57.8421 67.0944 56.4411 68.7411 55.0402 70.4861Z" fill="#C37F97" fill-opacity="0.6"/>
<path d="M69.9379 67.8318V62.99H75.4187V61.3187H69.9379V56.8456H76.5493V55.1743H67.9226V69.503H76.7213V67.8318H69.9379Z" fill="#C37F97" fill-opacity="0.6"/>
<path d="M82.8479 62.4247C82.8479 66.947 85.2811 69.6997 89.9754 69.6997C91.9171 69.6997 93.5146 69.2081 94.1782 68.7657V66.9961C92.9493 67.7335 91.7696 68.0038 90.2212 68.0038C87.0016 68.0038 84.9862 66.0376 84.9862 62.056C84.9862 58.6152 86.9278 56.6244 89.8034 56.6244C91.4009 56.6244 92.679 56.8702 94.1782 57.755V55.7642C93.4163 55.4693 92.4086 54.9531 89.9263 54.9531C85.2565 54.9531 82.8479 58.3694 82.8479 62.4247Z" fill="#C37F97" fill-opacity="0.6"/>
<path d="M112.203 55.1743H99.8403V56.8456H104.977V69.503H106.992V56.8456H112.203V55.1743Z" fill="#C37F97" fill-opacity="0.6"/>
</svg>
