<svg width="146" height="204" viewBox="0 0 146 204" fill="none" xmlns="http://www.w3.org/2000/svg">
<path d="M126.917 7.33323L131.422 0.575684H0.412109V34.6147V52.3647V75.6147V93.6797V114.115V151.24V158.115V162.387V168.24V172.463V175.49L7.44368 173.371L8.07941 173.083C8.69531 172.811 8.90193 172.731 9.51884 172.493L9.59662 172.463C11.0722 171.969 12.6508 171.467 14.1963 171.074C18.073 170.088 21.4684 169.101 21.355 167.388C21.1627 164.481 26.505 152.387 26.505 152.387H34.3529C34.3529 152.387 36.0357 145.463 38.5145 145.036C40.9933 144.608 52.1832 152.733 53.3371 153.802C54.491 154.87 52.5327 160.678 53.0456 162.387C53.5584 164.097 76.0037 183.453 76.7654 185.509C77.527 187.565 67.6194 199.057 68.8588 201.194C70.0982 203.331 76.4586 203.763 78.9801 203.378C81.5017 202.993 99.3313 195.339 99.3313 195.339L112.666 181.534L131.471 177.559L139.493 171.016L133.674 167.45L139.493 163.32L133.674 159.941L129.169 146.614L134.801 143.423V137.604L132.36 133.099L133.674 125.59L142.309 127.843L137.992 119.771H133.674L131.422 113.952L135.739 111.512L129.169 107.57V96.6831L124.852 93.6797V85.7959L129.169 82.4171L125.79 74.9087L133.674 61.769L125.79 59.3288L126.917 51.2573L135.739 52.1958L131.422 44.4998L145.5 41.4964L134.801 34.7388L133.674 26.2919L129.169 20.8483L126.917 13.5277V7.33323Z" fill="url(#paint0_linear_2851_15323)" fill-opacity="0.6"/>
<defs>
<linearGradient id="paint0_linear_2851_15323" x1="126.611" y1="89.0809" x2="-148.088" y2="89.0809" gradientUnits="userSpaceOnUse">
<stop stop-color="#C37F97" stop-opacity="0.76"/>
<stop offset="0.460908" stop-color="#C37F97" stop-opacity="0.03"/>
<stop offset="0.811927" stop-color="#C37F97" stop-opacity="0"/>
</linearGradient>
</defs>
</svg>
