<svg width="146" height="204" viewBox="0 0 146 204" fill="none" xmlns="http://www.w3.org/2000/svg">
<path d="M126.505 7.74974L131.01 0.992188H0V35.0312V52.7812V76.0312V94.0962V114.531V151.656V158.531V162.804V168.656V172.879V175.906L7.03157 173.788L7.6673 173.499C8.2832 173.227 8.48982 173.147 9.10674 172.909L9.18451 172.879C10.6601 172.386 12.2387 171.883 13.7842 171.49C17.6609 170.505 21.0563 169.517 20.9429 167.804C20.7506 164.898 26.0929 152.803 26.0929 152.803H33.9407C33.9407 152.803 35.6236 145.879 38.1024 145.452C40.5812 145.025 51.771 153.15 52.925 154.218C54.0789 155.287 52.1206 161.094 52.6335 162.804C53.1463 164.513 75.5916 183.869 76.3533 185.925C77.1149 187.981 67.2073 199.473 68.4467 201.61C69.6861 203.747 76.0465 204.179 78.568 203.795C81.0896 203.41 98.9192 195.755 98.9192 195.755L112.254 181.951L131.058 177.976L139.081 171.433L133.262 167.866L139.081 163.736L133.262 160.358L128.757 147.03L134.388 143.839V138.02L131.948 133.515L133.262 126.007L141.897 128.259L137.579 120.188H133.262L131.01 114.369L135.327 111.929L128.757 107.987V97.0996L124.44 94.0962V86.2124L128.757 82.8336L125.378 75.3252L133.262 62.1855L125.378 59.7453L126.505 51.6738L135.327 52.6124L131.01 44.9163L145.088 41.9129L134.388 35.1553L133.262 26.7084L128.757 21.2648L126.505 13.9442V7.74974Z" fill="url(#paint0_linear_1125_30902)" fill-opacity="0.6"/>
<defs>
<linearGradient id="paint0_linear_1125_30902" x1="126.198" y1="89.4974" x2="3.69727" y2="89.4974" gradientUnits="userSpaceOnUse">
<stop stop-color="#C37F97" stop-opacity="0.76"/>
<stop offset="1" stop-color="#C37F97" stop-opacity="0.19"/>
</linearGradient>
</defs>
</svg>
