<svg width="324" height="290" viewBox="0 0 324 290" fill="none" xmlns="http://www.w3.org/2000/svg">
<rect x="3.5" y="0.945312" width="320" height="289" fill="url(#paint0_linear_1125_30952)" fill-opacity="0.2"/>
<rect x="3.5" y="0.945312" width="320" height="289" fill="url(#paint1_linear_1125_30952)"/>
<rect x="3.5" y="0.945312" width="320" height="289" fill="url(#paint2_linear_1125_30952)"/>
<path d="M131.11 113.097H126.642V127.489H128.666V122.058H130.147C134.097 122.058 135.998 120.059 135.998 117.491C135.998 114.455 133.998 113.097 131.11 113.097ZM130.024 120.38H128.666V114.776H130.394C132.64 114.801 133.924 115.689 133.924 117.565C133.924 119.886 132.245 120.305 130.024 120.38Z" fill="#C37F97"/>
<path d="M153.642 127.489L149.766 121.466C151.519 120.676 152.383 119.219 152.383 117.491C152.383 114.455 150.383 113.097 147.495 113.097H143.027V127.489H145.051V122.058H146.532C147.001 122.058 147.445 122.033 147.84 121.984L151.148 127.489H153.642ZM146.409 120.38H145.051V114.776H146.779C149.025 114.801 150.309 115.689 150.309 117.565C150.309 119.886 148.655 120.38 146.409 120.38Z" fill="#C37F97" fill-opacity="0.6"/>
<path d="M160.4 113.097V127.489H162.424V113.097H160.4Z" fill="#C37F97" fill-opacity="0.6"/>
<path d="M170.638 113.097V127.489H172.662V116.38H172.687L180.586 127.489H182.487V113.097H180.463V123.91H180.438L172.538 113.097H170.638Z" fill="#C37F97" fill-opacity="0.6"/>
<path d="M189.872 120.38C189.872 124.922 192.316 127.687 197.031 127.687C198.981 127.687 200.585 127.193 201.252 126.749V124.971C200.018 125.712 198.833 125.983 197.277 125.983C194.044 125.983 192.019 124.008 192.019 120.009C192.019 116.553 193.97 114.554 196.858 114.554C198.462 114.554 199.746 114.801 201.252 115.689V113.69C200.487 113.393 199.475 112.875 196.981 112.875C192.291 112.875 189.872 116.306 189.872 120.38Z" fill="#C37F97" fill-opacity="0.6"/>
<path d="M210.518 125.81V120.947H216.023V119.269H210.518V114.776H217.159V113.097H208.494V127.489H217.332V125.81H210.518Z" fill="#C37F97" fill-opacity="0.6"/>
<path d="M235.452 113.097H223.035V114.776H228.194V127.489H230.218V114.776H235.452V113.097Z" fill="#C37F97" fill-opacity="0.6"/>
<path d="M240.57 120.577C240.57 124.502 242.915 127.687 247.185 127.687C251.802 127.687 254.122 123.86 254.122 119.861C254.122 116.084 251.925 112.875 247.58 112.875C243.162 112.875 240.57 116.257 240.57 120.577ZM251.974 120.207C251.974 123.12 250.617 125.983 247.259 125.983C244.174 125.983 242.717 123.243 242.717 120.182C242.717 116.923 244.347 114.578 247.408 114.578C250.419 114.578 251.974 117.047 251.974 120.207Z" fill="#C37F97" fill-opacity="0.6"/>
<path d="M261.506 113.097V127.489H263.531V116.38H263.555L271.455 127.489H273.356V113.097H271.331V123.91H271.307L263.407 113.097H261.506Z" fill="#C37F97" fill-opacity="0.6"/>
<path d="M133.987 146.803V152.21C133.505 152.29 133.023 152.343 132.515 152.343C129.41 152.343 127.723 150.389 127.723 147.017C127.723 143.671 129.945 142.038 132.488 142.038C134.121 142.038 136.128 142.386 137.707 143.376V140.057C136.69 139.656 134.79 139.094 132.434 139.094C127.134 139.094 123.762 142.413 123.762 147.445C123.762 152.718 127.081 155.288 131.979 155.288C134.067 155.288 135.941 154.752 137.734 153.789V146.803H133.987Z" fill="#C37F97"/>
<path d="M147.705 152.129V148.435H153.245V145.705H147.705V142.252H154.477V139.388H143.93V154.993H154.664V152.129H147.705Z" fill="#C37F97" fill-opacity="0.6"/>
<path d="M160.445 139.388V154.993H163.844V145.277H163.925L171.5 154.993H174.712V139.388H171.312V148.891H171.232L163.603 139.388H160.445Z" fill="#C37F97" fill-opacity="0.6"/>
<path d="M181.377 139.388V154.993H185.151V139.388H181.377Z" fill="#C37F97" fill-opacity="0.6"/>
<path d="M203.765 139.468L203.738 139.388H190.971V142.252H198.01L190.435 154.913L190.489 154.993H203.337V152.129H196.003L203.765 139.468Z" fill="#C37F97" fill-opacity="0.6"/>
<path d="M218.467 154.993H222.456L217.209 139.388H213.382L207.225 154.993H210.759L212.097 151.246H217.397L218.467 154.993ZM213.114 148.382L213.596 146.99L214.988 143.136H215.122L216.192 146.99L216.594 148.382H213.114Z" fill="#C37F97" fill-opacity="0.6"/>
<path d="M131.314 167.592H126.865V181.921H128.881V176.514H130.355C134.288 176.514 136.18 174.523 136.18 171.967C136.18 168.944 134.189 167.592 131.314 167.592ZM130.232 174.843H128.881V169.264H130.601C132.838 169.288 134.116 170.173 134.116 172.041C134.116 174.351 132.444 174.769 130.232 174.843Z" fill="#C37F97"/>
<path d="M153.747 181.921L149.888 175.924C151.633 175.138 152.493 173.688 152.493 171.967C152.493 168.944 150.502 167.592 147.627 167.592H143.178V181.921H145.194V176.514H146.668C147.135 176.514 147.578 176.489 147.971 176.44L151.264 181.921H153.747ZM146.545 174.843H145.194V169.264H146.914C149.151 169.288 150.429 170.173 150.429 172.041C150.429 174.351 148.782 174.843 146.545 174.843Z" fill="#C37F97" fill-opacity="0.6"/>
<path d="M159.448 175.039C159.448 178.947 161.783 182.118 166.035 182.118C170.631 182.118 172.941 178.308 172.941 174.327C172.941 170.566 170.753 167.371 166.428 167.371C162.028 167.371 159.448 170.738 159.448 175.039ZM170.803 174.671C170.803 177.571 169.451 180.422 166.108 180.422C163.036 180.422 161.586 177.694 161.586 174.646C161.586 171.402 163.208 169.067 166.256 169.067C169.254 169.067 170.803 171.525 170.803 174.671Z" fill="#C37F97" fill-opacity="0.6"/>
<path d="M177.843 182.904L179.391 183.912C181.456 181.774 182.66 179.734 182.66 177.522V167.592H180.645V177.62C180.645 179.512 179.244 181.159 177.843 182.904Z" fill="#C37F97" fill-opacity="0.6"/>
<path d="M192.741 180.25V175.408H198.221V173.737H192.741V169.264H199.352V167.592H190.725V181.921H199.524V180.25H192.741Z" fill="#C37F97" fill-opacity="0.6"/>
<path d="M205.651 174.843C205.651 179.365 208.084 182.118 212.778 182.118C214.72 182.118 216.317 181.626 216.981 181.184V179.414C215.752 180.151 214.572 180.422 213.024 180.422C209.804 180.422 207.789 178.456 207.789 174.474C207.789 171.033 209.731 169.042 212.606 169.042C214.204 169.042 215.482 169.288 216.981 170.173V168.182C216.219 167.887 215.211 167.371 212.729 167.371C208.059 167.371 205.651 170.787 205.651 174.843Z" fill="#C37F97" fill-opacity="0.6"/>
<path d="M235.006 167.592H222.643V169.264H227.78V181.921H229.795V169.264H235.006V167.592Z" fill="#C37F97" fill-opacity="0.6"/>
<path d="M127.307 68.1638L131.812 61.4062H0.802734V95.4453V113.195V136.445V154.51V174.945V212.07V218.945V223.218V229.07V233.293V236.32L7.8343 234.202L8.47003 233.913C9.08594 233.641 9.29256 233.561 9.90947 233.323L9.98724 233.293C11.4629 232.8 13.0415 232.297 14.587 231.904C18.4636 230.919 21.859 229.931 21.7457 228.218C21.5533 225.312 26.8956 213.217 26.8956 213.217H34.7435C34.7435 213.217 36.4263 206.293 38.9051 205.866C41.3839 205.439 52.5738 213.564 53.7277 214.632C54.8817 215.701 52.9233 221.508 53.4362 223.218C53.9491 224.927 76.3944 244.283 77.156 246.339C77.9177 248.395 68.01 259.887 69.2494 262.024C70.4888 264.161 76.8492 264.593 79.3708 264.209C81.8923 263.824 99.7219 256.169 99.7219 256.169L113.056 242.365L131.861 238.39L139.884 231.847L134.065 228.28L139.884 224.151L134.065 220.772L129.56 207.444L135.191 204.253V198.434L132.751 193.929L134.065 186.421L142.7 188.673L138.382 180.602H134.065L131.812 174.783L136.13 172.343L129.56 168.401V157.514L125.243 154.51V146.626L129.56 143.248L126.181 135.739L134.065 122.6L126.181 120.159L127.307 112.088L136.13 113.026L131.812 105.33L145.891 102.327L135.191 95.5694L134.065 87.1225L129.56 81.6789L127.307 74.3582V68.1638Z" fill="url(#paint3_linear_1125_30952)" fill-opacity="0.6"/>
<defs>
<linearGradient id="paint0_linear_1125_30952" x1="163.5" y1="0.945312" x2="163.5" y2="289.945" gradientUnits="userSpaceOnUse">
<stop stop-color="#C37F97"/>
<stop offset="0.519043" stop-color="#C37F97" stop-opacity="0.56"/>
<stop offset="1" stop-color="#C37F97" stop-opacity="0"/>
</linearGradient>
<linearGradient id="paint1_linear_1125_30952" x1="3.5" y1="289.945" x2="323.5" y2="289.945" gradientUnits="userSpaceOnUse">
<stop stop-color="#161616" stop-opacity="0"/>
<stop offset="0.222525" stop-color="#161616" stop-opacity="0.0976604"/>
<stop offset="0.222625" stop-color="#161616" stop-opacity="0.1"/>
<stop offset="0.477843" stop-color="#161616" stop-opacity="0.13"/>
<stop offset="0.733062" stop-color="#161616" stop-opacity="0.06"/>
<stop offset="1" stop-color="#161616" stop-opacity="0"/>
</linearGradient>
<linearGradient id="paint2_linear_1125_30952" x1="163.5" y1="289.945" x2="163.5" y2="0.945312" gradientUnits="userSpaceOnUse">
<stop stop-color="#161616"/>
<stop offset="0.352838" stop-color="#161616" stop-opacity="0.41"/>
<stop offset="1" stop-color="#161616" stop-opacity="0"/>
</linearGradient>
<linearGradient id="paint3_linear_1125_30952" x1="127.001" y1="149.911" x2="4.5" y2="149.911" gradientUnits="userSpaceOnUse">
<stop stop-color="#C37F97" stop-opacity="0.76"/>
<stop offset="1" stop-color="#C37F97" stop-opacity="0.19"/>
</linearGradient>
</defs>
</svg>
