<svg width="320" height="111" viewBox="0 0 320 111" fill="none" xmlns="http://www.w3.org/2000/svg">
<path d="M204.206 88.7917L191.91 82.2616L187.687 81.8564L169.998 81.8564C169.998 81.8564 168.626 79.5501 167.535 80.0176C166.444 80.4852 164.774 81.1301 161.457 82.1269C153.553 84.5022 141.509 89.1088 141.509 89.1088C141.509 89.1088 140.075 89.4748 139.078 89.4592C138.08 89.4436 136.709 89.3189 135.774 88.6488C134.839 87.9787 128.65 80.926 127.607 80.3266C126.565 79.7272 123.399 78.8305 123.399 78.8305C123.399 78.8305 117.633 77.1162 117.197 76.6798C116.76 76.2434 116.698 73.781 116.511 73.2512C116.324 72.7213 113.332 64.7731 113.332 64.7731L107.41 64.7731C107.41 64.7731 106.412 59.4743 104.355 59.2873C102.298 59.1003 93.321 65.9575 93.321 65.9575L93.321 72.0667C93.321 72.0667 76.7078 87.5267 76.3026 88.2124C75.8973 88.8982 75.9909 89.5839 76.3026 90.2073C76.6142 90.8307 81.4143 97.4697 82.2247 98.997C83.0351 100.524 81.2896 101.366 80.4169 101.553C79.5442 101.74 74.5571 102.114 74.5571 102.114L59.9075 96.2541L50.058 86.0929L36.8422 83.2877L2.47988e-06 82.1032L9.6416e-06 0.182711L319.961 0.182709L320 59.5394L316.719 65.82L315.091 68.9603L313.556 72.1318L311.732 71.0408L299.717 65.9057C299.717 65.9057 294.971 65.368 292.992 65.368C291.013 65.368 288.137 65.7187 288.137 65.7187L287.093 66.2875L285.371 68.2668C285.371 68.2668 284.311 70.059 283.119 71.9915C282.761 72.5163 282.284 73.05 281.895 73.5656C281.895 73.5656 280.898 74.8435 280.415 75.4435C279.324 76.3864 278.475 77.002 277.672 77.0877C276.869 77.1734 275.194 76.7604 273.589 76.3085C268.906 74.5162 262.485 71.9292 259.352 71.0486C259.12 71.0169 258.191 71.0486 258.191 71.0486L256.991 71.6175C256.991 71.6175 255.908 72.8253 254.716 74.2903C254.093 75.2065 253.312 76.0801 252.596 77.0955C251.835 78.176 251.233 79.3163 250.524 80.2514C249.615 81.3161 248.278 81.9267 247.531 81.9267C244.405 81.9267 229.936 77.6098 225.167 76.8773C224.245 76.7356 223.517 76.6655 223.687 76.9647C223.857 77.2639 225.143 78.6837 226.539 79.9163C227.571 80.8277 229.284 82.5423 230.809 83.8996C233.209 86.0356 235.344 87.6541 235.562 88.4957C235.78 89.3373 235.468 90.4811 234.69 91.3477C233.762 92.5088 232.187 93.4166 230.326 94.7295C229.305 95.4495 228.195 96.2811 227.022 97.114C222.77 100.226 217.583 103.585 213.261 106.231C210.962 107.539 208.845 108.651 207.323 109.441C205.718 110.174 204.845 110.709 204.424 110.361C203.531 109.621 203.863 103.301 203.957 97.6282C204.123 92.9348 204.206 88.7917 204.206 88.7917Z" fill="url(#paint0_linear_1080_20122)"/>
<defs>
<linearGradient id="paint0_linear_1080_20122" x1="9.97558e-08" y1="42.3959" x2="320" y2="42.3959" gradientUnits="userSpaceOnUse">
<stop stop-color="#161616" stop-opacity="0"/>
<stop offset="0.627262" stop-color="#161616" stop-opacity="0.58"/>
<stop offset="1" stop-color="#161616" stop-opacity="0.83"/>
</linearGradient>
</defs>
</svg>
