<svg width="360" height="151" viewBox="0 0 360 151" fill="none" xmlns="http://www.w3.org/2000/svg">
<g filter="url(#filter0_d_1080_20118)">
<path d="M224.206 105.85L211.91 99.3195L207.687 98.9143L189.998 98.9143C189.998 98.9143 188.626 96.6079 187.535 97.0755C186.444 97.543 184.774 98.1879 181.457 99.1847C173.553 101.56 161.509 106.167 161.509 106.167C161.509 106.167 160.075 106.533 159.078 106.517C158.08 106.501 156.709 106.377 155.774 105.707C154.839 105.037 148.65 97.9838 147.607 97.3845C146.565 96.7851 143.399 95.8883 143.399 95.8883C143.399 95.8883 137.633 94.174 137.197 93.7376C136.76 93.3013 136.698 90.8389 136.511 90.309C136.324 89.7791 133.332 81.831 133.332 81.831L127.41 81.831C127.41 81.831 126.412 76.5322 124.355 76.3452C122.298 76.1581 113.321 83.0154 113.321 83.0154L113.321 89.1246C113.321 89.1246 96.7078 104.585 96.3026 105.27C95.8973 105.956 95.9909 106.642 96.3026 107.265C96.6142 107.889 101.414 114.528 102.225 116.055C103.035 117.582 101.29 118.424 100.417 118.611C99.5442 118.798 94.5571 119.172 94.5571 119.172L79.9075 113.312L70.058 103.151L56.8422 100.346L20 99.1611L20 17.2406L339.961 17.2406L340 76.5972L336.719 82.8778L335.091 86.0182L333.556 89.1896L331.732 88.0987L319.717 82.9636C319.717 82.9636 314.971 82.4259 312.992 82.4259C311.013 82.4259 308.137 82.7765 308.137 82.7765L307.093 83.3454L305.371 85.3246C305.371 85.3246 304.311 87.1169 303.119 89.0494C302.761 89.5742 302.284 90.1079 301.895 90.6234C301.895 90.6234 300.898 91.9014 300.415 92.5014C299.324 93.4443 298.475 94.0598 297.672 94.1456C296.869 94.2313 295.194 93.8183 293.589 93.3663C288.906 91.5741 282.485 88.987 279.352 88.1065C279.12 88.0748 278.191 88.1065 278.191 88.1065L276.991 88.6753C276.991 88.6753 275.908 89.8832 274.716 91.3481C274.093 92.2644 273.312 93.138 272.596 94.1534C271.835 95.2338 271.233 96.3742 270.524 97.3092C269.615 98.3739 268.278 98.9846 267.531 98.9846C264.405 98.9846 249.936 94.6676 245.167 93.9352C244.245 93.7935 243.517 93.7234 243.687 94.0226C243.857 94.3218 245.143 95.7416 246.539 96.9742C247.571 97.8856 249.284 99.6002 250.809 100.957C253.209 103.093 255.344 104.712 255.562 105.554C255.78 106.395 255.468 107.539 254.69 108.406C253.762 109.567 252.187 110.475 250.326 111.787C249.305 112.507 248.195 113.339 247.022 114.172C242.77 117.284 237.583 120.643 233.261 123.289C230.962 124.597 228.845 125.709 227.323 126.499C225.718 127.232 224.845 127.767 224.424 127.419C223.531 126.679 223.863 120.359 223.957 114.686C224.123 109.993 224.206 105.85 224.206 105.85Z" fill="#161616"/>
</g>
<defs>
<filter id="filter0_d_1080_20118" x="0" y="0.24057" width="360" height="150.287" filterUnits="userSpaceOnUse" color-interpolation-filters="sRGB">
<feFlood flood-opacity="0" result="BackgroundImageFix"/>
<feColorMatrix in="SourceAlpha" type="matrix" values="0 0 0 0 0 0 0 0 0 0 0 0 0 0 0 0 0 0 127 0" result="hardAlpha"/>
<feOffset dy="3"/>
<feGaussianBlur stdDeviation="10"/>
<feComposite in2="hardAlpha" operator="out"/>
<feColorMatrix type="matrix" values="0 0 0 0 0.996078 0 0 0 0 0.996078 0 0 0 0 0.996078 0 0 0 0.3 0"/>
<feBlend mode="normal" in2="BackgroundImageFix" result="effect1_dropShadow_1080_20118"/>
<feBlend mode="normal" in="SourceGraphic" in2="effect1_dropShadow_1080_20118" result="shape"/>
</filter>
</defs>
</svg>
