<svg width="900" height="151" viewBox="0 0 900 151" fill="none" xmlns="http://www.w3.org/2000/svg">
    <g filter="url(#filter0_d_2506_66361)" transform="matrix(1, 0, 0, 1, 559, -17.3118)">
        <path d="M 332.967 96.336 C 335.07 97.392 337.201 104.082 340.009 104.082 L 340.683 103.952 L 340.683 17.312 L -559.317 17.312 L -559 103.842 L 22.055 103.842 C 22.055 103.842 32.979 119.573 35.434 119.573 C 37.889 119.573 53.039 112.531 53.039 112.531 C 53.039 112.531 58.329 119.573 60.08 119.573 C 61.831 119.573 64.305 116.052 64.305 116.052 C 64.305 116.052 75.053 121.157 76.276 119.573 C 77.499 117.988 76.276 112.531 76.276 112.531 L 86.134 104.081 L 95.993 104.081 L 104.443 107.602 L 121.343 107.602 L 130.497 112.531 C 130.497 112.531 129.441 126.782 130.497 127.657 C 131.553 128.531 153.118 114.713 152.326 112.531 C 151.534 110.35 143.866 105.665 143.876 104.081 C 143.886 102.497 158.145 107.602 160.776 107.602 C 163.407 107.602 165.891 99.856 168.522 99.856 L 181.21 108.463 L 216.251 108.463 L 225.714 110.356 L 232.579 117.53 C 232.579 117.53 241.998 121.491 243.054 121.711 C 244.11 121.931 247.983 121.711 248.379 120.478 C 248.775 119.246 243.846 113.613 244.11 112.38 C 244.374 111.148 255.905 101.73 256.301 100.718 C 256.697 99.705 255.553 96.845 256.301 96.141 C 257.049 95.436 261.934 91.916 263.563 91.652 C 265.191 91.388 266.071 95.436 266.071 95.436 L 270.13 95.436 C 270.13 95.436 272.947 101.597 272.771 103.182 C 272.594 104.766 279.069 105.118 280.849 106.879 C 282.629 108.639 285.455 112.864 288.438 112.864 C 291.421 112.864 304.096 107.603 304.096 107.603 L 315.363 99.857 L 323.813 96.336 C 323.813 96.336 330.864 95.28 332.967 96.336 Z" fill="url(#gradient-mobile-dark-rtl)"></path>
    </g>
    <defs>
        <filter id="filter0_d_2506_66361" x="-559" y="0.311768" width="900" height="150.385" filterUnits="userSpaceOnUse" color-interpolation-filters="sRGB">
            <feFlood flood-opacity="0" result="BackgroundImageFix"></feFlood>
            <feColorMatrix in="SourceAlpha" type="matrix" values="0 0 0 0 0 0 0 0 0 0 0 0 0 0 0 0 0 0 127 0" result="hardAlpha"></feColorMatrix>
            <feOffset dy="3"></feOffset>
            <feGaussianBlur stdDeviation="10"></feGaussianBlur>
            <feComposite in2="hardAlpha" operator="out"></feComposite>
            <feColorMatrix type="matrix" values="0 0 0 0 0.996078 0 0 0 0 0.996078 0 0 0 0 0.996078 0 0 0 0.3 0"></feColorMatrix>
            <feBlend mode="normal" in2="BackgroundImageFix" result="effect1_dropShadow_2506_66361"></feBlend>
            <feBlend mode="normal" in="SourceGraphic" in2="effect1_dropShadow_2506_66361" result="shape"></feBlend>
        </filter>
        <linearGradient gradientUnits="userSpaceOnUse" x1="-559" y1="110." x2="350" y2="110.5" id="gradient-mobile-dark-rtl">
            <stop offset="0" style="stop-color: rgba(22, 22, 22); stop-opacity: 1;"></stop>
            <stop offset="0.654444" style="stop-color: rgb(22, 22, 22);"></stop>
            <stop offset="0.661" style="stop-color: rgb(22, 22, 22); stop-opacity: 0.95;"></stop>
            <stop offset="1" style="stop-color: rgb(22, 22, 22, 0);"></stop>
        </linearGradient>
    </defs>
</svg>
