<svg width="335" height="159" viewBox="0 0 335 159" fill="none" xmlns="http://www.w3.org/2000/svg">
<path d="M16.8364 0.776759H6.87109V32.875H11.3858V20.7624H14.6892C23.4983 20.7624 27.7377 16.3028 27.7377 10.5769C27.7377 3.80489 23.2781 0.776759 16.8364 0.776759ZM14.4139 17.0186H11.3858V4.52063H15.2398C20.2499 4.57569 23.1129 6.55774 23.1129 10.7421C23.1129 15.9174 19.369 16.8534 14.4139 17.0186Z" fill="#C37F97"/>
<path d="M67.0889 32.875L58.445 19.4411C62.354 17.6792 64.281 14.4309 64.281 10.5769C64.281 3.80489 59.8214 0.776759 53.3797 0.776759H43.4144V32.875H47.9291V20.7624H51.2325C52.2786 20.7624 53.2696 20.7074 54.1505 20.5973L61.5282 32.875H67.0889ZM50.9572 17.0186H47.9291V4.52063H51.7831C56.7933 4.57569 59.6562 6.55774 59.6562 10.7421C59.6562 15.9174 55.9674 17.0186 50.9572 17.0186Z" fill="#C37F97" fill-opacity="0.6"/>
<path d="M82.1622 0.776759V32.875H86.6769V0.776759H82.1622Z" fill="#C37F97" fill-opacity="0.6"/>
<path d="M104.995 0.776759V32.875H109.51V8.09934H109.565L127.183 32.875H131.422V0.776759H126.908V24.8917H126.853L109.234 0.776759H104.995Z" fill="#C37F97" fill-opacity="0.6"/>
<path d="M147.893 17.0186C147.893 27.149 153.343 33.3154 163.859 33.3154C168.209 33.3154 171.787 32.2143 173.274 31.2233V27.2592C170.521 28.9109 167.878 29.5165 164.41 29.5165C157.197 29.5165 152.683 25.1119 152.683 16.1927C152.683 8.48474 157.032 4.02512 163.474 4.02512C167.053 4.02512 169.916 4.57569 173.274 6.55774V2.09812C171.567 1.43744 169.31 0.28125 163.749 0.28125C153.288 0.28125 147.893 7.93416 147.893 17.0186Z" fill="#C37F97" fill-opacity="0.6"/>
<path d="M193.941 29.1311V18.2849H206.219V14.541H193.941V4.52063H208.751V0.776759H189.427V32.875H209.137V29.1311H193.941Z" fill="#C37F97" fill-opacity="0.6"/>
<path d="M249.55 0.776759H221.856V4.52063H233.363V32.875H237.878V4.52063H249.55V0.776759Z" fill="#C37F97" fill-opacity="0.6"/>
<path d="M260.964 17.459C260.964 26.2131 266.194 33.3154 275.719 33.3154C286.015 33.3154 291.19 24.7816 291.19 15.8624C291.19 7.43865 286.29 0.28125 276.6 0.28125C266.745 0.28125 260.964 7.82405 260.964 17.459ZM286.4 16.6332C286.4 23.1299 283.372 29.5165 275.884 29.5165C269.002 29.5165 265.754 23.4052 265.754 16.5781C265.754 9.31059 269.388 4.08017 276.215 4.08017C282.932 4.08017 286.4 9.58587 286.4 16.6332Z" fill="#C37F97" fill-opacity="0.6"/>
<path d="M307.659 0.776759V32.875H312.174V8.09934H312.229L329.847 32.875H334.087V0.776759H329.572V24.8917H329.517L311.899 0.776759H307.659Z" fill="#C37F97" fill-opacity="0.6"/>
<path d="M23.254 75.951V88.0101C22.1795 88.1892 21.1049 88.3086 19.9706 88.3086C13.0456 88.3086 9.28459 83.9506 9.28459 76.4286C9.28459 68.9663 14.2396 65.3246 19.9109 65.3246C23.5525 65.3246 28.0299 66.1007 31.5521 68.3096V60.907C29.2836 60.0115 25.045 58.7578 19.7915 58.7578C7.97123 58.7578 0.449219 66.1604 0.449219 77.3837C0.449219 89.1443 7.85183 94.8754 18.7766 94.8754C23.4331 94.8754 27.612 93.6814 31.6118 91.5323V75.951H23.254Z" fill="#C37F97"/>
<path d="M53.8487 87.831V79.5926H66.2063V73.5033H53.8487V65.8022H68.9524V59.4145H45.4312V94.2187H69.3703V87.831H53.8487Z" fill="#C37F97" fill-opacity="0.6"/>
<path d="M82.2634 59.4145V94.2187H89.8451V72.5482H90.0242L106.919 94.2187H114.083V59.4145H106.501V80.6075H106.322L89.3078 59.4145H82.2634Z" fill="#C37F97" fill-opacity="0.6"/>
<path d="M128.948 59.4145V94.2187H137.366V59.4145H128.948Z" fill="#C37F97" fill-opacity="0.6"/>
<path d="M178.88 59.5936L178.821 59.4145H150.345V65.8022H166.045L149.151 94.0396L149.27 94.2187H177.925V87.831H161.568L178.88 59.5936Z" fill="#C37F97" fill-opacity="0.6"/>
<path d="M211.671 94.2187H220.566L208.865 59.4145H200.328L186.598 94.2187H194.478L197.463 85.8609H209.283L211.671 94.2187ZM199.731 79.4732L200.806 76.3689L203.91 67.7723H204.209L206.596 76.3689L207.492 79.4732H199.731Z" fill="#C37F97" fill-opacity="0.6"/>
<path d="M17.2926 122.314H7.37109V154.271H11.8659V142.212H15.1549C23.9253 142.212 28.1461 137.772 28.1461 132.071C28.1461 125.328 23.706 122.314 17.2926 122.314ZM14.8808 138.484H11.8659V126.041H15.703C20.6912 126.096 23.5416 128.069 23.5416 132.235C23.5416 137.388 19.8141 138.32 14.8808 138.484Z" fill="#C37F97"/>
<path d="M67.3245 154.271L58.7185 140.896C62.6104 139.142 64.5289 135.908 64.5289 132.071C64.5289 125.328 60.0889 122.314 53.6755 122.314H43.754V154.271H48.2488V142.212H51.5377C52.5792 142.212 53.5659 142.157 54.4429 142.047L61.7882 154.271H67.3245ZM51.2636 138.484H48.2488V126.041H52.0859C57.0741 126.096 59.9245 128.069 59.9245 132.235C59.9245 137.388 56.2518 138.484 51.2636 138.484Z" fill="#C37F97" fill-opacity="0.6"/>
<path d="M80.0396 138.923C80.0396 147.638 85.2471 154.709 94.7301 154.709C104.981 154.709 110.133 146.213 110.133 137.333C110.133 128.946 105.255 121.82 95.6071 121.82C85.7952 121.82 80.0396 129.33 80.0396 138.923ZM105.364 138.1C105.364 144.569 102.349 150.927 94.8946 150.927C88.0427 150.927 84.8086 144.843 84.8086 138.046C84.8086 130.81 88.4264 125.603 95.2234 125.603C101.911 125.603 105.364 131.084 105.364 138.1Z" fill="#C37F97" fill-opacity="0.6"/>
<path d="M121.066 156.464L124.52 158.711C129.124 153.942 131.81 149.392 131.81 144.459V122.314H127.315V144.678C127.315 148.899 124.191 152.572 121.066 156.464Z" fill="#C37F97" fill-opacity="0.6"/>
<path d="M154.293 150.543V139.745H166.516V136.017H154.293V126.041H169.038V122.314H149.798V154.271H169.422V150.543H154.293Z" fill="#C37F97" fill-opacity="0.6"/>
<path d="M183.086 138.484C183.086 148.57 188.512 154.709 198.982 154.709C203.313 154.709 206.876 153.613 208.356 152.626V148.68C205.615 150.324 202.984 150.927 199.53 150.927C192.35 150.927 187.855 146.542 187.855 137.662C187.855 129.988 192.185 125.548 198.598 125.548C202.161 125.548 205.012 126.096 208.356 128.069V123.629C206.656 122.971 204.409 121.82 198.873 121.82C188.458 121.82 183.086 129.44 183.086 138.484Z" fill="#C37F97" fill-opacity="0.6"/>
<path d="M248.556 122.314H220.984V126.041H232.44V154.271H236.935V126.041H248.556V122.314Z" fill="#C37F97" fill-opacity="0.6"/>
</svg>
