<svg width="335" height="159" viewBox="0 0 335 159" fill="none" xmlns="http://www.w3.org/2000/svg">
<path d="M16.8364 0.776759H6.87109V32.875H11.3858V20.7624H14.6892C23.4983 20.7624 27.7377 16.3028 27.7377 10.5769C27.7377 3.80489 23.2781 0.776759 16.8364 0.776759ZM14.4139 17.0186H11.3858V4.52063H15.2398C20.2499 4.57569 23.1129 6.55774 23.1129 10.7421C23.1129 15.9174 19.369 16.8534 14.4139 17.0186Z" fill="#C37F97"/>
<path d="M23.254 75.951V88.0101C22.1795 88.1892 21.1049 88.3086 19.9706 88.3086C13.0456 88.3086 9.28459 83.9506 9.28459 76.4286C9.28459 68.9663 14.2396 65.3246 19.9109 65.3246C23.5525 65.3246 28.0299 66.1007 31.5521 68.3096V60.907C29.2836 60.0115 25.045 58.7578 19.7915 58.7578C7.97123 58.7578 0.449219 66.1604 0.449219 77.3837C0.449219 89.1443 7.85183 94.8754 18.7766 94.8754C23.4331 94.8754 27.612 93.6814 31.6118 91.5323V75.951H23.254Z" fill="#C37F97"/>
<path d="M17.2926 122.314H7.37109V154.271H11.8659V142.212H15.1549C23.9253 142.212 28.1461 137.772 28.1461 132.071C28.1461 125.328 23.706 122.314 17.2926 122.314ZM14.8808 138.484H11.8659V126.041H15.703C20.6912 126.096 23.5416 128.069 23.5416 132.235C23.5416 137.388 19.8141 138.32 14.8808 138.484Z" fill="#C37F97"/>
</svg>
