<svg width="1444" height="454" viewBox="0 0 1444 454" fill="none" xmlns="http://www.w3.org/2000/svg">
<path d="M589.83 15.5348L599.875 0.463501H0.210266V45.6775V92.887V136.943V190.53L0.112671 247.884L0.210266 290.489V391.387H74.8627H97.3777H107.871H133.42H153.742H172.148H187.531H198.441H207.205H217.673C217.673 391.387 273.862 415.921 288.346 414.396C302.829 412.871 323.459 385.848 323.459 385.848L324.877 385.205C326.25 384.598 326.711 384.42 328.087 383.889L328.259 383.822C331.549 382.722 335.069 381.601 338.515 380.725C347.158 378.526 354.728 376.324 354.475 372.503C354.046 366.022 365.957 339.046 365.957 339.046H383.454C383.454 339.046 387.206 323.605 392.733 322.651C398.26 321.698 423.208 339.819 425.781 342.202C428.354 344.585 423.987 357.538 425.131 361.351C426.274 365.164 476.317 408.333 478.015 412.919C479.714 417.504 457.624 443.135 460.387 447.901C463.151 452.667 477.331 453.63 482.953 452.773C488.575 451.915 528.327 434.842 528.327 434.842L558.057 404.054L599.983 395.189L617.87 380.596L604.897 372.641L617.87 363.431L604.897 355.895L594.852 326.171L607.408 319.054V306.076L601.967 296.029L604.897 279.283L624.148 284.307L614.522 266.305H604.897L599.875 253.327L609.5 247.884L594.852 239.093V214.811L585.227 208.113V190.53L594.852 182.994L587.319 166.248L604.897 136.943L587.319 131.5L589.83 113.498L609.5 115.592L599.875 98.4271L631.263 91.7287L607.408 76.6574L604.897 57.8183L594.852 45.6775L589.83 29.3502V15.5348Z" fill="url(#paint0_linear_2851_13959)" fill-opacity="0.6"/>
<defs>
<linearGradient id="paint0_linear_2851_13959" x1="589.148" y1="197.856" x2="-798.073" y2="197.856" gradientUnits="userSpaceOnUse">
<stop stop-color="#C37F97" stop-opacity="0.76"/>
<stop offset="0.319965" stop-color="#C37F97" stop-opacity="0.03"/>
<stop offset="0.44" stop-color="#C37F97" stop-opacity="0"/>
</linearGradient>
</defs>
</svg>
