<svg width="637" height="453" viewBox="0 0 637 453" fill="none" xmlns="http://www.w3.org/2000/svg">
<path d="M595.357 15.2784L605.404 0.207031H0V45.421V98.1706V136.686V190.273V253.07V295.772V391.13H80.2173H102.74H113.237H138.794H159.123H177.535H192.924H203.837H212.604H223.075C223.075 391.13 279.283 415.665 293.771 414.14C308.26 412.615 328.897 385.592 328.897 385.592L330.314 384.948C331.688 384.341 332.149 384.164 333.526 383.633L333.698 383.566C336.989 382.465 340.51 381.345 343.957 380.468C352.603 378.27 360.176 376.067 359.923 372.247C359.494 365.765 371.409 338.79 371.409 338.79H388.912C388.912 338.79 392.665 323.348 398.194 322.395C403.722 321.442 428.679 339.563 431.252 341.946C433.826 344.329 429.458 357.282 430.602 361.095C431.746 364.907 481.806 408.076 483.504 412.662C485.203 417.248 463.106 442.878 465.87 447.644C468.635 452.41 482.82 453.374 488.444 452.516C494.068 451.658 533.833 434.586 533.833 434.586L563.573 403.798L605.513 394.933L623.406 380.339L610.428 372.385L623.406 363.175L610.428 355.639L600.38 325.915L612.94 318.798V305.82L607.497 295.772L610.428 279.026L629.686 284.05L620.057 266.048H610.428L605.404 253.07L615.033 247.628L600.38 238.836V214.555L590.751 207.856V190.273L600.38 182.737L592.845 165.992L610.428 136.686L592.845 131.244L595.357 113.242L615.033 115.335L605.404 98.1706L636.803 91.4722L612.94 76.4009L610.428 57.5618L600.38 45.421L595.357 29.0937V15.2784Z" fill="url(#paint0_linear_1125_30939)" fill-opacity="0.6"/>
<defs>
<linearGradient id="paint0_linear_1125_30939" x1="594.674" y1="197.6" x2="-793.009" y2="197.6" gradientUnits="userSpaceOnUse">
<stop stop-color="#C37F97" stop-opacity="0.76"/>
<stop offset="0.319965" stop-color="#C37F97" stop-opacity="0.19"/>
<stop offset="0.538719" stop-color="#C37F97" stop-opacity="0"/>
</linearGradient>
</defs>
</svg>
