<svg width="1440" height="574" viewBox="0 0 1440 574" fill="none" xmlns="http://www.w3.org/2000/svg">
<path d="M596.357 122.282L606.404 107.211H1V152.425V205.175V243.69V297.277V360.074V402.776V498.134H81.2173H103.74H114.237H139.794H160.123H178.535H193.924H204.837H213.604H224.075C224.075 498.134 280.283 522.669 294.771 521.144C309.26 519.618 329.897 492.595 329.897 492.595L331.314 491.952C332.688 491.345 333.149 491.167 334.526 490.636L334.698 490.57C337.989 489.469 341.51 488.348 344.957 487.472C353.603 485.274 361.176 483.071 360.923 479.251C360.494 472.769 372.409 445.794 372.409 445.794H389.912C389.912 445.794 393.665 430.352 399.194 429.399C404.722 428.446 429.679 446.567 432.252 448.95C434.826 451.333 430.458 464.286 431.602 468.098C432.746 471.911 482.806 515.08 484.504 519.666C486.203 524.252 464.106 549.882 466.87 554.648C469.635 559.414 483.82 560.378 489.444 559.52C495.068 558.662 534.833 541.59 534.833 541.59L564.573 510.801L606.513 501.937L624.406 487.343L611.428 479.389L624.406 470.179L611.428 462.643L601.38 432.919L613.94 425.802V412.824L608.497 402.776L611.428 386.03L630.686 391.054L621.057 373.052H611.428L606.404 360.074L616.033 354.632L601.38 345.84V321.559L591.751 314.86V297.277L601.38 289.741L593.845 272.995L611.428 243.69L593.845 238.248L596.357 220.246L616.033 222.339L606.404 205.175L637.803 198.476L613.94 183.405L611.428 164.566L601.38 152.425L596.357 136.098V122.282Z" fill="url(#paint0_linear_1125_30911)" fill-opacity="0.6"/>
<rect y="0.945312" width="1440" height="572" fill="url(#paint1_linear_1125_30911)" fill-opacity="0.2"/>
<rect y="1.05078" width="1440" height="572" fill="url(#paint2_linear_1125_30911)"/>
<path d="M600.836 217.781H590.871V249.879H595.386V237.766H598.689C607.498 237.766 611.738 233.307 611.738 227.581C611.738 220.809 607.278 217.781 600.836 217.781ZM598.414 234.022H595.386V221.525H599.24C604.25 221.58 607.113 223.562 607.113 227.746C607.113 232.921 603.369 233.857 598.414 234.022Z" fill="#C37F97"/>
<path d="M651.089 249.879L642.445 236.445C646.354 234.683 648.281 231.435 648.281 227.581C648.281 220.809 643.821 217.781 637.38 217.781H627.414V249.879H631.929V237.766H635.233C636.279 237.766 637.27 237.711 638.151 237.601L645.528 249.879H651.089ZM634.957 234.022H631.929V221.525H635.783C640.793 221.58 643.656 223.562 643.656 227.746C643.656 232.921 639.967 234.022 634.957 234.022Z" fill="#C37F97" fill-opacity="0.6"/>
<path d="M666.162 217.781V249.879H670.677V217.781H666.162Z" fill="#C37F97" fill-opacity="0.6"/>
<path d="M688.995 217.781V249.879H693.51V225.103H693.565L711.183 249.879H715.422V217.781H710.908V241.896H710.853L693.234 217.781H688.995Z" fill="#C37F97" fill-opacity="0.6"/>
<path d="M731.893 234.022C731.893 244.153 737.343 250.319 747.859 250.319C752.209 250.319 755.787 249.218 757.274 248.227V244.263C754.521 245.915 751.878 246.52 748.41 246.52C741.197 246.52 736.683 242.116 736.683 233.197C736.683 225.489 741.032 221.029 747.474 221.029C751.053 221.029 753.916 221.58 757.274 223.562V219.102C755.567 218.441 753.31 217.285 747.749 217.285C737.288 217.285 731.893 224.938 731.893 234.022Z" fill="#C37F97" fill-opacity="0.6"/>
<path d="M777.941 246.135V235.289H790.219V231.545H777.941V221.525H792.751V217.781H773.427V249.879H793.137V246.135H777.941Z" fill="#C37F97" fill-opacity="0.6"/>
<path d="M833.55 217.781H805.856V221.525H817.363V249.879H821.878V221.525H833.55V217.781Z" fill="#C37F97" fill-opacity="0.6"/>
<path d="M844.964 234.463C844.964 243.217 850.194 250.319 859.719 250.319C870.015 250.319 875.19 241.786 875.19 232.866C875.19 224.443 870.29 217.285 860.6 217.285C850.745 217.285 844.964 224.828 844.964 234.463ZM870.4 233.637C870.4 240.134 867.372 246.52 859.884 246.52C853.002 246.52 849.754 240.409 849.754 233.582C849.754 226.314 853.388 221.084 860.215 221.084C866.932 221.084 870.4 226.59 870.4 233.637Z" fill="#C37F97" fill-opacity="0.6"/>
<path d="M891.659 217.781V249.879H896.174V225.103H896.229L913.847 249.879H918.087V217.781H913.572V241.896H913.517L895.899 217.781H891.659Z" fill="#C37F97" fill-opacity="0.6"/>
<path d="M607.254 292.955V305.014C606.179 305.193 605.105 305.312 603.971 305.312C597.046 305.312 593.285 300.954 593.285 293.432C593.285 285.97 598.24 282.329 603.911 282.329C607.553 282.329 612.03 283.105 615.552 285.313V277.911C613.284 277.015 609.045 275.762 603.792 275.762C591.971 275.762 584.449 283.164 584.449 294.388C584.449 306.148 591.852 311.879 602.777 311.879C607.433 311.879 611.612 310.685 615.612 308.536V292.955H607.254Z" fill="#C37F97"/>
<path d="M637.849 304.835V296.596H650.206V290.507H637.849V282.806H652.952V276.418H629.431V311.223H653.37V304.835H637.849Z" fill="#C37F97" fill-opacity="0.6"/>
<path d="M666.263 276.418V311.223H673.845V289.552H674.024L690.919 311.223H698.083V276.418H690.501V297.611H690.322L673.308 276.418H666.263Z" fill="#C37F97" fill-opacity="0.6"/>
<path d="M712.948 276.418V311.223H721.366V276.418H712.948Z" fill="#C37F97" fill-opacity="0.6"/>
<path d="M762.88 276.597L762.821 276.418H734.345V282.806H750.045L733.151 311.044L733.27 311.223H761.925V304.835H745.568L762.88 276.597Z" fill="#C37F97" fill-opacity="0.6"/>
<path d="M795.671 311.223H804.566L792.865 276.418H784.328L770.598 311.223H778.478L781.463 302.865H793.283L795.671 311.223ZM783.731 296.477L784.806 293.373L787.91 284.776H788.209L790.596 293.373L791.492 296.477H783.731Z" fill="#C37F97" fill-opacity="0.6"/>
<path d="M601.293 339.318H591.371V371.275H595.866V359.215H599.155C607.925 359.215 612.146 354.775 612.146 349.075C612.146 342.332 607.706 339.318 601.293 339.318ZM598.881 355.488H595.866V343.045H599.703C604.691 343.1 607.542 345.073 607.542 349.239C607.542 354.392 603.814 355.324 598.881 355.488Z" fill="#C37F97"/>
<path d="M651.325 371.275L642.719 357.9C646.61 356.146 648.529 352.912 648.529 349.075C648.529 342.332 644.089 339.318 637.676 339.318H627.754V371.275H632.249V359.215H635.538C636.579 359.215 637.566 359.161 638.443 359.051L645.788 371.275H651.325ZM635.264 355.488H632.249V343.045H636.086C641.074 343.1 643.924 345.073 643.924 349.239C643.924 354.392 640.252 355.488 635.264 355.488Z" fill="#C37F97" fill-opacity="0.6"/>
<path d="M664.04 355.927C664.04 364.642 669.247 371.713 678.73 371.713C688.981 371.713 694.133 363.217 694.133 354.337C694.133 345.95 689.255 338.824 679.607 338.824C669.795 338.824 664.04 346.334 664.04 355.927ZM689.364 355.104C689.364 361.573 686.349 367.931 678.895 367.931C672.043 367.931 668.809 361.847 668.809 355.05C668.809 347.814 672.426 342.606 679.223 342.606C685.911 342.606 689.364 348.088 689.364 355.104Z" fill="#C37F97" fill-opacity="0.6"/>
<path d="M705.066 373.467L708.52 375.715C713.124 370.946 715.81 366.396 715.81 361.463V339.318H711.315V361.682C711.315 365.903 708.191 369.576 705.066 373.467Z" fill="#C37F97" fill-opacity="0.6"/>
<path d="M738.293 367.547V356.749H750.516V353.021H738.293V343.045H753.038V339.318H733.798V371.275H753.422V367.547H738.293Z" fill="#C37F97" fill-opacity="0.6"/>
<path d="M767.086 355.488C767.086 365.574 772.512 371.713 782.982 371.713C787.313 371.713 790.876 370.617 792.356 369.63V365.684C789.615 367.328 786.984 367.931 783.53 367.931C776.35 367.931 771.855 363.546 771.855 354.666C771.855 346.992 776.185 342.552 782.598 342.552C786.161 342.552 789.012 343.1 792.356 345.073V340.633C790.656 339.975 788.409 338.824 782.873 338.824C772.458 338.824 767.086 346.444 767.086 355.488Z" fill="#C37F97" fill-opacity="0.6"/>
<path d="M832.556 339.318H804.984V343.045H816.44V371.275H820.935V343.045H832.556V339.318Z" fill="#C37F97" fill-opacity="0.6"/>
<defs>
<linearGradient id="paint0_linear_1125_30911" x1="595.674" y1="304.604" x2="-792.009" y2="304.604" gradientUnits="userSpaceOnUse">
<stop stop-color="#C37F97" stop-opacity="0.76"/>
<stop offset="0.319965" stop-color="#C37F97" stop-opacity="0.19"/>
<stop offset="0.538719" stop-color="#C37F97" stop-opacity="0"/>
</linearGradient>
<linearGradient id="paint1_linear_1125_30911" x1="720" y1="0.945312" x2="720" y2="572.945" gradientUnits="userSpaceOnUse">
<stop stop-color="#C37F97"/>
<stop offset="0.741847" stop-color="#C37F97"/>
<stop offset="1" stop-color="#C37F97" stop-opacity="0"/>
</linearGradient>
<linearGradient id="paint2_linear_1125_30911" x1="720" y1="573.051" x2="720" y2="1.05078" gradientUnits="userSpaceOnUse">
<stop stop-color="#161616"/>
<stop offset="0.309548" stop-color="#161616" stop-opacity="0.12"/>
<stop offset="0.455384" stop-color="#161616" stop-opacity="0"/>
</linearGradient>
</defs>
</svg>
