<svg width="146" height="204" viewBox="0 0 146 204" fill="none" xmlns="http://www.w3.org/2000/svg">
<path d="M126.505 7.63255L131.01 0.875H0V34.9141V52.6641V75.9141V93.979V114.414V151.539V158.414V162.687V168.539V172.762V175.789L7.03157 173.67L7.6673 173.382C8.2832 173.11 8.48982 173.03 9.10674 172.792L9.18451 172.762C10.6601 172.269 12.2387 171.766 13.7842 171.373C17.6609 170.388 21.0563 169.4 20.9429 167.687C20.7506 164.781 26.0929 152.686 26.0929 152.686H33.9407C33.9407 152.686 35.6236 145.762 38.1024 145.335C40.5812 144.907 51.771 153.032 52.925 154.101C54.0789 155.169 52.1206 160.977 52.6335 162.687C53.1463 164.396 75.5916 183.752 76.3533 185.808C77.1149 187.864 67.2073 199.356 68.4467 201.493C69.6861 203.63 76.0465 204.062 78.568 203.677C81.0896 203.293 98.9192 195.638 98.9192 195.638L112.254 181.833L131.058 177.859L139.081 171.315L133.262 167.749L139.081 163.619L133.262 160.241L128.757 146.913L134.388 143.722V137.903L131.948 133.398L133.262 125.89L141.897 128.142L137.579 120.071H133.262L131.01 114.252L135.327 111.811L128.757 107.87V96.9824L124.44 93.979V86.0952L128.757 82.7164L125.378 75.208L133.262 62.0684L125.378 59.6281L126.505 51.5566L135.327 52.4952L131.01 44.7991L145.088 41.7957L134.388 35.0382L133.262 26.5912L128.757 21.1476L126.505 13.827V7.63255Z" fill="url(#paint0_linear_1125_30892)" fill-opacity="0.6"/>
<defs>
<linearGradient id="paint0_linear_1125_30892" x1="126.198" y1="89.3802" x2="-495.999" y2="89.3803" gradientUnits="userSpaceOnUse">
<stop stop-color="#78A778" stop-opacity="0.76"/>
<stop offset="0.319965" stop-color="#78A778" stop-opacity="0.19"/>
<stop offset="0.538719" stop-color="#78A778" stop-opacity="0"/>
</linearGradient>
</defs>
</svg>
