<svg width="150" height="72" viewBox="0 0 150 72" fill="none" xmlns="http://www.w3.org/2000/svg">
<path d="M7.3666 1.06202H2.89844V15.4539H4.92269V10.023H6.40385C10.3536 10.023 12.2544 8.02346 12.2544 5.45612C12.2544 2.41974 10.2549 1.06202 7.3666 1.06202ZM6.28042 8.34437H4.92269V2.74066H6.65071C8.89713 2.76535 10.1808 3.65404 10.1808 5.53018C10.1808 7.85066 8.50215 8.27032 6.28042 8.34437Z" fill="#161616"/>
<path d="M29.8984 15.4539L26.0227 9.43056C27.7754 8.64061 28.6394 7.18414 28.6394 5.45612C28.6394 2.41974 26.6398 1.06202 23.7516 1.06202H19.2834V15.4539H21.3077V10.023H22.7888C23.2579 10.023 23.7022 9.99834 24.0972 9.94897L27.4051 15.4539H29.8984ZM22.6654 8.34437H21.3077V2.74066H23.0357C25.2821 2.76535 26.5658 3.65404 26.5658 5.53018C26.5658 7.85066 24.9118 8.34437 22.6654 8.34437Z" fill="#161616" fill-opacity="0.6"/>
<path d="M36.6568 1.06202V15.4539H38.6811V1.06202H36.6568Z" fill="#161616" fill-opacity="0.6"/>
<path d="M46.8944 1.06202V15.4539H48.9187V4.34525H48.9434L56.8429 15.4539H58.7437V1.06202H56.7195V11.8745H56.6948L48.7953 1.06202H46.8944Z" fill="#161616" fill-opacity="0.6"/>
<path d="M66.1285 8.34437C66.1285 12.8866 68.5724 15.6514 73.2875 15.6514C75.2377 15.6514 76.8422 15.1577 77.5088 14.7134V12.936C76.2745 13.6765 75.0895 13.9481 73.5343 13.9481C70.3005 13.9481 68.2762 11.9732 68.2762 7.97409C68.2762 4.51805 70.2264 2.51849 73.1147 2.51849C74.7193 2.51849 76.0029 2.76535 77.5088 3.65404V1.65448C76.7435 1.35825 75.7314 0.839844 73.2381 0.839844C68.5478 0.839844 66.1285 4.27119 66.1285 8.34437Z" fill="#161616" fill-opacity="0.6"/>
<path d="M86.7753 13.7753V8.91215H92.2803V7.23351H86.7753V2.74066H93.4158V1.06202H84.7511V15.4539H93.5887V13.7753H86.7753Z" fill="#161616" fill-opacity="0.6"/>
<path d="M111.709 1.06202H99.2916V2.74066H104.451V15.4539H106.475V2.74066H111.709V1.06202Z" fill="#161616" fill-opacity="0.6"/>
<path d="M116.826 8.54186C116.826 12.4669 119.172 15.6514 123.442 15.6514C128.058 15.6514 130.379 11.8251 130.379 7.82597C130.379 4.04902 128.182 0.839844 123.837 0.839844C119.418 0.839844 116.826 4.22182 116.826 8.54186ZM128.231 8.17157C128.231 11.0845 126.874 13.9481 123.516 13.9481C120.431 13.9481 118.974 11.208 118.974 8.14689C118.974 4.88834 120.603 2.54317 123.664 2.54317C126.676 2.54317 128.231 5.01177 128.231 8.17157Z" fill="#161616" fill-opacity="0.6"/>
<path d="M137.763 1.06202V15.4539H139.787V4.34525H139.812L147.712 15.4539H149.613V1.06202H147.588V11.8745H147.564L139.664 1.06202H137.763Z" fill="#161616" fill-opacity="0.6"/>
<path d="M10.2436 34.7675V40.1745C9.76177 40.2548 9.27997 40.3083 8.77139 40.3083C5.66641 40.3083 3.98008 38.3543 3.98008 34.9817C3.98008 31.6358 6.20175 30.003 8.74463 30.003C10.3774 30.003 12.3849 30.3509 13.9642 31.3413V28.0222C12.9471 27.6207 11.0466 27.0586 8.69109 27.0586C3.39121 27.0586 0.0185547 30.3777 0.0185547 35.4099C0.0185547 40.683 3.33767 43.2527 8.23605 43.2527C10.3239 43.2527 12.1976 42.7173 13.991 41.7537V34.7675H10.2436Z" fill="#161616"/>
<path d="M23.9613 40.0942V36.4003H29.5021V33.6701H23.9613V30.2171H30.7334V27.353H20.1872V42.9582H30.9208V40.0942H23.9613Z" fill="#161616" fill-opacity="0.6"/>
<path d="M36.7017 27.353V42.9582H40.1011V33.2418H40.1814L47.7565 42.9582H50.9685V27.353H47.5691V36.8553H47.4888L39.8602 27.353H36.7017Z" fill="#161616" fill-opacity="0.6"/>
<path d="M57.6338 27.353V42.9582H61.408V27.353H57.6338Z" fill="#161616" fill-opacity="0.6"/>
<path d="M80.022 27.4333L79.9952 27.353H67.2273V30.2171H74.2671L66.692 42.8779L66.7455 42.9582H79.5937V40.0942H72.2596L80.022 27.4333Z" fill="#161616" fill-opacity="0.6"/>
<path d="M94.7243 42.9582H98.7126L93.4662 27.353H89.6385L83.4821 42.9582H87.0154L88.3537 39.2109H93.6536L94.7243 42.9582ZM89.3709 36.3468L89.8527 34.9549L91.2446 31.1004H91.3784L92.4491 34.9549L92.8506 36.3468H89.3709Z" fill="#161616" fill-opacity="0.6"/>
<path d="M7.57061 55.5571H3.12207V69.8859H5.13743V64.4788H6.61209C10.5445 64.4788 12.437 62.488 12.437 59.9319C12.437 56.9089 10.4462 55.5571 7.57061 55.5571ZM6.4892 62.8075H5.13743V57.2284H6.85786C9.09442 57.253 10.3725 58.1378 10.3725 60.0057C10.3725 62.316 8.70118 62.7338 6.4892 62.8075Z" fill="#161616"/>
<path d="M30.0035 69.8859L26.1448 63.8889C27.8898 63.1024 28.75 61.6524 28.75 59.9319C28.75 56.9089 26.7592 55.5571 23.8837 55.5571H19.4351V69.8859H21.4505V64.4788H22.9251C23.3921 64.4788 23.8345 64.4542 24.2277 64.4051L27.5211 69.8859H30.0035ZM22.8022 62.8075H21.4505V57.2284H23.1709C25.4075 57.253 26.6855 58.1378 26.6855 60.0057C26.6855 62.316 25.0388 62.8075 22.8022 62.8075Z" fill="#161616" fill-opacity="0.6"/>
<path d="M35.7046 63.0041C35.7046 66.912 38.0394 70.0825 42.2914 70.0825C46.8874 70.0825 49.1977 66.273 49.1977 62.2914C49.1977 58.531 47.0102 55.3359 42.6846 55.3359C38.2852 55.3359 35.7046 58.7031 35.7046 63.0041ZM47.0594 62.6355C47.0594 65.5356 45.7076 68.3866 42.3651 68.3866C39.2929 68.3866 37.8428 65.6585 37.8428 62.6109C37.8428 59.3667 39.4649 57.0318 42.5126 57.0318C45.511 57.0318 47.0594 59.4895 47.0594 62.6355Z" fill="#161616" fill-opacity="0.6"/>
<path d="M54.0998 70.869L55.6482 71.8766C57.7127 69.7384 58.917 67.6985 58.917 65.4865V55.5571H56.9016V65.5848C56.9016 67.4773 55.5007 69.124 54.0998 70.869Z" fill="#161616" fill-opacity="0.6"/>
<path d="M68.9975 68.2146V63.3728H74.4783V61.7015H68.9975V57.2284H75.6089V55.5571H66.9821V69.8859H75.7809V68.2146H68.9975Z" fill="#161616" fill-opacity="0.6"/>
<path d="M81.9075 62.8075C81.9075 67.3298 84.3407 70.0825 89.035 70.0825C90.9766 70.0825 92.5742 69.5909 93.2378 69.1485V67.3789C92.0089 68.1163 90.8292 68.3866 89.2808 68.3866C86.0611 68.3866 84.0458 66.4204 84.0458 62.4389C84.0458 58.998 85.9874 57.0072 88.863 57.0072C90.4605 57.0072 91.7385 57.253 93.2378 58.1378V56.147C92.4759 55.8521 91.4682 55.3359 88.9859 55.3359C84.3161 55.3359 81.9075 58.7522 81.9075 62.8075Z" fill="#161616" fill-opacity="0.6"/>
<path d="M111.262 55.5571H98.8999V57.2284H104.037V69.8859H106.052V57.2284H111.262V55.5571Z" fill="#161616" fill-opacity="0.6"/>
</svg>
