<svg width="321" height="290" viewBox="0 0 321 290" fill="none" xmlns="http://www.w3.org/2000/svg">
<path d="M126.505 69.1638L131.01 62.4062H0V96.4453V114.195V137.445V155.51V175.945V213.07V219.945V224.218V230.07V234.293V237.32L7.03157 235.202L7.6673 234.913C8.2832 234.641 8.48982 234.561 9.10674 234.323L9.18451 234.293C10.6601 233.8 12.2387 233.297 13.7842 232.904C17.6609 231.919 21.0563 230.931 20.9429 229.218C20.7506 226.312 26.0929 214.217 26.0929 214.217H33.9407C33.9407 214.217 35.6236 207.293 38.1024 206.866C40.5812 206.439 51.771 214.564 52.925 215.632C54.0789 216.701 52.1206 222.508 52.6335 224.218C53.1463 225.927 75.5916 245.283 76.3533 247.339C77.1149 249.395 67.2073 260.887 68.4467 263.024C69.6861 265.161 76.0465 265.593 78.568 265.209C81.0896 264.824 98.9192 257.169 98.9192 257.169L112.254 243.365L131.058 239.39L139.081 232.847L133.262 229.28L139.081 225.151L133.262 221.772L128.757 208.444L134.388 205.253V199.434L131.948 194.929L133.262 187.421L141.897 189.673L137.579 181.602H133.262L131.01 175.783L135.327 173.343L128.757 169.401V158.514L124.44 155.51V147.626L128.757 144.248L125.378 136.739L133.262 123.6L125.378 121.159L126.505 113.088L135.327 114.026L131.01 106.33L145.088 103.327L134.388 96.5694L133.262 88.1225L128.757 82.6789L126.505 75.3582V69.1638Z" fill="url(#paint0_linear_1125_30951)" fill-opacity="0.6"/>
<rect x="0.5" y="0.945312" width="320" height="289" fill="url(#paint1_linear_1125_30951)" fill-opacity="0.2"/>
<rect x="0.5" y="0.945312" width="320" height="289" fill="url(#paint2_linear_1125_30951)"/>
<rect x="0.5" y="0.945312" width="320" height="289" fill="url(#paint3_linear_1125_30951)"/>
<path d="M128.367 112.597H123.898V126.989H125.923V121.558H127.404C131.354 121.558 133.254 119.559 133.254 116.991C133.254 113.955 131.255 112.597 128.367 112.597ZM127.28 119.88H125.923V114.276H127.651C129.897 114.301 131.181 115.189 131.181 117.065C131.181 119.386 129.502 119.805 127.28 119.88Z" fill="#161616"/>
<path d="M150.898 126.989L147.023 120.966C148.775 120.176 149.639 118.719 149.639 116.991C149.639 113.955 147.64 112.597 144.752 112.597H140.283V126.989H142.308V121.558H143.789C144.258 121.558 144.702 121.533 145.097 121.484L148.405 126.989H150.898ZM143.665 119.88H142.308V114.276H144.036C146.282 114.301 147.566 115.189 147.566 117.065C147.566 119.386 145.912 119.88 143.665 119.88Z" fill="#161616" fill-opacity="0.6"/>
<path d="M157.657 112.597V126.989H159.681V112.597H157.657Z" fill="#161616" fill-opacity="0.6"/>
<path d="M167.894 112.597V126.989H169.919V115.88H169.943L177.843 126.989H179.744V112.597H177.719V123.41H177.695L169.795 112.597H167.894Z" fill="#161616" fill-opacity="0.6"/>
<path d="M187.129 119.88C187.129 124.422 189.572 127.187 194.287 127.187C196.238 127.187 197.842 126.693 198.509 126.249V124.471C197.274 125.212 196.09 125.483 194.534 125.483C191.3 125.483 189.276 123.508 189.276 119.509C189.276 116.053 191.226 114.054 194.115 114.054C195.719 114.054 197.003 114.301 198.509 115.189V113.19C197.743 112.893 196.731 112.375 194.238 112.375C189.548 112.375 187.129 115.806 187.129 119.88Z" fill="#161616" fill-opacity="0.6"/>
<path d="M207.775 125.31V120.447H213.28V118.769H207.775V114.276H214.416V112.597H205.751V126.989H214.589V125.31H207.775Z" fill="#161616" fill-opacity="0.6"/>
<path d="M232.709 112.597H220.292V114.276H225.451V126.989H227.475V114.276H232.709V112.597Z" fill="#161616" fill-opacity="0.6"/>
<path d="M237.826 120.077C237.826 124.002 240.172 127.187 244.442 127.187C249.058 127.187 251.379 123.36 251.379 119.361C251.379 115.584 249.182 112.375 244.837 112.375C240.418 112.375 237.826 115.757 237.826 120.077ZM249.231 119.707C249.231 122.62 247.874 125.483 244.516 125.483C241.431 125.483 239.974 122.743 239.974 119.682C239.974 116.423 241.603 114.078 244.664 114.078C247.676 114.078 249.231 116.547 249.231 119.707Z" fill="#161616" fill-opacity="0.6"/>
<path d="M258.763 112.597V126.989H260.787V115.88H260.812L268.712 126.989H270.613V112.597H268.588V123.41H268.564L260.664 112.597H258.763Z" fill="#161616" fill-opacity="0.6"/>
<path d="M131.244 146.303V151.71C130.762 151.79 130.28 151.843 129.771 151.843C126.666 151.843 124.98 149.889 124.98 146.517C124.98 143.171 127.202 141.538 129.745 141.538C131.377 141.538 133.385 141.886 134.964 142.876V139.557C133.947 139.156 132.047 138.594 129.691 138.594C124.391 138.594 121.019 141.913 121.019 146.945C121.019 152.218 124.338 154.788 129.236 154.788C131.324 154.788 133.198 154.252 134.991 153.289V146.303H131.244Z" fill="#161616"/>
<path d="M144.961 151.629V147.935H150.502V145.205H144.961V141.752H151.733V138.888H141.187V154.493H151.921V151.629H144.961Z" fill="#161616" fill-opacity="0.6"/>
<path d="M157.702 138.888V154.493H161.101V144.777H161.181L168.756 154.493H171.969V138.888H168.569V148.391H168.489L160.86 138.888H157.702Z" fill="#161616" fill-opacity="0.6"/>
<path d="M178.634 138.888V154.493H182.408V138.888H178.634Z" fill="#161616" fill-opacity="0.6"/>
<path d="M201.022 138.968L200.995 138.888H188.227V141.752H195.267L187.692 154.413L187.746 154.493H200.594V151.629H193.26L201.022 138.968Z" fill="#161616" fill-opacity="0.6"/>
<path d="M215.724 154.493H219.713L214.466 138.888H210.639L204.482 154.493H208.015L209.354 150.746H214.654L215.724 154.493ZM210.371 147.882L210.853 146.49L212.245 142.636H212.378L213.449 146.49L213.851 147.882H210.371Z" fill="#161616" fill-opacity="0.6"/>
<path d="M128.571 167.092H124.122V181.421H126.137V176.014H127.612C131.544 176.014 133.437 174.023 133.437 171.467C133.437 168.444 131.446 167.092 128.571 167.092ZM127.489 174.343H126.137V168.764H127.858C130.094 168.788 131.372 169.673 131.372 171.541C131.372 173.851 129.701 174.269 127.489 174.343Z" fill="#161616"/>
<path d="M151.003 181.421L147.145 175.424C148.89 174.638 149.75 173.188 149.75 171.467C149.75 168.444 147.759 167.092 144.884 167.092H140.435V181.421H142.45V176.014H143.925C144.392 176.014 144.834 175.989 145.228 175.94L148.521 181.421H151.003ZM143.802 174.343H142.45V168.764H144.171C146.407 168.788 147.685 169.673 147.685 171.541C147.685 173.851 146.039 174.343 143.802 174.343Z" fill="#161616" fill-opacity="0.6"/>
<path d="M156.705 174.539C156.705 178.447 159.039 181.618 163.291 181.618C167.887 181.618 170.198 177.808 170.198 173.827C170.198 170.066 168.01 166.871 163.685 166.871C159.285 166.871 156.705 170.238 156.705 174.539ZM168.059 174.171C168.059 177.071 166.708 179.922 163.365 179.922C160.293 179.922 158.843 177.194 158.843 174.146C158.843 170.902 160.465 168.567 163.513 168.567C166.511 168.567 168.059 171.025 168.059 174.171Z" fill="#161616" fill-opacity="0.6"/>
<path d="M175.1 182.404L176.648 183.412C178.713 181.274 179.917 179.234 179.917 177.022V167.092H177.902V177.12C177.902 179.012 176.501 180.659 175.1 182.404Z" fill="#161616" fill-opacity="0.6"/>
<path d="M189.998 179.75V174.908H195.478V173.237H189.998V168.764H196.609V167.092H187.982V181.421H196.781V179.75H189.998Z" fill="#161616" fill-opacity="0.6"/>
<path d="M202.908 174.343C202.908 178.865 205.341 181.618 210.035 181.618C211.977 181.618 213.574 181.126 214.238 180.684V178.914C213.009 179.651 211.829 179.922 210.281 179.922C207.061 179.922 205.046 177.956 205.046 173.974C205.046 170.533 206.987 168.542 209.863 168.542C211.461 168.542 212.739 168.788 214.238 169.673V167.682C213.476 167.387 212.468 166.871 209.986 166.871C205.316 166.871 202.908 170.287 202.908 174.343Z" fill="#161616" fill-opacity="0.6"/>
<path d="M232.262 167.092H219.9V168.764H225.037V181.421H227.052V168.764H232.262V167.092Z" fill="#161616" fill-opacity="0.6"/>
<defs>
<linearGradient id="paint0_linear_1125_30951" x1="126.198" y1="150.911" x2="-495.999" y2="150.912" gradientUnits="userSpaceOnUse">
<stop stop-color="#78A778" stop-opacity="0.76"/>
<stop offset="0.319965" stop-color="#78A778" stop-opacity="0.19"/>
<stop offset="0.538719" stop-color="#78A778" stop-opacity="0"/>
</linearGradient>
<linearGradient id="paint1_linear_1125_30951" x1="160.5" y1="0.945312" x2="160.5" y2="289.945" gradientUnits="userSpaceOnUse">
<stop stop-color="#567856"/>
<stop offset="0.354491" stop-color="#567856" stop-opacity="0.56"/>
<stop offset="1" stop-color="#567856" stop-opacity="0"/>
</linearGradient>
<linearGradient id="paint2_linear_1125_30951" x1="0.5" y1="289.945" x2="320.5" y2="289.945" gradientUnits="userSpaceOnUse">
<stop stop-color="white" stop-opacity="0"/>
<stop offset="0.222625" stop-color="white" stop-opacity="0.1"/>
<stop offset="0.477843" stop-color="white" stop-opacity="0.13"/>
<stop offset="0.733062" stop-color="white" stop-opacity="0.06"/>
<stop offset="1" stop-color="white" stop-opacity="0"/>
</linearGradient>
<linearGradient id="paint3_linear_1125_30951" x1="160.5" y1="289.945" x2="160.5" y2="0.945312" gradientUnits="userSpaceOnUse">
<stop stop-color="white"/>
<stop offset="0.352838" stop-color="white" stop-opacity="0.17"/>
<stop offset="1" stop-color="white" stop-opacity="0"/>
</linearGradient>
</defs>
</svg>
