<svg width="900" height="151" viewBox="0 0 900 151" fill="none" version="1.1" id="svg131" xmlns="http://www.w3.org/2000/svg">
    <g filter="url(#filter0_d_1456_38243)" id="g110">
        <path d="M 305.266 102.3 C 307.721 102.3 318.576 86.582 318.576 86.582 L 900 86.582 L 900 0 L 320 0 L 0 0 L 0 91.189 L 35.042 91.189 L 44.504 93.082 L 51.37 100.256 C 51.37 100.256 60.788 104.217 61.844 104.437 C 62.901 104.657 66.773 104.437 67.17 103.205 C 67.566 101.972 62.637 96.339 62.901 95.107 C 63.165 93.874 74.695 84.456 75.091 83.444 C 75.488 82.432 74.343 79.571 75.091 78.867 C 75.84 78.163 80.725 74.642 82.353 74.378 C 83.982 74.114 84.862 78.162 84.862 78.162 L 88.92 78.162 C 88.92 78.162 91.737 84.324 91.561 85.908 C 91.385 87.492 97.86 87.844 99.64 89.605 C 101.419 91.365 104.246 95.59 107.229 95.59 C 110.212 95.59 122.887 90.329 122.887 90.329 L 134.153 82.583 L 142.603 79.062 C 142.603 79.062 149.655 78.006 151.758 79.062 C 153.86 80.119 155.992 86.808 158.799 86.808 C 161.606 86.808 169.547 82.583 172.178 82.583 C 174.809 82.583 177.293 90.329 179.924 90.329 C 182.555 90.329 196.815 85.224 196.824 86.808 C 196.834 88.392 189.166 93.077 188.374 95.258 C 187.582 97.44 209.147 111.258 210.203 110.384 C 211.26 109.509 210.203 95.258 210.203 95.258 L 219.358 90.329 L 236.258 90.329 L 244.708 86.808 L 254.566 86.808 L 264.424 95.258 C 264.424 95.258 263.202 100.715 264.424 102.3 C 265.647 103.884 276.395 98.779 276.395 98.779 C 276.395 98.779 278.869 102.3 280.62 102.3 C 282.371 102.3 287.662 95.258 287.662 95.258 C 287.662 95.258 302.811 102.3 305.266 102.3 Z" fill="url(#gradient-mobile-light)" id="path108"></path>
    </g>
    <defs id="defs129">
        <filter id="filter0_d_1456_38243" x="0.125" y="0.338867" width="900" height="150.424" filterUnits="userSpaceOnUse" color-interpolation-filters="sRGB">
            <feFlood flood-opacity="0" result="BackgroundImageFix" id="feFlood112"></feFlood>
            <feColorMatrix in="SourceAlpha" type="matrix" values="0 0 0 0 0 0 0 0 0 0 0 0 0 0 0 0 0 0 127 0" result="hardAlpha" id="feColorMatrix114"></feColorMatrix>
            <feOffset dy="3" id="feOffset116"></feOffset>
            <feGaussianBlur stdDeviation="10" id="feGaussianBlur118"></feGaussianBlur>
            <feComposite in2="hardAlpha" operator="out" id="feComposite120"></feComposite>
            <feColorMatrix type="matrix" values="0 0 0 0 0.337255 0 0 0 0 0.470588 0 0 0 0 0.337255 0 0 0 1 0" id="feColorMatrix122"></feColorMatrix>
            <feBlend mode="normal" in2="BackgroundImageFix" result="effect1_dropShadow_1456_38243" id="feBlend124"></feBlend>
            <feBlend mode="normal" in="SourceGraphic" in2="effect1_dropShadow_1456_38243" result="shape" id="feBlend126"></feBlend>
        </filter>
        <linearGradient gradientUnits="userSpaceOnUse" x1="0" y1="110" x2="320" y2="110" id="gradient-mobile-light">
            <stop offset="0" style="stop-color: rgba(255, 255, 255, 0);"></stop>
            <stop offset="0.68" style="stop-color: rgb(255, 255, 255); stop-opacity: 0.33;"></stop>
            <stop offset="0.95" style="stop-color: rgb(255, 255, 255); stop-opacity: 0.66;"></stop>
            <stop offset="1" style="stop-color: rgb(255, 255, 255);"></stop>
        </linearGradient>
    </defs>
</svg>