<svg width="2000" height="600" viewBox="20 -10 2000 600" fill="none" xmlns="http://www.w3.org/2000/svg">
    <g style="clip-path: url(#clip-rtl1);">
        <g filter="url(#filter0_d_1126_36266)">
            <path d="M 666.867 41.595 L 711.646 41.595 L 2020 41.595 L 2020 391 L 20.258 377.672 L 20.258 35.331 L 30.945 24.581 L 44.195 24.581 L 56.225 29.518 L 71.82 40.206 C 71.82 40.206 75.225 41.518 77.008 42.081 C 78.791 42.643 79.008 42.893 81.258 43.643 C 83.508 44.393 88.695 46.206 88.695 46.206 C 88.695 46.206 91.195 47.331 92.383 47.643 C 93.57 47.956 94.445 47.643 95.82 47.643 C 97.195 47.643 105.32 40.081 106.82 38.206 C 108.32 36.331 115.008 36.158 116.258 34.533 C 117.508 32.908 119.195 24.942 120.32 23.268 C 121.445 21.594 126.195 23.268 126.195 23.268 L 129.383 17.518 C 129.383 17.518 139.633 22.956 140.195 23.956 C 140.758 24.956 138.383 30.018 141.133 31.768 C 143.883 33.518 153.758 43.518 157.258 47.268 C 160.758 51.018 151.57 58.581 151.57 58.581 L 158.945 60.331 L 173.758 54.393 L 183.383 44.518 L 197.258 41.393 L 210.758 41.393 L 225.633 41.393 L 246.82 41.393 C 250.945 41.393 249.383 32.956 252.32 32.956 C 255.258 32.956 259.334 43.831 263.07 43.831 C 266.807 43.831 285.82 37.018 287.195 38.831 C 288.57 40.643 275.07 49.393 275.07 51.518 C 275.07 53.643 302.633 69.956 304.008 68.456 C 305.383 66.956 304.008 47.018 304.008 47.018 L 317.195 39.893 L 341.32 39.893 L 353.32 34.956 L 367.195 34.956 L 381.383 47.081 C 381.383 47.081 380.383 55.456 381.383 57.081 C 382.383 58.706 398.258 51.956 398.258 51.956 C 398.258 51.956 401.709 57.081 404.195 57.081 C 406.682 57.081 414.195 46.831 414.195 46.831 C 414.195 46.831 435.834 56.893 439.32 56.893 C 442.807 56.893 458.445 34.768 458.445 34.768 L 477.008 28.956 C 477.008 28.956 482.57 33.764 486.695 34.768 C 490.82 35.773 533.133 40.456 536.445 39.956 C 539.758 39.456 555.258 35.018 555.258 35.018 L 568.32 39.956 C 568.32 39.956 572.695 50.206 575.82 52.206 C 578.945 54.206 585.008 53.018 590.133 51.643 C 595.258 50.268 617.869 30.595 620.883 30.595 L 642.367 30.595 C 646.854 30.595 666.867 41.595 666.867 41.595 Z" fill="#FEFEFE"></path>
        </g>
    </g>
    <defs>
        <filter id="filter0_d_1126_36266" x="0.257812" y="0.518433" width="2000.88" height="400.154" filterUnits="userSpaceOnUse" color-interpolation-filters="sRGB">
            <feFlood flood-opacity="0" result="BackgroundImageFix" />
            <feColorMatrix in="SourceAlpha" type="matrix" values="0 0 0 0 0 0 0 0 0 0 0 0 0 0 0 0 0 0 127 0" result="hardAlpha" />
            <feOffset dy="3" />
            <feGaussianBlur stdDeviation="10" />
            <feComposite in2="hardAlpha" operator="out" />
            <feColorMatrix type="matrix" values="0 0 0 0 0.337255 0 0 0 0 0.470588 0 0 0 0 0.337255 0 0 0 1 0" />
            <feBlend mode="normal" in2="BackgroundImageFix" result="effect1_dropShadow_1126_36266" />
            <feBlend mode="normal" in="SourceGraphic" in2="effect1_dropShadow_1126_36266" result="shape" />
        </filter>
    </defs>
    <clipPath id="clip-rtl1">
      <rect width="1990" height="600" fill="white" />
    </clipPath>
</svg>
  