<svg width="1441" height="600" viewBox="0 -27 1441 600" fill="none" xmlns="http://www.w3.org/2000/svg">
    <path d="M646.867 24.5953L691.646 24.5953L1440.13 24.5953V360.672L0.257813 360.672L0.257813 18.3306L10.9453 7.58061L24.1953 7.58061L36.2246 12.5181L51.8203 23.2056C51.8203 23.2056 55.2246 24.5181 57.0078 25.0806C58.791 25.6431 59.0078 25.8931 61.2578 26.6431C63.5078 27.3931 68.6953 29.2056 68.6953 29.2056C68.6953 29.2056 71.1953 30.3306 72.3828 30.6431C73.5703 30.9556 74.4453 30.6431 75.8203 30.6431C77.1953 30.6431 85.3203 23.0806 86.8203 21.2056C88.3203 19.3306 95.0078 19.1579 96.2578 17.5329C97.5078 15.9079 99.1953 7.94196 100.32 6.26819C101.445 4.59441 106.195 6.26843 106.195 6.26843L109.383 0.518433C109.383 0.518433 119.633 5.95593 120.195 6.95593C120.758 7.95593 118.383 13.0184 121.133 14.7684C123.883 16.5184 133.758 26.5184 137.258 30.2684C140.758 34.0184 131.57 41.5809 131.57 41.5809L138.945 43.3309L153.758 37.3934L163.383 27.5184L177.258 24.3934L190.758 24.3934H205.633L226.82 24.3934C230.945 24.3934 229.383 15.9559 232.32 15.9559C235.258 15.9559 239.334 26.8309 243.07 26.8309C246.807 26.8309 265.82 20.0184 267.195 21.8309C268.57 23.6434 255.07 32.3934 255.07 34.5184C255.07 36.6434 282.633 52.9559 284.008 51.4559C285.383 49.9559 284.008 30.0184 284.008 30.0184L297.195 22.8934L321.32 22.8934L333.32 17.9559L347.195 17.9559L361.383 30.0809C361.383 30.0809 360.383 38.4559 361.383 40.0809C362.383 41.7059 378.258 34.9559 378.258 34.9559C378.258 34.9559 381.709 40.0809 384.195 40.0809C386.682 40.0809 394.195 29.8309 394.195 29.8309C394.195 29.8309 415.834 39.8934 419.32 39.8934C422.807 39.8934 438.445 17.7684 438.445 17.7684L457.008 11.9559C457.008 11.9559 462.57 16.7641 466.695 17.7684C470.82 18.7728 513.133 23.4559 516.445 22.9559C519.758 22.4559 535.258 18.0184 535.258 18.0184L548.32 22.9559C548.32 22.9559 552.695 33.2059 555.82 35.2059C558.945 37.2059 565.008 36.0184 570.133 34.6434C575.258 33.2684 597.869 13.5953 600.883 13.5953L622.367 13.5953C626.854 13.5953 646.867 24.5953 646.867 24.5953Z" fill="url(#paint0_linear_1126_36265)" />
    <defs>
        <linearGradient id="paint0_linear_1126_36265" x1="1440.13" y1="360.672" x2="0.257786" y2="360.672" gradientUnits="userSpaceOnUse">
            <stop stop-color="#FEFEFE" stop-opacity="0.9" />
            <stop offset="0.05" stop-color="#FEFEFE" stop-opacity="0.79" />
            <stop offset="0.793354" stop-color="#FEFEFE" stop-opacity="0.72" />
            <stop offset="1" stop-color="#FEFEFE" stop-opacity="0.38" />
        </linearGradient>
    </defs>
</svg>
    