<svg width="2000" height="600" viewBox="0 -27 2000 600" fill="none" xmlns="http://www.w3.org/2000/svg">
    <path d="M 646.867 24.595 L 691.646 24.595 L 2000.13 24.595 L 2000 573 L 0 573 L 0.258 18.331 L 10.945 7.581 L 24.195 7.581 L 36.225 12.518 L 51.82 23.206 C 51.82 23.206 55.225 24.518 57.008 25.081 C 58.791 25.643 59.008 25.893 61.258 26.643 C 63.508 27.393 68.695 29.206 68.695 29.206 C 68.695 29.206 71.195 30.331 72.383 30.643 C 73.57 30.956 74.445 30.643 75.82 30.643 C 77.195 30.643 85.32 23.081 86.82 21.206 C 88.32 19.331 95.008 19.158 96.258 17.533 C 97.508 15.908 99.195 7.942 100.32 6.268 C 101.445 4.594 106.195 6.268 106.195 6.268 L 109.383 0.518 C 109.383 0.518 119.633 5.956 120.195 6.956 C 120.758 7.956 118.383 13.018 121.133 14.768 C 123.883 16.518 133.758 26.518 137.258 30.268 C 140.758 34.018 131.57 41.581 131.57 41.581 L 138.945 43.331 L 153.758 37.393 L 163.383 27.518 L 177.258 24.393 L 190.758 24.393 L 205.633 24.393 L 226.82 24.393 C 230.945 24.393 229.383 15.956 232.32 15.956 C 235.258 15.956 239.334 26.831 243.07 26.831 C 246.807 26.831 265.82 20.018 267.195 21.831 C 268.57 23.643 255.07 32.393 255.07 34.518 C 255.07 36.643 282.633 52.956 284.008 51.456 C 285.383 49.956 284.008 30.018 284.008 30.018 L 297.195 22.893 L 321.32 22.893 L 333.32 17.956 L 347.195 17.956 L 361.383 30.081 C 361.383 30.081 360.383 38.456 361.383 40.081 C 362.383 41.706 378.258 34.956 378.258 34.956 C 378.258 34.956 381.709 40.081 384.195 40.081 C 386.682 40.081 394.195 29.831 394.195 29.831 C 394.195 29.831 415.834 39.893 419.32 39.893 C 422.807 39.893 438.445 17.768 438.445 17.768 L 457.008 11.956 C 457.008 11.956 462.57 16.764 466.695 17.768 C 470.82 18.773 513.133 23.456 516.445 22.956 C 519.758 22.456 535.258 18.018 535.258 18.018 L 548.32 22.956 C 548.32 22.956 552.695 33.206 555.82 35.206 C 558.945 37.206 565.008 36.018 570.133 34.643 C 575.258 33.268 597.869 13.595 600.883 13.595 L 622.367 13.595 C 626.854 13.595 646.867 24.595 646.867 24.595 Z" fill="url(#paint0_linear_1126_36265)"></path>
    <defs>
        <linearGradient id="paint0_linear_1126_36265" x1="1600.13" y1="360.672" x2="0.257786" y2="360.672" gradientUnits="userSpaceOnUse">
            <stop stop-color="#161616" stop-opacity="1"></stop>
            <stop offset="0.15" stop-color="#161616" stop-opacity="0.9"></stop>
            <stop offset="0.6" stop-color="#161616" stop-opacity="0.79"></stop>
            <stop offset="0.7934" stop-color="#161616" stop-opacity="0.72"></stop>
            <stop offset="1" stop-color="#161616" stop-opacity="0.38"></stop>
        </linearGradient>
    </defs>
</svg>
