<?xml version="1.0" encoding="UTF-8" standalone="no"?>
<svg width="2000" height="198" viewBox="4.5 0 2000 198" fill="none" version="1.1" id="svg1251" sodipodi:docname="hebrew-header-base.svg" inkscape:version="1.1.2 (b8e25be8, 2022-02-05)" xmlns:inkscape="http://www.inkscape.org/namespaces/inkscape" xmlns:sodipodi="http://sodipodi.sourceforge.net/DTD/sodipodi-0.dtd" xmlns="http://www.w3.org/2000/svg" xmlns:svg="http://www.w3.org/2000/svg">
    <g clip-path="url(#clipPath2)" transform="translate(4.3996877)" id="g1220">
        <path d="m 1431.395,139.915 c 5.236,1.75 12.013,2.001 14,0 1.986,-2 7,-12 7,-12 0,0 9.25,-5.097 13,-5 3.75,0.098 13.986,4.5 19,5 5.013,0.501 44.513,-3.499 49,-5 4.486,-1.5 9.995,-6 9.995,-6 1.75,-0.152 19,6 19,6 0,0 15.52,22 19,22 3.49,0 25,-10 25,-10 0,0 7.52,10 10,10 2.49,0 6,-5 6,-5 0,0 15.27,7.251 17,5 1.74,-2.25 0,-10 0,-10 l 14,-12 h 14 l 12,5 h 24 l 13,7 c 0,0 -1.5,20.239 0,21.481 1.5,1.242 30.13,-14.383 29,-17.481 -1.12,-3.098 -12.01,-9.75 -12,-12 0.02,-2.25 20.27,5 24,5 3.74,0 7.27,-11 11,-11 1.09,0 2.53,6.958 4.7,8.6 0.8,0 4.7,-0.036 10.24,0 13.97,0.016 37.61,-0.109 39.7,-0.109 0.57,0.125 1.14,0.243 1.69,0.359 l 0.55,0.117 c 1.2,0.254 2.34,0.505 3.37,0.68 l 8.13,1.75 9.78,10.109 c 0,0 13.74,5.813 14.9,5.883 1.17,0.07 8.03,-0.269 7.51,-2.207 -0.53,-1.938 -6.1,-9.426 -5.94,-10.707 0.15,-1.281 16.18,-15.625 17.18,-16.812 1,-1.188 -1.18,-4.875 -0.14,-6.391 1.05,-1.516 8.83,-6.965 10.83,-6.652 2,0.312 3.16,5.464 3.16,5.464 h 5.73 c 0,0 1.21,2.849 2.15,5.254 0.48,1.231 0.85,2.363 1.03,2.902 l 0.03,0.102 c 0.2,0.603 0.37,1.287 0.49,1.91 0.13,0.657 0.01,0.772 0.1,1.094 0.09,0.335 0.3,0.543 0.62,0.785 0.33,0.242 8.99,2.766 9.49,3.266 0.5,0.5 1.98,2.468 3.84,4.312 2.11,2.313 4.72,3.969 4.72,3.969 l 2.49,1.063 2.9,-0.11 20.75,-7.375 9.72,-6.797 6.14,-4.036 11.81,-4.87 c 0,0 3.7,-0.812 7.1,-0.812 2.51,-0.158 4.11,0.077 4.8,0.24 l 0.07,0.016 c 0.24,0.055 0.62,0.143 0.74,0.203 0.13,0.066 0.23,0.094 0.65,0.359 0.26,0.223 0.6,0.43 0.85,0.715 2.09,2.637 4.35,6.626 4.95,7.32 0.4,0.466 1.32,1.747 2.45,2.352 1.05,0.625 1.74,0.366 2.33,0.344 C 2000,76.743 1999.96,0 1999.96,0 H 0 v 129.137 h 1340.158 l 5.75,-1.221 0.487,-10e-4 c 0,0 2.623,-0.81 5.616,-1.978 2.234,-0.871 4.674,-1.942 6.384,-3.022 4,-2.527 10.375,-4.902 15,-4.902 0.925,0 3.593,-9.688 4.281,-11.063 0,0 0.469,-1.125 1.531,-1.687 1.063,-0.563 1.879,-3.58 1.879,-3.58 0,0 4.043,-25.933 6.582,-47.124 -2.395,21.531 -3.82,37.939 -0.336,47.891 0.192,0.548 0.382,1.048 0.58,1.531 0.228,0.559 0.468,1.096 0.733,1.657 3.134,6.641 10.361,11.019 12.375,12.375 11.013,7.803 27.207,21.109 30.375,21.902 z" fill="url(#paint1_linear)" shape-rendering="crispEdges" filter="url(#filter1_dark)" style="fill:url(#paint1_linear)" id="path1218" />
    </g>
    <defs id="defs1249">
        <filter id="filter1_dark" x="0.554688" y="0.838379" width="2000" height="196.466" filterUnits="userSpaceOnUse" color-interpolation-filters="sRGB">
            <feFlood flood-opacity="0" result="BackgroundImageFix" id="feFlood1222" />
            <feColorMatrix in="SourceAlpha" type="matrix" values="0 0 0 0 0 0 0 0 0 0 0 0 0 0 0 0 0 0 127 0" result="hardAlpha" id="feColorMatrix1224" />
            <feOffset dy="3" id="feOffset1226" />
            <feGaussianBlur stdDeviation="10" id="feGaussianBlur1228" />
            <feComposite in2="hardAlpha" operator="out" id="feComposite1230" />
            <feColorMatrix type="matrix" values="0 0 0 0 0.968627 0 0 0 0 0.968627 0 0 0 0 0.968627 0 0 0 0.3 0" id="feColorMatrix1232" />
            <feBlend mode="normal" in2="BackgroundImageFix" result="effect1_dropShadow_1080_19935" id="feBlend1234" />
            <feBlend mode="normal" in="SourceGraphic" in2="effect1_dropShadow_1080_19935" result="shape" id="feBlend1236" />
        </filter>
        <linearGradient id="paint1_linear" x1="20.5547" y1="174.304" x2="1459.16" y2="174.304" gradientUnits="userSpaceOnUse" gradientTransform="translate(540.83997,-17.838402)">
            <stop stop-color="rgb(22, 22, 22)" stop-opacity="1" id="stop1239" />
            <stop offset="0.033" stop-color="rgba(22, 22, 22)" stop-opacity="0.9" id="stop1241" />
            <stop offset="1" stop-color="rgba(22, 22, 22, 0)" stop-opacity="0" id="stop1243" />
        </linearGradient>
        <clipPath clipPathUnits="userSpaceOnUse" id="clipPath2">
            <rect width="1959.7551" height="199.47507" x="50" y="0" id="rect1246" />
        </clipPath>
    </defs>
</svg>
