<svg width="321" height="909" viewBox="0 5.5 321 909" fill="none" xmlns="http://www.w3.org/2000/svg">
    <g clip-path="url(#clip0_431_29913)">
        <path d="M22.4316 65.8234L8.94531 61.1536H0.382812L-0.554688 893H320.445L320.445 60.8818L270.682 60.8818C270.682 60.8818 261.932 63.1203 259.807 63.1203C257.682 63.1203 253.557 68.4963 251.682 70.1749C249.807 71.8535 235.807 76.5785 235.807 76.5785C235.807 76.5785 230.807 77.0759 228.244 76.019C225.682 74.9621 232.841 66.0548 233.307 63.5848C233.772 61.1149 217.994 49.5964 216.494 47.7312C214.994 45.8661 217.244 41.8872 215.994 40.2707C214.744 38.6543 208.578 34.0391 206.494 34.9862C204.41 35.9334 204.307 39.1517 204.307 39.1517L196.369 41.825C196.369 41.825 192.744 52.4562 192.182 53.451C191.619 54.4457 184.307 56 181.557 57.7408C178.807 59.4815 175.168 66.6934 170.932 66.6934C166.695 66.6934 147.182 59.3572 147.182 59.3572L131.057 48.1664L119.432 43.1928C119.432 43.1928 108.807 41.7628 106.432 43.7523C104.057 45.7418 101.057 53.1401 96.9941 54.0727C92.9316 55.0052 81.293 48.4151 77.5566 48.4151C73.8203 48.4151 70.918 59.4194 67.1816 59.4194C63.4453 59.4194 44.9316 53.5131 44.9316 54.6324C44.9316 55.7517 56.3066 64.7043 56.3066 65.8234C56.3066 66.9425 26.4472 89.7345 23.0566 88.3293C19.6661 86.924 22.4316 65.8234 22.4316 65.8234Z" fill="url(#paint0_linear_431_29913)" />
    </g>
    <defs>
        <linearGradient id="paint0_linear_431_29913" x1="-0.554688" y1="893" x2="320.445" y2="893" gradientUnits="userSpaceOnUse">
            <stop stop-color="#161616" stop-opacity="0.79" />
            <stop offset="0.664879" stop-color="#161616" stop-opacity="0.72" />
            <stop offset="1" stop-color="#161616" stop-opacity="0.38" />
        </linearGradient>
        <clipPath id="clip0_431_29913">
            <rect width="320" height="909" fill="white" transform="translate(0.445312)" />
        </clipPath>
    </defs>
</svg>
