<svg width="321" height="1000" viewBox="0 -19 321 1000" fill="none" xmlns="http://www.w3.org/2000/svg">
    <g clip-path="url(#clip0_431_29547)">
        <g filter="url(#filter0_d_431_29547)">
            <path d="M23.4316 41.3187L9.94531 36.4446H1.38281L0.445312 1000.683H321.445L321.445 36.1609L271.682 36.1609C271.682 36.1609 262.932 38.4973 260.807 38.4973C258.682 38.4973 254.557 44.1085 252.682 45.8606C250.807 47.6126 236.807 52.5443 236.807 52.5443C236.807 52.5443 231.807 53.0635 229.244 51.9603C226.682 50.8572 233.841 41.5602 234.307 38.9822C234.772 36.4042 218.994 24.3817 217.494 22.435C215.994 20.4883 218.244 16.3353 216.994 14.6481C215.744 12.9609 209.578 8.1438 207.494 9.13239C205.41 10.121 205.307 13.4801 205.307 13.4801L197.369 16.2704C197.369 16.2704 193.744 27.3667 193.182 28.405C192.619 29.4432 185.307 31.0655 182.557 32.8824C179.807 34.6994 176.168 42.2267 171.932 42.2267C167.695 42.2267 148.182 34.5696 148.182 34.5696L132.057 22.8892L120.432 17.698C120.432 17.698 109.807 16.2055 107.432 18.282C105.057 20.3585 102.057 28.0805 97.9941 29.0539C93.9316 30.0272 82.293 23.1488 78.5566 23.1488C74.8203 23.1488 71.918 34.6345 68.1816 34.6345C64.4453 34.6345 45.9316 28.4698 45.9316 29.6381C45.9316 30.8064 57.3066 40.1506 57.3066 41.3187C57.3066 42.4867 27.4472 66.2759 24.0566 64.8091C20.6661 63.3424 23.4316 41.3187 23.4316 41.3187Z" fill="#222222" />
        </g>
    </g>
    <defs>
        <filter id="filter0_d_431_29547" x="-19.5547" y="-8" width="361" height="1000" filterUnits="userSpaceOnUse" color-interpolation-filters="sRGB">
            <feFlood flood-opacity="0" result="BackgroundImageFix" />
            <feColorMatrix in="SourceAlpha" type="matrix" values="0 0 0 0 0 0 0 0 0 0 0 0 0 0 0 0 0 0 127 0" result="hardAlpha" />
            <feOffset dy="3" />
            <feGaussianBlur stdDeviation="10" />
            <feComposite in2="hardAlpha" operator="out" />
            <feColorMatrix type="matrix" values="0 0 0 0 0.968627 0 0 0 0 0.968627 0 0 0 0 0.968627 0 0 0 1 0" />
            <feBlend mode="normal" in2="BackgroundImageFix" result="effect1_dropShadow_431_29547" />
            <feBlend mode="normal" in="SourceGraphic" in2="effect1_dropShadow_431_29547" result="shape" />
        </filter>
        <clipPath id="clip0_431_29547">
            <rect width="320" height="1000" fill="white" transform="translate(0.445312)" />
        </clipPath>
    </defs>
</svg>
